%TF.GenerationSoftware,KiCad,Pcbnew,9.0.3*%
%TF.CreationDate,2025-09-07T15:09:46-04:00*%
%TF.ProjectId,flight-computer,666c6967-6874-42d6-936f-6d7075746572,rev?*%
%TF.SameCoordinates,Original*%
%TF.FileFunction,Soldermask,Bot*%
%TF.FilePolarity,Negative*%
%FSLAX46Y46*%
G04 Gerber Fmt 4.6, Leading zero omitted, Abs format (unit mm)*
G04 Created by KiCad (PCBNEW 9.0.3) date 2025-09-07 15:09:46*
%MOMM*%
%LPD*%
G01*
G04 APERTURE LIST*
G04 Aperture macros list*
%AMRoundRect*
0 Rectangle with rounded corners*
0 $1 Rounding radius*
0 $2 $3 $4 $5 $6 $7 $8 $9 X,Y pos of 4 corners*
0 Add a 4 corners polygon primitive as box body*
4,1,4,$2,$3,$4,$5,$6,$7,$8,$9,$2,$3,0*
0 Add four circle primitives for the rounded corners*
1,1,$1+$1,$2,$3*
1,1,$1+$1,$4,$5*
1,1,$1+$1,$6,$7*
1,1,$1+$1,$8,$9*
0 Add four rect primitives between the rounded corners*
20,1,$1+$1,$2,$3,$4,$5,0*
20,1,$1+$1,$4,$5,$6,$7,0*
20,1,$1+$1,$6,$7,$8,$9,0*
20,1,$1+$1,$8,$9,$2,$3,0*%
G04 Aperture macros list end*
%ADD10C,0.600000*%
%ADD11R,3.900000X3.900000*%
%ADD12R,1.500000X0.900000*%
%ADD13R,0.900000X1.500000*%
%ADD14C,0.650000*%
%ADD15O,1.000000X2.100000*%
%ADD16O,1.000000X1.800000*%
%ADD17C,3.800000*%
%ADD18R,1.700000X1.700000*%
%ADD19C,1.700000*%
%ADD20RoundRect,0.135000X-0.185000X0.135000X-0.185000X-0.135000X0.185000X-0.135000X0.185000X0.135000X0*%
%ADD21R,0.812800X1.193800*%
%ADD22R,1.498600X2.006600*%
G04 APERTURE END LIST*
D10*
%TO.C,U2*%
X144867600Y-88300000D03*
X144867600Y-89700000D03*
X145567600Y-87600000D03*
X145567600Y-89000000D03*
X145567600Y-90400000D03*
X146267600Y-88300000D03*
D11*
X146267600Y-89000000D03*
D10*
X146267600Y-89700000D03*
X146967600Y-87600000D03*
X146967600Y-89000000D03*
X146967600Y-90400000D03*
X147667600Y-88300000D03*
X147667600Y-89700000D03*
D12*
X136017600Y-81280000D03*
X136017600Y-82550000D03*
X136017600Y-83820000D03*
X136017600Y-85090000D03*
X136017600Y-86360000D03*
X136017600Y-87630000D03*
X136017600Y-88900000D03*
X136017600Y-90170000D03*
X136017600Y-91440000D03*
X136017600Y-92710000D03*
X136017600Y-93980000D03*
X136017600Y-95250000D03*
X136017600Y-96520000D03*
X136017600Y-97790000D03*
D13*
X137782600Y-99040000D03*
X139052600Y-99040000D03*
X140322600Y-99040000D03*
X141592600Y-99040000D03*
X142862600Y-99040000D03*
X144132600Y-99040000D03*
X145402600Y-99040000D03*
X146672600Y-99040000D03*
X147942600Y-99040000D03*
X149212600Y-99040000D03*
X150482600Y-99040000D03*
X151752600Y-99040000D03*
D12*
X153517600Y-97790000D03*
X153517600Y-96520000D03*
X153517600Y-95250000D03*
X153517600Y-93980000D03*
X153517600Y-92710000D03*
X153517600Y-91440000D03*
X153517600Y-90170000D03*
X153517600Y-88900000D03*
X153517600Y-87630000D03*
X153517600Y-86360000D03*
X153517600Y-85090000D03*
X153517600Y-83820000D03*
X153517600Y-82550000D03*
X153517600Y-81280000D03*
%TD*%
D14*
%TO.C,J1*%
X141771895Y-123641555D03*
X147551895Y-123641555D03*
D15*
X140341895Y-123141555D03*
D16*
X140341895Y-127321555D03*
D15*
X148981895Y-123141555D03*
D16*
X148981895Y-127321555D03*
%TD*%
D17*
%TO.C,H2*%
X153982000Y-103200000D03*
%TD*%
D18*
%TO.C,J6*%
X134931895Y-109056555D03*
D19*
X134931895Y-111596555D03*
%TD*%
D17*
%TO.C,H4*%
X153982000Y-126450000D03*
%TD*%
%TO.C,H1*%
X135582000Y-103200000D03*
%TD*%
%TO.C,H3*%
X135582000Y-126450000D03*
%TD*%
D18*
%TO.C,J3*%
X154731895Y-111396555D03*
D19*
X154731895Y-108856555D03*
%TD*%
D20*
%TO.C,R5*%
X143481895Y-124486555D03*
X143481895Y-125506555D03*
%TD*%
D21*
%TO.C,J7*%
X141656895Y-115770256D03*
X142756895Y-115770256D03*
X143856896Y-115770256D03*
X144956896Y-115770256D03*
X146056894Y-115770256D03*
X147156894Y-115770256D03*
X148256895Y-115770256D03*
X149356895Y-115770256D03*
D22*
X151826895Y-117970256D03*
X151826895Y-109770255D03*
X137936895Y-117970256D03*
X137936895Y-109770255D03*
%TD*%
D20*
%TO.C,R6*%
X146231895Y-124486555D03*
X146231895Y-125506555D03*
%TD*%
M02*
