M48
; DRILL file {KiCad 9.0.2} date 2025-09-15T18:44:50-0400
; FORMAT={-:-/ absolute / metric / decimal}
; #@! TF.CreationDate,2025-09-15T18:44:50-04:00
; #@! TF.GenerationSoftware,Kicad,Pcbnew,9.0.2
; #@! TF.FileFunction,Plated,1,2,PTH
FMAT,2
METRIC
; #@! TA.AperFunction,Plated,PTH,ViaDrill
T1C0.300
; #@! TA.AperFunction,Plated,PTH,ComponentDrill
T2C0.300
; #@! TA.AperFunction,Plated,PTH,ComponentDrill
T3C0.600
; #@! TA.AperFunction,Plated,PTH,ComponentDrill
T4C1.000
; #@! TA.AperFunction,Plated,PTH,ComponentDrill
T5C2.200
%
G90
G05
T1
X137.482Y-84.997
X137.482Y-87.997
X137.482Y-89.497
X137.482Y-90.997
X137.482Y-92.497
X137.732Y-93.997
X137.732Y-96.247
X138.732Y-94.997
X141.482Y-121.247
X142.289Y-87.997
X143.482Y-123.747
X143.737Y-120.747
X144.587Y-120.747
X145.309Y-109.169
X146.232Y-123.747
X146.732Y-96.747
X146.922Y-94.311
X147.232Y-107.747
X147.232Y-113.997
X147.982Y-100.497
X148.232Y-92.247
X148.232Y-121.247
X148.727Y-94.742
X148.732Y-113.997
X149.482Y-86.497
X149.482Y-100.747
X150.931Y-100.946
X151.532Y-101.547
X152.232Y-84.747
X152.232Y-86.247
X152.232Y-87.747
X152.232Y-89.247
X152.232Y-90.747
X152.232Y-92.247
X153.518Y-82.55
X153.518Y-83.82
X153.518Y-96.52
X153.518Y-97.79
T2
X144.868Y-88.3
X144.868Y-89.7
X145.568Y-87.6
X145.568Y-89.0
X145.568Y-90.4
X146.268Y-88.3
X146.268Y-89.7
X146.968Y-87.6
X146.968Y-89.0
X146.968Y-90.4
X147.668Y-88.3
X147.668Y-89.7
T4
X134.932Y-109.057
X134.932Y-111.597
X154.732Y-108.857
X154.732Y-111.397
T5
X135.582Y-103.2
X135.582Y-126.45
X153.982Y-103.2
X153.982Y-126.45
T3
G00X140.342Y-122.592
M15
G01X140.342Y-123.692
M16
G05
G00X140.342Y-126.922
M15
G01X140.342Y-127.722
M16
G05
G00X148.982Y-122.592
M15
G01X148.982Y-123.692
M16
G05
G00X148.982Y-126.922
M15
G01X148.982Y-127.722
M16
G05
M30
