%TF.GenerationSoftware,KiCad,Pcbnew,9.0.2*%
%TF.CreationDate,2025-09-15T18:44:55-04:00*%
%TF.ProjectId,flight-computer,666c6967-6874-42d6-936f-6d7075746572,rev?*%
%TF.SameCoordinates,Original*%
%TF.FileFunction,Legend,Top*%
%TF.FilePolarity,Positive*%
%FSLAX46Y46*%
G04 Gerber Fmt 4.6, Leading zero omitted, Abs format (unit mm)*
G04 Created by KiCad (PCBNEW 9.0.2) date 2025-09-15 18:44:55*
%MOMM*%
%LPD*%
G01*
G04 APERTURE LIST*
%ADD10C,0.087500*%
%ADD11C,0.100000*%
%ADD12C,0.150000*%
%ADD13C,0.120000*%
%ADD14C,0.152400*%
%ADD15C,0.000000*%
G04 APERTURE END LIST*
D10*
X147736126Y-80736338D02*
X147502793Y-80403005D01*
X147336126Y-80736338D02*
X147336126Y-80036338D01*
X147336126Y-80036338D02*
X147602793Y-80036338D01*
X147602793Y-80036338D02*
X147669460Y-80069671D01*
X147669460Y-80069671D02*
X147702793Y-80103005D01*
X147702793Y-80103005D02*
X147736126Y-80169671D01*
X147736126Y-80169671D02*
X147736126Y-80269671D01*
X147736126Y-80269671D02*
X147702793Y-80336338D01*
X147702793Y-80336338D02*
X147669460Y-80369671D01*
X147669460Y-80369671D02*
X147602793Y-80403005D01*
X147602793Y-80403005D02*
X147336126Y-80403005D01*
X148002793Y-80703005D02*
X148102793Y-80736338D01*
X148102793Y-80736338D02*
X148269460Y-80736338D01*
X148269460Y-80736338D02*
X148336126Y-80703005D01*
X148336126Y-80703005D02*
X148369460Y-80669671D01*
X148369460Y-80669671D02*
X148402793Y-80603005D01*
X148402793Y-80603005D02*
X148402793Y-80536338D01*
X148402793Y-80536338D02*
X148369460Y-80469671D01*
X148369460Y-80469671D02*
X148336126Y-80436338D01*
X148336126Y-80436338D02*
X148269460Y-80403005D01*
X148269460Y-80403005D02*
X148136126Y-80369671D01*
X148136126Y-80369671D02*
X148069460Y-80336338D01*
X148069460Y-80336338D02*
X148036126Y-80303005D01*
X148036126Y-80303005D02*
X148002793Y-80236338D01*
X148002793Y-80236338D02*
X148002793Y-80169671D01*
X148002793Y-80169671D02*
X148036126Y-80103005D01*
X148036126Y-80103005D02*
X148069460Y-80069671D01*
X148069460Y-80069671D02*
X148136126Y-80036338D01*
X148136126Y-80036338D02*
X148302793Y-80036338D01*
X148302793Y-80036338D02*
X148402793Y-80069671D01*
X148602793Y-80036338D02*
X149002793Y-80036338D01*
X148802793Y-80736338D02*
X148802793Y-80036338D01*
D11*
X133785779Y-114988021D02*
X134547684Y-114988021D01*
X134166731Y-115368974D02*
X134166731Y-114607069D01*
X134033361Y-106412670D02*
X134033361Y-105650766D01*
D10*
X146009460Y-85169671D02*
X146109460Y-85203005D01*
X146109460Y-85203005D02*
X146142793Y-85236338D01*
X146142793Y-85236338D02*
X146176126Y-85303005D01*
X146176126Y-85303005D02*
X146176126Y-85403005D01*
X146176126Y-85403005D02*
X146142793Y-85469671D01*
X146142793Y-85469671D02*
X146109460Y-85503005D01*
X146109460Y-85503005D02*
X146042793Y-85536338D01*
X146042793Y-85536338D02*
X145776126Y-85536338D01*
X145776126Y-85536338D02*
X145776126Y-84836338D01*
X145776126Y-84836338D02*
X146009460Y-84836338D01*
X146009460Y-84836338D02*
X146076126Y-84869671D01*
X146076126Y-84869671D02*
X146109460Y-84903005D01*
X146109460Y-84903005D02*
X146142793Y-84969671D01*
X146142793Y-84969671D02*
X146142793Y-85036338D01*
X146142793Y-85036338D02*
X146109460Y-85103005D01*
X146109460Y-85103005D02*
X146076126Y-85136338D01*
X146076126Y-85136338D02*
X146009460Y-85169671D01*
X146009460Y-85169671D02*
X145776126Y-85169671D01*
X146609460Y-84836338D02*
X146742793Y-84836338D01*
X146742793Y-84836338D02*
X146809460Y-84869671D01*
X146809460Y-84869671D02*
X146876126Y-84936338D01*
X146876126Y-84936338D02*
X146909460Y-85069671D01*
X146909460Y-85069671D02*
X146909460Y-85303005D01*
X146909460Y-85303005D02*
X146876126Y-85436338D01*
X146876126Y-85436338D02*
X146809460Y-85503005D01*
X146809460Y-85503005D02*
X146742793Y-85536338D01*
X146742793Y-85536338D02*
X146609460Y-85536338D01*
X146609460Y-85536338D02*
X146542793Y-85503005D01*
X146542793Y-85503005D02*
X146476126Y-85436338D01*
X146476126Y-85436338D02*
X146442793Y-85303005D01*
X146442793Y-85303005D02*
X146442793Y-85069671D01*
X146442793Y-85069671D02*
X146476126Y-84936338D01*
X146476126Y-84936338D02*
X146542793Y-84869671D01*
X146542793Y-84869671D02*
X146609460Y-84836338D01*
X147342793Y-84836338D02*
X147476126Y-84836338D01*
X147476126Y-84836338D02*
X147542793Y-84869671D01*
X147542793Y-84869671D02*
X147609459Y-84936338D01*
X147609459Y-84936338D02*
X147642793Y-85069671D01*
X147642793Y-85069671D02*
X147642793Y-85303005D01*
X147642793Y-85303005D02*
X147609459Y-85436338D01*
X147609459Y-85436338D02*
X147542793Y-85503005D01*
X147542793Y-85503005D02*
X147476126Y-85536338D01*
X147476126Y-85536338D02*
X147342793Y-85536338D01*
X147342793Y-85536338D02*
X147276126Y-85503005D01*
X147276126Y-85503005D02*
X147209459Y-85436338D01*
X147209459Y-85436338D02*
X147176126Y-85303005D01*
X147176126Y-85303005D02*
X147176126Y-85069671D01*
X147176126Y-85069671D02*
X147209459Y-84936338D01*
X147209459Y-84936338D02*
X147276126Y-84869671D01*
X147276126Y-84869671D02*
X147342793Y-84836338D01*
X147842792Y-84836338D02*
X148242792Y-84836338D01*
X148042792Y-85536338D02*
X148042792Y-84836338D01*
D12*
X150065228Y-115451374D02*
X149731895Y-114975183D01*
X149493800Y-115451374D02*
X149493800Y-114451374D01*
X149493800Y-114451374D02*
X149874752Y-114451374D01*
X149874752Y-114451374D02*
X149969990Y-114498993D01*
X149969990Y-114498993D02*
X150017609Y-114546612D01*
X150017609Y-114546612D02*
X150065228Y-114641850D01*
X150065228Y-114641850D02*
X150065228Y-114784707D01*
X150065228Y-114784707D02*
X150017609Y-114879945D01*
X150017609Y-114879945D02*
X149969990Y-114927564D01*
X149969990Y-114927564D02*
X149874752Y-114975183D01*
X149874752Y-114975183D02*
X149493800Y-114975183D01*
X150398562Y-114451374D02*
X151017609Y-114451374D01*
X151017609Y-114451374D02*
X150684276Y-114832326D01*
X150684276Y-114832326D02*
X150827133Y-114832326D01*
X150827133Y-114832326D02*
X150922371Y-114879945D01*
X150922371Y-114879945D02*
X150969990Y-114927564D01*
X150969990Y-114927564D02*
X151017609Y-115022802D01*
X151017609Y-115022802D02*
X151017609Y-115260897D01*
X151017609Y-115260897D02*
X150969990Y-115356135D01*
X150969990Y-115356135D02*
X150922371Y-115403755D01*
X150922371Y-115403755D02*
X150827133Y-115451374D01*
X150827133Y-115451374D02*
X150541419Y-115451374D01*
X150541419Y-115451374D02*
X150446181Y-115403755D01*
X150446181Y-115403755D02*
X150398562Y-115356135D01*
X142428562Y-82793755D02*
X142571419Y-82841374D01*
X142571419Y-82841374D02*
X142809514Y-82841374D01*
X142809514Y-82841374D02*
X142904752Y-82793755D01*
X142904752Y-82793755D02*
X142952371Y-82746135D01*
X142952371Y-82746135D02*
X142999990Y-82650897D01*
X142999990Y-82650897D02*
X142999990Y-82555659D01*
X142999990Y-82555659D02*
X142952371Y-82460421D01*
X142952371Y-82460421D02*
X142904752Y-82412802D01*
X142904752Y-82412802D02*
X142809514Y-82365183D01*
X142809514Y-82365183D02*
X142619038Y-82317564D01*
X142619038Y-82317564D02*
X142523800Y-82269945D01*
X142523800Y-82269945D02*
X142476181Y-82222326D01*
X142476181Y-82222326D02*
X142428562Y-82127088D01*
X142428562Y-82127088D02*
X142428562Y-82031850D01*
X142428562Y-82031850D02*
X142476181Y-81936612D01*
X142476181Y-81936612D02*
X142523800Y-81888993D01*
X142523800Y-81888993D02*
X142619038Y-81841374D01*
X142619038Y-81841374D02*
X142857133Y-81841374D01*
X142857133Y-81841374D02*
X142999990Y-81888993D01*
X143333324Y-81841374D02*
X143571419Y-82841374D01*
X143571419Y-82841374D02*
X143761895Y-82127088D01*
X143761895Y-82127088D02*
X143952371Y-82841374D01*
X143952371Y-82841374D02*
X144190467Y-81841374D01*
X144476181Y-81841374D02*
X145095228Y-81841374D01*
X145095228Y-81841374D02*
X144761895Y-82222326D01*
X144761895Y-82222326D02*
X144904752Y-82222326D01*
X144904752Y-82222326D02*
X144999990Y-82269945D01*
X144999990Y-82269945D02*
X145047609Y-82317564D01*
X145047609Y-82317564D02*
X145095228Y-82412802D01*
X145095228Y-82412802D02*
X145095228Y-82650897D01*
X145095228Y-82650897D02*
X145047609Y-82746135D01*
X145047609Y-82746135D02*
X144999990Y-82793755D01*
X144999990Y-82793755D02*
X144904752Y-82841374D01*
X144904752Y-82841374D02*
X144619038Y-82841374D01*
X144619038Y-82841374D02*
X144523800Y-82793755D01*
X144523800Y-82793755D02*
X144476181Y-82746135D01*
X139941895Y-80091374D02*
X139941895Y-80329469D01*
X139703800Y-80234231D02*
X139941895Y-80329469D01*
X139941895Y-80329469D02*
X140179990Y-80234231D01*
X139799038Y-80519945D02*
X139941895Y-80329469D01*
X139941895Y-80329469D02*
X140084752Y-80519945D01*
X153075228Y-81951374D02*
X152741895Y-81475183D01*
X152503800Y-81951374D02*
X152503800Y-80951374D01*
X152503800Y-80951374D02*
X152884752Y-80951374D01*
X152884752Y-80951374D02*
X152979990Y-80998993D01*
X152979990Y-80998993D02*
X153027609Y-81046612D01*
X153027609Y-81046612D02*
X153075228Y-81141850D01*
X153075228Y-81141850D02*
X153075228Y-81284707D01*
X153075228Y-81284707D02*
X153027609Y-81379945D01*
X153027609Y-81379945D02*
X152979990Y-81427564D01*
X152979990Y-81427564D02*
X152884752Y-81475183D01*
X152884752Y-81475183D02*
X152503800Y-81475183D01*
X154027609Y-81951374D02*
X153456181Y-81951374D01*
X153741895Y-81951374D02*
X153741895Y-80951374D01*
X153741895Y-80951374D02*
X153646657Y-81094231D01*
X153646657Y-81094231D02*
X153551419Y-81189469D01*
X153551419Y-81189469D02*
X153456181Y-81237088D01*
X144815228Y-98769580D02*
X144767609Y-98817200D01*
X144767609Y-98817200D02*
X144624752Y-98864819D01*
X144624752Y-98864819D02*
X144529514Y-98864819D01*
X144529514Y-98864819D02*
X144386657Y-98817200D01*
X144386657Y-98817200D02*
X144291419Y-98721961D01*
X144291419Y-98721961D02*
X144243800Y-98626723D01*
X144243800Y-98626723D02*
X144196181Y-98436247D01*
X144196181Y-98436247D02*
X144196181Y-98293390D01*
X144196181Y-98293390D02*
X144243800Y-98102914D01*
X144243800Y-98102914D02*
X144291419Y-98007676D01*
X144291419Y-98007676D02*
X144386657Y-97912438D01*
X144386657Y-97912438D02*
X144529514Y-97864819D01*
X144529514Y-97864819D02*
X144624752Y-97864819D01*
X144624752Y-97864819D02*
X144767609Y-97912438D01*
X144767609Y-97912438D02*
X144815228Y-97960057D01*
X145148562Y-97864819D02*
X145815228Y-97864819D01*
X145815228Y-97864819D02*
X145386657Y-98864819D01*
X143281952Y-102841793D02*
X143234333Y-102937031D01*
X143234333Y-102937031D02*
X143139095Y-103032269D01*
X143139095Y-103032269D02*
X142996237Y-103175126D01*
X142996237Y-103175126D02*
X142948618Y-103270364D01*
X142948618Y-103270364D02*
X142948618Y-103365602D01*
X143186714Y-103317983D02*
X143139095Y-103413221D01*
X143139095Y-103413221D02*
X143043856Y-103508459D01*
X143043856Y-103508459D02*
X142853380Y-103556078D01*
X142853380Y-103556078D02*
X142520047Y-103556078D01*
X142520047Y-103556078D02*
X142329571Y-103508459D01*
X142329571Y-103508459D02*
X142234333Y-103413221D01*
X142234333Y-103413221D02*
X142186714Y-103317983D01*
X142186714Y-103317983D02*
X142186714Y-103127507D01*
X142186714Y-103127507D02*
X142234333Y-103032269D01*
X142234333Y-103032269D02*
X142329571Y-102937031D01*
X142329571Y-102937031D02*
X142520047Y-102889412D01*
X142520047Y-102889412D02*
X142853380Y-102889412D01*
X142853380Y-102889412D02*
X143043856Y-102937031D01*
X143043856Y-102937031D02*
X143139095Y-103032269D01*
X143139095Y-103032269D02*
X143186714Y-103127507D01*
X143186714Y-103127507D02*
X143186714Y-103317983D01*
X142281952Y-102508459D02*
X142234333Y-102460840D01*
X142234333Y-102460840D02*
X142186714Y-102365602D01*
X142186714Y-102365602D02*
X142186714Y-102127507D01*
X142186714Y-102127507D02*
X142234333Y-102032269D01*
X142234333Y-102032269D02*
X142281952Y-101984650D01*
X142281952Y-101984650D02*
X142377190Y-101937031D01*
X142377190Y-101937031D02*
X142472428Y-101937031D01*
X142472428Y-101937031D02*
X142615285Y-101984650D01*
X142615285Y-101984650D02*
X143186714Y-102556078D01*
X143186714Y-102556078D02*
X143186714Y-101937031D01*
X147315228Y-113606135D02*
X147267609Y-113653755D01*
X147267609Y-113653755D02*
X147124752Y-113701374D01*
X147124752Y-113701374D02*
X147029514Y-113701374D01*
X147029514Y-113701374D02*
X146886657Y-113653755D01*
X146886657Y-113653755D02*
X146791419Y-113558516D01*
X146791419Y-113558516D02*
X146743800Y-113463278D01*
X146743800Y-113463278D02*
X146696181Y-113272802D01*
X146696181Y-113272802D02*
X146696181Y-113129945D01*
X146696181Y-113129945D02*
X146743800Y-112939469D01*
X146743800Y-112939469D02*
X146791419Y-112844231D01*
X146791419Y-112844231D02*
X146886657Y-112748993D01*
X146886657Y-112748993D02*
X147029514Y-112701374D01*
X147029514Y-112701374D02*
X147124752Y-112701374D01*
X147124752Y-112701374D02*
X147267609Y-112748993D01*
X147267609Y-112748993D02*
X147315228Y-112796612D01*
X148172371Y-113034707D02*
X148172371Y-113701374D01*
X147934276Y-112653755D02*
X147696181Y-113368040D01*
X147696181Y-113368040D02*
X148315228Y-113368040D01*
X149805228Y-84356135D02*
X149757609Y-84403755D01*
X149757609Y-84403755D02*
X149614752Y-84451374D01*
X149614752Y-84451374D02*
X149519514Y-84451374D01*
X149519514Y-84451374D02*
X149376657Y-84403755D01*
X149376657Y-84403755D02*
X149281419Y-84308516D01*
X149281419Y-84308516D02*
X149233800Y-84213278D01*
X149233800Y-84213278D02*
X149186181Y-84022802D01*
X149186181Y-84022802D02*
X149186181Y-83879945D01*
X149186181Y-83879945D02*
X149233800Y-83689469D01*
X149233800Y-83689469D02*
X149281419Y-83594231D01*
X149281419Y-83594231D02*
X149376657Y-83498993D01*
X149376657Y-83498993D02*
X149519514Y-83451374D01*
X149519514Y-83451374D02*
X149614752Y-83451374D01*
X149614752Y-83451374D02*
X149757609Y-83498993D01*
X149757609Y-83498993D02*
X149805228Y-83546612D01*
X150138562Y-83451374D02*
X150757609Y-83451374D01*
X150757609Y-83451374D02*
X150424276Y-83832326D01*
X150424276Y-83832326D02*
X150567133Y-83832326D01*
X150567133Y-83832326D02*
X150662371Y-83879945D01*
X150662371Y-83879945D02*
X150709990Y-83927564D01*
X150709990Y-83927564D02*
X150757609Y-84022802D01*
X150757609Y-84022802D02*
X150757609Y-84260897D01*
X150757609Y-84260897D02*
X150709990Y-84356135D01*
X150709990Y-84356135D02*
X150662371Y-84403755D01*
X150662371Y-84403755D02*
X150567133Y-84451374D01*
X150567133Y-84451374D02*
X150281419Y-84451374D01*
X150281419Y-84451374D02*
X150186181Y-84403755D01*
X150186181Y-84403755D02*
X150138562Y-84356135D01*
X145469990Y-91451374D02*
X145469990Y-92260897D01*
X145469990Y-92260897D02*
X145517609Y-92356135D01*
X145517609Y-92356135D02*
X145565228Y-92403755D01*
X145565228Y-92403755D02*
X145660466Y-92451374D01*
X145660466Y-92451374D02*
X145850942Y-92451374D01*
X145850942Y-92451374D02*
X145946180Y-92403755D01*
X145946180Y-92403755D02*
X145993799Y-92356135D01*
X145993799Y-92356135D02*
X146041418Y-92260897D01*
X146041418Y-92260897D02*
X146041418Y-91451374D01*
X146422371Y-91451374D02*
X147041418Y-91451374D01*
X147041418Y-91451374D02*
X146708085Y-91832326D01*
X146708085Y-91832326D02*
X146850942Y-91832326D01*
X146850942Y-91832326D02*
X146946180Y-91879945D01*
X146946180Y-91879945D02*
X146993799Y-91927564D01*
X146993799Y-91927564D02*
X147041418Y-92022802D01*
X147041418Y-92022802D02*
X147041418Y-92260897D01*
X147041418Y-92260897D02*
X146993799Y-92356135D01*
X146993799Y-92356135D02*
X146946180Y-92403755D01*
X146946180Y-92403755D02*
X146850942Y-92451374D01*
X146850942Y-92451374D02*
X146565228Y-92451374D01*
X146565228Y-92451374D02*
X146469990Y-92403755D01*
X146469990Y-92403755D02*
X146422371Y-92356135D01*
X144231895Y-91951374D02*
X144231895Y-92189469D01*
X143993800Y-92094231D02*
X144231895Y-92189469D01*
X144231895Y-92189469D02*
X144469990Y-92094231D01*
X144089038Y-92379945D02*
X144231895Y-92189469D01*
X144231895Y-92189469D02*
X144374752Y-92379945D01*
X135686714Y-121584649D02*
X134686714Y-121584649D01*
X134686714Y-121584649D02*
X134686714Y-121346554D01*
X134686714Y-121346554D02*
X134734333Y-121203697D01*
X134734333Y-121203697D02*
X134829571Y-121108459D01*
X134829571Y-121108459D02*
X134924809Y-121060840D01*
X134924809Y-121060840D02*
X135115285Y-121013221D01*
X135115285Y-121013221D02*
X135258142Y-121013221D01*
X135258142Y-121013221D02*
X135448618Y-121060840D01*
X135448618Y-121060840D02*
X135543856Y-121108459D01*
X135543856Y-121108459D02*
X135639095Y-121203697D01*
X135639095Y-121203697D02*
X135686714Y-121346554D01*
X135686714Y-121346554D02*
X135686714Y-121584649D01*
X135686714Y-120060840D02*
X135686714Y-120632268D01*
X135686714Y-120346554D02*
X134686714Y-120346554D01*
X134686714Y-120346554D02*
X134829571Y-120441792D01*
X134829571Y-120441792D02*
X134924809Y-120537030D01*
X134924809Y-120537030D02*
X134972428Y-120632268D01*
X151001475Y-96163221D02*
X151049095Y-96210840D01*
X151049095Y-96210840D02*
X151096714Y-96353697D01*
X151096714Y-96353697D02*
X151096714Y-96448935D01*
X151096714Y-96448935D02*
X151049095Y-96591792D01*
X151049095Y-96591792D02*
X150953856Y-96687030D01*
X150953856Y-96687030D02*
X150858618Y-96734649D01*
X150858618Y-96734649D02*
X150668142Y-96782268D01*
X150668142Y-96782268D02*
X150525285Y-96782268D01*
X150525285Y-96782268D02*
X150334809Y-96734649D01*
X150334809Y-96734649D02*
X150239571Y-96687030D01*
X150239571Y-96687030D02*
X150144333Y-96591792D01*
X150144333Y-96591792D02*
X150096714Y-96448935D01*
X150096714Y-96448935D02*
X150096714Y-96353697D01*
X150096714Y-96353697D02*
X150144333Y-96210840D01*
X150144333Y-96210840D02*
X150191952Y-96163221D01*
X150525285Y-95591792D02*
X150477666Y-95687030D01*
X150477666Y-95687030D02*
X150430047Y-95734649D01*
X150430047Y-95734649D02*
X150334809Y-95782268D01*
X150334809Y-95782268D02*
X150287190Y-95782268D01*
X150287190Y-95782268D02*
X150191952Y-95734649D01*
X150191952Y-95734649D02*
X150144333Y-95687030D01*
X150144333Y-95687030D02*
X150096714Y-95591792D01*
X150096714Y-95591792D02*
X150096714Y-95401316D01*
X150096714Y-95401316D02*
X150144333Y-95306078D01*
X150144333Y-95306078D02*
X150191952Y-95258459D01*
X150191952Y-95258459D02*
X150287190Y-95210840D01*
X150287190Y-95210840D02*
X150334809Y-95210840D01*
X150334809Y-95210840D02*
X150430047Y-95258459D01*
X150430047Y-95258459D02*
X150477666Y-95306078D01*
X150477666Y-95306078D02*
X150525285Y-95401316D01*
X150525285Y-95401316D02*
X150525285Y-95591792D01*
X150525285Y-95591792D02*
X150572904Y-95687030D01*
X150572904Y-95687030D02*
X150620523Y-95734649D01*
X150620523Y-95734649D02*
X150715761Y-95782268D01*
X150715761Y-95782268D02*
X150906237Y-95782268D01*
X150906237Y-95782268D02*
X151001475Y-95734649D01*
X151001475Y-95734649D02*
X151049095Y-95687030D01*
X151049095Y-95687030D02*
X151096714Y-95591792D01*
X151096714Y-95591792D02*
X151096714Y-95401316D01*
X151096714Y-95401316D02*
X151049095Y-95306078D01*
X151049095Y-95306078D02*
X151001475Y-95258459D01*
X151001475Y-95258459D02*
X150906237Y-95210840D01*
X150906237Y-95210840D02*
X150715761Y-95210840D01*
X150715761Y-95210840D02*
X150620523Y-95258459D01*
X150620523Y-95258459D02*
X150572904Y-95306078D01*
X150572904Y-95306078D02*
X150525285Y-95401316D01*
X136341475Y-115913221D02*
X136389095Y-115960840D01*
X136389095Y-115960840D02*
X136436714Y-116103697D01*
X136436714Y-116103697D02*
X136436714Y-116198935D01*
X136436714Y-116198935D02*
X136389095Y-116341792D01*
X136389095Y-116341792D02*
X136293856Y-116437030D01*
X136293856Y-116437030D02*
X136198618Y-116484649D01*
X136198618Y-116484649D02*
X136008142Y-116532268D01*
X136008142Y-116532268D02*
X135865285Y-116532268D01*
X135865285Y-116532268D02*
X135674809Y-116484649D01*
X135674809Y-116484649D02*
X135579571Y-116437030D01*
X135579571Y-116437030D02*
X135484333Y-116341792D01*
X135484333Y-116341792D02*
X135436714Y-116198935D01*
X135436714Y-116198935D02*
X135436714Y-116103697D01*
X135436714Y-116103697D02*
X135484333Y-115960840D01*
X135484333Y-115960840D02*
X135531952Y-115913221D01*
X136436714Y-114960840D02*
X136436714Y-115532268D01*
X136436714Y-115246554D02*
X135436714Y-115246554D01*
X135436714Y-115246554D02*
X135579571Y-115341792D01*
X135579571Y-115341792D02*
X135674809Y-115437030D01*
X135674809Y-115437030D02*
X135722428Y-115532268D01*
X144186714Y-109413221D02*
X144186714Y-109889411D01*
X144186714Y-109889411D02*
X143186714Y-109889411D01*
X144186714Y-108556078D02*
X144186714Y-109127506D01*
X144186714Y-108841792D02*
X143186714Y-108841792D01*
X143186714Y-108841792D02*
X143329571Y-108937030D01*
X143329571Y-108937030D02*
X143424809Y-109032268D01*
X143424809Y-109032268D02*
X143472428Y-109127506D01*
X140526475Y-116298221D02*
X140574095Y-116345840D01*
X140574095Y-116345840D02*
X140621714Y-116488697D01*
X140621714Y-116488697D02*
X140621714Y-116583935D01*
X140621714Y-116583935D02*
X140574095Y-116726792D01*
X140574095Y-116726792D02*
X140478856Y-116822030D01*
X140478856Y-116822030D02*
X140383618Y-116869649D01*
X140383618Y-116869649D02*
X140193142Y-116917268D01*
X140193142Y-116917268D02*
X140050285Y-116917268D01*
X140050285Y-116917268D02*
X139859809Y-116869649D01*
X139859809Y-116869649D02*
X139764571Y-116822030D01*
X139764571Y-116822030D02*
X139669333Y-116726792D01*
X139669333Y-116726792D02*
X139621714Y-116583935D01*
X139621714Y-116583935D02*
X139621714Y-116488697D01*
X139621714Y-116488697D02*
X139669333Y-116345840D01*
X139669333Y-116345840D02*
X139716952Y-116298221D01*
X139716952Y-115917268D02*
X139669333Y-115869649D01*
X139669333Y-115869649D02*
X139621714Y-115774411D01*
X139621714Y-115774411D02*
X139621714Y-115536316D01*
X139621714Y-115536316D02*
X139669333Y-115441078D01*
X139669333Y-115441078D02*
X139716952Y-115393459D01*
X139716952Y-115393459D02*
X139812190Y-115345840D01*
X139812190Y-115345840D02*
X139907428Y-115345840D01*
X139907428Y-115345840D02*
X140050285Y-115393459D01*
X140050285Y-115393459D02*
X140621714Y-115964887D01*
X140621714Y-115964887D02*
X140621714Y-115345840D01*
X151481952Y-103279293D02*
X151434333Y-103374531D01*
X151434333Y-103374531D02*
X151339095Y-103469769D01*
X151339095Y-103469769D02*
X151196237Y-103612626D01*
X151196237Y-103612626D02*
X151148618Y-103707864D01*
X151148618Y-103707864D02*
X151148618Y-103803102D01*
X151386714Y-103755483D02*
X151339095Y-103850721D01*
X151339095Y-103850721D02*
X151243856Y-103945959D01*
X151243856Y-103945959D02*
X151053380Y-103993578D01*
X151053380Y-103993578D02*
X150720047Y-103993578D01*
X150720047Y-103993578D02*
X150529571Y-103945959D01*
X150529571Y-103945959D02*
X150434333Y-103850721D01*
X150434333Y-103850721D02*
X150386714Y-103755483D01*
X150386714Y-103755483D02*
X150386714Y-103565007D01*
X150386714Y-103565007D02*
X150434333Y-103469769D01*
X150434333Y-103469769D02*
X150529571Y-103374531D01*
X150529571Y-103374531D02*
X150720047Y-103326912D01*
X150720047Y-103326912D02*
X151053380Y-103326912D01*
X151053380Y-103326912D02*
X151243856Y-103374531D01*
X151243856Y-103374531D02*
X151339095Y-103469769D01*
X151339095Y-103469769D02*
X151386714Y-103565007D01*
X151386714Y-103565007D02*
X151386714Y-103755483D01*
X151386714Y-102374531D02*
X151386714Y-102945959D01*
X151386714Y-102660245D02*
X150386714Y-102660245D01*
X150386714Y-102660245D02*
X150529571Y-102755483D01*
X150529571Y-102755483D02*
X150624809Y-102850721D01*
X150624809Y-102850721D02*
X150672428Y-102945959D01*
X142719990Y-112451374D02*
X142719990Y-113260897D01*
X142719990Y-113260897D02*
X142767609Y-113356135D01*
X142767609Y-113356135D02*
X142815228Y-113403755D01*
X142815228Y-113403755D02*
X142910466Y-113451374D01*
X142910466Y-113451374D02*
X143100942Y-113451374D01*
X143100942Y-113451374D02*
X143196180Y-113403755D01*
X143196180Y-113403755D02*
X143243799Y-113356135D01*
X143243799Y-113356135D02*
X143291418Y-113260897D01*
X143291418Y-113260897D02*
X143291418Y-112451374D01*
X144291418Y-113451374D02*
X143719990Y-113451374D01*
X144005704Y-113451374D02*
X144005704Y-112451374D01*
X144005704Y-112451374D02*
X143910466Y-112594231D01*
X143910466Y-112594231D02*
X143815228Y-112689469D01*
X143815228Y-112689469D02*
X143719990Y-112737088D01*
X140065228Y-105356135D02*
X140017609Y-105403755D01*
X140017609Y-105403755D02*
X139874752Y-105451374D01*
X139874752Y-105451374D02*
X139779514Y-105451374D01*
X139779514Y-105451374D02*
X139636657Y-105403755D01*
X139636657Y-105403755D02*
X139541419Y-105308516D01*
X139541419Y-105308516D02*
X139493800Y-105213278D01*
X139493800Y-105213278D02*
X139446181Y-105022802D01*
X139446181Y-105022802D02*
X139446181Y-104879945D01*
X139446181Y-104879945D02*
X139493800Y-104689469D01*
X139493800Y-104689469D02*
X139541419Y-104594231D01*
X139541419Y-104594231D02*
X139636657Y-104498993D01*
X139636657Y-104498993D02*
X139779514Y-104451374D01*
X139779514Y-104451374D02*
X139874752Y-104451374D01*
X139874752Y-104451374D02*
X140017609Y-104498993D01*
X140017609Y-104498993D02*
X140065228Y-104546612D01*
X140922371Y-104451374D02*
X140731895Y-104451374D01*
X140731895Y-104451374D02*
X140636657Y-104498993D01*
X140636657Y-104498993D02*
X140589038Y-104546612D01*
X140589038Y-104546612D02*
X140493800Y-104689469D01*
X140493800Y-104689469D02*
X140446181Y-104879945D01*
X140446181Y-104879945D02*
X140446181Y-105260897D01*
X140446181Y-105260897D02*
X140493800Y-105356135D01*
X140493800Y-105356135D02*
X140541419Y-105403755D01*
X140541419Y-105403755D02*
X140636657Y-105451374D01*
X140636657Y-105451374D02*
X140827133Y-105451374D01*
X140827133Y-105451374D02*
X140922371Y-105403755D01*
X140922371Y-105403755D02*
X140969990Y-105356135D01*
X140969990Y-105356135D02*
X141017609Y-105260897D01*
X141017609Y-105260897D02*
X141017609Y-105022802D01*
X141017609Y-105022802D02*
X140969990Y-104927564D01*
X140969990Y-104927564D02*
X140922371Y-104879945D01*
X140922371Y-104879945D02*
X140827133Y-104832326D01*
X140827133Y-104832326D02*
X140636657Y-104832326D01*
X140636657Y-104832326D02*
X140541419Y-104879945D01*
X140541419Y-104879945D02*
X140493800Y-104927564D01*
X140493800Y-104927564D02*
X140446181Y-105022802D01*
X148160228Y-118276374D02*
X147826895Y-117800183D01*
X147588800Y-118276374D02*
X147588800Y-117276374D01*
X147588800Y-117276374D02*
X147969752Y-117276374D01*
X147969752Y-117276374D02*
X148064990Y-117323993D01*
X148064990Y-117323993D02*
X148112609Y-117371612D01*
X148112609Y-117371612D02*
X148160228Y-117466850D01*
X148160228Y-117466850D02*
X148160228Y-117609707D01*
X148160228Y-117609707D02*
X148112609Y-117704945D01*
X148112609Y-117704945D02*
X148064990Y-117752564D01*
X148064990Y-117752564D02*
X147969752Y-117800183D01*
X147969752Y-117800183D02*
X147588800Y-117800183D01*
X148541181Y-117371612D02*
X148588800Y-117323993D01*
X148588800Y-117323993D02*
X148684038Y-117276374D01*
X148684038Y-117276374D02*
X148922133Y-117276374D01*
X148922133Y-117276374D02*
X149017371Y-117323993D01*
X149017371Y-117323993D02*
X149064990Y-117371612D01*
X149064990Y-117371612D02*
X149112609Y-117466850D01*
X149112609Y-117466850D02*
X149112609Y-117562088D01*
X149112609Y-117562088D02*
X149064990Y-117704945D01*
X149064990Y-117704945D02*
X148493562Y-118276374D01*
X148493562Y-118276374D02*
X149112609Y-118276374D01*
D13*
%TO.C,J5*%
X139991895Y-126146555D02*
X139991895Y-124446555D01*
X149331895Y-126146555D02*
X149331895Y-124446555D01*
%TO.C,J2*%
X151771895Y-82386555D02*
X151771895Y-84136555D01*
X151771895Y-92856555D02*
X150881895Y-92856555D01*
X151771895Y-94606555D02*
X151771895Y-92856555D01*
X154721895Y-82386555D02*
X151771895Y-82386555D01*
X154721895Y-94606555D02*
X151771895Y-94606555D01*
X157141895Y-94606555D02*
X157991895Y-94606555D01*
X157991895Y-82386555D02*
X157141895Y-82386555D01*
X157991895Y-94606555D02*
X157991895Y-82386555D01*
%TO.C,R3*%
X148173254Y-114521555D02*
X148480536Y-114521555D01*
X148173254Y-115281555D02*
X148480536Y-115281555D01*
D14*
%TO.C,SW3*%
X140739295Y-80405355D02*
X140739295Y-84367755D01*
X140739295Y-84367755D02*
X146784495Y-84367755D01*
X146784495Y-80405355D02*
X140739295Y-80405355D01*
X146784495Y-84367755D02*
X146784495Y-80405355D01*
D13*
%TO.C,R1*%
X151395536Y-81116555D02*
X151088254Y-81116555D01*
X151395536Y-81876555D02*
X151088254Y-81876555D01*
%TO.C,J1*%
X131721895Y-82636555D02*
X131721895Y-94856555D01*
X131721895Y-94856555D02*
X132571895Y-94856555D01*
X132571895Y-82636555D02*
X131721895Y-82636555D01*
X134991895Y-82636555D02*
X137941895Y-82636555D01*
X134991895Y-94856555D02*
X137941895Y-94856555D01*
X137941895Y-82636555D02*
X137941895Y-84386555D01*
X137941895Y-84386555D02*
X138831895Y-84386555D01*
X137941895Y-94856555D02*
X137941895Y-93106555D01*
%TO.C,J3*%
X133551895Y-107676555D02*
X134931895Y-107676555D01*
X133551895Y-109056555D02*
X133551895Y-107676555D01*
X133551895Y-110326555D02*
X133551895Y-112976555D01*
X133551895Y-110326555D02*
X136311895Y-110326555D01*
X133551895Y-112976555D02*
X136311895Y-112976555D01*
X136311895Y-110326555D02*
X136311895Y-112976555D01*
%TO.C,C7*%
X145089731Y-96890000D02*
X144874059Y-96890000D01*
X145089731Y-97610000D02*
X144874059Y-97610000D01*
%TO.C,Q2*%
X143471895Y-103184055D02*
X143471895Y-102534055D01*
X143471895Y-103184055D02*
X143471895Y-103834055D01*
X146591895Y-103184055D02*
X146591895Y-102534055D01*
X146591895Y-103184055D02*
X146591895Y-103834055D01*
X146871895Y-102261555D02*
X146541895Y-102021555D01*
X146871895Y-101781555D01*
X146871895Y-102261555D01*
G36*
X146871895Y-102261555D02*
G01*
X146541895Y-102021555D01*
X146871895Y-101781555D01*
X146871895Y-102261555D01*
G37*
%TO.C,C4*%
X145684731Y-112791555D02*
X145469059Y-112791555D01*
X145684731Y-113511555D02*
X145469059Y-113511555D01*
%TO.C,C3*%
X150339731Y-82386555D02*
X150124059Y-82386555D01*
X150339731Y-83106555D02*
X150124059Y-83106555D01*
D14*
%TO.C,U3*%
X144823601Y-95966100D02*
X145542988Y-95966100D01*
X145542988Y-93121300D02*
X144823601Y-93121300D01*
X147457014Y-95966100D02*
X148176401Y-95966100D01*
X148176401Y-93121300D02*
X147457014Y-93121300D01*
D15*
G36*
X148506601Y-94484201D02*
G01*
X148252601Y-94484201D01*
X148252601Y-94103200D01*
X148506601Y-94103200D01*
X148506601Y-94484201D01*
G37*
D13*
%TO.C,D1*%
X136221895Y-118536555D02*
X136221895Y-121846555D01*
X136221895Y-118536555D02*
X138241895Y-118536555D01*
X138241895Y-121846555D02*
X138241895Y-118536555D01*
%TO.C,C8*%
X149121895Y-95888719D02*
X149121895Y-96104391D01*
X149841895Y-95888719D02*
X149841895Y-96104391D01*
%TO.C,C1*%
X137166895Y-116362807D02*
X137166895Y-114940303D01*
X138986895Y-116362807D02*
X138986895Y-114940303D01*
D14*
%TO.C,L1*%
X140506095Y-106173155D02*
X140506095Y-112319955D01*
X140506095Y-112319955D02*
X146957695Y-112319955D01*
X146957695Y-106173155D02*
X140506095Y-106173155D01*
X146957695Y-112319955D02*
X146957695Y-106173155D01*
X143808095Y-112852255D02*
G75*
G02*
X143655695Y-112852255I-76200J0D01*
G01*
X143655695Y-112852255D02*
G75*
G02*
X143808095Y-112852255I76200J0D01*
G01*
D13*
%TO.C,C2*%
X140966895Y-116239391D02*
X140966895Y-116023719D01*
X141686895Y-116239391D02*
X141686895Y-116023719D01*
%TO.C,J6*%
X153351895Y-110126555D02*
X153351895Y-107476555D01*
X156111895Y-107476555D02*
X153351895Y-107476555D01*
X156111895Y-110126555D02*
X153351895Y-110126555D01*
X156111895Y-110126555D02*
X156111895Y-107476555D01*
X156111895Y-111396555D02*
X156111895Y-112776555D01*
X156111895Y-112776555D02*
X154731895Y-112776555D01*
%TO.C,Q1*%
X146971895Y-103184055D02*
X146971895Y-102534055D01*
X146971895Y-103184055D02*
X146971895Y-103834055D01*
X150091895Y-103184055D02*
X150091895Y-102534055D01*
X150091895Y-103184055D02*
X150091895Y-103834055D01*
X150371895Y-102261555D02*
X150041895Y-102021555D01*
X150371895Y-101781555D01*
X150371895Y-102261555D01*
G36*
X150371895Y-102261555D02*
G01*
X150041895Y-102021555D01*
X150371895Y-101781555D01*
X150371895Y-102261555D01*
G37*
%TO.C,U1*%
X144357500Y-114095000D02*
X143557500Y-114095000D01*
X144357500Y-114095000D02*
X145157500Y-114095000D01*
X144357500Y-117215000D02*
X143557500Y-117215000D01*
X144357500Y-117215000D02*
X145157500Y-117215000D01*
X143057500Y-114145000D02*
X142817500Y-113815000D01*
X143297500Y-113815000D01*
X143057500Y-114145000D01*
G36*
X143057500Y-114145000D02*
G01*
X142817500Y-113815000D01*
X143297500Y-113815000D01*
X143057500Y-114145000D01*
G37*
%TO.C,C6*%
X142339731Y-104636555D02*
X142124059Y-104636555D01*
X142339731Y-105356555D02*
X142124059Y-105356555D01*
%TO.C,R2*%
X148480536Y-116271555D02*
X148173254Y-116271555D01*
X148480536Y-117031555D02*
X148173254Y-117031555D01*
%TD*%
M02*
