%TF.GenerationSoftware,KiCad,Pcbnew,9.0.2*%
%TF.CreationDate,2025-09-15T18:44:55-04:00*%
%TF.ProjectId,flight-computer,666c6967-6874-42d6-936f-6d7075746572,rev?*%
%TF.SameCoordinates,Original*%
%TF.FileFunction,Copper,L2,Bot*%
%TF.FilePolarity,Positive*%
%FSLAX46Y46*%
G04 Gerber Fmt 4.6, Leading zero omitted, Abs format (unit mm)*
G04 Created by KiCad (PCBNEW 9.0.2) date 2025-09-15 18:44:55*
%MOMM*%
%LPD*%
G01*
G04 APERTURE LIST*
G04 Aperture macros list*
%AMRoundRect*
0 Rectangle with rounded corners*
0 $1 Rounding radius*
0 $2 $3 $4 $5 $6 $7 $8 $9 X,Y pos of 4 corners*
0 Add a 4 corners polygon primitive as box body*
4,1,4,$2,$3,$4,$5,$6,$7,$8,$9,$2,$3,0*
0 Add four circle primitives for the rounded corners*
1,1,$1+$1,$2,$3*
1,1,$1+$1,$4,$5*
1,1,$1+$1,$6,$7*
1,1,$1+$1,$8,$9*
0 Add four rect primitives between the rounded corners*
20,1,$1+$1,$2,$3,$4,$5,0*
20,1,$1+$1,$4,$5,$6,$7,0*
20,1,$1+$1,$6,$7,$8,$9,0*
20,1,$1+$1,$8,$9,$2,$3,0*%
G04 Aperture macros list end*
%TA.AperFunction,HeatsinkPad*%
%ADD10O,1.000000X2.100000*%
%TD*%
%TA.AperFunction,HeatsinkPad*%
%ADD11O,1.000000X1.800000*%
%TD*%
%TA.AperFunction,ComponentPad*%
%ADD12C,3.800000*%
%TD*%
%TA.AperFunction,ComponentPad*%
%ADD13R,1.700000X1.700000*%
%TD*%
%TA.AperFunction,ComponentPad*%
%ADD14C,1.700000*%
%TD*%
%TA.AperFunction,SMDPad,CuDef*%
%ADD15RoundRect,0.140000X0.170000X-0.140000X0.170000X0.140000X-0.170000X0.140000X-0.170000X-0.140000X0*%
%TD*%
%TA.AperFunction,SMDPad,CuDef*%
%ADD16RoundRect,0.135000X-0.185000X0.135000X-0.185000X-0.135000X0.185000X-0.135000X0.185000X0.135000X0*%
%TD*%
%TA.AperFunction,SMDPad,CuDef*%
%ADD17R,0.812800X1.193800*%
%TD*%
%TA.AperFunction,SMDPad,CuDef*%
%ADD18R,1.498600X2.006600*%
%TD*%
%TA.AperFunction,SMDPad,CuDef*%
%ADD19R,1.500000X0.900000*%
%TD*%
%TA.AperFunction,SMDPad,CuDef*%
%ADD20R,0.900000X1.500000*%
%TD*%
%TA.AperFunction,HeatsinkPad*%
%ADD21C,0.600000*%
%TD*%
%TA.AperFunction,HeatsinkPad*%
%ADD22R,3.900000X3.900000*%
%TD*%
%TA.AperFunction,ViaPad*%
%ADD23C,0.600000*%
%TD*%
%TA.AperFunction,Conductor*%
%ADD24C,0.200000*%
%TD*%
G04 APERTURE END LIST*
D10*
%TO.P,J5,S1,SHIELD*%
%TO.N,unconnected-(J5-SHIELD-PadS1)*%
X140341895Y-123141555D03*
D11*
%TO.N,unconnected-(J5-SHIELD-PadS1)_1*%
X140341895Y-127321555D03*
D10*
%TO.N,unconnected-(J5-SHIELD-PadS1)_2*%
X148981895Y-123141555D03*
D11*
%TO.N,unconnected-(J5-SHIELD-PadS1)_3*%
X148981895Y-127321555D03*
%TD*%
D12*
%TO.P,H2,1,1*%
%TO.N,GND*%
X153982000Y-103200000D03*
%TD*%
D13*
%TO.P,J3,1,Pin_1*%
%TO.N,GND*%
X134931895Y-109056555D03*
D14*
%TO.P,J3,2,Pin_2*%
%TO.N,VBUS*%
X134931895Y-111596555D03*
%TD*%
D12*
%TO.P,H4,1,1*%
%TO.N,GND*%
X153982000Y-126450000D03*
%TD*%
%TO.P,H1,1,1*%
%TO.N,GND*%
X135582000Y-103200000D03*
%TD*%
%TO.P,H3,1,1*%
%TO.N,GND*%
X135582000Y-126450000D03*
%TD*%
D13*
%TO.P,J6,1,Pin_1*%
%TO.N,Net-(J6-Pin_1)*%
X154731895Y-111396555D03*
D14*
%TO.P,J6,2,Pin_2*%
%TO.N,Net-(J6-Pin_2)*%
X154731895Y-108856555D03*
%TD*%
D15*
%TO.P,C5,1*%
%TO.N,+3.3V*%
X155561895Y-82486555D03*
%TO.P,C5,2*%
%TO.N,GND*%
X155561895Y-81526555D03*
%TD*%
D16*
%TO.P,R4,1*%
%TO.N,Net-(J5-CC1)*%
X143481895Y-124486555D03*
%TO.P,R4,2*%
%TO.N,GND*%
X143481895Y-125506555D03*
%TD*%
D17*
%TO.P,J4,1,DAT2*%
%TO.N,SD_DAT2*%
X141656895Y-115770256D03*
%TO.P,J4,2,DAT3/CD*%
%TO.N,SD_DAT3*%
X142756895Y-115770256D03*
%TO.P,J4,3,CMD*%
%TO.N,SD_CMD*%
X143856896Y-115770256D03*
%TO.P,J4,4,VDD*%
%TO.N,+3.3V*%
X144956896Y-115770256D03*
%TO.P,J4,5,CLK*%
%TO.N,SD_CLK*%
X146056894Y-115770256D03*
%TO.P,J4,6,VSS*%
%TO.N,GND*%
X147156894Y-115770256D03*
%TO.P,J4,7,DAT0*%
%TO.N,SD_DAT0*%
X148256895Y-115770256D03*
%TO.P,J4,8,DAT1*%
%TO.N,SD_DAT1*%
X149356895Y-115770256D03*
D18*
%TO.P,J4,9,SHIELD*%
%TO.N,GND*%
X151826895Y-117970256D03*
X151826895Y-109770255D03*
X137936895Y-117970256D03*
X137936895Y-109770255D03*
%TD*%
D19*
%TO.P,U2,1,GND*%
%TO.N,GND*%
X153517600Y-81280000D03*
%TO.P,U2,2,3V3*%
%TO.N,+3.3V*%
X153517600Y-82550000D03*
%TO.P,U2,3,EN*%
%TO.N,Net-(U2-EN)*%
X153517600Y-83820000D03*
%TO.P,U2,4,IO4*%
%TO.N,FIN_CS1*%
X153517600Y-85090000D03*
%TO.P,U2,5,IO5*%
%TO.N,FIN_CS2*%
X153517600Y-86360000D03*
%TO.P,U2,6,IO6*%
%TO.N,FIN_CS3*%
X153517600Y-87630000D03*
%TO.P,U2,7,IO7*%
%TO.N,FIN_CS4*%
X153517600Y-88900000D03*
%TO.P,U2,8,IO15*%
%TO.N,FIN_CLK*%
X153517600Y-90170000D03*
%TO.P,U2,9,IO16*%
%TO.N,FIN_RST*%
X153517600Y-91440000D03*
%TO.P,U2,10,IO17*%
%TO.N,unconnected-(U2-IO17-Pad10)*%
X153517600Y-92710000D03*
%TO.P,U2,11,IO18*%
%TO.N,LSM_SCK*%
X153517600Y-93980000D03*
%TO.P,U2,12,IO8*%
%TO.N,LSM_CS*%
X153517600Y-95250000D03*
%TO.P,U2,13,USB_D-*%
%TO.N,USB_D-*%
X153517600Y-96520000D03*
%TO.P,U2,14,USB_D+*%
%TO.N,USB_D+*%
X153517600Y-97790000D03*
D20*
%TO.P,U2,15,IO3*%
%TO.N,LSM_INT2*%
X151752600Y-99040000D03*
%TO.P,U2,16,IO46*%
%TO.N,GND*%
X150482600Y-99040000D03*
%TO.P,U2,17,IO9*%
%TO.N,Remote Start 1*%
X149212600Y-99040000D03*
%TO.P,U2,18,IO10*%
%TO.N,Remote Start 2*%
X147942600Y-99040000D03*
%TO.P,U2,19,IO11*%
%TO.N,SD_DAT1*%
X146672600Y-99040000D03*
%TO.P,U2,20,IO12*%
%TO.N,SD_DAT0*%
X145402600Y-99040000D03*
%TO.P,U2,21,IO13*%
%TO.N,SD_CLK*%
X144132600Y-99040000D03*
%TO.P,U2,22,IO14*%
%TO.N,SD_CMD*%
X142862600Y-99040000D03*
%TO.P,U2,23,IO21*%
%TO.N,SD_DAT3*%
X141592600Y-99040000D03*
%TO.P,U2,24,IO47*%
%TO.N,SD_DAT2*%
X140322600Y-99040000D03*
%TO.P,U2,25,IO48*%
%TO.N,unconnected-(U2-IO48-Pad25)*%
X139052600Y-99040000D03*
%TO.P,U2,26,IO45*%
%TO.N,unconnected-(U2-IO45-Pad26)*%
X137782600Y-99040000D03*
D19*
%TO.P,U2,27,IO0*%
%TO.N,Net-(U2-IO0)*%
X136017600Y-97790000D03*
%TO.P,U2,28,IO35*%
%TO.N,LSM_INT1*%
X136017600Y-96520000D03*
%TO.P,U2,29,IO36*%
%TO.N,LSM_MISO*%
X136017600Y-95250000D03*
%TO.P,U2,30,IO37*%
%TO.N,LSM_MOSI*%
X136017600Y-93980000D03*
%TO.P,U2,31,IO38*%
%TO.N,unconnected-(U2-IO38-Pad31)*%
X136017600Y-92710000D03*
%TO.P,U2,32,IO39*%
%TO.N,FIN_SCK*%
X136017600Y-91440000D03*
%TO.P,U2,33,IO40*%
%TO.N,FIN_MISO*%
X136017600Y-90170000D03*
%TO.P,U2,34,IO41*%
%TO.N,FIN_MOSI*%
X136017600Y-88900000D03*
%TO.P,U2,35,IO42*%
%TO.N,FIN_DRDY*%
X136017600Y-87630000D03*
%TO.P,U2,36,RXD0*%
%TO.N,unconnected-(U2-RXD0-Pad36)*%
X136017600Y-86360000D03*
%TO.P,U2,37,TXD0*%
%TO.N,unconnected-(U2-TXD0-Pad37)*%
X136017600Y-85090000D03*
%TO.P,U2,38,IO2*%
%TO.N,unconnected-(U2-IO2-Pad38)*%
X136017600Y-83820000D03*
%TO.P,U2,39,IO1*%
%TO.N,unconnected-(U2-IO1-Pad39)*%
X136017600Y-82550000D03*
%TO.P,U2,40,GND*%
%TO.N,GND*%
X136017600Y-81280000D03*
D21*
%TO.P,U2,41,GND*%
X147667600Y-89700000D03*
X147667600Y-88300000D03*
X146967600Y-90400000D03*
X146967600Y-89000000D03*
X146967600Y-87600000D03*
X146267600Y-89700000D03*
D22*
X146267600Y-89000000D03*
D21*
X146267600Y-88300000D03*
X145567600Y-90400000D03*
X145567600Y-89000000D03*
X145567600Y-87600000D03*
X144867600Y-89700000D03*
X144867600Y-88300000D03*
%TD*%
D16*
%TO.P,R5,1*%
%TO.N,Net-(J5-CC2)*%
X146231895Y-124486555D03*
%TO.P,R5,2*%
%TO.N,GND*%
X146231895Y-125506555D03*
%TD*%
D23*
%TO.N,GND*%
X147231895Y-107746555D03*
X148731895Y-113996555D03*
X146731895Y-96746555D03*
X147231895Y-113996555D03*
X148231895Y-121246555D03*
X141481895Y-121246555D03*
%TO.N,+3.3V*%
X153517600Y-82550000D03*
X145309395Y-109169055D03*
X149481895Y-86496555D03*
X137481895Y-84996555D03*
%TO.N,USB_D-*%
X150931374Y-100946034D03*
X143736895Y-120746555D03*
X153517600Y-96520000D03*
%TO.N,USB_D+*%
X151532416Y-101547076D03*
X144586895Y-120746555D03*
X153517600Y-97790000D03*
%TO.N,Net-(J5-CC2)*%
X146231895Y-123746555D03*
%TO.N,Remote Start 1*%
X149481895Y-100746555D03*
%TO.N,Remote Start 2*%
X147981895Y-100496555D03*
%TO.N,Net-(U2-EN)*%
X153517600Y-83820000D03*
%TO.N,Net-(J5-CC1)*%
X143481895Y-123746555D03*
%TO.N,Net-(U2-IO0)*%
X142289478Y-87996555D03*
%TO.N,LSM_CS*%
X146922011Y-94310852D03*
%TO.N,LSM_MISO*%
X138731895Y-94996555D03*
%TO.N,LSM_INT2*%
X148726875Y-94741742D03*
%TO.N,LSM_INT1*%
X137731895Y-96246555D03*
%TO.N,LSM_MOSI*%
X137731895Y-93996555D03*
%TO.N,FIN_CS3*%
X152231895Y-87746555D03*
%TO.N,FIN_CS2*%
X152231895Y-86246555D03*
%TO.N,FIN_CS1*%
X152231895Y-84746555D03*
%TO.N,FIN_CS4*%
X152231895Y-89246555D03*
%TO.N,FIN_SCK*%
X137481895Y-92496555D03*
%TO.N,FIN_MOSI*%
X137481895Y-89496555D03*
%TO.N,FIN_CLK*%
X152231895Y-90746555D03*
%TO.N,FIN_DRDY*%
X137481895Y-87996555D03*
%TO.N,FIN_MISO*%
X137481895Y-90996555D03*
%TO.N,FIN_RST*%
X152231895Y-92246555D03*
%TO.N,LSM_SCK*%
X148231895Y-92246555D03*
%TD*%
D24*
%TO.N,GND*%
X155561895Y-81526555D02*
X153764155Y-81526555D01*
X153764155Y-81526555D02*
X153517600Y-81280000D01*
X147156894Y-114071556D02*
X147231895Y-113996555D01*
X147156894Y-115770256D02*
X147156894Y-114071556D01*
%TO.N,+3.3V*%
X144956896Y-109521554D02*
X145309395Y-109169055D01*
X144956896Y-115770256D02*
X144956896Y-109521554D01*
X153517600Y-82550000D02*
X151481895Y-82550000D01*
X155561895Y-82486555D02*
X153581045Y-82486555D01*
X151481895Y-82550000D02*
X139928450Y-82550000D01*
X139928450Y-82550000D02*
X137481895Y-84996555D01*
X149481895Y-84550000D02*
X151481895Y-82550000D01*
X149481895Y-86496555D02*
X149481895Y-84550000D01*
X153581045Y-82486555D02*
X153517600Y-82550000D01*
%TO.N,USB_D-*%
X143936894Y-116668156D02*
X150064295Y-116668156D01*
X143736895Y-120746555D02*
X143936894Y-120546556D01*
X143936894Y-120546556D02*
X143936894Y-116668156D01*
X150064295Y-102095956D02*
X150931374Y-101228877D01*
X150064295Y-116668156D02*
X150064295Y-102095956D01*
X150931374Y-101228877D02*
X150931374Y-100946034D01*
%TO.N,USB_D+*%
X150250683Y-117118136D02*
X150514275Y-116854544D01*
X150514275Y-102282374D02*
X151249573Y-101547076D01*
X150514275Y-116854544D02*
X150514275Y-102282374D01*
X144386896Y-120546556D02*
X144386896Y-117118136D01*
X151249573Y-101547076D02*
X151532416Y-101547076D01*
X144586895Y-120746555D02*
X144386896Y-120546556D01*
X144386896Y-117118136D02*
X150250683Y-117118136D01*
%TO.N,Net-(J5-CC2)*%
X146231895Y-123746555D02*
X146231895Y-124486555D01*
%TO.N,Remote Start 1*%
X149481895Y-100746555D02*
X149481895Y-99309295D01*
X149481895Y-99309295D02*
X149212600Y-99040000D01*
%TO.N,Remote Start 2*%
X147981895Y-99079295D02*
X147942600Y-99040000D01*
X147981895Y-100496555D02*
X147981895Y-99079295D01*
%TO.N,Net-(J5-CC1)*%
X143481895Y-123746555D02*
X143481895Y-124486555D01*
%TO.N,Net-(U2-IO0)*%
X142289478Y-87996555D02*
X142289478Y-92938972D01*
X137438450Y-97790000D02*
X136017600Y-97790000D01*
X142289478Y-92938972D02*
X137438450Y-97790000D01*
%TO.N,LSM_CS*%
X152567600Y-95250000D02*
X153517600Y-95250000D01*
X147092121Y-94140742D02*
X151458342Y-94140742D01*
X151458342Y-94140742D02*
X152567600Y-95250000D01*
X146922011Y-94310852D02*
X147092121Y-94140742D01*
%TO.N,LSM_MISO*%
X138478450Y-95250000D02*
X136017600Y-95250000D01*
X138731895Y-94996555D02*
X138478450Y-95250000D01*
%TO.N,LSM_INT2*%
X151752600Y-97767467D02*
X151752600Y-99040000D01*
X148726875Y-94741742D02*
X151752600Y-97767467D01*
%TO.N,LSM_INT1*%
X137731895Y-96246555D02*
X136291045Y-96246555D01*
X136291045Y-96246555D02*
X136017600Y-96520000D01*
%TO.N,LSM_MOSI*%
X136034155Y-93996555D02*
X136017600Y-93980000D01*
X137731895Y-93996555D02*
X136034155Y-93996555D01*
%TO.N,FIN_CS3*%
X152348450Y-87630000D02*
X152231895Y-87746555D01*
X153517600Y-87630000D02*
X152348450Y-87630000D01*
%TO.N,FIN_CS2*%
X152345340Y-86360000D02*
X152231895Y-86246555D01*
X153517600Y-86360000D02*
X152345340Y-86360000D01*
%TO.N,FIN_CS1*%
X152575340Y-85090000D02*
X152231895Y-84746555D01*
X153517600Y-85090000D02*
X152575340Y-85090000D01*
%TO.N,FIN_CS4*%
X152578450Y-88900000D02*
X152231895Y-89246555D01*
X153517600Y-88900000D02*
X152578450Y-88900000D01*
%TO.N,FIN_SCK*%
X136425340Y-91440000D02*
X137481895Y-92496555D01*
X136017600Y-91440000D02*
X136425340Y-91440000D01*
%TO.N,FIN_MOSI*%
X136017600Y-88900000D02*
X136885340Y-88900000D01*
X136885340Y-88900000D02*
X137481895Y-89496555D01*
%TO.N,FIN_CLK*%
X152808450Y-90170000D02*
X152231895Y-90746555D01*
X153517600Y-90170000D02*
X152808450Y-90170000D01*
%TO.N,FIN_DRDY*%
X136017600Y-87630000D02*
X137115340Y-87630000D01*
X137115340Y-87630000D02*
X137481895Y-87996555D01*
%TO.N,FIN_MISO*%
X136017600Y-90170000D02*
X136655340Y-90170000D01*
X136655340Y-90170000D02*
X137481895Y-90996555D01*
%TO.N,FIN_RST*%
X153517600Y-91440000D02*
X153038450Y-91440000D01*
X153038450Y-91440000D02*
X152231895Y-92246555D01*
%TO.N,LSM_SCK*%
X148231895Y-92246555D02*
X149446340Y-93461000D01*
X152998600Y-93461000D02*
X153517600Y-93980000D01*
X149446340Y-93461000D02*
X152998600Y-93461000D01*
%TO.N,SD_DAT3*%
X142756895Y-100736295D02*
X141592600Y-99572000D01*
X142756895Y-115770256D02*
X142756895Y-100736295D01*
X141592600Y-99572000D02*
X141592600Y-99040000D01*
%TO.N,SD_DAT2*%
X141656895Y-115770256D02*
X140322600Y-114435961D01*
X140322600Y-114435961D02*
X140322600Y-99040000D01*
%TO.N,SD_CLK*%
X146056894Y-115770256D02*
X146056894Y-101496294D01*
X146056894Y-101496294D02*
X144132600Y-99572000D01*
X144132600Y-99572000D02*
X144132600Y-99040000D01*
%TO.N,SD_DAT1*%
X149356895Y-102721498D02*
X146672600Y-100037203D01*
X149356895Y-115770256D02*
X149356895Y-102721498D01*
X146672600Y-100037203D02*
X146672600Y-99040000D01*
%TO.N,SD_DAT0*%
X148256895Y-115770256D02*
X148130895Y-115644256D01*
X148130895Y-102718295D02*
X145402600Y-99990000D01*
X145402600Y-99990000D02*
X145402600Y-99040000D01*
X148130895Y-115644256D02*
X148130895Y-102718295D01*
%TO.N,SD_CMD*%
X142862600Y-99572000D02*
X142862600Y-99040000D01*
X143856896Y-100566296D02*
X142862600Y-99572000D01*
X143856896Y-115770256D02*
X143856896Y-100566296D01*
%TD*%
%TA.AperFunction,Conductor*%
%TO.N,GND*%
G36*
X146612597Y-101696125D02*
G01*
X146619075Y-101702157D01*
X147744076Y-102827158D01*
X147777561Y-102888481D01*
X147780395Y-102914839D01*
X147780395Y-114706771D01*
X147760710Y-114773810D01*
X147707906Y-114819565D01*
X147638748Y-114829509D01*
X147638519Y-114829476D01*
X147596509Y-114823356D01*
X147356894Y-114823356D01*
X147356894Y-115646256D01*
X147354343Y-115654941D01*
X147355632Y-115663903D01*
X147344653Y-115687943D01*
X147337209Y-115713295D01*
X147330368Y-115719222D01*
X147326607Y-115727459D01*
X147304372Y-115741748D01*
X147284405Y-115759050D01*
X147273890Y-115761337D01*
X147267829Y-115765233D01*
X147232894Y-115770256D01*
X147080894Y-115770256D01*
X147013855Y-115750571D01*
X146968100Y-115697767D01*
X146956894Y-115646256D01*
X146956894Y-114823356D01*
X146717281Y-114823356D01*
X146649244Y-114833268D01*
X146585854Y-114864258D01*
X146516980Y-114876016D01*
X146452683Y-114848673D01*
X146413377Y-114790908D01*
X146407394Y-114752857D01*
X146407394Y-101789838D01*
X146427079Y-101722799D01*
X146479883Y-101677044D01*
X146549041Y-101667100D01*
X146612597Y-101696125D01*
G37*
%TD.AperFunction*%
%TA.AperFunction,Conductor*%
G36*
X148654158Y-102524089D02*
G01*
X148687663Y-102547947D01*
X148970076Y-102830360D01*
X149003561Y-102891683D01*
X149006395Y-102918041D01*
X149006395Y-114805064D01*
X148997893Y-114834014D01*
X148991734Y-114863553D01*
X148988149Y-114867199D01*
X148986710Y-114872103D01*
X148963909Y-114891859D01*
X148942755Y-114913381D01*
X148936357Y-114915733D01*
X148933906Y-114917858D01*
X148909794Y-114925999D01*
X148908164Y-114926368D01*
X148852755Y-114937390D01*
X148849286Y-114939707D01*
X148834294Y-114943104D01*
X148809541Y-114941547D01*
X148784877Y-114944199D01*
X148766664Y-114938851D01*
X148764562Y-114938719D01*
X148763463Y-114937911D01*
X148763055Y-114937791D01*
X148687971Y-114922856D01*
X148687969Y-114922856D01*
X148605395Y-114922856D01*
X148538356Y-114903171D01*
X148492601Y-114850367D01*
X148481395Y-114798856D01*
X148481395Y-102672153D01*
X148481395Y-102672151D01*
X148480209Y-102667724D01*
X148481868Y-102597877D01*
X148521028Y-102540013D01*
X148585255Y-102512506D01*
X148654158Y-102524089D01*
G37*
%TD.AperFunction*%
%TA.AperFunction,Conductor*%
G36*
X156922539Y-79809685D02*
G01*
X156968294Y-79862489D01*
X156979500Y-79914000D01*
X156979500Y-129622055D01*
X156959815Y-129689094D01*
X156907011Y-129734849D01*
X156855500Y-129746055D01*
X132704500Y-129746055D01*
X132637461Y-129726370D01*
X132591706Y-129673566D01*
X132580500Y-129622055D01*
X132580500Y-127795475D01*
X139591394Y-127795475D01*
X139620235Y-127940462D01*
X139620238Y-127940472D01*
X139676807Y-128077043D01*
X139676814Y-128077056D01*
X139758943Y-128199970D01*
X139758946Y-128199974D01*
X139863475Y-128304503D01*
X139863479Y-128304506D01*
X139986393Y-128386635D01*
X139986406Y-128386642D01*
X140122977Y-128443211D01*
X140122982Y-128443213D01*
X140122986Y-128443213D01*
X140122987Y-128443214D01*
X140267974Y-128472055D01*
X140267977Y-128472055D01*
X140415815Y-128472055D01*
X140513357Y-128452651D01*
X140560808Y-128443213D01*
X140697390Y-128386639D01*
X140820311Y-128304506D01*
X140924846Y-128199971D01*
X141006979Y-128077050D01*
X141063553Y-127940468D01*
X141092395Y-127795475D01*
X148231394Y-127795475D01*
X148260235Y-127940462D01*
X148260238Y-127940472D01*
X148316807Y-128077043D01*
X148316814Y-128077056D01*
X148398943Y-128199970D01*
X148398946Y-128199974D01*
X148503475Y-128304503D01*
X148503479Y-128304506D01*
X148626393Y-128386635D01*
X148626406Y-128386642D01*
X148762977Y-128443211D01*
X148762982Y-128443213D01*
X148762986Y-128443213D01*
X148762987Y-128443214D01*
X148907974Y-128472055D01*
X148907977Y-128472055D01*
X149055815Y-128472055D01*
X149153357Y-128452651D01*
X149200808Y-128443213D01*
X149337390Y-128386639D01*
X149460311Y-128304506D01*
X149564846Y-128199971D01*
X149646979Y-128077050D01*
X149703553Y-127940468D01*
X149732395Y-127795473D01*
X149732395Y-126847637D01*
X149732395Y-126847634D01*
X149703554Y-126702647D01*
X149703553Y-126702646D01*
X149703553Y-126702642D01*
X149703551Y-126702637D01*
X149646982Y-126566066D01*
X149646975Y-126566053D01*
X149564846Y-126443139D01*
X149564843Y-126443135D01*
X149460314Y-126338606D01*
X149460310Y-126338603D01*
X149337396Y-126256474D01*
X149337383Y-126256467D01*
X149200812Y-126199898D01*
X149200802Y-126199895D01*
X149055815Y-126171055D01*
X149055813Y-126171055D01*
X148907977Y-126171055D01*
X148907975Y-126171055D01*
X148762987Y-126199895D01*
X148762977Y-126199898D01*
X148626406Y-126256467D01*
X148626393Y-126256474D01*
X148503479Y-126338603D01*
X148503475Y-126338606D01*
X148398946Y-126443135D01*
X148398943Y-126443139D01*
X148316814Y-126566053D01*
X148316807Y-126566066D01*
X148260238Y-126702637D01*
X148260235Y-126702647D01*
X148231395Y-126847634D01*
X148231395Y-126847637D01*
X148231395Y-127795473D01*
X148231395Y-127795475D01*
X148231394Y-127795475D01*
X141092395Y-127795475D01*
X141092395Y-127795473D01*
X141092395Y-126847637D01*
X141092395Y-126847634D01*
X141063554Y-126702647D01*
X141063553Y-126702646D01*
X141063553Y-126702642D01*
X141063551Y-126702637D01*
X141006982Y-126566066D01*
X141006975Y-126566053D01*
X140924846Y-126443139D01*
X140924843Y-126443135D01*
X140820314Y-126338606D01*
X140820310Y-126338603D01*
X140697396Y-126256474D01*
X140697383Y-126256467D01*
X140560812Y-126199898D01*
X140560802Y-126199895D01*
X140415815Y-126171055D01*
X140415813Y-126171055D01*
X140267977Y-126171055D01*
X140267975Y-126171055D01*
X140122987Y-126199895D01*
X140122977Y-126199898D01*
X139986406Y-126256467D01*
X139986393Y-126256474D01*
X139863479Y-126338603D01*
X139863475Y-126338606D01*
X139758946Y-126443135D01*
X139758943Y-126443139D01*
X139676814Y-126566053D01*
X139676807Y-126566066D01*
X139620238Y-126702637D01*
X139620235Y-126702647D01*
X139591395Y-126847634D01*
X139591395Y-126847637D01*
X139591395Y-127795473D01*
X139591395Y-127795475D01*
X139591394Y-127795475D01*
X132580500Y-127795475D01*
X132580500Y-125706555D01*
X142813897Y-125706555D01*
X142818105Y-125745709D01*
X142866842Y-125876378D01*
X142866844Y-125876381D01*
X142950422Y-125988027D01*
X143062068Y-126071605D01*
X143062069Y-126071606D01*
X143192739Y-126120343D01*
X143192743Y-126120344D01*
X143250502Y-126126554D01*
X143681895Y-126126554D01*
X143713278Y-126126554D01*
X143713283Y-126126553D01*
X143771049Y-126120344D01*
X143901718Y-126071607D01*
X143901721Y-126071605D01*
X144013367Y-125988027D01*
X144096945Y-125876381D01*
X144096947Y-125876378D01*
X144145683Y-125745710D01*
X144145684Y-125745702D01*
X144149894Y-125706555D01*
X145563897Y-125706555D01*
X145568105Y-125745709D01*
X145616842Y-125876378D01*
X145616844Y-125876381D01*
X145700422Y-125988027D01*
X145812068Y-126071605D01*
X145812069Y-126071606D01*
X145942739Y-126120343D01*
X145942743Y-126120344D01*
X146000502Y-126126554D01*
X146431895Y-126126554D01*
X146463278Y-126126554D01*
X146463283Y-126126553D01*
X146521049Y-126120344D01*
X146651718Y-126071607D01*
X146651721Y-126071605D01*
X146763367Y-125988027D01*
X146846945Y-125876381D01*
X146846947Y-125876378D01*
X146895683Y-125745710D01*
X146895684Y-125745702D01*
X146899894Y-125706555D01*
X146431895Y-125706555D01*
X146431895Y-126126554D01*
X146000502Y-126126554D01*
X146031895Y-126126553D01*
X146031895Y-125706555D01*
X145563897Y-125706555D01*
X144149894Y-125706555D01*
X143681895Y-125706555D01*
X143681895Y-126126554D01*
X143250502Y-126126554D01*
X143281895Y-126126553D01*
X143281895Y-125706555D01*
X142813897Y-125706555D01*
X132580500Y-125706555D01*
X132580500Y-125306554D01*
X142813895Y-125306554D01*
X142813896Y-125306555D01*
X144149893Y-125306555D01*
X144149893Y-125306554D01*
X145563895Y-125306554D01*
X145563896Y-125306555D01*
X146899892Y-125306555D01*
X146895684Y-125267400D01*
X146846947Y-125136731D01*
X146846945Y-125136728D01*
X146763366Y-125025080D01*
X146759823Y-125022428D01*
X146757170Y-125018884D01*
X146757097Y-125018811D01*
X146757107Y-125018800D01*
X146717953Y-124966493D01*
X146712971Y-124896801D01*
X146733227Y-124851097D01*
X146734965Y-124848662D01*
X146734971Y-124848657D01*
X146734974Y-124848650D01*
X146734978Y-124848645D01*
X146773396Y-124770056D01*
X146791477Y-124733073D01*
X146802395Y-124658137D01*
X146802395Y-124314973D01*
X146791477Y-124240037D01*
X146761069Y-124177836D01*
X146734974Y-124124457D01*
X146734018Y-124123118D01*
X146733276Y-124120983D01*
X146730459Y-124115221D01*
X146731155Y-124114880D01*
X146711080Y-124057121D01*
X146717907Y-124010058D01*
X146721741Y-123999115D01*
X146744879Y-123959040D01*
X146774456Y-123848658D01*
X146775996Y-123844263D01*
X146793759Y-123819517D01*
X146809611Y-123793511D01*
X146813936Y-123791410D01*
X146816740Y-123787504D01*
X146845058Y-123776291D01*
X146872458Y-123762982D01*
X146877232Y-123763552D01*
X146881703Y-123761783D01*
X146911591Y-123767661D01*
X146941833Y-123771277D01*
X146945539Y-123774337D01*
X146950260Y-123775266D01*
X146972228Y-123796373D01*
X146995711Y-123815762D01*
X146998293Y-123821416D01*
X147000643Y-123823674D01*
X147002085Y-123829718D01*
X147012794Y-123853168D01*
X147015614Y-123863690D01*
X147091380Y-123994920D01*
X147198530Y-124102070D01*
X147329760Y-124177836D01*
X147476129Y-124217055D01*
X147476131Y-124217055D01*
X147627659Y-124217055D01*
X147627661Y-124217055D01*
X147774030Y-124177836D01*
X147905260Y-124102070D01*
X148012410Y-123994920D01*
X148051355Y-123927464D01*
X148101922Y-123879249D01*
X148170529Y-123866026D01*
X148235394Y-123891994D01*
X148273303Y-123942013D01*
X148316807Y-124047043D01*
X148316814Y-124047056D01*
X148398943Y-124169970D01*
X148398946Y-124169974D01*
X148503475Y-124274503D01*
X148503479Y-124274506D01*
X148626393Y-124356635D01*
X148626406Y-124356642D01*
X148762977Y-124413211D01*
X148762982Y-124413213D01*
X148762986Y-124413213D01*
X148762987Y-124413214D01*
X148907974Y-124442055D01*
X148907977Y-124442055D01*
X149055815Y-124442055D01*
X149153357Y-124422651D01*
X149200808Y-124413213D01*
X149337390Y-124356639D01*
X149460311Y-124274506D01*
X149564846Y-124169971D01*
X149646979Y-124047050D01*
X149703553Y-123910468D01*
X149722392Y-123815762D01*
X149732395Y-123765475D01*
X149732395Y-122517634D01*
X149703554Y-122372647D01*
X149703553Y-122372646D01*
X149703553Y-122372642D01*
X149703551Y-122372637D01*
X149646982Y-122236066D01*
X149646975Y-122236053D01*
X149564846Y-122113139D01*
X149564843Y-122113135D01*
X149460314Y-122008606D01*
X149460310Y-122008603D01*
X149337396Y-121926474D01*
X149337383Y-121926467D01*
X149200812Y-121869898D01*
X149200802Y-121869895D01*
X149055815Y-121841055D01*
X149055813Y-121841055D01*
X148907977Y-121841055D01*
X148907975Y-121841055D01*
X148762987Y-121869895D01*
X148762977Y-121869898D01*
X148626406Y-121926467D01*
X148626393Y-121926474D01*
X148503479Y-122008603D01*
X148503475Y-122008606D01*
X148398946Y-122113135D01*
X148398943Y-122113139D01*
X148316814Y-122236053D01*
X148316807Y-122236066D01*
X148260238Y-122372637D01*
X148260235Y-122372647D01*
X148231395Y-122517634D01*
X148231395Y-123208285D01*
X148211710Y-123275324D01*
X148158906Y-123321079D01*
X148089748Y-123331023D01*
X148026192Y-123301998D01*
X148018383Y-123293710D01*
X148018157Y-123293937D01*
X147905262Y-123181042D01*
X147905260Y-123181040D01*
X147839645Y-123143157D01*
X147774031Y-123105274D01*
X147700845Y-123085664D01*
X147627661Y-123066055D01*
X147476129Y-123066055D01*
X147329758Y-123105274D01*
X147198530Y-123181040D01*
X147198527Y-123181042D01*
X147091382Y-123288187D01*
X147091380Y-123288190D01*
X147015615Y-123419418D01*
X146984661Y-123534939D01*
X146948296Y-123594599D01*
X146885449Y-123625128D01*
X146816073Y-123616833D01*
X146762195Y-123572348D01*
X146748117Y-123541520D01*
X146747987Y-123541574D01*
X146746478Y-123537931D01*
X146745111Y-123534939D01*
X146744879Y-123534070D01*
X146744877Y-123534066D01*
X146744877Y-123534065D01*
X146672406Y-123408543D01*
X146672401Y-123408537D01*
X146569912Y-123306048D01*
X146569906Y-123306043D01*
X146444383Y-123233572D01*
X146444384Y-123233572D01*
X146432901Y-123230495D01*
X146304370Y-123196055D01*
X146159420Y-123196055D01*
X146030888Y-123230495D01*
X146019406Y-123233572D01*
X145893883Y-123306043D01*
X145893877Y-123306048D01*
X145791388Y-123408537D01*
X145791383Y-123408543D01*
X145718912Y-123534066D01*
X145718911Y-123534070D01*
X145681395Y-123674080D01*
X145681395Y-123819030D01*
X145714349Y-123942013D01*
X145718912Y-123959043D01*
X145736243Y-123989061D01*
X145752716Y-124056961D01*
X145732663Y-124114896D01*
X145733331Y-124115223D01*
X145730658Y-124120689D01*
X145729863Y-124122988D01*
X145729780Y-124123105D01*
X145728820Y-124124448D01*
X145672313Y-124240034D01*
X145672313Y-124240037D01*
X145661395Y-124314973D01*
X145661395Y-124658137D01*
X145672313Y-124733073D01*
X145672313Y-124733074D01*
X145672314Y-124733076D01*
X145728816Y-124848654D01*
X145730569Y-124851109D01*
X145731927Y-124855018D01*
X145733331Y-124857889D01*
X145732984Y-124858058D01*
X145753505Y-124917107D01*
X145737119Y-124985028D01*
X145703965Y-125022430D01*
X145700423Y-125025081D01*
X145616844Y-125136728D01*
X145616842Y-125136731D01*
X145568106Y-125267399D01*
X145568105Y-125267407D01*
X145563895Y-125306554D01*
X144149893Y-125306554D01*
X144145684Y-125267400D01*
X144096947Y-125136731D01*
X144096945Y-125136728D01*
X144013366Y-125025080D01*
X144009823Y-125022428D01*
X144007170Y-125018884D01*
X144007097Y-125018811D01*
X144007107Y-125018800D01*
X143967953Y-124966493D01*
X143962971Y-124896801D01*
X143983227Y-124851097D01*
X143984965Y-124848662D01*
X143984971Y-124848657D01*
X143984974Y-124848650D01*
X143984978Y-124848645D01*
X144023396Y-124770056D01*
X144041477Y-124733073D01*
X144052395Y-124658137D01*
X144052395Y-124314973D01*
X144041477Y-124240037D01*
X144011069Y-124177836D01*
X143984974Y-124124457D01*
X143984018Y-124123118D01*
X143983276Y-124120983D01*
X143980459Y-124115221D01*
X143981155Y-124114880D01*
X143961080Y-124057121D01*
X143977464Y-123989202D01*
X143994879Y-123959040D01*
X144032395Y-123819030D01*
X144032395Y-123674080D01*
X143994879Y-123534070D01*
X143928684Y-123419418D01*
X143922406Y-123408543D01*
X143922401Y-123408537D01*
X143819912Y-123306048D01*
X143819906Y-123306043D01*
X143694383Y-123233572D01*
X143694384Y-123233572D01*
X143682901Y-123230495D01*
X143554370Y-123196055D01*
X143409420Y-123196055D01*
X143280888Y-123230495D01*
X143269406Y-123233572D01*
X143143883Y-123306043D01*
X143143877Y-123306048D01*
X143041388Y-123408537D01*
X143041383Y-123408543D01*
X142968912Y-123534066D01*
X142968911Y-123534070D01*
X142931395Y-123674080D01*
X142931395Y-123819030D01*
X142964349Y-123942013D01*
X142968912Y-123959043D01*
X142986243Y-123989061D01*
X143002716Y-124056961D01*
X142982663Y-124114896D01*
X142983331Y-124115223D01*
X142980658Y-124120689D01*
X142979863Y-124122988D01*
X142979780Y-124123105D01*
X142978820Y-124124448D01*
X142922313Y-124240034D01*
X142922313Y-124240037D01*
X142911395Y-124314973D01*
X142911395Y-124658137D01*
X142922313Y-124733073D01*
X142922313Y-124733074D01*
X142922314Y-124733076D01*
X142978816Y-124848654D01*
X142980569Y-124851109D01*
X142981927Y-124855018D01*
X142983331Y-124857889D01*
X142982984Y-124858058D01*
X143003505Y-124917107D01*
X142987119Y-124985028D01*
X142953965Y-125022430D01*
X142950423Y-125025081D01*
X142866844Y-125136728D01*
X142866842Y-125136731D01*
X142818106Y-125267399D01*
X142818105Y-125267407D01*
X142813895Y-125306554D01*
X132580500Y-125306554D01*
X132580500Y-123765475D01*
X139591394Y-123765475D01*
X139620235Y-123910462D01*
X139620238Y-123910472D01*
X139676807Y-124047043D01*
X139676814Y-124047056D01*
X139758943Y-124169970D01*
X139758946Y-124169974D01*
X139863475Y-124274503D01*
X139863479Y-124274506D01*
X139986393Y-124356635D01*
X139986406Y-124356642D01*
X140122977Y-124413211D01*
X140122982Y-124413213D01*
X140122986Y-124413213D01*
X140122987Y-124413214D01*
X140267974Y-124442055D01*
X140267977Y-124442055D01*
X140415815Y-124442055D01*
X140513357Y-124422651D01*
X140560808Y-124413213D01*
X140697390Y-124356639D01*
X140820311Y-124274506D01*
X140924846Y-124169971D01*
X141006979Y-124047050D01*
X141050488Y-123942008D01*
X141094326Y-123887610D01*
X141160620Y-123865544D01*
X141228319Y-123882823D01*
X141272434Y-123927464D01*
X141311380Y-123994920D01*
X141418530Y-124102070D01*
X141549760Y-124177836D01*
X141696129Y-124217055D01*
X141696131Y-124217055D01*
X141847659Y-124217055D01*
X141847661Y-124217055D01*
X141994030Y-124177836D01*
X142125260Y-124102070D01*
X142232410Y-123994920D01*
X142308176Y-123863690D01*
X142347395Y-123717321D01*
X142347395Y-123565789D01*
X142308176Y-123419420D01*
X142232410Y-123288190D01*
X142125260Y-123181040D01*
X142059645Y-123143157D01*
X141994031Y-123105274D01*
X141920845Y-123085664D01*
X141847661Y-123066055D01*
X141696129Y-123066055D01*
X141549758Y-123105274D01*
X141418530Y-123181040D01*
X141418527Y-123181042D01*
X141305633Y-123293937D01*
X141303614Y-123291918D01*
X141258340Y-123324975D01*
X141188593Y-123329128D01*
X141127674Y-123294914D01*
X141094923Y-123233196D01*
X141092395Y-123208285D01*
X141092395Y-122517634D01*
X141063554Y-122372647D01*
X141063553Y-122372646D01*
X141063553Y-122372642D01*
X141063551Y-122372637D01*
X141006982Y-122236066D01*
X141006975Y-122236053D01*
X140924846Y-122113139D01*
X140924843Y-122113135D01*
X140820314Y-122008606D01*
X140820310Y-122008603D01*
X140697396Y-121926474D01*
X140697383Y-121926467D01*
X140560812Y-121869898D01*
X140560802Y-121869895D01*
X140415815Y-121841055D01*
X140415813Y-121841055D01*
X140267977Y-121841055D01*
X140267975Y-121841055D01*
X140122987Y-121869895D01*
X140122977Y-121869898D01*
X139986406Y-121926467D01*
X139986393Y-121926474D01*
X139863479Y-122008603D01*
X139863475Y-122008606D01*
X139758946Y-122113135D01*
X139758943Y-122113139D01*
X139676814Y-122236053D01*
X139676807Y-122236066D01*
X139620238Y-122372637D01*
X139620235Y-122372647D01*
X139591395Y-122517634D01*
X139591395Y-122517637D01*
X139591395Y-123765473D01*
X139591395Y-123765475D01*
X139591394Y-123765475D01*
X132580500Y-123765475D01*
X132580500Y-119006773D01*
X136837596Y-119006773D01*
X136847507Y-119074805D01*
X136898810Y-119179747D01*
X136981406Y-119262343D01*
X137086343Y-119313643D01*
X137086346Y-119313644D01*
X137154375Y-119323555D01*
X137736894Y-119323555D01*
X138136895Y-119323555D01*
X138719413Y-119323555D01*
X138787444Y-119313643D01*
X138892386Y-119262340D01*
X138974982Y-119179744D01*
X139026282Y-119074807D01*
X139026283Y-119074804D01*
X139036195Y-119006775D01*
X139036195Y-118170256D01*
X138136895Y-118170256D01*
X138136895Y-119323555D01*
X137736894Y-119323555D01*
X137736895Y-119323554D01*
X137736895Y-118170256D01*
X136837596Y-118170256D01*
X136837596Y-119006773D01*
X132580500Y-119006773D01*
X132580500Y-116933736D01*
X136837595Y-116933736D01*
X136837595Y-117770256D01*
X137736895Y-117770256D01*
X138136895Y-117770256D01*
X139036194Y-117770256D01*
X139036194Y-116933738D01*
X139026282Y-116865706D01*
X138974979Y-116760764D01*
X138892383Y-116678168D01*
X138787446Y-116626868D01*
X138787443Y-116626867D01*
X138719415Y-116616956D01*
X138136895Y-116616956D01*
X138136895Y-117770256D01*
X137736895Y-117770256D01*
X137736895Y-116616956D01*
X137154377Y-116616956D01*
X137086345Y-116626868D01*
X136981403Y-116678171D01*
X136898807Y-116760767D01*
X136847507Y-116865704D01*
X136847506Y-116865707D01*
X136837595Y-116933736D01*
X132580500Y-116933736D01*
X132580500Y-108173335D01*
X133731895Y-108173335D01*
X133731895Y-108856555D01*
X134470015Y-108856555D01*
X134465970Y-108863562D01*
X134431895Y-108990729D01*
X134431895Y-109122381D01*
X134465970Y-109249548D01*
X134470015Y-109256555D01*
X133731896Y-109256555D01*
X133731896Y-109939772D01*
X133741807Y-110007804D01*
X133793110Y-110112746D01*
X133875706Y-110195342D01*
X133980643Y-110246642D01*
X133980646Y-110246643D01*
X134048675Y-110256554D01*
X134781863Y-110256554D01*
X134848902Y-110276238D01*
X134894657Y-110329042D01*
X134904601Y-110398201D01*
X134875576Y-110461757D01*
X134816798Y-110499531D01*
X134801261Y-110503027D01*
X134674197Y-110523152D01*
X134509447Y-110576683D01*
X134355106Y-110655323D01*
X134275151Y-110713414D01*
X134214967Y-110757141D01*
X134214965Y-110757143D01*
X134214964Y-110757143D01*
X134092483Y-110879624D01*
X134092483Y-110879625D01*
X134092481Y-110879627D01*
X134048754Y-110939811D01*
X133990663Y-111019766D01*
X133912023Y-111174107D01*
X133858492Y-111338857D01*
X133831395Y-111509944D01*
X133831395Y-111683166D01*
X133858493Y-111854256D01*
X133912022Y-112019000D01*
X133990663Y-112173343D01*
X134092481Y-112313483D01*
X134214967Y-112435969D01*
X134355107Y-112537787D01*
X134509450Y-112616428D01*
X134674194Y-112669957D01*
X134845284Y-112697055D01*
X134845285Y-112697055D01*
X135018505Y-112697055D01*
X135018506Y-112697055D01*
X135189596Y-112669957D01*
X135354340Y-112616428D01*
X135508683Y-112537787D01*
X135648823Y-112435969D01*
X135771309Y-112313483D01*
X135873127Y-112173343D01*
X135951768Y-112019000D01*
X136005297Y-111854256D01*
X136032395Y-111683166D01*
X136032395Y-111509944D01*
X136005297Y-111338854D01*
X135951768Y-111174110D01*
X135873127Y-111019767D01*
X135771309Y-110879627D01*
X135698454Y-110806772D01*
X136837596Y-110806772D01*
X136847507Y-110874804D01*
X136898810Y-110979746D01*
X136981406Y-111062342D01*
X137086343Y-111113642D01*
X137086346Y-111113643D01*
X137154375Y-111123554D01*
X137736894Y-111123554D01*
X138136895Y-111123554D01*
X138719413Y-111123554D01*
X138787444Y-111113642D01*
X138892386Y-111062339D01*
X138974982Y-110979743D01*
X139026282Y-110874806D01*
X139026283Y-110874803D01*
X139036195Y-110806774D01*
X139036195Y-109970255D01*
X138136895Y-109970255D01*
X138136895Y-111123554D01*
X137736894Y-111123554D01*
X137736895Y-111123553D01*
X137736895Y-109970255D01*
X136837596Y-109970255D01*
X136837596Y-110806772D01*
X135698454Y-110806772D01*
X135648823Y-110757141D01*
X135508683Y-110655323D01*
X135354340Y-110576682D01*
X135189596Y-110523153D01*
X135189594Y-110523152D01*
X135189592Y-110523152D01*
X135062527Y-110503027D01*
X134999392Y-110473098D01*
X134962461Y-110413786D01*
X134963459Y-110343924D01*
X135002069Y-110285691D01*
X135066032Y-110257577D01*
X135081925Y-110256554D01*
X135815113Y-110256554D01*
X135883144Y-110246642D01*
X135988086Y-110195339D01*
X136070682Y-110112743D01*
X136121982Y-110007806D01*
X136121983Y-110007803D01*
X136131895Y-109939774D01*
X136131895Y-109256555D01*
X135393775Y-109256555D01*
X135397820Y-109249548D01*
X135431895Y-109122381D01*
X135431895Y-108990729D01*
X135397820Y-108863562D01*
X135393775Y-108856555D01*
X136131894Y-108856555D01*
X136131894Y-108733735D01*
X136837595Y-108733735D01*
X136837595Y-109570255D01*
X137736895Y-109570255D01*
X138136895Y-109570255D01*
X139036194Y-109570255D01*
X139036194Y-108733737D01*
X139026282Y-108665705D01*
X138974979Y-108560763D01*
X138892383Y-108478167D01*
X138787446Y-108426867D01*
X138787443Y-108426866D01*
X138719415Y-108416955D01*
X138136895Y-108416955D01*
X138136895Y-109570255D01*
X137736895Y-109570255D01*
X137736895Y-108416955D01*
X137154377Y-108416955D01*
X137086345Y-108426867D01*
X136981403Y-108478170D01*
X136898807Y-108560766D01*
X136847507Y-108665703D01*
X136847506Y-108665706D01*
X136837595Y-108733735D01*
X136131894Y-108733735D01*
X136131894Y-108173337D01*
X136121982Y-108105305D01*
X136070679Y-108000363D01*
X135988083Y-107917767D01*
X135883146Y-107866467D01*
X135883143Y-107866466D01*
X135815115Y-107856555D01*
X135131895Y-107856555D01*
X135131895Y-108594675D01*
X135124888Y-108590630D01*
X134997721Y-108556555D01*
X134866069Y-108556555D01*
X134738902Y-108590630D01*
X134731895Y-108594675D01*
X134731895Y-107856555D01*
X134048677Y-107856555D01*
X133980645Y-107866467D01*
X133875703Y-107917770D01*
X133793107Y-108000366D01*
X133741807Y-108105303D01*
X133741806Y-108105306D01*
X133731895Y-108173335D01*
X132580500Y-108173335D01*
X132580500Y-81763217D01*
X134917601Y-81763217D01*
X134927512Y-81831249D01*
X134978815Y-81936191D01*
X134986965Y-81944341D01*
X135020450Y-82005664D01*
X135020901Y-82056213D01*
X135017100Y-82075321D01*
X135017100Y-83024678D01*
X135031632Y-83097735D01*
X135031633Y-83097738D01*
X135043909Y-83116111D01*
X135064785Y-83182789D01*
X135046299Y-83250169D01*
X135043909Y-83253889D01*
X135031633Y-83272261D01*
X135031632Y-83272264D01*
X135017100Y-83345321D01*
X135017100Y-84294678D01*
X135031632Y-84367735D01*
X135031633Y-84367738D01*
X135043909Y-84386111D01*
X135064785Y-84452789D01*
X135046299Y-84520169D01*
X135043909Y-84523889D01*
X135031633Y-84542261D01*
X135031632Y-84542264D01*
X135017100Y-84615321D01*
X135017100Y-85564678D01*
X135031632Y-85637735D01*
X135031633Y-85637738D01*
X135043909Y-85656111D01*
X135064785Y-85722789D01*
X135046299Y-85790169D01*
X135043909Y-85793889D01*
X135031633Y-85812261D01*
X135031632Y-85812264D01*
X135017100Y-85885321D01*
X135017100Y-86834678D01*
X135031632Y-86907735D01*
X135031633Y-86907738D01*
X135043909Y-86926111D01*
X135064785Y-86992789D01*
X135046299Y-87060169D01*
X135043909Y-87063889D01*
X135031633Y-87082261D01*
X135031632Y-87082264D01*
X135017100Y-87155321D01*
X135017100Y-88104678D01*
X135031632Y-88177735D01*
X135031633Y-88177738D01*
X135031633Y-88177739D01*
X135031634Y-88177740D01*
X135043908Y-88196109D01*
X135043909Y-88196111D01*
X135064785Y-88262789D01*
X135046299Y-88330169D01*
X135043909Y-88333889D01*
X135031633Y-88352261D01*
X135031632Y-88352264D01*
X135017100Y-88425321D01*
X135017100Y-89374678D01*
X135031632Y-89447735D01*
X135031633Y-89447738D01*
X135043909Y-89466111D01*
X135064785Y-89532789D01*
X135046299Y-89600169D01*
X135043909Y-89603889D01*
X135031633Y-89622261D01*
X135031632Y-89622264D01*
X135017100Y-89695321D01*
X135017100Y-90644678D01*
X135031632Y-90717735D01*
X135031633Y-90717738D01*
X135043909Y-90736111D01*
X135064785Y-90802789D01*
X135046299Y-90870169D01*
X135043909Y-90873889D01*
X135031633Y-90892261D01*
X135031632Y-90892264D01*
X135017100Y-90965321D01*
X135017100Y-91914678D01*
X135031632Y-91987735D01*
X135031633Y-91987738D01*
X135043909Y-92006111D01*
X135064785Y-92072789D01*
X135046299Y-92140169D01*
X135043909Y-92143889D01*
X135031633Y-92162261D01*
X135031632Y-92162264D01*
X135017100Y-92235321D01*
X135017100Y-93184678D01*
X135031632Y-93257735D01*
X135031633Y-93257738D01*
X135043909Y-93276111D01*
X135064785Y-93342789D01*
X135046299Y-93410169D01*
X135043909Y-93413889D01*
X135031633Y-93432261D01*
X135031632Y-93432264D01*
X135017100Y-93505321D01*
X135017100Y-94454678D01*
X135031632Y-94527735D01*
X135031633Y-94527738D01*
X135043909Y-94546111D01*
X135064785Y-94612789D01*
X135046299Y-94680169D01*
X135043909Y-94683889D01*
X135031633Y-94702261D01*
X135031632Y-94702264D01*
X135017100Y-94775321D01*
X135017100Y-95724678D01*
X135031632Y-95797735D01*
X135031633Y-95797738D01*
X135043909Y-95816111D01*
X135064785Y-95882789D01*
X135046299Y-95950169D01*
X135043909Y-95953889D01*
X135031633Y-95972261D01*
X135031632Y-95972264D01*
X135017100Y-96045321D01*
X135017100Y-96994678D01*
X135031632Y-97067735D01*
X135031633Y-97067738D01*
X135043909Y-97086111D01*
X135064785Y-97152789D01*
X135046299Y-97220169D01*
X135043909Y-97223889D01*
X135031633Y-97242261D01*
X135031632Y-97242264D01*
X135017100Y-97315321D01*
X135017100Y-98264678D01*
X135031632Y-98337735D01*
X135031633Y-98337739D01*
X135031634Y-98337740D01*
X135086999Y-98420601D01*
X135169859Y-98475965D01*
X135169860Y-98475966D01*
X135169864Y-98475967D01*
X135242921Y-98490499D01*
X135242924Y-98490500D01*
X135242926Y-98490500D01*
X136792276Y-98490500D01*
X136792277Y-98490499D01*
X136865340Y-98475966D01*
X136889210Y-98460016D01*
X136955886Y-98439139D01*
X137023266Y-98457623D01*
X137069957Y-98509602D01*
X137082100Y-98563119D01*
X137082100Y-99814678D01*
X137096632Y-99887735D01*
X137096633Y-99887739D01*
X137096634Y-99887740D01*
X137151999Y-99970601D01*
X137234859Y-100025965D01*
X137234860Y-100025966D01*
X137234864Y-100025967D01*
X137307921Y-100040499D01*
X137307924Y-100040500D01*
X137307926Y-100040500D01*
X138257276Y-100040500D01*
X138257277Y-100040499D01*
X138330340Y-100025966D01*
X138348710Y-100013691D01*
X138415386Y-99992814D01*
X138482766Y-100011298D01*
X138486473Y-100013680D01*
X138504860Y-100025966D01*
X138504862Y-100025966D01*
X138504864Y-100025967D01*
X138577921Y-100040499D01*
X138577924Y-100040500D01*
X138577926Y-100040500D01*
X139527276Y-100040500D01*
X139527277Y-100040499D01*
X139600340Y-100025966D01*
X139618710Y-100013691D01*
X139685386Y-99992814D01*
X139722929Y-99997933D01*
X139740898Y-100003274D01*
X139774860Y-100025966D01*
X139847926Y-100040500D01*
X139866140Y-100040500D01*
X139883429Y-100045639D01*
X139898227Y-100055219D01*
X139915139Y-100060185D01*
X139926944Y-100073809D01*
X139942082Y-100083609D01*
X139949352Y-100099669D01*
X139960894Y-100112989D01*
X139965993Y-100136430D01*
X139970896Y-100147260D01*
X139969868Y-100154242D01*
X139972100Y-100164500D01*
X139972100Y-114482104D01*
X139995986Y-114571248D01*
X139995987Y-114571251D01*
X140042127Y-114651169D01*
X140042131Y-114651174D01*
X140963676Y-115572719D01*
X140997161Y-115634042D01*
X140999995Y-115660400D01*
X140999995Y-116391834D01*
X141014527Y-116464891D01*
X141014528Y-116464895D01*
X141014529Y-116464896D01*
X141069894Y-116547757D01*
X141149190Y-116600740D01*
X141152755Y-116603122D01*
X141152759Y-116603123D01*
X141225816Y-116617655D01*
X141225819Y-116617656D01*
X141225821Y-116617656D01*
X142087971Y-116617656D01*
X142087972Y-116617655D01*
X142113196Y-116612638D01*
X142173014Y-116600740D01*
X142173322Y-116602290D01*
X142228909Y-116596313D01*
X142250728Y-116602719D01*
X142325816Y-116617655D01*
X142325819Y-116617656D01*
X142325821Y-116617656D01*
X143187971Y-116617656D01*
X143187972Y-116617655D01*
X143213196Y-116612638D01*
X143273014Y-116600740D01*
X143273282Y-116602087D01*
X143325281Y-116595713D01*
X143346408Y-116598880D01*
X143352756Y-116603122D01*
X143425822Y-116617656D01*
X143471636Y-116617656D01*
X143480780Y-116619027D01*
X143504424Y-116629997D01*
X143529433Y-116637341D01*
X143535606Y-116644465D01*
X143544160Y-116648434D01*
X143558121Y-116670449D01*
X143575188Y-116690145D01*
X143577577Y-116701127D01*
X143581579Y-116707438D01*
X143581508Y-116719197D01*
X143586394Y-116741656D01*
X143586394Y-120126192D01*
X143566709Y-120193231D01*
X143524395Y-120233579D01*
X143398880Y-120306046D01*
X143398877Y-120306048D01*
X143296388Y-120408537D01*
X143296383Y-120408543D01*
X143223912Y-120534066D01*
X143223911Y-120534070D01*
X143186395Y-120674080D01*
X143186395Y-120819030D01*
X143223911Y-120959040D01*
X143223912Y-120959043D01*
X143296383Y-121084566D01*
X143296385Y-121084568D01*
X143296386Y-121084570D01*
X143398880Y-121187064D01*
X143398881Y-121187065D01*
X143398883Y-121187066D01*
X143524406Y-121259537D01*
X143524407Y-121259537D01*
X143524410Y-121259539D01*
X143664420Y-121297055D01*
X143664423Y-121297055D01*
X143809367Y-121297055D01*
X143809370Y-121297055D01*
X143949380Y-121259539D01*
X144074910Y-121187064D01*
X144074914Y-121187059D01*
X144081356Y-121182117D01*
X144082298Y-121183345D01*
X144135537Y-121154275D01*
X144205229Y-121159259D01*
X144241892Y-121182822D01*
X144242434Y-121182117D01*
X144248883Y-121187066D01*
X144374406Y-121259537D01*
X144374407Y-121259537D01*
X144374410Y-121259539D01*
X144514420Y-121297055D01*
X144514423Y-121297055D01*
X144659367Y-121297055D01*
X144659370Y-121297055D01*
X144799380Y-121259539D01*
X144924910Y-121187064D01*
X145027404Y-121084570D01*
X145099879Y-120959040D01*
X145137395Y-120819030D01*
X145137395Y-120674080D01*
X145099879Y-120534070D01*
X145027404Y-120408540D01*
X144924910Y-120306046D01*
X144866357Y-120272240D01*
X144799395Y-120233579D01*
X144751180Y-120183011D01*
X144737396Y-120126192D01*
X144737396Y-119006773D01*
X150727596Y-119006773D01*
X150737507Y-119074805D01*
X150788810Y-119179747D01*
X150871406Y-119262343D01*
X150976343Y-119313643D01*
X150976346Y-119313644D01*
X151044375Y-119323555D01*
X151626894Y-119323555D01*
X152026895Y-119323555D01*
X152609413Y-119323555D01*
X152677444Y-119313643D01*
X152782386Y-119262340D01*
X152864982Y-119179744D01*
X152916282Y-119074807D01*
X152916283Y-119074804D01*
X152926195Y-119006775D01*
X152926195Y-118170256D01*
X152026895Y-118170256D01*
X152026895Y-119323555D01*
X151626894Y-119323555D01*
X151626895Y-119323554D01*
X151626895Y-118170256D01*
X150727596Y-118170256D01*
X150727596Y-119006773D01*
X144737396Y-119006773D01*
X144737396Y-117592636D01*
X144757081Y-117525597D01*
X144809885Y-117479842D01*
X144861396Y-117468636D01*
X150296825Y-117468636D01*
X150296827Y-117468636D01*
X150385971Y-117444750D01*
X150465895Y-117398606D01*
X150515914Y-117348585D01*
X150577236Y-117315101D01*
X150646928Y-117320085D01*
X150702861Y-117361956D01*
X150727279Y-117427420D01*
X150727595Y-117436267D01*
X150727595Y-117770256D01*
X151626895Y-117770256D01*
X152026895Y-117770256D01*
X152926194Y-117770256D01*
X152926194Y-116933738D01*
X152916282Y-116865706D01*
X152864979Y-116760764D01*
X152782383Y-116678168D01*
X152677446Y-116626868D01*
X152677443Y-116626867D01*
X152609415Y-116616956D01*
X152026895Y-116616956D01*
X152026895Y-117770256D01*
X151626895Y-117770256D01*
X151626895Y-116616956D01*
X151044375Y-116616956D01*
X151006651Y-116622453D01*
X150937474Y-116612638D01*
X150884585Y-116566982D01*
X150864775Y-116499980D01*
X150864775Y-111240762D01*
X150884460Y-111173723D01*
X150937264Y-111127968D01*
X151006422Y-111118024D01*
X151006655Y-111118058D01*
X151044377Y-111123554D01*
X151626894Y-111123554D01*
X152026895Y-111123554D01*
X152609413Y-111123554D01*
X152677444Y-111113642D01*
X152782386Y-111062339D01*
X152864982Y-110979743D01*
X152916282Y-110874806D01*
X152916283Y-110874803D01*
X152926195Y-110806774D01*
X152926195Y-110521876D01*
X153631395Y-110521876D01*
X153631395Y-112271233D01*
X153645927Y-112344290D01*
X153645928Y-112344294D01*
X153645929Y-112344295D01*
X153701294Y-112427156D01*
X153784155Y-112482521D01*
X153784159Y-112482522D01*
X153857216Y-112497054D01*
X153857219Y-112497055D01*
X153857221Y-112497055D01*
X155606571Y-112497055D01*
X155606572Y-112497054D01*
X155679635Y-112482521D01*
X155762496Y-112427156D01*
X155817861Y-112344295D01*
X155832395Y-112271229D01*
X155832395Y-110521881D01*
X155832395Y-110521878D01*
X155832394Y-110521876D01*
X155817862Y-110448819D01*
X155817861Y-110448815D01*
X155762496Y-110365954D01*
X155679635Y-110310589D01*
X155679634Y-110310588D01*
X155679630Y-110310587D01*
X155606572Y-110296055D01*
X155606569Y-110296055D01*
X153857221Y-110296055D01*
X153857218Y-110296055D01*
X153784159Y-110310587D01*
X153784155Y-110310588D01*
X153701294Y-110365954D01*
X153645928Y-110448815D01*
X153645927Y-110448819D01*
X153631395Y-110521876D01*
X152926195Y-110521876D01*
X152926195Y-109970255D01*
X152026895Y-109970255D01*
X152026895Y-111123554D01*
X151626894Y-111123554D01*
X151626895Y-111123553D01*
X151626895Y-109570255D01*
X152026895Y-109570255D01*
X152926194Y-109570255D01*
X152926194Y-108769944D01*
X153631395Y-108769944D01*
X153631395Y-108943165D01*
X153655693Y-109096582D01*
X153658493Y-109114256D01*
X153712022Y-109279000D01*
X153790663Y-109433343D01*
X153892481Y-109573483D01*
X154014967Y-109695969D01*
X154155107Y-109797787D01*
X154309450Y-109876428D01*
X154474194Y-109929957D01*
X154645284Y-109957055D01*
X154645285Y-109957055D01*
X154818505Y-109957055D01*
X154818506Y-109957055D01*
X154989596Y-109929957D01*
X155154340Y-109876428D01*
X155308683Y-109797787D01*
X155448823Y-109695969D01*
X155571309Y-109573483D01*
X155673127Y-109433343D01*
X155751768Y-109279000D01*
X155805297Y-109114256D01*
X155832395Y-108943166D01*
X155832395Y-108769944D01*
X155805297Y-108598854D01*
X155751768Y-108434110D01*
X155673127Y-108279767D01*
X155571309Y-108139627D01*
X155448823Y-108017141D01*
X155308683Y-107915323D01*
X155154340Y-107836682D01*
X154989596Y-107783153D01*
X154989594Y-107783152D01*
X154989593Y-107783152D01*
X154858166Y-107762336D01*
X154818506Y-107756055D01*
X154645284Y-107756055D01*
X154605623Y-107762336D01*
X154474197Y-107783152D01*
X154309447Y-107836683D01*
X154155106Y-107915323D01*
X154075151Y-107973414D01*
X154014967Y-108017141D01*
X154014965Y-108017143D01*
X154014964Y-108017143D01*
X153892483Y-108139624D01*
X153892483Y-108139625D01*
X153892481Y-108139627D01*
X153867991Y-108173335D01*
X153790663Y-108279766D01*
X153712023Y-108434107D01*
X153658492Y-108598857D01*
X153631395Y-108769944D01*
X152926194Y-108769944D01*
X152926194Y-108733737D01*
X152916282Y-108665705D01*
X152864979Y-108560763D01*
X152782383Y-108478167D01*
X152677446Y-108426867D01*
X152677443Y-108426866D01*
X152609415Y-108416955D01*
X152026895Y-108416955D01*
X152026895Y-109570255D01*
X151626895Y-109570255D01*
X151626895Y-108416955D01*
X151044375Y-108416955D01*
X151006651Y-108422452D01*
X150937474Y-108412637D01*
X150884585Y-108366981D01*
X150864775Y-108299979D01*
X150864775Y-102478916D01*
X150884460Y-102411877D01*
X150901090Y-102391239D01*
X151200173Y-102092155D01*
X151261494Y-102058672D01*
X151319941Y-102060062D01*
X151459941Y-102097576D01*
X151459944Y-102097576D01*
X151604888Y-102097576D01*
X151604891Y-102097576D01*
X151744901Y-102060060D01*
X151870431Y-101987585D01*
X151972925Y-101885091D01*
X152045400Y-101759561D01*
X152082916Y-101619551D01*
X152082916Y-101474601D01*
X152045400Y-101334591D01*
X152012886Y-101278276D01*
X151972927Y-101209064D01*
X151972922Y-101209058D01*
X151870433Y-101106569D01*
X151870427Y-101106564D01*
X151744904Y-101034093D01*
X151744905Y-101034093D01*
X151674896Y-101015334D01*
X151604891Y-100996576D01*
X151604887Y-100996575D01*
X151596831Y-100995515D01*
X151597033Y-100993980D01*
X151538835Y-100976891D01*
X151493080Y-100924087D01*
X151483816Y-100881502D01*
X151482935Y-100881619D01*
X151481874Y-100873562D01*
X151481874Y-100873561D01*
X151481874Y-100873559D01*
X151444358Y-100733549D01*
X151431615Y-100711478D01*
X151371885Y-100608022D01*
X151371880Y-100608016D01*
X151269391Y-100505527D01*
X151269385Y-100505522D01*
X151143862Y-100433051D01*
X151143863Y-100433051D01*
X151110390Y-100424082D01*
X151003849Y-100395534D01*
X150858899Y-100395534D01*
X150752358Y-100424082D01*
X150718885Y-100433051D01*
X150593362Y-100505522D01*
X150593356Y-100505527D01*
X150490867Y-100608016D01*
X150490862Y-100608022D01*
X150418391Y-100733545D01*
X150418390Y-100733549D01*
X150380874Y-100873559D01*
X150380874Y-100873561D01*
X150380874Y-101018508D01*
X150418385Y-101158502D01*
X150416722Y-101228352D01*
X150386291Y-101278276D01*
X149783826Y-101880742D01*
X149783824Y-101880745D01*
X149745242Y-101947573D01*
X149745240Y-101947575D01*
X149737681Y-101960665D01*
X149737681Y-101960666D01*
X149713795Y-102049812D01*
X149713795Y-102283355D01*
X149694110Y-102350394D01*
X149641306Y-102396149D01*
X149572148Y-102406093D01*
X149508592Y-102377068D01*
X149502114Y-102371036D01*
X148274563Y-101143485D01*
X148241078Y-101082162D01*
X148246062Y-101012470D01*
X148287934Y-100956537D01*
X148300229Y-100948426D01*
X148319910Y-100937064D01*
X148422404Y-100834570D01*
X148494879Y-100709040D01*
X148532395Y-100569030D01*
X148532395Y-100424080D01*
X148494879Y-100284070D01*
X148444150Y-100196205D01*
X148442984Y-100191398D01*
X148439680Y-100187720D01*
X148434830Y-100157789D01*
X148427678Y-100128308D01*
X148429296Y-100123632D01*
X148428505Y-100118750D01*
X148440610Y-100090942D01*
X148450530Y-100062281D01*
X148454958Y-100057982D01*
X148456393Y-100054687D01*
X148482650Y-100031103D01*
X148490337Y-100025966D01*
X148490340Y-100025966D01*
X148508713Y-100013689D01*
X148575390Y-99992814D01*
X148642770Y-100011300D01*
X148646473Y-100013680D01*
X148664860Y-100025966D01*
X148664862Y-100025966D01*
X148664864Y-100025967D01*
X148737921Y-100040499D01*
X148737924Y-100040500D01*
X148737926Y-100040500D01*
X149007395Y-100040500D01*
X149016080Y-100043050D01*
X149025042Y-100041762D01*
X149049082Y-100052740D01*
X149074434Y-100060185D01*
X149080361Y-100067025D01*
X149088598Y-100070787D01*
X149102887Y-100093021D01*
X149120189Y-100112989D01*
X149122476Y-100123503D01*
X149126372Y-100129565D01*
X149131395Y-100164500D01*
X149131395Y-100267169D01*
X149111710Y-100334208D01*
X149095076Y-100354850D01*
X149041388Y-100408537D01*
X149041383Y-100408543D01*
X148968912Y-100534066D01*
X148968911Y-100534070D01*
X148931395Y-100674080D01*
X148931395Y-100819030D01*
X148968911Y-100959040D01*
X148968912Y-100959043D01*
X149041383Y-101084566D01*
X149041385Y-101084568D01*
X149041386Y-101084570D01*
X149143880Y-101187064D01*
X149143881Y-101187065D01*
X149143883Y-101187066D01*
X149269406Y-101259537D01*
X149269407Y-101259537D01*
X149269410Y-101259539D01*
X149409420Y-101297055D01*
X149409423Y-101297055D01*
X149554367Y-101297055D01*
X149554370Y-101297055D01*
X149694380Y-101259539D01*
X149819910Y-101187064D01*
X149922404Y-101084570D01*
X149994879Y-100959040D01*
X150032395Y-100819030D01*
X150032395Y-100674080D01*
X149994879Y-100534070D01*
X149986843Y-100520152D01*
X149922406Y-100408543D01*
X149922401Y-100408537D01*
X149868714Y-100354850D01*
X149854010Y-100327922D01*
X149837418Y-100302104D01*
X149836526Y-100295903D01*
X149835229Y-100293527D01*
X149832395Y-100267169D01*
X149832395Y-100259046D01*
X149852080Y-100192007D01*
X149904884Y-100146252D01*
X149974042Y-100136308D01*
X149974272Y-100136341D01*
X149999385Y-100139999D01*
X150282599Y-100139999D01*
X150282600Y-100139998D01*
X150282600Y-97940000D01*
X149999387Y-97940000D01*
X149931351Y-97949912D01*
X149826409Y-98001214D01*
X149818256Y-98009368D01*
X149756932Y-98042851D01*
X149706387Y-98043301D01*
X149687278Y-98039500D01*
X149687274Y-98039500D01*
X148737926Y-98039500D01*
X148737923Y-98039500D01*
X148664864Y-98054032D01*
X148664861Y-98054033D01*
X148646489Y-98066309D01*
X148579811Y-98087185D01*
X148512431Y-98068699D01*
X148508711Y-98066309D01*
X148490340Y-98054034D01*
X148490339Y-98054033D01*
X148490338Y-98054033D01*
X148490335Y-98054032D01*
X148417277Y-98039500D01*
X148417274Y-98039500D01*
X147467926Y-98039500D01*
X147467923Y-98039500D01*
X147394864Y-98054032D01*
X147394861Y-98054033D01*
X147376489Y-98066309D01*
X147309811Y-98087185D01*
X147242431Y-98068699D01*
X147238711Y-98066309D01*
X147220340Y-98054034D01*
X147220339Y-98054033D01*
X147220338Y-98054033D01*
X147220335Y-98054032D01*
X147147277Y-98039500D01*
X147147274Y-98039500D01*
X146197926Y-98039500D01*
X146197923Y-98039500D01*
X146124864Y-98054032D01*
X146124861Y-98054033D01*
X146106489Y-98066309D01*
X146039811Y-98087185D01*
X145972431Y-98068699D01*
X145968711Y-98066309D01*
X145950340Y-98054034D01*
X145950339Y-98054033D01*
X145950338Y-98054033D01*
X145950335Y-98054032D01*
X145877277Y-98039500D01*
X145877274Y-98039500D01*
X144927926Y-98039500D01*
X144927923Y-98039500D01*
X144854864Y-98054032D01*
X144854861Y-98054033D01*
X144836489Y-98066309D01*
X144769811Y-98087185D01*
X144702431Y-98068699D01*
X144698711Y-98066309D01*
X144680340Y-98054034D01*
X144680339Y-98054033D01*
X144680338Y-98054033D01*
X144680335Y-98054032D01*
X144607277Y-98039500D01*
X144607274Y-98039500D01*
X143657926Y-98039500D01*
X143657923Y-98039500D01*
X143584864Y-98054032D01*
X143584861Y-98054033D01*
X143566489Y-98066309D01*
X143499811Y-98087185D01*
X143432431Y-98068699D01*
X143428711Y-98066309D01*
X143410340Y-98054034D01*
X143410339Y-98054033D01*
X143410338Y-98054033D01*
X143410335Y-98054032D01*
X143337277Y-98039500D01*
X143337274Y-98039500D01*
X142387926Y-98039500D01*
X142387923Y-98039500D01*
X142314864Y-98054032D01*
X142314861Y-98054033D01*
X142296489Y-98066309D01*
X142229811Y-98087185D01*
X142162431Y-98068699D01*
X142158711Y-98066309D01*
X142140340Y-98054034D01*
X142140339Y-98054033D01*
X142140338Y-98054033D01*
X142140335Y-98054032D01*
X142067277Y-98039500D01*
X142067274Y-98039500D01*
X141117926Y-98039500D01*
X141117923Y-98039500D01*
X141044864Y-98054032D01*
X141044861Y-98054033D01*
X141026489Y-98066309D01*
X140959811Y-98087185D01*
X140892431Y-98068699D01*
X140888711Y-98066309D01*
X140870340Y-98054034D01*
X140870339Y-98054033D01*
X140870338Y-98054033D01*
X140870335Y-98054032D01*
X140797277Y-98039500D01*
X140797274Y-98039500D01*
X139847926Y-98039500D01*
X139847923Y-98039500D01*
X139774864Y-98054032D01*
X139774861Y-98054033D01*
X139756489Y-98066309D01*
X139689811Y-98087185D01*
X139622431Y-98068699D01*
X139618711Y-98066309D01*
X139600340Y-98054034D01*
X139600339Y-98054033D01*
X139600338Y-98054033D01*
X139600335Y-98054032D01*
X139527277Y-98039500D01*
X139527274Y-98039500D01*
X138577926Y-98039500D01*
X138577923Y-98039500D01*
X138504864Y-98054032D01*
X138504861Y-98054033D01*
X138486489Y-98066309D01*
X138419811Y-98087185D01*
X138352431Y-98068699D01*
X138348711Y-98066309D01*
X138330340Y-98054034D01*
X138330339Y-98054033D01*
X138330338Y-98054033D01*
X138330335Y-98054032D01*
X138257277Y-98039500D01*
X138257274Y-98039500D01*
X137983994Y-98039500D01*
X137916955Y-98019815D01*
X137871200Y-97967011D01*
X137861256Y-97897853D01*
X137890281Y-97834297D01*
X137896313Y-97827819D01*
X140214593Y-95509539D01*
X142569948Y-93154184D01*
X142616092Y-93074260D01*
X142639978Y-92985116D01*
X142639978Y-88475941D01*
X142659663Y-88408902D01*
X142676297Y-88388260D01*
X142678272Y-88386285D01*
X142729987Y-88334570D01*
X142802462Y-88209040D01*
X142839978Y-88069030D01*
X142839978Y-87924080D01*
X142802462Y-87784070D01*
X142729987Y-87658540D01*
X142627493Y-87556046D01*
X142627491Y-87556045D01*
X142627489Y-87556043D01*
X142501966Y-87483572D01*
X142501967Y-87483572D01*
X142490484Y-87480495D01*
X142361953Y-87446055D01*
X142217003Y-87446055D01*
X142088471Y-87480495D01*
X142076989Y-87483572D01*
X141951466Y-87556043D01*
X141951460Y-87556048D01*
X141848971Y-87658537D01*
X141848966Y-87658543D01*
X141776495Y-87784066D01*
X141776494Y-87784070D01*
X141738978Y-87924080D01*
X141738978Y-88069030D01*
X141770606Y-88187066D01*
X141776495Y-88209043D01*
X141848966Y-88334566D01*
X141848971Y-88334572D01*
X141902659Y-88388260D01*
X141936144Y-88449583D01*
X141938978Y-88475941D01*
X141938978Y-92742427D01*
X141919293Y-92809466D01*
X141902659Y-92830108D01*
X139470043Y-95262723D01*
X139408720Y-95296208D01*
X139339028Y-95291224D01*
X139283095Y-95249352D01*
X139258678Y-95183888D01*
X139262587Y-95142951D01*
X139282395Y-95069030D01*
X139282395Y-94924080D01*
X139244879Y-94784070D01*
X139225994Y-94751361D01*
X139172406Y-94658543D01*
X139172401Y-94658537D01*
X139069912Y-94556048D01*
X139069906Y-94556043D01*
X138944383Y-94483572D01*
X138944384Y-94483572D01*
X138932901Y-94480495D01*
X138804370Y-94446055D01*
X138659420Y-94446055D01*
X138530888Y-94480495D01*
X138519406Y-94483572D01*
X138393883Y-94556043D01*
X138393877Y-94556048D01*
X138291388Y-94658537D01*
X138291383Y-94658543D01*
X138218912Y-94784066D01*
X138218910Y-94784071D01*
X138212607Y-94807595D01*
X138176242Y-94867255D01*
X138113395Y-94897783D01*
X138092833Y-94899500D01*
X137142100Y-94899500D01*
X137075061Y-94879815D01*
X137029306Y-94827011D01*
X137023239Y-94810829D01*
X137018100Y-94793539D01*
X137018100Y-94775326D01*
X137003566Y-94702260D01*
X136980874Y-94668298D01*
X136975533Y-94650329D01*
X136975476Y-94633383D01*
X136970414Y-94617214D01*
X136975363Y-94599170D01*
X136975302Y-94580460D01*
X136984415Y-94566175D01*
X136988898Y-94549834D01*
X136991292Y-94546109D01*
X137003566Y-94527740D01*
X137006910Y-94510927D01*
X137018350Y-94453418D01*
X137018349Y-94453408D01*
X137018355Y-94453394D01*
X137019289Y-94448700D01*
X137020398Y-94448920D01*
X137031762Y-94424036D01*
X137043852Y-94394105D01*
X137046185Y-94392453D01*
X137047374Y-94389852D01*
X137074537Y-94372395D01*
X137100890Y-94353751D01*
X137104479Y-94353153D01*
X137106152Y-94352078D01*
X137141087Y-94347055D01*
X137252509Y-94347055D01*
X137319548Y-94366740D01*
X137340190Y-94383374D01*
X137393880Y-94437064D01*
X137393881Y-94437065D01*
X137393883Y-94437066D01*
X137519406Y-94509537D01*
X137519407Y-94509537D01*
X137519410Y-94509539D01*
X137659420Y-94547055D01*
X137659423Y-94547055D01*
X137804367Y-94547055D01*
X137804370Y-94547055D01*
X137944380Y-94509539D01*
X138069910Y-94437064D01*
X138172404Y-94334570D01*
X138244879Y-94209040D01*
X138282395Y-94069030D01*
X138282395Y-93924080D01*
X138244879Y-93784070D01*
X138231185Y-93760352D01*
X138172406Y-93658543D01*
X138172401Y-93658537D01*
X138069912Y-93556048D01*
X138069906Y-93556043D01*
X137944383Y-93483572D01*
X137944384Y-93483572D01*
X137932901Y-93480495D01*
X137804370Y-93446055D01*
X137659420Y-93446055D01*
X137530888Y-93480495D01*
X137519406Y-93483572D01*
X137393883Y-93556043D01*
X137393877Y-93556048D01*
X137340190Y-93609736D01*
X137313262Y-93624439D01*
X137287444Y-93641032D01*
X137281243Y-93641923D01*
X137278867Y-93643221D01*
X137252509Y-93646055D01*
X137142100Y-93646055D01*
X137075061Y-93626370D01*
X137029306Y-93573566D01*
X137018100Y-93522055D01*
X137018100Y-93505323D01*
X137018099Y-93505321D01*
X137003567Y-93432264D01*
X137003566Y-93432261D01*
X137003566Y-93432260D01*
X136991291Y-93413889D01*
X136970414Y-93347214D01*
X136988898Y-93279834D01*
X136991292Y-93276109D01*
X137003566Y-93257740D01*
X137018100Y-93184674D01*
X137018100Y-93079219D01*
X137037785Y-93012180D01*
X137090589Y-92966425D01*
X137159747Y-92956481D01*
X137204097Y-92971830D01*
X137269410Y-93009539D01*
X137409420Y-93047055D01*
X137409423Y-93047055D01*
X137554367Y-93047055D01*
X137554370Y-93047055D01*
X137694380Y-93009539D01*
X137819910Y-92937064D01*
X137922404Y-92834570D01*
X137994879Y-92709040D01*
X138032395Y-92569030D01*
X138032395Y-92424080D01*
X137994879Y-92284070D01*
X137924552Y-92162261D01*
X137922406Y-92158543D01*
X137922401Y-92158537D01*
X137819912Y-92056048D01*
X137819906Y-92056043D01*
X137694383Y-91983572D01*
X137694384Y-91983572D01*
X137682901Y-91980495D01*
X137554370Y-91946055D01*
X137554367Y-91946055D01*
X137478438Y-91946055D01*
X137448997Y-91937410D01*
X137419011Y-91930887D01*
X137413995Y-91927132D01*
X137411399Y-91926370D01*
X137390757Y-91909736D01*
X137287064Y-91806043D01*
X137215723Y-91734701D01*
X137182239Y-91673380D01*
X137187223Y-91603688D01*
X137229095Y-91547755D01*
X137294559Y-91523338D01*
X137335494Y-91527246D01*
X137409420Y-91547055D01*
X137409423Y-91547055D01*
X137554367Y-91547055D01*
X137554370Y-91547055D01*
X137694380Y-91509539D01*
X137819910Y-91437064D01*
X137922404Y-91334570D01*
X137994879Y-91209040D01*
X138032395Y-91069030D01*
X138032395Y-90924080D01*
X137994879Y-90784070D01*
X137969339Y-90739834D01*
X137922406Y-90658543D01*
X137922401Y-90658537D01*
X137819912Y-90556048D01*
X137819906Y-90556043D01*
X137694383Y-90483572D01*
X137694384Y-90483572D01*
X137682901Y-90480495D01*
X137554370Y-90446055D01*
X137554367Y-90446055D01*
X137478438Y-90446055D01*
X137448997Y-90437410D01*
X137419011Y-90430887D01*
X137413995Y-90427132D01*
X137411399Y-90426370D01*
X137390757Y-90409736D01*
X137287064Y-90306043D01*
X137215723Y-90234701D01*
X137182239Y-90173380D01*
X137187223Y-90103688D01*
X137229095Y-90047755D01*
X137294559Y-90023338D01*
X137335494Y-90027246D01*
X137409420Y-90047055D01*
X137409423Y-90047055D01*
X137554367Y-90047055D01*
X137554370Y-90047055D01*
X137694380Y-90009539D01*
X137819910Y-89937064D01*
X137922404Y-89834570D01*
X137994879Y-89709040D01*
X138032395Y-89569030D01*
X138032395Y-89424080D01*
X137994879Y-89284070D01*
X137922404Y-89158540D01*
X137819910Y-89056046D01*
X137819908Y-89056045D01*
X137819906Y-89056043D01*
X137694383Y-88983572D01*
X137694384Y-88983572D01*
X137682901Y-88980495D01*
X137554370Y-88946055D01*
X137554367Y-88946055D01*
X137478439Y-88946055D01*
X137448998Y-88937410D01*
X137419012Y-88930887D01*
X137413996Y-88927132D01*
X137411400Y-88926370D01*
X137390758Y-88909736D01*
X137215725Y-88734703D01*
X137182240Y-88673380D01*
X137187224Y-88603688D01*
X137229096Y-88547755D01*
X137294560Y-88523338D01*
X137335494Y-88527246D01*
X137409420Y-88547055D01*
X137409423Y-88547055D01*
X137554367Y-88547055D01*
X137554370Y-88547055D01*
X137694380Y-88509539D01*
X137819910Y-88437064D01*
X137922404Y-88334570D01*
X137994879Y-88209040D01*
X138032395Y-88069030D01*
X138032395Y-87924080D01*
X137994879Y-87784070D01*
X137922404Y-87658540D01*
X137819910Y-87556046D01*
X137819908Y-87556045D01*
X137819906Y-87556043D01*
X137694383Y-87483572D01*
X137694384Y-87483572D01*
X137682901Y-87480495D01*
X137554370Y-87446055D01*
X137554367Y-87446055D01*
X137478439Y-87446055D01*
X137411400Y-87426370D01*
X137390758Y-87409736D01*
X137330553Y-87349531D01*
X137330548Y-87349527D01*
X137250630Y-87303387D01*
X137250629Y-87303386D01*
X137250628Y-87303386D01*
X137161484Y-87279500D01*
X137161483Y-87279500D01*
X137142100Y-87279500D01*
X137075061Y-87259815D01*
X137029306Y-87207011D01*
X137023239Y-87190829D01*
X137018100Y-87173539D01*
X137018100Y-87155326D01*
X137003566Y-87082260D01*
X136980874Y-87048298D01*
X136975533Y-87030329D01*
X136975476Y-87013383D01*
X136970414Y-86997214D01*
X136975363Y-86979170D01*
X136975302Y-86960460D01*
X136984415Y-86946175D01*
X136988898Y-86929834D01*
X136991292Y-86926109D01*
X137003566Y-86907740D01*
X137018100Y-86834674D01*
X137018100Y-85885326D01*
X137018100Y-85885323D01*
X137018099Y-85885321D01*
X137003567Y-85812264D01*
X137003566Y-85812261D01*
X137003566Y-85812260D01*
X136991291Y-85793889D01*
X136970414Y-85727214D01*
X136976322Y-85687118D01*
X136981632Y-85670566D01*
X137003566Y-85637740D01*
X137018100Y-85564674D01*
X137018100Y-85556902D01*
X137023240Y-85540882D01*
X137035732Y-85522466D01*
X137044061Y-85501834D01*
X137054964Y-85494116D01*
X137062464Y-85483061D01*
X137082928Y-85474323D01*
X137101091Y-85461468D01*
X137114435Y-85460870D01*
X137126722Y-85455625D01*
X137148664Y-85459338D01*
X137170891Y-85458344D01*
X137191330Y-85466560D01*
X137195612Y-85467285D01*
X137197569Y-85469068D01*
X137203308Y-85471375D01*
X137269410Y-85509539D01*
X137409420Y-85547055D01*
X137409423Y-85547055D01*
X137554367Y-85547055D01*
X137554370Y-85547055D01*
X137694380Y-85509539D01*
X137819910Y-85437064D01*
X137922404Y-85334570D01*
X137994879Y-85209040D01*
X138032395Y-85069030D01*
X138032395Y-84993098D01*
X138052080Y-84926059D01*
X138068714Y-84905417D01*
X140037312Y-82936819D01*
X140098635Y-82903334D01*
X140124993Y-82900500D01*
X150336351Y-82900500D01*
X150403390Y-82920185D01*
X150449145Y-82972989D01*
X150459089Y-83042147D01*
X150430064Y-83105703D01*
X150424032Y-83112181D01*
X149201427Y-84334785D01*
X149201423Y-84334791D01*
X149169837Y-84389500D01*
X149155282Y-84414709D01*
X149155281Y-84414712D01*
X149131395Y-84503856D01*
X149131395Y-86017169D01*
X149111710Y-86084208D01*
X149095076Y-86104850D01*
X149041388Y-86158537D01*
X149041383Y-86158543D01*
X148968912Y-86284066D01*
X148968911Y-86284070D01*
X148931395Y-86424080D01*
X148931395Y-86569030D01*
X148963023Y-86687066D01*
X148968912Y-86709043D01*
X149041383Y-86834566D01*
X149041385Y-86834568D01*
X149041386Y-86834570D01*
X149143880Y-86937064D01*
X149143881Y-86937065D01*
X149143883Y-86937066D01*
X149269406Y-87009537D01*
X149269407Y-87009537D01*
X149269410Y-87009539D01*
X149409420Y-87047055D01*
X149409423Y-87047055D01*
X149554367Y-87047055D01*
X149554370Y-87047055D01*
X149694380Y-87009539D01*
X149819910Y-86937064D01*
X149922404Y-86834570D01*
X149994879Y-86709040D01*
X150032395Y-86569030D01*
X150032395Y-86424080D01*
X149994879Y-86284070D01*
X149922404Y-86158540D01*
X149868714Y-86104850D01*
X149835229Y-86043527D01*
X149832395Y-86017169D01*
X149832395Y-84746544D01*
X149852080Y-84679505D01*
X149868714Y-84658863D01*
X151590758Y-82936819D01*
X151652081Y-82903334D01*
X151678439Y-82900500D01*
X152393100Y-82900500D01*
X152460139Y-82920185D01*
X152505894Y-82972989D01*
X152511961Y-82989171D01*
X152517100Y-83006460D01*
X152517100Y-83024674D01*
X152531634Y-83097740D01*
X152554324Y-83131698D01*
X152559666Y-83149671D01*
X152559722Y-83166617D01*
X152564785Y-83182789D01*
X152559835Y-83200830D01*
X152559897Y-83219541D01*
X152550782Y-83233827D01*
X152546299Y-83250169D01*
X152543909Y-83253889D01*
X152531633Y-83272261D01*
X152531632Y-83272264D01*
X152517100Y-83345321D01*
X152517100Y-84091456D01*
X152497415Y-84158495D01*
X152444611Y-84204250D01*
X152375453Y-84214194D01*
X152361007Y-84211231D01*
X152358233Y-84210487D01*
X152304370Y-84196055D01*
X152159420Y-84196055D01*
X152030888Y-84230495D01*
X152019406Y-84233572D01*
X151893883Y-84306043D01*
X151893877Y-84306048D01*
X151791388Y-84408537D01*
X151791383Y-84408543D01*
X151718912Y-84534066D01*
X151718911Y-84534070D01*
X151681395Y-84674080D01*
X151681395Y-84819030D01*
X151718911Y-84959040D01*
X151718912Y-84959043D01*
X151791383Y-85084566D01*
X151791385Y-85084568D01*
X151791386Y-85084570D01*
X151893880Y-85187064D01*
X151893881Y-85187065D01*
X151893883Y-85187066D01*
X152019406Y-85259537D01*
X152019407Y-85259537D01*
X152019410Y-85259539D01*
X152159420Y-85297055D01*
X152235351Y-85297055D01*
X152257245Y-85303483D01*
X152279986Y-85305367D01*
X152293415Y-85314104D01*
X152302390Y-85316740D01*
X152310771Y-85322628D01*
X152317252Y-85327594D01*
X152360128Y-85370470D01*
X152406175Y-85397055D01*
X152440052Y-85416614D01*
X152440055Y-85416615D01*
X152440547Y-85416819D01*
X152440900Y-85417104D01*
X152447091Y-85420678D01*
X152446533Y-85421642D01*
X152494953Y-85460657D01*
X152517021Y-85526950D01*
X152517100Y-85531382D01*
X152517100Y-85564683D01*
X152517779Y-85568095D01*
X152517615Y-85569915D01*
X152517697Y-85570739D01*
X152517540Y-85570754D01*
X152511546Y-85637686D01*
X152468679Y-85692860D01*
X152402787Y-85716099D01*
X152364067Y-85712051D01*
X152304370Y-85696055D01*
X152159420Y-85696055D01*
X152034980Y-85729399D01*
X152019406Y-85733572D01*
X151893883Y-85806043D01*
X151893877Y-85806048D01*
X151791388Y-85908537D01*
X151791383Y-85908543D01*
X151718912Y-86034066D01*
X151718911Y-86034070D01*
X151681395Y-86174080D01*
X151681395Y-86319030D01*
X151709544Y-86424082D01*
X151718912Y-86459043D01*
X151791383Y-86584566D01*
X151791385Y-86584568D01*
X151791386Y-86584570D01*
X151893880Y-86687064D01*
X151893881Y-86687065D01*
X151893883Y-86687066D01*
X152019406Y-86759537D01*
X152019407Y-86759537D01*
X152019410Y-86759539D01*
X152159420Y-86797055D01*
X152159423Y-86797055D01*
X152304366Y-86797055D01*
X152304370Y-86797055D01*
X152371351Y-86779107D01*
X152441197Y-86780770D01*
X152499060Y-86819932D01*
X152519017Y-86853956D01*
X152522946Y-86864063D01*
X152531634Y-86907740D01*
X152551455Y-86937405D01*
X152556380Y-86950074D01*
X152558242Y-86971891D01*
X152564785Y-86992789D01*
X152561155Y-87006019D01*
X152562322Y-87019690D01*
X152552092Y-87039051D01*
X152546299Y-87060169D01*
X152543909Y-87063889D01*
X152531633Y-87082261D01*
X152531632Y-87082263D01*
X152524472Y-87118262D01*
X152492087Y-87180173D01*
X152431371Y-87214747D01*
X152370762Y-87213845D01*
X152304370Y-87196055D01*
X152159420Y-87196055D01*
X152030888Y-87230495D01*
X152019406Y-87233572D01*
X151893883Y-87306043D01*
X151893877Y-87306048D01*
X151791388Y-87408537D01*
X151791383Y-87408543D01*
X151718912Y-87534066D01*
X151718911Y-87534070D01*
X151681395Y-87674080D01*
X151681395Y-87819030D01*
X151709544Y-87924082D01*
X151718912Y-87959043D01*
X151791383Y-88084566D01*
X151791385Y-88084568D01*
X151791386Y-88084570D01*
X151893880Y-88187064D01*
X151893881Y-88187065D01*
X151893883Y-88187066D01*
X152019406Y-88259537D01*
X152019407Y-88259537D01*
X152019410Y-88259539D01*
X152159420Y-88297055D01*
X152159423Y-88297055D01*
X152304368Y-88297055D01*
X152304370Y-88297055D01*
X152363413Y-88281234D01*
X152433262Y-88282896D01*
X152491125Y-88322057D01*
X152518630Y-88386285D01*
X152519404Y-88406071D01*
X152519009Y-88415727D01*
X152517100Y-88425326D01*
X152517100Y-88462447D01*
X152516997Y-88464968D01*
X152506569Y-88495766D01*
X152497415Y-88526944D01*
X152495432Y-88528661D01*
X152494591Y-88531148D01*
X152469162Y-88551425D01*
X152449636Y-88568344D01*
X152450201Y-88569322D01*
X152445128Y-88572250D01*
X152444611Y-88572699D01*
X152443555Y-88573158D01*
X152363241Y-88619527D01*
X152363236Y-88619531D01*
X152323032Y-88659736D01*
X152261709Y-88693221D01*
X152235351Y-88696055D01*
X152159420Y-88696055D01*
X152030888Y-88730495D01*
X152019406Y-88733572D01*
X151893883Y-88806043D01*
X151893877Y-88806048D01*
X151791388Y-88908537D01*
X151791383Y-88908543D01*
X151718912Y-89034066D01*
X151718911Y-89034070D01*
X151681395Y-89174080D01*
X151681395Y-89319030D01*
X151709544Y-89424082D01*
X151718912Y-89459043D01*
X151791383Y-89584566D01*
X151791385Y-89584568D01*
X151791386Y-89584570D01*
X151893880Y-89687064D01*
X151893881Y-89687065D01*
X151893883Y-89687066D01*
X152019406Y-89759537D01*
X152019407Y-89759537D01*
X152019410Y-89759539D01*
X152159420Y-89797055D01*
X152159423Y-89797055D01*
X152304368Y-89797055D01*
X152304370Y-89797055D01*
X152361006Y-89781879D01*
X152385997Y-89782473D01*
X152410747Y-89778915D01*
X152420328Y-89783290D01*
X152430855Y-89783541D01*
X152451558Y-89797553D01*
X152474303Y-89807940D01*
X152479996Y-89816799D01*
X152488718Y-89822702D01*
X152498560Y-89845685D01*
X152512077Y-89866718D01*
X152514356Y-89882571D01*
X152516223Y-89886930D01*
X152517100Y-89901653D01*
X152517100Y-89914306D01*
X152497415Y-89981345D01*
X152480781Y-90001987D01*
X152323032Y-90159736D01*
X152261709Y-90193221D01*
X152235351Y-90196055D01*
X152159420Y-90196055D01*
X152030888Y-90230495D01*
X152019406Y-90233572D01*
X151893883Y-90306043D01*
X151893877Y-90306048D01*
X151791388Y-90408537D01*
X151791383Y-90408543D01*
X151718912Y-90534066D01*
X151718911Y-90534070D01*
X151681395Y-90674080D01*
X151681395Y-90819030D01*
X151709544Y-90924082D01*
X151718912Y-90959043D01*
X151791383Y-91084566D01*
X151791385Y-91084568D01*
X151791386Y-91084570D01*
X151893880Y-91187064D01*
X151893881Y-91187065D01*
X151893883Y-91187066D01*
X152019406Y-91259537D01*
X152019407Y-91259537D01*
X152019410Y-91259539D01*
X152159420Y-91297055D01*
X152159423Y-91297055D01*
X152304368Y-91297055D01*
X152304370Y-91297055D01*
X152361006Y-91281879D01*
X152385997Y-91282473D01*
X152410747Y-91278915D01*
X152420328Y-91283290D01*
X152430855Y-91283541D01*
X152451558Y-91297553D01*
X152474303Y-91307940D01*
X152479996Y-91316799D01*
X152488718Y-91322702D01*
X152498560Y-91345685D01*
X152512077Y-91366718D01*
X152514356Y-91382571D01*
X152516223Y-91386930D01*
X152517100Y-91401653D01*
X152517100Y-91414306D01*
X152497415Y-91481345D01*
X152480781Y-91501987D01*
X152323032Y-91659736D01*
X152261709Y-91693221D01*
X152235351Y-91696055D01*
X152159420Y-91696055D01*
X152030888Y-91730495D01*
X152019406Y-91733572D01*
X151893883Y-91806043D01*
X151893877Y-91806048D01*
X151791388Y-91908537D01*
X151791383Y-91908543D01*
X151718912Y-92034066D01*
X151718911Y-92034070D01*
X151681395Y-92174080D01*
X151681395Y-92319030D01*
X151709544Y-92424082D01*
X151718912Y-92459043D01*
X151791383Y-92584566D01*
X151791385Y-92584568D01*
X151791386Y-92584570D01*
X151893880Y-92687064D01*
X151893881Y-92687065D01*
X151893883Y-92687066D01*
X152019406Y-92759537D01*
X152019407Y-92759537D01*
X152019410Y-92759539D01*
X152159420Y-92797055D01*
X152159423Y-92797055D01*
X152304368Y-92797055D01*
X152304370Y-92797055D01*
X152361006Y-92781879D01*
X152430855Y-92783541D01*
X152488718Y-92822702D01*
X152516223Y-92886930D01*
X152517100Y-92901653D01*
X152517100Y-92986500D01*
X152497415Y-93053539D01*
X152444611Y-93099294D01*
X152393100Y-93110500D01*
X149642884Y-93110500D01*
X149575845Y-93090815D01*
X149555203Y-93074181D01*
X148818714Y-92337692D01*
X148785229Y-92276369D01*
X148782395Y-92250011D01*
X148782395Y-92174082D01*
X148782395Y-92174080D01*
X148744879Y-92034070D01*
X148730886Y-92009834D01*
X148672406Y-91908543D01*
X148672401Y-91908537D01*
X148569912Y-91806048D01*
X148569906Y-91806043D01*
X148444383Y-91733572D01*
X148444384Y-91733572D01*
X148432901Y-91730495D01*
X148304370Y-91696055D01*
X148159420Y-91696055D01*
X148030888Y-91730495D01*
X148019406Y-91733572D01*
X147893883Y-91806043D01*
X147893877Y-91806048D01*
X147791388Y-91908537D01*
X147791383Y-91908543D01*
X147718912Y-92034066D01*
X147718911Y-92034070D01*
X147681395Y-92174080D01*
X147681395Y-92319030D01*
X147709544Y-92424082D01*
X147718912Y-92459043D01*
X147791383Y-92584566D01*
X147791385Y-92584568D01*
X147791386Y-92584570D01*
X147893880Y-92687064D01*
X147893881Y-92687065D01*
X147893883Y-92687066D01*
X148019406Y-92759537D01*
X148019407Y-92759537D01*
X148019410Y-92759539D01*
X148159420Y-92797055D01*
X148235351Y-92797055D01*
X148302390Y-92816740D01*
X148323032Y-92833374D01*
X149068219Y-93578561D01*
X149101704Y-93639884D01*
X149096720Y-93709576D01*
X149054848Y-93765509D01*
X148989384Y-93789926D01*
X148980538Y-93790242D01*
X147122362Y-93790242D01*
X147090269Y-93786017D01*
X147048493Y-93774823D01*
X146994486Y-93760352D01*
X146849536Y-93760352D01*
X146721004Y-93794792D01*
X146709522Y-93797869D01*
X146583999Y-93870340D01*
X146583993Y-93870345D01*
X146481504Y-93972834D01*
X146481499Y-93972840D01*
X146409028Y-94098363D01*
X146409027Y-94098367D01*
X146371511Y-94238377D01*
X146371511Y-94383327D01*
X146405330Y-94509539D01*
X146409028Y-94523340D01*
X146481499Y-94648863D01*
X146481501Y-94648865D01*
X146481502Y-94648867D01*
X146583996Y-94751361D01*
X146583997Y-94751362D01*
X146583999Y-94751363D01*
X146709522Y-94823834D01*
X146709523Y-94823834D01*
X146709526Y-94823836D01*
X146849536Y-94861352D01*
X146849539Y-94861352D01*
X146994483Y-94861352D01*
X146994486Y-94861352D01*
X147134496Y-94823836D01*
X147260026Y-94751361D01*
X147362520Y-94648867D01*
X147417730Y-94553241D01*
X147468298Y-94505026D01*
X147525117Y-94491242D01*
X148062477Y-94491242D01*
X148129516Y-94510927D01*
X148175271Y-94563731D01*
X148185215Y-94632889D01*
X148182252Y-94647330D01*
X148176375Y-94669267D01*
X148176375Y-94814217D01*
X148198767Y-94897783D01*
X148213892Y-94954230D01*
X148286363Y-95079753D01*
X148286365Y-95079755D01*
X148286366Y-95079757D01*
X148388860Y-95182251D01*
X148388861Y-95182252D01*
X148388863Y-95182253D01*
X148514386Y-95254724D01*
X148514387Y-95254724D01*
X148514390Y-95254726D01*
X148654400Y-95292242D01*
X148730331Y-95292242D01*
X148797370Y-95311927D01*
X148818012Y-95328561D01*
X150091529Y-96602078D01*
X151323264Y-97833812D01*
X151328138Y-97842739D01*
X151336172Y-97848982D01*
X151344601Y-97872888D01*
X151356749Y-97895135D01*
X151356023Y-97905281D01*
X151359406Y-97914875D01*
X151353573Y-97939542D01*
X151351765Y-97964827D01*
X151345668Y-97972970D01*
X151343328Y-97982870D01*
X151325082Y-98000469D01*
X151309893Y-98020760D01*
X151299023Y-98025606D01*
X151293041Y-98031377D01*
X151259755Y-98043114D01*
X151258794Y-98043305D01*
X151189204Y-98037067D01*
X151146941Y-98009365D01*
X151138788Y-98001212D01*
X151033851Y-97949912D01*
X151033848Y-97949911D01*
X150965820Y-97940000D01*
X150682600Y-97940000D01*
X150682600Y-100139999D01*
X150965818Y-100139999D01*
X151033849Y-100130087D01*
X151138785Y-100078787D01*
X151138789Y-100078785D01*
X151146937Y-100070637D01*
X151208259Y-100037150D01*
X151258812Y-100036698D01*
X151277926Y-100040500D01*
X152227276Y-100040500D01*
X152227277Y-100040499D01*
X152300340Y-100025966D01*
X152383201Y-99970601D01*
X152438566Y-99887740D01*
X152453100Y-99814674D01*
X152453100Y-98563119D01*
X152472785Y-98496080D01*
X152525589Y-98450325D01*
X152594747Y-98440381D01*
X152645989Y-98460016D01*
X152669860Y-98475966D01*
X152669862Y-98475966D01*
X152669864Y-98475967D01*
X152742921Y-98490499D01*
X152742924Y-98490500D01*
X152742926Y-98490500D01*
X154292276Y-98490500D01*
X154292277Y-98490499D01*
X154365340Y-98475966D01*
X154448201Y-98420601D01*
X154503566Y-98337740D01*
X154518100Y-98264674D01*
X154518100Y-97315326D01*
X154518100Y-97315323D01*
X154518099Y-97315321D01*
X154503567Y-97242264D01*
X154503566Y-97242261D01*
X154503566Y-97242260D01*
X154491291Y-97223889D01*
X154470414Y-97157214D01*
X154488898Y-97089834D01*
X154491292Y-97086109D01*
X154503566Y-97067740D01*
X154518100Y-96994674D01*
X154518100Y-96045326D01*
X154518100Y-96045323D01*
X154518099Y-96045321D01*
X154503567Y-95972264D01*
X154503566Y-95972261D01*
X154503566Y-95972260D01*
X154491291Y-95953889D01*
X154470414Y-95887214D01*
X154488898Y-95819834D01*
X154491292Y-95816109D01*
X154503566Y-95797740D01*
X154518100Y-95724674D01*
X154518100Y-94775326D01*
X154518100Y-94775323D01*
X154518099Y-94775321D01*
X154503567Y-94702264D01*
X154503566Y-94702261D01*
X154503566Y-94702260D01*
X154491291Y-94683889D01*
X154470414Y-94617214D01*
X154488898Y-94549834D01*
X154491292Y-94546109D01*
X154503566Y-94527740D01*
X154518100Y-94454674D01*
X154518100Y-93505326D01*
X154518100Y-93505323D01*
X154518099Y-93505321D01*
X154503567Y-93432264D01*
X154503566Y-93432261D01*
X154503566Y-93432260D01*
X154491291Y-93413889D01*
X154470414Y-93347214D01*
X154488898Y-93279834D01*
X154491292Y-93276109D01*
X154503566Y-93257740D01*
X154518100Y-93184674D01*
X154518100Y-92235326D01*
X154518100Y-92235323D01*
X154518099Y-92235321D01*
X154503567Y-92162264D01*
X154503566Y-92162261D01*
X154503566Y-92162260D01*
X154491291Y-92143889D01*
X154470414Y-92077214D01*
X154488898Y-92009834D01*
X154491292Y-92006109D01*
X154503566Y-91987740D01*
X154518100Y-91914674D01*
X154518100Y-90965326D01*
X154518100Y-90965323D01*
X154518099Y-90965321D01*
X154503567Y-90892264D01*
X154503566Y-90892261D01*
X154503566Y-90892260D01*
X154491291Y-90873889D01*
X154470414Y-90807214D01*
X154488898Y-90739834D01*
X154491292Y-90736109D01*
X154503566Y-90717740D01*
X154518100Y-90644674D01*
X154518100Y-89695326D01*
X154518100Y-89695323D01*
X154518099Y-89695321D01*
X154503567Y-89622264D01*
X154503566Y-89622261D01*
X154503566Y-89622260D01*
X154491291Y-89603889D01*
X154470414Y-89537214D01*
X154488898Y-89469834D01*
X154491292Y-89466109D01*
X154503566Y-89447740D01*
X154518100Y-89374674D01*
X154518100Y-88425326D01*
X154518100Y-88425323D01*
X154518099Y-88425321D01*
X154503567Y-88352264D01*
X154503566Y-88352261D01*
X154503566Y-88352260D01*
X154491291Y-88333889D01*
X154470414Y-88267214D01*
X154488898Y-88199834D01*
X154491292Y-88196109D01*
X154503566Y-88177740D01*
X154518100Y-88104674D01*
X154518100Y-87155326D01*
X154518100Y-87155323D01*
X154518099Y-87155321D01*
X154503567Y-87082264D01*
X154503566Y-87082261D01*
X154503566Y-87082260D01*
X154491291Y-87063889D01*
X154470414Y-86997214D01*
X154488898Y-86929834D01*
X154491292Y-86926109D01*
X154503566Y-86907740D01*
X154518100Y-86834674D01*
X154518100Y-85885326D01*
X154518100Y-85885323D01*
X154518099Y-85885321D01*
X154503567Y-85812264D01*
X154503566Y-85812261D01*
X154503566Y-85812260D01*
X154491291Y-85793889D01*
X154470414Y-85727214D01*
X154488898Y-85659834D01*
X154491292Y-85656109D01*
X154503566Y-85637740D01*
X154518100Y-85564674D01*
X154518100Y-84615326D01*
X154518100Y-84615323D01*
X154518099Y-84615321D01*
X154503567Y-84542264D01*
X154503566Y-84542261D01*
X154503566Y-84542260D01*
X154491291Y-84523889D01*
X154470414Y-84457214D01*
X154488898Y-84389834D01*
X154491292Y-84386109D01*
X154496028Y-84379021D01*
X154503566Y-84367740D01*
X154518100Y-84294674D01*
X154518100Y-83345326D01*
X154518100Y-83345323D01*
X154518099Y-83345321D01*
X154503567Y-83272264D01*
X154503566Y-83272261D01*
X154503566Y-83272260D01*
X154491291Y-83253889D01*
X154470414Y-83187214D01*
X154473115Y-83159165D01*
X154478072Y-83135894D01*
X154503566Y-83097740D01*
X154518100Y-83024674D01*
X154518100Y-82947993D01*
X154520821Y-82935220D01*
X154531473Y-82915510D01*
X154537785Y-82894016D01*
X154547763Y-82885369D01*
X154554042Y-82873753D01*
X154573658Y-82862931D01*
X154590589Y-82848261D01*
X154606544Y-82844790D01*
X154615220Y-82840004D01*
X154625400Y-82840687D01*
X154642100Y-82837055D01*
X154998782Y-82837055D01*
X155065821Y-82856740D01*
X155086463Y-82873374D01*
X155159498Y-82946409D01*
X155159500Y-82946410D01*
X155159504Y-82946414D01*
X155269720Y-83002572D01*
X155269721Y-83002572D01*
X155269723Y-83002573D01*
X155304842Y-83008134D01*
X155361160Y-83017055D01*
X155762629Y-83017054D01*
X155762634Y-83017054D01*
X155762634Y-83017053D01*
X155808349Y-83009813D01*
X155854065Y-83002573D01*
X155854066Y-83002573D01*
X155854067Y-83002572D01*
X155854070Y-83002572D01*
X155964286Y-82946414D01*
X156051754Y-82858946D01*
X156107912Y-82748730D01*
X156107912Y-82748728D01*
X156107913Y-82748727D01*
X156107913Y-82748726D01*
X156111796Y-82724205D01*
X156122395Y-82657290D01*
X156122394Y-82315821D01*
X156122394Y-82315815D01*
X156107913Y-82224384D01*
X156107913Y-82224383D01*
X156107912Y-82224381D01*
X156107912Y-82224380D01*
X156069451Y-82148897D01*
X156056556Y-82080231D01*
X156080671Y-82018293D01*
X156166379Y-81903802D01*
X156215621Y-81771784D01*
X156220483Y-81726555D01*
X154903307Y-81726555D01*
X154908168Y-81771784D01*
X154957410Y-81903802D01*
X154982819Y-81937744D01*
X154987526Y-81950366D01*
X154996346Y-81960544D01*
X154999497Y-81982459D01*
X155007236Y-82003208D01*
X155004373Y-82016369D01*
X155006290Y-82029702D01*
X154997091Y-82049843D01*
X154992385Y-82071481D01*
X154982860Y-82081005D01*
X154977265Y-82093258D01*
X154958635Y-82105230D01*
X154942979Y-82120887D01*
X154928537Y-82124573D01*
X154918487Y-82131032D01*
X154883552Y-82136055D01*
X154654581Y-82136055D01*
X154587542Y-82116370D01*
X154541787Y-82063566D01*
X154531843Y-81994408D01*
X154553667Y-81939996D01*
X154556387Y-81936185D01*
X154607688Y-81831247D01*
X154617600Y-81763219D01*
X154617600Y-81480000D01*
X152417601Y-81480000D01*
X152417601Y-81763217D01*
X152427512Y-81831249D01*
X152478815Y-81936191D01*
X152486965Y-81944341D01*
X152489107Y-81948264D01*
X152492874Y-81950677D01*
X152505703Y-81978658D01*
X152520450Y-82005664D01*
X152520654Y-82011264D01*
X152521995Y-82014189D01*
X152521480Y-82033934D01*
X152522048Y-82049483D01*
X152521564Y-82052880D01*
X152517100Y-82075326D01*
X152517100Y-82084271D01*
X152515864Y-82092961D01*
X152504885Y-82117098D01*
X152497415Y-82142539D01*
X152490645Y-82148404D01*
X152486936Y-82156561D01*
X152464646Y-82170933D01*
X152444611Y-82188294D01*
X152434214Y-82190555D01*
X152428215Y-82194424D01*
X152416350Y-82194442D01*
X152393100Y-82199500D01*
X151528039Y-82199500D01*
X139882306Y-82199500D01*
X139793162Y-82223386D01*
X139793161Y-82223386D01*
X139793159Y-82223387D01*
X139793156Y-82223388D01*
X139713244Y-82269526D01*
X139713235Y-82269533D01*
X137573032Y-84409736D01*
X137511709Y-84443221D01*
X137485351Y-84446055D01*
X137409420Y-84446055D01*
X137286473Y-84478999D01*
X137269406Y-84483572D01*
X137171152Y-84540300D01*
X137103252Y-84556773D01*
X137037225Y-84533921D01*
X136994034Y-84478999D01*
X136987393Y-84409446D01*
X136999745Y-84379373D01*
X136998893Y-84379021D01*
X137003563Y-84367744D01*
X137003566Y-84367740D01*
X137018100Y-84294674D01*
X137018100Y-83345326D01*
X137018100Y-83345323D01*
X137018099Y-83345321D01*
X137003567Y-83272264D01*
X137003566Y-83272261D01*
X137003566Y-83272260D01*
X136991291Y-83253889D01*
X136970414Y-83187214D01*
X136988898Y-83119834D01*
X136991292Y-83116109D01*
X137003566Y-83097740D01*
X137018100Y-83024674D01*
X137018100Y-82075326D01*
X137014298Y-82056213D01*
X137020524Y-81986624D01*
X137048237Y-81944337D01*
X137056385Y-81936189D01*
X137056387Y-81936185D01*
X137107688Y-81831247D01*
X137117600Y-81763219D01*
X137117600Y-81480000D01*
X134917601Y-81480000D01*
X134917601Y-81763217D01*
X132580500Y-81763217D01*
X132580500Y-81326554D01*
X154903306Y-81326554D01*
X154903307Y-81326555D01*
X155361895Y-81326555D01*
X155761895Y-81326555D01*
X156220483Y-81326555D01*
X156220483Y-81326554D01*
X156215621Y-81281325D01*
X156166379Y-81149307D01*
X156081939Y-81036510D01*
X155969144Y-80952071D01*
X155837119Y-80902828D01*
X155778781Y-80896555D01*
X155761895Y-80896555D01*
X155761895Y-81326555D01*
X155361895Y-81326555D01*
X155361895Y-80896555D01*
X155345008Y-80896555D01*
X155286670Y-80902828D01*
X155154645Y-80952071D01*
X155041850Y-81036510D01*
X154957410Y-81149307D01*
X154908168Y-81281325D01*
X154903306Y-81326554D01*
X132580500Y-81326554D01*
X132580500Y-80796780D01*
X134917600Y-80796780D01*
X134917600Y-81080000D01*
X135817600Y-81080000D01*
X136217600Y-81080000D01*
X137117599Y-81080000D01*
X137117599Y-80796782D01*
X137117599Y-80796780D01*
X152417600Y-80796780D01*
X152417600Y-81080000D01*
X153317600Y-81080000D01*
X153717600Y-81080000D01*
X154617599Y-81080000D01*
X154617599Y-80796782D01*
X154607687Y-80728750D01*
X154556384Y-80623808D01*
X154473788Y-80541212D01*
X154368851Y-80489912D01*
X154368848Y-80489911D01*
X154300820Y-80480000D01*
X153717600Y-80480000D01*
X153717600Y-81080000D01*
X153317600Y-81080000D01*
X153317600Y-80480000D01*
X152734382Y-80480000D01*
X152666350Y-80489912D01*
X152561408Y-80541215D01*
X152478812Y-80623811D01*
X152427512Y-80728748D01*
X152427511Y-80728751D01*
X152417600Y-80796780D01*
X137117599Y-80796780D01*
X137107687Y-80728750D01*
X137056384Y-80623808D01*
X136973788Y-80541212D01*
X136868851Y-80489912D01*
X136868848Y-80489911D01*
X136800820Y-80480000D01*
X136217600Y-80480000D01*
X136217600Y-81080000D01*
X135817600Y-81080000D01*
X135817600Y-80480000D01*
X135234382Y-80480000D01*
X135166350Y-80489912D01*
X135061408Y-80541215D01*
X134978812Y-80623811D01*
X134927512Y-80728748D01*
X134927511Y-80728751D01*
X134917600Y-80796780D01*
X132580500Y-80796780D01*
X132580500Y-79914000D01*
X132600185Y-79846961D01*
X132652989Y-79801206D01*
X132704500Y-79790000D01*
X156855500Y-79790000D01*
X156922539Y-79809685D01*
G37*
%TD.AperFunction*%
%TD*%
M02*
