%TF.GenerationSoftware,KiCad,Pcbnew,9.0.5*%
%TF.CreationDate,2025-11-05T16:55:38-05:00*%
%TF.ProjectId,flight-computer,666c6967-6874-42d6-936f-6d7075746572,rev?*%
%TF.SameCoordinates,Original*%
%TF.FileFunction,Copper,L1,Top*%
%TF.FilePolarity,Positive*%
%FSLAX46Y46*%
G04 Gerber Fmt 4.6, Leading zero omitted, Abs format (unit mm)*
G04 Created by KiCad (PCBNEW 9.0.5) date 2025-11-05 16:55:38*
%MOMM*%
%LPD*%
G01*
G04 APERTURE LIST*
G04 Aperture macros list*
%AMRoundRect*
0 Rectangle with rounded corners*
0 $1 Rounding radius*
0 $2 $3 $4 $5 $6 $7 $8 $9 X,Y pos of 4 corners*
0 Add a 4 corners polygon primitive as box body*
4,1,4,$2,$3,$4,$5,$6,$7,$8,$9,$2,$3,0*
0 Add four circle primitives for the rounded corners*
1,1,$1+$1,$2,$3*
1,1,$1+$1,$4,$5*
1,1,$1+$1,$6,$7*
1,1,$1+$1,$8,$9*
0 Add four rect primitives between the rounded corners*
20,1,$1+$1,$2,$3,$4,$5,0*
20,1,$1+$1,$4,$5,$6,$7,0*
20,1,$1+$1,$6,$7,$8,$9,0*
20,1,$1+$1,$8,$9,$2,$3,0*%
G04 Aperture macros list end*
%TA.AperFunction,SMDPad,CuDef*%
%ADD10RoundRect,0.150000X-0.150000X0.587500X-0.150000X-0.587500X0.150000X-0.587500X0.150000X0.587500X0*%
%TD*%
%TA.AperFunction,ComponentPad*%
%ADD11C,1.524000*%
%TD*%
%TA.AperFunction,SMDPad,CuDef*%
%ADD12RoundRect,0.250000X-1.650000X0.650000X-1.650000X-0.650000X1.650000X-0.650000X1.650000X0.650000X0*%
%TD*%
%TA.AperFunction,SMDPad,CuDef*%
%ADD13RoundRect,0.200000X-1.250000X0.200000X-1.250000X-0.200000X1.250000X-0.200000X1.250000X0.200000X0*%
%TD*%
%TA.AperFunction,SMDPad,CuDef*%
%ADD14RoundRect,0.250000X1.650000X-0.650000X1.650000X0.650000X-1.650000X0.650000X-1.650000X-0.650000X0*%
%TD*%
%TA.AperFunction,SMDPad,CuDef*%
%ADD15RoundRect,0.200000X1.250000X-0.200000X1.250000X0.200000X-1.250000X0.200000X-1.250000X-0.200000X0*%
%TD*%
%TA.AperFunction,HeatsinkPad*%
%ADD16O,1.000000X1.800000*%
%TD*%
%TA.AperFunction,HeatsinkPad*%
%ADD17O,1.000000X2.100000*%
%TD*%
%TA.AperFunction,SMDPad,CuDef*%
%ADD18RoundRect,0.150000X-0.150000X-0.425000X0.150000X-0.425000X0.150000X0.425000X-0.150000X0.425000X0*%
%TD*%
%TA.AperFunction,SMDPad,CuDef*%
%ADD19RoundRect,0.075000X-0.075000X-0.500000X0.075000X-0.500000X0.075000X0.500000X-0.075000X0.500000X0*%
%TD*%
%TA.AperFunction,ComponentPad*%
%ADD20C,3.800000*%
%TD*%
%TA.AperFunction,SMDPad,CuDef*%
%ADD21RoundRect,0.135000X-0.135000X-0.185000X0.135000X-0.185000X0.135000X0.185000X-0.135000X0.185000X0*%
%TD*%
%TA.AperFunction,SMDPad,CuDef*%
%ADD22RoundRect,0.250000X-0.625000X0.312500X-0.625000X-0.312500X0.625000X-0.312500X0.625000X0.312500X0*%
%TD*%
%TA.AperFunction,SMDPad,CuDef*%
%ADD23RoundRect,0.140000X0.140000X0.170000X-0.140000X0.170000X-0.140000X-0.170000X0.140000X-0.170000X0*%
%TD*%
%TA.AperFunction,SMDPad,CuDef*%
%ADD24R,1.536700X0.431800*%
%TD*%
%TA.AperFunction,SMDPad,CuDef*%
%ADD25RoundRect,0.140000X-0.140000X-0.170000X0.140000X-0.170000X0.140000X0.170000X-0.140000X0.170000X0*%
%TD*%
%TA.AperFunction,SMDPad,CuDef*%
%ADD26RoundRect,0.250000X0.625000X-0.312500X0.625000X0.312500X-0.625000X0.312500X-0.625000X-0.312500X0*%
%TD*%
%TA.AperFunction,SMDPad,CuDef*%
%ADD27R,0.351536X0.576580*%
%TD*%
%TA.AperFunction,SMDPad,CuDef*%
%ADD28R,0.576580X0.351536*%
%TD*%
%TA.AperFunction,SMDPad,CuDef*%
%ADD29RoundRect,0.250000X0.500000X-0.275000X0.500000X0.275000X-0.500000X0.275000X-0.500000X-0.275000X0*%
%TD*%
%TA.AperFunction,SMDPad,CuDef*%
%ADD30RoundRect,0.250000X0.500000X-0.950000X0.500000X0.950000X-0.500000X0.950000X-0.500000X-0.950000X0*%
%TD*%
%TA.AperFunction,SMDPad,CuDef*%
%ADD31RoundRect,0.140000X-0.170000X0.140000X-0.170000X-0.140000X0.170000X-0.140000X0.170000X0.140000X0*%
%TD*%
%TA.AperFunction,SMDPad,CuDef*%
%ADD32RoundRect,0.250000X0.650000X-0.325000X0.650000X0.325000X-0.650000X0.325000X-0.650000X-0.325000X0*%
%TD*%
%TA.AperFunction,SMDPad,CuDef*%
%ADD33R,4.597400X1.295400*%
%TD*%
%TA.AperFunction,SMDPad,CuDef*%
%ADD34RoundRect,0.140000X0.170000X-0.140000X0.170000X0.140000X-0.170000X0.140000X-0.170000X-0.140000X0*%
%TD*%
%TA.AperFunction,SMDPad,CuDef*%
%ADD35RoundRect,0.135000X0.135000X0.185000X-0.135000X0.185000X-0.135000X-0.185000X0.135000X-0.185000X0*%
%TD*%
%TA.AperFunction,HeatsinkPad*%
%ADD36C,0.600000*%
%TD*%
%TA.AperFunction,SMDPad,CuDef*%
%ADD37RoundRect,0.150000X-0.512500X-0.150000X0.512500X-0.150000X0.512500X0.150000X-0.512500X0.150000X0*%
%TD*%
%TA.AperFunction,ViaPad*%
%ADD38C,0.600000*%
%TD*%
%TA.AperFunction,Conductor*%
%ADD39C,0.200000*%
%TD*%
%TA.AperFunction,Conductor*%
%ADD40C,1.000000*%
%TD*%
%TA.AperFunction,Conductor*%
%ADD41C,0.350000*%
%TD*%
%TA.AperFunction,Conductor*%
%ADD42C,0.300000*%
%TD*%
G04 APERTURE END LIST*
D10*
%TO.P,Q1,3,D*%
%TO.N,Net-(Q1-D)*%
X148531895Y-104121555D03*
%TO.P,Q1,2,S*%
%TO.N,GND*%
X147581895Y-102246555D03*
%TO.P,Q1,1,G*%
%TO.N,Remote Start 1*%
X149481895Y-102246555D03*
%TD*%
D11*
%TO.P,J6,2,Pin_2*%
%TO.N,Net-(J6-Pin_2)*%
X154281895Y-111071655D03*
%TO.P,J6,1,Pin_1*%
%TO.N,Net-(J6-Pin_1)*%
X154281895Y-113611655D03*
%TD*%
%TO.P,J3,2,Pin_2*%
%TO.N,VBUS*%
X136106895Y-111111555D03*
%TO.P,J3,1,Pin_1*%
%TO.N,GND*%
X136106895Y-108571555D03*
%TD*%
D12*
%TO.P,J1,MP*%
%TO.N,N/C*%
X134781895Y-97646555D03*
X134781895Y-84946555D03*
D13*
%TO.P,J1,6,Pin_6*%
%TO.N,Net-(J1-Pin_6)*%
X139481895Y-95046555D03*
%TO.P,J1,5,Pin_5*%
%TO.N,Net-(J1-Pin_5)*%
X139481895Y-93546555D03*
%TO.P,J1,4,Pin_4*%
%TO.N,Net-(J1-Pin_4)*%
X139481895Y-92046555D03*
%TO.P,J1,3,Pin_3*%
%TO.N,FIN_DRDY*%
X139481895Y-90546555D03*
%TO.P,J1,2,Pin_2*%
%TO.N,GND*%
X139481895Y-89046555D03*
%TO.P,J1,1,Pin_1*%
%TO.N,+3.3V*%
X139481895Y-87546555D03*
%TD*%
D14*
%TO.P,J2,MP*%
%TO.N,N/C*%
X154781895Y-82146555D03*
X154781895Y-94846555D03*
D15*
%TO.P,J2,6,Pin_6*%
%TO.N,Net-(J2-Pin_6)*%
X150081895Y-84746555D03*
%TO.P,J2,5,Pin_5*%
%TO.N,Net-(J2-Pin_5)*%
X150081895Y-86246555D03*
%TO.P,J2,4,Pin_4*%
%TO.N,Net-(J2-Pin_4)*%
X150081895Y-87746555D03*
%TO.P,J2,3,Pin_3*%
%TO.N,Net-(J2-Pin_3)*%
X150081895Y-89246555D03*
%TO.P,J2,2,Pin_2*%
%TO.N,Net-(J2-Pin_2)*%
X150081895Y-90746555D03*
%TO.P,J2,1,Pin_1*%
%TO.N,FIN_RST*%
X150081895Y-92246555D03*
%TD*%
D16*
%TO.P,J5,S1,SHIELD*%
%TO.N,unconnected-(J5-SHIELD-PadS1)_3*%
X148981895Y-127321555D03*
D17*
%TO.N,unconnected-(J5-SHIELD-PadS1)_2*%
X148981895Y-123141555D03*
D16*
%TO.N,unconnected-(J5-SHIELD-PadS1)_1*%
X140341895Y-127321555D03*
D17*
%TO.N,unconnected-(J5-SHIELD-PadS1)*%
X140341895Y-123141555D03*
D18*
%TO.P,J5,B12,GND*%
%TO.N,GND*%
X141461895Y-122566555D03*
%TO.P,J5,B9,VBUS*%
%TO.N,Net-(D1-A)*%
X142261895Y-122566555D03*
D19*
%TO.P,J5,B8,SBU2*%
%TO.N,unconnected-(J5-SBU2-PadB8)*%
X142911895Y-122566555D03*
%TO.P,J5,B7,D-*%
%TO.N,USB_D-*%
X143911895Y-122566555D03*
%TO.P,J5,B6,D+*%
%TO.N,USB_D+*%
X145411895Y-122566555D03*
%TO.P,J5,B5,CC2*%
%TO.N,Net-(J5-CC2)*%
X146411895Y-122566555D03*
D18*
%TO.P,J5,B4,VBUS*%
%TO.N,Net-(D1-A)*%
X147061895Y-122566555D03*
%TO.P,J5,B1,GND*%
%TO.N,GND*%
X147861895Y-122566555D03*
%TO.P,J5,A12,GND*%
X147861895Y-122566555D03*
%TO.P,J5,A9,VBUS*%
%TO.N,Net-(D1-A)*%
X147061895Y-122566555D03*
D19*
%TO.P,J5,A8,SBU1*%
%TO.N,unconnected-(J5-SBU1-PadA8)*%
X145911895Y-122566555D03*
%TO.P,J5,A7,D-*%
%TO.N,USB_D-*%
X144911895Y-122566555D03*
%TO.P,J5,A6,D+*%
%TO.N,USB_D+*%
X144411895Y-122566555D03*
%TO.P,J5,A5,CC1*%
%TO.N,Net-(J5-CC1)*%
X143411895Y-122566555D03*
D18*
%TO.P,J5,A4,VBUS*%
%TO.N,Net-(D1-A)*%
X142261895Y-122566555D03*
%TO.P,J5,A1,GND*%
%TO.N,GND*%
X141461895Y-122566555D03*
%TD*%
D20*
%TO.P,H2,1,1*%
%TO.N,GND*%
X153982000Y-103200000D03*
%TD*%
D21*
%TO.P,R3,2*%
%TO.N,GND*%
X148836895Y-114901555D03*
%TO.P,R3,1*%
%TO.N,Net-(U1-FB)*%
X147816895Y-114901555D03*
%TD*%
D22*
%TO.P,R10,2*%
%TO.N,Net-(J6-Pin_2)*%
X150981895Y-108009055D03*
%TO.P,R10,1*%
%TO.N,Net-(Q1-D)*%
X150981895Y-105084055D03*
%TD*%
D23*
%TO.P,C7,2*%
%TO.N,GND*%
X143201895Y-86846555D03*
%TO.P,C7,1*%
%TO.N,+3.3V*%
X144161895Y-86846555D03*
%TD*%
D20*
%TO.P,H4,1,1*%
%TO.N,GND*%
X153982000Y-126450000D03*
%TD*%
D24*
%TO.P,U4,8,VS*%
%TO.N,+3.3V*%
X147499645Y-97171556D03*
%TO.P,U4,7,OUT2*%
%TO.N,IMP_OUT2*%
X147499645Y-97821554D03*
%TO.P,U4,6,IN-2*%
%TO.N,Net-(Q1-D)*%
X147499645Y-98471556D03*
%TO.P,U4,5,IN+2*%
%TO.N,Net-(J6-Pin_2)*%
X147499645Y-99121554D03*
%TO.P,U4,4,GND*%
%TO.N,GND*%
X142864145Y-99121554D03*
%TO.P,U4,3,IN+1*%
%TO.N,Net-(J6-Pin_1)*%
X142864145Y-98471556D03*
%TO.P,U4,2,IN-1*%
%TO.N,Net-(Q2-D)*%
X142864145Y-97821554D03*
%TO.P,U4,1,OUT1*%
%TO.N,IMP_OUT1*%
X142864145Y-97171556D03*
%TD*%
D25*
%TO.P,C9,2*%
%TO.N,+3.3V*%
X147481895Y-95346555D03*
%TO.P,C9,1*%
%TO.N,GND*%
X146521895Y-95346555D03*
%TD*%
D23*
%TO.P,C4,2*%
%TO.N,Net-(U1-SW)*%
X145096895Y-113151555D03*
%TO.P,C4,1*%
%TO.N,Net-(U1-CB)*%
X146056895Y-113151555D03*
%TD*%
D20*
%TO.P,H1,1,1*%
%TO.N,GND*%
X135582000Y-103200000D03*
%TD*%
D26*
%TO.P,R9,2*%
%TO.N,Net-(Q2-D)*%
X148381895Y-106084055D03*
%TO.P,R9,1*%
%TO.N,Net-(J6-Pin_1)*%
X148381895Y-109009055D03*
%TD*%
D27*
%TO.P,U3,14,SDA*%
%TO.N,LSM_MOSI*%
X144267601Y-83183955D03*
%TO.P,U3,13,SCL*%
%TO.N,LSM_SCK*%
X144767600Y-83183955D03*
%TO.P,U3,12,CS*%
%TO.N,LSM_CS*%
X145267599Y-83183955D03*
D28*
%TO.P,U3,11,NC*%
%TO.N,unconnected-(U3-NC-Pad11)*%
X145977900Y-83390254D03*
%TO.P,U3,10,NC*%
%TO.N,unconnected-(U3-NC-Pad10)*%
X145977900Y-83890255D03*
%TO.P,U3,9,INT2*%
%TO.N,LSM_INT2*%
X145977900Y-84390255D03*
%TO.P,U3,8,VDD*%
%TO.N,+3.3V*%
X145977900Y-84890256D03*
D27*
%TO.P,U3,7,GND*%
%TO.N,GND*%
X145267599Y-85096555D03*
%TO.P,U3,6,GND*%
X144767600Y-85096555D03*
%TO.P,U3,5,VDDIO*%
%TO.N,+3.3V*%
X144267601Y-85096555D03*
D28*
%TO.P,U3,4,INT1*%
%TO.N,LSM_INT1*%
X143557300Y-84890256D03*
%TO.P,U3,3,SCx*%
%TO.N,GND*%
X143557300Y-84390255D03*
%TO.P,U3,2,SDx*%
X143557300Y-83890255D03*
%TO.P,U3,1,SDO/SA0*%
%TO.N,LSM_MISO*%
X143557300Y-83390254D03*
%TD*%
D29*
%TO.P,D1,2,A*%
%TO.N,Net-(D1-A)*%
X137231895Y-122371555D03*
D30*
%TO.P,D1,1,K*%
%TO.N,VBUS*%
X137231895Y-119996555D03*
%TD*%
D31*
%TO.P,C8,2*%
%TO.N,GND*%
X147281895Y-86073110D03*
%TO.P,C8,1*%
%TO.N,+3.3V*%
X147281895Y-85113110D03*
%TD*%
D20*
%TO.P,H3,1,1*%
%TO.N,GND*%
X135582000Y-126450000D03*
%TD*%
D32*
%TO.P,C1,2*%
%TO.N,GND*%
X138076895Y-114176555D03*
%TO.P,C1,1*%
%TO.N,VBUS*%
X138076895Y-117126555D03*
%TD*%
D33*
%TO.P,L1,2,2*%
%TO.N,+3.3V*%
X143731895Y-107444255D03*
%TO.P,L1,1,1*%
%TO.N,Net-(U1-SW)*%
X143731895Y-111048855D03*
%TD*%
D34*
%TO.P,C2,2*%
%TO.N,GND*%
X141326895Y-115651555D03*
%TO.P,C2,1*%
%TO.N,VBUS*%
X141326895Y-116611555D03*
%TD*%
D23*
%TO.P,C6,2*%
%TO.N,GND*%
X142247129Y-104551234D03*
%TO.P,C6,1*%
%TO.N,+3.3V*%
X143207129Y-104551234D03*
%TD*%
D35*
%TO.P,R2,2*%
%TO.N,Net-(U1-FB)*%
X147816895Y-116651555D03*
%TO.P,R2,1*%
%TO.N,+3.3V*%
X148836895Y-116651555D03*
%TD*%
D36*
%TO.P,U2,41,GND*%
%TO.N,GND*%
X144867600Y-88300000D03*
X144867600Y-89700000D03*
X145567600Y-87600000D03*
X145567600Y-89000000D03*
X145567600Y-90400000D03*
X146267600Y-88300000D03*
X146267600Y-89700000D03*
X146967600Y-87600000D03*
X146967600Y-89000000D03*
X146967600Y-90400000D03*
X147667600Y-88300000D03*
X147667600Y-89700000D03*
%TD*%
D10*
%TO.P,Q2,3,D*%
%TO.N,Net-(Q2-D)*%
X145031895Y-104121555D03*
%TO.P,Q2,2,S*%
%TO.N,GND*%
X144081895Y-102246555D03*
%TO.P,Q2,1,G*%
%TO.N,Remote Start 2*%
X145981895Y-102246555D03*
%TD*%
D37*
%TO.P,U1,6,CB*%
%TO.N,Net-(U1-CB)*%
X145495000Y-114705000D03*
%TO.P,U1,5,EN*%
%TO.N,VBUS*%
X145495000Y-115655000D03*
%TO.P,U1,4,FB*%
%TO.N,Net-(U1-FB)*%
X145495000Y-116605000D03*
%TO.P,U1,3,VIN*%
%TO.N,VBUS*%
X143220000Y-116605000D03*
%TO.P,U1,2,SW*%
%TO.N,Net-(U1-SW)*%
X143220000Y-115655000D03*
%TO.P,U1,1,GND*%
%TO.N,GND*%
X143220000Y-114705000D03*
%TD*%
D38*
%TO.N,GND*%
X134481895Y-90946555D03*
X144781895Y-97346555D03*
X148481895Y-81446555D03*
%TO.N,+3.3V*%
X148981895Y-83746555D03*
%TO.N,GND*%
X148181895Y-82746555D03*
%TO.N,+3.3V*%
X148881895Y-118646555D03*
%TO.N,GND*%
X142981895Y-109746555D03*
%TO.N,+3.3V*%
X143256895Y-105246555D03*
%TO.N,GND*%
X142981895Y-102246555D03*
X144981895Y-109746555D03*
X137981895Y-85246555D03*
X152250362Y-90043964D03*
X152223613Y-85524835D03*
X152250801Y-87060929D03*
X152250801Y-88556242D03*
X141481895Y-105246555D03*
%TO.N,+3.3V*%
X144267601Y-85746555D03*
%TO.N,GND*%
X147231895Y-107746555D03*
X147081895Y-104146555D03*
X155201895Y-80446555D03*
X148731895Y-113996555D03*
X144999494Y-86343110D03*
X147231895Y-113996555D03*
X141481895Y-101246555D03*
X148231895Y-121246555D03*
X141481895Y-121246555D03*
X156181895Y-84226555D03*
%TO.N,+3.3V*%
X156161895Y-80446555D03*
X139331895Y-86146555D03*
X148481895Y-95846555D03*
X144181895Y-118246555D03*
X148981895Y-97146555D03*
%TO.N,USB_D-*%
X150931374Y-100946034D03*
X143736895Y-120746555D03*
X153517600Y-96520000D03*
%TO.N,USB_D+*%
X151532416Y-101547076D03*
X144586895Y-120746555D03*
X153517600Y-97790000D03*
%TO.N,Net-(J5-CC2)*%
X146231895Y-123746555D03*
%TO.N,Remote Start 1*%
X149481895Y-100746555D03*
%TO.N,Remote Start 2*%
X147981895Y-100496555D03*
%TO.N,Net-(J5-CC1)*%
X143481895Y-123746555D03*
%TO.N,Net-(J1-Pin_6)*%
X133281895Y-93446555D03*
%TO.N,LSM_CS*%
X151381895Y-83546555D03*
%TO.N,LSM_MISO*%
X140781895Y-83446555D03*
%TO.N,LSM_INT2*%
X151681895Y-99046555D03*
X147481895Y-83946555D03*
X146781895Y-92446555D03*
%TO.N,LSM_INT1*%
X142281895Y-84846555D03*
%TO.N,LSM_MOSI*%
X139881895Y-83446555D03*
%TO.N,FIN_DRDY*%
X137381895Y-90546555D03*
%TO.N,FIN_RST*%
X152181895Y-92046555D03*
%TO.N,LSM_SCK*%
X152093410Y-83783727D03*
%TO.N,Net-(J1-Pin_4)*%
X133381895Y-87746555D03*
%TO.N,Net-(J2-Pin_2)*%
X156181895Y-92146555D03*
%TO.N,IMP_OUT1*%
X138081895Y-82546555D03*
%TO.N,IMP_OUT2*%
X138681895Y-83089449D03*
%TO.N,Net-(J1-Pin_5)*%
X133381895Y-91046555D03*
%TO.N,Net-(J2-Pin_6)*%
X156081895Y-85446555D03*
%TO.N,Net-(J2-Pin_4)*%
X156181895Y-88346555D03*
%TO.N,Net-(J2-Pin_3)*%
X156181895Y-89746555D03*
%TO.N,Net-(J2-Pin_5)*%
X156081895Y-86846555D03*
%TD*%
D39*
%TO.N,LSM_CS*%
X145267599Y-83183955D02*
X146453999Y-81997555D01*
X146453999Y-81997555D02*
X149832895Y-81997555D01*
X149832895Y-81997555D02*
X151381895Y-83546555D01*
%TO.N,LSM_SCK*%
X144767600Y-83183955D02*
X144767600Y-81060850D01*
X144767600Y-81060850D02*
X145081895Y-80746555D01*
X151081895Y-80746555D02*
X145081895Y-80746555D01*
X152093410Y-83783727D02*
X152093410Y-83522367D01*
X152093410Y-83522367D02*
X151981895Y-83410852D01*
X151981895Y-83410852D02*
X151981895Y-81646555D01*
X151981895Y-81646555D02*
X151081895Y-80746555D01*
%TO.N,+3.3V*%
X147615340Y-85113110D02*
X148981895Y-83746555D01*
X147281895Y-85113110D02*
X147615340Y-85113110D01*
X148836895Y-118601555D02*
X148881895Y-118646555D01*
X148836895Y-116651555D02*
X148836895Y-118601555D01*
%TO.N,Net-(J6-Pin_2)*%
X147499645Y-99121554D02*
X148784126Y-99121554D01*
X152469345Y-104734005D02*
X152469345Y-109259105D01*
X148784126Y-99121554D02*
X150380374Y-100717802D01*
X150380374Y-100717802D02*
X150380374Y-102645034D01*
X150380374Y-102645034D02*
X152469345Y-104734005D01*
%TO.N,+3.3V*%
X144267601Y-85746555D02*
X144267601Y-86740849D01*
D40*
%TO.N,Net-(J6-Pin_2)*%
X152469345Y-109259105D02*
X154281895Y-111071655D01*
X150981895Y-108009055D02*
X151219295Y-108009055D01*
X151219295Y-108009055D02*
X152469345Y-109259105D01*
D41*
%TO.N,VBUS*%
X144973450Y-115655000D02*
X144023450Y-116605000D01*
X138076895Y-117126555D02*
X136106895Y-115156555D01*
X143213445Y-116611555D02*
X143220000Y-116605000D01*
X138076895Y-117126555D02*
X140811895Y-117126555D01*
X145495000Y-115655000D02*
X144973450Y-115655000D01*
X137231895Y-117971555D02*
X138076895Y-117126555D01*
X140811895Y-117126555D02*
X141326895Y-116611555D01*
X144023450Y-116605000D02*
X143220000Y-116605000D01*
X137231895Y-119996555D02*
X137231895Y-117971555D01*
X136106895Y-115156555D02*
X136106895Y-111111555D01*
X141326895Y-116611555D02*
X143213445Y-116611555D01*
D39*
%TO.N,GND*%
X147861895Y-121616555D02*
X148231895Y-121246555D01*
X147861895Y-122566555D02*
X147861895Y-121616555D01*
X141461895Y-121266555D02*
X141481895Y-121246555D01*
X148836895Y-114901555D02*
X148836895Y-114101555D01*
X141461895Y-122566555D02*
X141461895Y-121266555D01*
X148836895Y-114101555D02*
X148731895Y-113996555D01*
%TO.N,Net-(U1-CB)*%
X145495000Y-113713450D02*
X146056895Y-113151555D01*
X145495000Y-114705000D02*
X145495000Y-113713450D01*
%TO.N,Net-(U1-SW)*%
X144531500Y-113716950D02*
X145096895Y-113151555D01*
X145096895Y-112266555D02*
X145096895Y-113151555D01*
X143882499Y-115655000D02*
X144531500Y-115005999D01*
X143731895Y-110901555D02*
X145096895Y-112266555D01*
X143220000Y-115655000D02*
X143882499Y-115655000D01*
X144531500Y-115005999D02*
X144531500Y-113716950D01*
%TO.N,+3.3V*%
X147481895Y-95346555D02*
X147981895Y-95846555D01*
X146159199Y-85071555D02*
X145977900Y-84890256D01*
X145227726Y-86894110D02*
X145977900Y-86143936D01*
X145977900Y-86143936D02*
X145977900Y-84890256D01*
X144267601Y-85096555D02*
X144267601Y-85746555D01*
X144161895Y-86846555D02*
X144209450Y-86894110D01*
X147499645Y-97171556D02*
X148956894Y-97171556D01*
X139481895Y-86296555D02*
X139331895Y-86146555D01*
X148956894Y-97171556D02*
X148981895Y-97146555D01*
X147059041Y-84890256D02*
X147281895Y-85113110D01*
X144267601Y-86740849D02*
X144161895Y-86846555D01*
X144209450Y-86894110D02*
X145227726Y-86894110D01*
X147981895Y-95846555D02*
X148481895Y-95846555D01*
X145977900Y-84890256D02*
X147059041Y-84890256D01*
X139481895Y-87546555D02*
X139481895Y-86296555D01*
D42*
%TO.N,Net-(D1-A)*%
X139507895Y-120095555D02*
X142481895Y-120095555D01*
X147061895Y-122566555D02*
X147061895Y-121991556D01*
X142481895Y-120095555D02*
X143467241Y-120095555D01*
X142261895Y-120315555D02*
X142481895Y-120095555D01*
X145165894Y-120095555D02*
X143467241Y-120095555D01*
X142261895Y-122566555D02*
X142261895Y-120315555D01*
X137231895Y-122371555D02*
X139507895Y-120095555D01*
X147061895Y-121991556D02*
X145165894Y-120095555D01*
D39*
%TO.N,USB_D-*%
X153067600Y-96970000D02*
X153517600Y-96520000D01*
X144911895Y-123175379D02*
X144644719Y-123442555D01*
X150931374Y-100946034D02*
X151214217Y-100946034D01*
X144644719Y-123442555D02*
X144179071Y-123442555D01*
X143936894Y-122541556D02*
X143936894Y-120946554D01*
X144911895Y-122566555D02*
X144911895Y-123175379D01*
X143936894Y-120946554D02*
X143736895Y-120746555D01*
X143911895Y-122566555D02*
X143936894Y-122541556D01*
X151214217Y-100946034D02*
X153067600Y-99092651D01*
X144179071Y-123442555D02*
X143911895Y-123175379D01*
X153067600Y-99092651D02*
X153067600Y-96970000D01*
X143911895Y-123175379D02*
X143911895Y-122566555D01*
%TO.N,USB_D+*%
X151532416Y-101264233D02*
X153517600Y-99279049D01*
X144411895Y-121957731D02*
X144679071Y-121690555D01*
X144411895Y-122566555D02*
X144386896Y-122541556D01*
X144386896Y-120946554D02*
X144586895Y-120746555D01*
X145144719Y-121690555D02*
X145411895Y-121957731D01*
X144411895Y-122566555D02*
X144411895Y-121957731D01*
X145411895Y-121957731D02*
X145411895Y-122566555D01*
X144679071Y-121690555D02*
X145144719Y-121690555D01*
X153517600Y-99279049D02*
X153517600Y-97790000D01*
X144386896Y-122541556D02*
X144386896Y-120946554D01*
X151532416Y-101547076D02*
X151532416Y-101264233D01*
%TO.N,Net-(J5-CC2)*%
X146411895Y-123566555D02*
X146231895Y-123746555D01*
X146411895Y-122566555D02*
X146411895Y-123566555D01*
%TO.N,Remote Start 1*%
X149481895Y-102246555D02*
X149481895Y-100746555D01*
%TO.N,Remote Start 2*%
X147731895Y-100496555D02*
X147981895Y-100496555D01*
X145981895Y-102246555D02*
X147731895Y-100496555D01*
%TO.N,Net-(U1-FB)*%
X145495000Y-116605000D02*
X147770340Y-116605000D01*
X147816895Y-114901555D02*
X147816895Y-116651555D01*
X147770340Y-116605000D02*
X147816895Y-116651555D01*
%TO.N,Net-(J5-CC1)*%
X143411895Y-122566555D02*
X143411895Y-123676555D01*
X143411895Y-123676555D02*
X143481895Y-123746555D01*
%TO.N,Net-(J1-Pin_6)*%
X139481895Y-95046555D02*
X134881895Y-95046555D01*
X134881895Y-95046555D02*
X133281895Y-93446555D01*
%TO.N,LSM_MISO*%
X140838196Y-83390254D02*
X140781895Y-83446555D01*
X143557300Y-83390254D02*
X140838196Y-83390254D01*
%TO.N,LSM_INT2*%
X146781895Y-92446555D02*
X151681895Y-97346555D01*
X151681895Y-97346555D02*
X151681895Y-99046555D01*
X145977900Y-84390255D02*
X147038195Y-84390255D01*
X147038195Y-84390255D02*
X147481895Y-83946555D01*
%TO.N,LSM_INT1*%
X143557300Y-84890256D02*
X142325596Y-84890256D01*
X142325596Y-84890256D02*
X142281895Y-84846555D01*
%TO.N,LSM_MOSI*%
X144267601Y-83183955D02*
X144267601Y-82432261D01*
X144081895Y-82246555D02*
X141081895Y-82246555D01*
X139881895Y-83446555D02*
X139781895Y-83546555D01*
X141081895Y-82246555D02*
X139881895Y-83446555D01*
X144267601Y-82432261D02*
X144081895Y-82246555D01*
%TO.N,FIN_DRDY*%
X137381895Y-90546555D02*
X139481895Y-90546555D01*
%TO.N,FIN_RST*%
X151981895Y-92246555D02*
X150081895Y-92246555D01*
X152181895Y-92046555D02*
X151981895Y-92246555D01*
%TO.N,Net-(J6-Pin_2)*%
X154056895Y-111071555D02*
X153981895Y-111146555D01*
%TO.N,Net-(J6-Pin_1)*%
X141895795Y-98471556D02*
X140730895Y-99636456D01*
X140730895Y-107891655D02*
X141848295Y-109009055D01*
X142864145Y-98471556D02*
X141895795Y-98471556D01*
X140730895Y-99636456D02*
X140730895Y-107891655D01*
D40*
X151246995Y-113611655D02*
X154281895Y-113611655D01*
X148381895Y-110746555D02*
X151246995Y-113611655D01*
D39*
X141848295Y-109009055D02*
X148381895Y-109009055D01*
D40*
X148381895Y-109009055D02*
X148381895Y-110746555D01*
D39*
%TO.N,Net-(J1-Pin_4)*%
X139481895Y-92046555D02*
X137681895Y-92046555D01*
X137681895Y-92046555D02*
X133381895Y-87746555D01*
%TO.N,Net-(J2-Pin_2)*%
X150081895Y-90746555D02*
X154781895Y-90746555D01*
X154781895Y-90746555D02*
X156181895Y-92146555D01*
%TO.N,IMP_OUT1*%
X142864145Y-88299515D02*
X138081895Y-83517265D01*
X138081895Y-83517265D02*
X138081895Y-82546555D01*
X142864145Y-97171556D02*
X142864145Y-88299515D01*
%TO.N,IMP_OUT2*%
X146531295Y-97821554D02*
X147499645Y-97821554D01*
X143265145Y-88204127D02*
X143265145Y-94555404D01*
X138681895Y-83089449D02*
X138681895Y-83620877D01*
X143265145Y-94555404D02*
X146531295Y-97821554D01*
X138681895Y-83620877D02*
X143265145Y-88204127D01*
D40*
%TO.N,Net-(Q1-D)*%
X148531895Y-104121555D02*
X150756895Y-104121555D01*
D39*
X146480295Y-99588454D02*
X147853026Y-99588454D01*
X146663393Y-98471556D02*
X146480295Y-98654654D01*
X146480295Y-98654654D02*
X146480295Y-99588454D01*
D40*
X150981895Y-104346555D02*
X150981895Y-105084055D01*
D39*
X147853026Y-99588454D02*
X148531895Y-100267323D01*
X148531895Y-100267323D02*
X148531895Y-104121555D01*
X147499645Y-98471556D02*
X146663393Y-98471556D01*
D40*
X150756895Y-104121555D02*
X150981895Y-104346555D01*
D39*
%TO.N,Net-(Q2-D)*%
X145031895Y-99020954D02*
X145031895Y-104121555D01*
D40*
X145031895Y-104121555D02*
X146994395Y-106084055D01*
X146994395Y-106084055D02*
X148381895Y-106084055D01*
D39*
X142864145Y-97821554D02*
X143832495Y-97821554D01*
X143832495Y-97821554D02*
X145031895Y-99020954D01*
%TO.N,Net-(J1-Pin_5)*%
X135881895Y-93546555D02*
X133381895Y-91046555D01*
X139481895Y-93546555D02*
X135881895Y-93546555D01*
%TO.N,Net-(J2-Pin_6)*%
X156081895Y-85446555D02*
X156081895Y-85246555D01*
X156081895Y-85246555D02*
X155581895Y-84746555D01*
X155581895Y-84746555D02*
X150081895Y-84746555D01*
%TO.N,Net-(J2-Pin_4)*%
X150081895Y-87746555D02*
X155581895Y-87746555D01*
X155581895Y-87746555D02*
X156181895Y-88346555D01*
%TO.N,Net-(J2-Pin_3)*%
X155681895Y-89246555D02*
X156181895Y-89746555D01*
X150081895Y-89246555D02*
X155681895Y-89246555D01*
%TO.N,Net-(J2-Pin_5)*%
X155481895Y-86246555D02*
X156081895Y-86846555D01*
X150081895Y-86246555D02*
X155481895Y-86246555D01*
%TO.N,+3.3V*%
X143731895Y-105721555D02*
X143256895Y-105246555D01*
X143731895Y-107444255D02*
X143731895Y-105721555D01*
X143207129Y-105196789D02*
X143256895Y-105246555D01*
X143207129Y-104551234D02*
X143207129Y-105196789D01*
%TD*%
%TA.AperFunction,Conductor*%
%TO.N,GND*%
G36*
X155807603Y-79809685D02*
G01*
X155853358Y-79862489D01*
X155863302Y-79931647D01*
X155834277Y-79995203D01*
X155828245Y-80001681D01*
X155721388Y-80108537D01*
X155721383Y-80108543D01*
X155648912Y-80234066D01*
X155648911Y-80234070D01*
X155611395Y-80374080D01*
X155611395Y-80519030D01*
X155648911Y-80659040D01*
X155648912Y-80659043D01*
X155721383Y-80784566D01*
X155726333Y-80791016D01*
X155725264Y-80791835D01*
X155754675Y-80845697D01*
X155749691Y-80915389D01*
X155707819Y-80971322D01*
X155642355Y-80995739D01*
X155633509Y-80996055D01*
X153084024Y-80996055D01*
X153084018Y-80996056D01*
X153024411Y-81002463D01*
X152889566Y-81052757D01*
X152889559Y-81052761D01*
X152774350Y-81139007D01*
X152774347Y-81139010D01*
X152688101Y-81254219D01*
X152688097Y-81254226D01*
X152637803Y-81389072D01*
X152631396Y-81448671D01*
X152631395Y-81448690D01*
X152631395Y-82844425D01*
X152631396Y-82844431D01*
X152637803Y-82904038D01*
X152688097Y-83038883D01*
X152688101Y-83038890D01*
X152774347Y-83154099D01*
X152774350Y-83154102D01*
X152889559Y-83240348D01*
X152889566Y-83240352D01*
X153024412Y-83290646D01*
X153024411Y-83290646D01*
X153031339Y-83291390D01*
X153084022Y-83297055D01*
X156479767Y-83297054D01*
X156539378Y-83290646D01*
X156674226Y-83240351D01*
X156781191Y-83160276D01*
X156846652Y-83135860D01*
X156914925Y-83150711D01*
X156964331Y-83200116D01*
X156979500Y-83259544D01*
X156979500Y-89659155D01*
X156959815Y-89726194D01*
X156937909Y-89745175D01*
X156948241Y-89751643D01*
X156978019Y-89814849D01*
X156979500Y-89833954D01*
X156979500Y-93733565D01*
X156959815Y-93800604D01*
X156907011Y-93846359D01*
X156837853Y-93856303D01*
X156781189Y-93832831D01*
X156674230Y-93752761D01*
X156674223Y-93752757D01*
X156539377Y-93702463D01*
X156539378Y-93702463D01*
X156479778Y-93696056D01*
X156479776Y-93696055D01*
X156479768Y-93696055D01*
X156479759Y-93696055D01*
X153084024Y-93696055D01*
X153084018Y-93696056D01*
X153024411Y-93702463D01*
X152889566Y-93752757D01*
X152889559Y-93752761D01*
X152774350Y-93839007D01*
X152774347Y-93839010D01*
X152688101Y-93954219D01*
X152688097Y-93954226D01*
X152637803Y-94089072D01*
X152631396Y-94148671D01*
X152631395Y-94148690D01*
X152631395Y-95544425D01*
X152631396Y-95544431D01*
X152637803Y-95604038D01*
X152688097Y-95738883D01*
X152688101Y-95738890D01*
X152774347Y-95854099D01*
X152774350Y-95854102D01*
X152889559Y-95940348D01*
X152889566Y-95940352D01*
X153022377Y-95989887D01*
X153078311Y-96031758D01*
X153102728Y-96097222D01*
X153087877Y-96165495D01*
X153077426Y-96181547D01*
X153077094Y-96181979D01*
X153004617Y-96307511D01*
X153004616Y-96307515D01*
X152967100Y-96447525D01*
X152967100Y-96447527D01*
X152967100Y-96523456D01*
X152947415Y-96590495D01*
X152930781Y-96611137D01*
X152787131Y-96754786D01*
X152787125Y-96754794D01*
X152749514Y-96819940D01*
X152749514Y-96819941D01*
X152740987Y-96834709D01*
X152740986Y-96834712D01*
X152717100Y-96923856D01*
X152717100Y-98896106D01*
X152697415Y-98963145D01*
X152680781Y-98983787D01*
X152443218Y-99221350D01*
X152381895Y-99254835D01*
X152312203Y-99249851D01*
X152256270Y-99207979D01*
X152231853Y-99142515D01*
X152232395Y-99124319D01*
X152232395Y-98974082D01*
X152232395Y-98974080D01*
X152194879Y-98834070D01*
X152173508Y-98797055D01*
X152122406Y-98708543D01*
X152122401Y-98708537D01*
X152068714Y-98654850D01*
X152035229Y-98593527D01*
X152032395Y-98567169D01*
X152032395Y-97300413D01*
X152032395Y-97300411D01*
X152008509Y-97211267D01*
X152008508Y-97211266D01*
X152008508Y-97211264D01*
X151993467Y-97185214D01*
X151993466Y-97185212D01*
X151987895Y-97175563D01*
X151962364Y-97131342D01*
X147368714Y-92537692D01*
X147335229Y-92476369D01*
X147332395Y-92450011D01*
X147332395Y-92374082D01*
X147332395Y-92374080D01*
X147294879Y-92234070D01*
X147288122Y-92222367D01*
X147222406Y-92108543D01*
X147222401Y-92108537D01*
X147119912Y-92006048D01*
X147119906Y-92006043D01*
X146994383Y-91933572D01*
X146994384Y-91933572D01*
X146982901Y-91930495D01*
X146854370Y-91896055D01*
X146709420Y-91896055D01*
X146580888Y-91930495D01*
X146569406Y-91933572D01*
X146443883Y-92006043D01*
X146443877Y-92006048D01*
X146341388Y-92108537D01*
X146341383Y-92108543D01*
X146268912Y-92234066D01*
X146268911Y-92234070D01*
X146231395Y-92374080D01*
X146231395Y-92519030D01*
X146261014Y-92629567D01*
X146268912Y-92659043D01*
X146341383Y-92784566D01*
X146341385Y-92784568D01*
X146341386Y-92784570D01*
X146443880Y-92887064D01*
X146443881Y-92887065D01*
X146443883Y-92887066D01*
X146569406Y-92959537D01*
X146569407Y-92959537D01*
X146569410Y-92959539D01*
X146709420Y-92997055D01*
X146785351Y-92997055D01*
X146852390Y-93016740D01*
X146873032Y-93033374D01*
X151295076Y-97455418D01*
X151328561Y-97516741D01*
X151331395Y-97543099D01*
X151331395Y-98567169D01*
X151311710Y-98634208D01*
X151295076Y-98654850D01*
X151241388Y-98708537D01*
X151241383Y-98708543D01*
X151168912Y-98834066D01*
X151168911Y-98834070D01*
X151131395Y-98974080D01*
X151131395Y-99119030D01*
X151166449Y-99249851D01*
X151168912Y-99259043D01*
X151241383Y-99384566D01*
X151241385Y-99384568D01*
X151241386Y-99384570D01*
X151343880Y-99487064D01*
X151343881Y-99487065D01*
X151343883Y-99487066D01*
X151469406Y-99559537D01*
X151469407Y-99559537D01*
X151469410Y-99559539D01*
X151609420Y-99597055D01*
X151609423Y-99597055D01*
X151762497Y-99597055D01*
X151762497Y-99598769D01*
X151821844Y-99608017D01*
X151874106Y-99654391D01*
X151892999Y-99721657D01*
X151872527Y-99788460D01*
X151856689Y-99807878D01*
X151263616Y-100400951D01*
X151202293Y-100434436D01*
X151143842Y-100433045D01*
X151024065Y-100400951D01*
X151003849Y-100395534D01*
X150858899Y-100395534D01*
X150774893Y-100418043D01*
X150718887Y-100433050D01*
X150711379Y-100436161D01*
X150710703Y-100434529D01*
X150652499Y-100448647D01*
X150586473Y-100425793D01*
X150570723Y-100412469D01*
X148999339Y-98841085D01*
X148999334Y-98841081D01*
X148919416Y-98794941D01*
X148919415Y-98794940D01*
X148919414Y-98794940D01*
X148830270Y-98771054D01*
X148830269Y-98771054D01*
X148642495Y-98771054D01*
X148575456Y-98751369D01*
X148529701Y-98698565D01*
X148518495Y-98647054D01*
X148518495Y-98230980D01*
X148512799Y-98202347D01*
X148506513Y-98170745D01*
X148506513Y-98122362D01*
X148510951Y-98100055D01*
X148518495Y-98062128D01*
X148518495Y-97729447D01*
X148538180Y-97662408D01*
X148590984Y-97616653D01*
X148660142Y-97606709D01*
X148704492Y-97622058D01*
X148769410Y-97659539D01*
X148909420Y-97697055D01*
X148909423Y-97697055D01*
X149054367Y-97697055D01*
X149054370Y-97697055D01*
X149194380Y-97659539D01*
X149319910Y-97587064D01*
X149422404Y-97484570D01*
X149494879Y-97359040D01*
X149532395Y-97219030D01*
X149532395Y-97074080D01*
X149494879Y-96934070D01*
X149493094Y-96930979D01*
X149422406Y-96808543D01*
X149422401Y-96808537D01*
X149319912Y-96706048D01*
X149319906Y-96706043D01*
X149194383Y-96633572D01*
X149194384Y-96633572D01*
X149182901Y-96630495D01*
X149054370Y-96596055D01*
X148909420Y-96596055D01*
X148780888Y-96630495D01*
X148769406Y-96633572D01*
X148643883Y-96706043D01*
X148643876Y-96706049D01*
X148596249Y-96753676D01*
X148534926Y-96787160D01*
X148465234Y-96782175D01*
X148439679Y-96769097D01*
X148365734Y-96719689D01*
X148365730Y-96719688D01*
X148292672Y-96705156D01*
X148292669Y-96705156D01*
X146706621Y-96705156D01*
X146706618Y-96705156D01*
X146633559Y-96719688D01*
X146633555Y-96719689D01*
X146550694Y-96775055D01*
X146495328Y-96857916D01*
X146495327Y-96857920D01*
X146480795Y-96930977D01*
X146480795Y-96976010D01*
X146461110Y-97043049D01*
X146408306Y-97088804D01*
X146339148Y-97098748D01*
X146275592Y-97069723D01*
X146269114Y-97063691D01*
X144768864Y-95563441D01*
X145891895Y-95563441D01*
X145898168Y-95621779D01*
X145947411Y-95753804D01*
X146031850Y-95866599D01*
X146144647Y-95951039D01*
X146276665Y-96000281D01*
X146321894Y-96005143D01*
X146321895Y-96005143D01*
X146721895Y-96005143D01*
X146767124Y-96000281D01*
X146899142Y-95951039D01*
X147013633Y-95865331D01*
X147079097Y-95840913D01*
X147144239Y-95854112D01*
X147219720Y-95892572D01*
X147219723Y-95892573D01*
X147254842Y-95898134D01*
X147311160Y-95907055D01*
X147495349Y-95907054D01*
X147562389Y-95926738D01*
X147583031Y-95943373D01*
X147766683Y-96127025D01*
X147835983Y-96167035D01*
X147846607Y-96173169D01*
X147935751Y-96197055D01*
X148015031Y-96197055D01*
X148027302Y-96199559D01*
X148047559Y-96210283D01*
X148069548Y-96216740D01*
X148088303Y-96231853D01*
X148089052Y-96232250D01*
X148089265Y-96232628D01*
X148090190Y-96233374D01*
X148143880Y-96287064D01*
X148143881Y-96287065D01*
X148143883Y-96287066D01*
X148269406Y-96359537D01*
X148269407Y-96359537D01*
X148269410Y-96359539D01*
X148409420Y-96397055D01*
X148409423Y-96397055D01*
X148554367Y-96397055D01*
X148554370Y-96397055D01*
X148694380Y-96359539D01*
X148819910Y-96287064D01*
X148922404Y-96184570D01*
X148994879Y-96059040D01*
X149032395Y-95919030D01*
X149032395Y-95774080D01*
X148994879Y-95634070D01*
X148957140Y-95568705D01*
X148922406Y-95508543D01*
X148922401Y-95508537D01*
X148819912Y-95406048D01*
X148819906Y-95406043D01*
X148694383Y-95333572D01*
X148694384Y-95333572D01*
X148682901Y-95330495D01*
X148554370Y-95296055D01*
X148409420Y-95296055D01*
X148311003Y-95322425D01*
X148269405Y-95333572D01*
X148269402Y-95333573D01*
X148198393Y-95374571D01*
X148130493Y-95391044D01*
X148064466Y-95368191D01*
X148021276Y-95313270D01*
X148012394Y-95267184D01*
X148012394Y-95145815D01*
X147997913Y-95054384D01*
X147997913Y-95054383D01*
X147997912Y-95054381D01*
X147997912Y-95054380D01*
X147941754Y-94944164D01*
X147941752Y-94944162D01*
X147941749Y-94944158D01*
X147854291Y-94856700D01*
X147854288Y-94856698D01*
X147854286Y-94856696D01*
X147744070Y-94800538D01*
X147744069Y-94800537D01*
X147744066Y-94800536D01*
X147652630Y-94786055D01*
X147311155Y-94786055D01*
X147311155Y-94786056D01*
X147219724Y-94800536D01*
X147219720Y-94800537D01*
X147144239Y-94838997D01*
X147075570Y-94851893D01*
X147013634Y-94827779D01*
X146899144Y-94742071D01*
X146767121Y-94692829D01*
X146767115Y-94692827D01*
X146721895Y-94687965D01*
X146721895Y-96005143D01*
X146321895Y-96005143D01*
X146321895Y-95546555D01*
X145891895Y-95546555D01*
X145891895Y-95563441D01*
X144768864Y-95563441D01*
X144335091Y-95129668D01*
X145891895Y-95129668D01*
X145891895Y-95146555D01*
X146321895Y-95146555D01*
X146321895Y-94687966D01*
X146321894Y-94687965D01*
X146276674Y-94692827D01*
X146276668Y-94692829D01*
X146144645Y-94742071D01*
X146031850Y-94826510D01*
X145947411Y-94939305D01*
X145898168Y-95071330D01*
X145891895Y-95129668D01*
X144335091Y-95129668D01*
X143651964Y-94446541D01*
X143618479Y-94385218D01*
X143615645Y-94358860D01*
X143615645Y-88157985D01*
X143615645Y-88157983D01*
X143591759Y-88068839D01*
X143591756Y-88068833D01*
X143545618Y-87988921D01*
X143545615Y-87988918D01*
X143545614Y-87988915D01*
X143480357Y-87923658D01*
X143274935Y-87718236D01*
X143241450Y-87656913D01*
X143246434Y-87587221D01*
X143288306Y-87531288D01*
X143353770Y-87506871D01*
X143362616Y-87506555D01*
X143388765Y-87506555D01*
X143388781Y-87506554D01*
X143447119Y-87500281D01*
X143579144Y-87451038D01*
X143693633Y-87365331D01*
X143759097Y-87340913D01*
X143824239Y-87354112D01*
X143846257Y-87365331D01*
X143899720Y-87392572D01*
X143899723Y-87392573D01*
X143930019Y-87397371D01*
X143991160Y-87407055D01*
X144332629Y-87407054D01*
X144332634Y-87407054D01*
X144332634Y-87407053D01*
X144395764Y-87397055D01*
X144424065Y-87392573D01*
X144424066Y-87392573D01*
X144424067Y-87392572D01*
X144424070Y-87392572D01*
X144534286Y-87336414D01*
X144589772Y-87280927D01*
X144651093Y-87247444D01*
X144677452Y-87244610D01*
X145273868Y-87244610D01*
X145273870Y-87244610D01*
X145363014Y-87220724D01*
X145364662Y-87219771D01*
X145364684Y-87219766D01*
X145364681Y-87219761D01*
X145442938Y-87174580D01*
X146258369Y-86359148D01*
X146304514Y-86279224D01*
X146306152Y-86273110D01*
X146623307Y-86273110D01*
X146628168Y-86318339D01*
X146677410Y-86450357D01*
X146761850Y-86563154D01*
X146874645Y-86647593D01*
X147006670Y-86696836D01*
X147065008Y-86703109D01*
X147065025Y-86703110D01*
X147081895Y-86703110D01*
X147481895Y-86703110D01*
X147498765Y-86703110D01*
X147498781Y-86703109D01*
X147557119Y-86696836D01*
X147689144Y-86647593D01*
X147801939Y-86563154D01*
X147886379Y-86450357D01*
X147935621Y-86318339D01*
X147940483Y-86273110D01*
X147481895Y-86273110D01*
X147481895Y-86703110D01*
X147081895Y-86703110D01*
X147081895Y-86273110D01*
X146623307Y-86273110D01*
X146306152Y-86273110D01*
X146328400Y-86190080D01*
X146328400Y-85448481D01*
X146337044Y-85419040D01*
X146343568Y-85389054D01*
X146347040Y-85384998D01*
X146348085Y-85381442D01*
X146364719Y-85360800D01*
X146372240Y-85353278D01*
X146374412Y-85352025D01*
X146439669Y-85286768D01*
X146440923Y-85284595D01*
X146448444Y-85277075D01*
X146472260Y-85264070D01*
X146494179Y-85248066D01*
X146505034Y-85246174D01*
X146509767Y-85243590D01*
X146516925Y-85244101D01*
X146536125Y-85240756D01*
X146608665Y-85240756D01*
X146675704Y-85260441D01*
X146721459Y-85313245D01*
X146731138Y-85345357D01*
X146735878Y-85375285D01*
X146774337Y-85450764D01*
X146787233Y-85519434D01*
X146763119Y-85581370D01*
X146677410Y-85695862D01*
X146628168Y-85827880D01*
X146623306Y-85873109D01*
X146623307Y-85873110D01*
X147940483Y-85873110D01*
X147940483Y-85873109D01*
X147935621Y-85827880D01*
X147886379Y-85695860D01*
X147886378Y-85695859D01*
X147800671Y-85581370D01*
X147776253Y-85515906D01*
X147789451Y-85450767D01*
X147790616Y-85448481D01*
X147798172Y-85433651D01*
X147825851Y-85400375D01*
X147824804Y-85399328D01*
X147993116Y-85231016D01*
X148195101Y-85029030D01*
X148196251Y-85028402D01*
X148196905Y-85027262D01*
X148226848Y-85011695D01*
X148256422Y-84995547D01*
X148257731Y-84995640D01*
X148258898Y-84995034D01*
X148292491Y-84998126D01*
X148326113Y-85000531D01*
X148327164Y-85001318D01*
X148328474Y-85001439D01*
X148355057Y-85022197D01*
X148382047Y-85042402D01*
X148382843Y-85043896D01*
X148383542Y-85044442D01*
X148399821Y-85075758D01*
X148429101Y-85159435D01*
X148429102Y-85159437D01*
X148509745Y-85268705D01*
X148619013Y-85349348D01*
X148648132Y-85359537D01*
X148705221Y-85379514D01*
X148761997Y-85420236D01*
X148787744Y-85485189D01*
X148774287Y-85553750D01*
X148725900Y-85604153D01*
X148705221Y-85613596D01*
X148619014Y-85643761D01*
X148619012Y-85643762D01*
X148509745Y-85724405D01*
X148429102Y-85833672D01*
X148429101Y-85833674D01*
X148384248Y-85961853D01*
X148384248Y-85961855D01*
X148381395Y-85992285D01*
X148381395Y-86500824D01*
X148384248Y-86531254D01*
X148384248Y-86531256D01*
X148429101Y-86659435D01*
X148429102Y-86659437D01*
X148509745Y-86768705D01*
X148619013Y-86849348D01*
X148649748Y-86860102D01*
X148705221Y-86879514D01*
X148761997Y-86920236D01*
X148787744Y-86985189D01*
X148774287Y-87053750D01*
X148725900Y-87104153D01*
X148705221Y-87113596D01*
X148619014Y-87143761D01*
X148619012Y-87143762D01*
X148509745Y-87224405D01*
X148429102Y-87333672D01*
X148429101Y-87333674D01*
X148384248Y-87461853D01*
X148384248Y-87461855D01*
X148381395Y-87492285D01*
X148381395Y-88000824D01*
X148384248Y-88031254D01*
X148384248Y-88031256D01*
X148428593Y-88157983D01*
X148429102Y-88159437D01*
X148509745Y-88268705D01*
X148619013Y-88349348D01*
X148635989Y-88355288D01*
X148705221Y-88379514D01*
X148761997Y-88420236D01*
X148787744Y-88485189D01*
X148774287Y-88553750D01*
X148725900Y-88604153D01*
X148705221Y-88613596D01*
X148619014Y-88643761D01*
X148619012Y-88643762D01*
X148509745Y-88724405D01*
X148429102Y-88833672D01*
X148429101Y-88833674D01*
X148384248Y-88961853D01*
X148384248Y-88961855D01*
X148381395Y-88992285D01*
X148381395Y-89500824D01*
X148384248Y-89531254D01*
X148384248Y-89531256D01*
X148429003Y-89659155D01*
X148429102Y-89659437D01*
X148509745Y-89768705D01*
X148619013Y-89849348D01*
X148649748Y-89860102D01*
X148705221Y-89879514D01*
X148761997Y-89920236D01*
X148787744Y-89985189D01*
X148774287Y-90053750D01*
X148725900Y-90104153D01*
X148705221Y-90113596D01*
X148619014Y-90143761D01*
X148619012Y-90143762D01*
X148509745Y-90224405D01*
X148429102Y-90333672D01*
X148429101Y-90333674D01*
X148384248Y-90461853D01*
X148384248Y-90461855D01*
X148381395Y-90492285D01*
X148381395Y-91000824D01*
X148384248Y-91031254D01*
X148384248Y-91031256D01*
X148429101Y-91159435D01*
X148429102Y-91159437D01*
X148509745Y-91268705D01*
X148619013Y-91349348D01*
X148649748Y-91360102D01*
X148705221Y-91379514D01*
X148761997Y-91420236D01*
X148787744Y-91485189D01*
X148774287Y-91553750D01*
X148725900Y-91604153D01*
X148705221Y-91613596D01*
X148619014Y-91643761D01*
X148619012Y-91643762D01*
X148509745Y-91724405D01*
X148429102Y-91833672D01*
X148429101Y-91833674D01*
X148384248Y-91961853D01*
X148384248Y-91961855D01*
X148381395Y-91992285D01*
X148381395Y-92500824D01*
X148384248Y-92531254D01*
X148384248Y-92531256D01*
X148428963Y-92659040D01*
X148429102Y-92659437D01*
X148509745Y-92768705D01*
X148619013Y-92849348D01*
X148661740Y-92864299D01*
X148747194Y-92894201D01*
X148777625Y-92897055D01*
X148777629Y-92897055D01*
X151386165Y-92897055D01*
X151416594Y-92894201D01*
X151416596Y-92894201D01*
X151480685Y-92871774D01*
X151544777Y-92849348D01*
X151654045Y-92768705D01*
X151734688Y-92659437D01*
X151734689Y-92659435D01*
X151740206Y-92651960D01*
X151741880Y-92653195D01*
X151746360Y-92642588D01*
X151765390Y-92629567D01*
X151781475Y-92613040D01*
X151795069Y-92609261D01*
X151804024Y-92603135D01*
X151834488Y-92598305D01*
X151838800Y-92597107D01*
X151840603Y-92597055D01*
X152028039Y-92597055D01*
X152050647Y-92590996D01*
X152065154Y-92590578D01*
X152081052Y-92594752D01*
X152100825Y-92594752D01*
X152102734Y-92595263D01*
X152109420Y-92597055D01*
X152254367Y-92597055D01*
X152254370Y-92597055D01*
X152394380Y-92559539D01*
X152519910Y-92487064D01*
X152622404Y-92384570D01*
X152694879Y-92259040D01*
X152732395Y-92119030D01*
X152732395Y-91974080D01*
X152694879Y-91834070D01*
X152694650Y-91833674D01*
X152622406Y-91708543D01*
X152622401Y-91708537D01*
X152519912Y-91606048D01*
X152519906Y-91606043D01*
X152394383Y-91533572D01*
X152394384Y-91533572D01*
X152360172Y-91524405D01*
X152254370Y-91496055D01*
X152109420Y-91496055D01*
X152003618Y-91524405D01*
X151969406Y-91533572D01*
X151843883Y-91606043D01*
X151843876Y-91606049D01*
X151770623Y-91679301D01*
X151709300Y-91712786D01*
X151639608Y-91707800D01*
X151625884Y-91701711D01*
X151617190Y-91697205D01*
X151544777Y-91643762D01*
X151450269Y-91610692D01*
X151442464Y-91606647D01*
X151423324Y-91588317D01*
X151401792Y-91572874D01*
X151398484Y-91564529D01*
X151392002Y-91558322D01*
X151385811Y-91532559D01*
X151376045Y-91507922D01*
X151377773Y-91499112D01*
X151375677Y-91490386D01*
X151384396Y-91465367D01*
X151389501Y-91439360D01*
X151395718Y-91432883D01*
X151398672Y-91424409D01*
X151419534Y-91408075D01*
X151437889Y-91388957D01*
X151452445Y-91382309D01*
X151453687Y-91381338D01*
X151454801Y-91381234D01*
X151458568Y-91379514D01*
X151483305Y-91370857D01*
X151544777Y-91349348D01*
X151654045Y-91268705D01*
X151734688Y-91159437D01*
X151734689Y-91159435D01*
X151740206Y-91151960D01*
X151742180Y-91153417D01*
X151781475Y-91113040D01*
X151842375Y-91097055D01*
X154585351Y-91097055D01*
X154652390Y-91116740D01*
X154673032Y-91133374D01*
X155595076Y-92055418D01*
X155628561Y-92116741D01*
X155631395Y-92143099D01*
X155631395Y-92219030D01*
X155668911Y-92359040D01*
X155668912Y-92359043D01*
X155741383Y-92484566D01*
X155741385Y-92484568D01*
X155741386Y-92484570D01*
X155843880Y-92587064D01*
X155843881Y-92587065D01*
X155843883Y-92587066D01*
X155969406Y-92659537D01*
X155969407Y-92659537D01*
X155969410Y-92659539D01*
X156109420Y-92697055D01*
X156109423Y-92697055D01*
X156254367Y-92697055D01*
X156254370Y-92697055D01*
X156394380Y-92659539D01*
X156519910Y-92587064D01*
X156622404Y-92484570D01*
X156694879Y-92359040D01*
X156732395Y-92219030D01*
X156732395Y-92074080D01*
X156694879Y-91934070D01*
X156694591Y-91933572D01*
X156622406Y-91808543D01*
X156622401Y-91808537D01*
X156519912Y-91706048D01*
X156519906Y-91706043D01*
X156394383Y-91633572D01*
X156394384Y-91633572D01*
X156382901Y-91630495D01*
X156254370Y-91596055D01*
X156254367Y-91596055D01*
X156178439Y-91596055D01*
X156111400Y-91576370D01*
X156090758Y-91559736D01*
X154997108Y-90466086D01*
X154997103Y-90466082D01*
X154917185Y-90419942D01*
X154917184Y-90419941D01*
X154917183Y-90419941D01*
X154828039Y-90396055D01*
X154828038Y-90396055D01*
X151842375Y-90396055D01*
X151775336Y-90376370D01*
X151741863Y-90339926D01*
X151740206Y-90341150D01*
X151734687Y-90333672D01*
X151654045Y-90224405D01*
X151544777Y-90143762D01*
X151544775Y-90143761D01*
X151458568Y-90113596D01*
X151401792Y-90072874D01*
X151376045Y-90007922D01*
X151389501Y-89939360D01*
X151437889Y-89888957D01*
X151458568Y-89879514D01*
X151483305Y-89870857D01*
X151544777Y-89849348D01*
X151654045Y-89768705D01*
X151734688Y-89659437D01*
X151734689Y-89659435D01*
X151740206Y-89651960D01*
X151742180Y-89653417D01*
X151781475Y-89613040D01*
X151842375Y-89597055D01*
X155485351Y-89597055D01*
X155552390Y-89616740D01*
X155573032Y-89633374D01*
X155595076Y-89655418D01*
X155628561Y-89716741D01*
X155631395Y-89743099D01*
X155631395Y-89819030D01*
X155667278Y-89952945D01*
X155668912Y-89959043D01*
X155741383Y-90084566D01*
X155741385Y-90084568D01*
X155741386Y-90084570D01*
X155843880Y-90187064D01*
X155843881Y-90187065D01*
X155843883Y-90187066D01*
X155969406Y-90259537D01*
X155969407Y-90259537D01*
X155969410Y-90259539D01*
X156109420Y-90297055D01*
X156109423Y-90297055D01*
X156254367Y-90297055D01*
X156254370Y-90297055D01*
X156394380Y-90259539D01*
X156519910Y-90187064D01*
X156622404Y-90084570D01*
X156694879Y-89959040D01*
X156732395Y-89819030D01*
X156732395Y-89819027D01*
X156732561Y-89817767D01*
X156732996Y-89816782D01*
X156734498Y-89811179D01*
X156735371Y-89811413D01*
X156760829Y-89753871D01*
X156770740Y-89747333D01*
X156736523Y-89694090D01*
X156732561Y-89675344D01*
X156732395Y-89674088D01*
X156732395Y-89674080D01*
X156694879Y-89534070D01*
X156693254Y-89531256D01*
X156622406Y-89408543D01*
X156622401Y-89408537D01*
X156519912Y-89306048D01*
X156519906Y-89306043D01*
X156394383Y-89233572D01*
X156394384Y-89233572D01*
X156382901Y-89230495D01*
X156254370Y-89196055D01*
X156254367Y-89196055D01*
X156178439Y-89196055D01*
X156148998Y-89187410D01*
X156119012Y-89180887D01*
X156113996Y-89177132D01*
X156111400Y-89176370D01*
X156090758Y-89159736D01*
X156039758Y-89108736D01*
X156006273Y-89047413D01*
X156011257Y-88977721D01*
X156053129Y-88921788D01*
X156118593Y-88897371D01*
X156127439Y-88897055D01*
X156254367Y-88897055D01*
X156254370Y-88897055D01*
X156394380Y-88859539D01*
X156519910Y-88787064D01*
X156622404Y-88684570D01*
X156694879Y-88559040D01*
X156732395Y-88419030D01*
X156732395Y-88274080D01*
X156694879Y-88134070D01*
X156684873Y-88116740D01*
X156622406Y-88008543D01*
X156622401Y-88008537D01*
X156519912Y-87906048D01*
X156519906Y-87906043D01*
X156394383Y-87833572D01*
X156394384Y-87833572D01*
X156382901Y-87830495D01*
X156254370Y-87796055D01*
X156254367Y-87796055D01*
X156178439Y-87796055D01*
X156148998Y-87787410D01*
X156119012Y-87780887D01*
X156113996Y-87777132D01*
X156111400Y-87776370D01*
X156090758Y-87759736D01*
X155939758Y-87608736D01*
X155906273Y-87547413D01*
X155911257Y-87477721D01*
X155953129Y-87421788D01*
X156018593Y-87397371D01*
X156027439Y-87397055D01*
X156154367Y-87397055D01*
X156154370Y-87397055D01*
X156294380Y-87359539D01*
X156419910Y-87287064D01*
X156522404Y-87184570D01*
X156594879Y-87059040D01*
X156632395Y-86919030D01*
X156632395Y-86774080D01*
X156594879Y-86634070D01*
X156592911Y-86630662D01*
X156522406Y-86508543D01*
X156522401Y-86508537D01*
X156419912Y-86406048D01*
X156419906Y-86406043D01*
X156294383Y-86333572D01*
X156294384Y-86333572D01*
X156268028Y-86326510D01*
X156154370Y-86296055D01*
X156154367Y-86296055D01*
X156078439Y-86296055D01*
X156048998Y-86287410D01*
X156019012Y-86280887D01*
X156013996Y-86277132D01*
X156011400Y-86276370D01*
X155990758Y-86259736D01*
X155939758Y-86208736D01*
X155906273Y-86147413D01*
X155911257Y-86077721D01*
X155953129Y-86021788D01*
X156018593Y-85997371D01*
X156027439Y-85997055D01*
X156154367Y-85997055D01*
X156154370Y-85997055D01*
X156294380Y-85959539D01*
X156419910Y-85887064D01*
X156522404Y-85784570D01*
X156594879Y-85659040D01*
X156632395Y-85519030D01*
X156632395Y-85374080D01*
X156594879Y-85234070D01*
X156566301Y-85184572D01*
X156522406Y-85108543D01*
X156522401Y-85108537D01*
X156419912Y-85006048D01*
X156419906Y-85006043D01*
X156294383Y-84933572D01*
X156294377Y-84933569D01*
X156285777Y-84931265D01*
X156230195Y-84899173D01*
X155797108Y-84466086D01*
X155797103Y-84466082D01*
X155717185Y-84419942D01*
X155717184Y-84419941D01*
X155717183Y-84419941D01*
X155628039Y-84396055D01*
X155628038Y-84396055D01*
X152558968Y-84396055D01*
X152491929Y-84376370D01*
X152446174Y-84323566D01*
X152436230Y-84254408D01*
X152465255Y-84190852D01*
X152471287Y-84184374D01*
X152499699Y-84155962D01*
X152533919Y-84121742D01*
X152606394Y-83996212D01*
X152643910Y-83856202D01*
X152643910Y-83711252D01*
X152606394Y-83571242D01*
X152601870Y-83563407D01*
X152533921Y-83445715D01*
X152533916Y-83445709D01*
X152431427Y-83343220D01*
X152431425Y-83343218D01*
X152417849Y-83335380D01*
X152394733Y-83322033D01*
X152369054Y-83302328D01*
X152368714Y-83301988D01*
X152335229Y-83240665D01*
X152332395Y-83214307D01*
X152332395Y-81600413D01*
X152332395Y-81600411D01*
X152308509Y-81511267D01*
X152262365Y-81431343D01*
X151297107Y-80466085D01*
X151297106Y-80466084D01*
X151297103Y-80466082D01*
X151217185Y-80419942D01*
X151217184Y-80419941D01*
X151217183Y-80419941D01*
X151128039Y-80396055D01*
X145035751Y-80396055D01*
X144946607Y-80419941D01*
X144946606Y-80419941D01*
X144946604Y-80419942D01*
X144946601Y-80419943D01*
X144866689Y-80466081D01*
X144866680Y-80466088D01*
X144487131Y-80845636D01*
X144487129Y-80845638D01*
X144463214Y-80887063D01*
X144463212Y-80887065D01*
X144440988Y-80925556D01*
X144440987Y-80925559D01*
X144440986Y-80925561D01*
X144440986Y-80925562D01*
X144420380Y-81002464D01*
X144417100Y-81014706D01*
X144417100Y-81820588D01*
X144397415Y-81887627D01*
X144344611Y-81933382D01*
X144275453Y-81943326D01*
X144231104Y-81927977D01*
X144217189Y-81919944D01*
X144217185Y-81919942D01*
X144217183Y-81919941D01*
X144128039Y-81896055D01*
X141035751Y-81896055D01*
X140946607Y-81919941D01*
X140946606Y-81919941D01*
X140946604Y-81919942D01*
X140946601Y-81919943D01*
X140866689Y-81966081D01*
X140866680Y-81966088D01*
X139973032Y-82859736D01*
X139911709Y-82893221D01*
X139885351Y-82896055D01*
X139809420Y-82896055D01*
X139697337Y-82926088D01*
X139669406Y-82933572D01*
X139543883Y-83006043D01*
X139543877Y-83006048D01*
X139444076Y-83105850D01*
X139382753Y-83139335D01*
X139313061Y-83134351D01*
X139257128Y-83092479D01*
X139232711Y-83027015D01*
X139232395Y-83018169D01*
X139232395Y-83016976D01*
X139232395Y-83016974D01*
X139194879Y-82876964D01*
X139191430Y-82870991D01*
X139122406Y-82751437D01*
X139122401Y-82751431D01*
X139019912Y-82648942D01*
X139019906Y-82648937D01*
X138894383Y-82576466D01*
X138894384Y-82576466D01*
X138880239Y-82572676D01*
X138754370Y-82538949D01*
X138754367Y-82538949D01*
X138744925Y-82538949D01*
X138677886Y-82519264D01*
X138632131Y-82466460D01*
X138625150Y-82447043D01*
X138594879Y-82334070D01*
X138522404Y-82208540D01*
X138419910Y-82106046D01*
X138419908Y-82106045D01*
X138419906Y-82106043D01*
X138294383Y-82033572D01*
X138294384Y-82033572D01*
X138282901Y-82030495D01*
X138154370Y-81996055D01*
X138009420Y-81996055D01*
X137880888Y-82030495D01*
X137869406Y-82033572D01*
X137743883Y-82106043D01*
X137743877Y-82106048D01*
X137641388Y-82208537D01*
X137641383Y-82208543D01*
X137568912Y-82334066D01*
X137568911Y-82334070D01*
X137531395Y-82474080D01*
X137531395Y-82619030D01*
X137568609Y-82757913D01*
X137568912Y-82759043D01*
X137641383Y-82884566D01*
X137641388Y-82884572D01*
X137695076Y-82938260D01*
X137728561Y-82999583D01*
X137731395Y-83025941D01*
X137731395Y-83563409D01*
X137749008Y-83629140D01*
X137749007Y-83629140D01*
X137749008Y-83629142D01*
X137755280Y-83652551D01*
X137801422Y-83732473D01*
X137801426Y-83732478D01*
X139453322Y-85384374D01*
X139486807Y-85445697D01*
X139481823Y-85515389D01*
X139439951Y-85571322D01*
X139374487Y-85595739D01*
X139365641Y-85596055D01*
X139259420Y-85596055D01*
X139135995Y-85629127D01*
X139119406Y-85633572D01*
X138993883Y-85706043D01*
X138993877Y-85706048D01*
X138891388Y-85808537D01*
X138891383Y-85808543D01*
X138818912Y-85934066D01*
X138818911Y-85934070D01*
X138781395Y-86074080D01*
X138781395Y-86219030D01*
X138816996Y-86351893D01*
X138818912Y-86359043D01*
X138891383Y-86484566D01*
X138891385Y-86484568D01*
X138891386Y-86484570D01*
X138993880Y-86587064D01*
X139067672Y-86629668D01*
X139069394Y-86630662D01*
X139077676Y-86639348D01*
X139088598Y-86644336D01*
X139101343Y-86664168D01*
X139117610Y-86681228D01*
X139120826Y-86694484D01*
X139126372Y-86703114D01*
X139131395Y-86738049D01*
X139131395Y-86772055D01*
X139111710Y-86839094D01*
X139058906Y-86884849D01*
X139007395Y-86896055D01*
X138177625Y-86896055D01*
X138147195Y-86898908D01*
X138147193Y-86898908D01*
X138019014Y-86943761D01*
X138019012Y-86943762D01*
X137909745Y-87024405D01*
X137829102Y-87133672D01*
X137829101Y-87133674D01*
X137784248Y-87261853D01*
X137784248Y-87261855D01*
X137781395Y-87292285D01*
X137781395Y-87800824D01*
X137784248Y-87831254D01*
X137784248Y-87831256D01*
X137810420Y-87906048D01*
X137829102Y-87959437D01*
X137865341Y-88008540D01*
X137909746Y-88068706D01*
X138006569Y-88140164D01*
X138048820Y-88195811D01*
X138054279Y-88265467D01*
X138021212Y-88327017D01*
X137978428Y-88355288D01*
X137959800Y-88362633D01*
X137839330Y-88453990D01*
X137747974Y-88574459D01*
X137692508Y-88715111D01*
X137681895Y-88803501D01*
X137681895Y-88846555D01*
X141281895Y-88846555D01*
X141281895Y-88803501D01*
X141271281Y-88715111D01*
X141215815Y-88574459D01*
X141124459Y-88453990D01*
X141003988Y-88362633D01*
X141003986Y-88362632D01*
X140985363Y-88355288D01*
X140930219Y-88312383D01*
X140907026Y-88246475D01*
X140923147Y-88178490D01*
X140957215Y-88140167D01*
X141054045Y-88068705D01*
X141134688Y-87959437D01*
X141157114Y-87895345D01*
X141179541Y-87831256D01*
X141179541Y-87831254D01*
X141182395Y-87800824D01*
X141182395Y-87412809D01*
X141202080Y-87345770D01*
X141254884Y-87300015D01*
X141324042Y-87290071D01*
X141387598Y-87319096D01*
X141394076Y-87325128D01*
X142477326Y-88408378D01*
X142510811Y-88469701D01*
X142513645Y-88496059D01*
X142513645Y-96581156D01*
X142493960Y-96648195D01*
X142441156Y-96693950D01*
X142389645Y-96705156D01*
X142071118Y-96705156D01*
X141998059Y-96719688D01*
X141998055Y-96719689D01*
X141915194Y-96775055D01*
X141859828Y-96857916D01*
X141859827Y-96857920D01*
X141845295Y-96930977D01*
X141845295Y-96930982D01*
X141845295Y-97412130D01*
X141845295Y-97412132D01*
X141845294Y-97412132D01*
X141857276Y-97472363D01*
X141857276Y-97520747D01*
X141845295Y-97580977D01*
X141845295Y-98027074D01*
X141825610Y-98094113D01*
X141772806Y-98139868D01*
X141767924Y-98141625D01*
X141768011Y-98141834D01*
X141760501Y-98144944D01*
X141680589Y-98191082D01*
X141680580Y-98191089D01*
X140450426Y-99421242D01*
X140450424Y-99421244D01*
X140431996Y-99453165D01*
X140431995Y-99453166D01*
X140404282Y-99501165D01*
X140404281Y-99501168D01*
X140380395Y-99590312D01*
X140380395Y-107937799D01*
X140394044Y-107988736D01*
X140404281Y-108026942D01*
X140404282Y-108026945D01*
X140450422Y-108106863D01*
X140450424Y-108106866D01*
X140450425Y-108106867D01*
X141567826Y-109224267D01*
X141633083Y-109289524D01*
X141633086Y-109289525D01*
X141633089Y-109289528D01*
X141713001Y-109335666D01*
X141713002Y-109335666D01*
X141713007Y-109335669D01*
X141802151Y-109359555D01*
X147150793Y-109359555D01*
X147217832Y-109379240D01*
X147263587Y-109432044D01*
X147266975Y-109440222D01*
X147313097Y-109563883D01*
X147313101Y-109563890D01*
X147399347Y-109679099D01*
X147399350Y-109679102D01*
X147514559Y-109765348D01*
X147514564Y-109765351D01*
X147550727Y-109778839D01*
X147606661Y-109820709D01*
X147631079Y-109886173D01*
X147631395Y-109895021D01*
X147631395Y-110820473D01*
X147631395Y-110820475D01*
X147631394Y-110820475D01*
X147660235Y-110965462D01*
X147660238Y-110965472D01*
X147716807Y-111102043D01*
X147716815Y-111102057D01*
X147744745Y-111143856D01*
X147744746Y-111143859D01*
X147744747Y-111143859D01*
X147745861Y-111145527D01*
X147798946Y-111224975D01*
X147798947Y-111224976D01*
X150768575Y-114194603D01*
X150768579Y-114194606D01*
X150891493Y-114276735D01*
X150891506Y-114276742D01*
X151028077Y-114333311D01*
X151028082Y-114333313D01*
X151028086Y-114333313D01*
X151028087Y-114333314D01*
X151173074Y-114362155D01*
X151173077Y-114362155D01*
X151320912Y-114362155D01*
X153549141Y-114362155D01*
X153616180Y-114381840D01*
X153631684Y-114394334D01*
X153631754Y-114394250D01*
X153636464Y-114398115D01*
X153802289Y-114508917D01*
X153802302Y-114508924D01*
X153986555Y-114585243D01*
X153986560Y-114585245D01*
X153986564Y-114585245D01*
X153986565Y-114585246D01*
X154182169Y-114624155D01*
X154182172Y-114624155D01*
X154381620Y-114624155D01*
X154513219Y-114597977D01*
X154577230Y-114585245D01*
X154761494Y-114508921D01*
X154927326Y-114398115D01*
X155068355Y-114257086D01*
X155179161Y-114091254D01*
X155189856Y-114065435D01*
X155226670Y-113976555D01*
X155255485Y-113906990D01*
X155268222Y-113842955D01*
X155294395Y-113711380D01*
X155294395Y-113511929D01*
X155255486Y-113316325D01*
X155255485Y-113316324D01*
X155255485Y-113316320D01*
X155208153Y-113202049D01*
X155179164Y-113132062D01*
X155179157Y-113132049D01*
X155068355Y-112966224D01*
X155068352Y-112966220D01*
X154927329Y-112825197D01*
X154927325Y-112825194D01*
X154761500Y-112714392D01*
X154761487Y-112714385D01*
X154577234Y-112638066D01*
X154577224Y-112638063D01*
X154381620Y-112599155D01*
X154381618Y-112599155D01*
X154182172Y-112599155D01*
X154182170Y-112599155D01*
X153986565Y-112638063D01*
X153986555Y-112638066D01*
X153802302Y-112714385D01*
X153802289Y-112714392D01*
X153636464Y-112825194D01*
X153631754Y-112829060D01*
X153630928Y-112828054D01*
X153575499Y-112858321D01*
X153549141Y-112861155D01*
X151609224Y-112861155D01*
X151542185Y-112841470D01*
X151521543Y-112824836D01*
X149168714Y-110472006D01*
X149135229Y-110410683D01*
X149132395Y-110384325D01*
X149132395Y-109895021D01*
X149152080Y-109827982D01*
X149204884Y-109782227D01*
X149213051Y-109778843D01*
X149249226Y-109765351D01*
X149364441Y-109679101D01*
X149450691Y-109563886D01*
X149500986Y-109429038D01*
X149507395Y-109369428D01*
X149507394Y-108648683D01*
X149500986Y-108589072D01*
X149499301Y-108584555D01*
X149450692Y-108454226D01*
X149450688Y-108454219D01*
X149364442Y-108339010D01*
X149364439Y-108339007D01*
X149249230Y-108252761D01*
X149249223Y-108252757D01*
X149114377Y-108202463D01*
X149114378Y-108202463D01*
X149054778Y-108196056D01*
X149054776Y-108196055D01*
X149054768Y-108196055D01*
X149054759Y-108196055D01*
X147709024Y-108196055D01*
X147709018Y-108196056D01*
X147649411Y-108202463D01*
X147514566Y-108252757D01*
X147514559Y-108252761D01*
X147399350Y-108339007D01*
X147399347Y-108339010D01*
X147313101Y-108454219D01*
X147313097Y-108454226D01*
X147266975Y-108577888D01*
X147225104Y-108633822D01*
X147159640Y-108658239D01*
X147150793Y-108658555D01*
X142044838Y-108658555D01*
X142015397Y-108649910D01*
X141985411Y-108643387D01*
X141980395Y-108639632D01*
X141977799Y-108638870D01*
X141957157Y-108622236D01*
X141889057Y-108554136D01*
X141855572Y-108492813D01*
X141860556Y-108423121D01*
X141902428Y-108367188D01*
X141967892Y-108342771D01*
X141976738Y-108342455D01*
X146055271Y-108342455D01*
X146055272Y-108342454D01*
X146128335Y-108327921D01*
X146211196Y-108272556D01*
X146266561Y-108189695D01*
X146281095Y-108116629D01*
X146281095Y-106771881D01*
X146281095Y-106771878D01*
X146276480Y-106748678D01*
X146282707Y-106679086D01*
X146325570Y-106623909D01*
X146391459Y-106600664D01*
X146459456Y-106616732D01*
X146485775Y-106636802D01*
X146515979Y-106667006D01*
X146515980Y-106667007D01*
X146638893Y-106749135D01*
X146638906Y-106749142D01*
X146775477Y-106805711D01*
X146775482Y-106805713D01*
X146775486Y-106805713D01*
X146775487Y-106805714D01*
X146920474Y-106834555D01*
X146920477Y-106834555D01*
X146920478Y-106834555D01*
X147068312Y-106834555D01*
X147476653Y-106834555D01*
X147519984Y-106842372D01*
X147649412Y-106890646D01*
X147649411Y-106890646D01*
X147656339Y-106891390D01*
X147709022Y-106897055D01*
X149054767Y-106897054D01*
X149114378Y-106890646D01*
X149249226Y-106840351D01*
X149364441Y-106754101D01*
X149450691Y-106638886D01*
X149500986Y-106504038D01*
X149507395Y-106444428D01*
X149507394Y-105723683D01*
X149500986Y-105664072D01*
X149491592Y-105638886D01*
X149450692Y-105529226D01*
X149450688Y-105529219D01*
X149364442Y-105414010D01*
X149364439Y-105414007D01*
X149249230Y-105327761D01*
X149249223Y-105327757D01*
X149114377Y-105277463D01*
X149114378Y-105277463D01*
X149054778Y-105271056D01*
X149054776Y-105271055D01*
X149054768Y-105271055D01*
X149054760Y-105271055D01*
X148977580Y-105271055D01*
X148910541Y-105251370D01*
X148864786Y-105198566D01*
X148854842Y-105129408D01*
X148883867Y-105065852D01*
X148888654Y-105060637D01*
X148902974Y-105045900D01*
X148920237Y-105037105D01*
X149009945Y-104947397D01*
X149022339Y-104923071D01*
X149035395Y-104909637D01*
X149050164Y-104901295D01*
X149061813Y-104888963D01*
X149081366Y-104883673D01*
X149096233Y-104875278D01*
X149109584Y-104876041D01*
X149124321Y-104872055D01*
X149732395Y-104872055D01*
X149799434Y-104891740D01*
X149845189Y-104944544D01*
X149856395Y-104996055D01*
X149856395Y-105444425D01*
X149856396Y-105444431D01*
X149862803Y-105504038D01*
X149913097Y-105638883D01*
X149913101Y-105638890D01*
X149999347Y-105754099D01*
X149999350Y-105754102D01*
X150114559Y-105840348D01*
X150114566Y-105840352D01*
X150249412Y-105890646D01*
X150249411Y-105890646D01*
X150256339Y-105891390D01*
X150309022Y-105897055D01*
X151654767Y-105897054D01*
X151714378Y-105890646D01*
X151849226Y-105840351D01*
X151920534Y-105786969D01*
X151985997Y-105762552D01*
X152054271Y-105777403D01*
X152103676Y-105826808D01*
X152118845Y-105886236D01*
X152118845Y-107206873D01*
X152099160Y-107273912D01*
X152046356Y-107319667D01*
X151977198Y-107329611D01*
X151920534Y-107306140D01*
X151849226Y-107252759D01*
X151849223Y-107252757D01*
X151714377Y-107202463D01*
X151714378Y-107202463D01*
X151654778Y-107196056D01*
X151654776Y-107196055D01*
X151654768Y-107196055D01*
X151654759Y-107196055D01*
X150309024Y-107196055D01*
X150309018Y-107196056D01*
X150249411Y-107202463D01*
X150114566Y-107252757D01*
X150114559Y-107252761D01*
X149999350Y-107339007D01*
X149999347Y-107339010D01*
X149913101Y-107454219D01*
X149913097Y-107454226D01*
X149880725Y-107541022D01*
X149862804Y-107589072D01*
X149856395Y-107648682D01*
X149856395Y-107648689D01*
X149856395Y-107648690D01*
X149856395Y-108369425D01*
X149856396Y-108369431D01*
X149862803Y-108429038D01*
X149913097Y-108563883D01*
X149913101Y-108563890D01*
X149999347Y-108679099D01*
X149999350Y-108679102D01*
X150114559Y-108765348D01*
X150114566Y-108765352D01*
X150159513Y-108782116D01*
X150249412Y-108815646D01*
X150309022Y-108822055D01*
X150919564Y-108822054D01*
X150986603Y-108841738D01*
X151007245Y-108858373D01*
X151882052Y-109733179D01*
X151882073Y-109733202D01*
X153233076Y-111084204D01*
X153266561Y-111145527D01*
X153268690Y-111165328D01*
X153268798Y-111165318D01*
X153269394Y-111171380D01*
X153308303Y-111366984D01*
X153308306Y-111366994D01*
X153384625Y-111551247D01*
X153384632Y-111551260D01*
X153495434Y-111717085D01*
X153495437Y-111717089D01*
X153636460Y-111858112D01*
X153636464Y-111858115D01*
X153802289Y-111968917D01*
X153802302Y-111968924D01*
X153952722Y-112031229D01*
X153986560Y-112045245D01*
X153986564Y-112045245D01*
X153986565Y-112045246D01*
X154182169Y-112084155D01*
X154182172Y-112084155D01*
X154381620Y-112084155D01*
X154513219Y-112057977D01*
X154577230Y-112045245D01*
X154761494Y-111968921D01*
X154927326Y-111858115D01*
X155068355Y-111717086D01*
X155179161Y-111551254D01*
X155255485Y-111366990D01*
X155286458Y-111211280D01*
X155294395Y-111171380D01*
X155294395Y-110971929D01*
X155255486Y-110776325D01*
X155255485Y-110776324D01*
X155255485Y-110776320D01*
X155255483Y-110776315D01*
X155179164Y-110592062D01*
X155179157Y-110592049D01*
X155068355Y-110426224D01*
X155068352Y-110426220D01*
X154927329Y-110285197D01*
X154927325Y-110285194D01*
X154761500Y-110174392D01*
X154761487Y-110174385D01*
X154577234Y-110098066D01*
X154577224Y-110098063D01*
X154381620Y-110059154D01*
X154375558Y-110058558D01*
X154375685Y-110057264D01*
X154315086Y-110039470D01*
X154294444Y-110022836D01*
X152943447Y-108671838D01*
X152943424Y-108671817D01*
X152856163Y-108584555D01*
X152822679Y-108523231D01*
X152819845Y-108496874D01*
X152819845Y-104687863D01*
X152819845Y-104687861D01*
X152795959Y-104598717D01*
X152776762Y-104565467D01*
X152749815Y-104518793D01*
X150767193Y-102536171D01*
X150733708Y-102474848D01*
X150730874Y-102448490D01*
X150730874Y-101620534D01*
X150733424Y-101611848D01*
X150732136Y-101602887D01*
X150743114Y-101578846D01*
X150750559Y-101553495D01*
X150757399Y-101547567D01*
X150761161Y-101539331D01*
X150783395Y-101525041D01*
X150803363Y-101507740D01*
X150813877Y-101505452D01*
X150819939Y-101501557D01*
X150854874Y-101496534D01*
X150857916Y-101496534D01*
X150924955Y-101516219D01*
X150970710Y-101569023D01*
X150979973Y-101611607D01*
X150980855Y-101611491D01*
X150981915Y-101619547D01*
X151019433Y-101759564D01*
X151091904Y-101885087D01*
X151091906Y-101885089D01*
X151091907Y-101885091D01*
X151194401Y-101987585D01*
X151194402Y-101987586D01*
X151194404Y-101987587D01*
X151319927Y-102060058D01*
X151319928Y-102060058D01*
X151319931Y-102060060D01*
X151459941Y-102097576D01*
X151459944Y-102097576D01*
X151604888Y-102097576D01*
X151604891Y-102097576D01*
X151744901Y-102060060D01*
X151870431Y-101987585D01*
X151972925Y-101885091D01*
X152045400Y-101759561D01*
X152082916Y-101619551D01*
X152082916Y-101474601D01*
X152045403Y-101334602D01*
X152047066Y-101264757D01*
X152077495Y-101214834D01*
X153798070Y-99494261D01*
X153844214Y-99414337D01*
X153868100Y-99325193D01*
X153868100Y-98269386D01*
X153887785Y-98202347D01*
X153904419Y-98181705D01*
X153928208Y-98157916D01*
X153958109Y-98128015D01*
X154030584Y-98002485D01*
X154068100Y-97862475D01*
X154068100Y-97717525D01*
X154030584Y-97577515D01*
X154009550Y-97541084D01*
X153958111Y-97451988D01*
X153958106Y-97451982D01*
X153855617Y-97349493D01*
X153855611Y-97349488D01*
X153730087Y-97277017D01*
X153730086Y-97277016D01*
X153730085Y-97277016D01*
X153721718Y-97274774D01*
X153662059Y-97238410D01*
X153631530Y-97175563D01*
X153639825Y-97106188D01*
X153684310Y-97052310D01*
X153721717Y-97035226D01*
X153730085Y-97032984D01*
X153855615Y-96960509D01*
X153958109Y-96858015D01*
X154030584Y-96732485D01*
X154068100Y-96592475D01*
X154068100Y-96447525D01*
X154030584Y-96307515D01*
X153958725Y-96183052D01*
X153942253Y-96115155D01*
X153965105Y-96049128D01*
X154020026Y-96005937D01*
X154066113Y-95997054D01*
X156479766Y-95997054D01*
X156479767Y-95997054D01*
X156539378Y-95990646D01*
X156674226Y-95940351D01*
X156781191Y-95860276D01*
X156846652Y-95835860D01*
X156914925Y-95850711D01*
X156964331Y-95900116D01*
X156979500Y-95959544D01*
X156979500Y-129622055D01*
X156959815Y-129689094D01*
X156907011Y-129734849D01*
X156855500Y-129746055D01*
X132704500Y-129746055D01*
X132637461Y-129726370D01*
X132591706Y-129673566D01*
X132580500Y-129622055D01*
X132580500Y-127795475D01*
X139591394Y-127795475D01*
X139620235Y-127940462D01*
X139620238Y-127940472D01*
X139676807Y-128077043D01*
X139676814Y-128077056D01*
X139758943Y-128199970D01*
X139758946Y-128199974D01*
X139863475Y-128304503D01*
X139863479Y-128304506D01*
X139986393Y-128386635D01*
X139986406Y-128386642D01*
X140122977Y-128443211D01*
X140122982Y-128443213D01*
X140122986Y-128443213D01*
X140122987Y-128443214D01*
X140267974Y-128472055D01*
X140267977Y-128472055D01*
X140415815Y-128472055D01*
X140513357Y-128452651D01*
X140560808Y-128443213D01*
X140697390Y-128386639D01*
X140820311Y-128304506D01*
X140924846Y-128199971D01*
X141006979Y-128077050D01*
X141063553Y-127940468D01*
X141092395Y-127795475D01*
X148231394Y-127795475D01*
X148260235Y-127940462D01*
X148260238Y-127940472D01*
X148316807Y-128077043D01*
X148316814Y-128077056D01*
X148398943Y-128199970D01*
X148398946Y-128199974D01*
X148503475Y-128304503D01*
X148503479Y-128304506D01*
X148626393Y-128386635D01*
X148626406Y-128386642D01*
X148762977Y-128443211D01*
X148762982Y-128443213D01*
X148762986Y-128443213D01*
X148762987Y-128443214D01*
X148907974Y-128472055D01*
X148907977Y-128472055D01*
X149055815Y-128472055D01*
X149153357Y-128452651D01*
X149200808Y-128443213D01*
X149337390Y-128386639D01*
X149460311Y-128304506D01*
X149564846Y-128199971D01*
X149646979Y-128077050D01*
X149703553Y-127940468D01*
X149732395Y-127795473D01*
X149732395Y-126847637D01*
X149732395Y-126847634D01*
X149703554Y-126702647D01*
X149703553Y-126702646D01*
X149703553Y-126702642D01*
X149703551Y-126702637D01*
X149646982Y-126566066D01*
X149646975Y-126566053D01*
X149564846Y-126443139D01*
X149564843Y-126443135D01*
X149460314Y-126338606D01*
X149460310Y-126338603D01*
X149337396Y-126256474D01*
X149337383Y-126256467D01*
X149200812Y-126199898D01*
X149200802Y-126199895D01*
X149055815Y-126171055D01*
X149055813Y-126171055D01*
X148907977Y-126171055D01*
X148907975Y-126171055D01*
X148762987Y-126199895D01*
X148762977Y-126199898D01*
X148626406Y-126256467D01*
X148626393Y-126256474D01*
X148503479Y-126338603D01*
X148503475Y-126338606D01*
X148398946Y-126443135D01*
X148398943Y-126443139D01*
X148316814Y-126566053D01*
X148316807Y-126566066D01*
X148260238Y-126702637D01*
X148260235Y-126702647D01*
X148231395Y-126847634D01*
X148231395Y-126847637D01*
X148231395Y-127795473D01*
X148231395Y-127795475D01*
X148231394Y-127795475D01*
X141092395Y-127795475D01*
X141092395Y-127795473D01*
X141092395Y-126847637D01*
X141092395Y-126847634D01*
X141063554Y-126702647D01*
X141063553Y-126702646D01*
X141063553Y-126702642D01*
X141063551Y-126702637D01*
X141006982Y-126566066D01*
X141006975Y-126566053D01*
X140924846Y-126443139D01*
X140924843Y-126443135D01*
X140820314Y-126338606D01*
X140820310Y-126338603D01*
X140697396Y-126256474D01*
X140697383Y-126256467D01*
X140560812Y-126199898D01*
X140560802Y-126199895D01*
X140415815Y-126171055D01*
X140415813Y-126171055D01*
X140267977Y-126171055D01*
X140267975Y-126171055D01*
X140122987Y-126199895D01*
X140122977Y-126199898D01*
X139986406Y-126256467D01*
X139986393Y-126256474D01*
X139863479Y-126338603D01*
X139863475Y-126338606D01*
X139758946Y-126443135D01*
X139758943Y-126443139D01*
X139676814Y-126566053D01*
X139676807Y-126566066D01*
X139620238Y-126702637D01*
X139620235Y-126702647D01*
X139591395Y-126847634D01*
X139591395Y-126847637D01*
X139591395Y-127795473D01*
X139591395Y-127795475D01*
X139591394Y-127795475D01*
X132580500Y-127795475D01*
X132580500Y-111211280D01*
X135094394Y-111211280D01*
X135133303Y-111406884D01*
X135133306Y-111406894D01*
X135209625Y-111591147D01*
X135209632Y-111591160D01*
X135320434Y-111756985D01*
X135320437Y-111756989D01*
X135461460Y-111898012D01*
X135461464Y-111898015D01*
X135626286Y-112008146D01*
X135671091Y-112061758D01*
X135681395Y-112111248D01*
X135681395Y-115100537D01*
X135681395Y-115212573D01*
X135710392Y-115320792D01*
X135766410Y-115417818D01*
X135766412Y-115417820D01*
X136906298Y-116557706D01*
X136939783Y-116619029D01*
X136934802Y-116688712D01*
X136932805Y-116694066D01*
X136932804Y-116694070D01*
X136932804Y-116694072D01*
X136926395Y-116753682D01*
X136926395Y-116753689D01*
X136926395Y-116753690D01*
X136926395Y-117499425D01*
X136926396Y-117499431D01*
X136932803Y-117559037D01*
X136934800Y-117564390D01*
X136939783Y-117634081D01*
X136906300Y-117695400D01*
X136891410Y-117710289D01*
X136835393Y-117807315D01*
X136835392Y-117807318D01*
X136806395Y-117915537D01*
X136806395Y-118422055D01*
X136786710Y-118489094D01*
X136733906Y-118534849D01*
X136687284Y-118545005D01*
X136687318Y-118545654D01*
X136687324Y-118545701D01*
X136687321Y-118545701D01*
X136687331Y-118545879D01*
X136684018Y-118546056D01*
X136624411Y-118552463D01*
X136489566Y-118602757D01*
X136489559Y-118602761D01*
X136374350Y-118689007D01*
X136374347Y-118689010D01*
X136288101Y-118804219D01*
X136288097Y-118804226D01*
X136237803Y-118939072D01*
X136232912Y-118984570D01*
X136231396Y-118998678D01*
X136231395Y-118998690D01*
X136231395Y-120994425D01*
X136231396Y-120994431D01*
X136237803Y-121054038D01*
X136288097Y-121188883D01*
X136288101Y-121188890D01*
X136374347Y-121304099D01*
X136374350Y-121304102D01*
X136489559Y-121390348D01*
X136489566Y-121390352D01*
X136529839Y-121405373D01*
X136585773Y-121447244D01*
X136610190Y-121512708D01*
X136595338Y-121580981D01*
X136545933Y-121630387D01*
X136529839Y-121637737D01*
X136489566Y-121652757D01*
X136489559Y-121652761D01*
X136374350Y-121739007D01*
X136374347Y-121739010D01*
X136288101Y-121854219D01*
X136288097Y-121854226D01*
X136250087Y-121956139D01*
X136237804Y-121989072D01*
X136231395Y-122048682D01*
X136231395Y-122048689D01*
X136231395Y-122048690D01*
X136231395Y-122694425D01*
X136231396Y-122694431D01*
X136237803Y-122754038D01*
X136288097Y-122888883D01*
X136288101Y-122888890D01*
X136374347Y-123004099D01*
X136374350Y-123004102D01*
X136489559Y-123090348D01*
X136489566Y-123090352D01*
X136624412Y-123140646D01*
X136624411Y-123140646D01*
X136631339Y-123141390D01*
X136684022Y-123147055D01*
X137779767Y-123147054D01*
X137839378Y-123140646D01*
X137974226Y-123090351D01*
X138089441Y-123004101D01*
X138175691Y-122888886D01*
X138225986Y-122754038D01*
X138232395Y-122694428D01*
X138232394Y-122048683D01*
X138232393Y-122048681D01*
X138232393Y-122048667D01*
X138228086Y-122008604D01*
X138227938Y-122007231D01*
X138240343Y-121938472D01*
X138263543Y-121906298D01*
X139637469Y-120532374D01*
X139698792Y-120498889D01*
X139725150Y-120496055D01*
X141737395Y-120496055D01*
X141804434Y-120515740D01*
X141850189Y-120568544D01*
X141861395Y-120620055D01*
X141861395Y-121525191D01*
X141841710Y-121592230D01*
X141788906Y-121637985D01*
X141724139Y-121648480D01*
X141661895Y-121641787D01*
X141661895Y-122980078D01*
X141642210Y-123047117D01*
X141593711Y-123090806D01*
X141582312Y-123096551D01*
X141549760Y-123105274D01*
X141444855Y-123165841D01*
X141441711Y-123167426D01*
X141410668Y-123173116D01*
X141379995Y-123180558D01*
X141376559Y-123179368D01*
X141372986Y-123180024D01*
X141343790Y-123168027D01*
X141313968Y-123157705D01*
X141311722Y-123154849D01*
X141308360Y-123153468D01*
X141290285Y-123127590D01*
X141270777Y-123102784D01*
X141269945Y-123098469D01*
X141268351Y-123096187D01*
X141268062Y-123088699D01*
X141261895Y-123056698D01*
X141261895Y-122766555D01*
X141216395Y-122766555D01*
X141208874Y-122764346D01*
X141201139Y-122765613D01*
X141175822Y-122754641D01*
X141149356Y-122746870D01*
X141144224Y-122740947D01*
X141137030Y-122737830D01*
X141121663Y-122714910D01*
X141103601Y-122694066D01*
X141101498Y-122684836D01*
X141098120Y-122679797D01*
X141093487Y-122649664D01*
X141092418Y-122644967D01*
X141092395Y-122643784D01*
X141092395Y-122517637D01*
X141089674Y-122503962D01*
X141089461Y-122492967D01*
X141095875Y-122469436D01*
X141098050Y-122445150D01*
X141104900Y-122436332D01*
X141107838Y-122425557D01*
X141125955Y-122409230D01*
X141140915Y-122389975D01*
X141151445Y-122386260D01*
X141159742Y-122378784D01*
X141183807Y-122374844D01*
X141206806Y-122366732D01*
X141213438Y-122366555D01*
X141261895Y-122366555D01*
X141261895Y-121641788D01*
X141261894Y-121641787D01*
X141204521Y-121647956D01*
X141204514Y-121647958D01*
X141069808Y-121698200D01*
X141069801Y-121698204D01*
X140954707Y-121784364D01*
X140954704Y-121784367D01*
X140868434Y-121899609D01*
X140812500Y-121941480D01*
X140742809Y-121946464D01*
X140700272Y-121928396D01*
X140697398Y-121926475D01*
X140697383Y-121926467D01*
X140560812Y-121869898D01*
X140560802Y-121869895D01*
X140415815Y-121841055D01*
X140415813Y-121841055D01*
X140267977Y-121841055D01*
X140267975Y-121841055D01*
X140122987Y-121869895D01*
X140122977Y-121869898D01*
X139986406Y-121926467D01*
X139986393Y-121926474D01*
X139863479Y-122008603D01*
X139863475Y-122008606D01*
X139758946Y-122113135D01*
X139758943Y-122113139D01*
X139676814Y-122236053D01*
X139676807Y-122236066D01*
X139620238Y-122372637D01*
X139620235Y-122372647D01*
X139591395Y-122517634D01*
X139591395Y-122517637D01*
X139591395Y-123765473D01*
X139591395Y-123765475D01*
X139591394Y-123765475D01*
X139620235Y-123910462D01*
X139620238Y-123910472D01*
X139676807Y-124047043D01*
X139676814Y-124047056D01*
X139758943Y-124169970D01*
X139758946Y-124169974D01*
X139863475Y-124274503D01*
X139863479Y-124274506D01*
X139986393Y-124356635D01*
X139986406Y-124356642D01*
X140122977Y-124413211D01*
X140122982Y-124413213D01*
X140122986Y-124413213D01*
X140122987Y-124413214D01*
X140267974Y-124442055D01*
X140267977Y-124442055D01*
X140415815Y-124442055D01*
X140513357Y-124422651D01*
X140560808Y-124413213D01*
X140697390Y-124356639D01*
X140820311Y-124274506D01*
X140924846Y-124169971D01*
X141006979Y-124047050D01*
X141050488Y-123942008D01*
X141094326Y-123887610D01*
X141160620Y-123865544D01*
X141228319Y-123882823D01*
X141272434Y-123927464D01*
X141311380Y-123994920D01*
X141418530Y-124102070D01*
X141549760Y-124177836D01*
X141696129Y-124217055D01*
X141696131Y-124217055D01*
X141847659Y-124217055D01*
X141847661Y-124217055D01*
X141994030Y-124177836D01*
X142125260Y-124102070D01*
X142232410Y-123994920D01*
X142308176Y-123863690D01*
X142347395Y-123717321D01*
X142347395Y-123565789D01*
X142342290Y-123546736D01*
X142342494Y-123538133D01*
X142339051Y-123530248D01*
X142343313Y-123503736D01*
X142343953Y-123476888D01*
X142348776Y-123469761D01*
X142350143Y-123461264D01*
X142368065Y-123441263D01*
X142383116Y-123419026D01*
X142392246Y-123414277D01*
X142396770Y-123409229D01*
X142414929Y-123402480D01*
X142429114Y-123395103D01*
X142440175Y-123392054D01*
X142443413Y-123392054D01*
X142537199Y-123377201D01*
X142588037Y-123351296D01*
X142600162Y-123347955D01*
X142623020Y-123348335D01*
X142645484Y-123344116D01*
X142663278Y-123349004D01*
X142670022Y-123349117D01*
X142674465Y-123352078D01*
X142685511Y-123355112D01*
X142751350Y-123385814D01*
X142798756Y-123392055D01*
X142845364Y-123392054D01*
X142912401Y-123411737D01*
X142958157Y-123464540D01*
X142968102Y-123533699D01*
X142965139Y-123548144D01*
X142931395Y-123674080D01*
X142931395Y-123819030D01*
X142964349Y-123942013D01*
X142968912Y-123959043D01*
X143041383Y-124084566D01*
X143041385Y-124084568D01*
X143041386Y-124084570D01*
X143143880Y-124187064D01*
X143143881Y-124187065D01*
X143143883Y-124187066D01*
X143269406Y-124259537D01*
X143269407Y-124259537D01*
X143269410Y-124259539D01*
X143409420Y-124297055D01*
X143409423Y-124297055D01*
X143554367Y-124297055D01*
X143554370Y-124297055D01*
X143694380Y-124259539D01*
X143819910Y-124187064D01*
X143922404Y-124084570D01*
X143994879Y-123959040D01*
X144014729Y-123884959D01*
X144051093Y-123825301D01*
X144113940Y-123794772D01*
X144134503Y-123793055D01*
X144690861Y-123793055D01*
X144690863Y-123793055D01*
X144780007Y-123769169D01*
X144788908Y-123764030D01*
X144788909Y-123764030D01*
X144859924Y-123723029D01*
X144859923Y-123723029D01*
X144859931Y-123723025D01*
X145160209Y-123422747D01*
X145221532Y-123389262D01*
X145264073Y-123387489D01*
X145298756Y-123392055D01*
X145525033Y-123392054D01*
X145525034Y-123392054D01*
X145539259Y-123390181D01*
X145572440Y-123385814D01*
X145572440Y-123385813D01*
X145581455Y-123384627D01*
X145650490Y-123395393D01*
X145702745Y-123441774D01*
X145721629Y-123509044D01*
X145717413Y-123539659D01*
X145710411Y-123565791D01*
X145681395Y-123674080D01*
X145681395Y-123819030D01*
X145714349Y-123942013D01*
X145718912Y-123959043D01*
X145791383Y-124084566D01*
X145791385Y-124084568D01*
X145791386Y-124084570D01*
X145893880Y-124187064D01*
X145893881Y-124187065D01*
X145893883Y-124187066D01*
X146019406Y-124259537D01*
X146019407Y-124259537D01*
X146019410Y-124259539D01*
X146159420Y-124297055D01*
X146159423Y-124297055D01*
X146304367Y-124297055D01*
X146304370Y-124297055D01*
X146444380Y-124259539D01*
X146569910Y-124187064D01*
X146672404Y-124084570D01*
X146744879Y-123959040D01*
X146773247Y-123853168D01*
X146809611Y-123793511D01*
X146872458Y-123762982D01*
X146941834Y-123771277D01*
X146995712Y-123815762D01*
X147012794Y-123853168D01*
X147015614Y-123863690D01*
X147091380Y-123994920D01*
X147198530Y-124102070D01*
X147329760Y-124177836D01*
X147476129Y-124217055D01*
X147476131Y-124217055D01*
X147627659Y-124217055D01*
X147627661Y-124217055D01*
X147774030Y-124177836D01*
X147905260Y-124102070D01*
X148012410Y-123994920D01*
X148051355Y-123927464D01*
X148101922Y-123879249D01*
X148170529Y-123866026D01*
X148235394Y-123891994D01*
X148273303Y-123942013D01*
X148316807Y-124047043D01*
X148316814Y-124047056D01*
X148398943Y-124169970D01*
X148398946Y-124169974D01*
X148503475Y-124274503D01*
X148503479Y-124274506D01*
X148626393Y-124356635D01*
X148626406Y-124356642D01*
X148762977Y-124413211D01*
X148762982Y-124413213D01*
X148762986Y-124413213D01*
X148762987Y-124413214D01*
X148907974Y-124442055D01*
X148907977Y-124442055D01*
X149055815Y-124442055D01*
X149153357Y-124422651D01*
X149200808Y-124413213D01*
X149337390Y-124356639D01*
X149460311Y-124274506D01*
X149564846Y-124169971D01*
X149646979Y-124047050D01*
X149703553Y-123910468D01*
X149726818Y-123793511D01*
X149732395Y-123765475D01*
X149732395Y-122517634D01*
X149703554Y-122372647D01*
X149703553Y-122372646D01*
X149703553Y-122372642D01*
X149701031Y-122366554D01*
X149646982Y-122236066D01*
X149646975Y-122236053D01*
X149564846Y-122113139D01*
X149564843Y-122113135D01*
X149460314Y-122008606D01*
X149460310Y-122008603D01*
X149337396Y-121926474D01*
X149337383Y-121926467D01*
X149200812Y-121869898D01*
X149200802Y-121869895D01*
X149055815Y-121841055D01*
X149055813Y-121841055D01*
X148907977Y-121841055D01*
X148907975Y-121841055D01*
X148762987Y-121869895D01*
X148762977Y-121869898D01*
X148626406Y-121926467D01*
X148626388Y-121926477D01*
X148623503Y-121928405D01*
X148621762Y-121928949D01*
X148621025Y-121929344D01*
X148620950Y-121929204D01*
X148556823Y-121949277D01*
X148489445Y-121930787D01*
X148455355Y-121899608D01*
X148369085Y-121784367D01*
X148369082Y-121784364D01*
X148253988Y-121698204D01*
X148253981Y-121698200D01*
X148119275Y-121647958D01*
X148119268Y-121647956D01*
X148061895Y-121641787D01*
X148061895Y-123056698D01*
X148061197Y-123059072D01*
X148061803Y-123061472D01*
X148051405Y-123092421D01*
X148042210Y-123123737D01*
X148040340Y-123125356D01*
X148039552Y-123127704D01*
X148014062Y-123148127D01*
X147989406Y-123169492D01*
X147986958Y-123169843D01*
X147985026Y-123171392D01*
X147952547Y-123174791D01*
X147920248Y-123179436D01*
X147917235Y-123178488D01*
X147915536Y-123178666D01*
X147902133Y-123173736D01*
X147882079Y-123167426D01*
X147878934Y-123165841D01*
X147774030Y-123105274D01*
X147741477Y-123096551D01*
X147730079Y-123090806D01*
X147713511Y-123075293D01*
X147694138Y-123063484D01*
X147688499Y-123051874D01*
X147679076Y-123043052D01*
X147673525Y-123021047D01*
X147663611Y-123000636D01*
X147661895Y-122980078D01*
X147661895Y-122766555D01*
X147648713Y-122753373D01*
X147615228Y-122692050D01*
X147612394Y-122665697D01*
X147612394Y-122467415D01*
X147632079Y-122400378D01*
X147648714Y-122379735D01*
X147661895Y-122366554D01*
X147661895Y-121641788D01*
X147661894Y-121641787D01*
X147604521Y-121647956D01*
X147604514Y-121647958D01*
X147469805Y-121698201D01*
X147464036Y-121701352D01*
X147395763Y-121716202D01*
X147330299Y-121691783D01*
X147316931Y-121680199D01*
X145411809Y-119775077D01*
X145411807Y-119775075D01*
X145366144Y-119748711D01*
X145320483Y-119722348D01*
X145269551Y-119708701D01*
X145218621Y-119695055D01*
X143519968Y-119695055D01*
X142534622Y-119695055D01*
X139560622Y-119695055D01*
X139455168Y-119695055D01*
X139353305Y-119722348D01*
X139261982Y-119775075D01*
X139261979Y-119775077D01*
X138444075Y-120592981D01*
X138382752Y-120626466D01*
X138313060Y-120621482D01*
X138257127Y-120579610D01*
X138232710Y-120514146D01*
X138232394Y-120505300D01*
X138232394Y-118998684D01*
X138232393Y-118998678D01*
X138232392Y-118998671D01*
X138225986Y-118939072D01*
X138175691Y-118804224D01*
X138175690Y-118804223D01*
X138175688Y-118804219D01*
X138089442Y-118689010D01*
X138089439Y-118689007D01*
X137974230Y-118602761D01*
X137974223Y-118602757D01*
X137839377Y-118552463D01*
X137839378Y-118552463D01*
X137779778Y-118546056D01*
X137779776Y-118546055D01*
X137779768Y-118546055D01*
X137779759Y-118546055D01*
X137776443Y-118545877D01*
X137776510Y-118544620D01*
X137772709Y-118543504D01*
X137763748Y-118544793D01*
X137739707Y-118533814D01*
X137714356Y-118526370D01*
X137708428Y-118519529D01*
X137700192Y-118515768D01*
X137685902Y-118493533D01*
X137668601Y-118473566D01*
X137666313Y-118463051D01*
X137662418Y-118456990D01*
X137657395Y-118422055D01*
X137657395Y-118199164D01*
X137664761Y-118174080D01*
X143631395Y-118174080D01*
X143631395Y-118319030D01*
X143668362Y-118456990D01*
X143668912Y-118459043D01*
X143741383Y-118584566D01*
X143741385Y-118584568D01*
X143741386Y-118584570D01*
X143843880Y-118687064D01*
X143843881Y-118687065D01*
X143843883Y-118687066D01*
X143969406Y-118759537D01*
X143969407Y-118759537D01*
X143969410Y-118759539D01*
X144109420Y-118797055D01*
X144109423Y-118797055D01*
X144254367Y-118797055D01*
X144254370Y-118797055D01*
X144394380Y-118759539D01*
X144519910Y-118687064D01*
X144622404Y-118584570D01*
X144694879Y-118459040D01*
X144732395Y-118319030D01*
X144732395Y-118174080D01*
X144694879Y-118034070D01*
X144647526Y-117952053D01*
X144622406Y-117908543D01*
X144622401Y-117908537D01*
X144519912Y-117806048D01*
X144519906Y-117806043D01*
X144394383Y-117733572D01*
X144394384Y-117733572D01*
X144382901Y-117730495D01*
X144254370Y-117696055D01*
X144109420Y-117696055D01*
X143980888Y-117730495D01*
X143969406Y-117733572D01*
X143843883Y-117806043D01*
X143843877Y-117806048D01*
X143741388Y-117908537D01*
X143741383Y-117908543D01*
X143668912Y-118034066D01*
X143668911Y-118034070D01*
X143631395Y-118174080D01*
X137664761Y-118174080D01*
X137677080Y-118132125D01*
X137693710Y-118111487D01*
X137816824Y-117988372D01*
X137878147Y-117954888D01*
X137904505Y-117952054D01*
X138774766Y-117952054D01*
X138774767Y-117952054D01*
X138834378Y-117945646D01*
X138969226Y-117895351D01*
X139084441Y-117809101D01*
X139170691Y-117693886D01*
X139176781Y-117677557D01*
X139193504Y-117632722D01*
X139235375Y-117576788D01*
X139300839Y-117552371D01*
X139309686Y-117552055D01*
X140867911Y-117552055D01*
X140867913Y-117552055D01*
X140976132Y-117523058D01*
X141073158Y-117467040D01*
X141361824Y-117178372D01*
X141423147Y-117144888D01*
X141449505Y-117142054D01*
X141527634Y-117142054D01*
X141527634Y-117142053D01*
X141573349Y-117134813D01*
X141619065Y-117127573D01*
X141619066Y-117127573D01*
X141619067Y-117127572D01*
X141619070Y-117127572D01*
X141729286Y-117071414D01*
X141729290Y-117071409D01*
X141737185Y-117065675D01*
X141738389Y-117067333D01*
X141788650Y-117039889D01*
X141815008Y-117037055D01*
X142371800Y-117037055D01*
X142438839Y-117056740D01*
X142459481Y-117073374D01*
X142469152Y-117083045D01*
X142469154Y-117083046D01*
X142469158Y-117083050D01*
X142582194Y-117140645D01*
X142582198Y-117140647D01*
X142675975Y-117155499D01*
X142675981Y-117155500D01*
X143764018Y-117155499D01*
X143857804Y-117140646D01*
X143970842Y-117083050D01*
X143971064Y-117082828D01*
X143987074Y-117066819D01*
X144048397Y-117033334D01*
X144074755Y-117030500D01*
X144079466Y-117030500D01*
X144079468Y-117030500D01*
X144187687Y-117001503D01*
X144284713Y-116945485D01*
X144393209Y-116836988D01*
X144454529Y-116803504D01*
X144524221Y-116808488D01*
X144580154Y-116850359D01*
X144591436Y-116872111D01*
X144592424Y-116871608D01*
X144596853Y-116880301D01*
X144596854Y-116880304D01*
X144654450Y-116993342D01*
X144654452Y-116993344D01*
X144654454Y-116993347D01*
X144744152Y-117083045D01*
X144744154Y-117083046D01*
X144744158Y-117083050D01*
X144857194Y-117140645D01*
X144857198Y-117140647D01*
X144950975Y-117155499D01*
X144950981Y-117155500D01*
X146039018Y-117155499D01*
X146132804Y-117140646D01*
X146245842Y-117083050D01*
X146289003Y-117039889D01*
X146337074Y-116991819D01*
X146398397Y-116958334D01*
X146424755Y-116955500D01*
X147233540Y-116955500D01*
X147300579Y-116975185D01*
X147344939Y-117025038D01*
X147362485Y-117060929D01*
X147363820Y-117063659D01*
X147454792Y-117154631D01*
X147454795Y-117154633D01*
X147529671Y-117191237D01*
X147570377Y-117211137D01*
X147645313Y-117222055D01*
X147645318Y-117222055D01*
X147988472Y-117222055D01*
X147988477Y-117222055D01*
X148063413Y-117211137D01*
X148121205Y-117182884D01*
X148178994Y-117154633D01*
X148178995Y-117154631D01*
X148178997Y-117154631D01*
X148239215Y-117094412D01*
X148247160Y-117090074D01*
X148252585Y-117082828D01*
X148277341Y-117073594D01*
X148300536Y-117060929D01*
X148309566Y-117061574D01*
X148318049Y-117058411D01*
X148343869Y-117064027D01*
X148370228Y-117065913D01*
X148379281Y-117071731D01*
X148386322Y-117073263D01*
X148414576Y-117094414D01*
X148450076Y-117129914D01*
X148483561Y-117191237D01*
X148486395Y-117217595D01*
X148486395Y-118212169D01*
X148466710Y-118279208D01*
X148450076Y-118299850D01*
X148441388Y-118308537D01*
X148441383Y-118308543D01*
X148368912Y-118434066D01*
X148368911Y-118434070D01*
X148331395Y-118574080D01*
X148331395Y-118719030D01*
X148368911Y-118859040D01*
X148368912Y-118859043D01*
X148441383Y-118984566D01*
X148441385Y-118984568D01*
X148441386Y-118984570D01*
X148543880Y-119087064D01*
X148543881Y-119087065D01*
X148543883Y-119087066D01*
X148669406Y-119159537D01*
X148669407Y-119159537D01*
X148669410Y-119159539D01*
X148809420Y-119197055D01*
X148809423Y-119197055D01*
X148954367Y-119197055D01*
X148954370Y-119197055D01*
X149094380Y-119159539D01*
X149219910Y-119087064D01*
X149322404Y-118984570D01*
X149394879Y-118859040D01*
X149432395Y-118719030D01*
X149432395Y-118574080D01*
X149394879Y-118434070D01*
X149328460Y-118319030D01*
X149322406Y-118308543D01*
X149322405Y-118308542D01*
X149322404Y-118308540D01*
X149223713Y-118209849D01*
X149190229Y-118148526D01*
X149187395Y-118122168D01*
X149187395Y-117217595D01*
X149207080Y-117150556D01*
X149223709Y-117129918D01*
X149289971Y-117063657D01*
X149289971Y-117063655D01*
X149289973Y-117063654D01*
X149325091Y-116991819D01*
X149346477Y-116948073D01*
X149357395Y-116873137D01*
X149357395Y-116429973D01*
X149346477Y-116355037D01*
X149323220Y-116307464D01*
X149289973Y-116239455D01*
X149289971Y-116239452D01*
X149198997Y-116148478D01*
X149198994Y-116148476D01*
X149083416Y-116091974D01*
X149083414Y-116091973D01*
X149083413Y-116091973D01*
X149008477Y-116081055D01*
X148665313Y-116081055D01*
X148590377Y-116091973D01*
X148590375Y-116091973D01*
X148590373Y-116091974D01*
X148474795Y-116148476D01*
X148474792Y-116148478D01*
X148414576Y-116208695D01*
X148406630Y-116213033D01*
X148401205Y-116220281D01*
X148376445Y-116229515D01*
X148353253Y-116242180D01*
X148344223Y-116241534D01*
X148335741Y-116244698D01*
X148309920Y-116239081D01*
X148283561Y-116237196D01*
X148274507Y-116231377D01*
X148267468Y-116229846D01*
X148239214Y-116208695D01*
X148203714Y-116173195D01*
X148170229Y-116111872D01*
X148167395Y-116085514D01*
X148167395Y-115539992D01*
X148187080Y-115472953D01*
X148239884Y-115427198D01*
X148309042Y-115417254D01*
X148365706Y-115440726D01*
X148467064Y-115516603D01*
X148467071Y-115516607D01*
X148597740Y-115565344D01*
X148636895Y-115569552D01*
X149036895Y-115569552D01*
X149076047Y-115565344D01*
X149076049Y-115565343D01*
X149206718Y-115516607D01*
X149206721Y-115516605D01*
X149318367Y-115433027D01*
X149401945Y-115321381D01*
X149401946Y-115321380D01*
X149450682Y-115190712D01*
X149456894Y-115132931D01*
X149456895Y-115132930D01*
X149456895Y-115101555D01*
X149036895Y-115101555D01*
X149036895Y-115569552D01*
X148636895Y-115569552D01*
X148636895Y-114701555D01*
X149036895Y-114701555D01*
X149456894Y-114701555D01*
X149456894Y-114670172D01*
X149456893Y-114670166D01*
X149450684Y-114612400D01*
X149401947Y-114481731D01*
X149401945Y-114481728D01*
X149318367Y-114370082D01*
X149206721Y-114286504D01*
X149206718Y-114286502D01*
X149076050Y-114237766D01*
X149076042Y-114237765D01*
X149036895Y-114233555D01*
X149036895Y-114701555D01*
X148636895Y-114701555D01*
X148636895Y-114233557D01*
X148597740Y-114237765D01*
X148467071Y-114286502D01*
X148467068Y-114286504D01*
X148355421Y-114370083D01*
X148352770Y-114373625D01*
X148349226Y-114376277D01*
X148349151Y-114376353D01*
X148349140Y-114376342D01*
X148296836Y-114415495D01*
X148227144Y-114420479D01*
X148181449Y-114400229D01*
X148178994Y-114398476D01*
X148063416Y-114341974D01*
X148063414Y-114341973D01*
X148063413Y-114341973D01*
X147988477Y-114331055D01*
X147645313Y-114331055D01*
X147570377Y-114341973D01*
X147570375Y-114341973D01*
X147570373Y-114341974D01*
X147454795Y-114398476D01*
X147454792Y-114398478D01*
X147363818Y-114489452D01*
X147363816Y-114489455D01*
X147307314Y-114605033D01*
X147307313Y-114605035D01*
X147307313Y-114605037D01*
X147296395Y-114679973D01*
X147296395Y-115123137D01*
X147307313Y-115198073D01*
X147307313Y-115198074D01*
X147307314Y-115198076D01*
X147363816Y-115313654D01*
X147363818Y-115313656D01*
X147363819Y-115313657D01*
X147430077Y-115379915D01*
X147463561Y-115441236D01*
X147466395Y-115467595D01*
X147466395Y-116085514D01*
X147457750Y-116114954D01*
X147451227Y-116144941D01*
X147447472Y-116149956D01*
X147446710Y-116152553D01*
X147430076Y-116173195D01*
X147385090Y-116218181D01*
X147323767Y-116251666D01*
X147297409Y-116254500D01*
X146424755Y-116254500D01*
X146357716Y-116234815D01*
X146337161Y-116218269D01*
X146336660Y-116217769D01*
X146303114Y-116156479D01*
X146308029Y-116086783D01*
X146330517Y-116051754D01*
X146329811Y-116051241D01*
X146335542Y-116043349D01*
X146335550Y-116043342D01*
X146393146Y-115930304D01*
X146393146Y-115930302D01*
X146393147Y-115930301D01*
X146403782Y-115863147D01*
X146408000Y-115836519D01*
X146407999Y-115473482D01*
X146393146Y-115379696D01*
X146335550Y-115266658D01*
X146335545Y-115266653D01*
X146329811Y-115258759D01*
X146331165Y-115257774D01*
X146303090Y-115206368D01*
X146308069Y-115136676D01*
X146330513Y-115101751D01*
X146329811Y-115101241D01*
X146335542Y-115093349D01*
X146335550Y-115093342D01*
X146393146Y-114980304D01*
X146393146Y-114980302D01*
X146393147Y-114980301D01*
X146407999Y-114886524D01*
X146408000Y-114886519D01*
X146407999Y-114523482D01*
X146393146Y-114429696D01*
X146335550Y-114316658D01*
X146335546Y-114316654D01*
X146335545Y-114316652D01*
X146245847Y-114226954D01*
X146245844Y-114226952D01*
X146245842Y-114226950D01*
X146169017Y-114187805D01*
X146132801Y-114169352D01*
X146039024Y-114154500D01*
X146039019Y-114154500D01*
X145969500Y-114154500D01*
X145960814Y-114151949D01*
X145951853Y-114153238D01*
X145927812Y-114142259D01*
X145902461Y-114134815D01*
X145896533Y-114127974D01*
X145888297Y-114124213D01*
X145874007Y-114101978D01*
X145856706Y-114082011D01*
X145854418Y-114071496D01*
X145850523Y-114065435D01*
X145845500Y-114030500D01*
X145845500Y-113909994D01*
X145865185Y-113842955D01*
X145881819Y-113822313D01*
X145955759Y-113748373D01*
X146017082Y-113714888D01*
X146043440Y-113712054D01*
X146227634Y-113712054D01*
X146227634Y-113712053D01*
X146273349Y-113704813D01*
X146319065Y-113697573D01*
X146319066Y-113697573D01*
X146319067Y-113697572D01*
X146319070Y-113697572D01*
X146429286Y-113641414D01*
X146516754Y-113553946D01*
X146572912Y-113443730D01*
X146572912Y-113443728D01*
X146572913Y-113443727D01*
X146572913Y-113443726D01*
X146576796Y-113419205D01*
X146587395Y-113352290D01*
X146587394Y-112950821D01*
X146587394Y-112950819D01*
X146587394Y-112950815D01*
X146572913Y-112859384D01*
X146572913Y-112859383D01*
X146572912Y-112859381D01*
X146572912Y-112859380D01*
X146516754Y-112749164D01*
X146516752Y-112749162D01*
X146516749Y-112749158D01*
X146429291Y-112661700D01*
X146429288Y-112661698D01*
X146429286Y-112661696D01*
X146319070Y-112605538D01*
X146319069Y-112605537D01*
X146319066Y-112605536D01*
X146227630Y-112591055D01*
X145886155Y-112591055D01*
X145886155Y-112591056D01*
X145794724Y-112605536D01*
X145794723Y-112605536D01*
X145684502Y-112661697D01*
X145664574Y-112681625D01*
X145656623Y-112685966D01*
X145651195Y-112693216D01*
X145626441Y-112702446D01*
X145603250Y-112715109D01*
X145594215Y-112714462D01*
X145585729Y-112717627D01*
X145559911Y-112712008D01*
X145533558Y-112710123D01*
X145524501Y-112704302D01*
X145517457Y-112702769D01*
X145489205Y-112681615D01*
X145483706Y-112676115D01*
X145450226Y-112614789D01*
X145447395Y-112588442D01*
X145447395Y-112220413D01*
X145447395Y-112220411D01*
X145423509Y-112131267D01*
X145423507Y-112131263D01*
X145420398Y-112123756D01*
X145422114Y-112123045D01*
X145408068Y-112065163D01*
X145430916Y-111999135D01*
X145485834Y-111955941D01*
X145531928Y-111947055D01*
X146055271Y-111947055D01*
X146055272Y-111947054D01*
X146128335Y-111932521D01*
X146211196Y-111877156D01*
X146266561Y-111794295D01*
X146281095Y-111721229D01*
X146281095Y-110376481D01*
X146281095Y-110376478D01*
X146281094Y-110376476D01*
X146266562Y-110303419D01*
X146266561Y-110303415D01*
X146254386Y-110285194D01*
X146211196Y-110220554D01*
X146155830Y-110183560D01*
X146128334Y-110165188D01*
X146128330Y-110165187D01*
X146055272Y-110150655D01*
X146055269Y-110150655D01*
X141408521Y-110150655D01*
X141408518Y-110150655D01*
X141335459Y-110165187D01*
X141335455Y-110165188D01*
X141252594Y-110220554D01*
X141197228Y-110303415D01*
X141197227Y-110303419D01*
X141182695Y-110376476D01*
X141182695Y-111721233D01*
X141197227Y-111794290D01*
X141197228Y-111794294D01*
X141197229Y-111794295D01*
X141252594Y-111877156D01*
X141335455Y-111932521D01*
X141335459Y-111932522D01*
X141408516Y-111947054D01*
X141408519Y-111947055D01*
X141408521Y-111947055D01*
X144230351Y-111947055D01*
X144297390Y-111966740D01*
X144318032Y-111983374D01*
X144710076Y-112375418D01*
X144724779Y-112402345D01*
X144741372Y-112428164D01*
X144742263Y-112434364D01*
X144743561Y-112436741D01*
X144746395Y-112463099D01*
X144746395Y-112588442D01*
X144726710Y-112655481D01*
X144710076Y-112676123D01*
X144637040Y-112749158D01*
X144637037Y-112749163D01*
X144580876Y-112859382D01*
X144580876Y-112859383D01*
X144566395Y-112950819D01*
X144566395Y-113135010D01*
X144546710Y-113202049D01*
X144530076Y-113222691D01*
X144251029Y-113501738D01*
X144229843Y-113538434D01*
X144223762Y-113548969D01*
X144220889Y-113553945D01*
X144220887Y-113553948D01*
X144204886Y-113581659D01*
X144181000Y-113670806D01*
X144181000Y-114018443D01*
X144161315Y-114085482D01*
X144108511Y-114131237D01*
X144039353Y-114141181D01*
X143982692Y-114117712D01*
X143974591Y-114111648D01*
X143974586Y-114111645D01*
X143839879Y-114061403D01*
X143839872Y-114061401D01*
X143780344Y-114055000D01*
X143420000Y-114055000D01*
X143420000Y-114581000D01*
X143400315Y-114648039D01*
X143347511Y-114693794D01*
X143296000Y-114705000D01*
X143220000Y-114705000D01*
X143220000Y-114781000D01*
X143200315Y-114848039D01*
X143147511Y-114893794D01*
X143096000Y-114905000D01*
X142207734Y-114905000D01*
X142213901Y-114962375D01*
X142264145Y-115097086D01*
X142264146Y-115097088D01*
X142337891Y-115195598D01*
X142362308Y-115261062D01*
X142349109Y-115326203D01*
X142321854Y-115379695D01*
X142321852Y-115379698D01*
X142307000Y-115473475D01*
X142307000Y-115836517D01*
X142309382Y-115851555D01*
X142321854Y-115930304D01*
X142360302Y-116005763D01*
X142360810Y-116008465D01*
X142362611Y-116010544D01*
X142367219Y-116042593D01*
X142373198Y-116074429D01*
X142372163Y-116076978D01*
X142372555Y-116079702D01*
X142359099Y-116109165D01*
X142346922Y-116139169D01*
X142344673Y-116140754D01*
X142343530Y-116143258D01*
X142316285Y-116160767D01*
X142289816Y-116179427D01*
X142286357Y-116180000D01*
X142284752Y-116181032D01*
X142249817Y-116186055D01*
X142051321Y-116186055D01*
X141984282Y-116166370D01*
X141938527Y-116113566D01*
X141928583Y-116044408D01*
X141935140Y-116018720D01*
X141980621Y-115896784D01*
X141985483Y-115851555D01*
X140668307Y-115851555D01*
X140673168Y-115896784D01*
X140722410Y-116028802D01*
X140808119Y-116143294D01*
X140832536Y-116208758D01*
X140819337Y-116273900D01*
X140780876Y-116349382D01*
X140780876Y-116349383D01*
X140766395Y-116440819D01*
X140766395Y-116518943D01*
X140757751Y-116548379D01*
X140751228Y-116578369D01*
X140747472Y-116583385D01*
X140746710Y-116585982D01*
X140730077Y-116606623D01*
X140671966Y-116664735D01*
X140610643Y-116698221D01*
X140584284Y-116701055D01*
X139309686Y-116701055D01*
X139242647Y-116681370D01*
X139196892Y-116628566D01*
X139193504Y-116620388D01*
X139170692Y-116559226D01*
X139170688Y-116559219D01*
X139084442Y-116444010D01*
X139084439Y-116444007D01*
X138969230Y-116357761D01*
X138969223Y-116357757D01*
X138834377Y-116307463D01*
X138834378Y-116307463D01*
X138774778Y-116301056D01*
X138774776Y-116301055D01*
X138774768Y-116301055D01*
X138774760Y-116301055D01*
X137904505Y-116301055D01*
X137837466Y-116281370D01*
X137816824Y-116264736D01*
X137003642Y-115451554D01*
X140668306Y-115451554D01*
X140668307Y-115451555D01*
X141126895Y-115451555D01*
X141526895Y-115451555D01*
X141985483Y-115451555D01*
X141985483Y-115451554D01*
X141980621Y-115406325D01*
X141931379Y-115274307D01*
X141846939Y-115161510D01*
X141734144Y-115077071D01*
X141602119Y-115027828D01*
X141543781Y-115021555D01*
X141526895Y-115021555D01*
X141526895Y-115451555D01*
X141126895Y-115451555D01*
X141126895Y-115021555D01*
X141110008Y-115021555D01*
X141051670Y-115027828D01*
X140919645Y-115077071D01*
X140806850Y-115161510D01*
X140722410Y-115274307D01*
X140673168Y-115406325D01*
X140668306Y-115451554D01*
X137003642Y-115451554D01*
X136568714Y-115016626D01*
X136535229Y-114955303D01*
X136532395Y-114928945D01*
X136532395Y-114540879D01*
X136826896Y-114540879D01*
X136842337Y-114658183D01*
X136842339Y-114658188D01*
X136902794Y-114804140D01*
X136998970Y-114929479D01*
X137124308Y-115025655D01*
X137270260Y-115086109D01*
X137270264Y-115086110D01*
X137387571Y-115101554D01*
X137876894Y-115101554D01*
X138276895Y-115101554D01*
X138766219Y-115101554D01*
X138883523Y-115086112D01*
X138883528Y-115086110D01*
X139029480Y-115025655D01*
X139154819Y-114929479D01*
X139250995Y-114804141D01*
X139311449Y-114658189D01*
X139311450Y-114658185D01*
X139326895Y-114540878D01*
X139326895Y-114505000D01*
X142207734Y-114505000D01*
X143020000Y-114505000D01*
X143020000Y-114055000D01*
X142659655Y-114055000D01*
X142600127Y-114061401D01*
X142600120Y-114061403D01*
X142465413Y-114111645D01*
X142465406Y-114111649D01*
X142350312Y-114197809D01*
X142350309Y-114197812D01*
X142264149Y-114312906D01*
X142264145Y-114312913D01*
X142213901Y-114447624D01*
X142207734Y-114505000D01*
X139326895Y-114505000D01*
X139326895Y-114376555D01*
X138276895Y-114376555D01*
X138276895Y-115101554D01*
X137876894Y-115101554D01*
X137876895Y-115101553D01*
X137876895Y-114376555D01*
X136826896Y-114376555D01*
X136826896Y-114540879D01*
X136532395Y-114540879D01*
X136532395Y-113812224D01*
X136826895Y-113812224D01*
X136826895Y-113976555D01*
X137876895Y-113976555D01*
X138276895Y-113976555D01*
X139326894Y-113976555D01*
X139326894Y-113812230D01*
X139311452Y-113694926D01*
X139311450Y-113694921D01*
X139250995Y-113548969D01*
X139154819Y-113423630D01*
X139029481Y-113327454D01*
X138883529Y-113267000D01*
X138883525Y-113266999D01*
X138766225Y-113251555D01*
X138276895Y-113251555D01*
X138276895Y-113976555D01*
X137876895Y-113976555D01*
X137876895Y-113251555D01*
X137387570Y-113251555D01*
X137270266Y-113266997D01*
X137270261Y-113266999D01*
X137124309Y-113327454D01*
X136998970Y-113423630D01*
X136902794Y-113548968D01*
X136842340Y-113694920D01*
X136842339Y-113694924D01*
X136826895Y-113812224D01*
X136532395Y-113812224D01*
X136532395Y-112111248D01*
X136552080Y-112044209D01*
X136587504Y-112008146D01*
X136624578Y-111983374D01*
X136752326Y-111898015D01*
X136893355Y-111756986D01*
X137004161Y-111591154D01*
X137020686Y-111551260D01*
X137080483Y-111406894D01*
X137080485Y-111406890D01*
X137093217Y-111342879D01*
X137119395Y-111211280D01*
X137119395Y-111011829D01*
X137080486Y-110816225D01*
X137080485Y-110816224D01*
X137080485Y-110816220D01*
X137063956Y-110776315D01*
X137004164Y-110631962D01*
X137004157Y-110631949D01*
X136893355Y-110466124D01*
X136893352Y-110466120D01*
X136752329Y-110325097D01*
X136752325Y-110325094D01*
X136586500Y-110214292D01*
X136586487Y-110214285D01*
X136402234Y-110137966D01*
X136402224Y-110137963D01*
X136206620Y-110099055D01*
X136206618Y-110099055D01*
X136007172Y-110099055D01*
X136007170Y-110099055D01*
X135811565Y-110137963D01*
X135811555Y-110137966D01*
X135627302Y-110214285D01*
X135627289Y-110214292D01*
X135461464Y-110325094D01*
X135461460Y-110325097D01*
X135320437Y-110466120D01*
X135320434Y-110466124D01*
X135209632Y-110631949D01*
X135209625Y-110631962D01*
X135133306Y-110816215D01*
X135133303Y-110816225D01*
X135094395Y-111011829D01*
X135094395Y-111011832D01*
X135094395Y-111211278D01*
X135094395Y-111211280D01*
X135094394Y-111211280D01*
X132580500Y-111211280D01*
X132580500Y-108484033D01*
X134994895Y-108484033D01*
X134994895Y-108659076D01*
X135022276Y-108831950D01*
X135022276Y-108831953D01*
X135076362Y-108998412D01*
X135155827Y-109154370D01*
X135191768Y-109203837D01*
X135191769Y-109203838D01*
X135653082Y-108742524D01*
X135657184Y-108757832D01*
X135720719Y-108867878D01*
X135810572Y-108957731D01*
X135920618Y-109021266D01*
X135935924Y-109025367D01*
X135474610Y-109486680D01*
X135524080Y-109522623D01*
X135680037Y-109602087D01*
X135846498Y-109656173D01*
X136019374Y-109683555D01*
X136194416Y-109683555D01*
X136367290Y-109656173D01*
X136367293Y-109656173D01*
X136533752Y-109602087D01*
X136689710Y-109522622D01*
X136739177Y-109486681D01*
X136739177Y-109486680D01*
X136277865Y-109025367D01*
X136293172Y-109021266D01*
X136403218Y-108957731D01*
X136493071Y-108867878D01*
X136556606Y-108757832D01*
X136560707Y-108742525D01*
X137022020Y-109203837D01*
X137022021Y-109203837D01*
X137057962Y-109154370D01*
X137137427Y-108998412D01*
X137191513Y-108831953D01*
X137191513Y-108831950D01*
X137218895Y-108659076D01*
X137218895Y-108484033D01*
X137191513Y-108311159D01*
X137191513Y-108311156D01*
X137137427Y-108144697D01*
X137057963Y-107988740D01*
X137022020Y-107939271D01*
X137022020Y-107939270D01*
X136560707Y-108400583D01*
X136556606Y-108385278D01*
X136493071Y-108275232D01*
X136403218Y-108185379D01*
X136293172Y-108121844D01*
X136277865Y-108117742D01*
X136739178Y-107656429D01*
X136739177Y-107656428D01*
X136689710Y-107620487D01*
X136533752Y-107541022D01*
X136367291Y-107486936D01*
X136194416Y-107459555D01*
X136019374Y-107459555D01*
X135846499Y-107486936D01*
X135846496Y-107486936D01*
X135680037Y-107541022D01*
X135524076Y-107620489D01*
X135474611Y-107656427D01*
X135474611Y-107656429D01*
X135935925Y-108117742D01*
X135920618Y-108121844D01*
X135810572Y-108185379D01*
X135720719Y-108275232D01*
X135657184Y-108385278D01*
X135653082Y-108400584D01*
X135191769Y-107939271D01*
X135191767Y-107939271D01*
X135155829Y-107988736D01*
X135076362Y-108144697D01*
X135022276Y-108311156D01*
X135022276Y-108311159D01*
X134994895Y-108484033D01*
X132580500Y-108484033D01*
X132580500Y-98756707D01*
X132600185Y-98689668D01*
X132652989Y-98643913D01*
X132722147Y-98633969D01*
X132778808Y-98657439D01*
X132851866Y-98712130D01*
X132889563Y-98740350D01*
X132889566Y-98740352D01*
X133024412Y-98790646D01*
X133024411Y-98790646D01*
X133031339Y-98791390D01*
X133084022Y-98797055D01*
X136479767Y-98797054D01*
X136539378Y-98790646D01*
X136674226Y-98740351D01*
X136789441Y-98654101D01*
X136875691Y-98538886D01*
X136925986Y-98404038D01*
X136932395Y-98344428D01*
X136932394Y-96948683D01*
X136925986Y-96889072D01*
X136914403Y-96858017D01*
X136875692Y-96754226D01*
X136875688Y-96754219D01*
X136789442Y-96639010D01*
X136789439Y-96639007D01*
X136674230Y-96552761D01*
X136674223Y-96552757D01*
X136539377Y-96502463D01*
X136539378Y-96502463D01*
X136479778Y-96496056D01*
X136479776Y-96496055D01*
X136479768Y-96496055D01*
X136479759Y-96496055D01*
X133084024Y-96496055D01*
X133084018Y-96496056D01*
X133024411Y-96502463D01*
X132889566Y-96552757D01*
X132889564Y-96552758D01*
X132831728Y-96596055D01*
X132781614Y-96633571D01*
X132778811Y-96635669D01*
X132713347Y-96660086D01*
X132645074Y-96645235D01*
X132595668Y-96595830D01*
X132580500Y-96536402D01*
X132580500Y-93795476D01*
X132600185Y-93728437D01*
X132652989Y-93682682D01*
X132722147Y-93672738D01*
X132785703Y-93701763D01*
X132811886Y-93733475D01*
X132841386Y-93784570D01*
X132943880Y-93887064D01*
X132943881Y-93887065D01*
X132943883Y-93887066D01*
X133069406Y-93959537D01*
X133069407Y-93959537D01*
X133069410Y-93959539D01*
X133209420Y-93997055D01*
X133285351Y-93997055D01*
X133352390Y-94016740D01*
X133373032Y-94033374D01*
X134666683Y-95327025D01*
X134666684Y-95327026D01*
X134666686Y-95327027D01*
X134706645Y-95350097D01*
X134746607Y-95373169D01*
X134835751Y-95397055D01*
X134835752Y-95397055D01*
X134928039Y-95397055D01*
X137721415Y-95397055D01*
X137788454Y-95416740D01*
X137821926Y-95453183D01*
X137823584Y-95451960D01*
X137829101Y-95459435D01*
X137829102Y-95459437D01*
X137909745Y-95568705D01*
X138019013Y-95649348D01*
X138061740Y-95664299D01*
X138147194Y-95694201D01*
X138177625Y-95697055D01*
X138177629Y-95697055D01*
X140786165Y-95697055D01*
X140816594Y-95694201D01*
X140816596Y-95694201D01*
X140880685Y-95671774D01*
X140944777Y-95649348D01*
X141054045Y-95568705D01*
X141134688Y-95459437D01*
X141164384Y-95374571D01*
X141179541Y-95331256D01*
X141179541Y-95331254D01*
X141182395Y-95300824D01*
X141182395Y-94792285D01*
X141179541Y-94761855D01*
X141179541Y-94761853D01*
X141134688Y-94633674D01*
X141134687Y-94633672D01*
X141054045Y-94524405D01*
X140944777Y-94443762D01*
X140944775Y-94443761D01*
X140858568Y-94413596D01*
X140801792Y-94372874D01*
X140776045Y-94307922D01*
X140789501Y-94239360D01*
X140837889Y-94188957D01*
X140858568Y-94179514D01*
X140883305Y-94170857D01*
X140944777Y-94149348D01*
X141054045Y-94068705D01*
X141134688Y-93959437D01*
X141160013Y-93887061D01*
X141179541Y-93831256D01*
X141179541Y-93831254D01*
X141182395Y-93800824D01*
X141182395Y-93292285D01*
X141179541Y-93261855D01*
X141179541Y-93261853D01*
X141134688Y-93133674D01*
X141134687Y-93133672D01*
X141116139Y-93108540D01*
X141054045Y-93024405D01*
X140944777Y-92943762D01*
X140944775Y-92943761D01*
X140858568Y-92913596D01*
X140801792Y-92872874D01*
X140776045Y-92807922D01*
X140789501Y-92739360D01*
X140837889Y-92688957D01*
X140858568Y-92679514D01*
X140883305Y-92670857D01*
X140944777Y-92649348D01*
X141054045Y-92568705D01*
X141134688Y-92459437D01*
X141160885Y-92384570D01*
X141179541Y-92331256D01*
X141179541Y-92331254D01*
X141182395Y-92300824D01*
X141182395Y-91792285D01*
X141179541Y-91761855D01*
X141179541Y-91761853D01*
X141134688Y-91633674D01*
X141134687Y-91633672D01*
X141134613Y-91633572D01*
X141054045Y-91524405D01*
X140944777Y-91443762D01*
X140944775Y-91443761D01*
X140858568Y-91413596D01*
X140801792Y-91372874D01*
X140776045Y-91307922D01*
X140789501Y-91239360D01*
X140837889Y-91188957D01*
X140858568Y-91179514D01*
X140883305Y-91170857D01*
X140944777Y-91149348D01*
X141054045Y-91068705D01*
X141134688Y-90959437D01*
X141178556Y-90834070D01*
X141179541Y-90831256D01*
X141179541Y-90831254D01*
X141182395Y-90800824D01*
X141182395Y-90292285D01*
X141179541Y-90261855D01*
X141179541Y-90261853D01*
X141134688Y-90133674D01*
X141134687Y-90133672D01*
X141054045Y-90024405D01*
X141054043Y-90024404D01*
X141054043Y-90024403D01*
X140957220Y-89952945D01*
X140914969Y-89897298D01*
X140909510Y-89827642D01*
X140942577Y-89766092D01*
X140985367Y-89737819D01*
X141003989Y-89730475D01*
X141124459Y-89639119D01*
X141215815Y-89518650D01*
X141271281Y-89377998D01*
X141281895Y-89289608D01*
X141281895Y-89246555D01*
X137681895Y-89246555D01*
X137681895Y-89289608D01*
X137692508Y-89377998D01*
X137747974Y-89518650D01*
X137839330Y-89639119D01*
X137959801Y-89730476D01*
X137978424Y-89737820D01*
X137979787Y-89738881D01*
X137981507Y-89739083D01*
X138007264Y-89760258D01*
X138033569Y-89780724D01*
X138034143Y-89782355D01*
X138035479Y-89783454D01*
X138045695Y-89815182D01*
X138056763Y-89846632D01*
X138056363Y-89848314D01*
X138056894Y-89849961D01*
X138048337Y-89882167D01*
X138040644Y-89914617D01*
X138039255Y-89916352D01*
X138038954Y-89917488D01*
X138034072Y-89922832D01*
X138016540Y-89944752D01*
X138011765Y-89949110D01*
X137909745Y-90024405D01*
X137869373Y-90079106D01*
X137860411Y-90087289D01*
X137839482Y-90097510D01*
X137820929Y-90111597D01*
X137808673Y-90112557D01*
X137797629Y-90117951D01*
X137774493Y-90115234D01*
X137751273Y-90117054D01*
X137734138Y-90110497D01*
X137728236Y-90109804D01*
X137724672Y-90106874D01*
X137714807Y-90103099D01*
X137594383Y-90033572D01*
X137594384Y-90033572D01*
X137560172Y-90024405D01*
X137454370Y-89996055D01*
X137309420Y-89996055D01*
X137203618Y-90024405D01*
X137169406Y-90033572D01*
X137043883Y-90106043D01*
X137043877Y-90106048D01*
X136941388Y-90208537D01*
X136941383Y-90208543D01*
X136868912Y-90334065D01*
X136839161Y-90445098D01*
X136802795Y-90504758D01*
X136739948Y-90535286D01*
X136670572Y-90526991D01*
X136631705Y-90500684D01*
X135377576Y-89246555D01*
X133968714Y-87837692D01*
X133935229Y-87776369D01*
X133932395Y-87750011D01*
X133932395Y-87674082D01*
X133932395Y-87674080D01*
X133894879Y-87534070D01*
X133870754Y-87492285D01*
X133822406Y-87408543D01*
X133822401Y-87408537D01*
X133719912Y-87306048D01*
X133719906Y-87306043D01*
X133594383Y-87233572D01*
X133594384Y-87233572D01*
X133560172Y-87224405D01*
X133454370Y-87196055D01*
X133309420Y-87196055D01*
X133203618Y-87224405D01*
X133169406Y-87233572D01*
X133043883Y-87306043D01*
X133043877Y-87306048D01*
X132941388Y-87408537D01*
X132941383Y-87408543D01*
X132868912Y-87534066D01*
X132868911Y-87534070D01*
X132831395Y-87674080D01*
X132831395Y-87819030D01*
X132868911Y-87959040D01*
X132868912Y-87959043D01*
X132941383Y-88084566D01*
X132941385Y-88084568D01*
X132941386Y-88084570D01*
X133043880Y-88187064D01*
X133043881Y-88187065D01*
X133043883Y-88187066D01*
X133169406Y-88259537D01*
X133169407Y-88259537D01*
X133169410Y-88259539D01*
X133309420Y-88297055D01*
X133385351Y-88297055D01*
X133452390Y-88316740D01*
X133473032Y-88333374D01*
X135473331Y-90333672D01*
X137401426Y-92261767D01*
X137466683Y-92327024D01*
X137466686Y-92327025D01*
X137466689Y-92327028D01*
X137546601Y-92373166D01*
X137546602Y-92373166D01*
X137546607Y-92373169D01*
X137635751Y-92397055D01*
X137721415Y-92397055D01*
X137788454Y-92416740D01*
X137821926Y-92453183D01*
X137823584Y-92451960D01*
X137829101Y-92459435D01*
X137829102Y-92459437D01*
X137909745Y-92568705D01*
X138019013Y-92649348D01*
X138046711Y-92659040D01*
X138105221Y-92679514D01*
X138161997Y-92720236D01*
X138187744Y-92785189D01*
X138174287Y-92853750D01*
X138125900Y-92904153D01*
X138105221Y-92913596D01*
X138019014Y-92943761D01*
X138019012Y-92943762D01*
X137909745Y-93024405D01*
X137823584Y-93141150D01*
X137821609Y-93139692D01*
X137782315Y-93180070D01*
X137721415Y-93196055D01*
X136078439Y-93196055D01*
X136011400Y-93176370D01*
X135990758Y-93159736D01*
X133968714Y-91137692D01*
X133935229Y-91076369D01*
X133932395Y-91050011D01*
X133932395Y-90974082D01*
X133932395Y-90974080D01*
X133894879Y-90834070D01*
X133893254Y-90831256D01*
X133822406Y-90708543D01*
X133822401Y-90708537D01*
X133719912Y-90606048D01*
X133719906Y-90606043D01*
X133594383Y-90533572D01*
X133594384Y-90533572D01*
X133569823Y-90526991D01*
X133454370Y-90496055D01*
X133309420Y-90496055D01*
X133193967Y-90526991D01*
X133169406Y-90533572D01*
X133043883Y-90606043D01*
X133043877Y-90606048D01*
X132941388Y-90708537D01*
X132941383Y-90708543D01*
X132868912Y-90834066D01*
X132868911Y-90834070D01*
X132831395Y-90974080D01*
X132831395Y-91119030D01*
X132863638Y-91239360D01*
X132868912Y-91259043D01*
X132941383Y-91384566D01*
X132941385Y-91384568D01*
X132941386Y-91384570D01*
X133043880Y-91487064D01*
X133043881Y-91487065D01*
X133043883Y-91487066D01*
X133169406Y-91559537D01*
X133169407Y-91559537D01*
X133169410Y-91559539D01*
X133309420Y-91597055D01*
X133385351Y-91597055D01*
X133452390Y-91616740D01*
X133473032Y-91633374D01*
X135666683Y-93827025D01*
X135666684Y-93827026D01*
X135666686Y-93827027D01*
X135706645Y-93850097D01*
X135746607Y-93873169D01*
X135835751Y-93897055D01*
X137721415Y-93897055D01*
X137788454Y-93916740D01*
X137821926Y-93953183D01*
X137823584Y-93951960D01*
X137829101Y-93959435D01*
X137829102Y-93959437D01*
X137909745Y-94068705D01*
X138019013Y-94149348D01*
X138049748Y-94160102D01*
X138105221Y-94179514D01*
X138161997Y-94220236D01*
X138187744Y-94285189D01*
X138174287Y-94353750D01*
X138125900Y-94404153D01*
X138105221Y-94413596D01*
X138019014Y-94443761D01*
X138019012Y-94443762D01*
X137909745Y-94524405D01*
X137823584Y-94641150D01*
X137821609Y-94639692D01*
X137782315Y-94680070D01*
X137721415Y-94696055D01*
X135078439Y-94696055D01*
X135011400Y-94676370D01*
X134990758Y-94659736D01*
X133868714Y-93537692D01*
X133835229Y-93476369D01*
X133832395Y-93450011D01*
X133832395Y-93374082D01*
X133832395Y-93374080D01*
X133794879Y-93234070D01*
X133779740Y-93207849D01*
X133722406Y-93108543D01*
X133722401Y-93108537D01*
X133619912Y-93006048D01*
X133619906Y-93006043D01*
X133494383Y-92933572D01*
X133494384Y-92933572D01*
X133482901Y-92930495D01*
X133354370Y-92896055D01*
X133209420Y-92896055D01*
X133080888Y-92930495D01*
X133069406Y-92933572D01*
X132943883Y-93006043D01*
X132943877Y-93006048D01*
X132841388Y-93108537D01*
X132841386Y-93108540D01*
X132826876Y-93133673D01*
X132811887Y-93159634D01*
X132761319Y-93207849D01*
X132692712Y-93221071D01*
X132627848Y-93195103D01*
X132587320Y-93138189D01*
X132580500Y-93097633D01*
X132580500Y-86056707D01*
X132600185Y-85989668D01*
X132652989Y-85943913D01*
X132722147Y-85933969D01*
X132778808Y-85957439D01*
X132869229Y-86025128D01*
X132889563Y-86040350D01*
X132889566Y-86040352D01*
X133024412Y-86090646D01*
X133024411Y-86090646D01*
X133031339Y-86091390D01*
X133084022Y-86097055D01*
X136479767Y-86097054D01*
X136539378Y-86090646D01*
X136674226Y-86040351D01*
X136789441Y-85954101D01*
X136875691Y-85838886D01*
X136925986Y-85704038D01*
X136932395Y-85644428D01*
X136932394Y-84248683D01*
X136925986Y-84189072D01*
X136916799Y-84164441D01*
X136875692Y-84054226D01*
X136875688Y-84054219D01*
X136789442Y-83939010D01*
X136789439Y-83939007D01*
X136674230Y-83852761D01*
X136674223Y-83852757D01*
X136539377Y-83802463D01*
X136539378Y-83802463D01*
X136479778Y-83796056D01*
X136479776Y-83796055D01*
X136479768Y-83796055D01*
X136479759Y-83796055D01*
X133084024Y-83796055D01*
X133084018Y-83796056D01*
X133024411Y-83802463D01*
X132889566Y-83852757D01*
X132889564Y-83852758D01*
X132778811Y-83935669D01*
X132713347Y-83960086D01*
X132645074Y-83945235D01*
X132595668Y-83895830D01*
X132580500Y-83836402D01*
X132580500Y-79914000D01*
X132600185Y-79846961D01*
X132652989Y-79801206D01*
X132704500Y-79790000D01*
X155740564Y-79790000D01*
X155807603Y-79809685D01*
G37*
%TD.AperFunction*%
%TA.AperFunction,Conductor*%
G36*
X144166060Y-98650801D02*
G01*
X144645076Y-99129817D01*
X144678561Y-99191140D01*
X144681395Y-99217498D01*
X144681395Y-101123247D01*
X144661710Y-101190286D01*
X144608906Y-101236041D01*
X144539748Y-101245985D01*
X144483085Y-101222515D01*
X144473983Y-101215701D01*
X144473981Y-101215700D01*
X144339275Y-101165458D01*
X144339268Y-101165456D01*
X144281895Y-101159287D01*
X144281895Y-103333820D01*
X144346985Y-103326824D01*
X144347228Y-103329091D01*
X144362711Y-103329920D01*
X144389596Y-103327760D01*
X144397074Y-103331758D01*
X144405545Y-103332212D01*
X144427426Y-103347987D01*
X144451211Y-103360705D01*
X144455340Y-103368112D01*
X144462221Y-103373073D01*
X144472099Y-103398173D01*
X144485233Y-103421732D01*
X144485586Y-103432443D01*
X144487808Y-103438089D01*
X144488060Y-103456913D01*
X144487692Y-103462775D01*
X144481395Y-103502536D01*
X144481395Y-103563208D01*
X144481152Y-103567084D01*
X144470500Y-103596426D01*
X144461710Y-103626363D01*
X144457927Y-103631062D01*
X144457311Y-103632760D01*
X144455370Y-103634239D01*
X144452314Y-103638035D01*
X144452803Y-103638436D01*
X144448938Y-103643144D01*
X144366816Y-103766052D01*
X144366809Y-103766064D01*
X144310237Y-103902642D01*
X144310235Y-103902648D01*
X144281395Y-104047635D01*
X144281395Y-104047637D01*
X144281395Y-104047638D01*
X144281395Y-104195472D01*
X144281395Y-104195474D01*
X144281394Y-104195474D01*
X144310235Y-104340461D01*
X144310237Y-104340467D01*
X144366808Y-104477043D01*
X144366811Y-104477049D01*
X144448943Y-104599971D01*
X144448947Y-104599975D01*
X144452812Y-104604686D01*
X144450705Y-104606414D01*
X144478561Y-104657428D01*
X144481395Y-104683784D01*
X144481395Y-104740571D01*
X144491544Y-104804651D01*
X144496249Y-104834359D01*
X144553845Y-104947397D01*
X144553847Y-104947399D01*
X144553849Y-104947402D01*
X144643547Y-105037100D01*
X144643549Y-105037101D01*
X144643553Y-105037105D01*
X144756591Y-105094701D01*
X144756593Y-105094702D01*
X144850370Y-105109554D01*
X144850376Y-105109555D01*
X144907163Y-105109554D01*
X144974202Y-105129237D01*
X144994845Y-105145873D01*
X145675780Y-105826808D01*
X146190344Y-106341371D01*
X146223829Y-106402694D01*
X146218845Y-106472386D01*
X146176973Y-106528319D01*
X146111509Y-106552736D01*
X146078474Y-106550670D01*
X146055270Y-106546055D01*
X146055269Y-106546055D01*
X144206395Y-106546055D01*
X144139356Y-106526370D01*
X144093601Y-106473566D01*
X144082395Y-106422055D01*
X144082395Y-105675413D01*
X144082395Y-105675411D01*
X144058509Y-105586267D01*
X144057530Y-105584572D01*
X144022214Y-105523403D01*
X144022214Y-105523402D01*
X144012366Y-105506345D01*
X144012362Y-105506340D01*
X143843714Y-105337692D01*
X143810229Y-105276369D01*
X143807395Y-105250011D01*
X143807395Y-105174082D01*
X143807395Y-105174080D01*
X143769879Y-105034070D01*
X143727112Y-104959996D01*
X143710640Y-104892097D01*
X143721023Y-104852981D01*
X143720130Y-104852691D01*
X143723144Y-104843412D01*
X143723146Y-104843409D01*
X143724580Y-104834359D01*
X143725831Y-104826458D01*
X143737629Y-104751969D01*
X143737628Y-104350500D01*
X143737628Y-104350499D01*
X143737628Y-104350494D01*
X143723147Y-104259063D01*
X143723147Y-104259062D01*
X143723146Y-104259060D01*
X143723146Y-104259059D01*
X143666988Y-104148843D01*
X143666986Y-104148841D01*
X143666983Y-104148837D01*
X143579525Y-104061379D01*
X143579522Y-104061377D01*
X143579520Y-104061375D01*
X143469304Y-104005217D01*
X143469303Y-104005216D01*
X143469300Y-104005215D01*
X143377864Y-103990734D01*
X143036389Y-103990734D01*
X143036389Y-103990735D01*
X142944958Y-104005215D01*
X142944954Y-104005216D01*
X142869473Y-104043676D01*
X142800804Y-104056572D01*
X142738868Y-104032458D01*
X142624378Y-103946750D01*
X142492355Y-103897508D01*
X142492349Y-103897506D01*
X142447129Y-103892644D01*
X142447129Y-105209822D01*
X142492360Y-105204959D01*
X142539061Y-105187541D01*
X142608752Y-105182556D01*
X142670076Y-105216040D01*
X142703561Y-105277363D01*
X142706395Y-105303722D01*
X142706395Y-105319030D01*
X142743911Y-105459040D01*
X142743912Y-105459043D01*
X142816383Y-105584566D01*
X142816385Y-105584568D01*
X142816386Y-105584570D01*
X142918880Y-105687064D01*
X142918881Y-105687065D01*
X142918883Y-105687066D01*
X143044406Y-105759537D01*
X143044407Y-105759537D01*
X143044410Y-105759539D01*
X143184420Y-105797055D01*
X143257395Y-105797055D01*
X143324434Y-105816740D01*
X143370189Y-105869544D01*
X143381395Y-105921055D01*
X143381395Y-106422055D01*
X143361710Y-106489094D01*
X143308906Y-106534849D01*
X143257395Y-106546055D01*
X141408518Y-106546055D01*
X141335459Y-106560587D01*
X141335455Y-106560588D01*
X141285072Y-106594252D01*
X141275478Y-106600664D01*
X141274285Y-106601461D01*
X141207607Y-106622338D01*
X141140227Y-106603853D01*
X141093538Y-106551874D01*
X141081395Y-106498358D01*
X141081395Y-104768120D01*
X141617129Y-104768120D01*
X141623402Y-104826458D01*
X141672645Y-104958483D01*
X141757084Y-105071278D01*
X141869881Y-105155718D01*
X142001899Y-105204960D01*
X142047128Y-105209822D01*
X142047129Y-105209822D01*
X142047129Y-104751234D01*
X141617129Y-104751234D01*
X141617129Y-104768120D01*
X141081395Y-104768120D01*
X141081395Y-104334347D01*
X141617129Y-104334347D01*
X141617129Y-104351234D01*
X142047129Y-104351234D01*
X142047129Y-103892645D01*
X142047128Y-103892644D01*
X142001908Y-103897506D01*
X142001902Y-103897508D01*
X141869879Y-103946750D01*
X141757084Y-104031189D01*
X141672645Y-104143984D01*
X141623402Y-104276009D01*
X141617129Y-104334347D01*
X141081395Y-104334347D01*
X141081395Y-102881899D01*
X143431895Y-102881899D01*
X143438296Y-102941427D01*
X143438298Y-102941434D01*
X143488540Y-103076141D01*
X143488544Y-103076148D01*
X143574704Y-103191242D01*
X143574707Y-103191245D01*
X143689801Y-103277405D01*
X143689808Y-103277409D01*
X143824519Y-103327653D01*
X143881895Y-103333820D01*
X143881895Y-102446555D01*
X143431895Y-102446555D01*
X143431895Y-102881899D01*
X141081395Y-102881899D01*
X141081395Y-101611210D01*
X143431895Y-101611210D01*
X143431895Y-102046555D01*
X143881895Y-102046555D01*
X143881895Y-101159288D01*
X143881894Y-101159287D01*
X143824521Y-101165456D01*
X143824514Y-101165458D01*
X143689808Y-101215700D01*
X143689801Y-101215704D01*
X143574707Y-101301864D01*
X143574704Y-101301867D01*
X143488544Y-101416961D01*
X143488540Y-101416968D01*
X143438298Y-101551675D01*
X143438296Y-101551682D01*
X143431895Y-101611210D01*
X141081395Y-101611210D01*
X141081395Y-99832998D01*
X141101080Y-99765959D01*
X141117710Y-99745321D01*
X141538817Y-99324214D01*
X141600135Y-99290732D01*
X141669826Y-99295716D01*
X141725760Y-99337587D01*
X141749198Y-99394021D01*
X141755707Y-99438703D01*
X141807010Y-99543645D01*
X141889606Y-99626241D01*
X141994543Y-99677541D01*
X141994546Y-99677542D01*
X142062575Y-99687453D01*
X142664144Y-99687453D01*
X143064145Y-99687453D01*
X143665713Y-99687453D01*
X143733744Y-99677541D01*
X143838686Y-99626238D01*
X143921282Y-99543642D01*
X143972582Y-99438705D01*
X143972583Y-99438702D01*
X143982495Y-99370673D01*
X143982495Y-99321554D01*
X143064145Y-99321554D01*
X143064145Y-99687453D01*
X142664144Y-99687453D01*
X142664145Y-99687452D01*
X142664145Y-99245554D01*
X142683830Y-99178515D01*
X142736634Y-99132760D01*
X142788145Y-99121554D01*
X142864145Y-99121554D01*
X142864145Y-99061956D01*
X142883830Y-98994917D01*
X142936634Y-98949162D01*
X142988145Y-98937956D01*
X143657171Y-98937956D01*
X143727647Y-98923937D01*
X143751839Y-98921554D01*
X143982494Y-98921554D01*
X143982494Y-98872436D01*
X143972582Y-98804405D01*
X143966979Y-98792944D01*
X143955219Y-98724071D01*
X143982561Y-98659774D01*
X144040325Y-98620465D01*
X144110171Y-98618627D01*
X144166060Y-98650801D01*
G37*
%TD.AperFunction*%
%TA.AperFunction,Conductor*%
G36*
X146851229Y-101975416D02*
G01*
X146907162Y-102017288D01*
X146909859Y-102024519D01*
X146931895Y-102046555D01*
X147457895Y-102046555D01*
X147524934Y-102066240D01*
X147570689Y-102119044D01*
X147581895Y-102170555D01*
X147581895Y-102246555D01*
X147657895Y-102246555D01*
X147724934Y-102266240D01*
X147770689Y-102319044D01*
X147781895Y-102370555D01*
X147781895Y-103333820D01*
X147846985Y-103326824D01*
X147847228Y-103329091D01*
X147862711Y-103329920D01*
X147889596Y-103327760D01*
X147897074Y-103331758D01*
X147905545Y-103332212D01*
X147927426Y-103347987D01*
X147951211Y-103360705D01*
X147955340Y-103368112D01*
X147962221Y-103373073D01*
X147972099Y-103398173D01*
X147985233Y-103421732D01*
X147985586Y-103432443D01*
X147987808Y-103438089D01*
X147988060Y-103456913D01*
X147987692Y-103462775D01*
X147981395Y-103502536D01*
X147981395Y-103563208D01*
X147981152Y-103567084D01*
X147970500Y-103596426D01*
X147961710Y-103626363D01*
X147957927Y-103631062D01*
X147957311Y-103632760D01*
X147955370Y-103634239D01*
X147952324Y-103638023D01*
X147952813Y-103638424D01*
X147948945Y-103643137D01*
X147866814Y-103766053D01*
X147866807Y-103766066D01*
X147810238Y-103902637D01*
X147810235Y-103902647D01*
X147781395Y-104047634D01*
X147781395Y-104047635D01*
X147781395Y-104047637D01*
X147781395Y-104195473D01*
X147781395Y-104195475D01*
X147781394Y-104195475D01*
X147810235Y-104340462D01*
X147810238Y-104340472D01*
X147866807Y-104477043D01*
X147866814Y-104477056D01*
X147948943Y-104599970D01*
X147952809Y-104604681D01*
X147950703Y-104606409D01*
X147978561Y-104657427D01*
X147981395Y-104683783D01*
X147981395Y-104740571D01*
X147991544Y-104804651D01*
X147996249Y-104834359D01*
X148053845Y-104947397D01*
X148053847Y-104947399D01*
X148053849Y-104947402D01*
X148143547Y-105037100D01*
X148143550Y-105037102D01*
X148143553Y-105037105D01*
X148143555Y-105037106D01*
X148151445Y-105042838D01*
X148150507Y-105044128D01*
X148193299Y-105084541D01*
X148210096Y-105152361D01*
X148187561Y-105218497D01*
X148132848Y-105261950D01*
X148086210Y-105271055D01*
X147709025Y-105271055D01*
X147709018Y-105271056D01*
X147649411Y-105277463D01*
X147551802Y-105313870D01*
X147519984Y-105325737D01*
X147514356Y-105326752D01*
X147511588Y-105328532D01*
X147476653Y-105333555D01*
X147356624Y-105333555D01*
X147289585Y-105313870D01*
X147268943Y-105297236D01*
X145618713Y-103647005D01*
X145585228Y-103585682D01*
X145582394Y-103559324D01*
X145582394Y-103502537D01*
X145575168Y-103456913D01*
X145567541Y-103408751D01*
X145560422Y-103394780D01*
X145547527Y-103326114D01*
X145573803Y-103261374D01*
X145630909Y-103221116D01*
X145696934Y-103218286D01*
X145696952Y-103218175D01*
X145697500Y-103218261D01*
X145700715Y-103218124D01*
X145705788Y-103219574D01*
X145800370Y-103234554D01*
X145800376Y-103234555D01*
X146163413Y-103234554D01*
X146257199Y-103219701D01*
X146370237Y-103162105D01*
X146459945Y-103072397D01*
X146517541Y-102959359D01*
X146517541Y-102959357D01*
X146517542Y-102959356D01*
X146529809Y-102881899D01*
X146931895Y-102881899D01*
X146938296Y-102941427D01*
X146938298Y-102941434D01*
X146988540Y-103076141D01*
X146988544Y-103076148D01*
X147074704Y-103191242D01*
X147074707Y-103191245D01*
X147189801Y-103277405D01*
X147189808Y-103277409D01*
X147324519Y-103327653D01*
X147381895Y-103333820D01*
X147381895Y-102446555D01*
X146931895Y-102446555D01*
X146931895Y-102881899D01*
X146529809Y-102881899D01*
X146532394Y-102865579D01*
X146532395Y-102865574D01*
X146532394Y-102243097D01*
X146552079Y-102176059D01*
X146568704Y-102155426D01*
X146720216Y-102003914D01*
X146781537Y-101970432D01*
X146851229Y-101975416D01*
G37*
%TD.AperFunction*%
%TA.AperFunction,Conductor*%
G36*
X143419848Y-95206235D02*
G01*
X143426326Y-95212267D01*
X146316083Y-98102024D01*
X146320970Y-98104845D01*
X146325363Y-98107915D01*
X146343992Y-98131172D01*
X146364558Y-98152742D01*
X146365599Y-98158148D01*
X146369043Y-98162447D01*
X146372141Y-98192089D01*
X146377780Y-98221349D01*
X146375733Y-98226460D01*
X146376306Y-98231939D01*
X146362887Y-98258548D01*
X146351812Y-98286213D01*
X146345152Y-98293716D01*
X146344846Y-98294325D01*
X146344357Y-98294613D01*
X146342024Y-98297242D01*
X146199823Y-98439443D01*
X146167140Y-98496055D01*
X146167139Y-98496056D01*
X146153681Y-98519364D01*
X146140872Y-98567169D01*
X146129795Y-98608510D01*
X146129795Y-99634598D01*
X146153122Y-99721657D01*
X146153682Y-99723744D01*
X146153683Y-99723747D01*
X146199821Y-99803659D01*
X146199824Y-99803663D01*
X146199826Y-99803666D01*
X146265083Y-99868923D01*
X146265086Y-99868924D01*
X146265089Y-99868927D01*
X146345001Y-99915065D01*
X146345002Y-99915065D01*
X146345007Y-99915068D01*
X146434151Y-99938954D01*
X146526439Y-99938954D01*
X147461609Y-99938954D01*
X147528648Y-99958639D01*
X147574403Y-100011443D01*
X147584347Y-100080601D01*
X147565007Y-100131400D01*
X147558115Y-100141810D01*
X147541386Y-100158540D01*
X147502794Y-100225380D01*
X147500694Y-100228554D01*
X147497983Y-100230838D01*
X147484977Y-100247789D01*
X146454825Y-101277942D01*
X146393502Y-101311427D01*
X146323810Y-101306443D01*
X146310852Y-101300747D01*
X146288705Y-101289462D01*
X146257198Y-101273408D01*
X146257196Y-101273407D01*
X146163419Y-101258555D01*
X145800377Y-101258555D01*
X145719414Y-101271378D01*
X145706591Y-101273409D01*
X145593553Y-101331005D01*
X145593552Y-101331006D01*
X145585654Y-101336744D01*
X145584788Y-101335552D01*
X145532753Y-101363966D01*
X145463061Y-101358982D01*
X145407128Y-101317110D01*
X145382711Y-101251646D01*
X145382395Y-101242800D01*
X145382395Y-98974812D01*
X145382395Y-98974810D01*
X145358509Y-98885666D01*
X145312365Y-98805742D01*
X144047707Y-97541084D01*
X144047706Y-97541083D01*
X144047703Y-97541081D01*
X143967785Y-97494941D01*
X143960276Y-97491831D01*
X143961557Y-97488738D01*
X143915150Y-97460381D01*
X143884689Y-97397501D01*
X143882995Y-97377072D01*
X143882995Y-96930979D01*
X143882994Y-96930977D01*
X143868462Y-96857920D01*
X143868461Y-96857916D01*
X143843087Y-96819941D01*
X143813096Y-96775055D01*
X143749389Y-96732488D01*
X143730234Y-96719689D01*
X143730230Y-96719688D01*
X143657172Y-96705156D01*
X143657169Y-96705156D01*
X143338645Y-96705156D01*
X143271606Y-96685471D01*
X143225851Y-96632667D01*
X143214645Y-96581156D01*
X143214645Y-95299948D01*
X143234330Y-95232909D01*
X143287134Y-95187154D01*
X143356292Y-95177210D01*
X143419848Y-95206235D01*
G37*
%TD.AperFunction*%
%TA.AperFunction,Conductor*%
G36*
X155452390Y-88116740D02*
G01*
X155473032Y-88133374D01*
X155595076Y-88255418D01*
X155628561Y-88316741D01*
X155631395Y-88343099D01*
X155631395Y-88419030D01*
X155655214Y-88507922D01*
X155668912Y-88559043D01*
X155741383Y-88684566D01*
X155746333Y-88691016D01*
X155745264Y-88691835D01*
X155774675Y-88745697D01*
X155769691Y-88815389D01*
X155727819Y-88871322D01*
X155662355Y-88895739D01*
X155653509Y-88896055D01*
X151842375Y-88896055D01*
X151775336Y-88876370D01*
X151741863Y-88839926D01*
X151740206Y-88841150D01*
X151734687Y-88833672D01*
X151654045Y-88724405D01*
X151544777Y-88643762D01*
X151544775Y-88643761D01*
X151458568Y-88613596D01*
X151401792Y-88572874D01*
X151376045Y-88507922D01*
X151389501Y-88439360D01*
X151437889Y-88388957D01*
X151458568Y-88379514D01*
X151483305Y-88370857D01*
X151544777Y-88349348D01*
X151654045Y-88268705D01*
X151734688Y-88159437D01*
X151734689Y-88159435D01*
X151740206Y-88151960D01*
X151742180Y-88153417D01*
X151781475Y-88113040D01*
X151842375Y-88097055D01*
X155385351Y-88097055D01*
X155452390Y-88116740D01*
G37*
%TD.AperFunction*%
%TA.AperFunction,Conductor*%
G36*
X155314791Y-86605699D02*
G01*
X155344778Y-86612223D01*
X155349793Y-86615977D01*
X155352390Y-86616740D01*
X155373032Y-86633374D01*
X155495076Y-86755418D01*
X155528561Y-86816741D01*
X155531395Y-86843099D01*
X155531395Y-86919030D01*
X155567494Y-87053750D01*
X155568912Y-87059043D01*
X155641383Y-87184566D01*
X155646333Y-87191016D01*
X155645264Y-87191835D01*
X155674675Y-87245697D01*
X155669691Y-87315389D01*
X155627819Y-87371322D01*
X155562355Y-87395739D01*
X155553509Y-87396055D01*
X151842375Y-87396055D01*
X151775336Y-87376370D01*
X151741863Y-87339926D01*
X151740206Y-87341150D01*
X151734687Y-87333672D01*
X151654045Y-87224405D01*
X151544777Y-87143762D01*
X151544775Y-87143761D01*
X151458568Y-87113596D01*
X151401792Y-87072874D01*
X151376045Y-87007922D01*
X151389501Y-86939360D01*
X151437889Y-86888957D01*
X151458568Y-86879514D01*
X151483305Y-86870857D01*
X151544777Y-86849348D01*
X151654045Y-86768705D01*
X151734688Y-86659437D01*
X151734689Y-86659435D01*
X151740206Y-86651960D01*
X151742180Y-86653417D01*
X151781475Y-86613040D01*
X151842375Y-86597055D01*
X155285351Y-86597055D01*
X155314791Y-86605699D01*
G37*
%TD.AperFunction*%
%TA.AperFunction,Conductor*%
G36*
X144567158Y-83722745D02*
G01*
X144567159Y-83722745D01*
X144968040Y-83722745D01*
X144968042Y-83722745D01*
X144993409Y-83717699D01*
X145041790Y-83717699D01*
X145067157Y-83722745D01*
X145315110Y-83722745D01*
X145382149Y-83742430D01*
X145427904Y-83795234D01*
X145439110Y-83846745D01*
X145439110Y-84090702D01*
X145444155Y-84116069D01*
X145444155Y-84164441D01*
X145439110Y-84189807D01*
X145439110Y-84590696D01*
X145440985Y-84600124D01*
X145443367Y-84624313D01*
X145443367Y-84656198D01*
X145440985Y-84680384D01*
X145439110Y-84689809D01*
X145439110Y-85090696D01*
X145440275Y-85096553D01*
X145440984Y-85100117D01*
X145443367Y-85124311D01*
X145443367Y-85734844D01*
X145476583Y-85734844D01*
X145485516Y-85733542D01*
X145503285Y-85736061D01*
X145521047Y-85733508D01*
X145537157Y-85740865D01*
X145554693Y-85743352D01*
X145568278Y-85755077D01*
X145584603Y-85762533D01*
X145594178Y-85777432D01*
X145607586Y-85789005D01*
X145612675Y-85806214D01*
X145622377Y-85821311D01*
X145627332Y-85855778D01*
X145627400Y-85856006D01*
X145627400Y-85947392D01*
X145607715Y-86014431D01*
X145591081Y-86035073D01*
X145118863Y-86507291D01*
X145057540Y-86540776D01*
X145031182Y-86543610D01*
X144748411Y-86543610D01*
X144681372Y-86523925D01*
X144637925Y-86475902D01*
X144631613Y-86463514D01*
X144618101Y-86407225D01*
X144618101Y-86225941D01*
X144637786Y-86158902D01*
X144654420Y-86138260D01*
X144679871Y-86112809D01*
X144708110Y-86084570D01*
X144780585Y-85959040D01*
X144816032Y-85826748D01*
X144828751Y-85805881D01*
X144837621Y-85783111D01*
X144846612Y-85776580D01*
X144852397Y-85767090D01*
X144874380Y-85756411D01*
X144894153Y-85742050D01*
X144909361Y-85739418D01*
X144915245Y-85736561D01*
X144928745Y-85735045D01*
X145010536Y-85730379D01*
X145015239Y-85731473D01*
X145035476Y-85731474D01*
X145058611Y-85734844D01*
X145091831Y-85734843D01*
X145091831Y-84458264D01*
X145058609Y-84458265D01*
X145058603Y-84458266D01*
X145035473Y-84461635D01*
X144999729Y-84461635D01*
X144976592Y-84458265D01*
X144943368Y-84458265D01*
X144943368Y-84972555D01*
X144940817Y-84981240D01*
X144942106Y-84990202D01*
X144931127Y-85014242D01*
X144923683Y-85039594D01*
X144916842Y-85045521D01*
X144913081Y-85053758D01*
X144890846Y-85068047D01*
X144870879Y-85085349D01*
X144860364Y-85087636D01*
X144854303Y-85091532D01*
X144819368Y-85096555D01*
X144817869Y-85096555D01*
X144750830Y-85076870D01*
X144705075Y-85024066D01*
X144693869Y-84972555D01*
X144693869Y-84783588D01*
X144693868Y-84783586D01*
X144679336Y-84710529D01*
X144679335Y-84710528D01*
X144679335Y-84710525D01*
X144623970Y-84627664D01*
X144617185Y-84617509D01*
X144619484Y-84615972D01*
X144594666Y-84570521D01*
X144591832Y-84544163D01*
X144591832Y-84458264D01*
X144558619Y-84458265D01*
X144490583Y-84468177D01*
X144385640Y-84519480D01*
X144383675Y-84521446D01*
X144380325Y-84523275D01*
X144377279Y-84525450D01*
X144377016Y-84525081D01*
X144356747Y-84536149D01*
X144330929Y-84552742D01*
X144324728Y-84553633D01*
X144322352Y-84554931D01*
X144295994Y-84557765D01*
X144099541Y-84557765D01*
X144032502Y-84538080D01*
X144030651Y-84536867D01*
X143943333Y-84478523D01*
X143943325Y-84478520D01*
X143870267Y-84463988D01*
X143870264Y-84463988D01*
X143244336Y-84463988D01*
X143244333Y-84463988D01*
X143171274Y-84478520D01*
X143171269Y-84478522D01*
X143143533Y-84497055D01*
X143110900Y-84518858D01*
X143092856Y-84524508D01*
X143076947Y-84534733D01*
X143045985Y-84539184D01*
X143044225Y-84539736D01*
X143042012Y-84539756D01*
X142804983Y-84539756D01*
X142737944Y-84520071D01*
X142717302Y-84503438D01*
X142672128Y-84458264D01*
X142619910Y-84406046D01*
X142619907Y-84406044D01*
X142619906Y-84406043D01*
X142494383Y-84333572D01*
X142494384Y-84333572D01*
X142457041Y-84323566D01*
X142354370Y-84296055D01*
X142209420Y-84296055D01*
X142106749Y-84323566D01*
X142069406Y-84333572D01*
X141943883Y-84406043D01*
X141943877Y-84406048D01*
X141841388Y-84508537D01*
X141841383Y-84508543D01*
X141768912Y-84634066D01*
X141768911Y-84634070D01*
X141731395Y-84774080D01*
X141731395Y-84919030D01*
X141765289Y-85045521D01*
X141768912Y-85059043D01*
X141841383Y-85184566D01*
X141841385Y-85184568D01*
X141841386Y-85184570D01*
X141943880Y-85287064D01*
X141943881Y-85287065D01*
X141943883Y-85287066D01*
X142069406Y-85359537D01*
X142069407Y-85359537D01*
X142069410Y-85359539D01*
X142209420Y-85397055D01*
X142209423Y-85397055D01*
X142354367Y-85397055D01*
X142354370Y-85397055D01*
X142494380Y-85359539D01*
X142619910Y-85287064D01*
X142629899Y-85277075D01*
X142691222Y-85243590D01*
X142717580Y-85240756D01*
X143042012Y-85240756D01*
X143109051Y-85260441D01*
X143110846Y-85261616D01*
X143171270Y-85301990D01*
X143171272Y-85301990D01*
X143171274Y-85301991D01*
X143244331Y-85316523D01*
X143244334Y-85316524D01*
X143244336Y-85316524D01*
X143665443Y-85316524D01*
X143732482Y-85336209D01*
X143778237Y-85389013D01*
X143788181Y-85458171D01*
X143772830Y-85502523D01*
X143754617Y-85534070D01*
X143717101Y-85674080D01*
X143717101Y-85819030D01*
X143750564Y-85943913D01*
X143754618Y-85959043D01*
X143827089Y-86084566D01*
X143827094Y-86084572D01*
X143873994Y-86131472D01*
X143887474Y-86156158D01*
X143903685Y-86179155D01*
X143903996Y-86186416D01*
X143907479Y-86192795D01*
X143905472Y-86220854D01*
X143906677Y-86248960D01*
X143903013Y-86255236D01*
X143902495Y-86262487D01*
X143885635Y-86285007D01*
X143871455Y-86309302D01*
X143862972Y-86315282D01*
X143860623Y-86318420D01*
X143842608Y-86329638D01*
X143824240Y-86338997D01*
X143755571Y-86351893D01*
X143693634Y-86327779D01*
X143579144Y-86242071D01*
X143447121Y-86192829D01*
X143447115Y-86192827D01*
X143401895Y-86187965D01*
X143401895Y-86722555D01*
X143382210Y-86789594D01*
X143329406Y-86835349D01*
X143277895Y-86846555D01*
X143201895Y-86846555D01*
X143201895Y-86922555D01*
X143182210Y-86989594D01*
X143129406Y-87035349D01*
X143077895Y-87046555D01*
X142654616Y-87046555D01*
X142587577Y-87026870D01*
X142566935Y-87010236D01*
X142186367Y-86629668D01*
X142571895Y-86629668D01*
X142571895Y-86646555D01*
X143001895Y-86646555D01*
X143001895Y-86187966D01*
X143001894Y-86187965D01*
X142956674Y-86192827D01*
X142956668Y-86192829D01*
X142824645Y-86242071D01*
X142711850Y-86326510D01*
X142627411Y-86439305D01*
X142578168Y-86571330D01*
X142571895Y-86629668D01*
X142186367Y-86629668D01*
X139765435Y-84208736D01*
X139752294Y-84184671D01*
X142919010Y-84184671D01*
X142919010Y-84214487D01*
X144195589Y-84214487D01*
X144195589Y-84181269D01*
X144192218Y-84158126D01*
X144192219Y-84122372D01*
X144195590Y-84099238D01*
X144195590Y-84066023D01*
X142919011Y-84066023D01*
X142919011Y-84099242D01*
X142922381Y-84122376D01*
X142922381Y-84137174D01*
X142922677Y-84155962D01*
X142919010Y-84184671D01*
X139752294Y-84184671D01*
X139731950Y-84147413D01*
X139736934Y-84077721D01*
X139778806Y-84021788D01*
X139844270Y-83997371D01*
X139853116Y-83997055D01*
X139954367Y-83997055D01*
X139954370Y-83997055D01*
X140094380Y-83959539D01*
X140219910Y-83887064D01*
X140244214Y-83862760D01*
X140305537Y-83829275D01*
X140375229Y-83834259D01*
X140419576Y-83862760D01*
X140443880Y-83887064D01*
X140443881Y-83887065D01*
X140443883Y-83887066D01*
X140569406Y-83959537D01*
X140569407Y-83959537D01*
X140569410Y-83959539D01*
X140709420Y-83997055D01*
X140709423Y-83997055D01*
X140854367Y-83997055D01*
X140854370Y-83997055D01*
X140994380Y-83959539D01*
X141119910Y-83887064D01*
X141222404Y-83784570D01*
X141222404Y-83784569D01*
X141228151Y-83778823D01*
X141230239Y-83780911D01*
X141275234Y-83748062D01*
X141317175Y-83740754D01*
X143042012Y-83740754D01*
X143109051Y-83760439D01*
X143110846Y-83761614D01*
X143171270Y-83801988D01*
X143171272Y-83801988D01*
X143171274Y-83801989D01*
X143244331Y-83816521D01*
X143244334Y-83816522D01*
X143244336Y-83816522D01*
X143870266Y-83816522D01*
X143870267Y-83816521D01*
X143943330Y-83801988D01*
X144026191Y-83746623D01*
X144026191Y-83746622D01*
X144030652Y-83743642D01*
X144097330Y-83722765D01*
X144099542Y-83722745D01*
X144468041Y-83722745D01*
X144468043Y-83722745D01*
X144493410Y-83717699D01*
X144541791Y-83717699D01*
X144567158Y-83722745D01*
G37*
%TD.AperFunction*%
%TA.AperFunction,Conductor*%
G36*
X155452390Y-85116740D02*
G01*
X155473032Y-85133374D01*
X155519305Y-85179647D01*
X155552790Y-85240970D01*
X155551399Y-85299420D01*
X155531395Y-85374078D01*
X155531395Y-85374080D01*
X155531395Y-85519030D01*
X155568911Y-85659040D01*
X155568912Y-85659043D01*
X155598364Y-85710055D01*
X155614837Y-85777955D01*
X155591984Y-85843982D01*
X155537063Y-85887173D01*
X155490977Y-85896055D01*
X151842375Y-85896055D01*
X151775336Y-85876370D01*
X151741863Y-85839926D01*
X151740206Y-85841150D01*
X151734687Y-85833672D01*
X151654045Y-85724405D01*
X151544777Y-85643762D01*
X151544775Y-85643761D01*
X151458568Y-85613596D01*
X151401792Y-85572874D01*
X151376045Y-85507922D01*
X151389501Y-85439360D01*
X151437889Y-85388957D01*
X151458568Y-85379514D01*
X151483305Y-85370857D01*
X151544777Y-85349348D01*
X151654045Y-85268705D01*
X151734688Y-85159437D01*
X151734689Y-85159435D01*
X151740206Y-85151960D01*
X151742180Y-85153417D01*
X151781475Y-85113040D01*
X151842375Y-85097055D01*
X155385351Y-85097055D01*
X155452390Y-85116740D01*
G37*
%TD.AperFunction*%
%TA.AperFunction,Conductor*%
G36*
X149703390Y-82367740D02*
G01*
X149724032Y-82384374D01*
X150795076Y-83455418D01*
X150828561Y-83516741D01*
X150831395Y-83543099D01*
X150831395Y-83619030D01*
X150868911Y-83759040D01*
X150868912Y-83759043D01*
X150941383Y-83884566D01*
X150946333Y-83891016D01*
X150945264Y-83891835D01*
X150974675Y-83945697D01*
X150969691Y-84015389D01*
X150927819Y-84071322D01*
X150862355Y-84095739D01*
X150853509Y-84096055D01*
X149619766Y-84096055D01*
X149552727Y-84076370D01*
X149506972Y-84023566D01*
X149497028Y-83954408D01*
X149499991Y-83939961D01*
X149501141Y-83935669D01*
X149532395Y-83819030D01*
X149532395Y-83674080D01*
X149494879Y-83534070D01*
X149478700Y-83506048D01*
X149422406Y-83408543D01*
X149422401Y-83408537D01*
X149319912Y-83306048D01*
X149319906Y-83306043D01*
X149194383Y-83233572D01*
X149194384Y-83233572D01*
X149182901Y-83230495D01*
X149054370Y-83196055D01*
X148909420Y-83196055D01*
X148780888Y-83230495D01*
X148769406Y-83233572D01*
X148643883Y-83306043D01*
X148643877Y-83306048D01*
X148541388Y-83408537D01*
X148541383Y-83408543D01*
X148468912Y-83534066D01*
X148468911Y-83534070D01*
X148431395Y-83674080D01*
X148431395Y-83674082D01*
X148431395Y-83750010D01*
X148422750Y-83779450D01*
X148416227Y-83809437D01*
X148412472Y-83814452D01*
X148411710Y-83817049D01*
X148395076Y-83837691D01*
X148244076Y-83988691D01*
X148182753Y-84022176D01*
X148113061Y-84017192D01*
X148057128Y-83975320D01*
X148032711Y-83909856D01*
X148032395Y-83901010D01*
X148032395Y-83874082D01*
X148032395Y-83874080D01*
X147994879Y-83734070D01*
X147993959Y-83732477D01*
X147922406Y-83608543D01*
X147922401Y-83608537D01*
X147819912Y-83506048D01*
X147819906Y-83506043D01*
X147694383Y-83433572D01*
X147694384Y-83433572D01*
X147682901Y-83430495D01*
X147554370Y-83396055D01*
X147409420Y-83396055D01*
X147280888Y-83430495D01*
X147269406Y-83433572D01*
X147143883Y-83506043D01*
X147143877Y-83506048D01*
X147041388Y-83608537D01*
X147041383Y-83608543D01*
X146968912Y-83734066D01*
X146968911Y-83734070D01*
X146931395Y-83874080D01*
X146931395Y-83874082D01*
X146931395Y-83915755D01*
X146928844Y-83924440D01*
X146930133Y-83933402D01*
X146919154Y-83957442D01*
X146911710Y-83982794D01*
X146904869Y-83988721D01*
X146901108Y-83996958D01*
X146878873Y-84011247D01*
X146858906Y-84028549D01*
X146848391Y-84030836D01*
X146842330Y-84034732D01*
X146807395Y-84039755D01*
X146640690Y-84039755D01*
X146573651Y-84020070D01*
X146527896Y-83967266D01*
X146516690Y-83915755D01*
X146516690Y-83689813D01*
X146513560Y-83674080D01*
X146511644Y-83664445D01*
X146511644Y-83616063D01*
X146516690Y-83590696D01*
X146516690Y-83189812D01*
X146516690Y-83189809D01*
X146516689Y-83189807D01*
X146502157Y-83116750D01*
X146502156Y-83116746D01*
X146494876Y-83105850D01*
X146446791Y-83033885D01*
X146363930Y-82978520D01*
X146363929Y-82978519D01*
X146363925Y-82978518D01*
X146290867Y-82963986D01*
X146290864Y-82963986D01*
X146282612Y-82963986D01*
X146215573Y-82944301D01*
X146169818Y-82891497D01*
X146159874Y-82822339D01*
X146188899Y-82758783D01*
X146194931Y-82752305D01*
X146562862Y-82384374D01*
X146624185Y-82350889D01*
X146650543Y-82348055D01*
X149636351Y-82348055D01*
X149703390Y-82367740D01*
G37*
%TD.AperFunction*%
%TA.AperFunction,Conductor*%
G36*
X150952390Y-81116740D02*
G01*
X150973032Y-81133374D01*
X151595076Y-81755418D01*
X151628561Y-81816741D01*
X151631395Y-81843099D01*
X151631395Y-82881889D01*
X151611710Y-82948928D01*
X151558906Y-82994683D01*
X151489748Y-83004627D01*
X151475305Y-83001664D01*
X151454370Y-82996055D01*
X151454369Y-82996055D01*
X151378439Y-82996055D01*
X151311400Y-82976370D01*
X151290758Y-82959736D01*
X150048108Y-81717086D01*
X150048103Y-81717082D01*
X149968185Y-81670942D01*
X149968184Y-81670941D01*
X149968183Y-81670941D01*
X149879039Y-81647055D01*
X146407855Y-81647055D01*
X146318711Y-81670941D01*
X146318708Y-81670942D01*
X146238790Y-81717082D01*
X146238785Y-81717086D01*
X145347026Y-82608846D01*
X145320098Y-82623549D01*
X145294280Y-82640142D01*
X145288079Y-82641033D01*
X145285703Y-82642331D01*
X145259345Y-82645165D01*
X145242100Y-82645165D01*
X145175061Y-82625480D01*
X145129306Y-82572676D01*
X145118100Y-82521165D01*
X145118100Y-81257393D01*
X145137785Y-81190354D01*
X145154419Y-81169712D01*
X145190757Y-81133374D01*
X145252080Y-81099889D01*
X145278438Y-81097055D01*
X150885351Y-81097055D01*
X150952390Y-81116740D01*
G37*
%TD.AperFunction*%
%TD*%
M02*
