%TF.GenerationSoftware,KiCad,Pcbnew,9.0.2*%
%TF.CreationDate,2025-09-15T18:44:55-04:00*%
%TF.ProjectId,flight-computer,666c6967-6874-42d6-936f-6d7075746572,rev?*%
%TF.SameCoordinates,Original*%
%TF.FileFunction,Paste,Bot*%
%TF.FilePolarity,Positive*%
%FSLAX46Y46*%
G04 Gerber Fmt 4.6, Leading zero omitted, Abs format (unit mm)*
G04 Created by KiCad (PCBNEW 9.0.2) date 2025-09-15 18:44:55*
%MOMM*%
%LPD*%
G01*
G04 APERTURE LIST*
G04 Aperture macros list*
%AMRoundRect*
0 Rectangle with rounded corners*
0 $1 Rounding radius*
0 $2 $3 $4 $5 $6 $7 $8 $9 X,Y pos of 4 corners*
0 Add a 4 corners polygon primitive as box body*
4,1,4,$2,$3,$4,$5,$6,$7,$8,$9,$2,$3,0*
0 Add four circle primitives for the rounded corners*
1,1,$1+$1,$2,$3*
1,1,$1+$1,$4,$5*
1,1,$1+$1,$6,$7*
1,1,$1+$1,$8,$9*
0 Add four rect primitives between the rounded corners*
20,1,$1+$1,$2,$3,$4,$5,0*
20,1,$1+$1,$4,$5,$6,$7,0*
20,1,$1+$1,$6,$7,$8,$9,0*
20,1,$1+$1,$8,$9,$2,$3,0*%
G04 Aperture macros list end*
%ADD10RoundRect,0.140000X0.170000X-0.140000X0.170000X0.140000X-0.170000X0.140000X-0.170000X-0.140000X0*%
%ADD11RoundRect,0.135000X-0.185000X0.135000X-0.185000X-0.135000X0.185000X-0.135000X0.185000X0.135000X0*%
%ADD12R,0.812800X1.193800*%
%ADD13R,1.498600X2.006600*%
%ADD14R,0.900000X0.900000*%
%ADD15R,1.500000X0.900000*%
%ADD16R,0.900000X1.500000*%
G04 APERTURE END LIST*
D10*
%TO.C,C5*%
X155561895Y-82486555D03*
X155561895Y-81526555D03*
%TD*%
D11*
%TO.C,R4*%
X143481895Y-124486555D03*
X143481895Y-125506555D03*
%TD*%
D12*
%TO.C,J4*%
X141656895Y-115770256D03*
X142756895Y-115770256D03*
X143856896Y-115770256D03*
X144956896Y-115770256D03*
X146056894Y-115770256D03*
X147156894Y-115770256D03*
X148256895Y-115770256D03*
X149356895Y-115770256D03*
D13*
X151826895Y-117970256D03*
X151826895Y-109770255D03*
X137936895Y-117970256D03*
X137936895Y-109770255D03*
%TD*%
D14*
%TO.C,U2*%
X147667600Y-90400000D03*
X147667600Y-89000000D03*
X147667600Y-87600000D03*
X146267600Y-90400000D03*
X146267600Y-89000000D03*
X146267600Y-87600000D03*
X144867600Y-90400000D03*
X144867600Y-89000000D03*
X144867600Y-87600000D03*
D15*
X153517600Y-81280000D03*
X153517600Y-82550000D03*
X153517600Y-83820000D03*
X153517600Y-85090000D03*
X153517600Y-86360000D03*
X153517600Y-87630000D03*
X153517600Y-88900000D03*
X153517600Y-90170000D03*
X153517600Y-91440000D03*
X153517600Y-92710000D03*
X153517600Y-93980000D03*
X153517600Y-95250000D03*
X153517600Y-96520000D03*
X153517600Y-97790000D03*
D16*
X151752600Y-99040000D03*
X150482600Y-99040000D03*
X149212600Y-99040000D03*
X147942600Y-99040000D03*
X146672600Y-99040000D03*
X145402600Y-99040000D03*
X144132600Y-99040000D03*
X142862600Y-99040000D03*
X141592600Y-99040000D03*
X140322600Y-99040000D03*
X139052600Y-99040000D03*
X137782600Y-99040000D03*
D15*
X136017600Y-97790000D03*
X136017600Y-96520000D03*
X136017600Y-95250000D03*
X136017600Y-93980000D03*
X136017600Y-92710000D03*
X136017600Y-91440000D03*
X136017600Y-90170000D03*
X136017600Y-88900000D03*
X136017600Y-87630000D03*
X136017600Y-86360000D03*
X136017600Y-85090000D03*
X136017600Y-83820000D03*
X136017600Y-82550000D03*
X136017600Y-81280000D03*
%TD*%
D11*
%TO.C,R5*%
X146231895Y-124486555D03*
X146231895Y-125506555D03*
%TD*%
M02*
