%TF.GenerationSoftware,KiCad,Pcbnew,9.0.2*%
%TF.CreationDate,2025-09-15T18:44:55-04:00*%
%TF.ProjectId,flight-computer,666c6967-6874-42d6-936f-6d7075746572,rev?*%
%TF.SameCoordinates,Original*%
%TF.FileFunction,Copper,L1,Top*%
%TF.FilePolarity,Positive*%
%FSLAX46Y46*%
G04 Gerber Fmt 4.6, Leading zero omitted, Abs format (unit mm)*
G04 Created by KiCad (PCBNEW 9.0.2) date 2025-09-15 18:44:55*
%MOMM*%
%LPD*%
G01*
G04 APERTURE LIST*
G04 Aperture macros list*
%AMRoundRect*
0 Rectangle with rounded corners*
0 $1 Rounding radius*
0 $2 $3 $4 $5 $6 $7 $8 $9 X,Y pos of 4 corners*
0 Add a 4 corners polygon primitive as box body*
4,1,4,$2,$3,$4,$5,$6,$7,$8,$9,$2,$3,0*
0 Add four circle primitives for the rounded corners*
1,1,$1+$1,$2,$3*
1,1,$1+$1,$4,$5*
1,1,$1+$1,$6,$7*
1,1,$1+$1,$8,$9*
0 Add four rect primitives between the rounded corners*
20,1,$1+$1,$2,$3,$4,$5,0*
20,1,$1+$1,$4,$5,$6,$7,0*
20,1,$1+$1,$6,$7,$8,$9,0*
20,1,$1+$1,$8,$9,$2,$3,0*%
G04 Aperture macros list end*
%TA.AperFunction,SMDPad,CuDef*%
%ADD10RoundRect,0.150000X-0.150000X-0.425000X0.150000X-0.425000X0.150000X0.425000X-0.150000X0.425000X0*%
%TD*%
%TA.AperFunction,SMDPad,CuDef*%
%ADD11RoundRect,0.075000X-0.075000X-0.500000X0.075000X-0.500000X0.075000X0.500000X-0.075000X0.500000X0*%
%TD*%
%TA.AperFunction,HeatsinkPad*%
%ADD12O,1.000000X2.100000*%
%TD*%
%TA.AperFunction,HeatsinkPad*%
%ADD13O,1.000000X1.800000*%
%TD*%
%TA.AperFunction,SMDPad,CuDef*%
%ADD14RoundRect,0.175000X1.175000X-0.175000X1.175000X0.175000X-1.175000X0.175000X-1.175000X-0.175000X0*%
%TD*%
%TA.AperFunction,SMDPad,CuDef*%
%ADD15RoundRect,0.250000X0.700000X-0.300000X0.700000X0.300000X-0.700000X0.300000X-0.700000X-0.300000X0*%
%TD*%
%TA.AperFunction,ComponentPad*%
%ADD16C,3.800000*%
%TD*%
%TA.AperFunction,SMDPad,CuDef*%
%ADD17RoundRect,0.135000X-0.135000X-0.185000X0.135000X-0.185000X0.135000X0.185000X-0.135000X0.185000X0*%
%TD*%
%TA.AperFunction,SMDPad,CuDef*%
%ADD18R,1.219200X0.508000*%
%TD*%
%TA.AperFunction,SMDPad,CuDef*%
%ADD19RoundRect,0.135000X0.135000X0.185000X-0.135000X0.185000X-0.135000X-0.185000X0.135000X-0.185000X0*%
%TD*%
%TA.AperFunction,SMDPad,CuDef*%
%ADD20RoundRect,0.175000X-1.175000X0.175000X-1.175000X-0.175000X1.175000X-0.175000X1.175000X0.175000X0*%
%TD*%
%TA.AperFunction,SMDPad,CuDef*%
%ADD21RoundRect,0.250000X-0.700000X0.300000X-0.700000X-0.300000X0.700000X-0.300000X0.700000X0.300000X0*%
%TD*%
%TA.AperFunction,ComponentPad*%
%ADD22R,1.700000X1.700000*%
%TD*%
%TA.AperFunction,ComponentPad*%
%ADD23C,1.700000*%
%TD*%
%TA.AperFunction,SMDPad,CuDef*%
%ADD24RoundRect,0.140000X0.140000X0.170000X-0.140000X0.170000X-0.140000X-0.170000X0.140000X-0.170000X0*%
%TD*%
%TA.AperFunction,SMDPad,CuDef*%
%ADD25RoundRect,0.150000X-0.150000X0.587500X-0.150000X-0.587500X0.150000X-0.587500X0.150000X0.587500X0*%
%TD*%
%TA.AperFunction,SMDPad,CuDef*%
%ADD26R,0.576580X0.351536*%
%TD*%
%TA.AperFunction,SMDPad,CuDef*%
%ADD27R,0.351536X0.576580*%
%TD*%
%TA.AperFunction,SMDPad,CuDef*%
%ADD28RoundRect,0.250000X0.500000X-0.950000X0.500000X0.950000X-0.500000X0.950000X-0.500000X-0.950000X0*%
%TD*%
%TA.AperFunction,SMDPad,CuDef*%
%ADD29RoundRect,0.250000X0.500000X-0.275000X0.500000X0.275000X-0.500000X0.275000X-0.500000X-0.275000X0*%
%TD*%
%TA.AperFunction,SMDPad,CuDef*%
%ADD30RoundRect,0.140000X-0.170000X0.140000X-0.170000X-0.140000X0.170000X-0.140000X0.170000X0.140000X0*%
%TD*%
%TA.AperFunction,SMDPad,CuDef*%
%ADD31RoundRect,0.250000X0.650000X-0.325000X0.650000X0.325000X-0.650000X0.325000X-0.650000X-0.325000X0*%
%TD*%
%TA.AperFunction,SMDPad,CuDef*%
%ADD32R,4.597400X1.295400*%
%TD*%
%TA.AperFunction,SMDPad,CuDef*%
%ADD33RoundRect,0.140000X0.170000X-0.140000X0.170000X0.140000X-0.170000X0.140000X-0.170000X-0.140000X0*%
%TD*%
%TA.AperFunction,SMDPad,CuDef*%
%ADD34RoundRect,0.150000X-0.512500X-0.150000X0.512500X-0.150000X0.512500X0.150000X-0.512500X0.150000X0*%
%TD*%
%TA.AperFunction,HeatsinkPad*%
%ADD35C,0.600000*%
%TD*%
%TA.AperFunction,ViaPad*%
%ADD36C,0.600000*%
%TD*%
%TA.AperFunction,Conductor*%
%ADD37C,0.350000*%
%TD*%
%TA.AperFunction,Conductor*%
%ADD38C,0.200000*%
%TD*%
%TA.AperFunction,Conductor*%
%ADD39C,0.300000*%
%TD*%
G04 APERTURE END LIST*
D10*
%TO.P,J5,A1,GND*%
%TO.N,GND*%
X141461895Y-122566555D03*
%TO.P,J5,A4,VBUS*%
%TO.N,Net-(D1-A)*%
X142261895Y-122566555D03*
D11*
%TO.P,J5,A5,CC1*%
%TO.N,Net-(J5-CC1)*%
X143411895Y-122566555D03*
%TO.P,J5,A6,D+*%
%TO.N,USB_D+*%
X144411895Y-122566555D03*
%TO.P,J5,A7,D-*%
%TO.N,USB_D-*%
X144911895Y-122566555D03*
%TO.P,J5,A8,SBU1*%
%TO.N,unconnected-(J5-SBU1-PadA8)*%
X145911895Y-122566555D03*
D10*
%TO.P,J5,A9,VBUS*%
%TO.N,Net-(D1-A)*%
X147061895Y-122566555D03*
%TO.P,J5,A12,GND*%
%TO.N,GND*%
X147861895Y-122566555D03*
%TO.P,J5,B1,GND*%
X147861895Y-122566555D03*
%TO.P,J5,B4,VBUS*%
%TO.N,Net-(D1-A)*%
X147061895Y-122566555D03*
D11*
%TO.P,J5,B5,CC2*%
%TO.N,Net-(J5-CC2)*%
X146411895Y-122566555D03*
%TO.P,J5,B6,D+*%
%TO.N,USB_D+*%
X145411895Y-122566555D03*
%TO.P,J5,B7,D-*%
%TO.N,USB_D-*%
X143911895Y-122566555D03*
%TO.P,J5,B8,SBU2*%
%TO.N,unconnected-(J5-SBU2-PadB8)*%
X142911895Y-122566555D03*
D10*
%TO.P,J5,B9,VBUS*%
%TO.N,Net-(D1-A)*%
X142261895Y-122566555D03*
%TO.P,J5,B12,GND*%
%TO.N,GND*%
X141461895Y-122566555D03*
D12*
%TO.P,J5,S1,SHIELD*%
%TO.N,unconnected-(J5-SHIELD-PadS1)*%
X140341895Y-123141555D03*
D13*
%TO.N,unconnected-(J5-SHIELD-PadS1)_1*%
X140341895Y-127321555D03*
D12*
%TO.N,unconnected-(J5-SHIELD-PadS1)_2*%
X148981895Y-123141555D03*
D13*
%TO.N,unconnected-(J5-SHIELD-PadS1)_3*%
X148981895Y-127321555D03*
%TD*%
D14*
%TO.P,J2,1,Pin_1*%
%TO.N,FIN_RST*%
X152231895Y-92246555D03*
%TO.P,J2,2,Pin_2*%
%TO.N,FIN_CLK*%
X152231895Y-90746555D03*
%TO.P,J2,3,Pin_3*%
%TO.N,FIN_CS4*%
X152231895Y-89246555D03*
%TO.P,J2,4,Pin_4*%
%TO.N,FIN_CS3*%
X152231895Y-87746555D03*
%TO.P,J2,5,Pin_5*%
%TO.N,FIN_CS2*%
X152231895Y-86246555D03*
%TO.P,J2,6,Pin_6*%
%TO.N,FIN_CS1*%
X152231895Y-84746555D03*
D15*
%TO.P,J2,MP*%
%TO.N,N/C*%
X155931895Y-94196555D03*
X155931895Y-82796555D03*
%TD*%
D16*
%TO.P,H2,1,1*%
%TO.N,GND*%
X153982000Y-103200000D03*
%TD*%
D17*
%TO.P,R3,1*%
%TO.N,Net-(U1-FB)*%
X147816895Y-114901555D03*
%TO.P,R3,2*%
%TO.N,GND*%
X148836895Y-114901555D03*
%TD*%
D18*
%TO.P,SW3,1*%
%TO.N,GND*%
X139697895Y-81751555D03*
%TO.P,SW3,2*%
X139697895Y-83021555D03*
%TO.P,SW3,3*%
%TO.N,Net-(U2-IO0)*%
X147825895Y-83021555D03*
%TO.P,SW3,4*%
%TO.N,Net-(U2-EN)*%
X147825895Y-81751555D03*
%TD*%
D19*
%TO.P,R1,1*%
%TO.N,+3.3V*%
X151751895Y-81496555D03*
%TO.P,R1,2*%
%TO.N,Net-(U2-EN)*%
X150731895Y-81496555D03*
%TD*%
D20*
%TO.P,J1,1,Pin_1*%
%TO.N,+3.3V*%
X137481895Y-84996555D03*
%TO.P,J1,2,Pin_2*%
%TO.N,GND*%
X137481895Y-86496555D03*
%TO.P,J1,3,Pin_3*%
%TO.N,FIN_DRDY*%
X137481895Y-87996555D03*
%TO.P,J1,4,Pin_4*%
%TO.N,FIN_MOSI*%
X137481895Y-89496555D03*
%TO.P,J1,5,Pin_5*%
%TO.N,FIN_MISO*%
X137481895Y-90996555D03*
%TO.P,J1,6,Pin_6*%
%TO.N,FIN_SCK*%
X137481895Y-92496555D03*
D21*
%TO.P,J1,MP*%
%TO.N,N/C*%
X133781895Y-83046555D03*
X133781895Y-94446555D03*
%TD*%
D22*
%TO.P,J3,1,Pin_1*%
%TO.N,GND*%
X134931895Y-109056555D03*
D23*
%TO.P,J3,2,Pin_2*%
%TO.N,VBUS*%
X134931895Y-111596555D03*
%TD*%
D24*
%TO.P,C7,1*%
%TO.N,+3.3V*%
X145461895Y-97250000D03*
%TO.P,C7,2*%
%TO.N,GND*%
X144501895Y-97250000D03*
%TD*%
D25*
%TO.P,Q2,1,G*%
%TO.N,Remote Start 2*%
X145981895Y-102246555D03*
%TO.P,Q2,2,S*%
%TO.N,GND*%
X144081895Y-102246555D03*
%TO.P,Q2,3,D*%
%TO.N,Net-(J6-Pin_1)*%
X145031895Y-104121555D03*
%TD*%
D16*
%TO.P,H4,1,1*%
%TO.N,GND*%
X153982000Y-126450000D03*
%TD*%
D24*
%TO.P,C4,1*%
%TO.N,Net-(U1-CB)*%
X146056895Y-113151555D03*
%TO.P,C4,2*%
%TO.N,Net-(U1-SW)*%
X145096895Y-113151555D03*
%TD*%
%TO.P,C3,1*%
%TO.N,Net-(U2-EN)*%
X150711895Y-82746555D03*
%TO.P,C3,2*%
%TO.N,GND*%
X149751895Y-82746555D03*
%TD*%
D16*
%TO.P,H1,1,1*%
%TO.N,GND*%
X135582000Y-103200000D03*
%TD*%
D26*
%TO.P,U3,1,SDO/SA0*%
%TO.N,LSM_MISO*%
X145289701Y-93793699D03*
%TO.P,U3,2,SDx*%
%TO.N,GND*%
X145289701Y-94293700D03*
%TO.P,U3,3,SCx*%
X145289701Y-94793700D03*
%TO.P,U3,4,INT1*%
%TO.N,LSM_INT1*%
X145289701Y-95293701D03*
D27*
%TO.P,U3,5,VDDIO*%
%TO.N,+3.3V*%
X146000002Y-95500000D03*
%TO.P,U3,6,GND*%
%TO.N,GND*%
X146500001Y-95500000D03*
%TO.P,U3,7,GND*%
X147000000Y-95500000D03*
D26*
%TO.P,U3,8,VDD*%
%TO.N,+3.3V*%
X147710301Y-95293701D03*
%TO.P,U3,9,INT2*%
%TO.N,LSM_INT2*%
X147710301Y-94793700D03*
%TO.P,U3,10,NC*%
%TO.N,unconnected-(U3-NC-Pad10)*%
X147710301Y-94293700D03*
%TO.P,U3,11,NC*%
%TO.N,unconnected-(U3-NC-Pad11)*%
X147710301Y-93793699D03*
D27*
%TO.P,U3,12,CS*%
%TO.N,LSM_CS*%
X147000000Y-93587400D03*
%TO.P,U3,13,SCL*%
%TO.N,LSM_SCK*%
X146500001Y-93587400D03*
%TO.P,U3,14,SDA*%
%TO.N,LSM_MOSI*%
X146000002Y-93587400D03*
%TD*%
D28*
%TO.P,D1,1,K*%
%TO.N,VBUS*%
X137231895Y-119996555D03*
D29*
%TO.P,D1,2,A*%
%TO.N,Net-(D1-A)*%
X137231895Y-122371555D03*
%TD*%
D30*
%TO.P,C8,1*%
%TO.N,+3.3V*%
X149481895Y-95516555D03*
%TO.P,C8,2*%
%TO.N,GND*%
X149481895Y-96476555D03*
%TD*%
D16*
%TO.P,H3,1,1*%
%TO.N,GND*%
X135582000Y-126450000D03*
%TD*%
D31*
%TO.P,C1,1*%
%TO.N,VBUS*%
X138076895Y-117126555D03*
%TO.P,C1,2*%
%TO.N,GND*%
X138076895Y-114176555D03*
%TD*%
D32*
%TO.P,L1,1,1*%
%TO.N,Net-(U1-SW)*%
X143731895Y-111048855D03*
%TO.P,L1,2,2*%
%TO.N,+3.3V*%
X143731895Y-107444255D03*
%TD*%
D33*
%TO.P,C2,1*%
%TO.N,VBUS*%
X141326895Y-116611555D03*
%TO.P,C2,2*%
%TO.N,GND*%
X141326895Y-115651555D03*
%TD*%
D22*
%TO.P,J6,1,Pin_1*%
%TO.N,Net-(J6-Pin_1)*%
X154731895Y-111396555D03*
D23*
%TO.P,J6,2,Pin_2*%
%TO.N,Net-(J6-Pin_2)*%
X154731895Y-108856555D03*
%TD*%
D25*
%TO.P,Q1,1,G*%
%TO.N,Remote Start 1*%
X149481895Y-102246555D03*
%TO.P,Q1,2,S*%
%TO.N,GND*%
X147581895Y-102246555D03*
%TO.P,Q1,3,D*%
%TO.N,Net-(J6-Pin_2)*%
X148531895Y-104121555D03*
%TD*%
D34*
%TO.P,U1,1,GND*%
%TO.N,GND*%
X143220000Y-114705000D03*
%TO.P,U1,2,SW*%
%TO.N,Net-(U1-SW)*%
X143220000Y-115655000D03*
%TO.P,U1,3,VIN*%
%TO.N,VBUS*%
X143220000Y-116605000D03*
%TO.P,U1,4,FB*%
%TO.N,Net-(U1-FB)*%
X145495000Y-116605000D03*
%TO.P,U1,5,EN*%
%TO.N,VBUS*%
X145495000Y-115655000D03*
%TO.P,U1,6,CB*%
%TO.N,Net-(U1-CB)*%
X145495000Y-114705000D03*
%TD*%
D24*
%TO.P,C6,1*%
%TO.N,+3.3V*%
X142711895Y-104996555D03*
%TO.P,C6,2*%
%TO.N,GND*%
X141751895Y-104996555D03*
%TD*%
D19*
%TO.P,R2,1*%
%TO.N,+3.3V*%
X148836895Y-116651555D03*
%TO.P,R2,2*%
%TO.N,Net-(U1-FB)*%
X147816895Y-116651555D03*
%TD*%
D35*
%TO.P,U2,41,GND*%
%TO.N,GND*%
X147667600Y-89700000D03*
X147667600Y-88300000D03*
X146967600Y-90400000D03*
X146967600Y-89000000D03*
X146967600Y-87600000D03*
X146267600Y-89700000D03*
X146267600Y-88300000D03*
X145567600Y-90400000D03*
X145567600Y-89000000D03*
X145567600Y-87600000D03*
X144867600Y-89700000D03*
X144867600Y-88300000D03*
%TD*%
D36*
%TO.N,GND*%
X147231895Y-107746555D03*
X148731895Y-113996555D03*
X146731895Y-96746555D03*
X147231895Y-113996555D03*
X148231895Y-121246555D03*
X141481895Y-121246555D03*
%TO.N,+3.3V*%
X153517600Y-82550000D03*
X145309395Y-109169055D03*
X149481895Y-86496555D03*
X137481895Y-84996555D03*
%TO.N,USB_D-*%
X150931374Y-100946034D03*
X143736895Y-120746555D03*
X153517600Y-96520000D03*
%TO.N,USB_D+*%
X151532416Y-101547076D03*
X144586895Y-120746555D03*
X153517600Y-97790000D03*
%TO.N,Net-(J5-CC2)*%
X146231895Y-123746555D03*
%TO.N,Remote Start 1*%
X149481895Y-100746555D03*
%TO.N,Remote Start 2*%
X147981895Y-100496555D03*
%TO.N,Net-(U2-EN)*%
X153517600Y-83820000D03*
%TO.N,Net-(J5-CC1)*%
X143481895Y-123746555D03*
%TO.N,Net-(U2-IO0)*%
X142289478Y-87996555D03*
%TO.N,LSM_CS*%
X146922011Y-94310852D03*
%TO.N,LSM_MISO*%
X138731895Y-94996555D03*
%TO.N,LSM_INT2*%
X148726875Y-94741742D03*
%TO.N,LSM_INT1*%
X137731895Y-96246555D03*
%TO.N,LSM_MOSI*%
X137731895Y-93996555D03*
%TO.N,FIN_CS3*%
X152231895Y-87746555D03*
%TO.N,FIN_CS2*%
X152231895Y-86246555D03*
%TO.N,FIN_CS1*%
X152231895Y-84746555D03*
%TO.N,FIN_CS4*%
X152231895Y-89246555D03*
%TO.N,FIN_SCK*%
X137481895Y-92496555D03*
%TO.N,FIN_MOSI*%
X137481895Y-89496555D03*
%TO.N,FIN_CLK*%
X152231895Y-90746555D03*
%TO.N,FIN_DRDY*%
X137481895Y-87996555D03*
%TO.N,FIN_MISO*%
X137481895Y-90996555D03*
%TO.N,FIN_RST*%
X152231895Y-92246555D03*
%TO.N,LSM_SCK*%
X148231895Y-92246555D03*
%TD*%
D37*
%TO.N,VBUS*%
X144524468Y-115655000D02*
X143574468Y-116605000D01*
X143574468Y-116605000D02*
X143220000Y-116605000D01*
X143213445Y-116611555D02*
X143220000Y-116605000D01*
X138076895Y-117126555D02*
X140811895Y-117126555D01*
X134931895Y-113981555D02*
X138076895Y-117126555D01*
X137231895Y-117971555D02*
X138076895Y-117126555D01*
X140811895Y-117126555D02*
X141326895Y-116611555D01*
X137231895Y-119996555D02*
X137231895Y-117971555D01*
X141326895Y-116611555D02*
X143213445Y-116611555D01*
X134931895Y-111596555D02*
X134931895Y-113981555D01*
X145495000Y-115655000D02*
X144524468Y-115655000D01*
D38*
%TO.N,GND*%
X147861895Y-121616555D02*
X148231895Y-121246555D01*
X147861895Y-122566555D02*
X147861895Y-121616555D01*
X141461895Y-121266555D02*
X141481895Y-121246555D01*
X148836895Y-114901555D02*
X148836895Y-114101555D01*
X141461895Y-122566555D02*
X141461895Y-121266555D01*
X148836895Y-114101555D02*
X148731895Y-113996555D01*
%TO.N,Net-(U1-CB)*%
X145495000Y-113713450D02*
X146056895Y-113151555D01*
X145495000Y-114705000D02*
X145495000Y-113713450D01*
%TO.N,Net-(U1-SW)*%
X144531500Y-113716950D02*
X145096895Y-113151555D01*
X145096895Y-112266555D02*
X145096895Y-113151555D01*
X143882499Y-115655000D02*
X144531500Y-115005999D01*
X143731895Y-110901555D02*
X145096895Y-112266555D01*
X143220000Y-115655000D02*
X143882499Y-115655000D01*
X144531500Y-115005999D02*
X144531500Y-113716950D01*
%TO.N,+3.3V*%
X151751895Y-81496555D02*
X152464155Y-81496555D01*
X142711895Y-106571555D02*
X142711895Y-104996555D01*
X146980838Y-97347555D02*
X147710301Y-96618092D01*
X149407895Y-116080555D02*
X149407895Y-113267555D01*
X145525000Y-97250000D02*
X145622555Y-97347555D01*
X147891600Y-95475000D02*
X147710301Y-95293701D01*
X145525000Y-97250000D02*
X145525000Y-95975002D01*
X148836895Y-116651555D02*
X149407895Y-116080555D01*
X149407895Y-113267555D02*
X145309395Y-109169055D01*
X149481895Y-86496555D02*
X149481895Y-93996555D01*
X147710301Y-96618092D02*
X147710301Y-95293701D01*
X149500000Y-95475000D02*
X147891600Y-95475000D01*
X142711895Y-104996555D02*
X142711895Y-100063105D01*
X145309395Y-109169055D02*
X143731895Y-107591555D01*
X145622555Y-97347555D02*
X146980838Y-97347555D01*
X149481895Y-93996555D02*
X149500000Y-94014660D01*
X142711895Y-100063105D02*
X145525000Y-97250000D01*
X149500000Y-94014660D02*
X149500000Y-95475000D01*
X143731895Y-107591555D02*
X142711895Y-106571555D01*
X145525000Y-95975002D02*
X146000002Y-95500000D01*
X152464155Y-81496555D02*
X153517600Y-82550000D01*
D39*
%TO.N,Net-(D1-A)*%
X139507895Y-120095555D02*
X142481895Y-120095555D01*
X147061895Y-122566555D02*
X147061895Y-121991556D01*
X142481895Y-120095555D02*
X143467241Y-120095555D01*
X142261895Y-120315555D02*
X142481895Y-120095555D01*
X145165894Y-120095555D02*
X143467241Y-120095555D01*
X142261895Y-122566555D02*
X142261895Y-120315555D01*
X137231895Y-122371555D02*
X139507895Y-120095555D01*
X147061895Y-121991556D02*
X145165894Y-120095555D01*
D38*
%TO.N,USB_D-*%
X153067600Y-96970000D02*
X153517600Y-96520000D01*
X144911895Y-123175379D02*
X144644719Y-123442555D01*
X150931374Y-100946034D02*
X151214217Y-100946034D01*
X144644719Y-123442555D02*
X144179071Y-123442555D01*
X143936894Y-122541556D02*
X143936894Y-120946554D01*
X144911895Y-122566555D02*
X144911895Y-123175379D01*
X143936894Y-120946554D02*
X143736895Y-120746555D01*
X143911895Y-122566555D02*
X143936894Y-122541556D01*
X151214217Y-100946034D02*
X153067600Y-99092651D01*
X144179071Y-123442555D02*
X143911895Y-123175379D01*
X153067600Y-99092651D02*
X153067600Y-96970000D01*
X143911895Y-123175379D02*
X143911895Y-122566555D01*
%TO.N,USB_D+*%
X151532416Y-101264233D02*
X153517600Y-99279049D01*
X144411895Y-121957731D02*
X144679071Y-121690555D01*
X144411895Y-122566555D02*
X144386896Y-122541556D01*
X144386896Y-120946554D02*
X144586895Y-120746555D01*
X145144719Y-121690555D02*
X145411895Y-121957731D01*
X144411895Y-122566555D02*
X144411895Y-121957731D01*
X145411895Y-121957731D02*
X145411895Y-122566555D01*
X144679071Y-121690555D02*
X145144719Y-121690555D01*
X153517600Y-99279049D02*
X153517600Y-97790000D01*
X144386896Y-122541556D02*
X144386896Y-120946554D01*
X151532416Y-101547076D02*
X151532416Y-101264233D01*
%TO.N,Net-(J5-CC2)*%
X146411895Y-123566555D02*
X146231895Y-123746555D01*
X146411895Y-122566555D02*
X146411895Y-123566555D01*
%TO.N,Remote Start 1*%
X149481895Y-102246555D02*
X149481895Y-100746555D01*
%TO.N,Remote Start 2*%
X147731895Y-100496555D02*
X147981895Y-100496555D01*
X145981895Y-102246555D02*
X147731895Y-100496555D01*
%TO.N,Net-(U2-EN)*%
X150711895Y-81516555D02*
X150731895Y-81496555D01*
X150711895Y-82746555D02*
X150711895Y-81516555D01*
X150476895Y-81751555D02*
X150731895Y-81496555D01*
X150711895Y-82746555D02*
X152444155Y-82746555D01*
X152444155Y-82746555D02*
X153517600Y-83820000D01*
X147825895Y-81751555D02*
X150476895Y-81751555D01*
%TO.N,Net-(U1-FB)*%
X145495000Y-116605000D02*
X147770340Y-116605000D01*
X147816895Y-114901555D02*
X147816895Y-116651555D01*
X147770340Y-116605000D02*
X147816895Y-116651555D01*
%TO.N,Net-(J5-CC1)*%
X143411895Y-122566555D02*
X143411895Y-123676555D01*
X143411895Y-123676555D02*
X143481895Y-123746555D01*
%TO.N,Net-(U2-IO0)*%
X147264478Y-83021555D02*
X142289478Y-87996555D01*
X147825895Y-83021555D02*
X147264478Y-83021555D01*
%TO.N,LSM_CS*%
X147000000Y-94232863D02*
X146922011Y-94310852D01*
X147000000Y-93587400D02*
X147000000Y-94232863D01*
%TO.N,LSM_MISO*%
X145289701Y-93793699D02*
X139934751Y-93793699D01*
X139934751Y-93793699D02*
X138731895Y-94996555D01*
%TO.N,LSM_INT2*%
X148674917Y-94793700D02*
X148726875Y-94741742D01*
X147710301Y-94793700D02*
X148674917Y-94793700D01*
%TO.N,LSM_INT1*%
X145289701Y-95293701D02*
X144836847Y-95746555D01*
X144836847Y-95746555D02*
X138231895Y-95746555D01*
X138231895Y-95746555D02*
X137731895Y-96246555D01*
%TO.N,LSM_MOSI*%
X138411519Y-93316931D02*
X137731895Y-93996555D01*
X146000002Y-93587400D02*
X145729533Y-93316931D01*
X145729533Y-93316931D02*
X138411519Y-93316931D01*
%TO.N,LSM_SCK*%
X147274787Y-92246555D02*
X148231895Y-92246555D01*
X146500001Y-93587400D02*
X146500001Y-93021341D01*
X146500001Y-93021341D02*
X147274787Y-92246555D01*
%TO.N,Net-(J6-Pin_2)*%
X148531895Y-104121555D02*
X153266895Y-108856555D01*
X153266895Y-108856555D02*
X154731895Y-108856555D01*
%TO.N,Net-(J6-Pin_1)*%
X154731895Y-111396555D02*
X152306895Y-111396555D01*
X152306895Y-111396555D02*
X145031895Y-104121555D01*
%TD*%
%TA.AperFunction,Conductor*%
%TO.N,GND*%
G36*
X146486298Y-110842085D02*
G01*
X146492776Y-110848117D01*
X149021076Y-113376417D01*
X149054561Y-113437740D01*
X149057395Y-113464098D01*
X149057395Y-114159844D01*
X149037710Y-114226883D01*
X149036895Y-114227840D01*
X149036895Y-115584243D01*
X149052372Y-115608326D01*
X149052587Y-115609824D01*
X149052977Y-115610455D01*
X149057395Y-115643261D01*
X149057395Y-115884011D01*
X149037710Y-115951050D01*
X149021076Y-115971692D01*
X148948032Y-116044736D01*
X148886709Y-116078221D01*
X148860351Y-116081055D01*
X148665313Y-116081055D01*
X148590377Y-116091973D01*
X148590375Y-116091973D01*
X148590373Y-116091974D01*
X148474795Y-116148476D01*
X148474792Y-116148478D01*
X148414576Y-116208695D01*
X148406630Y-116213033D01*
X148401205Y-116220281D01*
X148376445Y-116229515D01*
X148353253Y-116242180D01*
X148344223Y-116241534D01*
X148335741Y-116244698D01*
X148309920Y-116239081D01*
X148283561Y-116237196D01*
X148274507Y-116231377D01*
X148267468Y-116229846D01*
X148239214Y-116208695D01*
X148203714Y-116173195D01*
X148170229Y-116111872D01*
X148167395Y-116085514D01*
X148167395Y-115539992D01*
X148187080Y-115472953D01*
X148239884Y-115427198D01*
X148309042Y-115417254D01*
X148365706Y-115440726D01*
X148467064Y-115516603D01*
X148467071Y-115516607D01*
X148597740Y-115565344D01*
X148636895Y-115569552D01*
X148636895Y-114233557D01*
X148597740Y-114237765D01*
X148467071Y-114286502D01*
X148467068Y-114286504D01*
X148355421Y-114370083D01*
X148352770Y-114373625D01*
X148349226Y-114376277D01*
X148349151Y-114376353D01*
X148349140Y-114376342D01*
X148296836Y-114415495D01*
X148227144Y-114420479D01*
X148181449Y-114400229D01*
X148178994Y-114398476D01*
X148063416Y-114341974D01*
X148063414Y-114341973D01*
X148063413Y-114341973D01*
X147988477Y-114331055D01*
X147645313Y-114331055D01*
X147570377Y-114341973D01*
X147570375Y-114341973D01*
X147570373Y-114341974D01*
X147454795Y-114398476D01*
X147454792Y-114398478D01*
X147363818Y-114489452D01*
X147363816Y-114489455D01*
X147307314Y-114605033D01*
X147307313Y-114605035D01*
X147307313Y-114605037D01*
X147296395Y-114679973D01*
X147296395Y-115123137D01*
X147307313Y-115198073D01*
X147307313Y-115198074D01*
X147307314Y-115198076D01*
X147363816Y-115313654D01*
X147363818Y-115313656D01*
X147363819Y-115313657D01*
X147430077Y-115379915D01*
X147463561Y-115441236D01*
X147466395Y-115467595D01*
X147466395Y-116085514D01*
X147457750Y-116114954D01*
X147451227Y-116144941D01*
X147447472Y-116149956D01*
X147446710Y-116152553D01*
X147430076Y-116173195D01*
X147385090Y-116218181D01*
X147323767Y-116251666D01*
X147297409Y-116254500D01*
X146424755Y-116254500D01*
X146357716Y-116234815D01*
X146337161Y-116218269D01*
X146336660Y-116217769D01*
X146303114Y-116156479D01*
X146308029Y-116086783D01*
X146330517Y-116051754D01*
X146329811Y-116051241D01*
X146335542Y-116043349D01*
X146335550Y-116043342D01*
X146393146Y-115930304D01*
X146393146Y-115930302D01*
X146393147Y-115930301D01*
X146403782Y-115863147D01*
X146408000Y-115836519D01*
X146407999Y-115473482D01*
X146393146Y-115379696D01*
X146335550Y-115266658D01*
X146335545Y-115266653D01*
X146329811Y-115258759D01*
X146331165Y-115257774D01*
X146303090Y-115206368D01*
X146308069Y-115136676D01*
X146330513Y-115101751D01*
X146329811Y-115101241D01*
X146335542Y-115093349D01*
X146335550Y-115093342D01*
X146393146Y-114980304D01*
X146393146Y-114980302D01*
X146393147Y-114980301D01*
X146407999Y-114886524D01*
X146408000Y-114886519D01*
X146407999Y-114523482D01*
X146393146Y-114429696D01*
X146335550Y-114316658D01*
X146335546Y-114316654D01*
X146335545Y-114316652D01*
X146245847Y-114226954D01*
X146245844Y-114226952D01*
X146245842Y-114226950D01*
X146169017Y-114187805D01*
X146132801Y-114169352D01*
X146039024Y-114154500D01*
X146039019Y-114154500D01*
X145969500Y-114154500D01*
X145960814Y-114151949D01*
X145951853Y-114153238D01*
X145927812Y-114142259D01*
X145902461Y-114134815D01*
X145896533Y-114127974D01*
X145888297Y-114124213D01*
X145874007Y-114101978D01*
X145856706Y-114082011D01*
X145854418Y-114071496D01*
X145850523Y-114065435D01*
X145845500Y-114030500D01*
X145845500Y-113909994D01*
X145865185Y-113842955D01*
X145881819Y-113822313D01*
X145955759Y-113748373D01*
X146017082Y-113714888D01*
X146043440Y-113712054D01*
X146227634Y-113712054D01*
X146227634Y-113712053D01*
X146273349Y-113704813D01*
X146319065Y-113697573D01*
X146319066Y-113697573D01*
X146319067Y-113697572D01*
X146319070Y-113697572D01*
X146429286Y-113641414D01*
X146516754Y-113553946D01*
X146572912Y-113443730D01*
X146572912Y-113443728D01*
X146572913Y-113443727D01*
X146572913Y-113443726D01*
X146577821Y-113412736D01*
X146587395Y-113352290D01*
X146587394Y-112950821D01*
X146587394Y-112950819D01*
X146587394Y-112950815D01*
X146572913Y-112859384D01*
X146572913Y-112859383D01*
X146572912Y-112859381D01*
X146572912Y-112859380D01*
X146516754Y-112749164D01*
X146516752Y-112749162D01*
X146516749Y-112749158D01*
X146429291Y-112661700D01*
X146429288Y-112661698D01*
X146429286Y-112661696D01*
X146319070Y-112605538D01*
X146319069Y-112605537D01*
X146319066Y-112605536D01*
X146227630Y-112591055D01*
X145886155Y-112591055D01*
X145886155Y-112591056D01*
X145794724Y-112605536D01*
X145794723Y-112605536D01*
X145684502Y-112661697D01*
X145664574Y-112681625D01*
X145656623Y-112685966D01*
X145651195Y-112693216D01*
X145626441Y-112702446D01*
X145603250Y-112715109D01*
X145594215Y-112714462D01*
X145585729Y-112717627D01*
X145559911Y-112712008D01*
X145533558Y-112710123D01*
X145524501Y-112704302D01*
X145517457Y-112702769D01*
X145489205Y-112681615D01*
X145483706Y-112676115D01*
X145450226Y-112614789D01*
X145447395Y-112588442D01*
X145447395Y-112220413D01*
X145447395Y-112220411D01*
X145423509Y-112131267D01*
X145423507Y-112131263D01*
X145420398Y-112123756D01*
X145422114Y-112123045D01*
X145408068Y-112065163D01*
X145430916Y-111999135D01*
X145485834Y-111955941D01*
X145531928Y-111947055D01*
X146055271Y-111947055D01*
X146055272Y-111947054D01*
X146128335Y-111932521D01*
X146211196Y-111877156D01*
X146266561Y-111794295D01*
X146281095Y-111721229D01*
X146281095Y-110935798D01*
X146300780Y-110868759D01*
X146353584Y-110823004D01*
X146422742Y-110813060D01*
X146486298Y-110842085D01*
G37*
%TD.AperFunction*%
%TA.AperFunction,Conductor*%
G36*
X146278403Y-94126566D02*
G01*
X146292906Y-94127864D01*
X146309545Y-94140789D01*
X146328714Y-94149543D01*
X146336587Y-94161793D01*
X146348085Y-94170725D01*
X146355095Y-94190593D01*
X146366488Y-94208321D01*
X146370021Y-94232895D01*
X146371333Y-94236613D01*
X146371511Y-94243256D01*
X146371511Y-94383327D01*
X146405330Y-94509539D01*
X146409028Y-94523340D01*
X146481499Y-94648863D01*
X146481501Y-94648865D01*
X146481502Y-94648867D01*
X146583996Y-94751361D01*
X146613769Y-94768551D01*
X146661984Y-94819116D01*
X146675769Y-94875937D01*
X146675769Y-96138289D01*
X146708984Y-96138289D01*
X146732124Y-96134918D01*
X146767877Y-96134919D01*
X146791012Y-96138289D01*
X146824232Y-96138288D01*
X146824232Y-95624000D01*
X146826782Y-95615314D01*
X146825494Y-95606353D01*
X146836472Y-95582312D01*
X146843917Y-95556961D01*
X146850757Y-95551033D01*
X146854519Y-95542797D01*
X146876753Y-95528507D01*
X146896721Y-95511206D01*
X146907235Y-95508918D01*
X146913297Y-95505023D01*
X146948232Y-95500000D01*
X147051768Y-95500000D01*
X147118807Y-95519685D01*
X147164562Y-95572489D01*
X147175768Y-95624000D01*
X147175768Y-96138289D01*
X147208984Y-96138289D01*
X147217917Y-96136987D01*
X147235686Y-96139506D01*
X147253448Y-96136953D01*
X147269558Y-96144310D01*
X147287094Y-96146797D01*
X147300679Y-96158522D01*
X147317004Y-96165978D01*
X147326579Y-96180877D01*
X147339987Y-96192450D01*
X147345076Y-96209659D01*
X147354778Y-96224756D01*
X147359733Y-96259223D01*
X147359801Y-96259451D01*
X147359801Y-96421548D01*
X147340116Y-96488587D01*
X147323482Y-96509229D01*
X146871975Y-96960736D01*
X146810652Y-96994221D01*
X146784294Y-96997055D01*
X146073887Y-96997055D01*
X146006848Y-96977370D01*
X145963403Y-96929350D01*
X145921754Y-96847609D01*
X145921751Y-96847606D01*
X145921749Y-96847603D01*
X145911819Y-96837673D01*
X145878334Y-96776350D01*
X145875500Y-96749992D01*
X145875500Y-96171546D01*
X145884144Y-96142107D01*
X145890671Y-96112113D01*
X145894423Y-96107101D01*
X145895185Y-96104507D01*
X145911824Y-96083860D01*
X145920581Y-96075104D01*
X145981906Y-96041622D01*
X146008257Y-96038790D01*
X146028395Y-96038790D01*
X146095434Y-96058475D01*
X146116076Y-96075109D01*
X146118044Y-96077077D01*
X146222980Y-96128376D01*
X146291019Y-96138289D01*
X146324233Y-96138288D01*
X146324233Y-96052391D01*
X146343918Y-95985352D01*
X146352426Y-95974793D01*
X146356368Y-95968892D01*
X146356371Y-95968891D01*
X146411736Y-95886030D01*
X146426270Y-95812964D01*
X146426270Y-95187036D01*
X146426270Y-95187033D01*
X146426269Y-95187031D01*
X146411737Y-95113974D01*
X146411736Y-95113973D01*
X146411736Y-95113970D01*
X146356371Y-95031109D01*
X146349586Y-95020954D01*
X146351885Y-95019417D01*
X146327067Y-94973966D01*
X146324233Y-94947608D01*
X146324233Y-94861709D01*
X146291020Y-94861710D01*
X146222984Y-94871622D01*
X146118041Y-94922925D01*
X146116076Y-94924891D01*
X146112726Y-94926720D01*
X146109680Y-94928895D01*
X146109417Y-94928526D01*
X146089148Y-94939594D01*
X146063330Y-94956187D01*
X146057129Y-94957078D01*
X146054753Y-94958376D01*
X146028395Y-94961210D01*
X145831942Y-94961210D01*
X145764903Y-94941525D01*
X145763052Y-94940312D01*
X145675734Y-94881968D01*
X145675726Y-94881965D01*
X145602668Y-94867433D01*
X145602665Y-94867433D01*
X144976737Y-94867433D01*
X144976734Y-94867433D01*
X144903675Y-94881965D01*
X144903671Y-94881966D01*
X144850892Y-94917232D01*
X144820810Y-94937332D01*
X144820809Y-94937333D01*
X144810655Y-94944118D01*
X144809117Y-94941817D01*
X144763670Y-94966634D01*
X144737312Y-94969468D01*
X144651412Y-94969468D01*
X144651412Y-95002685D01*
X144661323Y-95070717D01*
X144712625Y-95175657D01*
X144714587Y-95177619D01*
X144716414Y-95180966D01*
X144718596Y-95184021D01*
X144718227Y-95184284D01*
X144729295Y-95204550D01*
X144745888Y-95230370D01*
X144746778Y-95236564D01*
X144748076Y-95238940D01*
X144750911Y-95265305D01*
X144750911Y-95272055D01*
X144731226Y-95339094D01*
X144678422Y-95384849D01*
X144626911Y-95396055D01*
X139351681Y-95396055D01*
X139284642Y-95376370D01*
X139238887Y-95323566D01*
X139228943Y-95254408D01*
X139242009Y-95216654D01*
X139241767Y-95216554D01*
X139243452Y-95212483D01*
X139244292Y-95210059D01*
X139244876Y-95209047D01*
X139244877Y-95209044D01*
X139244877Y-95209042D01*
X139244879Y-95209040D01*
X139282395Y-95069030D01*
X139282395Y-94993098D01*
X139302080Y-94926059D01*
X139318714Y-94905417D01*
X139636015Y-94588116D01*
X144651411Y-94588116D01*
X144651411Y-94617932D01*
X145927990Y-94617932D01*
X145927990Y-94584714D01*
X145924619Y-94561571D01*
X145924620Y-94525817D01*
X145927991Y-94502683D01*
X145927991Y-94469468D01*
X144651412Y-94469468D01*
X144651412Y-94502687D01*
X144654782Y-94525821D01*
X144654782Y-94540619D01*
X144655078Y-94559407D01*
X144651411Y-94588116D01*
X139636015Y-94588116D01*
X140043613Y-94180518D01*
X140104936Y-94147033D01*
X140131294Y-94144199D01*
X144774413Y-94144199D01*
X144841452Y-94163884D01*
X144843247Y-94165059D01*
X144903671Y-94205433D01*
X144903673Y-94205433D01*
X144903675Y-94205434D01*
X144976732Y-94219966D01*
X144976735Y-94219967D01*
X144976737Y-94219967D01*
X145602667Y-94219967D01*
X145602668Y-94219966D01*
X145675731Y-94205433D01*
X145758592Y-94150068D01*
X145758592Y-94150067D01*
X145763053Y-94147087D01*
X145829731Y-94126210D01*
X145831943Y-94126190D01*
X146200445Y-94126190D01*
X146205845Y-94125115D01*
X146223316Y-94121640D01*
X146244300Y-94123516D01*
X146265158Y-94120518D01*
X146278403Y-94126566D01*
G37*
%TD.AperFunction*%
%TA.AperFunction,Conductor*%
G36*
X156922539Y-79809685D02*
G01*
X156968294Y-79862489D01*
X156979500Y-79914000D01*
X156979500Y-81913430D01*
X156959815Y-81980469D01*
X156907011Y-82026224D01*
X156837853Y-82036168D01*
X156812167Y-82029612D01*
X156739377Y-82002463D01*
X156739378Y-82002463D01*
X156679778Y-81996056D01*
X156679776Y-81996055D01*
X156679768Y-81996055D01*
X156679759Y-81996055D01*
X155184024Y-81996055D01*
X155184018Y-81996056D01*
X155124411Y-82002463D01*
X154989566Y-82052757D01*
X154989559Y-82052761D01*
X154874350Y-82139007D01*
X154874347Y-82139010D01*
X154788101Y-82254219D01*
X154788097Y-82254226D01*
X154737828Y-82389007D01*
X154737804Y-82389072D01*
X154731395Y-82448682D01*
X154731395Y-82448689D01*
X154731395Y-82448690D01*
X154731395Y-83144425D01*
X154731396Y-83144431D01*
X154737803Y-83204038D01*
X154788097Y-83338883D01*
X154788101Y-83338890D01*
X154874347Y-83454099D01*
X154874350Y-83454102D01*
X154989559Y-83540348D01*
X154989566Y-83540352D01*
X155124412Y-83590646D01*
X155124411Y-83590646D01*
X155131339Y-83591390D01*
X155184022Y-83597055D01*
X156679767Y-83597054D01*
X156739378Y-83590646D01*
X156812168Y-83563496D01*
X156881858Y-83558513D01*
X156943181Y-83591997D01*
X156976666Y-83653321D01*
X156979500Y-83679679D01*
X156979500Y-93313430D01*
X156959815Y-93380469D01*
X156907011Y-93426224D01*
X156837853Y-93436168D01*
X156812167Y-93429612D01*
X156739377Y-93402463D01*
X156739378Y-93402463D01*
X156679778Y-93396056D01*
X156679776Y-93396055D01*
X156679768Y-93396055D01*
X156679759Y-93396055D01*
X155184024Y-93396055D01*
X155184018Y-93396056D01*
X155124411Y-93402463D01*
X154989566Y-93452757D01*
X154989559Y-93452761D01*
X154874350Y-93539007D01*
X154874347Y-93539010D01*
X154788101Y-93654219D01*
X154788097Y-93654226D01*
X154737828Y-93789007D01*
X154737804Y-93789072D01*
X154731395Y-93848682D01*
X154731395Y-93848689D01*
X154731395Y-93848690D01*
X154731395Y-94544425D01*
X154731396Y-94544431D01*
X154737803Y-94604038D01*
X154788097Y-94738883D01*
X154788101Y-94738890D01*
X154874347Y-94854099D01*
X154874350Y-94854102D01*
X154989559Y-94940348D01*
X154989566Y-94940352D01*
X155124412Y-94990646D01*
X155124411Y-94990646D01*
X155131339Y-94991390D01*
X155184022Y-94997055D01*
X156679767Y-94997054D01*
X156739378Y-94990646D01*
X156812168Y-94963496D01*
X156881858Y-94958513D01*
X156943181Y-94991997D01*
X156976666Y-95053321D01*
X156979500Y-95079679D01*
X156979500Y-129622055D01*
X156959815Y-129689094D01*
X156907011Y-129734849D01*
X156855500Y-129746055D01*
X132704500Y-129746055D01*
X132637461Y-129726370D01*
X132591706Y-129673566D01*
X132580500Y-129622055D01*
X132580500Y-127795475D01*
X139591394Y-127795475D01*
X139620235Y-127940462D01*
X139620238Y-127940472D01*
X139676807Y-128077043D01*
X139676814Y-128077056D01*
X139758943Y-128199970D01*
X139758946Y-128199974D01*
X139863475Y-128304503D01*
X139863479Y-128304506D01*
X139986393Y-128386635D01*
X139986406Y-128386642D01*
X140122977Y-128443211D01*
X140122982Y-128443213D01*
X140122986Y-128443213D01*
X140122987Y-128443214D01*
X140267974Y-128472055D01*
X140267977Y-128472055D01*
X140415815Y-128472055D01*
X140513357Y-128452651D01*
X140560808Y-128443213D01*
X140697390Y-128386639D01*
X140820311Y-128304506D01*
X140924846Y-128199971D01*
X141006979Y-128077050D01*
X141063553Y-127940468D01*
X141092395Y-127795475D01*
X148231394Y-127795475D01*
X148260235Y-127940462D01*
X148260238Y-127940472D01*
X148316807Y-128077043D01*
X148316814Y-128077056D01*
X148398943Y-128199970D01*
X148398946Y-128199974D01*
X148503475Y-128304503D01*
X148503479Y-128304506D01*
X148626393Y-128386635D01*
X148626406Y-128386642D01*
X148762977Y-128443211D01*
X148762982Y-128443213D01*
X148762986Y-128443213D01*
X148762987Y-128443214D01*
X148907974Y-128472055D01*
X148907977Y-128472055D01*
X149055815Y-128472055D01*
X149153357Y-128452651D01*
X149200808Y-128443213D01*
X149337390Y-128386639D01*
X149460311Y-128304506D01*
X149564846Y-128199971D01*
X149646979Y-128077050D01*
X149703553Y-127940468D01*
X149732395Y-127795473D01*
X149732395Y-126847637D01*
X149732395Y-126847634D01*
X149703554Y-126702647D01*
X149703553Y-126702646D01*
X149703553Y-126702642D01*
X149703551Y-126702637D01*
X149646982Y-126566066D01*
X149646975Y-126566053D01*
X149564846Y-126443139D01*
X149564843Y-126443135D01*
X149460314Y-126338606D01*
X149460310Y-126338603D01*
X149337396Y-126256474D01*
X149337383Y-126256467D01*
X149200812Y-126199898D01*
X149200802Y-126199895D01*
X149055815Y-126171055D01*
X149055813Y-126171055D01*
X148907977Y-126171055D01*
X148907975Y-126171055D01*
X148762987Y-126199895D01*
X148762977Y-126199898D01*
X148626406Y-126256467D01*
X148626393Y-126256474D01*
X148503479Y-126338603D01*
X148503475Y-126338606D01*
X148398946Y-126443135D01*
X148398943Y-126443139D01*
X148316814Y-126566053D01*
X148316807Y-126566066D01*
X148260238Y-126702637D01*
X148260235Y-126702647D01*
X148231395Y-126847634D01*
X148231395Y-126847637D01*
X148231395Y-127795473D01*
X148231395Y-127795475D01*
X148231394Y-127795475D01*
X141092395Y-127795475D01*
X141092395Y-127795473D01*
X141092395Y-126847637D01*
X141092395Y-126847634D01*
X141063554Y-126702647D01*
X141063553Y-126702646D01*
X141063553Y-126702642D01*
X141063551Y-126702637D01*
X141006982Y-126566066D01*
X141006975Y-126566053D01*
X140924846Y-126443139D01*
X140924843Y-126443135D01*
X140820314Y-126338606D01*
X140820310Y-126338603D01*
X140697396Y-126256474D01*
X140697383Y-126256467D01*
X140560812Y-126199898D01*
X140560802Y-126199895D01*
X140415815Y-126171055D01*
X140415813Y-126171055D01*
X140267977Y-126171055D01*
X140267975Y-126171055D01*
X140122987Y-126199895D01*
X140122977Y-126199898D01*
X139986406Y-126256467D01*
X139986393Y-126256474D01*
X139863479Y-126338603D01*
X139863475Y-126338606D01*
X139758946Y-126443135D01*
X139758943Y-126443139D01*
X139676814Y-126566053D01*
X139676807Y-126566066D01*
X139620238Y-126702637D01*
X139620235Y-126702647D01*
X139591395Y-126847634D01*
X139591395Y-126847637D01*
X139591395Y-127795473D01*
X139591395Y-127795475D01*
X139591394Y-127795475D01*
X132580500Y-127795475D01*
X132580500Y-108173335D01*
X133731895Y-108173335D01*
X133731895Y-108856555D01*
X134470015Y-108856555D01*
X134465970Y-108863562D01*
X134431895Y-108990729D01*
X134431895Y-109122381D01*
X134465970Y-109249548D01*
X134470015Y-109256555D01*
X133731896Y-109256555D01*
X133731896Y-109939772D01*
X133741807Y-110007804D01*
X133793110Y-110112746D01*
X133875706Y-110195342D01*
X133980643Y-110246642D01*
X133980646Y-110246643D01*
X134048675Y-110256554D01*
X134781863Y-110256554D01*
X134848902Y-110276238D01*
X134894657Y-110329042D01*
X134904601Y-110398201D01*
X134875576Y-110461757D01*
X134816798Y-110499531D01*
X134801261Y-110503027D01*
X134674197Y-110523152D01*
X134509447Y-110576683D01*
X134355106Y-110655323D01*
X134275151Y-110713414D01*
X134214967Y-110757141D01*
X134214965Y-110757143D01*
X134214964Y-110757143D01*
X134092483Y-110879624D01*
X134092483Y-110879625D01*
X134092481Y-110879627D01*
X134061655Y-110922055D01*
X133990663Y-111019766D01*
X133912023Y-111174107D01*
X133858492Y-111338857D01*
X133831395Y-111509944D01*
X133831395Y-111683166D01*
X133858493Y-111854256D01*
X133912022Y-112019000D01*
X133990663Y-112173343D01*
X134092481Y-112313483D01*
X134214967Y-112435969D01*
X134294081Y-112493449D01*
X134355102Y-112537784D01*
X134355104Y-112537785D01*
X134355107Y-112537787D01*
X134438690Y-112580374D01*
X134489485Y-112628347D01*
X134506395Y-112690858D01*
X134506395Y-113925537D01*
X134506395Y-114037573D01*
X134534446Y-114142259D01*
X134535392Y-114145791D01*
X134535393Y-114145794D01*
X134554064Y-114178134D01*
X134591410Y-114242818D01*
X134591412Y-114242820D01*
X136906298Y-116557706D01*
X136939783Y-116619029D01*
X136934802Y-116688712D01*
X136932805Y-116694066D01*
X136932804Y-116694070D01*
X136932804Y-116694072D01*
X136926395Y-116753682D01*
X136926395Y-116753689D01*
X136926395Y-116753690D01*
X136926395Y-117499425D01*
X136926396Y-117499431D01*
X136932803Y-117559037D01*
X136934800Y-117564390D01*
X136939783Y-117634081D01*
X136906300Y-117695400D01*
X136891410Y-117710289D01*
X136835393Y-117807315D01*
X136835392Y-117807318D01*
X136806395Y-117915537D01*
X136806395Y-118422055D01*
X136786710Y-118489094D01*
X136733906Y-118534849D01*
X136687284Y-118545005D01*
X136687318Y-118545654D01*
X136687324Y-118545701D01*
X136687321Y-118545701D01*
X136687331Y-118545879D01*
X136684018Y-118546056D01*
X136624411Y-118552463D01*
X136489566Y-118602757D01*
X136489559Y-118602761D01*
X136374350Y-118689007D01*
X136374347Y-118689010D01*
X136288101Y-118804219D01*
X136288097Y-118804226D01*
X136237803Y-118939072D01*
X136231396Y-118998671D01*
X136231396Y-118998678D01*
X136231395Y-118998690D01*
X136231395Y-120994425D01*
X136231396Y-120994431D01*
X136237803Y-121054038D01*
X136288097Y-121188883D01*
X136288101Y-121188890D01*
X136374347Y-121304099D01*
X136374350Y-121304102D01*
X136489559Y-121390348D01*
X136489566Y-121390352D01*
X136529839Y-121405373D01*
X136585773Y-121447244D01*
X136610190Y-121512708D01*
X136595338Y-121580981D01*
X136545933Y-121630387D01*
X136529839Y-121637737D01*
X136489566Y-121652757D01*
X136489559Y-121652761D01*
X136374350Y-121739007D01*
X136374347Y-121739010D01*
X136288101Y-121854219D01*
X136288097Y-121854226D01*
X136250087Y-121956139D01*
X136237804Y-121989072D01*
X136231395Y-122048682D01*
X136231395Y-122048689D01*
X136231395Y-122048690D01*
X136231395Y-122694425D01*
X136231396Y-122694431D01*
X136237803Y-122754038D01*
X136288097Y-122888883D01*
X136288101Y-122888890D01*
X136374347Y-123004099D01*
X136374350Y-123004102D01*
X136489559Y-123090348D01*
X136489566Y-123090352D01*
X136624412Y-123140646D01*
X136624411Y-123140646D01*
X136631339Y-123141390D01*
X136684022Y-123147055D01*
X137779767Y-123147054D01*
X137839378Y-123140646D01*
X137974226Y-123090351D01*
X138089441Y-123004101D01*
X138175691Y-122888886D01*
X138225986Y-122754038D01*
X138232395Y-122694428D01*
X138232394Y-122048683D01*
X138232393Y-122048681D01*
X138232393Y-122048667D01*
X138228086Y-122008604D01*
X138227938Y-122007231D01*
X138240343Y-121938472D01*
X138263543Y-121906298D01*
X139637469Y-120532374D01*
X139698792Y-120498889D01*
X139725150Y-120496055D01*
X141737395Y-120496055D01*
X141804434Y-120515740D01*
X141850189Y-120568544D01*
X141861395Y-120620055D01*
X141861395Y-121525191D01*
X141841710Y-121592230D01*
X141788906Y-121637985D01*
X141724139Y-121648480D01*
X141661895Y-121641787D01*
X141661895Y-122980078D01*
X141642210Y-123047117D01*
X141593711Y-123090806D01*
X141582312Y-123096551D01*
X141549760Y-123105274D01*
X141444855Y-123165841D01*
X141441711Y-123167426D01*
X141410668Y-123173116D01*
X141379995Y-123180558D01*
X141376559Y-123179368D01*
X141372986Y-123180024D01*
X141343790Y-123168027D01*
X141313968Y-123157705D01*
X141311722Y-123154849D01*
X141308360Y-123153468D01*
X141290285Y-123127590D01*
X141270777Y-123102784D01*
X141269945Y-123098469D01*
X141268351Y-123096187D01*
X141268062Y-123088699D01*
X141261895Y-123056698D01*
X141261895Y-122766555D01*
X141216395Y-122766555D01*
X141208874Y-122764346D01*
X141201139Y-122765613D01*
X141175822Y-122754641D01*
X141149356Y-122746870D01*
X141144224Y-122740947D01*
X141137030Y-122737830D01*
X141121663Y-122714910D01*
X141103601Y-122694066D01*
X141101498Y-122684836D01*
X141098120Y-122679797D01*
X141093487Y-122649664D01*
X141092418Y-122644967D01*
X141092395Y-122643784D01*
X141092395Y-122517637D01*
X141089674Y-122503962D01*
X141089461Y-122492967D01*
X141095875Y-122469436D01*
X141098050Y-122445150D01*
X141104900Y-122436332D01*
X141107838Y-122425557D01*
X141125955Y-122409230D01*
X141140915Y-122389975D01*
X141151445Y-122386260D01*
X141159742Y-122378784D01*
X141183807Y-122374844D01*
X141206806Y-122366732D01*
X141213438Y-122366555D01*
X141261895Y-122366555D01*
X141261895Y-121641788D01*
X141261894Y-121641787D01*
X141204521Y-121647956D01*
X141204514Y-121647958D01*
X141069808Y-121698200D01*
X141069801Y-121698204D01*
X140954707Y-121784364D01*
X140954704Y-121784367D01*
X140868434Y-121899609D01*
X140812500Y-121941480D01*
X140742809Y-121946464D01*
X140700272Y-121928396D01*
X140697398Y-121926475D01*
X140697383Y-121926467D01*
X140560812Y-121869898D01*
X140560802Y-121869895D01*
X140415815Y-121841055D01*
X140415813Y-121841055D01*
X140267977Y-121841055D01*
X140267975Y-121841055D01*
X140122987Y-121869895D01*
X140122977Y-121869898D01*
X139986406Y-121926467D01*
X139986393Y-121926474D01*
X139863479Y-122008603D01*
X139863475Y-122008606D01*
X139758946Y-122113135D01*
X139758943Y-122113139D01*
X139676814Y-122236053D01*
X139676807Y-122236066D01*
X139620238Y-122372637D01*
X139620235Y-122372647D01*
X139591395Y-122517634D01*
X139591395Y-122517637D01*
X139591395Y-123765473D01*
X139591395Y-123765475D01*
X139591394Y-123765475D01*
X139620235Y-123910462D01*
X139620238Y-123910472D01*
X139676807Y-124047043D01*
X139676814Y-124047056D01*
X139758943Y-124169970D01*
X139758946Y-124169974D01*
X139863475Y-124274503D01*
X139863479Y-124274506D01*
X139986393Y-124356635D01*
X139986406Y-124356642D01*
X140122977Y-124413211D01*
X140122982Y-124413213D01*
X140122986Y-124413213D01*
X140122987Y-124413214D01*
X140267974Y-124442055D01*
X140267977Y-124442055D01*
X140415815Y-124442055D01*
X140513357Y-124422651D01*
X140560808Y-124413213D01*
X140697390Y-124356639D01*
X140820311Y-124274506D01*
X140924846Y-124169971D01*
X141006979Y-124047050D01*
X141050488Y-123942008D01*
X141094326Y-123887610D01*
X141160620Y-123865544D01*
X141228319Y-123882823D01*
X141272434Y-123927464D01*
X141311380Y-123994920D01*
X141418530Y-124102070D01*
X141549760Y-124177836D01*
X141696129Y-124217055D01*
X141696131Y-124217055D01*
X141847659Y-124217055D01*
X141847661Y-124217055D01*
X141994030Y-124177836D01*
X142125260Y-124102070D01*
X142232410Y-123994920D01*
X142308176Y-123863690D01*
X142347395Y-123717321D01*
X142347395Y-123565789D01*
X142342290Y-123546736D01*
X142342494Y-123538133D01*
X142339051Y-123530248D01*
X142343313Y-123503736D01*
X142343953Y-123476888D01*
X142348776Y-123469761D01*
X142350143Y-123461264D01*
X142368065Y-123441263D01*
X142383116Y-123419026D01*
X142392246Y-123414277D01*
X142396770Y-123409229D01*
X142414929Y-123402480D01*
X142429114Y-123395103D01*
X142440175Y-123392054D01*
X142443413Y-123392054D01*
X142537199Y-123377201D01*
X142588037Y-123351296D01*
X142600162Y-123347955D01*
X142623020Y-123348335D01*
X142645484Y-123344116D01*
X142663278Y-123349004D01*
X142670022Y-123349117D01*
X142674465Y-123352078D01*
X142685511Y-123355112D01*
X142751350Y-123385814D01*
X142798756Y-123392055D01*
X142845364Y-123392054D01*
X142912401Y-123411737D01*
X142958157Y-123464540D01*
X142968102Y-123533699D01*
X142965139Y-123548144D01*
X142931395Y-123674080D01*
X142931395Y-123819030D01*
X142964349Y-123942013D01*
X142968912Y-123959043D01*
X143041383Y-124084566D01*
X143041385Y-124084568D01*
X143041386Y-124084570D01*
X143143880Y-124187064D01*
X143143881Y-124187065D01*
X143143883Y-124187066D01*
X143269406Y-124259537D01*
X143269407Y-124259537D01*
X143269410Y-124259539D01*
X143409420Y-124297055D01*
X143409423Y-124297055D01*
X143554367Y-124297055D01*
X143554370Y-124297055D01*
X143694380Y-124259539D01*
X143819910Y-124187064D01*
X143922404Y-124084570D01*
X143994879Y-123959040D01*
X144014729Y-123884959D01*
X144051093Y-123825301D01*
X144113940Y-123794772D01*
X144134503Y-123793055D01*
X144690861Y-123793055D01*
X144690863Y-123793055D01*
X144780007Y-123769169D01*
X144788908Y-123764030D01*
X144788909Y-123764030D01*
X144859924Y-123723029D01*
X144859923Y-123723029D01*
X144859931Y-123723025D01*
X145160209Y-123422747D01*
X145221532Y-123389262D01*
X145264073Y-123387489D01*
X145298756Y-123392055D01*
X145525033Y-123392054D01*
X145525034Y-123392054D01*
X145539259Y-123390181D01*
X145572440Y-123385814D01*
X145572440Y-123385813D01*
X145581455Y-123384627D01*
X145650490Y-123395393D01*
X145702745Y-123441774D01*
X145721629Y-123509044D01*
X145717413Y-123539659D01*
X145710411Y-123565791D01*
X145681395Y-123674080D01*
X145681395Y-123819030D01*
X145714349Y-123942013D01*
X145718912Y-123959043D01*
X145791383Y-124084566D01*
X145791385Y-124084568D01*
X145791386Y-124084570D01*
X145893880Y-124187064D01*
X145893881Y-124187065D01*
X145893883Y-124187066D01*
X146019406Y-124259537D01*
X146019407Y-124259537D01*
X146019410Y-124259539D01*
X146159420Y-124297055D01*
X146159423Y-124297055D01*
X146304367Y-124297055D01*
X146304370Y-124297055D01*
X146444380Y-124259539D01*
X146569910Y-124187064D01*
X146672404Y-124084570D01*
X146744879Y-123959040D01*
X146773247Y-123853168D01*
X146809611Y-123793511D01*
X146872458Y-123762982D01*
X146941834Y-123771277D01*
X146995712Y-123815762D01*
X147012794Y-123853168D01*
X147015614Y-123863690D01*
X147091380Y-123994920D01*
X147198530Y-124102070D01*
X147329760Y-124177836D01*
X147476129Y-124217055D01*
X147476131Y-124217055D01*
X147627659Y-124217055D01*
X147627661Y-124217055D01*
X147774030Y-124177836D01*
X147905260Y-124102070D01*
X148012410Y-123994920D01*
X148051355Y-123927464D01*
X148101922Y-123879249D01*
X148170529Y-123866026D01*
X148235394Y-123891994D01*
X148273303Y-123942013D01*
X148316807Y-124047043D01*
X148316814Y-124047056D01*
X148398943Y-124169970D01*
X148398946Y-124169974D01*
X148503475Y-124274503D01*
X148503479Y-124274506D01*
X148626393Y-124356635D01*
X148626406Y-124356642D01*
X148762977Y-124413211D01*
X148762982Y-124413213D01*
X148762986Y-124413213D01*
X148762987Y-124413214D01*
X148907974Y-124442055D01*
X148907977Y-124442055D01*
X149055815Y-124442055D01*
X149153357Y-124422651D01*
X149200808Y-124413213D01*
X149337390Y-124356639D01*
X149460311Y-124274506D01*
X149564846Y-124169971D01*
X149646979Y-124047050D01*
X149703553Y-123910468D01*
X149726818Y-123793511D01*
X149732395Y-123765475D01*
X149732395Y-122517634D01*
X149703554Y-122372647D01*
X149703553Y-122372646D01*
X149703553Y-122372642D01*
X149701031Y-122366554D01*
X149646982Y-122236066D01*
X149646975Y-122236053D01*
X149564846Y-122113139D01*
X149564843Y-122113135D01*
X149460314Y-122008606D01*
X149460310Y-122008603D01*
X149337396Y-121926474D01*
X149337383Y-121926467D01*
X149200812Y-121869898D01*
X149200802Y-121869895D01*
X149055815Y-121841055D01*
X149055813Y-121841055D01*
X148907977Y-121841055D01*
X148907975Y-121841055D01*
X148762987Y-121869895D01*
X148762977Y-121869898D01*
X148626406Y-121926467D01*
X148626388Y-121926477D01*
X148623503Y-121928405D01*
X148621762Y-121928949D01*
X148621025Y-121929344D01*
X148620950Y-121929204D01*
X148556823Y-121949277D01*
X148489445Y-121930787D01*
X148455355Y-121899608D01*
X148369085Y-121784367D01*
X148369082Y-121784364D01*
X148253988Y-121698204D01*
X148253981Y-121698200D01*
X148119275Y-121647958D01*
X148119268Y-121647956D01*
X148061895Y-121641787D01*
X148061895Y-123056698D01*
X148061197Y-123059072D01*
X148061803Y-123061472D01*
X148051405Y-123092421D01*
X148042210Y-123123737D01*
X148040340Y-123125356D01*
X148039552Y-123127704D01*
X148014062Y-123148127D01*
X147989406Y-123169492D01*
X147986958Y-123169843D01*
X147985026Y-123171392D01*
X147952547Y-123174791D01*
X147920248Y-123179436D01*
X147917235Y-123178488D01*
X147915536Y-123178666D01*
X147902133Y-123173736D01*
X147882079Y-123167426D01*
X147878934Y-123165841D01*
X147774030Y-123105274D01*
X147741477Y-123096551D01*
X147730079Y-123090806D01*
X147713511Y-123075293D01*
X147694138Y-123063484D01*
X147688499Y-123051874D01*
X147679076Y-123043052D01*
X147673525Y-123021047D01*
X147663611Y-123000636D01*
X147661895Y-122980078D01*
X147661895Y-122766555D01*
X147648713Y-122753373D01*
X147615228Y-122692050D01*
X147612394Y-122665697D01*
X147612394Y-122467415D01*
X147632079Y-122400378D01*
X147648714Y-122379735D01*
X147661895Y-122366554D01*
X147661895Y-121641788D01*
X147661894Y-121641787D01*
X147604521Y-121647956D01*
X147604514Y-121647958D01*
X147469805Y-121698201D01*
X147464036Y-121701352D01*
X147395763Y-121716202D01*
X147330299Y-121691783D01*
X147316931Y-121680199D01*
X145411809Y-119775077D01*
X145411807Y-119775075D01*
X145366144Y-119748711D01*
X145320483Y-119722348D01*
X145269551Y-119708701D01*
X145218621Y-119695055D01*
X143519968Y-119695055D01*
X142534622Y-119695055D01*
X139560622Y-119695055D01*
X139455168Y-119695055D01*
X139353305Y-119722348D01*
X139261982Y-119775075D01*
X139261979Y-119775077D01*
X138444075Y-120592981D01*
X138382752Y-120626466D01*
X138313060Y-120621482D01*
X138257127Y-120579610D01*
X138232710Y-120514146D01*
X138232394Y-120505300D01*
X138232394Y-118998684D01*
X138232393Y-118998678D01*
X138232392Y-118998671D01*
X138225986Y-118939072D01*
X138175691Y-118804224D01*
X138175690Y-118804223D01*
X138175688Y-118804219D01*
X138089442Y-118689010D01*
X138089439Y-118689007D01*
X137974230Y-118602761D01*
X137974223Y-118602757D01*
X137839377Y-118552463D01*
X137839378Y-118552463D01*
X137779778Y-118546056D01*
X137779776Y-118546055D01*
X137779768Y-118546055D01*
X137779759Y-118546055D01*
X137776443Y-118545877D01*
X137776510Y-118544620D01*
X137772709Y-118543504D01*
X137763748Y-118544793D01*
X137739707Y-118533814D01*
X137714356Y-118526370D01*
X137708428Y-118519529D01*
X137700192Y-118515768D01*
X137685902Y-118493533D01*
X137668601Y-118473566D01*
X137666313Y-118463051D01*
X137662418Y-118456990D01*
X137657395Y-118422055D01*
X137657395Y-118199164D01*
X137677080Y-118132125D01*
X137693710Y-118111487D01*
X137816824Y-117988372D01*
X137878147Y-117954888D01*
X137904505Y-117952054D01*
X138774766Y-117952054D01*
X138774767Y-117952054D01*
X138834378Y-117945646D01*
X138969226Y-117895351D01*
X139084441Y-117809101D01*
X139170691Y-117693886D01*
X139176781Y-117677557D01*
X139193504Y-117632722D01*
X139235375Y-117576788D01*
X139300839Y-117552371D01*
X139309686Y-117552055D01*
X140867911Y-117552055D01*
X140867913Y-117552055D01*
X140976132Y-117523058D01*
X141073158Y-117467040D01*
X141361824Y-117178372D01*
X141423147Y-117144888D01*
X141449505Y-117142054D01*
X141527634Y-117142054D01*
X141527634Y-117142053D01*
X141573349Y-117134813D01*
X141619065Y-117127573D01*
X141619066Y-117127573D01*
X141619067Y-117127572D01*
X141619070Y-117127572D01*
X141729286Y-117071414D01*
X141729290Y-117071409D01*
X141737185Y-117065675D01*
X141738389Y-117067333D01*
X141788650Y-117039889D01*
X141815008Y-117037055D01*
X142371800Y-117037055D01*
X142438839Y-117056740D01*
X142459481Y-117073374D01*
X142469152Y-117083045D01*
X142469154Y-117083046D01*
X142469158Y-117083050D01*
X142582194Y-117140645D01*
X142582198Y-117140647D01*
X142675975Y-117155499D01*
X142675981Y-117155500D01*
X143764018Y-117155499D01*
X143857804Y-117140646D01*
X143970842Y-117083050D01*
X144060550Y-116993342D01*
X144118146Y-116880304D01*
X144118146Y-116880302D01*
X144118147Y-116880301D01*
X144132999Y-116786524D01*
X144133000Y-116786519D01*
X144132999Y-116699576D01*
X144152683Y-116632539D01*
X144169313Y-116611901D01*
X144370319Y-116410895D01*
X144431642Y-116377411D01*
X144501334Y-116382395D01*
X144557267Y-116424267D01*
X144581684Y-116489731D01*
X144582000Y-116498577D01*
X144582000Y-116786517D01*
X144592792Y-116854657D01*
X144596854Y-116880304D01*
X144654450Y-116993342D01*
X144654452Y-116993344D01*
X144654454Y-116993347D01*
X144744152Y-117083045D01*
X144744154Y-117083046D01*
X144744158Y-117083050D01*
X144857194Y-117140645D01*
X144857198Y-117140647D01*
X144950975Y-117155499D01*
X144950981Y-117155500D01*
X146039018Y-117155499D01*
X146132804Y-117140646D01*
X146245842Y-117083050D01*
X146289003Y-117039889D01*
X146337074Y-116991819D01*
X146398397Y-116958334D01*
X146424755Y-116955500D01*
X147233540Y-116955500D01*
X147300579Y-116975185D01*
X147344939Y-117025038D01*
X147362486Y-117060930D01*
X147363820Y-117063659D01*
X147454792Y-117154631D01*
X147454795Y-117154633D01*
X147565551Y-117208777D01*
X147570377Y-117211137D01*
X147645313Y-117222055D01*
X147645318Y-117222055D01*
X147988472Y-117222055D01*
X147988477Y-117222055D01*
X148063413Y-117211137D01*
X148121205Y-117182884D01*
X148178994Y-117154633D01*
X148178997Y-117154631D01*
X148239214Y-117094415D01*
X148300537Y-117060930D01*
X148370229Y-117065914D01*
X148414576Y-117094415D01*
X148474792Y-117154631D01*
X148474795Y-117154633D01*
X148585551Y-117208777D01*
X148590377Y-117211137D01*
X148665313Y-117222055D01*
X148665318Y-117222055D01*
X149008472Y-117222055D01*
X149008477Y-117222055D01*
X149083413Y-117211137D01*
X149141205Y-117182884D01*
X149198994Y-117154633D01*
X149198997Y-117154631D01*
X149289971Y-117063657D01*
X149289973Y-117063654D01*
X149325091Y-116991819D01*
X149346477Y-116948073D01*
X149357395Y-116873137D01*
X149357395Y-116678099D01*
X149377080Y-116611060D01*
X149393714Y-116590418D01*
X149540125Y-116444007D01*
X149688365Y-116295767D01*
X149734509Y-116215843D01*
X149741260Y-116190646D01*
X149758395Y-116126699D01*
X149758395Y-113221411D01*
X149734509Y-113132267D01*
X149734506Y-113132261D01*
X149688368Y-113052349D01*
X149688365Y-113052346D01*
X149688364Y-113052343D01*
X149623107Y-112987086D01*
X145896214Y-109260192D01*
X145862729Y-109198869D01*
X145859895Y-109172511D01*
X145859895Y-109096582D01*
X145859895Y-109096580D01*
X145822379Y-108956570D01*
X145749904Y-108831040D01*
X145647410Y-108728546D01*
X145647408Y-108728545D01*
X145647406Y-108728543D01*
X145521883Y-108656072D01*
X145521884Y-108656072D01*
X145510401Y-108652995D01*
X145381870Y-108618555D01*
X145381867Y-108618555D01*
X145305939Y-108618555D01*
X145276498Y-108609910D01*
X145246512Y-108603387D01*
X145241496Y-108599632D01*
X145238900Y-108598870D01*
X145218258Y-108582236D01*
X145190158Y-108554136D01*
X145156673Y-108492813D01*
X145161657Y-108423121D01*
X145203529Y-108367188D01*
X145268993Y-108342771D01*
X145277839Y-108342455D01*
X146055271Y-108342455D01*
X146055272Y-108342454D01*
X146128335Y-108327921D01*
X146211196Y-108272556D01*
X146266561Y-108189695D01*
X146281095Y-108116629D01*
X146281095Y-106771881D01*
X146281095Y-106771878D01*
X146281094Y-106771876D01*
X146266562Y-106698819D01*
X146266561Y-106698815D01*
X146211196Y-106615954D01*
X146128335Y-106560589D01*
X146128334Y-106560588D01*
X146128330Y-106560587D01*
X146055272Y-106546055D01*
X146055269Y-106546055D01*
X143233439Y-106546055D01*
X143203998Y-106537410D01*
X143174012Y-106530887D01*
X143168996Y-106527132D01*
X143166400Y-106526370D01*
X143145758Y-106509736D01*
X143098714Y-106462692D01*
X143065229Y-106401369D01*
X143062395Y-106375011D01*
X143062395Y-105559668D01*
X143082080Y-105492629D01*
X143098714Y-105471987D01*
X143171749Y-105398951D01*
X143171754Y-105398946D01*
X143227912Y-105288730D01*
X143227912Y-105288728D01*
X143227913Y-105288727D01*
X143227913Y-105288726D01*
X143231796Y-105264205D01*
X143242395Y-105197290D01*
X143242394Y-104795821D01*
X143242394Y-104795820D01*
X143242394Y-104795815D01*
X143227913Y-104704384D01*
X143227913Y-104704383D01*
X143227912Y-104704381D01*
X143227912Y-104704380D01*
X143171754Y-104594164D01*
X143171752Y-104594162D01*
X143171749Y-104594158D01*
X143098714Y-104521123D01*
X143065229Y-104459800D01*
X143062395Y-104433442D01*
X143062395Y-102881899D01*
X143431895Y-102881899D01*
X143438296Y-102941427D01*
X143438298Y-102941434D01*
X143488540Y-103076141D01*
X143488544Y-103076148D01*
X143574704Y-103191242D01*
X143574707Y-103191245D01*
X143689801Y-103277405D01*
X143689808Y-103277409D01*
X143824519Y-103327653D01*
X143881895Y-103333820D01*
X143881895Y-102446555D01*
X144281895Y-102446555D01*
X144281895Y-103333820D01*
X144346985Y-103326824D01*
X144347228Y-103329091D01*
X144405545Y-103332212D01*
X144462221Y-103373073D01*
X144487808Y-103438089D01*
X144486777Y-103468548D01*
X144481395Y-103502533D01*
X144481395Y-104740572D01*
X144490146Y-104795821D01*
X144496249Y-104834359D01*
X144553845Y-104947397D01*
X144553847Y-104947399D01*
X144553849Y-104947402D01*
X144643547Y-105037100D01*
X144643549Y-105037101D01*
X144643553Y-105037105D01*
X144747693Y-105090167D01*
X144756593Y-105094702D01*
X144850370Y-105109554D01*
X144850376Y-105109555D01*
X145213413Y-105109554D01*
X145307199Y-105094701D01*
X145360852Y-105067363D01*
X145429517Y-105054467D01*
X145494257Y-105080742D01*
X145504825Y-105090167D01*
X152091683Y-111677025D01*
X152168247Y-111721229D01*
X152171607Y-111723169D01*
X152260751Y-111747055D01*
X152260752Y-111747055D01*
X152353039Y-111747055D01*
X153507395Y-111747055D01*
X153574434Y-111766740D01*
X153620189Y-111819544D01*
X153631395Y-111871055D01*
X153631395Y-112271233D01*
X153645927Y-112344290D01*
X153645928Y-112344294D01*
X153645929Y-112344295D01*
X153701294Y-112427156D01*
X153784155Y-112482521D01*
X153784159Y-112482522D01*
X153857216Y-112497054D01*
X153857219Y-112497055D01*
X153857221Y-112497055D01*
X155606571Y-112497055D01*
X155606572Y-112497054D01*
X155679635Y-112482521D01*
X155762496Y-112427156D01*
X155817861Y-112344295D01*
X155832395Y-112271229D01*
X155832395Y-110521881D01*
X155832395Y-110521878D01*
X155832394Y-110521876D01*
X155817862Y-110448819D01*
X155817861Y-110448815D01*
X155762496Y-110365954D01*
X155679635Y-110310589D01*
X155679634Y-110310588D01*
X155679630Y-110310587D01*
X155606572Y-110296055D01*
X155606569Y-110296055D01*
X153857221Y-110296055D01*
X153857218Y-110296055D01*
X153784159Y-110310587D01*
X153784155Y-110310588D01*
X153701294Y-110365954D01*
X153645928Y-110448815D01*
X153645927Y-110448819D01*
X153631395Y-110521876D01*
X153631395Y-110922055D01*
X153611710Y-110989094D01*
X153558906Y-111034849D01*
X153507395Y-111046055D01*
X152503439Y-111046055D01*
X152436400Y-111026370D01*
X152415758Y-111009736D01*
X145618713Y-104212691D01*
X145585228Y-104151368D01*
X145582394Y-104125010D01*
X145582394Y-103502537D01*
X145577011Y-103468548D01*
X145567541Y-103408751D01*
X145560422Y-103394780D01*
X145547527Y-103326114D01*
X145573803Y-103261374D01*
X145630909Y-103221116D01*
X145696934Y-103218286D01*
X145696952Y-103218175D01*
X145697500Y-103218261D01*
X145700715Y-103218124D01*
X145705788Y-103219574D01*
X145800370Y-103234554D01*
X145800376Y-103234555D01*
X146163413Y-103234554D01*
X146257199Y-103219701D01*
X146370237Y-103162105D01*
X146459945Y-103072397D01*
X146517541Y-102959359D01*
X146517541Y-102959357D01*
X146517542Y-102959356D01*
X146529809Y-102881899D01*
X146931895Y-102881899D01*
X146938296Y-102941427D01*
X146938298Y-102941434D01*
X146988540Y-103076141D01*
X146988544Y-103076148D01*
X147074704Y-103191242D01*
X147074707Y-103191245D01*
X147189801Y-103277405D01*
X147189808Y-103277409D01*
X147324519Y-103327653D01*
X147381895Y-103333820D01*
X147381895Y-102446555D01*
X147781895Y-102446555D01*
X147781895Y-103333820D01*
X147846985Y-103326824D01*
X147847228Y-103329091D01*
X147905545Y-103332212D01*
X147962221Y-103373073D01*
X147987808Y-103438089D01*
X147986777Y-103468548D01*
X147981395Y-103502533D01*
X147981395Y-104740572D01*
X147990146Y-104795821D01*
X147996249Y-104834359D01*
X148053845Y-104947397D01*
X148053847Y-104947399D01*
X148053849Y-104947402D01*
X148143547Y-105037100D01*
X148143549Y-105037101D01*
X148143553Y-105037105D01*
X148247693Y-105090167D01*
X148256593Y-105094702D01*
X148350370Y-105109554D01*
X148350376Y-105109555D01*
X148713413Y-105109554D01*
X148807199Y-105094701D01*
X148860852Y-105067363D01*
X148929517Y-105054467D01*
X148994257Y-105080742D01*
X149004825Y-105090167D01*
X153051683Y-109137025D01*
X153131607Y-109183169D01*
X153220751Y-109207055D01*
X153599376Y-109207055D01*
X153666415Y-109226740D01*
X153709861Y-109274760D01*
X153755108Y-109363562D01*
X153790663Y-109433343D01*
X153892481Y-109573483D01*
X154014967Y-109695969D01*
X154155107Y-109797787D01*
X154309450Y-109876428D01*
X154474194Y-109929957D01*
X154645284Y-109957055D01*
X154645285Y-109957055D01*
X154818505Y-109957055D01*
X154818506Y-109957055D01*
X154989596Y-109929957D01*
X155154340Y-109876428D01*
X155308683Y-109797787D01*
X155448823Y-109695969D01*
X155571309Y-109573483D01*
X155673127Y-109433343D01*
X155751768Y-109279000D01*
X155805297Y-109114256D01*
X155832395Y-108943166D01*
X155832395Y-108769944D01*
X155805297Y-108598854D01*
X155751768Y-108434110D01*
X155673127Y-108279767D01*
X155571309Y-108139627D01*
X155448823Y-108017141D01*
X155308683Y-107915323D01*
X155154340Y-107836682D01*
X154989596Y-107783153D01*
X154989594Y-107783152D01*
X154989593Y-107783152D01*
X154858166Y-107762336D01*
X154818506Y-107756055D01*
X154645284Y-107756055D01*
X154605623Y-107762336D01*
X154474197Y-107783152D01*
X154309447Y-107836683D01*
X154155106Y-107915323D01*
X154075151Y-107973414D01*
X154014967Y-108017141D01*
X154014965Y-108017143D01*
X154014964Y-108017143D01*
X153892483Y-108139624D01*
X153892483Y-108139625D01*
X153892481Y-108139627D01*
X153867991Y-108173335D01*
X153790663Y-108279766D01*
X153709861Y-108438350D01*
X153699411Y-108449414D01*
X153693089Y-108463258D01*
X153675908Y-108474299D01*
X153661886Y-108489146D01*
X153646206Y-108493387D01*
X153634311Y-108501032D01*
X153599376Y-108506055D01*
X153463439Y-108506055D01*
X153396400Y-108486370D01*
X153375758Y-108469736D01*
X149118713Y-104212691D01*
X149085228Y-104151368D01*
X149082394Y-104125010D01*
X149082394Y-103502537D01*
X149077011Y-103468548D01*
X149067541Y-103408751D01*
X149060422Y-103394780D01*
X149047527Y-103326114D01*
X149073803Y-103261374D01*
X149130909Y-103221116D01*
X149196934Y-103218286D01*
X149196952Y-103218175D01*
X149197500Y-103218261D01*
X149200715Y-103218124D01*
X149205788Y-103219574D01*
X149300370Y-103234554D01*
X149300376Y-103234555D01*
X149663413Y-103234554D01*
X149757199Y-103219701D01*
X149870237Y-103162105D01*
X149959945Y-103072397D01*
X150017541Y-102959359D01*
X150017541Y-102959357D01*
X150017542Y-102959356D01*
X150032394Y-102865579D01*
X150032395Y-102865574D01*
X150032394Y-101627537D01*
X150017541Y-101533751D01*
X149959945Y-101420713D01*
X149959941Y-101420709D01*
X149959940Y-101420707D01*
X149868714Y-101329481D01*
X149854010Y-101302553D01*
X149837418Y-101276735D01*
X149836526Y-101270534D01*
X149835229Y-101268158D01*
X149832395Y-101241800D01*
X149832395Y-101225941D01*
X149852080Y-101158902D01*
X149868714Y-101138260D01*
X149872257Y-101134717D01*
X149922404Y-101084570D01*
X149994879Y-100959040D01*
X150017784Y-100873559D01*
X150380874Y-100873559D01*
X150380874Y-101018509D01*
X150398576Y-101084572D01*
X150418391Y-101158522D01*
X150490862Y-101284045D01*
X150490864Y-101284047D01*
X150490865Y-101284049D01*
X150593359Y-101386543D01*
X150593360Y-101386544D01*
X150593362Y-101386545D01*
X150718885Y-101459016D01*
X150718886Y-101459016D01*
X150718889Y-101459018D01*
X150858899Y-101496534D01*
X150858902Y-101496534D01*
X150866959Y-101497595D01*
X150866756Y-101499129D01*
X150924955Y-101516219D01*
X150970710Y-101569023D01*
X150979973Y-101611607D01*
X150980855Y-101611491D01*
X150981915Y-101619547D01*
X151019433Y-101759564D01*
X151091904Y-101885087D01*
X151091906Y-101885089D01*
X151091907Y-101885091D01*
X151194401Y-101987585D01*
X151194402Y-101987586D01*
X151194404Y-101987587D01*
X151319927Y-102060058D01*
X151319928Y-102060058D01*
X151319931Y-102060060D01*
X151459941Y-102097576D01*
X151459944Y-102097576D01*
X151604888Y-102097576D01*
X151604891Y-102097576D01*
X151744901Y-102060060D01*
X151870431Y-101987585D01*
X151972925Y-101885091D01*
X152045400Y-101759561D01*
X152082916Y-101619551D01*
X152082916Y-101474601D01*
X152045403Y-101334602D01*
X152047066Y-101264757D01*
X152077495Y-101214834D01*
X153798070Y-99494261D01*
X153844214Y-99414337D01*
X153847715Y-99401268D01*
X153855259Y-99373119D01*
X153861679Y-99349156D01*
X153868100Y-99325193D01*
X153868100Y-98269386D01*
X153887785Y-98202347D01*
X153904419Y-98181705D01*
X153958109Y-98128015D01*
X154030584Y-98002485D01*
X154068100Y-97862475D01*
X154068100Y-97717525D01*
X154030584Y-97577515D01*
X153958109Y-97451985D01*
X153855615Y-97349491D01*
X153855613Y-97349490D01*
X153855611Y-97349488D01*
X153730087Y-97277017D01*
X153730086Y-97277016D01*
X153730085Y-97277016D01*
X153721718Y-97274774D01*
X153662059Y-97238410D01*
X153631530Y-97175563D01*
X153639825Y-97106188D01*
X153684310Y-97052310D01*
X153721717Y-97035226D01*
X153730085Y-97032984D01*
X153855615Y-96960509D01*
X153958109Y-96858015D01*
X154014964Y-96759539D01*
X154030583Y-96732487D01*
X154030584Y-96732485D01*
X154068100Y-96592475D01*
X154068100Y-96447525D01*
X154030584Y-96307515D01*
X153993393Y-96243099D01*
X153958111Y-96181988D01*
X153958106Y-96181982D01*
X153855617Y-96079493D01*
X153855611Y-96079488D01*
X153730088Y-96007017D01*
X153730089Y-96007017D01*
X153718606Y-96003940D01*
X153590075Y-95969500D01*
X153445125Y-95969500D01*
X153316593Y-96003940D01*
X153305111Y-96007017D01*
X153179588Y-96079488D01*
X153179582Y-96079493D01*
X153077093Y-96181982D01*
X153077088Y-96181988D01*
X153004617Y-96307511D01*
X153004616Y-96307515D01*
X152967100Y-96447525D01*
X152967100Y-96447527D01*
X152967100Y-96523456D01*
X152947415Y-96590495D01*
X152930781Y-96611137D01*
X152787131Y-96754786D01*
X152787130Y-96754788D01*
X152741799Y-96833304D01*
X152741796Y-96833310D01*
X152740985Y-96834712D01*
X152717100Y-96923856D01*
X152717100Y-98896106D01*
X152697415Y-98963145D01*
X152680781Y-98983787D01*
X151263616Y-100400951D01*
X151202293Y-100434436D01*
X151143842Y-100433045D01*
X151024065Y-100400951D01*
X151003849Y-100395534D01*
X150858899Y-100395534D01*
X150752358Y-100424082D01*
X150718885Y-100433051D01*
X150593362Y-100505522D01*
X150593356Y-100505527D01*
X150490867Y-100608016D01*
X150490862Y-100608022D01*
X150418391Y-100733545D01*
X150418390Y-100733549D01*
X150380874Y-100873559D01*
X150017784Y-100873559D01*
X150032395Y-100819030D01*
X150032395Y-100674080D01*
X149994879Y-100534070D01*
X149978398Y-100505525D01*
X149922406Y-100408543D01*
X149922401Y-100408537D01*
X149819912Y-100306048D01*
X149819906Y-100306043D01*
X149694383Y-100233572D01*
X149694384Y-100233572D01*
X149651607Y-100222110D01*
X149554370Y-100196055D01*
X149409420Y-100196055D01*
X149312183Y-100222110D01*
X149269406Y-100233572D01*
X149143883Y-100306043D01*
X149143877Y-100306048D01*
X149041388Y-100408537D01*
X149041383Y-100408543D01*
X148968912Y-100534066D01*
X148968911Y-100534070D01*
X148931395Y-100674080D01*
X148931395Y-100819030D01*
X148963023Y-100937066D01*
X148968912Y-100959043D01*
X149041383Y-101084566D01*
X149041388Y-101084572D01*
X149095076Y-101138260D01*
X149109779Y-101165187D01*
X149126372Y-101191006D01*
X149127263Y-101197206D01*
X149128561Y-101199583D01*
X149131395Y-101225941D01*
X149131395Y-101241800D01*
X149111710Y-101308839D01*
X149095076Y-101329481D01*
X149003849Y-101420707D01*
X149003846Y-101420712D01*
X148946247Y-101533753D01*
X148931395Y-101627530D01*
X148931395Y-102865572D01*
X148943409Y-102941427D01*
X148946249Y-102959359D01*
X148950448Y-102967600D01*
X148953367Y-102973328D01*
X148966262Y-103041997D01*
X148939985Y-103106737D01*
X148882878Y-103146993D01*
X148816855Y-103149822D01*
X148816838Y-103149935D01*
X148816284Y-103149847D01*
X148813072Y-103149985D01*
X148808004Y-103148535D01*
X148713419Y-103133555D01*
X148350371Y-103133555D01*
X148345515Y-103133938D01*
X148345413Y-103132646D01*
X148282012Y-103124450D01*
X148228563Y-103079451D01*
X148207927Y-103012698D01*
X148215733Y-102967600D01*
X148225490Y-102941438D01*
X148225493Y-102941427D01*
X148231894Y-102881899D01*
X148231895Y-102881882D01*
X148231895Y-102446555D01*
X147781895Y-102446555D01*
X147381895Y-102446555D01*
X146931895Y-102446555D01*
X146931895Y-102881899D01*
X146529809Y-102881899D01*
X146532394Y-102865579D01*
X146532395Y-102865574D01*
X146532394Y-102243097D01*
X146552079Y-102176059D01*
X146568704Y-102155426D01*
X146720216Y-102003914D01*
X146781537Y-101970432D01*
X146851229Y-101975416D01*
X146907162Y-102017288D01*
X146909859Y-102024519D01*
X146931895Y-102046555D01*
X148231895Y-102046555D01*
X148231895Y-101611227D01*
X148231894Y-101611210D01*
X148225493Y-101551682D01*
X148225491Y-101551675D01*
X148175249Y-101416968D01*
X148175245Y-101416961D01*
X148089085Y-101301867D01*
X148033617Y-101260343D01*
X147991747Y-101204409D01*
X147986763Y-101134717D01*
X148020249Y-101073394D01*
X148075832Y-101041304D01*
X148194380Y-101009539D01*
X148319910Y-100937064D01*
X148422404Y-100834570D01*
X148494879Y-100709040D01*
X148532395Y-100569030D01*
X148532395Y-100424080D01*
X148494879Y-100284070D01*
X148480778Y-100259647D01*
X148422406Y-100158543D01*
X148422401Y-100158537D01*
X148319912Y-100056048D01*
X148319906Y-100056043D01*
X148194383Y-99983572D01*
X148194384Y-99983572D01*
X148182901Y-99980495D01*
X148054370Y-99946055D01*
X147909420Y-99946055D01*
X147780888Y-99980495D01*
X147769406Y-99983572D01*
X147643883Y-100056043D01*
X147643881Y-100056045D01*
X147541385Y-100158540D01*
X147504682Y-100222110D01*
X147484977Y-100247789D01*
X146454825Y-101277942D01*
X146393502Y-101311427D01*
X146323810Y-101306443D01*
X146310852Y-101300747D01*
X146278081Y-101284049D01*
X146257198Y-101273408D01*
X146257196Y-101273407D01*
X146163419Y-101258555D01*
X145800377Y-101258555D01*
X145719414Y-101271378D01*
X145706591Y-101273409D01*
X145593553Y-101331005D01*
X145593552Y-101331006D01*
X145593547Y-101331009D01*
X145503849Y-101420707D01*
X145503846Y-101420712D01*
X145446247Y-101533753D01*
X145431395Y-101627530D01*
X145431395Y-102865572D01*
X145443409Y-102941427D01*
X145446249Y-102959359D01*
X145450448Y-102967600D01*
X145453367Y-102973328D01*
X145466262Y-103041997D01*
X145439985Y-103106737D01*
X145382878Y-103146993D01*
X145316855Y-103149822D01*
X145316838Y-103149935D01*
X145316284Y-103149847D01*
X145313072Y-103149985D01*
X145308004Y-103148535D01*
X145213419Y-103133555D01*
X144850371Y-103133555D01*
X144845515Y-103133938D01*
X144845413Y-103132646D01*
X144782012Y-103124450D01*
X144728563Y-103079451D01*
X144707927Y-103012698D01*
X144715733Y-102967600D01*
X144725490Y-102941438D01*
X144725493Y-102941427D01*
X144731894Y-102881899D01*
X144731895Y-102881882D01*
X144731895Y-102446555D01*
X144281895Y-102446555D01*
X143881895Y-102446555D01*
X143431895Y-102446555D01*
X143431895Y-102881899D01*
X143062395Y-102881899D01*
X143062395Y-101611210D01*
X143431895Y-101611210D01*
X143431895Y-102046555D01*
X143881895Y-102046555D01*
X144281895Y-102046555D01*
X144731895Y-102046555D01*
X144731895Y-101611227D01*
X144731894Y-101611210D01*
X144725493Y-101551682D01*
X144725491Y-101551675D01*
X144675249Y-101416968D01*
X144675245Y-101416961D01*
X144589085Y-101301867D01*
X144589082Y-101301864D01*
X144473988Y-101215704D01*
X144473981Y-101215700D01*
X144339275Y-101165458D01*
X144339268Y-101165456D01*
X144281895Y-101159287D01*
X144281895Y-102046555D01*
X143881895Y-102046555D01*
X143881895Y-101159288D01*
X143881894Y-101159287D01*
X143824521Y-101165456D01*
X143824514Y-101165458D01*
X143689808Y-101215700D01*
X143689801Y-101215704D01*
X143574707Y-101301864D01*
X143574704Y-101301867D01*
X143488544Y-101416961D01*
X143488540Y-101416968D01*
X143438298Y-101551675D01*
X143438296Y-101551682D01*
X143431895Y-101611210D01*
X143062395Y-101611210D01*
X143062395Y-100259647D01*
X143082080Y-100192608D01*
X143098709Y-100171971D01*
X145423862Y-97846817D01*
X145485185Y-97813333D01*
X145511543Y-97810499D01*
X145632634Y-97810499D01*
X145632634Y-97810498D01*
X145678349Y-97803258D01*
X145724065Y-97796018D01*
X145724066Y-97796018D01*
X145724067Y-97796017D01*
X145724070Y-97796017D01*
X145834286Y-97739859D01*
X145834291Y-97739854D01*
X145839772Y-97734374D01*
X145901095Y-97700889D01*
X145927453Y-97698055D01*
X147026980Y-97698055D01*
X147026982Y-97698055D01*
X147116126Y-97674169D01*
X147196050Y-97628025D01*
X147990770Y-96833305D01*
X148036915Y-96753380D01*
X148040062Y-96741635D01*
X148042515Y-96732483D01*
X148049609Y-96706003D01*
X148057500Y-96676555D01*
X148823307Y-96676555D01*
X148828168Y-96721784D01*
X148877410Y-96853802D01*
X148961850Y-96966599D01*
X149074645Y-97051038D01*
X149206670Y-97100281D01*
X149265008Y-97106554D01*
X149265025Y-97106555D01*
X149281895Y-97106555D01*
X149681895Y-97106555D01*
X149698765Y-97106555D01*
X149698781Y-97106554D01*
X149757119Y-97100281D01*
X149889144Y-97051038D01*
X150001939Y-96966599D01*
X150086379Y-96853802D01*
X150135621Y-96721784D01*
X150140483Y-96676555D01*
X149681895Y-96676555D01*
X149681895Y-97106555D01*
X149281895Y-97106555D01*
X149281895Y-96676555D01*
X148823307Y-96676555D01*
X148057500Y-96676555D01*
X148060801Y-96664236D01*
X148060801Y-95949500D01*
X148080486Y-95882461D01*
X148133290Y-95836706D01*
X148184801Y-95825500D01*
X148834660Y-95825500D01*
X148901699Y-95845185D01*
X148947454Y-95897989D01*
X148957398Y-95967147D01*
X148933927Y-96023811D01*
X148877410Y-96099307D01*
X148828168Y-96231325D01*
X148823306Y-96276554D01*
X148823307Y-96276555D01*
X150140483Y-96276555D01*
X150140483Y-96276554D01*
X150135621Y-96231325D01*
X150086379Y-96099305D01*
X150086378Y-96099304D01*
X150000671Y-95984815D01*
X149976253Y-95919351D01*
X149989452Y-95854211D01*
X150027912Y-95778730D01*
X150042395Y-95687290D01*
X150042394Y-95345821D01*
X150042394Y-95345815D01*
X150027913Y-95254384D01*
X150027913Y-95254383D01*
X150027912Y-95254381D01*
X150027912Y-95254380D01*
X149971754Y-95144164D01*
X149971752Y-95144162D01*
X149971749Y-95144158D01*
X149886819Y-95059228D01*
X149853334Y-94997905D01*
X149850500Y-94971547D01*
X149850500Y-93968518D01*
X149850500Y-93968516D01*
X149836619Y-93916714D01*
X149832395Y-93884622D01*
X149832395Y-92038061D01*
X150631395Y-92038061D01*
X150631395Y-92455048D01*
X150647174Y-92554676D01*
X150647175Y-92554679D01*
X150647176Y-92554681D01*
X150708367Y-92674775D01*
X150708368Y-92674776D01*
X150708371Y-92674780D01*
X150803669Y-92770078D01*
X150803673Y-92770081D01*
X150803675Y-92770083D01*
X150923769Y-92831274D01*
X150923771Y-92831274D01*
X150923773Y-92831275D01*
X151023402Y-92847055D01*
X151023407Y-92847055D01*
X153440388Y-92847055D01*
X153540016Y-92831275D01*
X153540016Y-92831274D01*
X153540021Y-92831274D01*
X153660115Y-92770083D01*
X153755423Y-92674775D01*
X153816614Y-92554681D01*
X153816615Y-92554676D01*
X153832395Y-92455048D01*
X153832395Y-92038061D01*
X153816615Y-91938433D01*
X153816614Y-91938431D01*
X153816614Y-91938429D01*
X153755423Y-91818335D01*
X153755421Y-91818333D01*
X153755418Y-91818329D01*
X153660120Y-91723031D01*
X153660116Y-91723028D01*
X153660115Y-91723027D01*
X153540021Y-91661836D01*
X153540019Y-91661835D01*
X153540016Y-91661834D01*
X153440388Y-91646055D01*
X153440383Y-91646055D01*
X151023407Y-91646055D01*
X151023402Y-91646055D01*
X150923773Y-91661834D01*
X150803673Y-91723028D01*
X150803669Y-91723031D01*
X150708371Y-91818329D01*
X150708368Y-91818333D01*
X150647174Y-91938433D01*
X150631395Y-92038061D01*
X149832395Y-92038061D01*
X149832395Y-90538061D01*
X150631395Y-90538061D01*
X150631395Y-90955048D01*
X150647174Y-91054676D01*
X150647175Y-91054679D01*
X150647176Y-91054681D01*
X150708367Y-91174775D01*
X150708368Y-91174776D01*
X150708371Y-91174780D01*
X150803669Y-91270078D01*
X150803673Y-91270081D01*
X150803675Y-91270083D01*
X150923769Y-91331274D01*
X150923771Y-91331274D01*
X150923773Y-91331275D01*
X151023402Y-91347055D01*
X151023407Y-91347055D01*
X153440388Y-91347055D01*
X153540016Y-91331275D01*
X153540016Y-91331274D01*
X153540021Y-91331274D01*
X153660115Y-91270083D01*
X153755423Y-91174775D01*
X153816614Y-91054681D01*
X153816615Y-91054676D01*
X153832395Y-90955048D01*
X153832395Y-90538061D01*
X153816615Y-90438433D01*
X153816614Y-90438431D01*
X153816614Y-90438429D01*
X153755423Y-90318335D01*
X153755421Y-90318333D01*
X153755418Y-90318329D01*
X153660120Y-90223031D01*
X153660116Y-90223028D01*
X153660115Y-90223027D01*
X153540021Y-90161836D01*
X153540019Y-90161835D01*
X153540016Y-90161834D01*
X153440388Y-90146055D01*
X153440383Y-90146055D01*
X151023407Y-90146055D01*
X151023402Y-90146055D01*
X150923773Y-90161834D01*
X150803673Y-90223028D01*
X150803669Y-90223031D01*
X150708371Y-90318329D01*
X150708368Y-90318333D01*
X150647174Y-90438433D01*
X150631395Y-90538061D01*
X149832395Y-90538061D01*
X149832395Y-89038061D01*
X150631395Y-89038061D01*
X150631395Y-89455048D01*
X150647174Y-89554676D01*
X150647175Y-89554679D01*
X150647176Y-89554681D01*
X150708367Y-89674775D01*
X150708368Y-89674776D01*
X150708371Y-89674780D01*
X150803669Y-89770078D01*
X150803673Y-89770081D01*
X150803675Y-89770083D01*
X150923769Y-89831274D01*
X150923771Y-89831274D01*
X150923773Y-89831275D01*
X151023402Y-89847055D01*
X151023407Y-89847055D01*
X153440388Y-89847055D01*
X153540016Y-89831275D01*
X153540016Y-89831274D01*
X153540021Y-89831274D01*
X153660115Y-89770083D01*
X153755423Y-89674775D01*
X153816614Y-89554681D01*
X153816615Y-89554676D01*
X153832395Y-89455048D01*
X153832395Y-89038061D01*
X153816615Y-88938433D01*
X153816614Y-88938431D01*
X153816614Y-88938429D01*
X153755423Y-88818335D01*
X153755421Y-88818333D01*
X153755418Y-88818329D01*
X153660120Y-88723031D01*
X153660116Y-88723028D01*
X153660115Y-88723027D01*
X153540021Y-88661836D01*
X153540019Y-88661835D01*
X153540016Y-88661834D01*
X153440388Y-88646055D01*
X153440383Y-88646055D01*
X151023407Y-88646055D01*
X151023402Y-88646055D01*
X150923773Y-88661834D01*
X150803673Y-88723028D01*
X150803669Y-88723031D01*
X150708371Y-88818329D01*
X150708368Y-88818333D01*
X150647174Y-88938433D01*
X150631395Y-89038061D01*
X149832395Y-89038061D01*
X149832395Y-87538061D01*
X150631395Y-87538061D01*
X150631395Y-87955048D01*
X150647174Y-88054676D01*
X150647175Y-88054679D01*
X150647176Y-88054681D01*
X150708367Y-88174775D01*
X150708368Y-88174776D01*
X150708371Y-88174780D01*
X150803669Y-88270078D01*
X150803673Y-88270081D01*
X150803675Y-88270083D01*
X150923769Y-88331274D01*
X150923771Y-88331274D01*
X150923773Y-88331275D01*
X151023402Y-88347055D01*
X151023407Y-88347055D01*
X153440388Y-88347055D01*
X153540016Y-88331275D01*
X153540016Y-88331274D01*
X153540021Y-88331274D01*
X153660115Y-88270083D01*
X153755423Y-88174775D01*
X153816614Y-88054681D01*
X153826368Y-87993099D01*
X153832395Y-87955048D01*
X153832395Y-87538061D01*
X153816615Y-87438433D01*
X153816614Y-87438431D01*
X153816614Y-87438429D01*
X153755423Y-87318335D01*
X153755421Y-87318333D01*
X153755418Y-87318329D01*
X153660120Y-87223031D01*
X153660116Y-87223028D01*
X153660115Y-87223027D01*
X153540021Y-87161836D01*
X153540019Y-87161835D01*
X153540016Y-87161834D01*
X153440388Y-87146055D01*
X153440383Y-87146055D01*
X151023407Y-87146055D01*
X151023402Y-87146055D01*
X150923773Y-87161834D01*
X150803673Y-87223028D01*
X150803669Y-87223031D01*
X150708371Y-87318329D01*
X150708368Y-87318333D01*
X150647174Y-87438433D01*
X150631395Y-87538061D01*
X149832395Y-87538061D01*
X149832395Y-86975941D01*
X149852080Y-86908902D01*
X149868714Y-86888260D01*
X149922404Y-86834570D01*
X149994879Y-86709040D01*
X150032395Y-86569030D01*
X150032395Y-86424080D01*
X149994879Y-86284070D01*
X149944081Y-86196086D01*
X149922406Y-86158543D01*
X149922401Y-86158537D01*
X149819912Y-86056048D01*
X149819906Y-86056043D01*
X149788760Y-86038061D01*
X150631395Y-86038061D01*
X150631395Y-86455048D01*
X150647174Y-86554676D01*
X150647175Y-86554679D01*
X150647176Y-86554681D01*
X150708367Y-86674775D01*
X150708368Y-86674776D01*
X150708371Y-86674780D01*
X150803669Y-86770078D01*
X150803673Y-86770081D01*
X150803675Y-86770083D01*
X150923769Y-86831274D01*
X150923771Y-86831274D01*
X150923773Y-86831275D01*
X151023402Y-86847055D01*
X151023407Y-86847055D01*
X153440388Y-86847055D01*
X153540016Y-86831275D01*
X153540016Y-86831274D01*
X153540021Y-86831274D01*
X153660115Y-86770083D01*
X153755423Y-86674775D01*
X153816614Y-86554681D01*
X153816615Y-86554676D01*
X153832395Y-86455048D01*
X153832395Y-86038061D01*
X153816615Y-85938433D01*
X153816614Y-85938431D01*
X153816614Y-85938429D01*
X153755423Y-85818335D01*
X153755421Y-85818333D01*
X153755418Y-85818329D01*
X153660120Y-85723031D01*
X153660116Y-85723028D01*
X153660115Y-85723027D01*
X153540021Y-85661836D01*
X153540019Y-85661835D01*
X153540016Y-85661834D01*
X153440388Y-85646055D01*
X153440383Y-85646055D01*
X151023407Y-85646055D01*
X151023402Y-85646055D01*
X150923773Y-85661834D01*
X150803673Y-85723028D01*
X150803669Y-85723031D01*
X150708371Y-85818329D01*
X150708368Y-85818333D01*
X150647174Y-85938433D01*
X150631395Y-86038061D01*
X149788760Y-86038061D01*
X149694383Y-85983572D01*
X149694384Y-85983572D01*
X149682901Y-85980495D01*
X149554370Y-85946055D01*
X149409420Y-85946055D01*
X149280888Y-85980495D01*
X149269406Y-85983572D01*
X149143883Y-86056043D01*
X149143877Y-86056048D01*
X149041388Y-86158537D01*
X149041383Y-86158543D01*
X148968912Y-86284066D01*
X148968911Y-86284070D01*
X148931395Y-86424080D01*
X148931395Y-86569030D01*
X148959730Y-86674775D01*
X148968912Y-86709043D01*
X149041383Y-86834566D01*
X149041388Y-86834572D01*
X149095076Y-86888260D01*
X149128561Y-86949583D01*
X149131395Y-86975941D01*
X149131395Y-94042699D01*
X149131663Y-94043699D01*
X149145275Y-94094498D01*
X149149500Y-94126592D01*
X149149500Y-94135307D01*
X149129815Y-94202346D01*
X149077011Y-94248101D01*
X149007853Y-94258045D01*
X148963502Y-94242695D01*
X148939365Y-94228760D01*
X148939364Y-94228759D01*
X148927881Y-94225682D01*
X148799350Y-94191242D01*
X148654400Y-94191242D01*
X148525868Y-94225682D01*
X148514386Y-94228759D01*
X148435091Y-94274541D01*
X148432899Y-94275072D01*
X148431285Y-94276651D01*
X148399113Y-94283269D01*
X148367191Y-94291014D01*
X148365057Y-94290275D01*
X148362848Y-94290730D01*
X148332222Y-94278911D01*
X148301164Y-94268162D01*
X148299768Y-94266387D01*
X148297664Y-94265575D01*
X148278278Y-94239059D01*
X148257974Y-94213240D01*
X148257343Y-94210425D01*
X148256427Y-94209172D01*
X148254186Y-94196340D01*
X148249315Y-94174602D01*
X148249091Y-94170879D01*
X148249091Y-94093258D01*
X148242394Y-94059590D01*
X148241886Y-94051147D01*
X148244045Y-94041735D01*
X148244045Y-94019508D01*
X148249091Y-93994141D01*
X148249091Y-93593257D01*
X148249091Y-93593254D01*
X148249090Y-93593252D01*
X148234558Y-93520195D01*
X148234557Y-93520191D01*
X148210089Y-93483572D01*
X148179192Y-93437330D01*
X148096331Y-93381965D01*
X148096330Y-93381964D01*
X148096326Y-93381963D01*
X148023268Y-93367431D01*
X148023265Y-93367431D01*
X147546530Y-93367431D01*
X147479491Y-93347746D01*
X147433736Y-93294942D01*
X147424913Y-93267622D01*
X147411735Y-93201374D01*
X147411734Y-93201370D01*
X147390469Y-93169544D01*
X147356369Y-93118509D01*
X147273508Y-93063144D01*
X147273507Y-93063143D01*
X147273503Y-93063142D01*
X147234439Y-93055372D01*
X147172528Y-93022987D01*
X147137954Y-92962272D01*
X147141693Y-92892502D01*
X147170947Y-92846076D01*
X147383650Y-92633374D01*
X147444973Y-92599889D01*
X147471331Y-92597055D01*
X147752509Y-92597055D01*
X147819548Y-92616740D01*
X147840190Y-92633374D01*
X147893880Y-92687064D01*
X147893881Y-92687065D01*
X147893883Y-92687066D01*
X148019406Y-92759537D01*
X148019407Y-92759537D01*
X148019410Y-92759539D01*
X148159420Y-92797055D01*
X148159423Y-92797055D01*
X148304367Y-92797055D01*
X148304370Y-92797055D01*
X148444380Y-92759539D01*
X148569910Y-92687064D01*
X148672404Y-92584570D01*
X148744879Y-92459040D01*
X148782395Y-92319030D01*
X148782395Y-92174080D01*
X148744879Y-92034070D01*
X148709636Y-91973028D01*
X148672406Y-91908543D01*
X148672401Y-91908537D01*
X148569912Y-91806048D01*
X148569906Y-91806043D01*
X148444383Y-91733572D01*
X148444384Y-91733572D01*
X148432901Y-91730495D01*
X148304370Y-91696055D01*
X148159420Y-91696055D01*
X148030888Y-91730495D01*
X148019406Y-91733572D01*
X147893883Y-91806043D01*
X147893877Y-91806048D01*
X147840190Y-91859736D01*
X147778867Y-91893221D01*
X147752509Y-91896055D01*
X147228643Y-91896055D01*
X147139499Y-91919941D01*
X147139496Y-91919942D01*
X147059578Y-91966082D01*
X147059573Y-91966086D01*
X146219532Y-92806127D01*
X146219530Y-92806130D01*
X146188645Y-92859625D01*
X146188644Y-92859627D01*
X146182793Y-92869762D01*
X146173387Y-92886053D01*
X146153275Y-92961112D01*
X146151774Y-92965419D01*
X146133997Y-92990269D01*
X146118092Y-93016364D01*
X146113860Y-93018419D01*
X146111123Y-93022246D01*
X146082728Y-93033542D01*
X146055245Y-93046893D01*
X146047556Y-93047534D01*
X146046202Y-93048074D01*
X146044672Y-93047775D01*
X146034682Y-93048610D01*
X145999014Y-93048610D01*
X145937015Y-93031998D01*
X145864821Y-92990317D01*
X145808392Y-92975197D01*
X145775677Y-92966431D01*
X145775676Y-92966431D01*
X139184730Y-92966431D01*
X139117691Y-92946746D01*
X139071936Y-92893942D01*
X139061992Y-92824784D01*
X139066503Y-92805385D01*
X139082395Y-92705048D01*
X139082395Y-92288061D01*
X139066615Y-92188433D01*
X139066614Y-92188431D01*
X139066614Y-92188429D01*
X139005423Y-92068335D01*
X139005421Y-92068333D01*
X139005418Y-92068329D01*
X138910120Y-91973031D01*
X138910116Y-91973028D01*
X138910115Y-91973027D01*
X138790021Y-91911836D01*
X138790019Y-91911835D01*
X138790016Y-91911834D01*
X138690388Y-91896055D01*
X138690383Y-91896055D01*
X136273407Y-91896055D01*
X136273402Y-91896055D01*
X136173773Y-91911834D01*
X136173769Y-91911835D01*
X136173769Y-91911836D01*
X136093706Y-91952630D01*
X136053673Y-91973028D01*
X136053669Y-91973031D01*
X135958371Y-92068329D01*
X135958368Y-92068333D01*
X135897174Y-92188433D01*
X135881395Y-92288061D01*
X135881395Y-92705048D01*
X135897174Y-92804676D01*
X135897175Y-92804679D01*
X135897176Y-92804681D01*
X135942657Y-92893942D01*
X135958368Y-92924776D01*
X135958371Y-92924780D01*
X136053669Y-93020078D01*
X136053673Y-93020081D01*
X136053675Y-93020083D01*
X136173769Y-93081274D01*
X136173771Y-93081274D01*
X136173773Y-93081275D01*
X136273402Y-93097055D01*
X136273407Y-93097055D01*
X137836351Y-93097055D01*
X137857596Y-93103293D01*
X137879685Y-93104873D01*
X137890468Y-93112945D01*
X137903390Y-93116740D01*
X137917889Y-93133473D01*
X137935618Y-93146745D01*
X137940325Y-93159365D01*
X137949145Y-93169544D01*
X137952296Y-93191461D01*
X137960035Y-93212209D01*
X137957172Y-93225369D01*
X137959089Y-93238702D01*
X137949889Y-93258845D01*
X137945183Y-93280482D01*
X137931914Y-93298207D01*
X137930064Y-93302258D01*
X137924032Y-93308736D01*
X137823032Y-93409736D01*
X137761709Y-93443221D01*
X137735351Y-93446055D01*
X137659420Y-93446055D01*
X137530888Y-93480495D01*
X137519406Y-93483572D01*
X137393883Y-93556043D01*
X137393877Y-93556048D01*
X137291388Y-93658537D01*
X137291383Y-93658543D01*
X137218912Y-93784066D01*
X137218911Y-93784070D01*
X137181395Y-93924080D01*
X137181395Y-94069030D01*
X137218911Y-94209040D01*
X137218912Y-94209043D01*
X137291383Y-94334566D01*
X137291385Y-94334568D01*
X137291386Y-94334570D01*
X137393880Y-94437064D01*
X137393881Y-94437065D01*
X137393883Y-94437066D01*
X137519406Y-94509537D01*
X137519407Y-94509537D01*
X137519410Y-94509539D01*
X137659420Y-94547055D01*
X137659423Y-94547055D01*
X137804367Y-94547055D01*
X137804370Y-94547055D01*
X137944380Y-94509539D01*
X138069910Y-94437064D01*
X138172404Y-94334570D01*
X138244879Y-94209040D01*
X138282395Y-94069030D01*
X138282395Y-93993099D01*
X138302080Y-93926060D01*
X138318714Y-93905418D01*
X138520382Y-93703750D01*
X138581705Y-93670265D01*
X138608063Y-93667431D01*
X139265976Y-93667431D01*
X139333015Y-93687116D01*
X139378770Y-93739920D01*
X139388714Y-93809078D01*
X139359689Y-93872634D01*
X139353660Y-93879108D01*
X139085735Y-94147033D01*
X138823032Y-94409736D01*
X138761709Y-94443221D01*
X138735351Y-94446055D01*
X138659420Y-94446055D01*
X138572043Y-94469468D01*
X138519406Y-94483572D01*
X138393883Y-94556043D01*
X138393877Y-94556048D01*
X138291388Y-94658537D01*
X138291383Y-94658543D01*
X138218912Y-94784066D01*
X138218911Y-94784070D01*
X138181395Y-94924080D01*
X138181395Y-95069030D01*
X138201717Y-95144871D01*
X138218912Y-95209044D01*
X138218913Y-95209047D01*
X138227175Y-95223356D01*
X138243648Y-95291256D01*
X138220795Y-95357283D01*
X138165873Y-95400473D01*
X138151883Y-95405129D01*
X138096611Y-95419939D01*
X138096604Y-95419942D01*
X138016686Y-95466082D01*
X138016681Y-95466086D01*
X137823032Y-95659736D01*
X137761709Y-95693221D01*
X137735351Y-95696055D01*
X137659420Y-95696055D01*
X137530888Y-95730495D01*
X137519406Y-95733572D01*
X137393883Y-95806043D01*
X137393877Y-95806048D01*
X137291388Y-95908537D01*
X137291383Y-95908543D01*
X137218912Y-96034066D01*
X137218911Y-96034070D01*
X137181395Y-96174080D01*
X137181395Y-96319030D01*
X137208865Y-96421548D01*
X137218912Y-96459043D01*
X137291383Y-96584566D01*
X137291385Y-96584568D01*
X137291386Y-96584570D01*
X137393880Y-96687064D01*
X137393881Y-96687065D01*
X137393883Y-96687066D01*
X137519406Y-96759537D01*
X137519407Y-96759537D01*
X137519410Y-96759539D01*
X137659420Y-96797055D01*
X137659423Y-96797055D01*
X137804367Y-96797055D01*
X137804370Y-96797055D01*
X137944380Y-96759539D01*
X138069910Y-96687064D01*
X138172404Y-96584570D01*
X138244879Y-96459040D01*
X138282395Y-96319030D01*
X138282395Y-96243099D01*
X138291039Y-96213658D01*
X138297563Y-96183672D01*
X138301317Y-96178656D01*
X138302080Y-96176060D01*
X138318714Y-96155418D01*
X138340758Y-96133374D01*
X138402081Y-96099889D01*
X138428439Y-96097055D01*
X144882989Y-96097055D01*
X144882991Y-96097055D01*
X144972135Y-96073169D01*
X144988500Y-96063720D01*
X145056397Y-96047247D01*
X145122425Y-96070098D01*
X145165617Y-96125018D01*
X145174500Y-96171107D01*
X145174500Y-96618897D01*
X145154815Y-96685936D01*
X145102011Y-96731691D01*
X145032853Y-96741635D01*
X144976189Y-96718164D01*
X144879144Y-96645516D01*
X144747121Y-96596274D01*
X144747115Y-96596272D01*
X144701895Y-96591410D01*
X144701895Y-97126000D01*
X144682210Y-97193039D01*
X144629406Y-97238794D01*
X144577895Y-97250000D01*
X144501895Y-97250000D01*
X144501895Y-97326000D01*
X144482210Y-97393039D01*
X144429406Y-97438794D01*
X144377895Y-97450000D01*
X143871895Y-97450000D01*
X143871895Y-97466886D01*
X143878168Y-97525224D01*
X143927411Y-97657249D01*
X144011850Y-97770044D01*
X144124647Y-97854484D01*
X144162502Y-97868603D01*
X144218436Y-97910473D01*
X144242854Y-97975937D01*
X144228003Y-98044211D01*
X144206851Y-98072466D01*
X142431426Y-99847891D01*
X142431422Y-99847896D01*
X142385282Y-99927814D01*
X142385281Y-99927817D01*
X142361395Y-100016961D01*
X142361395Y-104318212D01*
X142341710Y-104385251D01*
X142288906Y-104431006D01*
X142219748Y-104440950D01*
X142163084Y-104417479D01*
X142129144Y-104392071D01*
X141997121Y-104342829D01*
X141997115Y-104342827D01*
X141951895Y-104337965D01*
X141951895Y-105655143D01*
X141997124Y-105650281D01*
X142129140Y-105601040D01*
X142163082Y-105575631D01*
X142228546Y-105551213D01*
X142296820Y-105566064D01*
X142346226Y-105615468D01*
X142361395Y-105674897D01*
X142361395Y-106422055D01*
X142341710Y-106489094D01*
X142288906Y-106534849D01*
X142237395Y-106546055D01*
X141408518Y-106546055D01*
X141335459Y-106560587D01*
X141335455Y-106560588D01*
X141252594Y-106615954D01*
X141197228Y-106698815D01*
X141197227Y-106698819D01*
X141182695Y-106771876D01*
X141182695Y-108116633D01*
X141197227Y-108189690D01*
X141197228Y-108189694D01*
X141197229Y-108189695D01*
X141252594Y-108272556D01*
X141335455Y-108327921D01*
X141335459Y-108327922D01*
X141408516Y-108342454D01*
X141408519Y-108342455D01*
X141408521Y-108342455D01*
X143935751Y-108342455D01*
X144002790Y-108362140D01*
X144023432Y-108378774D01*
X144722576Y-109077918D01*
X144756061Y-109139241D01*
X144758895Y-109165599D01*
X144758895Y-109241530D01*
X144768936Y-109279002D01*
X144796412Y-109381543D01*
X144868883Y-109507066D01*
X144868885Y-109507068D01*
X144868886Y-109507070D01*
X144971380Y-109609564D01*
X144971381Y-109609565D01*
X144971383Y-109609566D01*
X145096906Y-109682037D01*
X145096907Y-109682037D01*
X145096910Y-109682039D01*
X145236920Y-109719555D01*
X145312851Y-109719555D01*
X145379890Y-109739240D01*
X145400532Y-109755874D01*
X145583632Y-109938974D01*
X145617117Y-110000297D01*
X145612133Y-110069989D01*
X145570261Y-110125922D01*
X145504797Y-110150339D01*
X145495951Y-110150655D01*
X141408518Y-110150655D01*
X141335459Y-110165187D01*
X141335455Y-110165188D01*
X141252594Y-110220554D01*
X141197228Y-110303415D01*
X141197227Y-110303419D01*
X141182695Y-110376476D01*
X141182695Y-111721233D01*
X141197227Y-111794290D01*
X141197228Y-111794294D01*
X141197229Y-111794295D01*
X141252594Y-111877156D01*
X141335455Y-111932521D01*
X141335459Y-111932522D01*
X141408516Y-111947054D01*
X141408519Y-111947055D01*
X141408521Y-111947055D01*
X144230351Y-111947055D01*
X144297390Y-111966740D01*
X144318032Y-111983374D01*
X144710076Y-112375418D01*
X144724779Y-112402345D01*
X144741372Y-112428164D01*
X144742263Y-112434364D01*
X144743561Y-112436741D01*
X144746395Y-112463099D01*
X144746395Y-112588442D01*
X144726710Y-112655481D01*
X144710076Y-112676123D01*
X144637040Y-112749158D01*
X144637037Y-112749163D01*
X144580876Y-112859382D01*
X144580876Y-112859383D01*
X144566395Y-112950819D01*
X144566395Y-113135010D01*
X144546710Y-113202049D01*
X144530076Y-113222691D01*
X144251029Y-113501738D01*
X144224308Y-113548023D01*
X144224306Y-113548025D01*
X144204888Y-113581656D01*
X144204887Y-113581659D01*
X144181000Y-113670806D01*
X144181000Y-114018443D01*
X144161315Y-114085482D01*
X144108511Y-114131237D01*
X144039353Y-114141181D01*
X143982692Y-114117712D01*
X143974591Y-114111648D01*
X143974586Y-114111645D01*
X143839879Y-114061403D01*
X143839872Y-114061401D01*
X143780344Y-114055000D01*
X143420000Y-114055000D01*
X143420000Y-114581000D01*
X143400315Y-114648039D01*
X143347511Y-114693794D01*
X143296000Y-114705000D01*
X143220000Y-114705000D01*
X143220000Y-114781000D01*
X143200315Y-114848039D01*
X143147511Y-114893794D01*
X143096000Y-114905000D01*
X142207734Y-114905000D01*
X142213901Y-114962375D01*
X142264145Y-115097086D01*
X142264146Y-115097088D01*
X142337891Y-115195598D01*
X142362308Y-115261062D01*
X142349109Y-115326203D01*
X142321854Y-115379695D01*
X142321852Y-115379698D01*
X142307000Y-115473475D01*
X142307000Y-115836517D01*
X142316545Y-115896784D01*
X142321854Y-115930304D01*
X142360302Y-116005763D01*
X142360810Y-116008465D01*
X142362611Y-116010544D01*
X142367219Y-116042593D01*
X142373198Y-116074429D01*
X142372163Y-116076978D01*
X142372555Y-116079702D01*
X142359099Y-116109165D01*
X142346922Y-116139169D01*
X142344673Y-116140754D01*
X142343530Y-116143258D01*
X142316285Y-116160767D01*
X142289816Y-116179427D01*
X142286357Y-116180000D01*
X142284752Y-116181032D01*
X142249817Y-116186055D01*
X142051321Y-116186055D01*
X141984282Y-116166370D01*
X141938527Y-116113566D01*
X141928583Y-116044408D01*
X141935140Y-116018720D01*
X141980621Y-115896784D01*
X141985483Y-115851555D01*
X140668307Y-115851555D01*
X140673168Y-115896784D01*
X140722410Y-116028802D01*
X140808119Y-116143294D01*
X140832536Y-116208758D01*
X140819337Y-116273900D01*
X140780876Y-116349382D01*
X140780876Y-116349383D01*
X140766395Y-116440819D01*
X140766395Y-116518943D01*
X140757751Y-116548379D01*
X140751228Y-116578369D01*
X140747472Y-116583385D01*
X140746710Y-116585982D01*
X140730077Y-116606623D01*
X140671966Y-116664735D01*
X140610643Y-116698221D01*
X140584284Y-116701055D01*
X139309686Y-116701055D01*
X139242647Y-116681370D01*
X139196892Y-116628566D01*
X139193504Y-116620388D01*
X139170692Y-116559226D01*
X139170688Y-116559219D01*
X139084442Y-116444010D01*
X139084439Y-116444007D01*
X138969230Y-116357761D01*
X138969223Y-116357757D01*
X138834377Y-116307463D01*
X138834378Y-116307463D01*
X138774778Y-116301056D01*
X138774776Y-116301055D01*
X138774768Y-116301055D01*
X138774760Y-116301055D01*
X137904505Y-116301055D01*
X137837466Y-116281370D01*
X137816824Y-116264736D01*
X137003642Y-115451554D01*
X140668306Y-115451554D01*
X140668307Y-115451555D01*
X141126895Y-115451555D01*
X141526895Y-115451555D01*
X141985483Y-115451555D01*
X141985483Y-115451554D01*
X141980621Y-115406325D01*
X141931379Y-115274307D01*
X141846939Y-115161510D01*
X141734144Y-115077071D01*
X141602119Y-115027828D01*
X141543781Y-115021555D01*
X141526895Y-115021555D01*
X141526895Y-115451555D01*
X141126895Y-115451555D01*
X141126895Y-115021555D01*
X141110008Y-115021555D01*
X141051670Y-115027828D01*
X140919645Y-115077071D01*
X140806850Y-115161510D01*
X140722410Y-115274307D01*
X140673168Y-115406325D01*
X140668306Y-115451554D01*
X137003642Y-115451554D01*
X136092967Y-114540879D01*
X136826896Y-114540879D01*
X136842337Y-114658183D01*
X136842339Y-114658188D01*
X136902794Y-114804140D01*
X136998970Y-114929479D01*
X137124308Y-115025655D01*
X137270260Y-115086109D01*
X137270264Y-115086110D01*
X137387571Y-115101554D01*
X137876894Y-115101554D01*
X138276895Y-115101554D01*
X138766219Y-115101554D01*
X138883523Y-115086112D01*
X138883528Y-115086110D01*
X139029480Y-115025655D01*
X139154819Y-114929479D01*
X139250995Y-114804141D01*
X139311449Y-114658189D01*
X139311450Y-114658185D01*
X139326895Y-114540878D01*
X139326895Y-114505000D01*
X142207734Y-114505000D01*
X143020000Y-114505000D01*
X143020000Y-114055000D01*
X142659655Y-114055000D01*
X142600127Y-114061401D01*
X142600120Y-114061403D01*
X142465413Y-114111645D01*
X142465406Y-114111649D01*
X142350312Y-114197809D01*
X142350309Y-114197812D01*
X142264149Y-114312906D01*
X142264145Y-114312913D01*
X142213901Y-114447624D01*
X142207734Y-114505000D01*
X139326895Y-114505000D01*
X139326895Y-114376555D01*
X138276895Y-114376555D01*
X138276895Y-115101554D01*
X137876894Y-115101554D01*
X137876895Y-115101553D01*
X137876895Y-114376555D01*
X136826896Y-114376555D01*
X136826896Y-114540879D01*
X136092967Y-114540879D01*
X135393714Y-113841626D01*
X135377659Y-113812224D01*
X136826895Y-113812224D01*
X136826895Y-113976555D01*
X137876895Y-113976555D01*
X138276895Y-113976555D01*
X139326894Y-113976555D01*
X139326894Y-113812230D01*
X139311452Y-113694926D01*
X139311450Y-113694921D01*
X139250995Y-113548969D01*
X139154819Y-113423630D01*
X139029481Y-113327454D01*
X138883529Y-113267000D01*
X138883525Y-113266999D01*
X138766225Y-113251555D01*
X138276895Y-113251555D01*
X138276895Y-113976555D01*
X137876895Y-113976555D01*
X137876895Y-113251555D01*
X137387570Y-113251555D01*
X137270266Y-113266997D01*
X137270261Y-113266999D01*
X137124309Y-113327454D01*
X136998970Y-113423630D01*
X136902794Y-113548968D01*
X136842340Y-113694920D01*
X136842339Y-113694924D01*
X136826895Y-113812224D01*
X135377659Y-113812224D01*
X135360229Y-113780303D01*
X135357395Y-113753945D01*
X135357395Y-112690858D01*
X135377080Y-112623819D01*
X135425099Y-112580374D01*
X135508683Y-112537787D01*
X135648823Y-112435969D01*
X135771309Y-112313483D01*
X135873127Y-112173343D01*
X135951768Y-112019000D01*
X136005297Y-111854256D01*
X136032395Y-111683166D01*
X136032395Y-111509944D01*
X136005297Y-111338854D01*
X135951768Y-111174110D01*
X135873127Y-111019767D01*
X135771309Y-110879627D01*
X135648823Y-110757141D01*
X135508683Y-110655323D01*
X135354340Y-110576682D01*
X135189596Y-110523153D01*
X135189594Y-110523152D01*
X135189592Y-110523152D01*
X135062527Y-110503027D01*
X134999392Y-110473098D01*
X134962461Y-110413786D01*
X134963459Y-110343924D01*
X135002069Y-110285691D01*
X135066032Y-110257577D01*
X135081925Y-110256554D01*
X135815113Y-110256554D01*
X135883144Y-110246642D01*
X135988086Y-110195339D01*
X136070682Y-110112743D01*
X136121982Y-110007806D01*
X136121983Y-110007803D01*
X136131895Y-109939774D01*
X136131895Y-109256555D01*
X135393775Y-109256555D01*
X135397820Y-109249548D01*
X135431895Y-109122381D01*
X135431895Y-108990729D01*
X135397820Y-108863562D01*
X135393775Y-108856555D01*
X136131894Y-108856555D01*
X136131894Y-108173337D01*
X136121982Y-108105305D01*
X136070679Y-108000363D01*
X135988083Y-107917767D01*
X135883146Y-107866467D01*
X135883143Y-107866466D01*
X135815115Y-107856555D01*
X135131895Y-107856555D01*
X135131895Y-108594675D01*
X135124888Y-108590630D01*
X134997721Y-108556555D01*
X134866069Y-108556555D01*
X134738902Y-108590630D01*
X134731895Y-108594675D01*
X134731895Y-107856555D01*
X134048677Y-107856555D01*
X133980645Y-107866467D01*
X133875703Y-107917770D01*
X133793107Y-108000366D01*
X133741807Y-108105303D01*
X133741806Y-108105306D01*
X133731895Y-108173335D01*
X132580500Y-108173335D01*
X132580500Y-105213441D01*
X141121895Y-105213441D01*
X141128168Y-105271779D01*
X141177411Y-105403804D01*
X141261850Y-105516599D01*
X141374647Y-105601039D01*
X141506665Y-105650281D01*
X141551894Y-105655143D01*
X141551895Y-105655143D01*
X141551895Y-105196555D01*
X141121895Y-105196555D01*
X141121895Y-105213441D01*
X132580500Y-105213441D01*
X132580500Y-104779668D01*
X141121895Y-104779668D01*
X141121895Y-104796555D01*
X141551895Y-104796555D01*
X141551895Y-104337966D01*
X141551894Y-104337965D01*
X141506674Y-104342827D01*
X141506668Y-104342829D01*
X141374645Y-104392071D01*
X141261850Y-104476510D01*
X141177411Y-104589305D01*
X141128168Y-104721330D01*
X141121895Y-104779668D01*
X132580500Y-104779668D01*
X132580500Y-97033113D01*
X143871895Y-97033113D01*
X143871895Y-97050000D01*
X144301895Y-97050000D01*
X144301895Y-96591411D01*
X144301894Y-96591410D01*
X144256674Y-96596272D01*
X144256668Y-96596274D01*
X144124645Y-96645516D01*
X144011850Y-96729955D01*
X143927411Y-96842750D01*
X143878168Y-96974775D01*
X143871895Y-97033113D01*
X132580500Y-97033113D01*
X132580500Y-95244137D01*
X132600185Y-95177098D01*
X132652989Y-95131343D01*
X132722147Y-95121399D01*
X132778808Y-95144869D01*
X132831460Y-95184284D01*
X132839563Y-95190350D01*
X132839566Y-95190352D01*
X132974412Y-95240646D01*
X132974411Y-95240646D01*
X132981339Y-95241390D01*
X133034022Y-95247055D01*
X134529767Y-95247054D01*
X134589378Y-95240646D01*
X134724226Y-95190351D01*
X134839441Y-95104101D01*
X134925691Y-94988886D01*
X134975986Y-94854038D01*
X134982395Y-94794428D01*
X134982394Y-94098683D01*
X134975986Y-94039072D01*
X134958839Y-93993099D01*
X134925692Y-93904226D01*
X134925688Y-93904219D01*
X134839442Y-93789010D01*
X134839439Y-93789007D01*
X134724230Y-93702761D01*
X134724223Y-93702757D01*
X134589377Y-93652463D01*
X134589378Y-93652463D01*
X134529778Y-93646056D01*
X134529776Y-93646055D01*
X134529768Y-93646055D01*
X134529759Y-93646055D01*
X133034024Y-93646055D01*
X133034018Y-93646056D01*
X132974411Y-93652463D01*
X132839566Y-93702757D01*
X132839559Y-93702761D01*
X132778811Y-93748238D01*
X132713347Y-93772656D01*
X132645074Y-93757805D01*
X132595668Y-93708400D01*
X132580500Y-93648972D01*
X132580500Y-90788061D01*
X135881395Y-90788061D01*
X135881395Y-91205048D01*
X135897174Y-91304676D01*
X135897175Y-91304679D01*
X135897176Y-91304681D01*
X135918767Y-91347055D01*
X135958368Y-91424776D01*
X135958371Y-91424780D01*
X136053669Y-91520078D01*
X136053673Y-91520081D01*
X136053675Y-91520083D01*
X136173769Y-91581274D01*
X136173771Y-91581274D01*
X136173773Y-91581275D01*
X136273402Y-91597055D01*
X136273407Y-91597055D01*
X138690388Y-91597055D01*
X138790016Y-91581275D01*
X138790016Y-91581274D01*
X138790021Y-91581274D01*
X138910115Y-91520083D01*
X139005423Y-91424775D01*
X139066614Y-91304681D01*
X139072095Y-91270078D01*
X139082395Y-91205048D01*
X139082395Y-90788061D01*
X139066615Y-90688433D01*
X139066614Y-90688431D01*
X139066614Y-90688429D01*
X139005423Y-90568335D01*
X139005421Y-90568333D01*
X139005418Y-90568329D01*
X138910120Y-90473031D01*
X138910116Y-90473028D01*
X138910115Y-90473027D01*
X138790021Y-90411836D01*
X138790019Y-90411835D01*
X138790016Y-90411834D01*
X138690388Y-90396055D01*
X138690383Y-90396055D01*
X136273407Y-90396055D01*
X136273402Y-90396055D01*
X136173773Y-90411834D01*
X136173769Y-90411835D01*
X136173769Y-90411836D01*
X136093706Y-90452630D01*
X136053673Y-90473028D01*
X136053669Y-90473031D01*
X135958371Y-90568329D01*
X135958368Y-90568333D01*
X135897174Y-90688433D01*
X135881395Y-90788061D01*
X132580500Y-90788061D01*
X132580500Y-89288061D01*
X135881395Y-89288061D01*
X135881395Y-89705048D01*
X135897174Y-89804676D01*
X135897175Y-89804679D01*
X135897176Y-89804681D01*
X135918767Y-89847055D01*
X135958368Y-89924776D01*
X135958371Y-89924780D01*
X136053669Y-90020078D01*
X136053673Y-90020081D01*
X136053675Y-90020083D01*
X136173769Y-90081274D01*
X136173771Y-90081274D01*
X136173773Y-90081275D01*
X136273402Y-90097055D01*
X136273407Y-90097055D01*
X138690388Y-90097055D01*
X138790016Y-90081275D01*
X138790016Y-90081274D01*
X138790021Y-90081274D01*
X138910115Y-90020083D01*
X139005423Y-89924775D01*
X139066614Y-89804681D01*
X139072095Y-89770078D01*
X139082395Y-89705048D01*
X139082395Y-89288061D01*
X139066615Y-89188433D01*
X139066614Y-89188431D01*
X139066614Y-89188429D01*
X139005423Y-89068335D01*
X139005421Y-89068333D01*
X139005418Y-89068329D01*
X138910120Y-88973031D01*
X138910116Y-88973028D01*
X138910115Y-88973027D01*
X138790021Y-88911836D01*
X138790019Y-88911835D01*
X138790016Y-88911834D01*
X138690388Y-88896055D01*
X138690383Y-88896055D01*
X136273407Y-88896055D01*
X136273402Y-88896055D01*
X136173773Y-88911834D01*
X136173769Y-88911835D01*
X136173769Y-88911836D01*
X136093706Y-88952630D01*
X136053673Y-88973028D01*
X136053669Y-88973031D01*
X135958371Y-89068329D01*
X135958368Y-89068333D01*
X135897174Y-89188433D01*
X135881395Y-89288061D01*
X132580500Y-89288061D01*
X132580500Y-86712657D01*
X135781895Y-86712657D01*
X135792026Y-86797022D01*
X135792026Y-86797023D01*
X135844972Y-86931284D01*
X135932173Y-87046276D01*
X136047165Y-87133477D01*
X136047167Y-87133478D01*
X136170546Y-87182132D01*
X136225691Y-87225038D01*
X136248884Y-87290945D01*
X136232764Y-87358930D01*
X136182447Y-87407407D01*
X136181352Y-87407971D01*
X136053678Y-87473024D01*
X136053669Y-87473031D01*
X135958371Y-87568329D01*
X135958368Y-87568333D01*
X135897174Y-87688433D01*
X135881395Y-87788061D01*
X135881395Y-88205048D01*
X135897174Y-88304676D01*
X135897175Y-88304679D01*
X135897176Y-88304681D01*
X135918767Y-88347055D01*
X135958368Y-88424776D01*
X135958371Y-88424780D01*
X136053669Y-88520078D01*
X136053673Y-88520081D01*
X136053675Y-88520083D01*
X136173769Y-88581274D01*
X136173771Y-88581274D01*
X136173773Y-88581275D01*
X136273402Y-88597055D01*
X136273407Y-88597055D01*
X138690388Y-88597055D01*
X138790016Y-88581275D01*
X138790016Y-88581274D01*
X138790021Y-88581274D01*
X138910115Y-88520083D01*
X139005423Y-88424775D01*
X139066614Y-88304681D01*
X139072095Y-88270078D01*
X139082395Y-88205048D01*
X139082395Y-87924080D01*
X141738978Y-87924080D01*
X141738978Y-88069030D01*
X141776494Y-88209040D01*
X141776495Y-88209043D01*
X141848966Y-88334566D01*
X141848968Y-88334568D01*
X141848969Y-88334570D01*
X141951463Y-88437064D01*
X141951464Y-88437065D01*
X141951466Y-88437066D01*
X142076989Y-88509537D01*
X142076990Y-88509537D01*
X142076993Y-88509539D01*
X142217003Y-88547055D01*
X142217006Y-88547055D01*
X142361950Y-88547055D01*
X142361953Y-88547055D01*
X142501963Y-88509539D01*
X142627493Y-88437064D01*
X142729987Y-88334570D01*
X142802462Y-88209040D01*
X142839978Y-88069030D01*
X142839978Y-87993099D01*
X142859663Y-87926060D01*
X142876297Y-87905418D01*
X147219341Y-83562374D01*
X147280664Y-83528889D01*
X147307022Y-83526055D01*
X148460171Y-83526055D01*
X148460172Y-83526054D01*
X148533235Y-83511521D01*
X148616096Y-83456156D01*
X148671461Y-83373295D01*
X148685995Y-83300229D01*
X148685995Y-82963441D01*
X149121895Y-82963441D01*
X149128168Y-83021779D01*
X149177411Y-83153804D01*
X149261850Y-83266599D01*
X149374647Y-83351039D01*
X149506665Y-83400281D01*
X149551894Y-83405143D01*
X149551895Y-83405143D01*
X149551895Y-82946555D01*
X149121895Y-82946555D01*
X149121895Y-82963441D01*
X148685995Y-82963441D01*
X148685995Y-82742881D01*
X148685995Y-82742878D01*
X148685994Y-82742876D01*
X148671462Y-82669819D01*
X148671461Y-82669815D01*
X148669114Y-82666303D01*
X148616096Y-82586954D01*
X148533235Y-82531589D01*
X148533234Y-82531588D01*
X148533230Y-82531587D01*
X148460172Y-82517055D01*
X148460169Y-82517055D01*
X147191621Y-82517055D01*
X147191618Y-82517055D01*
X147118559Y-82531587D01*
X147118555Y-82531588D01*
X147035694Y-82586954D01*
X146980328Y-82669815D01*
X146980327Y-82669819D01*
X146965795Y-82742876D01*
X146965795Y-82773194D01*
X146946110Y-82840233D01*
X146929476Y-82860875D01*
X142380615Y-87409736D01*
X142319292Y-87443221D01*
X142292934Y-87446055D01*
X142217003Y-87446055D01*
X142088471Y-87480495D01*
X142076989Y-87483572D01*
X141951466Y-87556043D01*
X141951460Y-87556048D01*
X141848971Y-87658537D01*
X141848966Y-87658543D01*
X141776495Y-87784066D01*
X141776494Y-87784070D01*
X141738978Y-87924080D01*
X139082395Y-87924080D01*
X139082395Y-87788061D01*
X139066615Y-87688433D01*
X139066614Y-87688431D01*
X139066614Y-87688429D01*
X139005423Y-87568335D01*
X139005421Y-87568333D01*
X139005418Y-87568329D01*
X138910120Y-87473031D01*
X138910117Y-87473029D01*
X138910115Y-87473027D01*
X138790021Y-87411836D01*
X138790020Y-87411835D01*
X138782437Y-87407972D01*
X138731641Y-87359997D01*
X138714846Y-87292176D01*
X138737384Y-87226041D01*
X138792099Y-87182590D01*
X138793243Y-87182132D01*
X138916622Y-87133478D01*
X138916624Y-87133477D01*
X139031616Y-87046276D01*
X139118817Y-86931284D01*
X139171763Y-86797023D01*
X139171763Y-86797022D01*
X139181895Y-86712657D01*
X139181895Y-86696555D01*
X135781895Y-86696555D01*
X135781895Y-86712657D01*
X132580500Y-86712657D01*
X132580500Y-86280452D01*
X135781895Y-86280452D01*
X135781895Y-86296555D01*
X139181895Y-86296555D01*
X139181895Y-86280452D01*
X139171763Y-86196087D01*
X139171763Y-86196086D01*
X139118817Y-86061825D01*
X139031616Y-85946833D01*
X138916624Y-85859632D01*
X138793242Y-85810977D01*
X138738098Y-85768071D01*
X138714905Y-85702163D01*
X138731025Y-85634179D01*
X138781342Y-85585702D01*
X138782438Y-85585137D01*
X138790018Y-85581274D01*
X138790021Y-85581274D01*
X138910115Y-85520083D01*
X139005423Y-85424775D01*
X139066614Y-85304681D01*
X139072095Y-85270078D01*
X139082395Y-85205048D01*
X139082395Y-84788061D01*
X139066615Y-84688433D01*
X139066614Y-84688431D01*
X139066614Y-84688429D01*
X139005423Y-84568335D01*
X139005421Y-84568333D01*
X139005418Y-84568329D01*
X138910120Y-84473031D01*
X138910116Y-84473028D01*
X138910115Y-84473027D01*
X138790021Y-84411836D01*
X138790019Y-84411835D01*
X138790016Y-84411834D01*
X138690388Y-84396055D01*
X138690383Y-84396055D01*
X136273407Y-84396055D01*
X136273402Y-84396055D01*
X136173773Y-84411834D01*
X136173769Y-84411835D01*
X136173769Y-84411836D01*
X136093706Y-84452630D01*
X136053673Y-84473028D01*
X136053669Y-84473031D01*
X135958371Y-84568329D01*
X135958368Y-84568333D01*
X135897174Y-84688433D01*
X135881395Y-84788061D01*
X135881395Y-85205048D01*
X135897174Y-85304676D01*
X135897175Y-85304679D01*
X135897176Y-85304681D01*
X135918767Y-85347055D01*
X135958368Y-85424776D01*
X135958371Y-85424780D01*
X136053669Y-85520078D01*
X136053673Y-85520081D01*
X136053675Y-85520083D01*
X136173769Y-85581274D01*
X136173771Y-85581274D01*
X136181352Y-85585137D01*
X136232148Y-85633112D01*
X136248943Y-85700933D01*
X136226406Y-85767067D01*
X136171691Y-85810519D01*
X136170547Y-85810976D01*
X136047171Y-85859629D01*
X136047165Y-85859632D01*
X135932173Y-85946833D01*
X135844972Y-86061825D01*
X135792026Y-86196086D01*
X135792026Y-86196087D01*
X135781895Y-86280452D01*
X132580500Y-86280452D01*
X132580500Y-83844137D01*
X132600185Y-83777098D01*
X132652989Y-83731343D01*
X132722147Y-83721399D01*
X132778808Y-83744869D01*
X132839344Y-83790186D01*
X132839563Y-83790350D01*
X132839566Y-83790352D01*
X132974412Y-83840646D01*
X132974411Y-83840646D01*
X132981339Y-83841390D01*
X133034022Y-83847055D01*
X134529767Y-83847054D01*
X134589378Y-83840646D01*
X134724226Y-83790351D01*
X134839441Y-83704101D01*
X134925691Y-83588886D01*
X134975986Y-83454038D01*
X134982395Y-83394428D01*
X134982395Y-83308772D01*
X138738296Y-83308772D01*
X138748207Y-83376804D01*
X138799510Y-83481746D01*
X138882106Y-83564342D01*
X138987043Y-83615642D01*
X138987046Y-83615643D01*
X139055075Y-83625554D01*
X139497894Y-83625554D01*
X139897895Y-83625554D01*
X140340713Y-83625554D01*
X140408744Y-83615642D01*
X140513686Y-83564339D01*
X140596282Y-83481743D01*
X140647582Y-83376806D01*
X140647583Y-83376803D01*
X140657495Y-83308774D01*
X140657495Y-83221555D01*
X139897895Y-83221555D01*
X139897895Y-83625554D01*
X139497894Y-83625554D01*
X139497895Y-83625553D01*
X139497895Y-83221555D01*
X138738296Y-83221555D01*
X138738296Y-83308772D01*
X134982395Y-83308772D01*
X134982394Y-83038730D01*
X134982394Y-82734335D01*
X138738295Y-82734335D01*
X138738295Y-82821555D01*
X139497895Y-82821555D01*
X139897895Y-82821555D01*
X140657494Y-82821555D01*
X140657494Y-82734337D01*
X140647582Y-82666305D01*
X140596279Y-82561363D01*
X140509152Y-82474236D01*
X140475667Y-82412913D01*
X140480651Y-82343221D01*
X140509152Y-82298874D01*
X140596280Y-82211745D01*
X140596282Y-82211743D01*
X140647582Y-82106806D01*
X140647583Y-82106803D01*
X140657495Y-82038774D01*
X140657495Y-81951555D01*
X139897895Y-81951555D01*
X139897895Y-82821555D01*
X139497895Y-82821555D01*
X139497895Y-81951555D01*
X138738296Y-81951555D01*
X138738296Y-82038772D01*
X138748207Y-82106804D01*
X138799510Y-82211746D01*
X138886638Y-82298874D01*
X138920123Y-82360197D01*
X138915139Y-82429889D01*
X138886638Y-82474236D01*
X138799509Y-82561364D01*
X138799507Y-82561366D01*
X138748207Y-82666303D01*
X138748206Y-82666306D01*
X138738295Y-82734335D01*
X134982394Y-82734335D01*
X134982394Y-82729849D01*
X134982394Y-82698684D01*
X134982393Y-82698678D01*
X134978913Y-82666306D01*
X134975986Y-82639072D01*
X134956547Y-82586954D01*
X134925692Y-82504226D01*
X134925688Y-82504219D01*
X134839442Y-82389010D01*
X134839439Y-82389007D01*
X134724230Y-82302761D01*
X134724223Y-82302757D01*
X134589377Y-82252463D01*
X134589378Y-82252463D01*
X134529778Y-82246056D01*
X134529776Y-82246055D01*
X134529768Y-82246055D01*
X134529759Y-82246055D01*
X133034024Y-82246055D01*
X133034018Y-82246056D01*
X132974411Y-82252463D01*
X132839566Y-82302757D01*
X132839559Y-82302761D01*
X132778811Y-82348238D01*
X132713347Y-82372656D01*
X132645074Y-82357805D01*
X132595668Y-82308400D01*
X132580500Y-82248972D01*
X132580500Y-81464335D01*
X138738295Y-81464335D01*
X138738295Y-81551555D01*
X139497895Y-81551555D01*
X139897895Y-81551555D01*
X140657494Y-81551555D01*
X140657494Y-81472876D01*
X146965795Y-81472876D01*
X146965795Y-82030233D01*
X146980327Y-82103290D01*
X146980328Y-82103294D01*
X146982675Y-82106806D01*
X147035694Y-82186156D01*
X147115843Y-82239709D01*
X147118555Y-82241521D01*
X147118559Y-82241522D01*
X147191616Y-82256054D01*
X147191619Y-82256055D01*
X147191621Y-82256055D01*
X148460171Y-82256055D01*
X148460172Y-82256054D01*
X148533235Y-82241521D01*
X148616096Y-82186156D01*
X148635467Y-82157163D01*
X148689078Y-82112360D01*
X148738569Y-82102055D01*
X149107295Y-82102055D01*
X149174334Y-82121740D01*
X149220089Y-82174544D01*
X149230033Y-82243702D01*
X149206562Y-82300366D01*
X149177411Y-82339305D01*
X149128168Y-82471330D01*
X149121895Y-82529668D01*
X149121895Y-82546555D01*
X149627895Y-82546555D01*
X149694934Y-82566240D01*
X149740689Y-82619044D01*
X149751895Y-82670555D01*
X149751895Y-82746555D01*
X149827895Y-82746555D01*
X149894934Y-82766240D01*
X149940689Y-82819044D01*
X149951895Y-82870555D01*
X149951895Y-83405143D01*
X149997124Y-83400281D01*
X150129142Y-83351039D01*
X150243633Y-83265331D01*
X150309097Y-83240913D01*
X150374239Y-83254112D01*
X150402300Y-83268410D01*
X150449720Y-83292572D01*
X150449723Y-83292573D01*
X150484842Y-83298134D01*
X150541160Y-83307055D01*
X150882629Y-83307054D01*
X150882634Y-83307054D01*
X150882634Y-83307053D01*
X150928349Y-83299813D01*
X150974065Y-83292573D01*
X150974066Y-83292573D01*
X150974067Y-83292572D01*
X150974070Y-83292572D01*
X151084286Y-83236414D01*
X151171754Y-83148946D01*
X151171755Y-83148942D01*
X151172315Y-83148174D01*
X151173241Y-83147459D01*
X151178655Y-83142046D01*
X151179354Y-83142745D01*
X151227643Y-83105506D01*
X151272636Y-83097055D01*
X152247611Y-83097055D01*
X152314650Y-83116740D01*
X152335292Y-83133374D01*
X152930781Y-83728863D01*
X152964266Y-83790186D01*
X152965770Y-83798430D01*
X152967100Y-83807436D01*
X152967100Y-83892475D01*
X152995072Y-83996869D01*
X152996117Y-84003941D01*
X152992227Y-84031746D01*
X152991559Y-84059811D01*
X152987452Y-84065878D01*
X152986437Y-84073137D01*
X152968132Y-84094423D01*
X152952397Y-84117674D01*
X152945659Y-84120559D01*
X152940883Y-84126114D01*
X152913979Y-84134125D01*
X152888168Y-84145178D01*
X152874032Y-84146020D01*
X152873919Y-84146054D01*
X152873841Y-84146031D01*
X152873447Y-84146055D01*
X151023402Y-84146055D01*
X150923773Y-84161834D01*
X150803673Y-84223028D01*
X150803669Y-84223031D01*
X150708371Y-84318329D01*
X150708368Y-84318333D01*
X150647174Y-84438433D01*
X150631395Y-84538061D01*
X150631395Y-84955048D01*
X150647174Y-85054676D01*
X150647175Y-85054679D01*
X150647176Y-85054681D01*
X150708367Y-85174775D01*
X150708368Y-85174776D01*
X150708371Y-85174780D01*
X150803669Y-85270078D01*
X150803673Y-85270081D01*
X150803675Y-85270083D01*
X150923769Y-85331274D01*
X150923771Y-85331274D01*
X150923773Y-85331275D01*
X151023402Y-85347055D01*
X151023407Y-85347055D01*
X153440388Y-85347055D01*
X153540016Y-85331275D01*
X153540016Y-85331274D01*
X153540021Y-85331274D01*
X153660115Y-85270083D01*
X153755423Y-85174775D01*
X153816614Y-85054681D01*
X153816615Y-85054676D01*
X153832395Y-84955048D01*
X153832395Y-84538061D01*
X153816615Y-84438431D01*
X153808852Y-84423196D01*
X153795956Y-84354527D01*
X153822232Y-84289786D01*
X153849674Y-84266124D01*
X153849164Y-84265459D01*
X153855608Y-84260512D01*
X153855615Y-84260509D01*
X153958109Y-84158015D01*
X154030584Y-84032485D01*
X154068100Y-83892475D01*
X154068100Y-83747525D01*
X154030584Y-83607515D01*
X154024544Y-83597054D01*
X153958111Y-83481988D01*
X153958106Y-83481982D01*
X153855617Y-83379493D01*
X153855611Y-83379488D01*
X153730087Y-83307017D01*
X153730086Y-83307016D01*
X153730085Y-83307016D01*
X153721718Y-83304774D01*
X153662059Y-83268410D01*
X153631530Y-83205563D01*
X153639825Y-83136188D01*
X153684310Y-83082310D01*
X153721717Y-83065226D01*
X153730085Y-83062984D01*
X153855615Y-82990509D01*
X153958109Y-82888015D01*
X154030584Y-82762485D01*
X154068100Y-82622475D01*
X154068100Y-82477525D01*
X154030584Y-82337515D01*
X154013774Y-82308400D01*
X153958111Y-82211988D01*
X153958106Y-82211982D01*
X153855617Y-82109493D01*
X153855611Y-82109488D01*
X153730088Y-82037017D01*
X153730089Y-82037017D01*
X153718606Y-82033940D01*
X153590075Y-81999500D01*
X153590072Y-81999500D01*
X153514144Y-81999500D01*
X153447105Y-81979815D01*
X153426463Y-81963181D01*
X152679368Y-81216086D01*
X152679363Y-81216082D01*
X152599445Y-81169942D01*
X152599438Y-81169939D01*
X152584941Y-81166054D01*
X152584941Y-81166055D01*
X152547619Y-81156055D01*
X152510299Y-81146055D01*
X152510298Y-81146055D01*
X152312491Y-81146055D01*
X152245452Y-81126370D01*
X152213779Y-81090784D01*
X152210939Y-81092812D01*
X152204969Y-81084450D01*
X152113997Y-80993478D01*
X152113994Y-80993476D01*
X151998416Y-80936974D01*
X151998414Y-80936973D01*
X151998413Y-80936973D01*
X151923477Y-80926055D01*
X151580313Y-80926055D01*
X151505377Y-80936973D01*
X151505375Y-80936973D01*
X151505373Y-80936974D01*
X151389795Y-80993476D01*
X151389792Y-80993478D01*
X151329576Y-81053695D01*
X151268253Y-81087180D01*
X151198561Y-81082196D01*
X151154214Y-81053695D01*
X151093997Y-80993478D01*
X151093994Y-80993476D01*
X150978416Y-80936974D01*
X150978414Y-80936973D01*
X150978413Y-80936973D01*
X150903477Y-80926055D01*
X150560313Y-80926055D01*
X150485377Y-80936973D01*
X150485375Y-80936973D01*
X150485373Y-80936974D01*
X150369795Y-80993476D01*
X150369792Y-80993478D01*
X150278818Y-81084452D01*
X150278816Y-81084455D01*
X150222314Y-81200033D01*
X150222313Y-81200035D01*
X150222313Y-81200037D01*
X150211395Y-81274973D01*
X150211395Y-81274978D01*
X150211395Y-81277055D01*
X150211194Y-81277738D01*
X150211070Y-81279453D01*
X150210698Y-81279426D01*
X150191710Y-81344094D01*
X150138906Y-81389849D01*
X150087395Y-81401055D01*
X148738569Y-81401055D01*
X148671530Y-81381370D01*
X148635468Y-81345947D01*
X148616096Y-81316954D01*
X148556382Y-81277055D01*
X148533234Y-81261588D01*
X148533230Y-81261587D01*
X148460172Y-81247055D01*
X148460169Y-81247055D01*
X147191621Y-81247055D01*
X147191618Y-81247055D01*
X147118559Y-81261587D01*
X147118555Y-81261588D01*
X147035694Y-81316954D01*
X146980328Y-81399815D01*
X146980327Y-81399819D01*
X146965795Y-81472876D01*
X140657494Y-81472876D01*
X140657494Y-81464337D01*
X140647582Y-81396305D01*
X140596279Y-81291363D01*
X140513683Y-81208767D01*
X140408746Y-81157467D01*
X140408743Y-81157466D01*
X140340715Y-81147555D01*
X139897895Y-81147555D01*
X139897895Y-81551555D01*
X139497895Y-81551555D01*
X139497895Y-81147555D01*
X139055082Y-81147555D01*
X138987046Y-81157467D01*
X138882103Y-81208770D01*
X138799507Y-81291366D01*
X138748207Y-81396303D01*
X138748206Y-81396306D01*
X138738295Y-81464335D01*
X132580500Y-81464335D01*
X132580500Y-79914000D01*
X132600185Y-79846961D01*
X132652989Y-79801206D01*
X132704500Y-79790000D01*
X156855500Y-79790000D01*
X156922539Y-79809685D01*
G37*
%TD.AperFunction*%
%TD*%
M02*
