%TF.GenerationSoftware,KiCad,Pcbnew,9.0.5*%
%TF.CreationDate,2025-11-05T17:03:25-05:00*%
%TF.ProjectId,flight-computer,666c6967-6874-42d6-936f-6d7075746572,rev?*%
%TF.SameCoordinates,Original*%
%TF.FileFunction,Legend,Bot*%
%TF.FilePolarity,Positive*%
%FSLAX46Y46*%
G04 Gerber Fmt 4.6, Leading zero omitted, Abs format (unit mm)*
G04 Created by KiCad (PCBNEW 9.0.5) date 2025-11-05 17:03:25*
%MOMM*%
%LPD*%
G01*
G04 APERTURE LIST*
%ADD10C,0.100000*%
%ADD11C,0.120000*%
%ADD12C,0.152400*%
G04 APERTURE END LIST*
D10*
X142676790Y-124863222D02*
X142295837Y-124596555D01*
X142676790Y-124406079D02*
X141876790Y-124406079D01*
X141876790Y-124406079D02*
X141876790Y-124710841D01*
X141876790Y-124710841D02*
X141914885Y-124787031D01*
X141914885Y-124787031D02*
X141952980Y-124825126D01*
X141952980Y-124825126D02*
X142029171Y-124863222D01*
X142029171Y-124863222D02*
X142143456Y-124863222D01*
X142143456Y-124863222D02*
X142219647Y-124825126D01*
X142219647Y-124825126D02*
X142257742Y-124787031D01*
X142257742Y-124787031D02*
X142295837Y-124710841D01*
X142295837Y-124710841D02*
X142295837Y-124406079D01*
X142143456Y-125548936D02*
X142676790Y-125548936D01*
X141838695Y-125358460D02*
X142410123Y-125167983D01*
X142410123Y-125167983D02*
X142410123Y-125663222D01*
X155220599Y-83873222D02*
X155258695Y-83835126D01*
X155258695Y-83835126D02*
X155296790Y-83720841D01*
X155296790Y-83720841D02*
X155296790Y-83644650D01*
X155296790Y-83644650D02*
X155258695Y-83530364D01*
X155258695Y-83530364D02*
X155182504Y-83454174D01*
X155182504Y-83454174D02*
X155106314Y-83416079D01*
X155106314Y-83416079D02*
X154953933Y-83377983D01*
X154953933Y-83377983D02*
X154839647Y-83377983D01*
X154839647Y-83377983D02*
X154687266Y-83416079D01*
X154687266Y-83416079D02*
X154611075Y-83454174D01*
X154611075Y-83454174D02*
X154534885Y-83530364D01*
X154534885Y-83530364D02*
X154496790Y-83644650D01*
X154496790Y-83644650D02*
X154496790Y-83720841D01*
X154496790Y-83720841D02*
X154534885Y-83835126D01*
X154534885Y-83835126D02*
X154572980Y-83873222D01*
X154496790Y-84139888D02*
X154496790Y-84635126D01*
X154496790Y-84635126D02*
X154801552Y-84368460D01*
X154801552Y-84368460D02*
X154801552Y-84482745D01*
X154801552Y-84482745D02*
X154839647Y-84558936D01*
X154839647Y-84558936D02*
X154877742Y-84597031D01*
X154877742Y-84597031D02*
X154953933Y-84635126D01*
X154953933Y-84635126D02*
X155144409Y-84635126D01*
X155144409Y-84635126D02*
X155220599Y-84597031D01*
X155220599Y-84597031D02*
X155258695Y-84558936D01*
X155258695Y-84558936D02*
X155296790Y-84482745D01*
X155296790Y-84482745D02*
X155296790Y-84254174D01*
X155296790Y-84254174D02*
X155258695Y-84177983D01*
X155258695Y-84177983D02*
X155220599Y-84139888D01*
X151498561Y-121061450D02*
X151498561Y-121632878D01*
X151498561Y-121632878D02*
X151536656Y-121747164D01*
X151536656Y-121747164D02*
X151612847Y-121823355D01*
X151612847Y-121823355D02*
X151727132Y-121861450D01*
X151727132Y-121861450D02*
X151803323Y-121861450D01*
X150774751Y-121328116D02*
X150774751Y-121861450D01*
X150965227Y-121023355D02*
X151155704Y-121594783D01*
X151155704Y-121594783D02*
X150660465Y-121594783D01*
X155702704Y-98549523D02*
X155055085Y-98549523D01*
X155055085Y-98549523D02*
X154978895Y-98511428D01*
X154978895Y-98511428D02*
X154940800Y-98473333D01*
X154940800Y-98473333D02*
X154902704Y-98397142D01*
X154902704Y-98397142D02*
X154902704Y-98244761D01*
X154902704Y-98244761D02*
X154940800Y-98168571D01*
X154940800Y-98168571D02*
X154978895Y-98130476D01*
X154978895Y-98130476D02*
X155055085Y-98092380D01*
X155055085Y-98092380D02*
X155702704Y-98092380D01*
X155626514Y-97749524D02*
X155664609Y-97711428D01*
X155664609Y-97711428D02*
X155702704Y-97635238D01*
X155702704Y-97635238D02*
X155702704Y-97444762D01*
X155702704Y-97444762D02*
X155664609Y-97368571D01*
X155664609Y-97368571D02*
X155626514Y-97330476D01*
X155626514Y-97330476D02*
X155550323Y-97292381D01*
X155550323Y-97292381D02*
X155474133Y-97292381D01*
X155474133Y-97292381D02*
X155359847Y-97330476D01*
X155359847Y-97330476D02*
X154902704Y-97787619D01*
X154902704Y-97787619D02*
X154902704Y-97292381D01*
X145426790Y-124863222D02*
X145045837Y-124596555D01*
X145426790Y-124406079D02*
X144626790Y-124406079D01*
X144626790Y-124406079D02*
X144626790Y-124710841D01*
X144626790Y-124710841D02*
X144664885Y-124787031D01*
X144664885Y-124787031D02*
X144702980Y-124825126D01*
X144702980Y-124825126D02*
X144779171Y-124863222D01*
X144779171Y-124863222D02*
X144893456Y-124863222D01*
X144893456Y-124863222D02*
X144969647Y-124825126D01*
X144969647Y-124825126D02*
X145007742Y-124787031D01*
X145007742Y-124787031D02*
X145045837Y-124710841D01*
X145045837Y-124710841D02*
X145045837Y-124406079D01*
X144626790Y-125587031D02*
X144626790Y-125206079D01*
X144626790Y-125206079D02*
X145007742Y-125167983D01*
X145007742Y-125167983D02*
X144969647Y-125206079D01*
X144969647Y-125206079D02*
X144931552Y-125282269D01*
X144931552Y-125282269D02*
X144931552Y-125472745D01*
X144931552Y-125472745D02*
X144969647Y-125548936D01*
X144969647Y-125548936D02*
X145007742Y-125587031D01*
X145007742Y-125587031D02*
X145083933Y-125625126D01*
X145083933Y-125625126D02*
X145274409Y-125625126D01*
X145274409Y-125625126D02*
X145350599Y-125587031D01*
X145350599Y-125587031D02*
X145388695Y-125548936D01*
X145388695Y-125548936D02*
X145426790Y-125472745D01*
X145426790Y-125472745D02*
X145426790Y-125282269D01*
X145426790Y-125282269D02*
X145388695Y-125206079D01*
X145388695Y-125206079D02*
X145350599Y-125167983D01*
D11*
%TO.C,C5*%
X155789731Y-80806555D02*
X155574059Y-80806555D01*
X155789731Y-80086555D02*
X155574059Y-80086555D01*
%TO.C,R14*%
X155835536Y-88726555D02*
X155528254Y-88726555D01*
X155835536Y-87966555D02*
X155528254Y-87966555D01*
%TO.C,R11*%
X133738254Y-90426555D02*
X134045536Y-90426555D01*
X133738254Y-89666555D02*
X134045536Y-89666555D01*
%TO.C,R1*%
X155528254Y-82226555D02*
X155835536Y-82226555D01*
X155528254Y-81466555D02*
X155835536Y-81466555D01*
%TO.C,R4*%
X143861895Y-124842914D02*
X143861895Y-125150196D01*
X143101895Y-124842914D02*
X143101895Y-125150196D01*
%TO.C,R12*%
X155835536Y-85826555D02*
X155528254Y-85826555D01*
X155835536Y-85066555D02*
X155528254Y-85066555D01*
%TO.C,R7*%
X133718254Y-89226555D02*
X134025536Y-89226555D01*
X133718254Y-88466555D02*
X134025536Y-88466555D01*
%TO.C,C3*%
X156541895Y-83638719D02*
X156541895Y-83854391D01*
X155821895Y-83638719D02*
X155821895Y-83854391D01*
D12*
%TO.C,J4*%
X151803395Y-120499855D02*
X137960395Y-120499855D01*
X151803395Y-119306296D02*
X151803395Y-120499855D01*
X151803395Y-111106295D02*
X151803395Y-116634216D01*
X151803395Y-105793255D02*
X151803395Y-108434215D01*
X137960395Y-120499855D02*
X137960395Y-119306296D01*
X137960395Y-116634216D02*
X137960395Y-111106295D01*
X137960395Y-108434215D02*
X137960395Y-105793255D01*
X137960395Y-105793255D02*
X151803395Y-105793255D01*
D11*
%TO.C,R8*%
X155835536Y-91526555D02*
X155528254Y-91526555D01*
X155835536Y-90766555D02*
X155528254Y-90766555D01*
%TO.C,R6*%
X133628254Y-92726555D02*
X133935536Y-92726555D01*
X133628254Y-91966555D02*
X133935536Y-91966555D01*
%TO.C,U2*%
X154467600Y-80515000D02*
X153967600Y-80515000D01*
X153967600Y-80015000D01*
X154467600Y-80515000D01*
G36*
X154467600Y-80515000D02*
G01*
X153967600Y-80515000D01*
X153967600Y-80015000D01*
X154467600Y-80515000D01*
G37*
X153967600Y-99490000D02*
X152467600Y-99490000D01*
X153967600Y-98490000D02*
X153967600Y-99490000D01*
X153967600Y-73640000D02*
X153967600Y-79840000D01*
X153967600Y-73640000D02*
X135567600Y-73640000D01*
X135567600Y-99490000D02*
X137067600Y-99490000D01*
X135567600Y-99490000D02*
X135567600Y-98490000D01*
X135567600Y-73640000D02*
X135567600Y-79840000D01*
%TO.C,R13*%
X155835536Y-87226555D02*
X155528254Y-87226555D01*
X155835536Y-86466555D02*
X155528254Y-86466555D01*
%TO.C,R15*%
X155835536Y-90126555D02*
X155528254Y-90126555D01*
X155835536Y-89366555D02*
X155528254Y-89366555D01*
%TO.C,R5*%
X146611895Y-124842914D02*
X146611895Y-125150196D01*
X145851895Y-124842914D02*
X145851895Y-125150196D01*
%TD*%
M02*
