%TF.GenerationSoftware,KiCad,Pcbnew,9.0.5*%
%TF.CreationDate,2025-11-05T16:55:38-05:00*%
%TF.ProjectId,flight-computer,666c6967-6874-42d6-936f-6d7075746572,rev?*%
%TF.SameCoordinates,Original*%
%TF.FileFunction,Copper,L4,Inr*%
%TF.FilePolarity,Positive*%
%FSLAX46Y46*%
G04 Gerber Fmt 4.6, Leading zero omitted, Abs format (unit mm)*
G04 Created by KiCad (PCBNEW 9.0.5) date 2025-11-05 16:55:38*
%MOMM*%
%LPD*%
G01*
G04 APERTURE LIST*
%TA.AperFunction,ComponentPad*%
%ADD10C,1.524000*%
%TD*%
%TA.AperFunction,HeatsinkPad*%
%ADD11O,1.000000X1.800000*%
%TD*%
%TA.AperFunction,HeatsinkPad*%
%ADD12O,1.000000X2.100000*%
%TD*%
%TA.AperFunction,ComponentPad*%
%ADD13C,3.800000*%
%TD*%
%TA.AperFunction,HeatsinkPad*%
%ADD14C,0.600000*%
%TD*%
%TA.AperFunction,ViaPad*%
%ADD15C,0.600000*%
%TD*%
G04 APERTURE END LIST*
D10*
%TO.N,Net-(J6-Pin_2)*%
%TO.C,J6*%
X154281895Y-111071655D03*
%TO.N,Net-(J6-Pin_1)*%
X154281895Y-113611655D03*
%TD*%
%TO.N,VBUS*%
%TO.C,J3*%
X136106895Y-111111555D03*
%TO.N,GND*%
X136106895Y-108571555D03*
%TD*%
D11*
%TO.N,unconnected-(J5-SHIELD-PadS1)_3*%
%TO.C,J5*%
X148981895Y-127321555D03*
D12*
%TO.N,unconnected-(J5-SHIELD-PadS1)_2*%
X148981895Y-123141555D03*
D11*
%TO.N,unconnected-(J5-SHIELD-PadS1)_1*%
X140341895Y-127321555D03*
D12*
%TO.N,unconnected-(J5-SHIELD-PadS1)*%
X140341895Y-123141555D03*
%TD*%
D13*
%TO.N,GND*%
%TO.C,H2*%
X153982000Y-103200000D03*
%TD*%
%TO.N,GND*%
%TO.C,H4*%
X153982000Y-126450000D03*
%TD*%
%TO.N,GND*%
%TO.C,H1*%
X135582000Y-103200000D03*
%TD*%
%TO.N,GND*%
%TO.C,H3*%
X135582000Y-126450000D03*
%TD*%
D14*
%TO.N,GND*%
%TO.C,U2*%
X144867600Y-88300000D03*
X144867600Y-89700000D03*
X145567600Y-87600000D03*
X145567600Y-89000000D03*
X145567600Y-90400000D03*
X146267600Y-88300000D03*
X146267600Y-89700000D03*
X146967600Y-87600000D03*
X146967600Y-89000000D03*
X146967600Y-90400000D03*
X147667600Y-88300000D03*
X147667600Y-89700000D03*
%TD*%
D15*
%TO.N,GND*%
X134481895Y-90946555D03*
X144781895Y-97346555D03*
X148481895Y-81446555D03*
%TO.N,+3.3V*%
X148981895Y-83746555D03*
%TO.N,GND*%
X148181895Y-82746555D03*
%TO.N,+3.3V*%
X148881895Y-118646555D03*
%TO.N,GND*%
X142981895Y-109746555D03*
%TO.N,+3.3V*%
X143256895Y-105246555D03*
%TO.N,GND*%
X142981895Y-102246555D03*
X144981895Y-109746555D03*
X137981895Y-85246555D03*
X152250362Y-90043964D03*
X152223613Y-85524835D03*
X152250801Y-87060929D03*
X152250801Y-88556242D03*
X141481895Y-105246555D03*
%TO.N,+3.3V*%
X144267601Y-85746555D03*
%TO.N,GND*%
X147231895Y-107746555D03*
X147081895Y-104146555D03*
X155201895Y-80446555D03*
X148731895Y-113996555D03*
X144999494Y-86343110D03*
X147231895Y-113996555D03*
X141481895Y-101246555D03*
X148231895Y-121246555D03*
X141481895Y-121246555D03*
X156181895Y-84226555D03*
%TO.N,+3.3V*%
X156161895Y-80446555D03*
X139331895Y-86146555D03*
X148481895Y-95846555D03*
X144181895Y-118246555D03*
X148981895Y-97146555D03*
%TO.N,USB_D-*%
X150931374Y-100946034D03*
X143736895Y-120746555D03*
X153517600Y-96520000D03*
%TO.N,USB_D+*%
X151532416Y-101547076D03*
X144586895Y-120746555D03*
X153517600Y-97790000D03*
%TO.N,Net-(J5-CC2)*%
X146231895Y-123746555D03*
%TO.N,Remote Start 1*%
X149481895Y-100746555D03*
%TO.N,Remote Start 2*%
X147981895Y-100496555D03*
%TO.N,Net-(J5-CC1)*%
X143481895Y-123746555D03*
%TO.N,Net-(J1-Pin_6)*%
X133281895Y-93446555D03*
%TO.N,LSM_CS*%
X151381895Y-83546555D03*
%TO.N,LSM_MISO*%
X140781895Y-83446555D03*
%TO.N,LSM_INT2*%
X151681895Y-99046555D03*
X147481895Y-83946555D03*
X146781895Y-92446555D03*
%TO.N,LSM_INT1*%
X142281895Y-84846555D03*
%TO.N,LSM_MOSI*%
X139881895Y-83446555D03*
%TO.N,FIN_DRDY*%
X137381895Y-90546555D03*
%TO.N,FIN_RST*%
X152181895Y-92046555D03*
%TO.N,LSM_SCK*%
X152093410Y-83783727D03*
%TO.N,Net-(J1-Pin_4)*%
X133381895Y-87746555D03*
%TO.N,Net-(J2-Pin_2)*%
X156181895Y-92146555D03*
%TO.N,IMP_OUT1*%
X138081895Y-82546555D03*
%TO.N,IMP_OUT2*%
X138681895Y-83089449D03*
%TO.N,Net-(J1-Pin_5)*%
X133381895Y-91046555D03*
%TO.N,Net-(J2-Pin_6)*%
X156081895Y-85446555D03*
%TO.N,Net-(J2-Pin_4)*%
X156181895Y-88346555D03*
%TO.N,Net-(J2-Pin_3)*%
X156181895Y-89746555D03*
%TO.N,Net-(J2-Pin_5)*%
X156081895Y-86846555D03*
%TD*%
%TA.AperFunction,Conductor*%
%TO.N,+3.3V*%
G36*
X156922539Y-79266740D02*
G01*
X156968294Y-79319544D01*
X156979500Y-79371055D01*
X156979500Y-88259155D01*
X156959815Y-88326194D01*
X156937909Y-88345175D01*
X156948241Y-88351643D01*
X156978019Y-88414849D01*
X156979500Y-88433954D01*
X156979500Y-92059155D01*
X156959815Y-92126194D01*
X156937909Y-92145175D01*
X156948241Y-92151643D01*
X156978019Y-92214849D01*
X156979500Y-92233954D01*
X156979500Y-129622055D01*
X156959815Y-129689094D01*
X156907011Y-129734849D01*
X156855500Y-129746055D01*
X132704500Y-129746055D01*
X132637461Y-129726370D01*
X132591706Y-129673566D01*
X132580500Y-129622055D01*
X132580500Y-126309041D01*
X133431500Y-126309041D01*
X133431500Y-126590958D01*
X133468295Y-126870439D01*
X133541259Y-127142743D01*
X133649135Y-127403179D01*
X133649140Y-127403190D01*
X133790083Y-127647309D01*
X133790088Y-127647317D01*
X133961700Y-127870965D01*
X133961704Y-127870970D01*
X134161029Y-128070295D01*
X134161033Y-128070298D01*
X134161035Y-128070300D01*
X134384683Y-128241912D01*
X134384690Y-128241916D01*
X134628809Y-128382859D01*
X134628814Y-128382861D01*
X134628817Y-128382863D01*
X134889261Y-128490742D01*
X135161558Y-128563704D01*
X135441049Y-128600500D01*
X135441056Y-128600500D01*
X135722944Y-128600500D01*
X135722951Y-128600500D01*
X136002442Y-128563704D01*
X136274739Y-128490742D01*
X136535183Y-128382863D01*
X136779317Y-128241912D01*
X137002965Y-128070300D01*
X137202300Y-127870965D01*
X137260226Y-127795475D01*
X139591394Y-127795475D01*
X139620235Y-127940462D01*
X139620238Y-127940472D01*
X139676807Y-128077043D01*
X139676814Y-128077056D01*
X139758943Y-128199970D01*
X139758946Y-128199974D01*
X139863475Y-128304503D01*
X139863479Y-128304506D01*
X139986393Y-128386635D01*
X139986406Y-128386642D01*
X140122977Y-128443211D01*
X140122982Y-128443213D01*
X140122986Y-128443213D01*
X140122987Y-128443214D01*
X140267974Y-128472055D01*
X140267977Y-128472055D01*
X140415815Y-128472055D01*
X140513357Y-128452651D01*
X140560808Y-128443213D01*
X140697390Y-128386639D01*
X140820311Y-128304506D01*
X140924846Y-128199971D01*
X141006979Y-128077050D01*
X141063553Y-127940468D01*
X141092395Y-127795475D01*
X148231394Y-127795475D01*
X148260235Y-127940462D01*
X148260238Y-127940472D01*
X148316807Y-128077043D01*
X148316814Y-128077056D01*
X148398943Y-128199970D01*
X148398946Y-128199974D01*
X148503475Y-128304503D01*
X148503479Y-128304506D01*
X148626393Y-128386635D01*
X148626406Y-128386642D01*
X148762977Y-128443211D01*
X148762982Y-128443213D01*
X148762986Y-128443213D01*
X148762987Y-128443214D01*
X148907974Y-128472055D01*
X148907977Y-128472055D01*
X149055815Y-128472055D01*
X149153357Y-128452651D01*
X149200808Y-128443213D01*
X149337390Y-128386639D01*
X149460311Y-128304506D01*
X149564846Y-128199971D01*
X149646979Y-128077050D01*
X149703553Y-127940468D01*
X149732395Y-127795473D01*
X149732395Y-126847637D01*
X149732395Y-126847634D01*
X149703554Y-126702647D01*
X149703553Y-126702646D01*
X149703553Y-126702642D01*
X149703551Y-126702637D01*
X149646982Y-126566066D01*
X149646975Y-126566053D01*
X149564846Y-126443139D01*
X149564843Y-126443135D01*
X149460314Y-126338606D01*
X149460310Y-126338603D01*
X149416068Y-126309041D01*
X151831500Y-126309041D01*
X151831500Y-126590958D01*
X151868295Y-126870439D01*
X151941259Y-127142743D01*
X152049135Y-127403179D01*
X152049140Y-127403190D01*
X152190083Y-127647309D01*
X152190088Y-127647317D01*
X152361700Y-127870965D01*
X152361704Y-127870970D01*
X152561029Y-128070295D01*
X152561033Y-128070298D01*
X152561035Y-128070300D01*
X152784683Y-128241912D01*
X152784690Y-128241916D01*
X153028809Y-128382859D01*
X153028814Y-128382861D01*
X153028817Y-128382863D01*
X153289261Y-128490742D01*
X153561558Y-128563704D01*
X153841049Y-128600500D01*
X153841056Y-128600500D01*
X154122944Y-128600500D01*
X154122951Y-128600500D01*
X154402442Y-128563704D01*
X154674739Y-128490742D01*
X154935183Y-128382863D01*
X155179317Y-128241912D01*
X155402965Y-128070300D01*
X155602300Y-127870965D01*
X155773912Y-127647317D01*
X155914863Y-127403183D01*
X156022742Y-127142739D01*
X156095704Y-126870442D01*
X156132500Y-126590951D01*
X156132500Y-126309049D01*
X156095704Y-126029558D01*
X156022742Y-125757261D01*
X155914863Y-125496817D01*
X155914861Y-125496814D01*
X155914859Y-125496809D01*
X155773916Y-125252690D01*
X155773912Y-125252683D01*
X155602300Y-125029035D01*
X155602298Y-125029033D01*
X155602295Y-125029029D01*
X155402970Y-124829704D01*
X155402965Y-124829700D01*
X155179317Y-124658088D01*
X155179311Y-124658084D01*
X155179309Y-124658083D01*
X154935190Y-124517140D01*
X154935179Y-124517135D01*
X154674743Y-124409259D01*
X154402439Y-124336295D01*
X154122958Y-124299500D01*
X154122951Y-124299500D01*
X153841049Y-124299500D01*
X153841041Y-124299500D01*
X153561560Y-124336295D01*
X153289256Y-124409259D01*
X153028820Y-124517135D01*
X153028809Y-124517140D01*
X152784690Y-124658083D01*
X152784682Y-124658089D01*
X152561029Y-124829704D01*
X152361704Y-125029029D01*
X152190089Y-125252682D01*
X152190083Y-125252690D01*
X152049140Y-125496809D01*
X152049135Y-125496820D01*
X151941259Y-125757256D01*
X151868295Y-126029560D01*
X151831500Y-126309041D01*
X149416068Y-126309041D01*
X149337396Y-126256474D01*
X149337383Y-126256467D01*
X149200812Y-126199898D01*
X149200802Y-126199895D01*
X149055815Y-126171055D01*
X149055813Y-126171055D01*
X148907977Y-126171055D01*
X148907975Y-126171055D01*
X148762987Y-126199895D01*
X148762977Y-126199898D01*
X148626406Y-126256467D01*
X148626393Y-126256474D01*
X148503479Y-126338603D01*
X148503475Y-126338606D01*
X148398946Y-126443135D01*
X148398943Y-126443139D01*
X148316814Y-126566053D01*
X148316807Y-126566066D01*
X148260238Y-126702637D01*
X148260235Y-126702647D01*
X148231395Y-126847634D01*
X148231395Y-126847637D01*
X148231395Y-127795473D01*
X148231395Y-127795475D01*
X148231394Y-127795475D01*
X141092395Y-127795475D01*
X141092395Y-127795473D01*
X141092395Y-126847637D01*
X141092395Y-126847634D01*
X141063554Y-126702647D01*
X141063553Y-126702646D01*
X141063553Y-126702642D01*
X141063551Y-126702637D01*
X141006982Y-126566066D01*
X141006975Y-126566053D01*
X140924846Y-126443139D01*
X140924843Y-126443135D01*
X140820314Y-126338606D01*
X140820310Y-126338603D01*
X140697396Y-126256474D01*
X140697383Y-126256467D01*
X140560812Y-126199898D01*
X140560802Y-126199895D01*
X140415815Y-126171055D01*
X140415813Y-126171055D01*
X140267977Y-126171055D01*
X140267975Y-126171055D01*
X140122987Y-126199895D01*
X140122977Y-126199898D01*
X139986406Y-126256467D01*
X139986393Y-126256474D01*
X139863479Y-126338603D01*
X139863475Y-126338606D01*
X139758946Y-126443135D01*
X139758943Y-126443139D01*
X139676814Y-126566053D01*
X139676807Y-126566066D01*
X139620238Y-126702637D01*
X139620235Y-126702647D01*
X139591395Y-126847634D01*
X139591395Y-126847637D01*
X139591395Y-127795473D01*
X139591395Y-127795475D01*
X139591394Y-127795475D01*
X137260226Y-127795475D01*
X137373912Y-127647317D01*
X137514863Y-127403183D01*
X137622742Y-127142739D01*
X137695704Y-126870442D01*
X137732500Y-126590951D01*
X137732500Y-126309049D01*
X137695704Y-126029558D01*
X137622742Y-125757261D01*
X137514863Y-125496817D01*
X137514861Y-125496814D01*
X137514859Y-125496809D01*
X137373916Y-125252690D01*
X137373912Y-125252683D01*
X137202300Y-125029035D01*
X137202298Y-125029033D01*
X137202295Y-125029029D01*
X137002970Y-124829704D01*
X137002965Y-124829700D01*
X136779317Y-124658088D01*
X136779311Y-124658084D01*
X136779309Y-124658083D01*
X136535190Y-124517140D01*
X136535179Y-124517135D01*
X136274743Y-124409259D01*
X136002439Y-124336295D01*
X135722958Y-124299500D01*
X135722951Y-124299500D01*
X135441049Y-124299500D01*
X135441041Y-124299500D01*
X135161560Y-124336295D01*
X134889256Y-124409259D01*
X134628820Y-124517135D01*
X134628809Y-124517140D01*
X134384690Y-124658083D01*
X134384682Y-124658089D01*
X134161029Y-124829704D01*
X133961704Y-125029029D01*
X133790089Y-125252682D01*
X133790083Y-125252690D01*
X133649140Y-125496809D01*
X133649135Y-125496820D01*
X133541259Y-125757256D01*
X133468295Y-126029560D01*
X133431500Y-126309041D01*
X132580500Y-126309041D01*
X132580500Y-123765475D01*
X139591394Y-123765475D01*
X139620235Y-123910462D01*
X139620238Y-123910472D01*
X139676807Y-124047043D01*
X139676814Y-124047056D01*
X139758943Y-124169970D01*
X139758946Y-124169974D01*
X139863475Y-124274503D01*
X139863479Y-124274506D01*
X139986393Y-124356635D01*
X139986406Y-124356642D01*
X140113434Y-124409258D01*
X140122982Y-124413213D01*
X140122986Y-124413213D01*
X140122987Y-124413214D01*
X140267974Y-124442055D01*
X140267977Y-124442055D01*
X140415815Y-124442055D01*
X140513357Y-124422651D01*
X140560808Y-124413213D01*
X140697390Y-124356639D01*
X140820311Y-124274506D01*
X140924846Y-124169971D01*
X141006979Y-124047050D01*
X141050488Y-123942008D01*
X141094326Y-123887610D01*
X141160620Y-123865544D01*
X141228319Y-123882823D01*
X141272434Y-123927464D01*
X141311380Y-123994920D01*
X141418530Y-124102070D01*
X141549760Y-124177836D01*
X141696129Y-124217055D01*
X141696131Y-124217055D01*
X141847659Y-124217055D01*
X141847661Y-124217055D01*
X141994030Y-124177836D01*
X142125260Y-124102070D01*
X142232410Y-123994920D01*
X142308176Y-123863690D01*
X142347395Y-123717321D01*
X142347395Y-123674080D01*
X142931395Y-123674080D01*
X142931395Y-123819030D01*
X142964349Y-123942013D01*
X142968912Y-123959043D01*
X143041383Y-124084566D01*
X143041385Y-124084568D01*
X143041386Y-124084570D01*
X143143880Y-124187064D01*
X143143881Y-124187065D01*
X143143883Y-124187066D01*
X143269406Y-124259537D01*
X143269407Y-124259537D01*
X143269410Y-124259539D01*
X143409420Y-124297055D01*
X143409423Y-124297055D01*
X143554367Y-124297055D01*
X143554370Y-124297055D01*
X143694380Y-124259539D01*
X143819910Y-124187064D01*
X143922404Y-124084570D01*
X143994879Y-123959040D01*
X144032395Y-123819030D01*
X144032395Y-123674080D01*
X145681395Y-123674080D01*
X145681395Y-123819030D01*
X145714349Y-123942013D01*
X145718912Y-123959043D01*
X145791383Y-124084566D01*
X145791385Y-124084568D01*
X145791386Y-124084570D01*
X145893880Y-124187064D01*
X145893881Y-124187065D01*
X145893883Y-124187066D01*
X146019406Y-124259537D01*
X146019407Y-124259537D01*
X146019410Y-124259539D01*
X146159420Y-124297055D01*
X146159423Y-124297055D01*
X146304367Y-124297055D01*
X146304370Y-124297055D01*
X146444380Y-124259539D01*
X146569910Y-124187064D01*
X146672404Y-124084570D01*
X146744879Y-123959040D01*
X146773247Y-123853168D01*
X146809611Y-123793511D01*
X146872458Y-123762982D01*
X146941834Y-123771277D01*
X146995712Y-123815762D01*
X147012794Y-123853168D01*
X147015614Y-123863690D01*
X147091380Y-123994920D01*
X147198530Y-124102070D01*
X147329760Y-124177836D01*
X147476129Y-124217055D01*
X147476131Y-124217055D01*
X147627659Y-124217055D01*
X147627661Y-124217055D01*
X147774030Y-124177836D01*
X147905260Y-124102070D01*
X148012410Y-123994920D01*
X148051355Y-123927464D01*
X148101922Y-123879249D01*
X148170529Y-123866026D01*
X148235394Y-123891994D01*
X148273303Y-123942013D01*
X148316807Y-124047043D01*
X148316814Y-124047056D01*
X148398943Y-124169970D01*
X148398946Y-124169974D01*
X148503475Y-124274503D01*
X148503479Y-124274506D01*
X148626393Y-124356635D01*
X148626406Y-124356642D01*
X148753434Y-124409258D01*
X148762982Y-124413213D01*
X148762986Y-124413213D01*
X148762987Y-124413214D01*
X148907974Y-124442055D01*
X148907977Y-124442055D01*
X149055815Y-124442055D01*
X149153357Y-124422651D01*
X149200808Y-124413213D01*
X149337390Y-124356639D01*
X149460311Y-124274506D01*
X149564846Y-124169971D01*
X149646979Y-124047050D01*
X149703553Y-123910468D01*
X149726818Y-123793511D01*
X149732395Y-123765475D01*
X149732395Y-122517634D01*
X149703554Y-122372647D01*
X149703553Y-122372646D01*
X149703553Y-122372642D01*
X149703551Y-122372637D01*
X149646982Y-122236066D01*
X149646975Y-122236053D01*
X149564846Y-122113139D01*
X149564843Y-122113135D01*
X149460314Y-122008606D01*
X149460310Y-122008603D01*
X149337396Y-121926474D01*
X149337383Y-121926467D01*
X149200812Y-121869898D01*
X149200802Y-121869895D01*
X149055815Y-121841055D01*
X149055813Y-121841055D01*
X148907977Y-121841055D01*
X148907975Y-121841055D01*
X148762987Y-121869895D01*
X148762982Y-121869897D01*
X148702237Y-121895057D01*
X148702227Y-121895062D01*
X148626400Y-121926471D01*
X148536519Y-121986527D01*
X148536498Y-121986539D01*
X148503477Y-122008604D01*
X148398946Y-122113135D01*
X148398943Y-122113139D01*
X148316814Y-122236053D01*
X148316807Y-122236066D01*
X148260238Y-122372637D01*
X148260235Y-122372647D01*
X148231395Y-122517634D01*
X148231395Y-123208285D01*
X148211710Y-123275324D01*
X148158906Y-123321079D01*
X148089748Y-123331023D01*
X148026192Y-123301998D01*
X148018383Y-123293710D01*
X148018157Y-123293937D01*
X147905262Y-123181042D01*
X147905260Y-123181040D01*
X147839645Y-123143157D01*
X147774031Y-123105274D01*
X147700845Y-123085664D01*
X147627661Y-123066055D01*
X147476129Y-123066055D01*
X147329758Y-123105274D01*
X147198530Y-123181040D01*
X147198527Y-123181042D01*
X147091382Y-123288187D01*
X147091380Y-123288190D01*
X147015615Y-123419418D01*
X146984661Y-123534939D01*
X146948296Y-123594599D01*
X146885449Y-123625128D01*
X146816073Y-123616833D01*
X146762195Y-123572348D01*
X146748117Y-123541520D01*
X146747987Y-123541574D01*
X146746478Y-123537931D01*
X146745111Y-123534939D01*
X146744879Y-123534070D01*
X146744877Y-123534066D01*
X146744877Y-123534065D01*
X146672406Y-123408543D01*
X146672401Y-123408537D01*
X146569912Y-123306048D01*
X146569906Y-123306043D01*
X146444383Y-123233572D01*
X146444384Y-123233572D01*
X146432901Y-123230495D01*
X146304370Y-123196055D01*
X146159420Y-123196055D01*
X146030888Y-123230495D01*
X146019406Y-123233572D01*
X145893883Y-123306043D01*
X145893877Y-123306048D01*
X145791388Y-123408537D01*
X145791383Y-123408543D01*
X145718912Y-123534066D01*
X145718911Y-123534070D01*
X145681395Y-123674080D01*
X144032395Y-123674080D01*
X143994879Y-123534070D01*
X143928684Y-123419418D01*
X143922406Y-123408543D01*
X143922401Y-123408537D01*
X143819912Y-123306048D01*
X143819906Y-123306043D01*
X143694383Y-123233572D01*
X143694384Y-123233572D01*
X143682901Y-123230495D01*
X143554370Y-123196055D01*
X143409420Y-123196055D01*
X143280888Y-123230495D01*
X143269406Y-123233572D01*
X143143883Y-123306043D01*
X143143877Y-123306048D01*
X143041388Y-123408537D01*
X143041383Y-123408543D01*
X142968912Y-123534066D01*
X142968911Y-123534070D01*
X142931395Y-123674080D01*
X142347395Y-123674080D01*
X142347395Y-123565789D01*
X142308176Y-123419420D01*
X142232410Y-123288190D01*
X142125260Y-123181040D01*
X142059645Y-123143157D01*
X141994031Y-123105274D01*
X141920845Y-123085664D01*
X141847661Y-123066055D01*
X141696129Y-123066055D01*
X141549758Y-123105274D01*
X141418530Y-123181040D01*
X141418527Y-123181042D01*
X141305633Y-123293937D01*
X141303614Y-123291918D01*
X141258340Y-123324975D01*
X141188593Y-123329128D01*
X141127674Y-123294914D01*
X141094923Y-123233196D01*
X141092395Y-123208285D01*
X141092395Y-122517634D01*
X141063554Y-122372647D01*
X141063553Y-122372646D01*
X141063553Y-122372642D01*
X141063551Y-122372637D01*
X141006982Y-122236066D01*
X141006975Y-122236053D01*
X140924846Y-122113139D01*
X140924843Y-122113135D01*
X140820314Y-122008606D01*
X140820310Y-122008603D01*
X140697396Y-121926474D01*
X140697383Y-121926467D01*
X140560812Y-121869898D01*
X140560802Y-121869895D01*
X140415815Y-121841055D01*
X140415813Y-121841055D01*
X140267977Y-121841055D01*
X140267975Y-121841055D01*
X140122987Y-121869895D01*
X140122977Y-121869898D01*
X139986406Y-121926467D01*
X139986393Y-121926474D01*
X139863479Y-122008603D01*
X139863475Y-122008606D01*
X139758946Y-122113135D01*
X139758943Y-122113139D01*
X139676814Y-122236053D01*
X139676807Y-122236066D01*
X139620238Y-122372637D01*
X139620235Y-122372647D01*
X139591395Y-122517634D01*
X139591395Y-122517637D01*
X139591395Y-123765473D01*
X139591395Y-123765475D01*
X139591394Y-123765475D01*
X132580500Y-123765475D01*
X132580500Y-121174080D01*
X140931395Y-121174080D01*
X140931395Y-121319030D01*
X140968911Y-121459040D01*
X140968912Y-121459043D01*
X141041383Y-121584566D01*
X141041385Y-121584568D01*
X141041386Y-121584570D01*
X141143880Y-121687064D01*
X141143881Y-121687065D01*
X141143883Y-121687066D01*
X141269406Y-121759537D01*
X141269407Y-121759537D01*
X141269410Y-121759539D01*
X141409420Y-121797055D01*
X141409423Y-121797055D01*
X141554367Y-121797055D01*
X141554370Y-121797055D01*
X141694380Y-121759539D01*
X141819910Y-121687064D01*
X141922404Y-121584570D01*
X141994879Y-121459040D01*
X142032395Y-121319030D01*
X142032395Y-121174080D01*
X141994879Y-121034070D01*
X141951560Y-120959040D01*
X141922406Y-120908543D01*
X141922401Y-120908537D01*
X141819912Y-120806048D01*
X141819910Y-120806046D01*
X141694380Y-120733571D01*
X141554370Y-120696055D01*
X141409420Y-120696055D01*
X141280888Y-120730495D01*
X141269406Y-120733572D01*
X141143883Y-120806043D01*
X141143877Y-120806048D01*
X141041388Y-120908537D01*
X141041383Y-120908543D01*
X140968912Y-121034066D01*
X140968911Y-121034070D01*
X140931395Y-121174080D01*
X132580500Y-121174080D01*
X132580500Y-120674080D01*
X143186395Y-120674080D01*
X143186395Y-120819030D01*
X143223911Y-120959040D01*
X143223912Y-120959043D01*
X143296383Y-121084566D01*
X143296385Y-121084568D01*
X143296386Y-121084570D01*
X143398880Y-121187064D01*
X143398881Y-121187065D01*
X143398883Y-121187066D01*
X143524406Y-121259537D01*
X143524407Y-121259537D01*
X143524410Y-121259539D01*
X143664420Y-121297055D01*
X143664423Y-121297055D01*
X143809367Y-121297055D01*
X143809370Y-121297055D01*
X143949380Y-121259539D01*
X144074910Y-121187064D01*
X144074914Y-121187059D01*
X144081356Y-121182117D01*
X144082298Y-121183345D01*
X144135537Y-121154275D01*
X144205229Y-121159259D01*
X144241892Y-121182822D01*
X144242434Y-121182117D01*
X144248883Y-121187066D01*
X144374406Y-121259537D01*
X144374407Y-121259537D01*
X144374410Y-121259539D01*
X144514420Y-121297055D01*
X144514423Y-121297055D01*
X144659367Y-121297055D01*
X144659370Y-121297055D01*
X144799380Y-121259539D01*
X144924910Y-121187064D01*
X144937894Y-121174080D01*
X147681395Y-121174080D01*
X147681395Y-121319030D01*
X147718911Y-121459040D01*
X147718912Y-121459043D01*
X147791383Y-121584566D01*
X147791385Y-121584568D01*
X147791386Y-121584570D01*
X147893880Y-121687064D01*
X147893881Y-121687065D01*
X147893883Y-121687066D01*
X148019406Y-121759537D01*
X148019407Y-121759537D01*
X148019410Y-121759539D01*
X148159420Y-121797055D01*
X148159423Y-121797055D01*
X148304368Y-121797055D01*
X148304370Y-121797055D01*
X148444380Y-121759539D01*
X148569910Y-121687064D01*
X148672404Y-121584570D01*
X148744879Y-121459040D01*
X148782395Y-121319030D01*
X148782395Y-121174080D01*
X148744879Y-121034070D01*
X148701560Y-120959040D01*
X148672406Y-120908543D01*
X148672401Y-120908537D01*
X148569912Y-120806048D01*
X148569906Y-120806043D01*
X148444383Y-120733572D01*
X148444384Y-120733572D01*
X148432901Y-120730495D01*
X148304370Y-120696055D01*
X148159420Y-120696055D01*
X148030888Y-120730495D01*
X148019406Y-120733572D01*
X147893883Y-120806043D01*
X147893877Y-120806048D01*
X147791388Y-120908537D01*
X147791383Y-120908543D01*
X147718912Y-121034066D01*
X147718911Y-121034070D01*
X147681395Y-121174080D01*
X144937894Y-121174080D01*
X145027404Y-121084570D01*
X145099879Y-120959040D01*
X145137395Y-120819030D01*
X145137395Y-120674080D01*
X145099879Y-120534070D01*
X145027404Y-120408540D01*
X144924910Y-120306046D01*
X144924908Y-120306045D01*
X144924906Y-120306043D01*
X144799383Y-120233572D01*
X144799384Y-120233572D01*
X144787901Y-120230495D01*
X144659370Y-120196055D01*
X144514420Y-120196055D01*
X144385888Y-120230495D01*
X144374406Y-120233572D01*
X144248883Y-120306043D01*
X144242434Y-120310993D01*
X144241491Y-120309764D01*
X144188253Y-120338835D01*
X144118561Y-120333851D01*
X144081897Y-120310287D01*
X144081356Y-120310993D01*
X144074906Y-120306043D01*
X143949383Y-120233572D01*
X143949384Y-120233572D01*
X143937901Y-120230495D01*
X143809370Y-120196055D01*
X143664420Y-120196055D01*
X143535888Y-120230495D01*
X143524406Y-120233572D01*
X143398883Y-120306043D01*
X143398877Y-120306048D01*
X143296388Y-120408537D01*
X143296383Y-120408543D01*
X143223912Y-120534066D01*
X143223911Y-120534070D01*
X143186395Y-120674080D01*
X132580500Y-120674080D01*
X132580500Y-113924080D01*
X146681395Y-113924080D01*
X146681395Y-114069030D01*
X146687352Y-114091260D01*
X146718912Y-114209043D01*
X146791383Y-114334566D01*
X146791385Y-114334568D01*
X146791386Y-114334570D01*
X146893880Y-114437064D01*
X146893881Y-114437065D01*
X146893883Y-114437066D01*
X147019406Y-114509537D01*
X147019407Y-114509537D01*
X147019410Y-114509539D01*
X147159420Y-114547055D01*
X147159423Y-114547055D01*
X147304367Y-114547055D01*
X147304370Y-114547055D01*
X147444380Y-114509539D01*
X147569910Y-114437064D01*
X147672404Y-114334570D01*
X147744879Y-114209040D01*
X147782395Y-114069030D01*
X147782395Y-113924080D01*
X148181395Y-113924080D01*
X148181395Y-114069030D01*
X148187352Y-114091260D01*
X148218912Y-114209043D01*
X148291383Y-114334566D01*
X148291385Y-114334568D01*
X148291386Y-114334570D01*
X148393880Y-114437064D01*
X148393881Y-114437065D01*
X148393883Y-114437066D01*
X148519406Y-114509537D01*
X148519407Y-114509537D01*
X148519410Y-114509539D01*
X148659420Y-114547055D01*
X148659423Y-114547055D01*
X148804367Y-114547055D01*
X148804370Y-114547055D01*
X148944380Y-114509539D01*
X149069910Y-114437064D01*
X149172404Y-114334570D01*
X149244879Y-114209040D01*
X149282395Y-114069030D01*
X149282395Y-113924080D01*
X149244879Y-113784070D01*
X149202911Y-113711380D01*
X153269394Y-113711380D01*
X153308303Y-113906984D01*
X153308306Y-113906994D01*
X153384625Y-114091247D01*
X153384632Y-114091260D01*
X153495434Y-114257085D01*
X153495437Y-114257089D01*
X153636460Y-114398112D01*
X153636464Y-114398115D01*
X153802289Y-114508917D01*
X153802302Y-114508924D01*
X153894360Y-114547055D01*
X153986560Y-114585245D01*
X153986564Y-114585245D01*
X153986565Y-114585246D01*
X154182169Y-114624155D01*
X154182172Y-114624155D01*
X154381620Y-114624155D01*
X154513219Y-114597977D01*
X154577230Y-114585245D01*
X154761494Y-114508921D01*
X154927326Y-114398115D01*
X155068355Y-114257086D01*
X155179161Y-114091254D01*
X155255485Y-113906990D01*
X155279936Y-113784070D01*
X155294395Y-113711380D01*
X155294395Y-113511929D01*
X155255486Y-113316325D01*
X155255485Y-113316324D01*
X155255485Y-113316320D01*
X155255483Y-113316315D01*
X155179164Y-113132062D01*
X155179157Y-113132049D01*
X155068355Y-112966224D01*
X155068352Y-112966220D01*
X154927329Y-112825197D01*
X154927325Y-112825194D01*
X154761500Y-112714392D01*
X154761487Y-112714385D01*
X154577234Y-112638066D01*
X154577224Y-112638063D01*
X154381620Y-112599155D01*
X154381618Y-112599155D01*
X154182172Y-112599155D01*
X154182170Y-112599155D01*
X153986565Y-112638063D01*
X153986555Y-112638066D01*
X153802302Y-112714385D01*
X153802289Y-112714392D01*
X153636464Y-112825194D01*
X153636460Y-112825197D01*
X153495437Y-112966220D01*
X153495434Y-112966224D01*
X153384632Y-113132049D01*
X153384625Y-113132062D01*
X153308306Y-113316315D01*
X153308303Y-113316325D01*
X153269395Y-113511929D01*
X153269395Y-113511932D01*
X153269395Y-113711378D01*
X153269395Y-113711380D01*
X153269394Y-113711380D01*
X149202911Y-113711380D01*
X149172406Y-113658543D01*
X149172401Y-113658537D01*
X149069912Y-113556048D01*
X149069906Y-113556043D01*
X148944383Y-113483572D01*
X148944384Y-113483572D01*
X148932901Y-113480495D01*
X148804370Y-113446055D01*
X148659420Y-113446055D01*
X148530888Y-113480495D01*
X148519406Y-113483572D01*
X148393883Y-113556043D01*
X148393877Y-113556048D01*
X148291388Y-113658537D01*
X148291383Y-113658543D01*
X148218912Y-113784066D01*
X148218911Y-113784070D01*
X148181395Y-113924080D01*
X147782395Y-113924080D01*
X147744879Y-113784070D01*
X147702911Y-113711380D01*
X147672406Y-113658543D01*
X147672401Y-113658537D01*
X147569912Y-113556048D01*
X147569906Y-113556043D01*
X147444383Y-113483572D01*
X147444384Y-113483572D01*
X147432901Y-113480495D01*
X147304370Y-113446055D01*
X147159420Y-113446055D01*
X147030888Y-113480495D01*
X147019406Y-113483572D01*
X146893883Y-113556043D01*
X146893877Y-113556048D01*
X146791388Y-113658537D01*
X146791383Y-113658543D01*
X146718912Y-113784066D01*
X146718911Y-113784070D01*
X146681395Y-113924080D01*
X132580500Y-113924080D01*
X132580500Y-111211280D01*
X135094394Y-111211280D01*
X135133303Y-111406884D01*
X135133306Y-111406894D01*
X135209625Y-111591147D01*
X135209632Y-111591160D01*
X135320434Y-111756985D01*
X135320437Y-111756989D01*
X135461460Y-111898012D01*
X135461464Y-111898015D01*
X135627289Y-112008817D01*
X135627302Y-112008824D01*
X135715234Y-112045246D01*
X135811560Y-112085145D01*
X135811564Y-112085145D01*
X135811565Y-112085146D01*
X136007169Y-112124055D01*
X136007172Y-112124055D01*
X136206620Y-112124055D01*
X136338219Y-112097877D01*
X136402230Y-112085145D01*
X136586494Y-112008821D01*
X136752326Y-111898015D01*
X136893355Y-111756986D01*
X137004161Y-111591154D01*
X137020686Y-111551260D01*
X137080483Y-111406894D01*
X137080485Y-111406890D01*
X137119395Y-111211278D01*
X137119395Y-111171380D01*
X153269394Y-111171380D01*
X153308303Y-111366984D01*
X153308306Y-111366994D01*
X153384625Y-111551247D01*
X153384632Y-111551260D01*
X153495434Y-111717085D01*
X153495437Y-111717089D01*
X153636460Y-111858112D01*
X153636464Y-111858115D01*
X153802289Y-111968917D01*
X153802302Y-111968924D01*
X153986555Y-112045243D01*
X153986560Y-112045245D01*
X153986564Y-112045245D01*
X153986565Y-112045246D01*
X154182169Y-112084155D01*
X154182172Y-112084155D01*
X154381620Y-112084155D01*
X154513219Y-112057977D01*
X154577230Y-112045245D01*
X154761494Y-111968921D01*
X154927326Y-111858115D01*
X155068355Y-111717086D01*
X155179161Y-111551254D01*
X155255485Y-111366990D01*
X155286458Y-111211280D01*
X155294395Y-111171380D01*
X155294395Y-110971929D01*
X155255486Y-110776325D01*
X155255485Y-110776324D01*
X155255485Y-110776320D01*
X155255483Y-110776315D01*
X155179164Y-110592062D01*
X155179157Y-110592049D01*
X155068355Y-110426224D01*
X155068352Y-110426220D01*
X154927329Y-110285197D01*
X154927325Y-110285194D01*
X154761500Y-110174392D01*
X154761487Y-110174385D01*
X154577234Y-110098066D01*
X154577224Y-110098063D01*
X154381620Y-110059155D01*
X154381618Y-110059155D01*
X154182172Y-110059155D01*
X154182170Y-110059155D01*
X153986565Y-110098063D01*
X153986555Y-110098066D01*
X153802302Y-110174385D01*
X153802289Y-110174392D01*
X153636464Y-110285194D01*
X153636460Y-110285197D01*
X153495437Y-110426220D01*
X153495434Y-110426224D01*
X153384632Y-110592049D01*
X153384625Y-110592062D01*
X153308306Y-110776315D01*
X153308303Y-110776325D01*
X153269395Y-110971929D01*
X153269395Y-110971932D01*
X153269395Y-111171378D01*
X153269395Y-111171380D01*
X153269394Y-111171380D01*
X137119395Y-111171380D01*
X137119395Y-111011832D01*
X137119395Y-111011829D01*
X137115059Y-110990032D01*
X137115059Y-110990031D01*
X137080486Y-110816227D01*
X137080486Y-110816225D01*
X137080485Y-110816220D01*
X137063956Y-110776315D01*
X137004164Y-110631962D01*
X137004157Y-110631949D01*
X136893355Y-110466124D01*
X136893352Y-110466120D01*
X136752329Y-110325097D01*
X136752325Y-110325094D01*
X136586500Y-110214292D01*
X136586487Y-110214285D01*
X136402234Y-110137966D01*
X136402224Y-110137963D01*
X136206620Y-110099055D01*
X136206618Y-110099055D01*
X136007172Y-110099055D01*
X136007170Y-110099055D01*
X135811565Y-110137963D01*
X135811555Y-110137966D01*
X135627302Y-110214285D01*
X135627289Y-110214292D01*
X135461464Y-110325094D01*
X135461460Y-110325097D01*
X135320437Y-110466120D01*
X135320434Y-110466124D01*
X135209632Y-110631949D01*
X135209625Y-110631962D01*
X135133306Y-110816215D01*
X135133303Y-110816225D01*
X135094395Y-111011829D01*
X135094395Y-111011832D01*
X135094395Y-111211278D01*
X135094395Y-111211280D01*
X135094394Y-111211280D01*
X132580500Y-111211280D01*
X132580500Y-109674080D01*
X142431395Y-109674080D01*
X142431395Y-109819030D01*
X142468911Y-109959040D01*
X142468912Y-109959043D01*
X142541383Y-110084566D01*
X142541385Y-110084568D01*
X142541386Y-110084570D01*
X142643880Y-110187064D01*
X142643881Y-110187065D01*
X142643883Y-110187066D01*
X142769406Y-110259537D01*
X142769407Y-110259537D01*
X142769410Y-110259539D01*
X142909420Y-110297055D01*
X142909423Y-110297055D01*
X143054367Y-110297055D01*
X143054370Y-110297055D01*
X143194380Y-110259539D01*
X143319910Y-110187064D01*
X143422404Y-110084570D01*
X143494879Y-109959040D01*
X143532395Y-109819030D01*
X143532395Y-109674080D01*
X144431395Y-109674080D01*
X144431395Y-109819030D01*
X144468911Y-109959040D01*
X144468912Y-109959043D01*
X144541383Y-110084566D01*
X144541385Y-110084568D01*
X144541386Y-110084570D01*
X144643880Y-110187064D01*
X144643881Y-110187065D01*
X144643883Y-110187066D01*
X144769406Y-110259537D01*
X144769407Y-110259537D01*
X144769410Y-110259539D01*
X144909420Y-110297055D01*
X144909423Y-110297055D01*
X145054367Y-110297055D01*
X145054370Y-110297055D01*
X145194380Y-110259539D01*
X145319910Y-110187064D01*
X145422404Y-110084570D01*
X145494879Y-109959040D01*
X145532395Y-109819030D01*
X145532395Y-109674080D01*
X145494879Y-109534070D01*
X145457207Y-109468821D01*
X145422406Y-109408543D01*
X145422401Y-109408537D01*
X145319912Y-109306048D01*
X145319906Y-109306043D01*
X145194383Y-109233572D01*
X145194384Y-109233572D01*
X145182901Y-109230495D01*
X145054370Y-109196055D01*
X144909420Y-109196055D01*
X144780888Y-109230495D01*
X144769406Y-109233572D01*
X144643883Y-109306043D01*
X144643877Y-109306048D01*
X144541388Y-109408537D01*
X144541383Y-109408543D01*
X144468912Y-109534066D01*
X144468911Y-109534070D01*
X144431395Y-109674080D01*
X143532395Y-109674080D01*
X143494879Y-109534070D01*
X143457207Y-109468821D01*
X143422406Y-109408543D01*
X143422401Y-109408537D01*
X143319912Y-109306048D01*
X143319906Y-109306043D01*
X143194383Y-109233572D01*
X143194384Y-109233572D01*
X143182901Y-109230495D01*
X143054370Y-109196055D01*
X142909420Y-109196055D01*
X142780888Y-109230495D01*
X142769406Y-109233572D01*
X142643883Y-109306043D01*
X142643877Y-109306048D01*
X142541388Y-109408537D01*
X142541383Y-109408543D01*
X142468912Y-109534066D01*
X142468911Y-109534070D01*
X142431395Y-109674080D01*
X132580500Y-109674080D01*
X132580500Y-108671280D01*
X135094394Y-108671280D01*
X135133303Y-108866884D01*
X135133306Y-108866894D01*
X135209625Y-109051147D01*
X135209632Y-109051160D01*
X135320434Y-109216985D01*
X135320437Y-109216989D01*
X135461460Y-109358012D01*
X135461464Y-109358015D01*
X135627289Y-109468817D01*
X135627302Y-109468824D01*
X135784822Y-109534070D01*
X135811560Y-109545145D01*
X135811564Y-109545145D01*
X135811565Y-109545146D01*
X136007169Y-109584055D01*
X136007172Y-109584055D01*
X136206620Y-109584055D01*
X136206621Y-109584054D01*
X136303139Y-109564855D01*
X136402221Y-109545147D01*
X136402222Y-109545146D01*
X136402230Y-109545145D01*
X136586494Y-109468821D01*
X136752326Y-109358015D01*
X136893355Y-109216986D01*
X137004161Y-109051154D01*
X137080485Y-108866890D01*
X137119395Y-108671278D01*
X137119395Y-108471832D01*
X137119395Y-108471829D01*
X137080486Y-108276225D01*
X137080485Y-108276224D01*
X137080485Y-108276220D01*
X137043556Y-108187064D01*
X137004164Y-108091962D01*
X137004157Y-108091949D01*
X136893355Y-107926124D01*
X136893352Y-107926120D01*
X136752329Y-107785097D01*
X136752325Y-107785094D01*
X136728321Y-107769055D01*
X136586500Y-107674292D01*
X136586487Y-107674285D01*
X136585992Y-107674080D01*
X146681395Y-107674080D01*
X146681395Y-107819030D01*
X146710090Y-107926120D01*
X146718912Y-107959043D01*
X146791383Y-108084566D01*
X146791385Y-108084568D01*
X146791386Y-108084570D01*
X146893880Y-108187064D01*
X146893881Y-108187065D01*
X146893883Y-108187066D01*
X147019406Y-108259537D01*
X147019407Y-108259537D01*
X147019410Y-108259539D01*
X147159420Y-108297055D01*
X147159423Y-108297055D01*
X147304367Y-108297055D01*
X147304370Y-108297055D01*
X147444380Y-108259539D01*
X147569910Y-108187064D01*
X147672404Y-108084570D01*
X147744879Y-107959040D01*
X147782395Y-107819030D01*
X147782395Y-107674080D01*
X147744879Y-107534070D01*
X147672404Y-107408540D01*
X147569910Y-107306046D01*
X147569908Y-107306045D01*
X147569906Y-107306043D01*
X147444383Y-107233572D01*
X147444384Y-107233572D01*
X147432901Y-107230495D01*
X147304370Y-107196055D01*
X147159420Y-107196055D01*
X147030888Y-107230495D01*
X147019406Y-107233572D01*
X146893883Y-107306043D01*
X146893877Y-107306048D01*
X146791388Y-107408537D01*
X146791383Y-107408543D01*
X146718912Y-107534066D01*
X146718911Y-107534070D01*
X146681395Y-107674080D01*
X136585992Y-107674080D01*
X136402234Y-107597966D01*
X136402224Y-107597963D01*
X136206620Y-107559055D01*
X136206618Y-107559055D01*
X136007172Y-107559055D01*
X136007170Y-107559055D01*
X135811565Y-107597963D01*
X135811555Y-107597966D01*
X135627302Y-107674285D01*
X135627289Y-107674292D01*
X135461464Y-107785094D01*
X135461460Y-107785097D01*
X135320437Y-107926120D01*
X135320434Y-107926124D01*
X135209632Y-108091949D01*
X135209625Y-108091962D01*
X135133306Y-108276215D01*
X135133303Y-108276225D01*
X135094395Y-108471829D01*
X135094395Y-108471832D01*
X135094395Y-108671278D01*
X135094395Y-108671280D01*
X135094394Y-108671280D01*
X132580500Y-108671280D01*
X132580500Y-103059041D01*
X133431500Y-103059041D01*
X133431500Y-103340958D01*
X133468295Y-103620439D01*
X133541259Y-103892743D01*
X133649135Y-104153179D01*
X133649140Y-104153190D01*
X133767990Y-104359043D01*
X133790088Y-104397317D01*
X133961700Y-104620965D01*
X133961704Y-104620970D01*
X134161029Y-104820295D01*
X134161033Y-104820298D01*
X134161035Y-104820300D01*
X134384683Y-104991912D01*
X134384690Y-104991916D01*
X134628809Y-105132859D01*
X134628814Y-105132861D01*
X134628817Y-105132863D01*
X134889261Y-105240742D01*
X135161558Y-105313704D01*
X135441049Y-105350500D01*
X135441056Y-105350500D01*
X135722944Y-105350500D01*
X135722951Y-105350500D01*
X136002442Y-105313704D01*
X136274739Y-105240742D01*
X136435676Y-105174080D01*
X140931395Y-105174080D01*
X140931395Y-105319030D01*
X140968911Y-105459040D01*
X140968912Y-105459043D01*
X141041383Y-105584566D01*
X141041385Y-105584568D01*
X141041386Y-105584570D01*
X141143880Y-105687064D01*
X141143881Y-105687065D01*
X141143883Y-105687066D01*
X141269406Y-105759537D01*
X141269407Y-105759537D01*
X141269410Y-105759539D01*
X141409420Y-105797055D01*
X141409423Y-105797055D01*
X141554367Y-105797055D01*
X141554370Y-105797055D01*
X141694380Y-105759539D01*
X141819910Y-105687064D01*
X141922404Y-105584570D01*
X141994879Y-105459040D01*
X142032395Y-105319030D01*
X142032395Y-105174080D01*
X141994879Y-105034070D01*
X141970541Y-104991916D01*
X141922406Y-104908543D01*
X141922401Y-104908537D01*
X141819912Y-104806048D01*
X141819906Y-104806043D01*
X141694383Y-104733572D01*
X141694384Y-104733572D01*
X141682901Y-104730495D01*
X141554370Y-104696055D01*
X141409420Y-104696055D01*
X141280888Y-104730495D01*
X141269406Y-104733572D01*
X141143883Y-104806043D01*
X141143877Y-104806048D01*
X141041388Y-104908537D01*
X141041383Y-104908543D01*
X140968912Y-105034066D01*
X140968911Y-105034070D01*
X140931395Y-105174080D01*
X136435676Y-105174080D01*
X136535183Y-105132863D01*
X136779317Y-104991912D01*
X137002965Y-104820300D01*
X137202300Y-104620965D01*
X137373912Y-104397317D01*
X137514863Y-104153183D01*
X137547628Y-104074082D01*
X137547629Y-104074080D01*
X146531395Y-104074080D01*
X146531395Y-104219030D01*
X146568911Y-104359040D01*
X146568912Y-104359043D01*
X146641383Y-104484566D01*
X146641385Y-104484568D01*
X146641386Y-104484570D01*
X146743880Y-104587064D01*
X146743881Y-104587065D01*
X146743883Y-104587066D01*
X146869406Y-104659537D01*
X146869407Y-104659537D01*
X146869410Y-104659539D01*
X147009420Y-104697055D01*
X147009423Y-104697055D01*
X147154367Y-104697055D01*
X147154370Y-104697055D01*
X147294380Y-104659539D01*
X147419910Y-104587064D01*
X147522404Y-104484570D01*
X147594879Y-104359040D01*
X147632395Y-104219030D01*
X147632395Y-104074080D01*
X147594879Y-103934070D01*
X147571016Y-103892739D01*
X147522406Y-103808543D01*
X147522401Y-103808537D01*
X147419912Y-103706048D01*
X147419906Y-103706043D01*
X147294383Y-103633572D01*
X147294384Y-103633572D01*
X147245382Y-103620442D01*
X147154370Y-103596055D01*
X147009420Y-103596055D01*
X146918408Y-103620442D01*
X146869406Y-103633572D01*
X146743883Y-103706043D01*
X146743877Y-103706048D01*
X146641388Y-103808537D01*
X146641383Y-103808543D01*
X146568912Y-103934066D01*
X146568911Y-103934070D01*
X146531395Y-104074080D01*
X137547629Y-104074080D01*
X137570651Y-104018500D01*
X137570651Y-104018498D01*
X137622739Y-103892746D01*
X137622740Y-103892743D01*
X137622742Y-103892739D01*
X137695704Y-103620442D01*
X137732500Y-103340951D01*
X137732500Y-103059049D01*
X137732499Y-103059041D01*
X151831500Y-103059041D01*
X151831500Y-103340958D01*
X151868295Y-103620439D01*
X151941259Y-103892743D01*
X152049135Y-104153179D01*
X152049140Y-104153190D01*
X152167990Y-104359043D01*
X152190088Y-104397317D01*
X152361700Y-104620965D01*
X152361704Y-104620970D01*
X152561029Y-104820295D01*
X152561033Y-104820298D01*
X152561035Y-104820300D01*
X152784683Y-104991912D01*
X152784690Y-104991916D01*
X153028809Y-105132859D01*
X153028814Y-105132861D01*
X153028817Y-105132863D01*
X153289261Y-105240742D01*
X153561558Y-105313704D01*
X153841049Y-105350500D01*
X153841056Y-105350500D01*
X154122944Y-105350500D01*
X154122951Y-105350500D01*
X154402442Y-105313704D01*
X154674739Y-105240742D01*
X154935183Y-105132863D01*
X155179317Y-104991912D01*
X155402965Y-104820300D01*
X155602300Y-104620965D01*
X155773912Y-104397317D01*
X155914863Y-104153183D01*
X156022742Y-103892739D01*
X156095704Y-103620442D01*
X156132500Y-103340951D01*
X156132500Y-103059049D01*
X156095704Y-102779558D01*
X156022742Y-102507261D01*
X155914863Y-102246817D01*
X155914860Y-102246812D01*
X155914859Y-102246809D01*
X155773916Y-102002690D01*
X155773915Y-102002689D01*
X155773912Y-102002683D01*
X155602300Y-101779035D01*
X155602298Y-101779033D01*
X155602295Y-101779029D01*
X155402970Y-101579704D01*
X155402965Y-101579700D01*
X155179317Y-101408088D01*
X155179311Y-101408084D01*
X155179309Y-101408083D01*
X154935190Y-101267140D01*
X154935179Y-101267135D01*
X154674743Y-101159259D01*
X154402439Y-101086295D01*
X154122958Y-101049500D01*
X154122951Y-101049500D01*
X153841049Y-101049500D01*
X153841041Y-101049500D01*
X153561560Y-101086295D01*
X153289256Y-101159259D01*
X153028820Y-101267135D01*
X153028809Y-101267140D01*
X152784690Y-101408083D01*
X152784682Y-101408089D01*
X152561029Y-101579704D01*
X152361704Y-101779029D01*
X152361696Y-101779039D01*
X152194318Y-101997167D01*
X152194307Y-101997184D01*
X152190088Y-102002683D01*
X152177476Y-102024526D01*
X152177456Y-102024560D01*
X152049140Y-102246809D01*
X152049135Y-102246820D01*
X151941259Y-102507256D01*
X151868295Y-102779560D01*
X151831500Y-103059041D01*
X137732499Y-103059041D01*
X137695704Y-102779558D01*
X137622742Y-102507261D01*
X137514863Y-102246817D01*
X137472868Y-102174080D01*
X142431395Y-102174080D01*
X142431395Y-102319030D01*
X142468911Y-102459040D01*
X142468912Y-102459043D01*
X142541383Y-102584566D01*
X142541385Y-102584568D01*
X142541386Y-102584570D01*
X142643880Y-102687064D01*
X142643881Y-102687065D01*
X142643883Y-102687066D01*
X142769406Y-102759537D01*
X142769407Y-102759537D01*
X142769410Y-102759539D01*
X142909420Y-102797055D01*
X142909423Y-102797055D01*
X143054367Y-102797055D01*
X143054370Y-102797055D01*
X143194380Y-102759539D01*
X143319910Y-102687064D01*
X143422404Y-102584570D01*
X143494879Y-102459040D01*
X143532395Y-102319030D01*
X143532395Y-102174080D01*
X143494879Y-102034070D01*
X143489388Y-102024560D01*
X143422406Y-101908543D01*
X143422401Y-101908537D01*
X143319912Y-101806048D01*
X143319906Y-101806043D01*
X143194383Y-101733572D01*
X143194384Y-101733572D01*
X143182901Y-101730495D01*
X143054370Y-101696055D01*
X142909420Y-101696055D01*
X142780888Y-101730495D01*
X142769406Y-101733572D01*
X142643883Y-101806043D01*
X142643877Y-101806048D01*
X142541388Y-101908537D01*
X142541383Y-101908543D01*
X142468912Y-102034066D01*
X142468911Y-102034070D01*
X142431395Y-102174080D01*
X137472868Y-102174080D01*
X137373912Y-102002683D01*
X137202300Y-101779035D01*
X137202298Y-101779033D01*
X137202295Y-101779029D01*
X137002970Y-101579704D01*
X137002965Y-101579700D01*
X136779317Y-101408088D01*
X136779311Y-101408084D01*
X136779309Y-101408083D01*
X136545928Y-101273340D01*
X136535190Y-101267140D01*
X136535179Y-101267135D01*
X136310524Y-101174080D01*
X140931395Y-101174080D01*
X140931395Y-101319030D01*
X140955259Y-101408089D01*
X140968912Y-101459043D01*
X141041383Y-101584566D01*
X141041385Y-101584568D01*
X141041386Y-101584570D01*
X141143880Y-101687064D01*
X141143881Y-101687065D01*
X141143883Y-101687066D01*
X141269406Y-101759537D01*
X141269407Y-101759537D01*
X141269410Y-101759539D01*
X141409420Y-101797055D01*
X141409423Y-101797055D01*
X141554367Y-101797055D01*
X141554370Y-101797055D01*
X141694380Y-101759539D01*
X141819910Y-101687064D01*
X141922404Y-101584570D01*
X141994879Y-101459040D01*
X142032395Y-101319030D01*
X142032395Y-101174080D01*
X141994879Y-101034070D01*
X141951561Y-100959042D01*
X141922406Y-100908543D01*
X141922401Y-100908537D01*
X141819912Y-100806048D01*
X141819906Y-100806043D01*
X141694383Y-100733572D01*
X141694384Y-100733572D01*
X141682901Y-100730495D01*
X141554370Y-100696055D01*
X141409420Y-100696055D01*
X141280888Y-100730495D01*
X141269406Y-100733572D01*
X141143883Y-100806043D01*
X141143877Y-100806048D01*
X141041388Y-100908537D01*
X141041383Y-100908543D01*
X140968912Y-101034066D01*
X140968911Y-101034070D01*
X140931395Y-101174080D01*
X136310524Y-101174080D01*
X136274743Y-101159259D01*
X136002439Y-101086295D01*
X135722958Y-101049500D01*
X135722951Y-101049500D01*
X135441049Y-101049500D01*
X135441041Y-101049500D01*
X135161560Y-101086295D01*
X134889256Y-101159259D01*
X134628820Y-101267135D01*
X134628809Y-101267140D01*
X134384690Y-101408083D01*
X134384682Y-101408089D01*
X134161029Y-101579704D01*
X133961704Y-101779029D01*
X133837814Y-101940485D01*
X133801676Y-101987582D01*
X133790089Y-102002682D01*
X133790083Y-102002690D01*
X133649140Y-102246809D01*
X133649135Y-102246820D01*
X133541259Y-102507256D01*
X133468295Y-102779560D01*
X133431500Y-103059041D01*
X132580500Y-103059041D01*
X132580500Y-100424080D01*
X147431395Y-100424080D01*
X147431395Y-100569030D01*
X147459544Y-100674082D01*
X147468912Y-100709043D01*
X147541383Y-100834566D01*
X147541385Y-100834568D01*
X147541386Y-100834570D01*
X147643880Y-100937064D01*
X147643881Y-100937065D01*
X147643883Y-100937066D01*
X147769406Y-101009537D01*
X147769407Y-101009537D01*
X147769410Y-101009539D01*
X147909420Y-101047055D01*
X147909423Y-101047055D01*
X148054367Y-101047055D01*
X148054370Y-101047055D01*
X148194380Y-101009539D01*
X148319910Y-100937064D01*
X148422404Y-100834570D01*
X148494879Y-100709040D01*
X148504247Y-100674080D01*
X148931395Y-100674080D01*
X148931395Y-100819030D01*
X148963023Y-100937066D01*
X148968912Y-100959043D01*
X149041383Y-101084566D01*
X149041385Y-101084568D01*
X149041386Y-101084570D01*
X149143880Y-101187064D01*
X149143881Y-101187065D01*
X149143883Y-101187066D01*
X149269406Y-101259537D01*
X149269407Y-101259537D01*
X149269410Y-101259539D01*
X149409420Y-101297055D01*
X149409423Y-101297055D01*
X149554367Y-101297055D01*
X149554370Y-101297055D01*
X149694380Y-101259539D01*
X149819910Y-101187064D01*
X149922404Y-101084570D01*
X149994879Y-100959040D01*
X150017784Y-100873559D01*
X150380874Y-100873559D01*
X150380874Y-101018509D01*
X150404470Y-101106569D01*
X150418391Y-101158522D01*
X150490862Y-101284045D01*
X150490864Y-101284047D01*
X150490865Y-101284049D01*
X150593359Y-101386543D01*
X150593360Y-101386544D01*
X150593362Y-101386545D01*
X150718885Y-101459016D01*
X150718886Y-101459016D01*
X150718889Y-101459018D01*
X150858899Y-101496534D01*
X150858902Y-101496534D01*
X150866959Y-101497595D01*
X150866756Y-101499129D01*
X150924955Y-101516219D01*
X150970710Y-101569023D01*
X150979973Y-101611607D01*
X150980855Y-101611491D01*
X150981915Y-101619547D01*
X150981916Y-101619550D01*
X150981916Y-101619551D01*
X151002415Y-101696055D01*
X151019433Y-101759564D01*
X151091904Y-101885087D01*
X151091906Y-101885089D01*
X151091907Y-101885091D01*
X151194401Y-101987585D01*
X151194402Y-101987586D01*
X151194404Y-101987587D01*
X151319927Y-102060058D01*
X151319928Y-102060058D01*
X151319931Y-102060060D01*
X151459941Y-102097576D01*
X151459944Y-102097576D01*
X151604888Y-102097576D01*
X151604891Y-102097576D01*
X151744901Y-102060060D01*
X151870431Y-101987585D01*
X151972925Y-101885091D01*
X152045400Y-101759561D01*
X152082916Y-101619551D01*
X152082916Y-101474601D01*
X152045400Y-101334591D01*
X152016219Y-101284049D01*
X151972927Y-101209064D01*
X151972922Y-101209058D01*
X151870433Y-101106569D01*
X151870427Y-101106564D01*
X151744904Y-101034093D01*
X151744905Y-101034093D01*
X151653269Y-101009539D01*
X151604891Y-100996576D01*
X151604887Y-100996575D01*
X151596831Y-100995515D01*
X151597033Y-100993980D01*
X151538835Y-100976891D01*
X151493080Y-100924087D01*
X151483816Y-100881502D01*
X151482935Y-100881619D01*
X151481874Y-100873562D01*
X151481874Y-100873561D01*
X151481874Y-100873559D01*
X151444358Y-100733549D01*
X151430209Y-100709043D01*
X151371885Y-100608022D01*
X151371880Y-100608016D01*
X151269391Y-100505527D01*
X151269385Y-100505522D01*
X151143862Y-100433051D01*
X151143863Y-100433051D01*
X151110390Y-100424082D01*
X151003849Y-100395534D01*
X150858899Y-100395534D01*
X150752358Y-100424082D01*
X150718885Y-100433051D01*
X150593362Y-100505522D01*
X150593356Y-100505527D01*
X150490867Y-100608016D01*
X150490862Y-100608022D01*
X150418391Y-100733545D01*
X150418390Y-100733549D01*
X150380874Y-100873559D01*
X150017784Y-100873559D01*
X150032395Y-100819030D01*
X150032395Y-100674080D01*
X149994879Y-100534070D01*
X149978398Y-100505525D01*
X149922406Y-100408543D01*
X149922401Y-100408537D01*
X149819912Y-100306048D01*
X149819906Y-100306043D01*
X149694383Y-100233572D01*
X149694384Y-100233572D01*
X149682901Y-100230495D01*
X149554370Y-100196055D01*
X149409420Y-100196055D01*
X149280888Y-100230495D01*
X149269406Y-100233572D01*
X149143883Y-100306043D01*
X149143877Y-100306048D01*
X149041388Y-100408537D01*
X149041383Y-100408543D01*
X148968912Y-100534066D01*
X148968911Y-100534070D01*
X148931395Y-100674080D01*
X148504247Y-100674080D01*
X148532395Y-100569030D01*
X148532395Y-100424080D01*
X148494879Y-100284070D01*
X148465723Y-100233571D01*
X148422406Y-100158543D01*
X148422401Y-100158537D01*
X148319912Y-100056048D01*
X148319906Y-100056043D01*
X148194383Y-99983572D01*
X148194384Y-99983572D01*
X148182901Y-99980495D01*
X148054370Y-99946055D01*
X147909420Y-99946055D01*
X147780888Y-99980495D01*
X147769406Y-99983572D01*
X147643883Y-100056043D01*
X147643877Y-100056048D01*
X147541388Y-100158537D01*
X147541383Y-100158543D01*
X147468912Y-100284066D01*
X147468911Y-100284070D01*
X147431395Y-100424080D01*
X132580500Y-100424080D01*
X132580500Y-98974080D01*
X151131395Y-98974080D01*
X151131395Y-99119030D01*
X151168911Y-99259040D01*
X151168912Y-99259043D01*
X151241383Y-99384566D01*
X151241385Y-99384568D01*
X151241386Y-99384570D01*
X151343880Y-99487064D01*
X151343881Y-99487065D01*
X151343883Y-99487066D01*
X151469406Y-99559537D01*
X151469407Y-99559537D01*
X151469410Y-99559539D01*
X151609420Y-99597055D01*
X151609423Y-99597055D01*
X151754367Y-99597055D01*
X151754370Y-99597055D01*
X151894380Y-99559539D01*
X152019910Y-99487064D01*
X152122404Y-99384570D01*
X152194879Y-99259040D01*
X152232395Y-99119030D01*
X152232395Y-98974080D01*
X152194879Y-98834070D01*
X152122404Y-98708540D01*
X152019910Y-98606046D01*
X152019908Y-98606045D01*
X152019906Y-98606043D01*
X151894383Y-98533572D01*
X151894384Y-98533572D01*
X151882901Y-98530495D01*
X151754370Y-98496055D01*
X151609420Y-98496055D01*
X151480888Y-98530495D01*
X151469406Y-98533572D01*
X151343883Y-98606043D01*
X151343877Y-98606048D01*
X151241388Y-98708537D01*
X151241383Y-98708543D01*
X151168912Y-98834066D01*
X151168911Y-98834070D01*
X151131395Y-98974080D01*
X132580500Y-98974080D01*
X132580500Y-97274080D01*
X144231395Y-97274080D01*
X144231395Y-97419030D01*
X144268911Y-97559040D01*
X144268912Y-97559043D01*
X144341383Y-97684566D01*
X144341385Y-97684568D01*
X144341386Y-97684570D01*
X144443880Y-97787064D01*
X144443881Y-97787065D01*
X144443883Y-97787066D01*
X144569406Y-97859537D01*
X144569407Y-97859537D01*
X144569410Y-97859539D01*
X144709420Y-97897055D01*
X144709423Y-97897055D01*
X144854367Y-97897055D01*
X144854370Y-97897055D01*
X144994380Y-97859539D01*
X145119910Y-97787064D01*
X145222404Y-97684570D01*
X145294879Y-97559040D01*
X145332395Y-97419030D01*
X145332395Y-97274080D01*
X145294879Y-97134070D01*
X145278781Y-97106188D01*
X145222406Y-97008543D01*
X145222401Y-97008537D01*
X145119912Y-96906048D01*
X145119906Y-96906043D01*
X144994383Y-96833572D01*
X144994384Y-96833572D01*
X144982901Y-96830495D01*
X144854370Y-96796055D01*
X144709420Y-96796055D01*
X144580888Y-96830495D01*
X144569406Y-96833572D01*
X144443883Y-96906043D01*
X144443877Y-96906048D01*
X144341388Y-97008537D01*
X144341383Y-97008543D01*
X144268912Y-97134066D01*
X144268911Y-97134070D01*
X144231395Y-97274080D01*
X132580500Y-97274080D01*
X132580500Y-96447525D01*
X152967100Y-96447525D01*
X152967100Y-96592475D01*
X153004616Y-96732485D01*
X153004617Y-96732488D01*
X153077088Y-96858011D01*
X153077090Y-96858013D01*
X153077091Y-96858015D01*
X153179585Y-96960509D01*
X153179586Y-96960510D01*
X153179588Y-96960511D01*
X153305111Y-97032982D01*
X153305112Y-97032982D01*
X153305115Y-97032984D01*
X153308986Y-97034021D01*
X153313481Y-97035226D01*
X153373141Y-97071591D01*
X153403669Y-97134439D01*
X153395374Y-97203814D01*
X153350888Y-97257691D01*
X153313481Y-97274774D01*
X153305116Y-97277015D01*
X153305111Y-97277017D01*
X153179588Y-97349488D01*
X153179582Y-97349493D01*
X153077093Y-97451982D01*
X153077088Y-97451988D01*
X153004617Y-97577511D01*
X153004616Y-97577515D01*
X152967100Y-97717525D01*
X152967100Y-97862475D01*
X152976366Y-97897055D01*
X153004617Y-98002488D01*
X153077088Y-98128011D01*
X153077090Y-98128013D01*
X153077091Y-98128015D01*
X153179585Y-98230509D01*
X153179586Y-98230510D01*
X153179588Y-98230511D01*
X153305111Y-98302982D01*
X153305112Y-98302982D01*
X153305115Y-98302984D01*
X153445125Y-98340500D01*
X153445128Y-98340500D01*
X153590072Y-98340500D01*
X153590075Y-98340500D01*
X153730085Y-98302984D01*
X153855615Y-98230509D01*
X153958109Y-98128015D01*
X154030584Y-98002485D01*
X154068100Y-97862475D01*
X154068100Y-97717525D01*
X154030584Y-97577515D01*
X154019917Y-97559040D01*
X153958111Y-97451988D01*
X153958106Y-97451982D01*
X153855617Y-97349493D01*
X153855611Y-97349488D01*
X153730087Y-97277017D01*
X153730086Y-97277016D01*
X153730085Y-97277016D01*
X153721718Y-97274774D01*
X153662059Y-97238410D01*
X153631530Y-97175563D01*
X153639825Y-97106188D01*
X153684310Y-97052310D01*
X153721717Y-97035226D01*
X153730085Y-97032984D01*
X153855615Y-96960509D01*
X153958109Y-96858015D01*
X154030584Y-96732485D01*
X154068100Y-96592475D01*
X154068100Y-96447525D01*
X154030584Y-96307515D01*
X153958109Y-96181985D01*
X153855615Y-96079491D01*
X153855613Y-96079490D01*
X153855611Y-96079488D01*
X153730088Y-96007017D01*
X153730089Y-96007017D01*
X153718606Y-96003940D01*
X153590075Y-95969500D01*
X153445125Y-95969500D01*
X153316593Y-96003940D01*
X153305111Y-96007017D01*
X153179588Y-96079488D01*
X153179582Y-96079493D01*
X153077093Y-96181982D01*
X153077088Y-96181988D01*
X153004617Y-96307511D01*
X153004616Y-96307515D01*
X152967100Y-96447525D01*
X132580500Y-96447525D01*
X132580500Y-93795476D01*
X132600185Y-93728437D01*
X132652989Y-93682682D01*
X132722147Y-93672738D01*
X132785703Y-93701763D01*
X132811886Y-93733475D01*
X132841386Y-93784570D01*
X132943880Y-93887064D01*
X132943881Y-93887065D01*
X132943883Y-93887066D01*
X133069406Y-93959537D01*
X133069407Y-93959537D01*
X133069410Y-93959539D01*
X133209420Y-93997055D01*
X133209423Y-93997055D01*
X133354367Y-93997055D01*
X133354370Y-93997055D01*
X133494380Y-93959539D01*
X133619910Y-93887064D01*
X133722404Y-93784570D01*
X133794879Y-93659040D01*
X133832395Y-93519030D01*
X133832395Y-93374080D01*
X133794879Y-93234070D01*
X133779740Y-93207849D01*
X133722406Y-93108543D01*
X133722401Y-93108537D01*
X133619912Y-93006048D01*
X133619906Y-93006043D01*
X133494383Y-92933572D01*
X133494384Y-92933572D01*
X133482901Y-92930495D01*
X133354370Y-92896055D01*
X133209420Y-92896055D01*
X133080888Y-92930495D01*
X133069406Y-92933572D01*
X132943883Y-93006043D01*
X132943877Y-93006048D01*
X132841388Y-93108537D01*
X132841386Y-93108540D01*
X132811887Y-93159634D01*
X132761319Y-93207849D01*
X132692712Y-93221071D01*
X132627848Y-93195103D01*
X132587320Y-93138189D01*
X132580500Y-93097633D01*
X132580500Y-92374080D01*
X146231395Y-92374080D01*
X146231395Y-92519030D01*
X146252302Y-92597055D01*
X146268912Y-92659043D01*
X146341383Y-92784566D01*
X146341385Y-92784568D01*
X146341386Y-92784570D01*
X146443880Y-92887064D01*
X146443881Y-92887065D01*
X146443883Y-92887066D01*
X146569406Y-92959537D01*
X146569407Y-92959537D01*
X146569410Y-92959539D01*
X146709420Y-92997055D01*
X146709423Y-92997055D01*
X146854367Y-92997055D01*
X146854370Y-92997055D01*
X146994380Y-92959539D01*
X147119910Y-92887064D01*
X147222404Y-92784570D01*
X147294879Y-92659040D01*
X147332395Y-92519030D01*
X147332395Y-92374080D01*
X147294879Y-92234070D01*
X147285466Y-92217767D01*
X147222406Y-92108543D01*
X147222401Y-92108537D01*
X147119912Y-92006048D01*
X147119906Y-92006043D01*
X147064545Y-91974080D01*
X151631395Y-91974080D01*
X151631395Y-92119030D01*
X151668911Y-92259040D01*
X151668912Y-92259043D01*
X151741383Y-92384566D01*
X151741385Y-92384568D01*
X151741386Y-92384570D01*
X151843880Y-92487064D01*
X151843881Y-92487065D01*
X151843883Y-92487066D01*
X151969406Y-92559537D01*
X151969407Y-92559537D01*
X151969410Y-92559539D01*
X152109420Y-92597055D01*
X152109423Y-92597055D01*
X152254367Y-92597055D01*
X152254370Y-92597055D01*
X152394380Y-92559539D01*
X152519910Y-92487064D01*
X152622404Y-92384570D01*
X152694879Y-92259040D01*
X152732395Y-92119030D01*
X152732395Y-92074080D01*
X155631395Y-92074080D01*
X155631395Y-92219030D01*
X155642116Y-92259040D01*
X155668912Y-92359043D01*
X155741383Y-92484566D01*
X155741385Y-92484568D01*
X155741386Y-92484570D01*
X155843880Y-92587064D01*
X155843881Y-92587065D01*
X155843883Y-92587066D01*
X155969406Y-92659537D01*
X155969407Y-92659537D01*
X155969410Y-92659539D01*
X156109420Y-92697055D01*
X156109423Y-92697055D01*
X156254367Y-92697055D01*
X156254370Y-92697055D01*
X156394380Y-92659539D01*
X156519910Y-92587064D01*
X156622404Y-92484570D01*
X156694879Y-92359040D01*
X156732395Y-92219030D01*
X156732395Y-92219027D01*
X156732561Y-92217767D01*
X156732996Y-92216782D01*
X156734498Y-92211179D01*
X156735371Y-92211413D01*
X156760829Y-92153871D01*
X156770740Y-92147333D01*
X156736523Y-92094090D01*
X156732561Y-92075344D01*
X156732395Y-92074088D01*
X156732395Y-92074080D01*
X156694879Y-91934070D01*
X156694591Y-91933572D01*
X156622406Y-91808543D01*
X156622401Y-91808537D01*
X156519912Y-91706048D01*
X156519906Y-91706043D01*
X156394383Y-91633572D01*
X156394384Y-91633572D01*
X156382901Y-91630495D01*
X156254370Y-91596055D01*
X156109420Y-91596055D01*
X155980888Y-91630495D01*
X155969406Y-91633572D01*
X155843883Y-91706043D01*
X155843877Y-91706048D01*
X155741388Y-91808537D01*
X155741383Y-91808543D01*
X155668912Y-91934066D01*
X155668911Y-91934070D01*
X155631395Y-92074080D01*
X152732395Y-92074080D01*
X152732395Y-91974080D01*
X152694879Y-91834070D01*
X152680139Y-91808540D01*
X152622406Y-91708543D01*
X152622401Y-91708537D01*
X152519912Y-91606048D01*
X152519906Y-91606043D01*
X152394383Y-91533572D01*
X152394384Y-91533572D01*
X152382901Y-91530495D01*
X152254370Y-91496055D01*
X152109420Y-91496055D01*
X151980888Y-91530495D01*
X151969406Y-91533572D01*
X151843883Y-91606043D01*
X151843877Y-91606048D01*
X151741388Y-91708537D01*
X151741383Y-91708543D01*
X151668912Y-91834066D01*
X151668911Y-91834070D01*
X151631395Y-91974080D01*
X147064545Y-91974080D01*
X146994383Y-91933572D01*
X146994384Y-91933572D01*
X146982901Y-91930495D01*
X146854370Y-91896055D01*
X146709420Y-91896055D01*
X146580888Y-91930495D01*
X146569406Y-91933572D01*
X146443883Y-92006043D01*
X146443877Y-92006048D01*
X146341388Y-92108537D01*
X146341383Y-92108543D01*
X146268912Y-92234066D01*
X146268911Y-92234070D01*
X146231395Y-92374080D01*
X132580500Y-92374080D01*
X132580500Y-90974080D01*
X132831395Y-90974080D01*
X132831395Y-91119030D01*
X132842116Y-91159040D01*
X132868912Y-91259043D01*
X132941383Y-91384566D01*
X132941385Y-91384568D01*
X132941386Y-91384570D01*
X133043880Y-91487064D01*
X133043881Y-91487065D01*
X133043883Y-91487066D01*
X133169406Y-91559537D01*
X133169407Y-91559537D01*
X133169410Y-91559539D01*
X133309420Y-91597055D01*
X133309423Y-91597055D01*
X133454367Y-91597055D01*
X133454370Y-91597055D01*
X133594380Y-91559539D01*
X133719910Y-91487064D01*
X133822404Y-91384570D01*
X133858360Y-91322293D01*
X133908927Y-91274077D01*
X133977534Y-91260855D01*
X134042399Y-91286823D01*
X134053428Y-91296612D01*
X134143880Y-91387064D01*
X134143881Y-91387065D01*
X134143883Y-91387066D01*
X134269406Y-91459537D01*
X134269407Y-91459537D01*
X134269410Y-91459539D01*
X134409420Y-91497055D01*
X134409423Y-91497055D01*
X134554367Y-91497055D01*
X134554370Y-91497055D01*
X134694380Y-91459539D01*
X134819910Y-91387064D01*
X134922404Y-91284570D01*
X134994879Y-91159040D01*
X135032395Y-91019030D01*
X135032395Y-90874080D01*
X134994879Y-90734070D01*
X134986197Y-90719033D01*
X134922406Y-90608543D01*
X134922401Y-90608537D01*
X134819912Y-90506048D01*
X134819906Y-90506043D01*
X134764545Y-90474080D01*
X136831395Y-90474080D01*
X136831395Y-90619030D01*
X136863278Y-90738017D01*
X136868912Y-90759043D01*
X136941383Y-90884566D01*
X136941385Y-90884568D01*
X136941386Y-90884570D01*
X137043880Y-90987064D01*
X137043881Y-90987065D01*
X137043883Y-90987066D01*
X137169406Y-91059537D01*
X137169407Y-91059537D01*
X137169410Y-91059539D01*
X137309420Y-91097055D01*
X137309423Y-91097055D01*
X137454367Y-91097055D01*
X137454370Y-91097055D01*
X137594380Y-91059539D01*
X137719910Y-90987064D01*
X137822404Y-90884570D01*
X137894879Y-90759040D01*
X137932395Y-90619030D01*
X137932395Y-90474080D01*
X137894879Y-90334070D01*
X137891100Y-90327525D01*
X137822406Y-90208543D01*
X137822401Y-90208537D01*
X137719912Y-90106048D01*
X137719906Y-90106043D01*
X137594383Y-90033572D01*
X137594384Y-90033572D01*
X137582901Y-90030495D01*
X137454370Y-89996055D01*
X137309420Y-89996055D01*
X137180888Y-90030495D01*
X137169406Y-90033572D01*
X137043883Y-90106043D01*
X137043877Y-90106048D01*
X136941388Y-90208537D01*
X136941383Y-90208543D01*
X136868912Y-90334066D01*
X136868911Y-90334070D01*
X136831395Y-90474080D01*
X134764545Y-90474080D01*
X134694383Y-90433572D01*
X134694384Y-90433572D01*
X134682901Y-90430495D01*
X134554370Y-90396055D01*
X134409420Y-90396055D01*
X134280888Y-90430495D01*
X134269406Y-90433572D01*
X134143883Y-90506043D01*
X134143877Y-90506048D01*
X134041388Y-90608537D01*
X134041383Y-90608543D01*
X134005428Y-90670818D01*
X133954860Y-90719033D01*
X133886252Y-90732254D01*
X133821388Y-90706285D01*
X133810361Y-90696497D01*
X133719912Y-90606048D01*
X133719906Y-90606043D01*
X133594383Y-90533572D01*
X133594384Y-90533572D01*
X133582901Y-90530495D01*
X133454370Y-90496055D01*
X133309420Y-90496055D01*
X133180888Y-90530495D01*
X133169406Y-90533572D01*
X133043883Y-90606043D01*
X133043877Y-90606048D01*
X132941388Y-90708537D01*
X132941383Y-90708543D01*
X132868912Y-90834066D01*
X132868911Y-90834070D01*
X132831395Y-90974080D01*
X132580500Y-90974080D01*
X132580500Y-87674080D01*
X132831395Y-87674080D01*
X132831395Y-87819030D01*
X132854712Y-87906048D01*
X132868912Y-87959043D01*
X132941383Y-88084566D01*
X132941385Y-88084568D01*
X132941386Y-88084570D01*
X133043880Y-88187064D01*
X133043881Y-88187065D01*
X133043883Y-88187066D01*
X133169406Y-88259537D01*
X133169407Y-88259537D01*
X133169410Y-88259539D01*
X133309420Y-88297055D01*
X133309423Y-88297055D01*
X133454367Y-88297055D01*
X133454370Y-88297055D01*
X133594380Y-88259539D01*
X133649830Y-88227525D01*
X144317100Y-88227525D01*
X144317100Y-88372475D01*
X144354616Y-88512485D01*
X144354617Y-88512488D01*
X144427088Y-88638011D01*
X144427090Y-88638013D01*
X144427091Y-88638015D01*
X144529585Y-88740509D01*
X144529586Y-88740510D01*
X144529588Y-88740511D01*
X144655111Y-88812982D01*
X144655112Y-88812982D01*
X144655115Y-88812984D01*
X144795125Y-88850500D01*
X144795128Y-88850500D01*
X144893100Y-88850500D01*
X144901785Y-88853050D01*
X144910747Y-88851762D01*
X144934787Y-88862740D01*
X144960139Y-88870185D01*
X144966066Y-88877025D01*
X144974303Y-88880787D01*
X144988592Y-88903021D01*
X145005894Y-88922989D01*
X145008181Y-88933503D01*
X145012077Y-88939565D01*
X145017100Y-88974500D01*
X145017100Y-89025500D01*
X144997415Y-89092539D01*
X144944611Y-89138294D01*
X144893100Y-89149500D01*
X144795125Y-89149500D01*
X144689909Y-89177693D01*
X144655111Y-89187017D01*
X144529588Y-89259488D01*
X144529582Y-89259493D01*
X144427093Y-89361982D01*
X144427088Y-89361988D01*
X144354617Y-89487511D01*
X144354616Y-89487515D01*
X144317100Y-89627525D01*
X144317100Y-89772475D01*
X144354616Y-89912485D01*
X144354617Y-89912488D01*
X144427088Y-90038011D01*
X144427090Y-90038013D01*
X144427091Y-90038015D01*
X144529585Y-90140509D01*
X144529586Y-90140510D01*
X144529588Y-90140511D01*
X144655111Y-90212982D01*
X144655112Y-90212982D01*
X144655115Y-90212984D01*
X144795125Y-90250500D01*
X144795128Y-90250500D01*
X144893100Y-90250500D01*
X144960139Y-90270185D01*
X145005894Y-90322989D01*
X145017100Y-90374500D01*
X145017100Y-90472475D01*
X145052890Y-90606043D01*
X145054617Y-90612488D01*
X145127088Y-90738011D01*
X145127090Y-90738013D01*
X145127091Y-90738015D01*
X145229585Y-90840509D01*
X145229586Y-90840510D01*
X145229588Y-90840511D01*
X145355111Y-90912982D01*
X145355112Y-90912982D01*
X145355115Y-90912984D01*
X145495125Y-90950500D01*
X145495128Y-90950500D01*
X145640072Y-90950500D01*
X145640075Y-90950500D01*
X145780085Y-90912984D01*
X145905615Y-90840509D01*
X146008109Y-90738015D01*
X146080584Y-90612485D01*
X146118100Y-90472475D01*
X146118100Y-90374500D01*
X146120650Y-90365814D01*
X146119362Y-90356853D01*
X146130340Y-90332812D01*
X146137785Y-90307461D01*
X146144625Y-90301533D01*
X146148387Y-90293297D01*
X146170621Y-90279007D01*
X146190589Y-90261706D01*
X146201103Y-90259418D01*
X146207165Y-90255523D01*
X146242100Y-90250500D01*
X146293100Y-90250500D01*
X146360139Y-90270185D01*
X146405894Y-90322989D01*
X146417100Y-90374500D01*
X146417100Y-90472475D01*
X146452890Y-90606043D01*
X146454617Y-90612488D01*
X146527088Y-90738011D01*
X146527090Y-90738013D01*
X146527091Y-90738015D01*
X146629585Y-90840509D01*
X146629586Y-90840510D01*
X146629588Y-90840511D01*
X146755111Y-90912982D01*
X146755112Y-90912982D01*
X146755115Y-90912984D01*
X146895125Y-90950500D01*
X146895128Y-90950500D01*
X147040072Y-90950500D01*
X147040075Y-90950500D01*
X147180085Y-90912984D01*
X147305615Y-90840509D01*
X147408109Y-90738015D01*
X147480584Y-90612485D01*
X147518100Y-90472475D01*
X147518100Y-90374500D01*
X147537785Y-90307461D01*
X147590589Y-90261706D01*
X147642100Y-90250500D01*
X147740072Y-90250500D01*
X147740075Y-90250500D01*
X147880085Y-90212984D01*
X148005615Y-90140509D01*
X148108109Y-90038015D01*
X148146518Y-89971489D01*
X151699862Y-89971489D01*
X151699862Y-90116439D01*
X151735784Y-90250500D01*
X151737379Y-90256452D01*
X151809850Y-90381975D01*
X151809852Y-90381977D01*
X151809853Y-90381979D01*
X151912347Y-90484473D01*
X151912348Y-90484474D01*
X151912350Y-90484475D01*
X152037873Y-90556946D01*
X152037874Y-90556946D01*
X152037877Y-90556948D01*
X152177887Y-90594464D01*
X152177890Y-90594464D01*
X152322834Y-90594464D01*
X152322837Y-90594464D01*
X152462847Y-90556948D01*
X152588377Y-90484473D01*
X152690871Y-90381979D01*
X152763346Y-90256449D01*
X152800862Y-90116439D01*
X152800862Y-89971489D01*
X152763346Y-89831479D01*
X152690871Y-89705949D01*
X152659002Y-89674080D01*
X155631395Y-89674080D01*
X155631395Y-89819030D01*
X155668911Y-89959040D01*
X155668912Y-89959043D01*
X155741383Y-90084566D01*
X155741385Y-90084568D01*
X155741386Y-90084570D01*
X155843880Y-90187064D01*
X155843881Y-90187065D01*
X155843883Y-90187066D01*
X155969406Y-90259537D01*
X155969407Y-90259537D01*
X155969410Y-90259539D01*
X156109420Y-90297055D01*
X156109423Y-90297055D01*
X156254367Y-90297055D01*
X156254370Y-90297055D01*
X156394380Y-90259539D01*
X156519910Y-90187064D01*
X156622404Y-90084570D01*
X156694879Y-89959040D01*
X156732395Y-89819030D01*
X156732395Y-89674080D01*
X156694879Y-89534070D01*
X156668000Y-89487515D01*
X156622406Y-89408543D01*
X156622401Y-89408537D01*
X156519912Y-89306048D01*
X156519906Y-89306043D01*
X156394383Y-89233572D01*
X156394384Y-89233572D01*
X156382901Y-89230495D01*
X156254370Y-89196055D01*
X156109420Y-89196055D01*
X155980888Y-89230495D01*
X155969406Y-89233572D01*
X155843883Y-89306043D01*
X155843877Y-89306048D01*
X155741388Y-89408537D01*
X155741383Y-89408543D01*
X155668912Y-89534066D01*
X155668911Y-89534070D01*
X155631395Y-89674080D01*
X152659002Y-89674080D01*
X152588377Y-89603455D01*
X152588375Y-89603454D01*
X152588373Y-89603452D01*
X152462850Y-89530981D01*
X152462851Y-89530981D01*
X152451368Y-89527904D01*
X152322837Y-89493464D01*
X152177887Y-89493464D01*
X152049355Y-89527904D01*
X152037873Y-89530981D01*
X151912350Y-89603452D01*
X151912344Y-89603457D01*
X151809855Y-89705946D01*
X151809850Y-89705952D01*
X151737379Y-89831475D01*
X151737378Y-89831479D01*
X151699862Y-89971489D01*
X148146518Y-89971489D01*
X148180584Y-89912485D01*
X148218100Y-89772475D01*
X148218100Y-89627525D01*
X148180584Y-89487515D01*
X148134989Y-89408543D01*
X148108111Y-89361988D01*
X148108106Y-89361982D01*
X148005617Y-89259493D01*
X148005611Y-89259488D01*
X147880088Y-89187017D01*
X147880089Y-89187017D01*
X147845291Y-89177693D01*
X147740075Y-89149500D01*
X147642100Y-89149500D01*
X147633414Y-89146949D01*
X147624453Y-89148238D01*
X147600412Y-89137259D01*
X147575061Y-89129815D01*
X147569133Y-89122974D01*
X147560897Y-89119213D01*
X147546607Y-89096978D01*
X147529306Y-89077011D01*
X147527018Y-89066496D01*
X147523123Y-89060435D01*
X147518100Y-89025500D01*
X147518100Y-88974500D01*
X147537785Y-88907461D01*
X147590589Y-88861706D01*
X147642100Y-88850500D01*
X147740072Y-88850500D01*
X147740075Y-88850500D01*
X147880085Y-88812984D01*
X148005615Y-88740509D01*
X148108109Y-88638015D01*
X148180584Y-88512485D01*
X148188279Y-88483767D01*
X151700301Y-88483767D01*
X151700301Y-88628717D01*
X151737817Y-88768727D01*
X151737818Y-88768730D01*
X151810289Y-88894253D01*
X151810291Y-88894255D01*
X151810292Y-88894257D01*
X151912786Y-88996751D01*
X151912787Y-88996752D01*
X151912789Y-88996753D01*
X152038312Y-89069224D01*
X152038313Y-89069224D01*
X152038316Y-89069226D01*
X152178326Y-89106742D01*
X152178329Y-89106742D01*
X152323273Y-89106742D01*
X152323276Y-89106742D01*
X152463286Y-89069226D01*
X152588816Y-88996751D01*
X152691310Y-88894257D01*
X152763785Y-88768727D01*
X152801301Y-88628717D01*
X152801301Y-88483767D01*
X152763785Y-88343757D01*
X152723557Y-88274081D01*
X152723556Y-88274080D01*
X155631395Y-88274080D01*
X155631395Y-88419030D01*
X155668911Y-88559040D01*
X155668912Y-88559043D01*
X155741383Y-88684566D01*
X155741385Y-88684568D01*
X155741386Y-88684570D01*
X155843880Y-88787064D01*
X155843881Y-88787065D01*
X155843883Y-88787066D01*
X155969406Y-88859537D01*
X155969407Y-88859537D01*
X155969410Y-88859539D01*
X156109420Y-88897055D01*
X156109423Y-88897055D01*
X156254367Y-88897055D01*
X156254370Y-88897055D01*
X156394380Y-88859539D01*
X156519910Y-88787064D01*
X156622404Y-88684570D01*
X156694879Y-88559040D01*
X156732395Y-88419030D01*
X156732395Y-88419027D01*
X156732561Y-88417767D01*
X156732996Y-88416782D01*
X156734498Y-88411179D01*
X156735371Y-88411413D01*
X156760829Y-88353871D01*
X156770740Y-88347333D01*
X156736523Y-88294090D01*
X156732561Y-88275344D01*
X156732395Y-88274088D01*
X156732395Y-88274080D01*
X156694879Y-88134070D01*
X156693520Y-88131717D01*
X156622406Y-88008543D01*
X156622401Y-88008537D01*
X156519912Y-87906048D01*
X156519906Y-87906043D01*
X156394383Y-87833572D01*
X156394384Y-87833572D01*
X156382901Y-87830495D01*
X156254370Y-87796055D01*
X156109420Y-87796055D01*
X155980888Y-87830495D01*
X155969406Y-87833572D01*
X155843883Y-87906043D01*
X155843877Y-87906048D01*
X155741388Y-88008537D01*
X155741383Y-88008543D01*
X155668912Y-88134066D01*
X155668911Y-88134070D01*
X155631395Y-88274080D01*
X152723556Y-88274080D01*
X152691312Y-88218230D01*
X152691307Y-88218224D01*
X152588818Y-88115735D01*
X152588812Y-88115730D01*
X152463289Y-88043259D01*
X152463290Y-88043259D01*
X152451807Y-88040182D01*
X152323276Y-88005742D01*
X152178326Y-88005742D01*
X152049794Y-88040182D01*
X152038312Y-88043259D01*
X151912789Y-88115730D01*
X151912783Y-88115735D01*
X151810294Y-88218224D01*
X151810289Y-88218230D01*
X151737818Y-88343753D01*
X151737817Y-88343757D01*
X151700301Y-88483767D01*
X148188279Y-88483767D01*
X148218100Y-88372475D01*
X148218100Y-88227525D01*
X148180584Y-88087515D01*
X148178881Y-88084566D01*
X148108111Y-87961988D01*
X148108106Y-87961982D01*
X148005617Y-87859493D01*
X148005611Y-87859488D01*
X147880088Y-87787017D01*
X147880089Y-87787017D01*
X147845291Y-87777693D01*
X147740075Y-87749500D01*
X147642100Y-87749500D01*
X147575061Y-87729815D01*
X147529306Y-87677011D01*
X147518100Y-87625500D01*
X147518100Y-87527527D01*
X147518100Y-87527525D01*
X147480584Y-87387515D01*
X147422588Y-87287064D01*
X147408111Y-87261988D01*
X147408106Y-87261982D01*
X147305617Y-87159493D01*
X147305615Y-87159491D01*
X147181294Y-87087714D01*
X147181292Y-87087712D01*
X147180088Y-87087017D01*
X147180089Y-87087017D01*
X147168606Y-87083940D01*
X147040075Y-87049500D01*
X146895125Y-87049500D01*
X146766593Y-87083940D01*
X146755111Y-87087017D01*
X146629588Y-87159488D01*
X146629582Y-87159493D01*
X146527093Y-87261982D01*
X146527088Y-87261988D01*
X146454617Y-87387511D01*
X146454616Y-87387515D01*
X146417100Y-87527525D01*
X146417100Y-87527527D01*
X146417100Y-87625500D01*
X146414549Y-87634185D01*
X146415838Y-87643147D01*
X146404859Y-87667187D01*
X146397415Y-87692539D01*
X146390574Y-87698466D01*
X146386813Y-87706703D01*
X146364578Y-87720992D01*
X146344611Y-87738294D01*
X146334096Y-87740581D01*
X146328035Y-87744477D01*
X146293100Y-87749500D01*
X146242100Y-87749500D01*
X146175061Y-87729815D01*
X146129306Y-87677011D01*
X146118100Y-87625500D01*
X146118100Y-87527527D01*
X146118100Y-87527525D01*
X146080584Y-87387515D01*
X146022588Y-87287064D01*
X146008111Y-87261988D01*
X146008106Y-87261982D01*
X145905617Y-87159493D01*
X145905611Y-87159488D01*
X145780088Y-87087017D01*
X145780089Y-87087017D01*
X145768606Y-87083940D01*
X145640075Y-87049500D01*
X145495125Y-87049500D01*
X145366593Y-87083940D01*
X145355111Y-87087017D01*
X145229588Y-87159488D01*
X145229582Y-87159493D01*
X145127093Y-87261982D01*
X145127088Y-87261988D01*
X145054617Y-87387511D01*
X145054616Y-87387515D01*
X145017100Y-87527525D01*
X145017100Y-87527527D01*
X145017100Y-87625500D01*
X144997415Y-87692539D01*
X144944611Y-87738294D01*
X144893100Y-87749500D01*
X144795125Y-87749500D01*
X144689909Y-87777693D01*
X144655111Y-87787017D01*
X144529588Y-87859488D01*
X144529582Y-87859493D01*
X144427093Y-87961982D01*
X144427088Y-87961988D01*
X144354617Y-88087511D01*
X144354616Y-88087515D01*
X144317100Y-88227525D01*
X133649830Y-88227525D01*
X133719910Y-88187064D01*
X133822404Y-88084570D01*
X133894879Y-87959040D01*
X133932395Y-87819030D01*
X133932395Y-87674080D01*
X133894879Y-87534070D01*
X133891101Y-87527527D01*
X133822406Y-87408543D01*
X133822401Y-87408537D01*
X133719912Y-87306048D01*
X133719906Y-87306043D01*
X133594383Y-87233572D01*
X133594384Y-87233572D01*
X133582901Y-87230495D01*
X133454370Y-87196055D01*
X133309420Y-87196055D01*
X133180888Y-87230495D01*
X133169406Y-87233572D01*
X133043883Y-87306043D01*
X133043877Y-87306048D01*
X132941388Y-87408537D01*
X132941383Y-87408543D01*
X132868912Y-87534066D01*
X132868911Y-87534070D01*
X132831395Y-87674080D01*
X132580500Y-87674080D01*
X132580500Y-86988454D01*
X151700301Y-86988454D01*
X151700301Y-87133404D01*
X151737817Y-87273414D01*
X151737818Y-87273417D01*
X151810289Y-87398940D01*
X151810291Y-87398942D01*
X151810292Y-87398944D01*
X151912786Y-87501438D01*
X151912787Y-87501439D01*
X151912789Y-87501440D01*
X152038312Y-87573911D01*
X152038313Y-87573911D01*
X152038316Y-87573913D01*
X152178326Y-87611429D01*
X152178329Y-87611429D01*
X152323273Y-87611429D01*
X152323276Y-87611429D01*
X152463286Y-87573913D01*
X152588816Y-87501438D01*
X152691310Y-87398944D01*
X152763785Y-87273414D01*
X152801301Y-87133404D01*
X152801301Y-86988454D01*
X152763785Y-86848444D01*
X152720851Y-86774080D01*
X155531395Y-86774080D01*
X155531395Y-86919030D01*
X155549998Y-86988456D01*
X155568912Y-87059043D01*
X155641383Y-87184566D01*
X155641385Y-87184568D01*
X155641386Y-87184570D01*
X155743880Y-87287064D01*
X155743881Y-87287065D01*
X155743883Y-87287066D01*
X155869406Y-87359537D01*
X155869407Y-87359537D01*
X155869410Y-87359539D01*
X156009420Y-87397055D01*
X156009423Y-87397055D01*
X156154367Y-87397055D01*
X156154370Y-87397055D01*
X156294380Y-87359539D01*
X156419910Y-87287064D01*
X156522404Y-87184570D01*
X156594879Y-87059040D01*
X156632395Y-86919030D01*
X156632395Y-86774080D01*
X156594879Y-86634070D01*
X156586999Y-86620422D01*
X156522406Y-86508543D01*
X156522401Y-86508537D01*
X156419912Y-86406048D01*
X156419906Y-86406043D01*
X156294383Y-86333572D01*
X156294384Y-86333572D01*
X156282901Y-86330495D01*
X156154370Y-86296055D01*
X156009420Y-86296055D01*
X155880888Y-86330495D01*
X155869406Y-86333572D01*
X155743883Y-86406043D01*
X155743877Y-86406048D01*
X155641388Y-86508537D01*
X155641383Y-86508543D01*
X155568912Y-86634066D01*
X155568911Y-86634070D01*
X155531395Y-86774080D01*
X152720851Y-86774080D01*
X152691310Y-86722914D01*
X152588816Y-86620420D01*
X152588814Y-86620419D01*
X152588812Y-86620417D01*
X152463289Y-86547946D01*
X152463290Y-86547946D01*
X152451807Y-86544869D01*
X152323276Y-86510429D01*
X152178326Y-86510429D01*
X152049794Y-86544869D01*
X152038312Y-86547946D01*
X151912789Y-86620417D01*
X151912783Y-86620422D01*
X151810294Y-86722911D01*
X151810289Y-86722917D01*
X151737818Y-86848440D01*
X151737817Y-86848444D01*
X151700301Y-86988454D01*
X132580500Y-86988454D01*
X132580500Y-86270635D01*
X144448994Y-86270635D01*
X144448994Y-86415585D01*
X144486510Y-86555595D01*
X144486511Y-86555598D01*
X144558982Y-86681121D01*
X144558984Y-86681123D01*
X144558985Y-86681125D01*
X144661479Y-86783619D01*
X144661480Y-86783620D01*
X144661482Y-86783621D01*
X144787005Y-86856092D01*
X144787006Y-86856092D01*
X144787009Y-86856094D01*
X144927019Y-86893610D01*
X144927022Y-86893610D01*
X145071966Y-86893610D01*
X145071969Y-86893610D01*
X145211979Y-86856094D01*
X145337509Y-86783619D01*
X145440003Y-86681125D01*
X145512478Y-86555595D01*
X145549994Y-86415585D01*
X145549994Y-86270635D01*
X145512478Y-86130625D01*
X145458896Y-86037819D01*
X145440005Y-86005098D01*
X145440000Y-86005092D01*
X145337511Y-85902603D01*
X145337505Y-85902598D01*
X145211982Y-85830127D01*
X145211983Y-85830127D01*
X145200500Y-85827050D01*
X145071969Y-85792610D01*
X144927019Y-85792610D01*
X144798487Y-85827050D01*
X144787005Y-85830127D01*
X144661482Y-85902598D01*
X144661476Y-85902603D01*
X144558987Y-86005092D01*
X144558982Y-86005098D01*
X144486511Y-86130621D01*
X144486510Y-86130625D01*
X144448994Y-86270635D01*
X132580500Y-86270635D01*
X132580500Y-85174080D01*
X137431395Y-85174080D01*
X137431395Y-85319030D01*
X137452302Y-85397055D01*
X137468912Y-85459043D01*
X137541383Y-85584566D01*
X137541385Y-85584568D01*
X137541386Y-85584570D01*
X137643880Y-85687064D01*
X137643881Y-85687065D01*
X137643883Y-85687066D01*
X137769406Y-85759537D01*
X137769407Y-85759537D01*
X137769410Y-85759539D01*
X137909420Y-85797055D01*
X137909423Y-85797055D01*
X138054367Y-85797055D01*
X138054370Y-85797055D01*
X138194380Y-85759539D01*
X138319910Y-85687064D01*
X138422404Y-85584570D01*
X138494879Y-85459040D01*
X138496669Y-85452360D01*
X151673113Y-85452360D01*
X151673113Y-85597310D01*
X151710629Y-85737320D01*
X151710630Y-85737323D01*
X151783101Y-85862846D01*
X151783103Y-85862848D01*
X151783104Y-85862850D01*
X151885598Y-85965344D01*
X151885599Y-85965345D01*
X151885601Y-85965346D01*
X152011124Y-86037817D01*
X152011125Y-86037817D01*
X152011128Y-86037819D01*
X152151138Y-86075335D01*
X152151141Y-86075335D01*
X152296085Y-86075335D01*
X152296088Y-86075335D01*
X152436098Y-86037819D01*
X152561628Y-85965344D01*
X152664122Y-85862850D01*
X152736597Y-85737320D01*
X152774113Y-85597310D01*
X152774113Y-85452360D01*
X152753138Y-85374080D01*
X155531395Y-85374080D01*
X155531395Y-85519030D01*
X155568911Y-85659040D01*
X155568912Y-85659043D01*
X155641383Y-85784566D01*
X155641385Y-85784568D01*
X155641386Y-85784570D01*
X155743880Y-85887064D01*
X155743881Y-85887065D01*
X155743883Y-85887066D01*
X155869406Y-85959537D01*
X155869407Y-85959537D01*
X155869410Y-85959539D01*
X156009420Y-85997055D01*
X156009423Y-85997055D01*
X156154367Y-85997055D01*
X156154370Y-85997055D01*
X156294380Y-85959539D01*
X156419910Y-85887064D01*
X156522404Y-85784570D01*
X156594879Y-85659040D01*
X156632395Y-85519030D01*
X156632395Y-85374080D01*
X156594879Y-85234070D01*
X156567597Y-85186817D01*
X156522406Y-85108543D01*
X156522401Y-85108537D01*
X156419912Y-85006048D01*
X156419910Y-85006046D01*
X156355790Y-84969026D01*
X156307575Y-84918458D01*
X156294353Y-84849851D01*
X156320321Y-84784986D01*
X156377236Y-84744459D01*
X156385658Y-84741875D01*
X156394380Y-84739539D01*
X156519910Y-84667064D01*
X156622404Y-84564570D01*
X156694879Y-84439040D01*
X156732395Y-84299030D01*
X156732395Y-84154080D01*
X156694879Y-84014070D01*
X156685055Y-83997055D01*
X156622406Y-83888543D01*
X156622401Y-83888537D01*
X156519912Y-83786048D01*
X156519906Y-83786043D01*
X156394383Y-83713572D01*
X156394384Y-83713572D01*
X156382901Y-83710495D01*
X156254370Y-83676055D01*
X156109420Y-83676055D01*
X155980888Y-83710495D01*
X155969406Y-83713572D01*
X155843883Y-83786043D01*
X155843877Y-83786048D01*
X155741388Y-83888537D01*
X155741383Y-83888543D01*
X155668912Y-84014066D01*
X155668911Y-84014070D01*
X155631395Y-84154080D01*
X155631395Y-84299030D01*
X155660071Y-84406048D01*
X155668912Y-84439043D01*
X155741383Y-84564566D01*
X155741385Y-84564568D01*
X155741386Y-84564570D01*
X155843880Y-84667064D01*
X155894094Y-84696055D01*
X155907999Y-84704083D01*
X155956214Y-84754650D01*
X155969436Y-84823258D01*
X155943468Y-84888122D01*
X155886554Y-84928650D01*
X155878093Y-84931244D01*
X155869411Y-84933570D01*
X155869406Y-84933572D01*
X155743883Y-85006043D01*
X155743877Y-85006048D01*
X155641388Y-85108537D01*
X155641383Y-85108543D01*
X155568912Y-85234066D01*
X155568911Y-85234070D01*
X155531395Y-85374080D01*
X152753138Y-85374080D01*
X152736597Y-85312350D01*
X152721999Y-85287066D01*
X152664124Y-85186823D01*
X152664119Y-85186817D01*
X152561630Y-85084328D01*
X152561624Y-85084323D01*
X152436101Y-85011852D01*
X152436102Y-85011852D01*
X152414441Y-85006048D01*
X152296088Y-84974335D01*
X152151138Y-84974335D01*
X152032785Y-85006048D01*
X152011124Y-85011852D01*
X151885601Y-85084323D01*
X151885595Y-85084328D01*
X151783106Y-85186817D01*
X151783101Y-85186823D01*
X151710630Y-85312346D01*
X151710629Y-85312350D01*
X151673113Y-85452360D01*
X138496669Y-85452360D01*
X138532395Y-85319030D01*
X138532395Y-85174080D01*
X138494879Y-85034070D01*
X138482051Y-85011852D01*
X138422406Y-84908543D01*
X138422401Y-84908537D01*
X138319912Y-84806048D01*
X138319906Y-84806043D01*
X138264545Y-84774080D01*
X141731395Y-84774080D01*
X141731395Y-84919030D01*
X141768911Y-85059040D01*
X141768912Y-85059043D01*
X141841383Y-85184566D01*
X141841385Y-85184568D01*
X141841386Y-85184570D01*
X141943880Y-85287064D01*
X141943881Y-85287065D01*
X141943883Y-85287066D01*
X142069406Y-85359537D01*
X142069407Y-85359537D01*
X142069410Y-85359539D01*
X142209420Y-85397055D01*
X142209423Y-85397055D01*
X142354367Y-85397055D01*
X142354370Y-85397055D01*
X142494380Y-85359539D01*
X142619910Y-85287064D01*
X142722404Y-85184570D01*
X142794879Y-85059040D01*
X142832395Y-84919030D01*
X142832395Y-84774080D01*
X142794879Y-84634070D01*
X142722404Y-84508540D01*
X142619910Y-84406046D01*
X142619908Y-84406045D01*
X142619906Y-84406043D01*
X142494383Y-84333572D01*
X142494384Y-84333572D01*
X142482901Y-84330495D01*
X142354370Y-84296055D01*
X142209420Y-84296055D01*
X142080888Y-84330495D01*
X142069406Y-84333572D01*
X141943883Y-84406043D01*
X141943877Y-84406048D01*
X141841388Y-84508537D01*
X141841383Y-84508543D01*
X141768912Y-84634066D01*
X141768911Y-84634070D01*
X141731395Y-84774080D01*
X138264545Y-84774080D01*
X138194383Y-84733572D01*
X138194384Y-84733572D01*
X138182901Y-84730495D01*
X138054370Y-84696055D01*
X137909420Y-84696055D01*
X137780888Y-84730495D01*
X137769406Y-84733572D01*
X137643883Y-84806043D01*
X137643877Y-84806048D01*
X137541388Y-84908537D01*
X137541383Y-84908543D01*
X137468912Y-85034066D01*
X137468911Y-85034070D01*
X137431395Y-85174080D01*
X132580500Y-85174080D01*
X132580500Y-82474080D01*
X137531395Y-82474080D01*
X137531395Y-82619030D01*
X137566872Y-82751431D01*
X137568912Y-82759043D01*
X137641383Y-82884566D01*
X137641385Y-82884568D01*
X137641386Y-82884570D01*
X137743880Y-82987064D01*
X137743881Y-82987065D01*
X137743883Y-82987066D01*
X137869406Y-83059537D01*
X137869407Y-83059537D01*
X137869410Y-83059539D01*
X138009420Y-83097055D01*
X138018865Y-83097055D01*
X138085904Y-83116740D01*
X138131659Y-83169544D01*
X138138638Y-83188956D01*
X138167604Y-83297055D01*
X138168912Y-83301937D01*
X138241383Y-83427460D01*
X138241385Y-83427462D01*
X138241386Y-83427464D01*
X138343880Y-83529958D01*
X138343881Y-83529959D01*
X138343883Y-83529960D01*
X138469406Y-83602431D01*
X138469407Y-83602431D01*
X138469410Y-83602433D01*
X138609420Y-83639949D01*
X138609423Y-83639949D01*
X138754367Y-83639949D01*
X138754370Y-83639949D01*
X138894380Y-83602433D01*
X139019910Y-83529958D01*
X139119714Y-83430154D01*
X139181037Y-83396669D01*
X139250729Y-83401653D01*
X139306662Y-83443525D01*
X139331079Y-83508989D01*
X139331395Y-83517835D01*
X139331395Y-83519030D01*
X139363796Y-83639949D01*
X139368912Y-83659043D01*
X139441383Y-83784566D01*
X139441385Y-83784568D01*
X139441386Y-83784570D01*
X139543880Y-83887064D01*
X139543881Y-83887065D01*
X139543883Y-83887066D01*
X139669406Y-83959537D01*
X139669407Y-83959537D01*
X139669410Y-83959539D01*
X139809420Y-83997055D01*
X139809423Y-83997055D01*
X139954367Y-83997055D01*
X139954370Y-83997055D01*
X140094380Y-83959539D01*
X140219910Y-83887064D01*
X140244214Y-83862760D01*
X140305537Y-83829275D01*
X140375229Y-83834259D01*
X140419576Y-83862760D01*
X140443880Y-83887064D01*
X140443881Y-83887065D01*
X140443883Y-83887066D01*
X140569406Y-83959537D01*
X140569407Y-83959537D01*
X140569410Y-83959539D01*
X140709420Y-83997055D01*
X140709423Y-83997055D01*
X140854367Y-83997055D01*
X140854370Y-83997055D01*
X140994380Y-83959539D01*
X141119910Y-83887064D01*
X141132894Y-83874080D01*
X146931395Y-83874080D01*
X146931395Y-84019030D01*
X146968911Y-84159040D01*
X146968912Y-84159043D01*
X147041383Y-84284566D01*
X147041385Y-84284568D01*
X147041386Y-84284570D01*
X147143880Y-84387064D01*
X147143881Y-84387065D01*
X147143883Y-84387066D01*
X147269406Y-84459537D01*
X147269407Y-84459537D01*
X147269410Y-84459539D01*
X147409420Y-84497055D01*
X147409423Y-84497055D01*
X147554367Y-84497055D01*
X147554370Y-84497055D01*
X147694380Y-84459539D01*
X147819910Y-84387064D01*
X147922404Y-84284570D01*
X147994879Y-84159040D01*
X148032395Y-84019030D01*
X148032395Y-83874080D01*
X147994879Y-83734070D01*
X147983044Y-83713572D01*
X147922406Y-83608543D01*
X147922401Y-83608537D01*
X147819912Y-83506048D01*
X147819906Y-83506043D01*
X147764545Y-83474080D01*
X150831395Y-83474080D01*
X150831395Y-83619030D01*
X150868911Y-83759040D01*
X150868912Y-83759043D01*
X150941383Y-83884566D01*
X150941385Y-83884568D01*
X150941386Y-83884570D01*
X151043880Y-83987064D01*
X151043881Y-83987065D01*
X151043883Y-83987066D01*
X151169406Y-84059537D01*
X151169407Y-84059537D01*
X151169410Y-84059539D01*
X151309420Y-84097055D01*
X151309423Y-84097055D01*
X151454368Y-84097055D01*
X151454370Y-84097055D01*
X151523300Y-84078585D01*
X151593148Y-84080247D01*
X151646675Y-84116473D01*
X151647154Y-84115995D01*
X151649637Y-84118478D01*
X151651011Y-84119408D01*
X151652744Y-84121585D01*
X151652901Y-84121742D01*
X151755395Y-84224236D01*
X151755396Y-84224237D01*
X151755398Y-84224238D01*
X151880921Y-84296709D01*
X151880922Y-84296709D01*
X151880925Y-84296711D01*
X152020935Y-84334227D01*
X152020938Y-84334227D01*
X152165882Y-84334227D01*
X152165885Y-84334227D01*
X152305895Y-84296711D01*
X152431425Y-84224236D01*
X152533919Y-84121742D01*
X152606394Y-83996212D01*
X152643910Y-83856202D01*
X152643910Y-83711252D01*
X152606394Y-83571242D01*
X152576249Y-83519030D01*
X152533921Y-83445715D01*
X152533916Y-83445709D01*
X152431427Y-83343220D01*
X152431421Y-83343215D01*
X152305898Y-83270744D01*
X152305899Y-83270744D01*
X152294416Y-83267667D01*
X152165885Y-83233227D01*
X152020935Y-83233227D01*
X151952004Y-83251697D01*
X151882154Y-83250034D01*
X151828630Y-83213807D01*
X151828151Y-83214287D01*
X151825662Y-83211798D01*
X151824292Y-83210871D01*
X151822561Y-83208697D01*
X151719912Y-83106048D01*
X151719906Y-83106043D01*
X151594383Y-83033572D01*
X151594384Y-83033572D01*
X151569913Y-83027015D01*
X151454370Y-82996055D01*
X151309420Y-82996055D01*
X151193877Y-83027015D01*
X151169406Y-83033572D01*
X151043883Y-83106043D01*
X151043877Y-83106048D01*
X150941388Y-83208537D01*
X150941383Y-83208543D01*
X150868912Y-83334066D01*
X150868911Y-83334070D01*
X150831395Y-83474080D01*
X147764545Y-83474080D01*
X147694383Y-83433572D01*
X147694384Y-83433572D01*
X147671596Y-83427466D01*
X147554370Y-83396055D01*
X147409420Y-83396055D01*
X147292194Y-83427466D01*
X147269406Y-83433572D01*
X147143883Y-83506043D01*
X147143877Y-83506048D01*
X147041388Y-83608537D01*
X147041383Y-83608543D01*
X146968912Y-83734066D01*
X146968911Y-83734070D01*
X146931395Y-83874080D01*
X141132894Y-83874080D01*
X141222404Y-83784570D01*
X141294879Y-83659040D01*
X141332395Y-83519030D01*
X141332395Y-83374080D01*
X141294879Y-83234070D01*
X141294392Y-83233227D01*
X141222406Y-83108543D01*
X141222401Y-83108537D01*
X141119912Y-83006048D01*
X141119906Y-83006043D01*
X140994383Y-82933572D01*
X140994384Y-82933572D01*
X140982901Y-82930495D01*
X140854370Y-82896055D01*
X140709420Y-82896055D01*
X140580888Y-82930495D01*
X140569406Y-82933572D01*
X140443883Y-83006043D01*
X140419575Y-83030351D01*
X140358251Y-83063835D01*
X140288560Y-83058849D01*
X140244215Y-83030351D01*
X140240879Y-83027015D01*
X140219910Y-83006046D01*
X140219907Y-83006044D01*
X140219906Y-83006043D01*
X140094383Y-82933572D01*
X140094384Y-82933572D01*
X140082901Y-82930495D01*
X139954370Y-82896055D01*
X139809420Y-82896055D01*
X139680888Y-82930495D01*
X139669406Y-82933572D01*
X139543883Y-83006043D01*
X139543877Y-83006048D01*
X139444076Y-83105850D01*
X139382753Y-83139335D01*
X139313061Y-83134351D01*
X139257128Y-83092479D01*
X139232711Y-83027015D01*
X139232395Y-83018169D01*
X139232395Y-83016976D01*
X139232395Y-83016974D01*
X139194879Y-82876964D01*
X139126795Y-82759040D01*
X139122406Y-82751437D01*
X139122401Y-82751431D01*
X139045050Y-82674080D01*
X147631395Y-82674080D01*
X147631395Y-82819030D01*
X147652034Y-82896055D01*
X147668912Y-82959043D01*
X147741383Y-83084566D01*
X147741385Y-83084568D01*
X147741386Y-83084570D01*
X147843880Y-83187064D01*
X147843881Y-83187065D01*
X147843883Y-83187066D01*
X147969406Y-83259537D01*
X147969407Y-83259537D01*
X147969410Y-83259539D01*
X148109420Y-83297055D01*
X148109423Y-83297055D01*
X148254367Y-83297055D01*
X148254370Y-83297055D01*
X148394380Y-83259539D01*
X148519910Y-83187064D01*
X148622404Y-83084570D01*
X148694879Y-82959040D01*
X148732395Y-82819030D01*
X148732395Y-82674080D01*
X148694879Y-82534070D01*
X148655844Y-82466460D01*
X148622406Y-82408543D01*
X148622401Y-82408537D01*
X148519912Y-82306048D01*
X148519906Y-82306043D01*
X148402894Y-82238486D01*
X148402892Y-82238485D01*
X148394380Y-82233571D01*
X148254370Y-82196055D01*
X148109420Y-82196055D01*
X147980888Y-82230495D01*
X147969406Y-82233572D01*
X147843883Y-82306043D01*
X147843877Y-82306048D01*
X147741388Y-82408537D01*
X147741383Y-82408543D01*
X147668912Y-82534066D01*
X147668911Y-82534070D01*
X147631395Y-82674080D01*
X139045050Y-82674080D01*
X139019912Y-82648942D01*
X139019906Y-82648937D01*
X138894383Y-82576466D01*
X138894384Y-82576466D01*
X138882901Y-82573389D01*
X138754370Y-82538949D01*
X138754367Y-82538949D01*
X138744925Y-82538949D01*
X138677886Y-82519264D01*
X138632131Y-82466460D01*
X138625150Y-82447043D01*
X138614833Y-82408540D01*
X138594879Y-82334070D01*
X138578700Y-82306048D01*
X138522406Y-82208543D01*
X138522401Y-82208537D01*
X138419912Y-82106048D01*
X138419906Y-82106043D01*
X138294383Y-82033572D01*
X138294384Y-82033572D01*
X138282901Y-82030495D01*
X138154370Y-81996055D01*
X138009420Y-81996055D01*
X137880888Y-82030495D01*
X137869406Y-82033572D01*
X137743883Y-82106043D01*
X137743877Y-82106048D01*
X137641388Y-82208537D01*
X137641383Y-82208543D01*
X137568912Y-82334066D01*
X137568911Y-82334070D01*
X137531395Y-82474080D01*
X132580500Y-82474080D01*
X132580500Y-81374080D01*
X147931395Y-81374080D01*
X147931395Y-81519030D01*
X147968911Y-81659040D01*
X147968912Y-81659043D01*
X148041383Y-81784566D01*
X148041385Y-81784568D01*
X148041386Y-81784570D01*
X148143880Y-81887064D01*
X148269410Y-81959539D01*
X148409420Y-81997055D01*
X148459849Y-81997055D01*
X148554367Y-81997055D01*
X148554370Y-81997055D01*
X148694380Y-81959539D01*
X148819910Y-81887064D01*
X148922404Y-81784570D01*
X148994879Y-81659040D01*
X149032395Y-81519030D01*
X149032395Y-81374080D01*
X148994879Y-81234070D01*
X148922404Y-81108540D01*
X148819910Y-81006046D01*
X148819908Y-81006045D01*
X148819906Y-81006043D01*
X148694383Y-80933572D01*
X148694384Y-80933572D01*
X148682901Y-80930495D01*
X148554370Y-80896055D01*
X148409420Y-80896055D01*
X148280888Y-80930495D01*
X148269406Y-80933572D01*
X148143883Y-81006043D01*
X148143877Y-81006048D01*
X148041388Y-81108537D01*
X148041383Y-81108543D01*
X147968912Y-81234066D01*
X147968911Y-81234070D01*
X147931395Y-81374080D01*
X132580500Y-81374080D01*
X132580500Y-80374080D01*
X154651395Y-80374080D01*
X154651395Y-80519030D01*
X154688911Y-80659040D01*
X154688912Y-80659043D01*
X154761383Y-80784566D01*
X154761385Y-80784568D01*
X154761386Y-80784570D01*
X154863880Y-80887064D01*
X154863881Y-80887065D01*
X154863883Y-80887066D01*
X154989406Y-80959537D01*
X154989407Y-80959537D01*
X154989410Y-80959539D01*
X155129420Y-80997055D01*
X155129423Y-80997055D01*
X155274367Y-80997055D01*
X155274370Y-80997055D01*
X155414380Y-80959539D01*
X155539910Y-80887064D01*
X155642404Y-80784570D01*
X155714879Y-80659040D01*
X155752395Y-80519030D01*
X155752395Y-80374080D01*
X155714879Y-80234070D01*
X155642404Y-80108540D01*
X155539910Y-80006046D01*
X155539908Y-80006045D01*
X155539906Y-80006043D01*
X155414383Y-79933572D01*
X155414384Y-79933572D01*
X155402901Y-79930495D01*
X155274370Y-79896055D01*
X155129420Y-79896055D01*
X155000888Y-79930495D01*
X154989406Y-79933572D01*
X154863883Y-80006043D01*
X154863877Y-80006048D01*
X154761388Y-80108537D01*
X154761383Y-80108543D01*
X154688912Y-80234066D01*
X154688911Y-80234070D01*
X154651395Y-80374080D01*
X132580500Y-80374080D01*
X132580500Y-79371055D01*
X132600185Y-79304016D01*
X132652989Y-79258261D01*
X132704500Y-79247055D01*
X156855500Y-79247055D01*
X156922539Y-79266740D01*
G37*
%TD.AperFunction*%
%TD*%
M02*
