%TF.GenerationSoftware,KiCad,Pcbnew,9.0.2*%
%TF.CreationDate,2025-09-15T18:44:55-04:00*%
%TF.ProjectId,flight-computer,666c6967-6874-42d6-936f-6d7075746572,rev?*%
%TF.SameCoordinates,Original*%
%TF.FileFunction,Paste,Top*%
%TF.FilePolarity,Positive*%
%FSLAX46Y46*%
G04 Gerber Fmt 4.6, Leading zero omitted, Abs format (unit mm)*
G04 Created by KiCad (PCBNEW 9.0.2) date 2025-09-15 18:44:55*
%MOMM*%
%LPD*%
G01*
G04 APERTURE LIST*
G04 Aperture macros list*
%AMRoundRect*
0 Rectangle with rounded corners*
0 $1 Rounding radius*
0 $2 $3 $4 $5 $6 $7 $8 $9 X,Y pos of 4 corners*
0 Add a 4 corners polygon primitive as box body*
4,1,4,$2,$3,$4,$5,$6,$7,$8,$9,$2,$3,0*
0 Add four circle primitives for the rounded corners*
1,1,$1+$1,$2,$3*
1,1,$1+$1,$4,$5*
1,1,$1+$1,$6,$7*
1,1,$1+$1,$8,$9*
0 Add four rect primitives between the rounded corners*
20,1,$1+$1,$2,$3,$4,$5,0*
20,1,$1+$1,$4,$5,$6,$7,0*
20,1,$1+$1,$6,$7,$8,$9,0*
20,1,$1+$1,$8,$9,$2,$3,0*%
G04 Aperture macros list end*
%ADD10RoundRect,0.150000X-0.150000X-0.425000X0.150000X-0.425000X0.150000X0.425000X-0.150000X0.425000X0*%
%ADD11RoundRect,0.075000X-0.075000X-0.500000X0.075000X-0.500000X0.075000X0.500000X-0.075000X0.500000X0*%
%ADD12O,1.000000X2.100000*%
%ADD13O,1.000000X1.800000*%
%ADD14RoundRect,0.175000X1.175000X-0.175000X1.175000X0.175000X-1.175000X0.175000X-1.175000X-0.175000X0*%
%ADD15RoundRect,0.250000X0.700000X-0.300000X0.700000X0.300000X-0.700000X0.300000X-0.700000X-0.300000X0*%
%ADD16RoundRect,0.135000X-0.135000X-0.185000X0.135000X-0.185000X0.135000X0.185000X-0.135000X0.185000X0*%
%ADD17R,1.219200X0.508000*%
%ADD18RoundRect,0.135000X0.135000X0.185000X-0.135000X0.185000X-0.135000X-0.185000X0.135000X-0.185000X0*%
%ADD19RoundRect,0.175000X-1.175000X0.175000X-1.175000X-0.175000X1.175000X-0.175000X1.175000X0.175000X0*%
%ADD20RoundRect,0.250000X-0.700000X0.300000X-0.700000X-0.300000X0.700000X-0.300000X0.700000X0.300000X0*%
%ADD21RoundRect,0.140000X0.140000X0.170000X-0.140000X0.170000X-0.140000X-0.170000X0.140000X-0.170000X0*%
%ADD22RoundRect,0.150000X-0.150000X0.587500X-0.150000X-0.587500X0.150000X-0.587500X0.150000X0.587500X0*%
%ADD23R,0.576580X0.351536*%
%ADD24R,0.351536X0.576580*%
%ADD25RoundRect,0.250000X0.500000X-0.950000X0.500000X0.950000X-0.500000X0.950000X-0.500000X-0.950000X0*%
%ADD26RoundRect,0.250000X0.500000X-0.275000X0.500000X0.275000X-0.500000X0.275000X-0.500000X-0.275000X0*%
%ADD27RoundRect,0.140000X-0.170000X0.140000X-0.170000X-0.140000X0.170000X-0.140000X0.170000X0.140000X0*%
%ADD28RoundRect,0.250000X0.650000X-0.325000X0.650000X0.325000X-0.650000X0.325000X-0.650000X-0.325000X0*%
%ADD29R,4.597400X1.295400*%
%ADD30RoundRect,0.140000X0.170000X-0.140000X0.170000X0.140000X-0.170000X0.140000X-0.170000X-0.140000X0*%
%ADD31RoundRect,0.150000X-0.512500X-0.150000X0.512500X-0.150000X0.512500X0.150000X-0.512500X0.150000X0*%
G04 APERTURE END LIST*
D10*
%TO.C,J5*%
X141461895Y-122566555D03*
X142261895Y-122566555D03*
D11*
X143411895Y-122566555D03*
X144411895Y-122566555D03*
X144911895Y-122566555D03*
X145911895Y-122566555D03*
D10*
X147061895Y-122566555D03*
X147861895Y-122566555D03*
X147861895Y-122566555D03*
X147061895Y-122566555D03*
D11*
X146411895Y-122566555D03*
X145411895Y-122566555D03*
X143911895Y-122566555D03*
X142911895Y-122566555D03*
D10*
X142261895Y-122566555D03*
X141461895Y-122566555D03*
D12*
X140341895Y-123141555D03*
D13*
X140341895Y-127321555D03*
D12*
X148981895Y-123141555D03*
D13*
X148981895Y-127321555D03*
%TD*%
D14*
%TO.C,J2*%
X152231895Y-92246555D03*
X152231895Y-90746555D03*
X152231895Y-89246555D03*
X152231895Y-87746555D03*
X152231895Y-86246555D03*
X152231895Y-84746555D03*
D15*
X155931895Y-94196555D03*
X155931895Y-82796555D03*
%TD*%
D16*
%TO.C,R3*%
X147816895Y-114901555D03*
X148836895Y-114901555D03*
%TD*%
D17*
%TO.C,SW3*%
X139697895Y-81751555D03*
X139697895Y-83021555D03*
X147825895Y-83021555D03*
X147825895Y-81751555D03*
%TD*%
D18*
%TO.C,R1*%
X151751895Y-81496555D03*
X150731895Y-81496555D03*
%TD*%
D19*
%TO.C,J1*%
X137481895Y-84996555D03*
X137481895Y-86496555D03*
X137481895Y-87996555D03*
X137481895Y-89496555D03*
X137481895Y-90996555D03*
X137481895Y-92496555D03*
D20*
X133781895Y-83046555D03*
X133781895Y-94446555D03*
%TD*%
D21*
%TO.C,C7*%
X145461895Y-97250000D03*
X144501895Y-97250000D03*
%TD*%
D22*
%TO.C,Q2*%
X145981895Y-102246555D03*
X144081895Y-102246555D03*
X145031895Y-104121555D03*
%TD*%
D21*
%TO.C,C4*%
X146056895Y-113151555D03*
X145096895Y-113151555D03*
%TD*%
%TO.C,C3*%
X150711895Y-82746555D03*
X149751895Y-82746555D03*
%TD*%
D23*
%TO.C,U3*%
X145289701Y-93793699D03*
X145289701Y-94293700D03*
X145289701Y-94793700D03*
X145289701Y-95293701D03*
D24*
X146000002Y-95500000D03*
X146500001Y-95500000D03*
X147000000Y-95500000D03*
D23*
X147710301Y-95293701D03*
X147710301Y-94793700D03*
X147710301Y-94293700D03*
X147710301Y-93793699D03*
D24*
X147000000Y-93587400D03*
X146500001Y-93587400D03*
X146000002Y-93587400D03*
%TD*%
D25*
%TO.C,D1*%
X137231895Y-119996555D03*
D26*
X137231895Y-122371555D03*
%TD*%
D27*
%TO.C,C8*%
X149481895Y-95516555D03*
X149481895Y-96476555D03*
%TD*%
D28*
%TO.C,C1*%
X138076895Y-117126555D03*
X138076895Y-114176555D03*
%TD*%
D29*
%TO.C,L1*%
X143731895Y-111048855D03*
X143731895Y-107444255D03*
%TD*%
D30*
%TO.C,C2*%
X141326895Y-116611555D03*
X141326895Y-115651555D03*
%TD*%
D22*
%TO.C,Q1*%
X149481895Y-102246555D03*
X147581895Y-102246555D03*
X148531895Y-104121555D03*
%TD*%
D31*
%TO.C,U1*%
X143220000Y-114705000D03*
X143220000Y-115655000D03*
X143220000Y-116605000D03*
X145495000Y-116605000D03*
X145495000Y-115655000D03*
X145495000Y-114705000D03*
%TD*%
D21*
%TO.C,C6*%
X142711895Y-104996555D03*
X141751895Y-104996555D03*
%TD*%
D18*
%TO.C,R2*%
X148836895Y-116651555D03*
X147816895Y-116651555D03*
%TD*%
M02*
