%TF.GenerationSoftware,KiCad,Pcbnew,9.0.5*%
%TF.CreationDate,2025-11-05T17:03:24-05:00*%
%TF.ProjectId,flight-computer,666c6967-6874-42d6-936f-6d7075746572,rev?*%
%TF.SameCoordinates,Original*%
%TF.FileFunction,Copper,L6,Bot*%
%TF.FilePolarity,Positive*%
%FSLAX46Y46*%
G04 Gerber Fmt 4.6, Leading zero omitted, Abs format (unit mm)*
G04 Created by KiCad (PCBNEW 9.0.5) date 2025-11-05 17:03:24*
%MOMM*%
%LPD*%
G01*
G04 APERTURE LIST*
G04 Aperture macros list*
%AMRoundRect*
0 Rectangle with rounded corners*
0 $1 Rounding radius*
0 $2 $3 $4 $5 $6 $7 $8 $9 X,Y pos of 4 corners*
0 Add a 4 corners polygon primitive as box body*
4,1,4,$2,$3,$4,$5,$6,$7,$8,$9,$2,$3,0*
0 Add four circle primitives for the rounded corners*
1,1,$1+$1,$2,$3*
1,1,$1+$1,$4,$5*
1,1,$1+$1,$6,$7*
1,1,$1+$1,$8,$9*
0 Add four rect primitives between the rounded corners*
20,1,$1+$1,$2,$3,$4,$5,0*
20,1,$1+$1,$4,$5,$6,$7,0*
20,1,$1+$1,$6,$7,$8,$9,0*
20,1,$1+$1,$8,$9,$2,$3,0*%
G04 Aperture macros list end*
%TA.AperFunction,ComponentPad*%
%ADD10C,1.524000*%
%TD*%
%TA.AperFunction,HeatsinkPad*%
%ADD11O,1.000000X1.800000*%
%TD*%
%TA.AperFunction,HeatsinkPad*%
%ADD12O,1.000000X2.100000*%
%TD*%
%TA.AperFunction,ComponentPad*%
%ADD13C,3.800000*%
%TD*%
%TA.AperFunction,SMDPad,CuDef*%
%ADD14RoundRect,0.140000X0.140000X0.170000X-0.140000X0.170000X-0.140000X-0.170000X0.140000X-0.170000X0*%
%TD*%
%TA.AperFunction,SMDPad,CuDef*%
%ADD15RoundRect,0.135000X0.135000X0.185000X-0.135000X0.185000X-0.135000X-0.185000X0.135000X-0.185000X0*%
%TD*%
%TA.AperFunction,SMDPad,CuDef*%
%ADD16RoundRect,0.135000X-0.135000X-0.185000X0.135000X-0.185000X0.135000X0.185000X-0.135000X0.185000X0*%
%TD*%
%TA.AperFunction,SMDPad,CuDef*%
%ADD17RoundRect,0.135000X-0.185000X0.135000X-0.185000X-0.135000X0.185000X-0.135000X0.185000X0.135000X0*%
%TD*%
%TA.AperFunction,SMDPad,CuDef*%
%ADD18RoundRect,0.140000X-0.170000X0.140000X-0.170000X-0.140000X0.170000X-0.140000X0.170000X0.140000X0*%
%TD*%
%TA.AperFunction,SMDPad,CuDef*%
%ADD19R,1.498600X2.006600*%
%TD*%
%TA.AperFunction,SMDPad,CuDef*%
%ADD20R,0.812800X1.193800*%
%TD*%
%TA.AperFunction,HeatsinkPad*%
%ADD21C,0.600000*%
%TD*%
%TA.AperFunction,HeatsinkPad*%
%ADD22R,3.900000X3.900000*%
%TD*%
%TA.AperFunction,SMDPad,CuDef*%
%ADD23R,1.500000X0.900000*%
%TD*%
%TA.AperFunction,SMDPad,CuDef*%
%ADD24R,0.900000X1.500000*%
%TD*%
%TA.AperFunction,ViaPad*%
%ADD25C,0.600000*%
%TD*%
%TA.AperFunction,Conductor*%
%ADD26C,0.200000*%
%TD*%
G04 APERTURE END LIST*
D10*
%TO.P,J6,2,Pin_2*%
%TO.N,Net-(J6-Pin_2)*%
X154281895Y-111071655D03*
%TO.P,J6,1,Pin_1*%
%TO.N,Net-(J6-Pin_1)*%
X154281895Y-113611655D03*
%TD*%
%TO.P,J3,2,Pin_2*%
%TO.N,VBUS*%
X136106895Y-111111555D03*
%TO.P,J3,1,Pin_1*%
%TO.N,GND*%
X136106895Y-108571555D03*
%TD*%
D11*
%TO.P,J5,S1,SHIELD*%
%TO.N,unconnected-(J5-SHIELD-PadS1)_3*%
X148981895Y-127321555D03*
D12*
%TO.N,unconnected-(J5-SHIELD-PadS1)_2*%
X148981895Y-123141555D03*
D11*
%TO.N,unconnected-(J5-SHIELD-PadS1)_1*%
X140341895Y-127321555D03*
D12*
%TO.N,unconnected-(J5-SHIELD-PadS1)*%
X140341895Y-123141555D03*
%TD*%
D13*
%TO.P,H2,1,1*%
%TO.N,GND*%
X153982000Y-103200000D03*
%TD*%
%TO.P,H4,1,1*%
%TO.N,GND*%
X153982000Y-126450000D03*
%TD*%
%TO.P,H1,1,1*%
%TO.N,GND*%
X135582000Y-103200000D03*
%TD*%
%TO.P,H3,1,1*%
%TO.N,GND*%
X135582000Y-126450000D03*
%TD*%
D14*
%TO.P,C5,2*%
%TO.N,GND*%
X155201895Y-80446555D03*
%TO.P,C5,1*%
%TO.N,+3.3V*%
X156161895Y-80446555D03*
%TD*%
D15*
%TO.P,R14,2*%
%TO.N,FIN_CS3*%
X155171895Y-88346555D03*
%TO.P,R14,1*%
%TO.N,Net-(J2-Pin_4)*%
X156191895Y-88346555D03*
%TD*%
D16*
%TO.P,R11,2*%
%TO.N,FIN_MISO*%
X134401895Y-90046555D03*
%TO.P,R11,1*%
%TO.N,Net-(J1-Pin_5)*%
X133381895Y-90046555D03*
%TD*%
%TO.P,R1,2*%
%TO.N,Net-(U2-EN)*%
X156191895Y-81846555D03*
%TO.P,R1,1*%
%TO.N,+3.3V*%
X155171895Y-81846555D03*
%TD*%
D17*
%TO.P,R4,2*%
%TO.N,GND*%
X143481895Y-125506555D03*
%TO.P,R4,1*%
%TO.N,Net-(J5-CC1)*%
X143481895Y-124486555D03*
%TD*%
D15*
%TO.P,R12,2*%
%TO.N,FIN_CS1*%
X155171895Y-85446555D03*
%TO.P,R12,1*%
%TO.N,Net-(J2-Pin_6)*%
X156191895Y-85446555D03*
%TD*%
D16*
%TO.P,R7,2*%
%TO.N,FIN_MOSI*%
X134381895Y-88846555D03*
%TO.P,R7,1*%
%TO.N,Net-(J1-Pin_4)*%
X133361895Y-88846555D03*
%TD*%
D18*
%TO.P,C3,2*%
%TO.N,GND*%
X156181895Y-84226555D03*
%TO.P,C3,1*%
%TO.N,Net-(U2-EN)*%
X156181895Y-83266555D03*
%TD*%
D19*
%TO.P,J4,9,SHIELD*%
%TO.N,GND*%
X137936895Y-109770255D03*
X137936895Y-117970256D03*
X151826895Y-109770255D03*
X151826895Y-117970256D03*
D20*
%TO.P,J4,8,DAT1*%
%TO.N,SD_DAT1*%
X149356895Y-115770256D03*
%TO.P,J4,7,DAT0*%
%TO.N,SD_DAT0*%
X148256895Y-115770256D03*
%TO.P,J4,6,VSS*%
%TO.N,GND*%
X147156894Y-115770256D03*
%TO.P,J4,5,CLK*%
%TO.N,SD_CLK*%
X146056894Y-115770256D03*
%TO.P,J4,4,VDD*%
%TO.N,+3.3V*%
X144956896Y-115770256D03*
%TO.P,J4,3,CMD*%
%TO.N,SD_CMD*%
X143856896Y-115770256D03*
%TO.P,J4,2,DAT3/CD*%
%TO.N,SD_DAT3*%
X142756895Y-115770256D03*
%TO.P,J4,1,DAT2*%
%TO.N,SD_DAT2*%
X141656895Y-115770256D03*
%TD*%
D15*
%TO.P,R8,2*%
%TO.N,FIN_CLK*%
X155171895Y-91146555D03*
%TO.P,R8,1*%
%TO.N,Net-(J2-Pin_2)*%
X156191895Y-91146555D03*
%TD*%
D16*
%TO.P,R6,2*%
%TO.N,FIN_SCK*%
X134291895Y-92346555D03*
%TO.P,R6,1*%
%TO.N,Net-(J1-Pin_6)*%
X133271895Y-92346555D03*
%TD*%
D21*
%TO.P,U2,41,GND*%
%TO.N,GND*%
X144867600Y-88300000D03*
X144867600Y-89700000D03*
X145567600Y-87600000D03*
X145567600Y-89000000D03*
X145567600Y-90400000D03*
X146267600Y-88300000D03*
D22*
X146267600Y-89000000D03*
D21*
X146267600Y-89700000D03*
X146967600Y-87600000D03*
X146967600Y-89000000D03*
X146967600Y-90400000D03*
X147667600Y-88300000D03*
X147667600Y-89700000D03*
D23*
%TO.P,U2,40,GND*%
X136017600Y-81280000D03*
%TO.P,U2,39,IO1*%
%TO.N,IMP_OUT1*%
X136017600Y-82550000D03*
%TO.P,U2,38,IO2*%
%TO.N,IMP_OUT2*%
X136017600Y-83820000D03*
%TO.P,U2,37,TXD0*%
%TO.N,unconnected-(U2-TXD0-Pad37)*%
X136017600Y-85090000D03*
%TO.P,U2,36,RXD0*%
%TO.N,unconnected-(U2-RXD0-Pad36)*%
X136017600Y-86360000D03*
%TO.P,U2,35,IO42*%
%TO.N,FIN_DRDY*%
X136017600Y-87630000D03*
%TO.P,U2,34,IO41*%
%TO.N,FIN_MOSI*%
X136017600Y-88900000D03*
%TO.P,U2,33,IO40*%
%TO.N,FIN_MISO*%
X136017600Y-90170000D03*
%TO.P,U2,32,IO39*%
%TO.N,FIN_SCK*%
X136017600Y-91440000D03*
%TO.P,U2,31,IO38*%
%TO.N,unconnected-(U2-IO38-Pad31)*%
X136017600Y-92710000D03*
%TO.P,U2,30,IO37*%
%TO.N,LSM_MOSI*%
X136017600Y-93980000D03*
%TO.P,U2,29,IO36*%
%TO.N,LSM_MISO*%
X136017600Y-95250000D03*
%TO.P,U2,28,IO35*%
%TO.N,LSM_INT1*%
X136017600Y-96520000D03*
%TO.P,U2,27,IO0*%
%TO.N,unconnected-(U2-IO0-Pad27)*%
X136017600Y-97790000D03*
D24*
%TO.P,U2,26,IO45*%
%TO.N,unconnected-(U2-IO45-Pad26)*%
X137782600Y-99040000D03*
%TO.P,U2,25,IO48*%
%TO.N,unconnected-(U2-IO48-Pad25)*%
X139052600Y-99040000D03*
%TO.P,U2,24,IO47*%
%TO.N,SD_DAT2*%
X140322600Y-99040000D03*
%TO.P,U2,23,IO21*%
%TO.N,SD_DAT3*%
X141592600Y-99040000D03*
%TO.P,U2,22,IO14*%
%TO.N,SD_CMD*%
X142862600Y-99040000D03*
%TO.P,U2,21,IO13*%
%TO.N,SD_CLK*%
X144132600Y-99040000D03*
%TO.P,U2,20,IO12*%
%TO.N,SD_DAT0*%
X145402600Y-99040000D03*
%TO.P,U2,19,IO11*%
%TO.N,SD_DAT1*%
X146672600Y-99040000D03*
%TO.P,U2,18,IO10*%
%TO.N,Remote Start 2*%
X147942600Y-99040000D03*
%TO.P,U2,17,IO9*%
%TO.N,Remote Start 1*%
X149212600Y-99040000D03*
%TO.P,U2,16,IO46*%
%TO.N,GND*%
X150482600Y-99040000D03*
%TO.P,U2,15,IO3*%
%TO.N,LSM_INT2*%
X151752600Y-99040000D03*
D23*
%TO.P,U2,14,USB_D+*%
%TO.N,USB_D+*%
X153517600Y-97790000D03*
%TO.P,U2,13,USB_D-*%
%TO.N,USB_D-*%
X153517600Y-96520000D03*
%TO.P,U2,12,IO8*%
%TO.N,LSM_CS*%
X153517600Y-95250000D03*
%TO.P,U2,11,IO18*%
%TO.N,LSM_SCK*%
X153517600Y-93980000D03*
%TO.P,U2,10,IO17*%
%TO.N,unconnected-(U2-IO17-Pad10)*%
X153517600Y-92710000D03*
%TO.P,U2,9,IO16*%
%TO.N,FIN_RST*%
X153517600Y-91440000D03*
%TO.P,U2,8,IO15*%
%TO.N,FIN_CLK*%
X153517600Y-90170000D03*
%TO.P,U2,7,IO7*%
%TO.N,FIN_CS4*%
X153517600Y-88900000D03*
%TO.P,U2,6,IO6*%
%TO.N,FIN_CS3*%
X153517600Y-87630000D03*
%TO.P,U2,5,IO5*%
%TO.N,FIN_CS2*%
X153517600Y-86360000D03*
%TO.P,U2,4,IO4*%
%TO.N,FIN_CS1*%
X153517600Y-85090000D03*
%TO.P,U2,3,EN*%
%TO.N,Net-(U2-EN)*%
X153517600Y-83820000D03*
%TO.P,U2,2,3V3*%
%TO.N,+3.3V*%
X153517600Y-82550000D03*
%TO.P,U2,1,GND*%
%TO.N,GND*%
X153517600Y-81280000D03*
%TD*%
D15*
%TO.P,R13,2*%
%TO.N,FIN_CS2*%
X155171895Y-86846555D03*
%TO.P,R13,1*%
%TO.N,Net-(J2-Pin_5)*%
X156191895Y-86846555D03*
%TD*%
%TO.P,R15,2*%
%TO.N,FIN_CS4*%
X155171895Y-89746555D03*
%TO.P,R15,1*%
%TO.N,Net-(J2-Pin_3)*%
X156191895Y-89746555D03*
%TD*%
D17*
%TO.P,R5,2*%
%TO.N,GND*%
X146231895Y-125506555D03*
%TO.P,R5,1*%
%TO.N,Net-(J5-CC2)*%
X146231895Y-124486555D03*
%TD*%
D25*
%TO.N,GND*%
X134481895Y-90946555D03*
X144781895Y-97346555D03*
X148481895Y-81446555D03*
%TO.N,+3.3V*%
X148981895Y-83746555D03*
%TO.N,GND*%
X148181895Y-82746555D03*
%TO.N,+3.3V*%
X148881895Y-118646555D03*
%TO.N,GND*%
X142981895Y-109746555D03*
%TO.N,+3.3V*%
X143256895Y-105246555D03*
%TO.N,GND*%
X142981895Y-102246555D03*
X144981895Y-109746555D03*
X137981895Y-85246555D03*
X152250362Y-90043964D03*
X152223613Y-85524835D03*
X152250801Y-87060929D03*
X152250801Y-88556242D03*
X141481895Y-105246555D03*
%TO.N,+3.3V*%
X144267601Y-85746555D03*
%TO.N,GND*%
X147231895Y-107746555D03*
X147081895Y-104146555D03*
X155201895Y-80446555D03*
X148731895Y-113996555D03*
X144999494Y-86343110D03*
X147231895Y-113996555D03*
X141481895Y-101246555D03*
X148231895Y-121246555D03*
X141481895Y-121246555D03*
X156181895Y-84226555D03*
%TO.N,+3.3V*%
X156161895Y-80446555D03*
X139331895Y-86146555D03*
X148481895Y-95846555D03*
X144181895Y-118246555D03*
X148981895Y-97146555D03*
%TO.N,USB_D-*%
X150931374Y-100946034D03*
X143736895Y-120746555D03*
X153517600Y-96520000D03*
%TO.N,USB_D+*%
X151532416Y-101547076D03*
X144586895Y-120746555D03*
X153517600Y-97790000D03*
%TO.N,Net-(J5-CC2)*%
X146231895Y-123746555D03*
%TO.N,Remote Start 1*%
X149481895Y-100746555D03*
%TO.N,Remote Start 2*%
X147981895Y-100496555D03*
%TO.N,Net-(J5-CC1)*%
X143481895Y-123746555D03*
%TO.N,Net-(J1-Pin_6)*%
X133281895Y-93446555D03*
%TO.N,LSM_CS*%
X151381895Y-83546555D03*
%TO.N,LSM_MISO*%
X140781895Y-83446555D03*
%TO.N,LSM_INT2*%
X147481895Y-83946555D03*
%TO.N,LSM_INT1*%
X142281895Y-84846555D03*
%TO.N,LSM_MOSI*%
X139881895Y-83446555D03*
%TO.N,FIN_DRDY*%
X137381895Y-90546555D03*
%TO.N,FIN_RST*%
X152181895Y-92046555D03*
%TO.N,LSM_SCK*%
X152093410Y-83783727D03*
%TO.N,Net-(J1-Pin_4)*%
X133381895Y-87746555D03*
%TO.N,Net-(J2-Pin_2)*%
X156181895Y-92146555D03*
%TO.N,IMP_OUT1*%
X138081895Y-82546555D03*
%TO.N,IMP_OUT2*%
X138681895Y-83089449D03*
%TO.N,Net-(J1-Pin_5)*%
X133381895Y-91046555D03*
%TO.N,Net-(J2-Pin_6)*%
X156081895Y-85446555D03*
%TO.N,Net-(J2-Pin_4)*%
X156181895Y-88346555D03*
%TO.N,Net-(J2-Pin_3)*%
X156181895Y-89746555D03*
%TO.N,Net-(J2-Pin_5)*%
X156081895Y-86846555D03*
%TD*%
D26*
%TO.N,LSM_INT2*%
X151752600Y-99040000D02*
X151752600Y-95275850D01*
X151752600Y-95275850D02*
X148781895Y-92305145D01*
X148781895Y-92305145D02*
X148781895Y-85246555D01*
X148781895Y-85246555D02*
X147481895Y-83946555D01*
%TO.N,FIN_SCK*%
X136017600Y-91440000D02*
X136011045Y-91446555D01*
X136011045Y-91446555D02*
X134781895Y-91446555D01*
X134781895Y-91446555D02*
X134291895Y-91936555D01*
X134291895Y-91936555D02*
X134291895Y-92346555D01*
%TO.N,LSM_SCK*%
X153217600Y-93980000D02*
X153517600Y-93980000D01*
X151630895Y-84433258D02*
X151630895Y-92393295D01*
X152093410Y-83783727D02*
X152093410Y-83970743D01*
X152093410Y-83970743D02*
X151630895Y-84433258D01*
X151630895Y-92393295D02*
X153217600Y-93980000D01*
%TO.N,USB_D+*%
X151532416Y-101547076D02*
X151249573Y-101547076D01*
X149552079Y-117946555D02*
X147386895Y-117946555D01*
X151249573Y-101547076D02*
X150514275Y-102282374D01*
X147386895Y-117946555D02*
X144586895Y-120746555D01*
X150514275Y-102282374D02*
X150514275Y-116984359D01*
X150514275Y-116984359D02*
X149552079Y-117946555D01*
%TO.N,USB_D-*%
X150931374Y-101228877D02*
X150064295Y-102095956D01*
X150064295Y-116808136D02*
X149375856Y-117496575D01*
X150931374Y-100946034D02*
X150931374Y-101228877D01*
X150064295Y-102095956D02*
X150064295Y-116808136D01*
X149375856Y-117496575D02*
X146986875Y-117496575D01*
X146986875Y-117496575D02*
X143736895Y-120746555D01*
%TO.N,SD_DAT3*%
X142481895Y-115495256D02*
X142481895Y-110246555D01*
X142756895Y-115770256D02*
X142481895Y-115495256D01*
X142481895Y-110246555D02*
X142430895Y-110195555D01*
X142430895Y-110195555D02*
X142430895Y-100178295D01*
X142430895Y-100178295D02*
X141592600Y-99340000D01*
X141592600Y-99340000D02*
X141592600Y-99040000D01*
%TO.N,GND*%
X147156894Y-114071556D02*
X147231895Y-113996555D01*
X147156894Y-115770256D02*
X147156894Y-114071556D01*
%TO.N,+3.3V*%
X153517600Y-82550000D02*
X154468450Y-82550000D01*
X155171895Y-81436555D02*
X156161895Y-80446555D01*
X144956896Y-117471554D02*
X144181895Y-118246555D01*
X154468450Y-82550000D02*
X155171895Y-81846555D01*
X144956896Y-115770256D02*
X144956896Y-117471554D01*
X155171895Y-81846555D02*
X155171895Y-81436555D01*
%TO.N,Net-(J5-CC2)*%
X146231895Y-123746555D02*
X146231895Y-124486555D01*
%TO.N,Remote Start 1*%
X149481895Y-100746555D02*
X149481895Y-99309295D01*
X149481895Y-99309295D02*
X149212600Y-99040000D01*
%TO.N,Remote Start 2*%
X147981895Y-99079295D02*
X147942600Y-99040000D01*
X147981895Y-100496555D02*
X147981895Y-99079295D01*
%TO.N,Net-(U2-EN)*%
X156191895Y-81846555D02*
X156191895Y-82956555D01*
X156181895Y-82966555D02*
X156181895Y-83266555D01*
X154467600Y-83820000D02*
X156191895Y-82095705D01*
X156191895Y-82095705D02*
X156191895Y-81846555D01*
X153517600Y-83820000D02*
X154467600Y-83820000D01*
X156191895Y-82956555D02*
X156181895Y-82966555D01*
%TO.N,Net-(J5-CC1)*%
X143481895Y-123746555D02*
X143481895Y-124486555D01*
%TO.N,Net-(J1-Pin_6)*%
X133281895Y-92356555D02*
X133271895Y-92346555D01*
X133281895Y-93446555D02*
X133281895Y-92356555D01*
%TO.N,LSM_CS*%
X153217600Y-95250000D02*
X153517600Y-95250000D01*
X151279895Y-83648555D02*
X151279895Y-93312295D01*
X151279895Y-93312295D02*
X153217600Y-95250000D01*
X151381895Y-83546555D02*
X151279895Y-83648555D01*
%TO.N,LSM_MISO*%
X140781895Y-90785705D02*
X136317600Y-95250000D01*
X140781895Y-83446555D02*
X140781895Y-90785705D01*
X136317600Y-95250000D02*
X136017600Y-95250000D01*
%TO.N,LSM_INT1*%
X142281895Y-84846555D02*
X142281895Y-91746555D01*
X142281895Y-91746555D02*
X137508450Y-96520000D01*
X137508450Y-96520000D02*
X136017600Y-96520000D01*
X136291045Y-96246555D02*
X136017600Y-96520000D01*
%TO.N,LSM_MOSI*%
X136967600Y-93980000D02*
X136017600Y-93980000D01*
X136034155Y-93996555D02*
X136017600Y-93980000D01*
X139881895Y-83446555D02*
X139881895Y-91065705D01*
X139881895Y-91065705D02*
X136967600Y-93980000D01*
%TO.N,FIN_CS3*%
X154455340Y-87630000D02*
X155171895Y-88346555D01*
X153517600Y-87630000D02*
X154455340Y-87630000D01*
%TO.N,FIN_CS2*%
X153517600Y-86360000D02*
X154685340Y-86360000D01*
X154685340Y-86360000D02*
X155171895Y-86846555D01*
%TO.N,FIN_CS1*%
X153874155Y-85446555D02*
X153517600Y-85090000D01*
X155171895Y-85446555D02*
X153874155Y-85446555D01*
%TO.N,FIN_CS4*%
X154325340Y-88900000D02*
X155171895Y-89746555D01*
X153517600Y-88900000D02*
X154325340Y-88900000D01*
%TO.N,FIN_MOSI*%
X135964155Y-88846555D02*
X136017600Y-88900000D01*
X134381895Y-88846555D02*
X135964155Y-88846555D01*
%TO.N,FIN_CLK*%
X154195340Y-90170000D02*
X155171895Y-91146555D01*
X153517600Y-90170000D02*
X154195340Y-90170000D01*
%TO.N,FIN_DRDY*%
X137217602Y-87732262D02*
X137115340Y-87630000D01*
X137217602Y-90382262D02*
X137381895Y-90546555D01*
X137115340Y-87630000D02*
X136017600Y-87630000D01*
X137217602Y-87732262D02*
X137217602Y-90382262D01*
%TO.N,FIN_MISO*%
X135894155Y-90046555D02*
X136017600Y-90170000D01*
X136017600Y-90170000D02*
X136655340Y-90170000D01*
X134401895Y-90046555D02*
X135894155Y-90046555D01*
%TO.N,FIN_RST*%
X153517600Y-91440000D02*
X152788450Y-91440000D01*
X152788450Y-91440000D02*
X152181895Y-92046555D01*
%TO.N,SD_DAT2*%
X141656895Y-115770256D02*
X140322600Y-114435961D01*
X140322600Y-114435961D02*
X140322600Y-99040000D01*
%TO.N,SD_CLK*%
X146056894Y-115770256D02*
X146056894Y-101496294D01*
X146056894Y-101496294D02*
X144132600Y-99572000D01*
X144132600Y-99572000D02*
X144132600Y-99040000D01*
%TO.N,SD_DAT1*%
X149356895Y-102721498D02*
X146672600Y-100037203D01*
X149356895Y-115770256D02*
X149356895Y-102721498D01*
X146672600Y-100037203D02*
X146672600Y-99040000D01*
%TO.N,SD_DAT0*%
X148256895Y-115770256D02*
X148130895Y-115644256D01*
X148130895Y-102718295D02*
X145402600Y-99990000D01*
X145402600Y-99990000D02*
X145402600Y-99040000D01*
X148130895Y-115644256D02*
X148130895Y-102718295D01*
%TO.N,SD_CMD*%
X143856896Y-100646555D02*
X143856896Y-100566296D01*
X142862600Y-99572000D02*
X142862600Y-99040000D01*
X143856896Y-100566296D02*
X142862600Y-99572000D01*
X143856896Y-115770256D02*
X143856896Y-100646555D01*
%TO.N,Net-(J1-Pin_4)*%
X133381895Y-88826555D02*
X133361895Y-88846555D01*
X133381895Y-87746555D02*
X133381895Y-88826555D01*
%TO.N,Net-(J2-Pin_2)*%
X156181895Y-92146555D02*
X156181895Y-91156555D01*
X156181895Y-91156555D02*
X156191895Y-91146555D01*
%TO.N,IMP_OUT1*%
X138181895Y-82546555D02*
X138178450Y-82550000D01*
X138178450Y-82550000D02*
X136017600Y-82550000D01*
%TO.N,IMP_OUT2*%
X138681895Y-83089449D02*
X137951344Y-83820000D01*
X137951344Y-83820000D02*
X136017600Y-83820000D01*
%TO.N,Net-(J1-Pin_5)*%
X133381895Y-91046555D02*
X133381895Y-90046555D01*
%TD*%
%TA.AperFunction,Conductor*%
%TO.N,GND*%
G36*
X154633358Y-79809685D02*
G01*
X154679113Y-79862489D01*
X154689057Y-79931647D01*
X154665586Y-79988311D01*
X154627411Y-80039305D01*
X154578168Y-80171330D01*
X154571895Y-80229668D01*
X154571895Y-80246555D01*
X155077895Y-80246555D01*
X155086580Y-80249105D01*
X155095542Y-80247817D01*
X155119582Y-80258795D01*
X155144934Y-80266240D01*
X155150861Y-80273080D01*
X155159098Y-80276842D01*
X155173387Y-80299076D01*
X155190689Y-80319044D01*
X155192976Y-80329558D01*
X155196872Y-80335620D01*
X155201895Y-80370555D01*
X155201895Y-80522555D01*
X155182210Y-80589594D01*
X155129406Y-80635349D01*
X155077895Y-80646555D01*
X154565895Y-80646555D01*
X154498856Y-80626870D01*
X154453101Y-80574066D01*
X154442918Y-80527258D01*
X154441895Y-80525620D01*
X154368854Y-80489914D01*
X154368844Y-80489910D01*
X154300820Y-80480000D01*
X153717600Y-80480000D01*
X153717600Y-81080000D01*
X154617597Y-81080000D01*
X154646823Y-81050774D01*
X154673006Y-81036476D01*
X154697865Y-81019992D01*
X154703339Y-81019913D01*
X154708146Y-81017289D01*
X154737897Y-81019416D01*
X154767728Y-81018988D01*
X154773825Y-81021986D01*
X154777838Y-81022273D01*
X154800040Y-81033188D01*
X154845347Y-81061394D01*
X154860662Y-81078564D01*
X154879080Y-81092352D01*
X154883477Y-81104142D01*
X154891855Y-81113535D01*
X154895456Y-81136261D01*
X154903496Y-81157817D01*
X154900821Y-81170112D01*
X154902791Y-81182544D01*
X154893533Y-81203609D01*
X154888643Y-81226090D01*
X154887200Y-81228659D01*
X154859838Y-81276053D01*
X154859834Y-81276060D01*
X154842148Y-81306690D01*
X154816160Y-81335317D01*
X154817058Y-81336215D01*
X154809794Y-81343478D01*
X154809793Y-81343479D01*
X154718820Y-81434452D01*
X154711553Y-81441719D01*
X154709098Y-81439264D01*
X154668395Y-81471182D01*
X154622470Y-81480000D01*
X152417601Y-81480000D01*
X152417601Y-81763217D01*
X152427512Y-81831249D01*
X152478815Y-81936191D01*
X152486965Y-81944341D01*
X152520450Y-82005664D01*
X152520901Y-82056213D01*
X152517100Y-82075321D01*
X152517100Y-83024678D01*
X152531632Y-83097735D01*
X152531633Y-83097738D01*
X152531633Y-83097739D01*
X152531634Y-83097740D01*
X152537053Y-83105850D01*
X152543909Y-83116111D01*
X152549882Y-83135190D01*
X152560388Y-83152198D01*
X152560107Y-83167850D01*
X152564785Y-83182789D01*
X152559495Y-83202068D01*
X152559138Y-83222057D01*
X152547121Y-83247172D01*
X152546299Y-83250169D01*
X152543905Y-83253894D01*
X152534044Y-83268651D01*
X152480430Y-83313454D01*
X152411105Y-83322160D01*
X152368944Y-83307144D01*
X152305898Y-83270744D01*
X152305899Y-83270744D01*
X152294416Y-83267667D01*
X152165885Y-83233227D01*
X152020935Y-83233227D01*
X151952004Y-83251697D01*
X151882154Y-83250034D01*
X151828630Y-83213807D01*
X151828151Y-83214287D01*
X151825662Y-83211798D01*
X151824292Y-83210871D01*
X151822561Y-83208697D01*
X151719912Y-83106048D01*
X151719906Y-83106043D01*
X151594383Y-83033572D01*
X151594384Y-83033572D01*
X151561176Y-83024674D01*
X151454370Y-82996055D01*
X151309420Y-82996055D01*
X151202614Y-83024674D01*
X151169406Y-83033572D01*
X151043883Y-83106043D01*
X151043877Y-83106048D01*
X150941388Y-83208537D01*
X150941383Y-83208543D01*
X150868912Y-83334066D01*
X150868911Y-83334070D01*
X150831395Y-83474080D01*
X150831395Y-83619030D01*
X150868911Y-83759040D01*
X150912782Y-83835027D01*
X150929395Y-83897026D01*
X150929395Y-93358439D01*
X150943345Y-93410501D01*
X150953280Y-93447581D01*
X150999422Y-93527503D01*
X150999426Y-93527508D01*
X152480781Y-95008863D01*
X152514266Y-95070186D01*
X152517100Y-95096544D01*
X152517100Y-95724678D01*
X152531632Y-95797735D01*
X152531633Y-95797738D01*
X152543909Y-95816111D01*
X152564785Y-95882789D01*
X152546299Y-95950169D01*
X152543909Y-95953889D01*
X152531633Y-95972261D01*
X152531632Y-95972264D01*
X152517100Y-96045321D01*
X152517100Y-96994678D01*
X152531632Y-97067735D01*
X152531633Y-97067738D01*
X152543909Y-97086111D01*
X152564785Y-97152789D01*
X152546299Y-97220169D01*
X152543909Y-97223889D01*
X152531633Y-97242261D01*
X152531632Y-97242264D01*
X152517100Y-97315321D01*
X152517100Y-97966880D01*
X152497415Y-98033919D01*
X152444611Y-98079674D01*
X152375453Y-98089618D01*
X152356436Y-98085336D01*
X152339206Y-98080003D01*
X152300340Y-98054034D01*
X152227274Y-98039500D01*
X152208348Y-98039500D01*
X152190436Y-98033956D01*
X152176315Y-98024587D01*
X152160061Y-98019815D01*
X152147808Y-98005675D01*
X152132214Y-97995329D01*
X152125399Y-97979814D01*
X152114306Y-97967011D01*
X152108936Y-97942327D01*
X152104118Y-97931357D01*
X152105143Y-97924893D01*
X152103100Y-97915500D01*
X152103100Y-95229708D01*
X152103100Y-95229706D01*
X152079214Y-95140562D01*
X152038582Y-95070186D01*
X152033073Y-95060644D01*
X152033070Y-95060641D01*
X152033069Y-95060638D01*
X151967812Y-94995381D01*
X149168714Y-92196282D01*
X149135229Y-92134959D01*
X149132395Y-92108601D01*
X149132395Y-85200413D01*
X149132395Y-85200411D01*
X149108509Y-85111267D01*
X149099726Y-85096055D01*
X149097655Y-85092467D01*
X149097653Y-85092465D01*
X149078357Y-85059043D01*
X149062365Y-85031343D01*
X148068714Y-84037692D01*
X148035229Y-83976369D01*
X148032395Y-83950011D01*
X148032395Y-83874082D01*
X148032395Y-83874080D01*
X147994879Y-83734070D01*
X147994877Y-83734066D01*
X147991349Y-83727955D01*
X147991348Y-83727954D01*
X147985946Y-83718599D01*
X147960243Y-83674080D01*
X148431395Y-83674080D01*
X148431395Y-83819030D01*
X148460042Y-83925941D01*
X148468912Y-83959043D01*
X148541383Y-84084566D01*
X148541385Y-84084568D01*
X148541386Y-84084570D01*
X148643880Y-84187064D01*
X148643881Y-84187065D01*
X148643883Y-84187066D01*
X148769406Y-84259537D01*
X148769407Y-84259537D01*
X148769410Y-84259539D01*
X148909420Y-84297055D01*
X148909423Y-84297055D01*
X149054367Y-84297055D01*
X149054370Y-84297055D01*
X149194380Y-84259539D01*
X149319910Y-84187064D01*
X149422404Y-84084570D01*
X149494879Y-83959040D01*
X149532395Y-83819030D01*
X149532395Y-83674080D01*
X149494879Y-83534070D01*
X149492503Y-83529955D01*
X149422406Y-83408543D01*
X149422401Y-83408537D01*
X149319912Y-83306048D01*
X149319906Y-83306043D01*
X149194383Y-83233572D01*
X149194384Y-83233572D01*
X149182901Y-83230495D01*
X149054370Y-83196055D01*
X148909420Y-83196055D01*
X148780888Y-83230495D01*
X148769406Y-83233572D01*
X148643883Y-83306043D01*
X148643877Y-83306048D01*
X148541388Y-83408537D01*
X148541383Y-83408543D01*
X148468912Y-83534066D01*
X148468911Y-83534070D01*
X148431395Y-83674080D01*
X147960243Y-83674080D01*
X147922404Y-83608540D01*
X147819910Y-83506046D01*
X147819908Y-83506045D01*
X147819906Y-83506043D01*
X147694383Y-83433572D01*
X147694384Y-83433572D01*
X147676922Y-83428893D01*
X147554370Y-83396055D01*
X147409420Y-83396055D01*
X147286868Y-83428893D01*
X147269406Y-83433572D01*
X147143883Y-83506043D01*
X147143877Y-83506048D01*
X147041388Y-83608537D01*
X147041383Y-83608543D01*
X146968912Y-83734066D01*
X146968911Y-83734070D01*
X146931395Y-83874080D01*
X146931395Y-84019030D01*
X146966941Y-84151687D01*
X146968912Y-84159043D01*
X147041383Y-84284566D01*
X147041385Y-84284568D01*
X147041386Y-84284570D01*
X147143880Y-84387064D01*
X147143881Y-84387065D01*
X147143883Y-84387066D01*
X147269406Y-84459537D01*
X147269407Y-84459537D01*
X147269410Y-84459539D01*
X147409420Y-84497055D01*
X147485351Y-84497055D01*
X147552390Y-84516740D01*
X147573032Y-84533374D01*
X148395076Y-85355418D01*
X148428561Y-85416741D01*
X148431395Y-85443099D01*
X148431395Y-92351290D01*
X148449741Y-92419760D01*
X148455280Y-92440431D01*
X148455282Y-92440436D01*
X148501422Y-92520353D01*
X148501424Y-92520356D01*
X148501425Y-92520357D01*
X149940607Y-93959539D01*
X151365781Y-95384712D01*
X151399266Y-95446035D01*
X151402100Y-95472393D01*
X151402100Y-97915500D01*
X151402072Y-97915593D01*
X151402100Y-97915688D01*
X151392153Y-97949374D01*
X151382415Y-97982539D01*
X151382341Y-97982602D01*
X151382314Y-97982697D01*
X151355654Y-98005726D01*
X151329611Y-98028294D01*
X151329490Y-98028329D01*
X151329441Y-98028372D01*
X151329069Y-98028452D01*
X151295561Y-98038264D01*
X151286871Y-98039500D01*
X151277926Y-98039500D01*
X151255480Y-98043964D01*
X151252083Y-98044448D01*
X151220759Y-98039896D01*
X151189221Y-98037074D01*
X151185767Y-98034810D01*
X151182940Y-98034400D01*
X151176193Y-98028536D01*
X151146941Y-98009365D01*
X151138788Y-98001212D01*
X151033851Y-97949912D01*
X151033848Y-97949911D01*
X150965820Y-97940000D01*
X150682600Y-97940000D01*
X150682600Y-100139999D01*
X150965818Y-100139999D01*
X151033849Y-100130087D01*
X151138785Y-100078787D01*
X151138789Y-100078785D01*
X151146937Y-100070637D01*
X151208259Y-100037150D01*
X151258812Y-100036698D01*
X151277926Y-100040500D01*
X152227276Y-100040500D01*
X152227277Y-100040499D01*
X152300340Y-100025966D01*
X152383201Y-99970601D01*
X152438566Y-99887740D01*
X152453100Y-99814674D01*
X152453100Y-98563119D01*
X152472785Y-98496080D01*
X152525589Y-98450325D01*
X152594747Y-98440381D01*
X152645989Y-98460016D01*
X152669860Y-98475966D01*
X152669862Y-98475966D01*
X152669864Y-98475967D01*
X152742921Y-98490499D01*
X152742924Y-98490500D01*
X152742926Y-98490500D01*
X154292276Y-98490500D01*
X154292277Y-98490499D01*
X154365340Y-98475966D01*
X154448201Y-98420601D01*
X154503566Y-98337740D01*
X154518100Y-98264674D01*
X154518100Y-97315326D01*
X154518100Y-97315323D01*
X154518099Y-97315321D01*
X154503567Y-97242264D01*
X154503566Y-97242261D01*
X154503566Y-97242260D01*
X154491291Y-97223889D01*
X154470414Y-97157214D01*
X154488898Y-97089834D01*
X154491292Y-97086109D01*
X154499328Y-97074082D01*
X154503566Y-97067740D01*
X154518100Y-96994674D01*
X154518100Y-96045326D01*
X154518100Y-96045323D01*
X154518099Y-96045321D01*
X154503567Y-95972264D01*
X154503566Y-95972261D01*
X154503566Y-95972260D01*
X154491291Y-95953889D01*
X154470414Y-95887214D01*
X154488898Y-95819834D01*
X154491292Y-95816109D01*
X154503566Y-95797740D01*
X154518100Y-95724674D01*
X154518100Y-94775326D01*
X154518100Y-94775323D01*
X154518099Y-94775321D01*
X154503567Y-94702264D01*
X154503566Y-94702261D01*
X154503566Y-94702260D01*
X154491291Y-94683889D01*
X154470414Y-94617214D01*
X154488898Y-94549834D01*
X154491292Y-94546109D01*
X154503566Y-94527740D01*
X154518100Y-94454674D01*
X154518100Y-93505326D01*
X154518100Y-93505323D01*
X154518099Y-93505321D01*
X154503567Y-93432264D01*
X154503566Y-93432261D01*
X154503566Y-93432260D01*
X154491291Y-93413889D01*
X154470414Y-93347214D01*
X154488898Y-93279834D01*
X154491292Y-93276109D01*
X154503566Y-93257740D01*
X154518100Y-93184674D01*
X154518100Y-92235326D01*
X154518100Y-92235323D01*
X154518099Y-92235321D01*
X154503567Y-92162264D01*
X154503566Y-92162262D01*
X154503566Y-92162260D01*
X154491291Y-92143889D01*
X154470414Y-92077214D01*
X154488898Y-92009834D01*
X154491292Y-92006109D01*
X154503566Y-91987740D01*
X154518100Y-91914674D01*
X154518100Y-91657301D01*
X154537785Y-91590262D01*
X154590589Y-91544507D01*
X154659747Y-91534563D01*
X154723303Y-91563588D01*
X154729781Y-91569620D01*
X154809792Y-91649631D01*
X154809795Y-91649633D01*
X154920551Y-91703777D01*
X154925377Y-91706137D01*
X155000313Y-91717055D01*
X155000318Y-91717055D01*
X155343472Y-91717055D01*
X155343477Y-91717055D01*
X155418413Y-91706137D01*
X155502627Y-91664967D01*
X155533994Y-91649633D01*
X155533997Y-91649631D01*
X155594214Y-91589415D01*
X155602159Y-91585076D01*
X155607585Y-91577829D01*
X155632344Y-91568594D01*
X155655537Y-91555930D01*
X155664566Y-91556575D01*
X155673049Y-91553412D01*
X155698869Y-91559028D01*
X155725229Y-91560914D01*
X155734282Y-91566732D01*
X155741322Y-91568264D01*
X155769576Y-91589415D01*
X155777362Y-91597201D01*
X155810847Y-91658524D01*
X155805863Y-91728216D01*
X155777363Y-91772562D01*
X155741389Y-91808536D01*
X155741383Y-91808543D01*
X155668912Y-91934066D01*
X155668911Y-91934070D01*
X155631395Y-92074080D01*
X155631395Y-92219030D01*
X155668911Y-92359040D01*
X155668912Y-92359043D01*
X155741383Y-92484566D01*
X155741385Y-92484568D01*
X155741386Y-92484570D01*
X155843880Y-92587064D01*
X155843881Y-92587065D01*
X155843883Y-92587066D01*
X155969406Y-92659537D01*
X155969407Y-92659537D01*
X155969410Y-92659539D01*
X156109420Y-92697055D01*
X156109423Y-92697055D01*
X156254367Y-92697055D01*
X156254370Y-92697055D01*
X156394380Y-92659539D01*
X156519910Y-92587064D01*
X156622404Y-92484570D01*
X156694879Y-92359040D01*
X156732395Y-92219030D01*
X156732395Y-92074080D01*
X156694879Y-91934070D01*
X156693796Y-91932195D01*
X156622406Y-91808543D01*
X156622401Y-91808537D01*
X156596427Y-91782563D01*
X156562942Y-91721240D01*
X156567926Y-91651548D01*
X156596428Y-91607200D01*
X156644971Y-91558657D01*
X156644973Y-91558654D01*
X156676961Y-91493221D01*
X156701477Y-91443073D01*
X156712395Y-91368137D01*
X156712395Y-90924973D01*
X156701477Y-90850037D01*
X156672317Y-90790389D01*
X156644973Y-90734455D01*
X156644971Y-90734452D01*
X156553997Y-90643478D01*
X156553994Y-90643476D01*
X156438416Y-90586974D01*
X156438414Y-90586973D01*
X156438413Y-90586973D01*
X156363477Y-90576055D01*
X156020313Y-90576055D01*
X155945377Y-90586973D01*
X155945375Y-90586973D01*
X155945373Y-90586974D01*
X155829795Y-90643476D01*
X155829792Y-90643478D01*
X155769576Y-90703695D01*
X155708253Y-90737180D01*
X155638561Y-90732196D01*
X155594214Y-90703695D01*
X155533997Y-90643478D01*
X155533994Y-90643476D01*
X155418416Y-90586974D01*
X155418414Y-90586973D01*
X155418413Y-90586973D01*
X155343477Y-90576055D01*
X155343472Y-90576055D01*
X155148438Y-90576055D01*
X155118997Y-90567410D01*
X155089011Y-90560887D01*
X155083995Y-90557132D01*
X155081399Y-90556370D01*
X155060757Y-90539736D01*
X155049757Y-90528736D01*
X155016272Y-90467413D01*
X155021256Y-90397721D01*
X155063128Y-90341788D01*
X155128592Y-90317371D01*
X155137438Y-90317055D01*
X155343472Y-90317055D01*
X155343477Y-90317055D01*
X155418413Y-90306137D01*
X155496155Y-90268131D01*
X155533994Y-90249633D01*
X155533997Y-90249631D01*
X155594214Y-90189415D01*
X155655537Y-90155930D01*
X155725229Y-90160914D01*
X155769576Y-90189415D01*
X155829792Y-90249631D01*
X155829795Y-90249633D01*
X155940551Y-90303777D01*
X155945377Y-90306137D01*
X156020313Y-90317055D01*
X156020318Y-90317055D01*
X156363472Y-90317055D01*
X156363477Y-90317055D01*
X156438413Y-90306137D01*
X156516155Y-90268131D01*
X156553994Y-90249633D01*
X156553997Y-90249631D01*
X156644971Y-90158657D01*
X156644973Y-90158654D01*
X156673224Y-90100865D01*
X156701477Y-90043073D01*
X156712395Y-89968137D01*
X156712395Y-89909995D01*
X156716133Y-89879780D01*
X156716375Y-89878814D01*
X156732395Y-89819030D01*
X156732395Y-89815054D01*
X156735238Y-89803739D01*
X156749471Y-89779543D01*
X156760829Y-89753871D01*
X156766947Y-89749835D01*
X156769528Y-89745447D01*
X156736523Y-89694090D01*
X156732561Y-89675344D01*
X156732395Y-89674084D01*
X156732395Y-89674080D01*
X156718511Y-89622264D01*
X156716620Y-89615205D01*
X156712395Y-89583113D01*
X156712395Y-89524978D01*
X156712395Y-89524973D01*
X156701477Y-89450037D01*
X156685353Y-89417055D01*
X156644973Y-89334455D01*
X156644971Y-89334452D01*
X156553997Y-89243478D01*
X156553994Y-89243476D01*
X156438416Y-89186974D01*
X156438414Y-89186973D01*
X156438413Y-89186973D01*
X156363477Y-89176055D01*
X156020313Y-89176055D01*
X155945377Y-89186973D01*
X155945375Y-89186973D01*
X155945373Y-89186974D01*
X155829795Y-89243476D01*
X155829792Y-89243478D01*
X155769576Y-89303695D01*
X155708253Y-89337180D01*
X155638561Y-89332196D01*
X155594214Y-89303695D01*
X155533997Y-89243478D01*
X155533994Y-89243476D01*
X155418416Y-89186974D01*
X155418414Y-89186973D01*
X155418413Y-89186973D01*
X155343477Y-89176055D01*
X155343472Y-89176055D01*
X155148439Y-89176055D01*
X155118998Y-89167410D01*
X155089012Y-89160887D01*
X155083996Y-89157132D01*
X155081400Y-89156370D01*
X155060758Y-89139736D01*
X155049758Y-89128736D01*
X155016273Y-89067413D01*
X155021257Y-88997721D01*
X155063129Y-88941788D01*
X155128593Y-88917371D01*
X155137439Y-88917055D01*
X155343472Y-88917055D01*
X155343477Y-88917055D01*
X155418413Y-88906137D01*
X155476205Y-88877884D01*
X155533994Y-88849633D01*
X155533997Y-88849631D01*
X155594214Y-88789415D01*
X155655537Y-88755930D01*
X155725229Y-88760914D01*
X155769576Y-88789415D01*
X155829792Y-88849631D01*
X155829795Y-88849633D01*
X155940551Y-88903777D01*
X155945377Y-88906137D01*
X156020313Y-88917055D01*
X156020318Y-88917055D01*
X156363472Y-88917055D01*
X156363477Y-88917055D01*
X156438413Y-88906137D01*
X156496205Y-88877884D01*
X156553994Y-88849633D01*
X156553997Y-88849631D01*
X156644971Y-88758657D01*
X156644973Y-88758654D01*
X156673224Y-88700865D01*
X156701477Y-88643073D01*
X156712395Y-88568137D01*
X156712395Y-88509995D01*
X156716133Y-88479780D01*
X156716375Y-88478814D01*
X156732395Y-88419030D01*
X156732395Y-88415054D01*
X156735238Y-88403739D01*
X156749471Y-88379543D01*
X156760829Y-88353871D01*
X156766947Y-88349835D01*
X156769528Y-88345447D01*
X156736523Y-88294090D01*
X156732561Y-88275344D01*
X156732395Y-88274084D01*
X156732395Y-88274080D01*
X156728025Y-88257772D01*
X156716620Y-88215205D01*
X156712395Y-88183113D01*
X156712395Y-88124978D01*
X156712395Y-88124973D01*
X156701477Y-88050037D01*
X156699117Y-88045211D01*
X156644973Y-87934455D01*
X156644971Y-87934452D01*
X156553997Y-87843478D01*
X156553994Y-87843476D01*
X156438416Y-87786974D01*
X156438414Y-87786973D01*
X156438413Y-87786973D01*
X156363477Y-87776055D01*
X156020313Y-87776055D01*
X155945377Y-87786973D01*
X155945375Y-87786973D01*
X155945373Y-87786974D01*
X155829795Y-87843476D01*
X155829792Y-87843478D01*
X155769576Y-87903695D01*
X155708253Y-87937180D01*
X155638561Y-87932196D01*
X155594214Y-87903695D01*
X155533997Y-87843478D01*
X155533994Y-87843476D01*
X155418416Y-87786974D01*
X155418414Y-87786973D01*
X155418413Y-87786973D01*
X155343477Y-87776055D01*
X155343472Y-87776055D01*
X155148439Y-87776055D01*
X155118998Y-87767410D01*
X155089012Y-87760887D01*
X155083996Y-87757132D01*
X155081400Y-87756370D01*
X155060758Y-87739736D01*
X154949758Y-87628736D01*
X154916273Y-87567413D01*
X154921257Y-87497721D01*
X154963129Y-87441788D01*
X155028593Y-87417371D01*
X155037439Y-87417055D01*
X155343472Y-87417055D01*
X155343477Y-87417055D01*
X155418413Y-87406137D01*
X155476205Y-87377884D01*
X155533994Y-87349633D01*
X155533997Y-87349631D01*
X155583629Y-87299999D01*
X155608573Y-87286377D01*
X155631889Y-87270112D01*
X155638844Y-87269847D01*
X155644952Y-87266513D01*
X155673299Y-87268540D01*
X155701708Y-87267462D01*
X155709241Y-87271110D01*
X155714644Y-87271497D01*
X155734346Y-87280896D01*
X155742561Y-87285745D01*
X155743880Y-87287064D01*
X155785551Y-87311122D01*
X155786014Y-87311396D01*
X155786645Y-87312071D01*
X155810657Y-87330495D01*
X155829692Y-87349530D01*
X155829795Y-87349633D01*
X155940551Y-87403777D01*
X155945377Y-87406137D01*
X156020313Y-87417055D01*
X156020318Y-87417055D01*
X156363472Y-87417055D01*
X156363477Y-87417055D01*
X156438413Y-87406137D01*
X156496205Y-87377884D01*
X156553994Y-87349633D01*
X156553997Y-87349631D01*
X156644971Y-87258657D01*
X156644973Y-87258654D01*
X156678130Y-87190829D01*
X156701477Y-87143073D01*
X156712395Y-87068137D01*
X156712395Y-86624973D01*
X156701477Y-86550037D01*
X156699117Y-86545211D01*
X156644973Y-86434455D01*
X156644971Y-86434452D01*
X156553997Y-86343478D01*
X156553994Y-86343476D01*
X156438416Y-86286974D01*
X156438414Y-86286973D01*
X156438413Y-86286973D01*
X156363477Y-86276055D01*
X156020313Y-86276055D01*
X155973478Y-86282878D01*
X155945374Y-86286973D01*
X155829793Y-86343478D01*
X155810657Y-86362614D01*
X155786012Y-86381714D01*
X155785518Y-86382005D01*
X155743880Y-86406046D01*
X155742564Y-86407361D01*
X155734346Y-86412213D01*
X155707459Y-86419011D01*
X155681592Y-86429003D01*
X155674062Y-86427456D01*
X155666608Y-86429341D01*
X155640311Y-86420523D01*
X155613151Y-86414944D01*
X155604423Y-86408489D01*
X155600364Y-86407128D01*
X155597127Y-86403093D01*
X155583630Y-86393111D01*
X155533997Y-86343478D01*
X155533994Y-86343476D01*
X155418416Y-86286974D01*
X155418414Y-86286973D01*
X155418413Y-86286973D01*
X155343477Y-86276055D01*
X155343472Y-86276055D01*
X155148439Y-86276055D01*
X155118998Y-86267410D01*
X155089012Y-86260887D01*
X155083996Y-86257132D01*
X155081400Y-86256370D01*
X155060758Y-86239736D01*
X155049758Y-86228736D01*
X155016273Y-86167413D01*
X155021257Y-86097721D01*
X155063129Y-86041788D01*
X155128593Y-86017371D01*
X155137439Y-86017055D01*
X155343472Y-86017055D01*
X155343477Y-86017055D01*
X155418413Y-86006137D01*
X155514751Y-85959040D01*
X155533994Y-85949633D01*
X155533997Y-85949631D01*
X155583629Y-85899999D01*
X155608573Y-85886377D01*
X155631889Y-85870112D01*
X155638844Y-85869847D01*
X155644952Y-85866513D01*
X155673299Y-85868540D01*
X155701708Y-85867462D01*
X155709241Y-85871110D01*
X155714644Y-85871497D01*
X155734346Y-85880896D01*
X155742561Y-85885745D01*
X155743880Y-85887064D01*
X155785551Y-85911122D01*
X155786014Y-85911396D01*
X155786645Y-85912071D01*
X155810657Y-85930495D01*
X155829793Y-85949631D01*
X155829795Y-85949633D01*
X155940551Y-86003777D01*
X155945377Y-86006137D01*
X156020313Y-86017055D01*
X156020318Y-86017055D01*
X156363472Y-86017055D01*
X156363477Y-86017055D01*
X156438413Y-86006137D01*
X156534751Y-85959040D01*
X156553994Y-85949633D01*
X156553997Y-85949631D01*
X156644971Y-85858657D01*
X156644973Y-85858654D01*
X156678453Y-85790169D01*
X156701477Y-85743073D01*
X156712395Y-85668137D01*
X156712395Y-85224973D01*
X156701477Y-85150037D01*
X156699117Y-85145211D01*
X156644973Y-85034455D01*
X156644971Y-85034452D01*
X156588773Y-84978254D01*
X156555288Y-84916931D01*
X156560272Y-84847239D01*
X156602144Y-84791306D01*
X156701938Y-84716601D01*
X156756233Y-84644073D01*
X156812167Y-84602202D01*
X156881859Y-84597218D01*
X156943182Y-84630703D01*
X156976666Y-84692027D01*
X156979500Y-84718384D01*
X156979500Y-88259155D01*
X156959815Y-88326194D01*
X156937909Y-88345175D01*
X156948241Y-88351643D01*
X156951365Y-88358275D01*
X156957090Y-88362853D01*
X156966055Y-88389455D01*
X156978019Y-88414849D01*
X156979036Y-88427973D01*
X156979404Y-88429064D01*
X156979241Y-88430625D01*
X156979500Y-88433954D01*
X156979500Y-89659155D01*
X156959815Y-89726194D01*
X156937909Y-89745175D01*
X156948241Y-89751643D01*
X156951365Y-89758275D01*
X156957090Y-89762853D01*
X156966055Y-89789455D01*
X156978019Y-89814849D01*
X156979036Y-89827973D01*
X156979404Y-89829064D01*
X156979241Y-89830625D01*
X156979500Y-89833954D01*
X156979500Y-129622055D01*
X156959815Y-129689094D01*
X156907011Y-129734849D01*
X156855500Y-129746055D01*
X132704500Y-129746055D01*
X132637461Y-129726370D01*
X132591706Y-129673566D01*
X132580500Y-129622055D01*
X132580500Y-127795475D01*
X139591394Y-127795475D01*
X139620235Y-127940462D01*
X139620238Y-127940472D01*
X139676807Y-128077043D01*
X139676814Y-128077056D01*
X139758943Y-128199970D01*
X139758946Y-128199974D01*
X139863475Y-128304503D01*
X139863479Y-128304506D01*
X139986393Y-128386635D01*
X139986406Y-128386642D01*
X140122977Y-128443211D01*
X140122982Y-128443213D01*
X140122986Y-128443213D01*
X140122987Y-128443214D01*
X140267974Y-128472055D01*
X140267977Y-128472055D01*
X140415815Y-128472055D01*
X140513357Y-128452651D01*
X140560808Y-128443213D01*
X140697390Y-128386639D01*
X140820311Y-128304506D01*
X140924846Y-128199971D01*
X141006979Y-128077050D01*
X141063553Y-127940468D01*
X141092395Y-127795475D01*
X148231394Y-127795475D01*
X148260235Y-127940462D01*
X148260238Y-127940472D01*
X148316807Y-128077043D01*
X148316814Y-128077056D01*
X148398943Y-128199970D01*
X148398946Y-128199974D01*
X148503475Y-128304503D01*
X148503479Y-128304506D01*
X148626393Y-128386635D01*
X148626406Y-128386642D01*
X148762977Y-128443211D01*
X148762982Y-128443213D01*
X148762986Y-128443213D01*
X148762987Y-128443214D01*
X148907974Y-128472055D01*
X148907977Y-128472055D01*
X149055815Y-128472055D01*
X149153357Y-128452651D01*
X149200808Y-128443213D01*
X149337390Y-128386639D01*
X149460311Y-128304506D01*
X149564846Y-128199971D01*
X149646979Y-128077050D01*
X149703553Y-127940468D01*
X149732395Y-127795473D01*
X149732395Y-126847637D01*
X149732395Y-126847634D01*
X149703554Y-126702647D01*
X149703553Y-126702646D01*
X149703553Y-126702642D01*
X149703551Y-126702637D01*
X149646982Y-126566066D01*
X149646975Y-126566053D01*
X149564846Y-126443139D01*
X149564843Y-126443135D01*
X149460314Y-126338606D01*
X149460310Y-126338603D01*
X149337396Y-126256474D01*
X149337383Y-126256467D01*
X149200812Y-126199898D01*
X149200802Y-126199895D01*
X149055815Y-126171055D01*
X149055813Y-126171055D01*
X148907977Y-126171055D01*
X148907975Y-126171055D01*
X148762987Y-126199895D01*
X148762977Y-126199898D01*
X148626406Y-126256467D01*
X148626393Y-126256474D01*
X148503479Y-126338603D01*
X148503475Y-126338606D01*
X148398946Y-126443135D01*
X148398943Y-126443139D01*
X148316814Y-126566053D01*
X148316807Y-126566066D01*
X148260238Y-126702637D01*
X148260235Y-126702647D01*
X148231395Y-126847634D01*
X148231395Y-126847637D01*
X148231395Y-127795473D01*
X148231395Y-127795475D01*
X148231394Y-127795475D01*
X141092395Y-127795475D01*
X141092395Y-127795473D01*
X141092395Y-126847637D01*
X141092395Y-126847634D01*
X141063554Y-126702647D01*
X141063553Y-126702646D01*
X141063553Y-126702642D01*
X141063551Y-126702637D01*
X141006982Y-126566066D01*
X141006975Y-126566053D01*
X140924846Y-126443139D01*
X140924843Y-126443135D01*
X140820314Y-126338606D01*
X140820310Y-126338603D01*
X140697396Y-126256474D01*
X140697383Y-126256467D01*
X140560812Y-126199898D01*
X140560802Y-126199895D01*
X140415815Y-126171055D01*
X140415813Y-126171055D01*
X140267977Y-126171055D01*
X140267975Y-126171055D01*
X140122987Y-126199895D01*
X140122977Y-126199898D01*
X139986406Y-126256467D01*
X139986393Y-126256474D01*
X139863479Y-126338603D01*
X139863475Y-126338606D01*
X139758946Y-126443135D01*
X139758943Y-126443139D01*
X139676814Y-126566053D01*
X139676807Y-126566066D01*
X139620238Y-126702637D01*
X139620235Y-126702647D01*
X139591395Y-126847634D01*
X139591395Y-126847637D01*
X139591395Y-127795473D01*
X139591395Y-127795475D01*
X139591394Y-127795475D01*
X132580500Y-127795475D01*
X132580500Y-125706555D01*
X142813897Y-125706555D01*
X142818105Y-125745709D01*
X142866842Y-125876378D01*
X142866844Y-125876381D01*
X142950422Y-125988027D01*
X143062068Y-126071605D01*
X143062069Y-126071606D01*
X143192739Y-126120343D01*
X143192743Y-126120344D01*
X143250502Y-126126554D01*
X143681895Y-126126554D01*
X143713278Y-126126554D01*
X143713283Y-126126553D01*
X143771049Y-126120344D01*
X143901718Y-126071607D01*
X143901721Y-126071605D01*
X144013367Y-125988027D01*
X144096945Y-125876381D01*
X144096947Y-125876378D01*
X144145683Y-125745710D01*
X144145684Y-125745702D01*
X144149894Y-125706555D01*
X145563897Y-125706555D01*
X145568105Y-125745709D01*
X145616842Y-125876378D01*
X145616844Y-125876381D01*
X145700422Y-125988027D01*
X145812068Y-126071605D01*
X145812069Y-126071606D01*
X145942739Y-126120343D01*
X145942743Y-126120344D01*
X146000502Y-126126554D01*
X146431895Y-126126554D01*
X146463278Y-126126554D01*
X146463283Y-126126553D01*
X146521049Y-126120344D01*
X146651718Y-126071607D01*
X146651721Y-126071605D01*
X146763367Y-125988027D01*
X146846945Y-125876381D01*
X146846947Y-125876378D01*
X146895683Y-125745710D01*
X146895684Y-125745702D01*
X146899894Y-125706555D01*
X146431895Y-125706555D01*
X146431895Y-126126554D01*
X146000502Y-126126554D01*
X146031895Y-126126553D01*
X146031895Y-125706555D01*
X145563897Y-125706555D01*
X144149894Y-125706555D01*
X143681895Y-125706555D01*
X143681895Y-126126554D01*
X143250502Y-126126554D01*
X143281895Y-126126553D01*
X143281895Y-125706555D01*
X142813897Y-125706555D01*
X132580500Y-125706555D01*
X132580500Y-125306554D01*
X142813895Y-125306554D01*
X142813896Y-125306555D01*
X144149893Y-125306555D01*
X144149893Y-125306554D01*
X145563895Y-125306554D01*
X145563896Y-125306555D01*
X146899892Y-125306555D01*
X146895684Y-125267400D01*
X146846947Y-125136731D01*
X146846945Y-125136728D01*
X146763366Y-125025080D01*
X146759823Y-125022428D01*
X146757170Y-125018884D01*
X146757097Y-125018811D01*
X146757107Y-125018800D01*
X146717953Y-124966493D01*
X146712971Y-124896801D01*
X146733227Y-124851097D01*
X146734965Y-124848662D01*
X146734971Y-124848657D01*
X146734974Y-124848650D01*
X146734978Y-124848645D01*
X146773396Y-124770056D01*
X146791477Y-124733073D01*
X146802395Y-124658137D01*
X146802395Y-124314973D01*
X146791477Y-124240037D01*
X146761069Y-124177836D01*
X146734974Y-124124457D01*
X146734018Y-124123118D01*
X146733276Y-124120983D01*
X146730459Y-124115221D01*
X146731155Y-124114880D01*
X146711080Y-124057121D01*
X146717907Y-124010058D01*
X146721741Y-123999115D01*
X146744879Y-123959040D01*
X146774456Y-123848658D01*
X146775996Y-123844263D01*
X146793759Y-123819517D01*
X146809611Y-123793511D01*
X146813936Y-123791410D01*
X146816740Y-123787504D01*
X146845058Y-123776291D01*
X146872458Y-123762982D01*
X146877232Y-123763552D01*
X146881703Y-123761783D01*
X146911591Y-123767661D01*
X146941833Y-123771277D01*
X146945539Y-123774337D01*
X146950260Y-123775266D01*
X146972228Y-123796373D01*
X146995711Y-123815762D01*
X146998293Y-123821416D01*
X147000643Y-123823674D01*
X147002085Y-123829718D01*
X147012794Y-123853168D01*
X147015614Y-123863690D01*
X147091380Y-123994920D01*
X147198530Y-124102070D01*
X147329760Y-124177836D01*
X147476129Y-124217055D01*
X147476131Y-124217055D01*
X147627659Y-124217055D01*
X147627661Y-124217055D01*
X147774030Y-124177836D01*
X147905260Y-124102070D01*
X148012410Y-123994920D01*
X148051355Y-123927464D01*
X148101922Y-123879249D01*
X148170529Y-123866026D01*
X148235394Y-123891994D01*
X148273303Y-123942013D01*
X148316807Y-124047043D01*
X148316814Y-124047056D01*
X148398943Y-124169970D01*
X148398946Y-124169974D01*
X148503475Y-124274503D01*
X148503479Y-124274506D01*
X148626393Y-124356635D01*
X148626406Y-124356642D01*
X148762977Y-124413211D01*
X148762982Y-124413213D01*
X148762986Y-124413213D01*
X148762987Y-124413214D01*
X148907974Y-124442055D01*
X148907977Y-124442055D01*
X149055815Y-124442055D01*
X149153357Y-124422651D01*
X149200808Y-124413213D01*
X149337390Y-124356639D01*
X149460311Y-124274506D01*
X149564846Y-124169971D01*
X149646979Y-124047050D01*
X149703553Y-123910468D01*
X149722392Y-123815762D01*
X149732395Y-123765475D01*
X149732395Y-122517634D01*
X149703554Y-122372647D01*
X149703553Y-122372646D01*
X149703553Y-122372642D01*
X149703551Y-122372637D01*
X149646982Y-122236066D01*
X149646975Y-122236053D01*
X149564846Y-122113139D01*
X149564843Y-122113135D01*
X149460314Y-122008606D01*
X149460310Y-122008603D01*
X149337396Y-121926474D01*
X149337383Y-121926467D01*
X149200812Y-121869898D01*
X149200802Y-121869895D01*
X149055815Y-121841055D01*
X149055813Y-121841055D01*
X148907977Y-121841055D01*
X148907975Y-121841055D01*
X148762987Y-121869895D01*
X148762977Y-121869898D01*
X148626406Y-121926467D01*
X148626393Y-121926474D01*
X148503479Y-122008603D01*
X148503475Y-122008606D01*
X148398946Y-122113135D01*
X148398943Y-122113139D01*
X148316814Y-122236053D01*
X148316807Y-122236066D01*
X148260238Y-122372637D01*
X148260235Y-122372647D01*
X148231395Y-122517634D01*
X148231395Y-123208285D01*
X148211710Y-123275324D01*
X148158906Y-123321079D01*
X148089748Y-123331023D01*
X148026192Y-123301998D01*
X148018383Y-123293710D01*
X148018157Y-123293937D01*
X147905262Y-123181042D01*
X147905260Y-123181040D01*
X147839645Y-123143157D01*
X147774031Y-123105274D01*
X147700845Y-123085664D01*
X147627661Y-123066055D01*
X147476129Y-123066055D01*
X147329758Y-123105274D01*
X147198530Y-123181040D01*
X147198527Y-123181042D01*
X147091382Y-123288187D01*
X147091380Y-123288190D01*
X147015615Y-123419418D01*
X146984661Y-123534939D01*
X146948296Y-123594599D01*
X146885449Y-123625128D01*
X146816073Y-123616833D01*
X146762195Y-123572348D01*
X146748117Y-123541520D01*
X146747987Y-123541574D01*
X146746478Y-123537931D01*
X146745111Y-123534939D01*
X146744879Y-123534070D01*
X146744877Y-123534066D01*
X146744877Y-123534065D01*
X146672406Y-123408543D01*
X146672401Y-123408537D01*
X146569912Y-123306048D01*
X146569906Y-123306043D01*
X146444383Y-123233572D01*
X146444384Y-123233572D01*
X146432901Y-123230495D01*
X146304370Y-123196055D01*
X146159420Y-123196055D01*
X146030888Y-123230495D01*
X146019406Y-123233572D01*
X145893883Y-123306043D01*
X145893877Y-123306048D01*
X145791388Y-123408537D01*
X145791383Y-123408543D01*
X145718912Y-123534066D01*
X145718911Y-123534070D01*
X145681395Y-123674080D01*
X145681395Y-123819030D01*
X145714349Y-123942013D01*
X145718912Y-123959043D01*
X145736243Y-123989061D01*
X145752716Y-124056961D01*
X145732663Y-124114896D01*
X145733331Y-124115223D01*
X145730658Y-124120689D01*
X145729863Y-124122988D01*
X145729780Y-124123105D01*
X145728820Y-124124448D01*
X145672313Y-124240034D01*
X145672313Y-124240037D01*
X145661395Y-124314973D01*
X145661395Y-124658137D01*
X145672313Y-124733073D01*
X145672313Y-124733074D01*
X145672314Y-124733076D01*
X145728816Y-124848654D01*
X145730569Y-124851109D01*
X145731927Y-124855018D01*
X145733331Y-124857889D01*
X145732984Y-124858058D01*
X145753505Y-124917107D01*
X145737119Y-124985028D01*
X145703965Y-125022430D01*
X145700423Y-125025081D01*
X145616844Y-125136728D01*
X145616842Y-125136731D01*
X145568106Y-125267399D01*
X145568105Y-125267407D01*
X145563895Y-125306554D01*
X144149893Y-125306554D01*
X144145684Y-125267400D01*
X144096947Y-125136731D01*
X144096945Y-125136728D01*
X144013366Y-125025080D01*
X144009823Y-125022428D01*
X144007170Y-125018884D01*
X144007097Y-125018811D01*
X144007107Y-125018800D01*
X143967953Y-124966493D01*
X143962971Y-124896801D01*
X143983227Y-124851097D01*
X143984965Y-124848662D01*
X143984971Y-124848657D01*
X143984974Y-124848650D01*
X143984978Y-124848645D01*
X144023396Y-124770056D01*
X144041477Y-124733073D01*
X144052395Y-124658137D01*
X144052395Y-124314973D01*
X144041477Y-124240037D01*
X144011069Y-124177836D01*
X143984974Y-124124457D01*
X143984018Y-124123118D01*
X143983276Y-124120983D01*
X143980459Y-124115221D01*
X143981155Y-124114880D01*
X143961080Y-124057121D01*
X143977464Y-123989202D01*
X143994879Y-123959040D01*
X144032395Y-123819030D01*
X144032395Y-123674080D01*
X143994879Y-123534070D01*
X143928684Y-123419418D01*
X143922406Y-123408543D01*
X143922401Y-123408537D01*
X143819912Y-123306048D01*
X143819906Y-123306043D01*
X143694383Y-123233572D01*
X143694384Y-123233572D01*
X143682901Y-123230495D01*
X143554370Y-123196055D01*
X143409420Y-123196055D01*
X143280888Y-123230495D01*
X143269406Y-123233572D01*
X143143883Y-123306043D01*
X143143877Y-123306048D01*
X143041388Y-123408537D01*
X143041383Y-123408543D01*
X142968912Y-123534066D01*
X142968911Y-123534070D01*
X142931395Y-123674080D01*
X142931395Y-123819030D01*
X142964349Y-123942013D01*
X142968912Y-123959043D01*
X142986243Y-123989061D01*
X143002716Y-124056961D01*
X142982663Y-124114896D01*
X142983331Y-124115223D01*
X142980658Y-124120689D01*
X142979863Y-124122988D01*
X142979780Y-124123105D01*
X142978820Y-124124448D01*
X142922313Y-124240034D01*
X142922313Y-124240037D01*
X142911395Y-124314973D01*
X142911395Y-124658137D01*
X142922313Y-124733073D01*
X142922313Y-124733074D01*
X142922314Y-124733076D01*
X142978816Y-124848654D01*
X142980569Y-124851109D01*
X142981927Y-124855018D01*
X142983331Y-124857889D01*
X142982984Y-124858058D01*
X143003505Y-124917107D01*
X142987119Y-124985028D01*
X142953965Y-125022430D01*
X142950423Y-125025081D01*
X142866844Y-125136728D01*
X142866842Y-125136731D01*
X142818106Y-125267399D01*
X142818105Y-125267407D01*
X142813895Y-125306554D01*
X132580500Y-125306554D01*
X132580500Y-123765475D01*
X139591394Y-123765475D01*
X139620235Y-123910462D01*
X139620238Y-123910472D01*
X139676807Y-124047043D01*
X139676814Y-124047056D01*
X139758943Y-124169970D01*
X139758946Y-124169974D01*
X139863475Y-124274503D01*
X139863479Y-124274506D01*
X139986393Y-124356635D01*
X139986406Y-124356642D01*
X140122977Y-124413211D01*
X140122982Y-124413213D01*
X140122986Y-124413213D01*
X140122987Y-124413214D01*
X140267974Y-124442055D01*
X140267977Y-124442055D01*
X140415815Y-124442055D01*
X140513357Y-124422651D01*
X140560808Y-124413213D01*
X140697390Y-124356639D01*
X140820311Y-124274506D01*
X140924846Y-124169971D01*
X141006979Y-124047050D01*
X141050488Y-123942008D01*
X141094326Y-123887610D01*
X141160620Y-123865544D01*
X141228319Y-123882823D01*
X141272434Y-123927464D01*
X141311380Y-123994920D01*
X141418530Y-124102070D01*
X141549760Y-124177836D01*
X141696129Y-124217055D01*
X141696131Y-124217055D01*
X141847659Y-124217055D01*
X141847661Y-124217055D01*
X141994030Y-124177836D01*
X142125260Y-124102070D01*
X142232410Y-123994920D01*
X142308176Y-123863690D01*
X142347395Y-123717321D01*
X142347395Y-123565789D01*
X142308176Y-123419420D01*
X142232410Y-123288190D01*
X142125260Y-123181040D01*
X142059645Y-123143157D01*
X141994031Y-123105274D01*
X141920845Y-123085664D01*
X141847661Y-123066055D01*
X141696129Y-123066055D01*
X141549758Y-123105274D01*
X141418530Y-123181040D01*
X141418527Y-123181042D01*
X141305633Y-123293937D01*
X141303614Y-123291918D01*
X141258340Y-123324975D01*
X141188593Y-123329128D01*
X141127674Y-123294914D01*
X141094923Y-123233196D01*
X141092395Y-123208285D01*
X141092395Y-122517634D01*
X141063554Y-122372647D01*
X141063553Y-122372646D01*
X141063553Y-122372642D01*
X141063551Y-122372637D01*
X141006982Y-122236066D01*
X141006975Y-122236053D01*
X140924846Y-122113139D01*
X140924843Y-122113135D01*
X140820314Y-122008606D01*
X140820310Y-122008603D01*
X140697396Y-121926474D01*
X140697383Y-121926467D01*
X140560812Y-121869898D01*
X140560802Y-121869895D01*
X140415815Y-121841055D01*
X140415813Y-121841055D01*
X140267977Y-121841055D01*
X140267975Y-121841055D01*
X140122987Y-121869895D01*
X140122977Y-121869898D01*
X139986406Y-121926467D01*
X139986393Y-121926474D01*
X139863479Y-122008603D01*
X139863475Y-122008606D01*
X139758946Y-122113135D01*
X139758943Y-122113139D01*
X139676814Y-122236053D01*
X139676807Y-122236066D01*
X139620238Y-122372637D01*
X139620235Y-122372647D01*
X139591395Y-122517634D01*
X139591395Y-122517637D01*
X139591395Y-123765473D01*
X139591395Y-123765475D01*
X139591394Y-123765475D01*
X132580500Y-123765475D01*
X132580500Y-119006773D01*
X136837596Y-119006773D01*
X136847507Y-119074805D01*
X136898810Y-119179747D01*
X136981406Y-119262343D01*
X137086343Y-119313643D01*
X137086346Y-119313644D01*
X137154375Y-119323555D01*
X137736894Y-119323555D01*
X138136895Y-119323555D01*
X138719413Y-119323555D01*
X138787444Y-119313643D01*
X138892386Y-119262340D01*
X138974982Y-119179744D01*
X139026282Y-119074807D01*
X139026283Y-119074804D01*
X139036195Y-119006775D01*
X139036195Y-118170256D01*
X138136895Y-118170256D01*
X138136895Y-119323555D01*
X137736894Y-119323555D01*
X137736895Y-119323554D01*
X137736895Y-118170256D01*
X136837596Y-118170256D01*
X136837596Y-119006773D01*
X132580500Y-119006773D01*
X132580500Y-116933736D01*
X136837595Y-116933736D01*
X136837595Y-117770256D01*
X137736895Y-117770256D01*
X138136895Y-117770256D01*
X139036194Y-117770256D01*
X139036194Y-116933738D01*
X139026282Y-116865706D01*
X138974979Y-116760764D01*
X138892383Y-116678168D01*
X138787446Y-116626868D01*
X138787443Y-116626867D01*
X138719415Y-116616956D01*
X138136895Y-116616956D01*
X138136895Y-117770256D01*
X137736895Y-117770256D01*
X137736895Y-116616956D01*
X137154377Y-116616956D01*
X137086345Y-116626868D01*
X136981403Y-116678171D01*
X136898807Y-116760767D01*
X136847507Y-116865704D01*
X136847506Y-116865707D01*
X136837595Y-116933736D01*
X132580500Y-116933736D01*
X132580500Y-111211280D01*
X135094394Y-111211280D01*
X135133303Y-111406884D01*
X135133306Y-111406894D01*
X135209625Y-111591147D01*
X135209632Y-111591160D01*
X135320434Y-111756985D01*
X135320437Y-111756989D01*
X135461460Y-111898012D01*
X135461464Y-111898015D01*
X135627289Y-112008817D01*
X135627302Y-112008824D01*
X135715234Y-112045246D01*
X135811560Y-112085145D01*
X135811564Y-112085145D01*
X135811565Y-112085146D01*
X136007169Y-112124055D01*
X136007172Y-112124055D01*
X136206620Y-112124055D01*
X136338219Y-112097877D01*
X136402230Y-112085145D01*
X136586494Y-112008821D01*
X136752326Y-111898015D01*
X136893355Y-111756986D01*
X137004161Y-111591154D01*
X137020686Y-111551260D01*
X137080483Y-111406894D01*
X137080485Y-111406890D01*
X137116991Y-111223362D01*
X137149376Y-111161452D01*
X137210091Y-111126878D01*
X137238608Y-111123554D01*
X137736894Y-111123554D01*
X138136895Y-111123554D01*
X138719413Y-111123554D01*
X138787444Y-111113642D01*
X138892386Y-111062339D01*
X138974982Y-110979743D01*
X139026282Y-110874806D01*
X139026283Y-110874803D01*
X139036195Y-110806774D01*
X139036195Y-109970255D01*
X138136895Y-109970255D01*
X138136895Y-111123554D01*
X137736894Y-111123554D01*
X137736895Y-111123553D01*
X137736895Y-109970255D01*
X136837595Y-109970255D01*
X136837595Y-110150081D01*
X136817910Y-110217120D01*
X136765106Y-110262875D01*
X136695948Y-110272819D01*
X136644704Y-110253183D01*
X136586500Y-110214292D01*
X136586487Y-110214285D01*
X136402234Y-110137966D01*
X136402224Y-110137963D01*
X136206620Y-110099055D01*
X136206618Y-110099055D01*
X136007172Y-110099055D01*
X136007170Y-110099055D01*
X135811565Y-110137963D01*
X135811555Y-110137966D01*
X135627302Y-110214285D01*
X135627289Y-110214292D01*
X135461464Y-110325094D01*
X135461462Y-110325096D01*
X135320437Y-110466120D01*
X135320434Y-110466124D01*
X135209632Y-110631949D01*
X135209625Y-110631962D01*
X135133306Y-110816215D01*
X135133303Y-110816225D01*
X135094395Y-111011829D01*
X135094395Y-111011832D01*
X135094395Y-111211278D01*
X135094395Y-111211280D01*
X135094394Y-111211280D01*
X132580500Y-111211280D01*
X132580500Y-108484033D01*
X134994895Y-108484033D01*
X134994895Y-108659076D01*
X135022276Y-108831950D01*
X135022276Y-108831953D01*
X135076362Y-108998412D01*
X135155827Y-109154370D01*
X135191768Y-109203837D01*
X135191769Y-109203838D01*
X135653082Y-108742524D01*
X135657184Y-108757832D01*
X135720719Y-108867878D01*
X135810572Y-108957731D01*
X135920618Y-109021266D01*
X135935923Y-109025367D01*
X135474610Y-109486680D01*
X135524080Y-109522623D01*
X135680037Y-109602087D01*
X135846498Y-109656173D01*
X136019374Y-109683555D01*
X136194416Y-109683555D01*
X136367290Y-109656173D01*
X136367293Y-109656173D01*
X136533754Y-109602086D01*
X136675850Y-109529684D01*
X136744519Y-109516787D01*
X136809260Y-109543063D01*
X136819827Y-109552487D01*
X136837595Y-109570255D01*
X137736895Y-109570255D01*
X138136895Y-109570255D01*
X139036194Y-109570255D01*
X139036194Y-108733737D01*
X139026282Y-108665705D01*
X138974979Y-108560763D01*
X138892383Y-108478167D01*
X138787446Y-108426867D01*
X138787443Y-108426866D01*
X138719415Y-108416955D01*
X138136895Y-108416955D01*
X138136895Y-109570255D01*
X137736895Y-109570255D01*
X137736895Y-108416955D01*
X137314176Y-108416955D01*
X137247137Y-108397270D01*
X137201382Y-108344466D01*
X137192760Y-108315862D01*
X137192649Y-108315889D01*
X137192182Y-108313943D01*
X137191703Y-108312354D01*
X137191513Y-108311158D01*
X137191513Y-108311156D01*
X137137427Y-108144697D01*
X137057963Y-107988740D01*
X137022020Y-107939271D01*
X137022020Y-107939270D01*
X136560707Y-108400583D01*
X136556606Y-108385278D01*
X136493071Y-108275232D01*
X136403218Y-108185379D01*
X136293172Y-108121844D01*
X136277865Y-108117742D01*
X136739178Y-107656429D01*
X136739177Y-107656428D01*
X136689710Y-107620487D01*
X136533752Y-107541022D01*
X136367291Y-107486936D01*
X136194416Y-107459555D01*
X136019374Y-107459555D01*
X135846499Y-107486936D01*
X135846496Y-107486936D01*
X135680037Y-107541022D01*
X135524076Y-107620489D01*
X135474611Y-107656427D01*
X135474611Y-107656429D01*
X135935925Y-108117742D01*
X135920618Y-108121844D01*
X135810572Y-108185379D01*
X135720719Y-108275232D01*
X135657184Y-108385278D01*
X135653082Y-108400584D01*
X135191769Y-107939271D01*
X135191767Y-107939271D01*
X135155829Y-107988736D01*
X135076362Y-108144697D01*
X135022276Y-108311156D01*
X135022276Y-108311159D01*
X134994895Y-108484033D01*
X132580500Y-108484033D01*
X132580500Y-93795476D01*
X132600185Y-93728437D01*
X132652989Y-93682682D01*
X132722147Y-93672738D01*
X132785703Y-93701763D01*
X132811886Y-93733475D01*
X132841386Y-93784570D01*
X132943880Y-93887064D01*
X132943881Y-93887065D01*
X132943883Y-93887066D01*
X133069406Y-93959537D01*
X133069407Y-93959537D01*
X133069410Y-93959539D01*
X133209420Y-93997055D01*
X133209423Y-93997055D01*
X133354367Y-93997055D01*
X133354370Y-93997055D01*
X133494380Y-93959539D01*
X133619910Y-93887064D01*
X133722404Y-93784570D01*
X133794879Y-93659040D01*
X133832395Y-93519030D01*
X133832395Y-93374080D01*
X133794879Y-93234070D01*
X133779740Y-93207849D01*
X133722406Y-93108543D01*
X133722401Y-93108537D01*
X133668714Y-93054850D01*
X133654010Y-93027922D01*
X133637418Y-93002104D01*
X133636526Y-92995903D01*
X133635229Y-92993527D01*
X133632395Y-92967169D01*
X133632395Y-92902596D01*
X133652080Y-92835557D01*
X133668714Y-92814915D01*
X133694214Y-92789415D01*
X133755537Y-92755930D01*
X133825229Y-92760914D01*
X133869576Y-92789415D01*
X133929792Y-92849631D01*
X133929795Y-92849633D01*
X134009253Y-92888477D01*
X134045377Y-92906137D01*
X134120313Y-92917055D01*
X134120318Y-92917055D01*
X134463472Y-92917055D01*
X134463477Y-92917055D01*
X134538413Y-92906137D01*
X134596205Y-92877884D01*
X134653994Y-92849633D01*
X134653997Y-92849631D01*
X134744970Y-92758658D01*
X134744971Y-92758657D01*
X134781699Y-92683528D01*
X134828827Y-92631946D01*
X134896361Y-92614032D01*
X134962860Y-92635473D01*
X135007210Y-92689462D01*
X135017100Y-92737989D01*
X135017100Y-93184678D01*
X135031632Y-93257735D01*
X135031633Y-93257738D01*
X135043909Y-93276111D01*
X135064785Y-93342789D01*
X135046299Y-93410169D01*
X135043909Y-93413889D01*
X135031633Y-93432261D01*
X135031632Y-93432264D01*
X135017100Y-93505321D01*
X135017100Y-94454678D01*
X135031632Y-94527735D01*
X135031633Y-94527738D01*
X135043909Y-94546111D01*
X135064785Y-94612789D01*
X135046299Y-94680169D01*
X135043909Y-94683889D01*
X135031633Y-94702261D01*
X135031632Y-94702264D01*
X135017100Y-94775321D01*
X135017100Y-95724678D01*
X135031632Y-95797735D01*
X135031633Y-95797738D01*
X135043909Y-95816111D01*
X135064785Y-95882789D01*
X135046299Y-95950169D01*
X135043909Y-95953889D01*
X135031633Y-95972261D01*
X135031632Y-95972264D01*
X135017100Y-96045321D01*
X135017100Y-96994678D01*
X135031632Y-97067735D01*
X135031633Y-97067738D01*
X135043909Y-97086111D01*
X135064785Y-97152789D01*
X135046299Y-97220169D01*
X135043909Y-97223889D01*
X135031633Y-97242261D01*
X135031632Y-97242264D01*
X135017100Y-97315321D01*
X135017100Y-98264678D01*
X135031632Y-98337735D01*
X135031633Y-98337739D01*
X135031634Y-98337740D01*
X135086999Y-98420601D01*
X135169859Y-98475965D01*
X135169860Y-98475966D01*
X135169864Y-98475967D01*
X135242921Y-98490499D01*
X135242924Y-98490500D01*
X135242926Y-98490500D01*
X136792276Y-98490500D01*
X136792277Y-98490499D01*
X136865340Y-98475966D01*
X136889210Y-98460016D01*
X136955886Y-98439139D01*
X137023266Y-98457623D01*
X137069957Y-98509602D01*
X137082100Y-98563119D01*
X137082100Y-99814678D01*
X137096632Y-99887735D01*
X137096633Y-99887739D01*
X137096634Y-99887740D01*
X137151999Y-99970601D01*
X137234859Y-100025965D01*
X137234860Y-100025966D01*
X137234864Y-100025967D01*
X137307921Y-100040499D01*
X137307924Y-100040500D01*
X137307926Y-100040500D01*
X138257276Y-100040500D01*
X138257277Y-100040499D01*
X138330340Y-100025966D01*
X138348710Y-100013691D01*
X138415386Y-99992814D01*
X138482766Y-100011298D01*
X138486473Y-100013680D01*
X138504860Y-100025966D01*
X138504862Y-100025966D01*
X138504864Y-100025967D01*
X138577921Y-100040499D01*
X138577924Y-100040500D01*
X138577926Y-100040500D01*
X139527276Y-100040500D01*
X139527277Y-100040499D01*
X139600340Y-100025966D01*
X139618710Y-100013691D01*
X139685386Y-99992814D01*
X139722929Y-99997933D01*
X139740898Y-100003274D01*
X139774860Y-100025966D01*
X139847926Y-100040500D01*
X139866140Y-100040500D01*
X139883429Y-100045639D01*
X139898227Y-100055219D01*
X139915139Y-100060185D01*
X139926944Y-100073809D01*
X139942082Y-100083609D01*
X139949352Y-100099669D01*
X139960894Y-100112989D01*
X139965993Y-100136430D01*
X139970896Y-100147260D01*
X139969868Y-100154242D01*
X139972100Y-100164500D01*
X139972100Y-114482105D01*
X139979286Y-114508921D01*
X139995986Y-114571248D01*
X139995987Y-114571251D01*
X140042127Y-114651169D01*
X140042131Y-114651174D01*
X140963676Y-115572719D01*
X140997161Y-115634042D01*
X140999995Y-115660400D01*
X140999995Y-116391834D01*
X141014527Y-116464891D01*
X141014528Y-116464895D01*
X141014529Y-116464896D01*
X141069894Y-116547757D01*
X141144202Y-116597407D01*
X141152755Y-116603122D01*
X141152759Y-116603123D01*
X141225816Y-116617655D01*
X141225819Y-116617656D01*
X141225821Y-116617656D01*
X142087971Y-116617656D01*
X142087972Y-116617655D01*
X142113196Y-116612638D01*
X142173014Y-116600740D01*
X142173322Y-116602290D01*
X142228909Y-116596313D01*
X142250728Y-116602719D01*
X142325816Y-116617655D01*
X142325819Y-116617656D01*
X142325821Y-116617656D01*
X143187971Y-116617656D01*
X143187972Y-116617655D01*
X143213196Y-116612638D01*
X143273014Y-116600740D01*
X143273322Y-116602290D01*
X143328898Y-116596310D01*
X143350724Y-116602718D01*
X143425817Y-116617655D01*
X143425820Y-116617656D01*
X143425822Y-116617656D01*
X144287972Y-116617656D01*
X144287973Y-116617655D01*
X144313197Y-116612638D01*
X144373015Y-116600740D01*
X144373323Y-116602290D01*
X144428910Y-116596313D01*
X144434293Y-116597407D01*
X144449286Y-116600803D01*
X144452756Y-116603122D01*
X144508221Y-116614154D01*
X144509793Y-116614511D01*
X144538931Y-116630748D01*
X144568498Y-116646214D01*
X144569340Y-116647693D01*
X144570827Y-116648522D01*
X144586565Y-116677942D01*
X144603072Y-116706930D01*
X144603350Y-116709319D01*
X144603784Y-116710130D01*
X144603645Y-116711853D01*
X144606396Y-116735447D01*
X144606396Y-117275010D01*
X144586711Y-117342049D01*
X144570077Y-117362691D01*
X144273032Y-117659736D01*
X144211709Y-117693221D01*
X144185351Y-117696055D01*
X144109420Y-117696055D01*
X143980888Y-117730495D01*
X143969406Y-117733572D01*
X143843883Y-117806043D01*
X143843877Y-117806048D01*
X143741388Y-117908537D01*
X143741383Y-117908543D01*
X143668912Y-118034066D01*
X143668911Y-118034070D01*
X143631395Y-118174080D01*
X143631395Y-118319030D01*
X143668911Y-118459040D01*
X143668912Y-118459043D01*
X143741383Y-118584566D01*
X143741385Y-118584568D01*
X143741386Y-118584570D01*
X143843880Y-118687064D01*
X143843881Y-118687065D01*
X143843883Y-118687066D01*
X143969406Y-118759537D01*
X143969407Y-118759537D01*
X143969410Y-118759539D01*
X144109420Y-118797055D01*
X144109423Y-118797055D01*
X144254367Y-118797055D01*
X144254370Y-118797055D01*
X144394380Y-118759539D01*
X144519910Y-118687064D01*
X144622404Y-118584570D01*
X144694879Y-118459040D01*
X144732395Y-118319030D01*
X144732395Y-118243099D01*
X144752080Y-118176060D01*
X144768714Y-118155418D01*
X144892919Y-118031213D01*
X145237366Y-117686766D01*
X145283510Y-117606842D01*
X145286400Y-117596055D01*
X145307396Y-117517698D01*
X145307396Y-116735447D01*
X145315896Y-116706496D01*
X145322058Y-116676957D01*
X145325641Y-116673311D01*
X145327081Y-116668408D01*
X145349881Y-116648651D01*
X145371037Y-116627129D01*
X145377434Y-116624776D01*
X145379885Y-116622653D01*
X145403999Y-116614512D01*
X145405606Y-116614147D01*
X145461036Y-116603122D01*
X145464503Y-116600804D01*
X145479498Y-116597408D01*
X145504247Y-116598964D01*
X145528904Y-116596312D01*
X145547118Y-116601660D01*
X145549229Y-116601793D01*
X145550331Y-116602603D01*
X145550725Y-116602719D01*
X145625815Y-116617655D01*
X145625818Y-116617656D01*
X146454656Y-116617656D01*
X146521695Y-116637341D01*
X146542337Y-116653975D01*
X146544305Y-116655943D01*
X146649242Y-116707243D01*
X146649245Y-116707244D01*
X146717274Y-116717155D01*
X146956893Y-116717155D01*
X146956894Y-116717154D01*
X146956894Y-114823356D01*
X146717281Y-114823356D01*
X146649244Y-114833268D01*
X146585854Y-114864258D01*
X146516980Y-114876016D01*
X146452683Y-114848673D01*
X146413377Y-114790908D01*
X146407394Y-114752857D01*
X146407394Y-101789838D01*
X146427079Y-101722799D01*
X146479883Y-101677044D01*
X146549041Y-101667100D01*
X146612597Y-101696125D01*
X146619075Y-101702157D01*
X147744076Y-102827158D01*
X147777561Y-102888481D01*
X147780395Y-102914839D01*
X147780395Y-114706771D01*
X147760710Y-114773810D01*
X147707906Y-114819565D01*
X147638748Y-114829509D01*
X147638519Y-114829476D01*
X147596509Y-114823356D01*
X147356894Y-114823356D01*
X147356894Y-116717155D01*
X147596512Y-116717155D01*
X147664543Y-116707243D01*
X147769481Y-116655942D01*
X147769486Y-116655939D01*
X147771451Y-116653975D01*
X147774795Y-116652148D01*
X147777844Y-116649972D01*
X147778107Y-116650340D01*
X147832774Y-116620490D01*
X147859132Y-116617656D01*
X148687971Y-116617656D01*
X148687972Y-116617655D01*
X148713196Y-116612638D01*
X148773014Y-116600740D01*
X148773322Y-116602290D01*
X148828909Y-116596313D01*
X148850728Y-116602719D01*
X148925816Y-116617655D01*
X148925819Y-116617656D01*
X148925821Y-116617656D01*
X149459731Y-116617656D01*
X149526770Y-116637341D01*
X149572525Y-116690145D01*
X149582469Y-116759303D01*
X149553444Y-116822859D01*
X149547412Y-116829337D01*
X149266993Y-117109756D01*
X149205670Y-117143241D01*
X149179312Y-117146075D01*
X146940731Y-117146075D01*
X146851587Y-117169961D01*
X146851584Y-117169962D01*
X146771666Y-117216102D01*
X146771661Y-117216106D01*
X143828032Y-120159736D01*
X143766709Y-120193221D01*
X143740351Y-120196055D01*
X143664420Y-120196055D01*
X143535888Y-120230495D01*
X143524406Y-120233572D01*
X143398883Y-120306043D01*
X143398877Y-120306048D01*
X143296388Y-120408537D01*
X143296383Y-120408543D01*
X143223912Y-120534066D01*
X143223911Y-120534070D01*
X143186395Y-120674080D01*
X143186395Y-120819030D01*
X143223911Y-120959040D01*
X143223912Y-120959043D01*
X143296383Y-121084566D01*
X143296385Y-121084568D01*
X143296386Y-121084570D01*
X143398880Y-121187064D01*
X143398881Y-121187065D01*
X143398883Y-121187066D01*
X143524406Y-121259537D01*
X143524407Y-121259537D01*
X143524410Y-121259539D01*
X143664420Y-121297055D01*
X143664423Y-121297055D01*
X143809367Y-121297055D01*
X143809370Y-121297055D01*
X143949380Y-121259539D01*
X144074910Y-121187064D01*
X144074914Y-121187059D01*
X144081356Y-121182117D01*
X144082298Y-121183345D01*
X144135537Y-121154275D01*
X144205229Y-121159259D01*
X144241892Y-121182822D01*
X144242434Y-121182117D01*
X144248883Y-121187066D01*
X144374406Y-121259537D01*
X144374407Y-121259537D01*
X144374410Y-121259539D01*
X144514420Y-121297055D01*
X144514423Y-121297055D01*
X144659367Y-121297055D01*
X144659370Y-121297055D01*
X144799380Y-121259539D01*
X144924910Y-121187064D01*
X145027404Y-121084570D01*
X145099879Y-120959040D01*
X145137395Y-120819030D01*
X145137395Y-120743099D01*
X145157080Y-120676060D01*
X145173714Y-120655418D01*
X147495758Y-118333374D01*
X147557081Y-118299889D01*
X147583439Y-118297055D01*
X148244024Y-118297055D01*
X148311063Y-118316740D01*
X148356818Y-118369544D01*
X148366762Y-118438702D01*
X148363799Y-118453144D01*
X148331395Y-118574080D01*
X148331395Y-118719030D01*
X148352302Y-118797055D01*
X148368912Y-118859043D01*
X148441383Y-118984566D01*
X148441385Y-118984568D01*
X148441386Y-118984570D01*
X148543880Y-119087064D01*
X148543881Y-119087065D01*
X148543883Y-119087066D01*
X148669406Y-119159537D01*
X148669407Y-119159537D01*
X148669410Y-119159539D01*
X148809420Y-119197055D01*
X148809423Y-119197055D01*
X148954367Y-119197055D01*
X148954370Y-119197055D01*
X149094380Y-119159539D01*
X149219910Y-119087064D01*
X149300201Y-119006773D01*
X150727596Y-119006773D01*
X150737507Y-119074805D01*
X150788810Y-119179747D01*
X150871406Y-119262343D01*
X150976343Y-119313643D01*
X150976346Y-119313644D01*
X151044375Y-119323555D01*
X151626894Y-119323555D01*
X152026895Y-119323555D01*
X152609413Y-119323555D01*
X152677444Y-119313643D01*
X152782386Y-119262340D01*
X152864982Y-119179744D01*
X152916282Y-119074807D01*
X152916283Y-119074804D01*
X152926195Y-119006775D01*
X152926195Y-118170256D01*
X152026895Y-118170256D01*
X152026895Y-119323555D01*
X151626894Y-119323555D01*
X151626895Y-119323554D01*
X151626895Y-118170256D01*
X150727596Y-118170256D01*
X150727596Y-119006773D01*
X149300201Y-119006773D01*
X149322404Y-118984570D01*
X149394879Y-118859040D01*
X149432395Y-118719030D01*
X149432395Y-118574080D01*
X149399991Y-118453148D01*
X149401654Y-118383299D01*
X149440816Y-118325436D01*
X149505045Y-118297932D01*
X149519766Y-118297055D01*
X149598221Y-118297055D01*
X149598223Y-118297055D01*
X149687367Y-118273169D01*
X149767291Y-118227025D01*
X150515916Y-117478399D01*
X150577237Y-117444916D01*
X150646928Y-117449900D01*
X150702862Y-117491771D01*
X150727279Y-117557236D01*
X150727595Y-117566082D01*
X150727595Y-117770256D01*
X151626895Y-117770256D01*
X152026895Y-117770256D01*
X152926194Y-117770256D01*
X152926194Y-116933738D01*
X152916282Y-116865706D01*
X152864979Y-116760764D01*
X152782383Y-116678168D01*
X152677446Y-116626868D01*
X152677443Y-116626867D01*
X152609415Y-116616956D01*
X152026895Y-116616956D01*
X152026895Y-117770256D01*
X151626895Y-117770256D01*
X151626895Y-116616956D01*
X151044375Y-116616956D01*
X151006651Y-116622453D01*
X150937474Y-116612638D01*
X150884585Y-116566982D01*
X150864775Y-116499980D01*
X150864775Y-113711380D01*
X153269394Y-113711380D01*
X153308303Y-113906984D01*
X153308306Y-113906994D01*
X153384625Y-114091247D01*
X153384632Y-114091260D01*
X153495434Y-114257085D01*
X153495437Y-114257089D01*
X153636460Y-114398112D01*
X153636464Y-114398115D01*
X153802289Y-114508917D01*
X153802302Y-114508924D01*
X153952768Y-114571248D01*
X153986560Y-114585245D01*
X153986564Y-114585245D01*
X153986565Y-114585246D01*
X154182169Y-114624155D01*
X154182172Y-114624155D01*
X154381620Y-114624155D01*
X154513219Y-114597977D01*
X154577230Y-114585245D01*
X154761494Y-114508921D01*
X154927326Y-114398115D01*
X155068355Y-114257086D01*
X155179161Y-114091254D01*
X155255485Y-113906990D01*
X155294395Y-113711378D01*
X155294395Y-113511932D01*
X155294395Y-113511929D01*
X155255486Y-113316325D01*
X155255485Y-113316324D01*
X155255485Y-113316320D01*
X155255483Y-113316315D01*
X155179164Y-113132062D01*
X155179157Y-113132049D01*
X155068355Y-112966224D01*
X155068352Y-112966220D01*
X154927329Y-112825197D01*
X154927325Y-112825194D01*
X154761500Y-112714392D01*
X154761487Y-112714385D01*
X154577234Y-112638066D01*
X154577224Y-112638063D01*
X154381620Y-112599155D01*
X154381618Y-112599155D01*
X154182172Y-112599155D01*
X154182170Y-112599155D01*
X153986565Y-112638063D01*
X153986555Y-112638066D01*
X153802302Y-112714385D01*
X153802289Y-112714392D01*
X153636464Y-112825194D01*
X153636460Y-112825197D01*
X153495437Y-112966220D01*
X153495434Y-112966224D01*
X153384632Y-113132049D01*
X153384625Y-113132062D01*
X153308306Y-113316315D01*
X153308303Y-113316325D01*
X153269395Y-113511929D01*
X153269395Y-113511932D01*
X153269395Y-113711378D01*
X153269395Y-113711380D01*
X153269394Y-113711380D01*
X150864775Y-113711380D01*
X150864775Y-111240762D01*
X150884460Y-111173723D01*
X150887164Y-111171380D01*
X153269394Y-111171380D01*
X153308303Y-111366984D01*
X153308306Y-111366994D01*
X153384625Y-111551247D01*
X153384632Y-111551260D01*
X153495434Y-111717085D01*
X153495437Y-111717089D01*
X153636460Y-111858112D01*
X153636464Y-111858115D01*
X153802289Y-111968917D01*
X153802302Y-111968924D01*
X153986555Y-112045243D01*
X153986560Y-112045245D01*
X153986564Y-112045245D01*
X153986565Y-112045246D01*
X154182169Y-112084155D01*
X154182172Y-112084155D01*
X154381620Y-112084155D01*
X154513219Y-112057977D01*
X154577230Y-112045245D01*
X154761494Y-111968921D01*
X154927326Y-111858115D01*
X155068355Y-111717086D01*
X155179161Y-111551254D01*
X155255485Y-111366990D01*
X155280594Y-111240762D01*
X155294395Y-111171380D01*
X155294395Y-110971929D01*
X155255486Y-110776325D01*
X155255485Y-110776324D01*
X155255485Y-110776320D01*
X155255483Y-110776315D01*
X155179164Y-110592062D01*
X155179157Y-110592049D01*
X155068355Y-110426224D01*
X155068352Y-110426220D01*
X154927329Y-110285197D01*
X154927325Y-110285194D01*
X154761500Y-110174392D01*
X154761487Y-110174385D01*
X154577234Y-110098066D01*
X154577224Y-110098063D01*
X154381620Y-110059155D01*
X154381618Y-110059155D01*
X154182172Y-110059155D01*
X154182170Y-110059155D01*
X153986565Y-110098063D01*
X153986555Y-110098066D01*
X153802302Y-110174385D01*
X153802289Y-110174392D01*
X153636464Y-110285194D01*
X153636460Y-110285197D01*
X153495437Y-110426220D01*
X153495434Y-110426224D01*
X153384632Y-110592049D01*
X153384625Y-110592062D01*
X153308306Y-110776315D01*
X153308303Y-110776325D01*
X153269395Y-110971929D01*
X153269395Y-110971932D01*
X153269395Y-111171378D01*
X153269395Y-111171380D01*
X153269394Y-111171380D01*
X150887164Y-111171380D01*
X150937264Y-111127968D01*
X151006422Y-111118024D01*
X151006655Y-111118058D01*
X151044377Y-111123554D01*
X151626894Y-111123554D01*
X152026895Y-111123554D01*
X152609413Y-111123554D01*
X152677444Y-111113642D01*
X152782386Y-111062339D01*
X152864980Y-110979745D01*
X152898401Y-110911382D01*
X152898402Y-110911380D01*
X152916283Y-110874802D01*
X152926195Y-110806774D01*
X152926195Y-109970255D01*
X152026895Y-109970255D01*
X152026895Y-111123554D01*
X151626894Y-111123554D01*
X151626895Y-111123553D01*
X151626895Y-109570255D01*
X152026895Y-109570255D01*
X152926194Y-109570255D01*
X152926194Y-108733737D01*
X152916282Y-108665705D01*
X152864979Y-108560763D01*
X152782383Y-108478167D01*
X152677446Y-108426867D01*
X152677443Y-108426866D01*
X152609415Y-108416955D01*
X152026895Y-108416955D01*
X152026895Y-109570255D01*
X151626895Y-109570255D01*
X151626895Y-108416955D01*
X151044375Y-108416955D01*
X151006651Y-108422452D01*
X150937474Y-108412637D01*
X150884585Y-108366981D01*
X150864775Y-108299979D01*
X150864775Y-102478916D01*
X150884460Y-102411877D01*
X150901090Y-102391239D01*
X151200173Y-102092155D01*
X151261494Y-102058672D01*
X151319941Y-102060062D01*
X151459941Y-102097576D01*
X151459944Y-102097576D01*
X151604888Y-102097576D01*
X151604891Y-102097576D01*
X151744901Y-102060060D01*
X151870431Y-101987585D01*
X151972925Y-101885091D01*
X152045400Y-101759561D01*
X152082916Y-101619551D01*
X152082916Y-101474601D01*
X152045400Y-101334591D01*
X152012886Y-101278276D01*
X151972927Y-101209064D01*
X151972922Y-101209058D01*
X151870433Y-101106569D01*
X151870427Y-101106564D01*
X151744904Y-101034093D01*
X151744905Y-101034093D01*
X151674896Y-101015334D01*
X151604891Y-100996576D01*
X151604887Y-100996575D01*
X151596831Y-100995515D01*
X151597033Y-100993980D01*
X151538835Y-100976891D01*
X151493080Y-100924087D01*
X151483816Y-100881502D01*
X151482935Y-100881619D01*
X151481874Y-100873562D01*
X151481874Y-100873561D01*
X151481874Y-100873559D01*
X151444358Y-100733549D01*
X151431615Y-100711478D01*
X151371885Y-100608022D01*
X151371880Y-100608016D01*
X151269391Y-100505527D01*
X151269385Y-100505522D01*
X151143862Y-100433051D01*
X151143863Y-100433051D01*
X151110390Y-100424082D01*
X151003849Y-100395534D01*
X150858899Y-100395534D01*
X150752358Y-100424082D01*
X150718885Y-100433051D01*
X150593362Y-100505522D01*
X150593356Y-100505527D01*
X150490867Y-100608016D01*
X150490862Y-100608022D01*
X150418391Y-100733545D01*
X150418390Y-100733549D01*
X150380874Y-100873559D01*
X150380874Y-100873561D01*
X150380874Y-101018508D01*
X150418385Y-101158502D01*
X150416722Y-101228352D01*
X150386291Y-101278276D01*
X149783826Y-101880742D01*
X149783824Y-101880745D01*
X149745242Y-101947573D01*
X149745240Y-101947575D01*
X149737681Y-101960665D01*
X149737681Y-101960666D01*
X149713795Y-102049812D01*
X149713795Y-102283355D01*
X149694110Y-102350394D01*
X149641306Y-102396149D01*
X149572148Y-102406093D01*
X149508592Y-102377068D01*
X149502114Y-102371036D01*
X148274563Y-101143485D01*
X148241078Y-101082162D01*
X148246062Y-101012470D01*
X148287934Y-100956537D01*
X148300229Y-100948426D01*
X148319910Y-100937064D01*
X148422404Y-100834570D01*
X148494879Y-100709040D01*
X148532395Y-100569030D01*
X148532395Y-100424080D01*
X148494879Y-100284070D01*
X148444150Y-100196205D01*
X148442984Y-100191398D01*
X148439680Y-100187720D01*
X148434830Y-100157789D01*
X148427678Y-100128308D01*
X148429296Y-100123632D01*
X148428505Y-100118750D01*
X148440610Y-100090942D01*
X148450530Y-100062281D01*
X148454958Y-100057982D01*
X148456393Y-100054687D01*
X148482650Y-100031103D01*
X148490337Y-100025966D01*
X148490340Y-100025966D01*
X148508713Y-100013689D01*
X148575390Y-99992814D01*
X148642770Y-100011300D01*
X148646473Y-100013680D01*
X148664860Y-100025966D01*
X148664862Y-100025966D01*
X148664864Y-100025967D01*
X148737921Y-100040499D01*
X148737924Y-100040500D01*
X148737926Y-100040500D01*
X149007395Y-100040500D01*
X149016080Y-100043050D01*
X149025042Y-100041762D01*
X149049082Y-100052740D01*
X149074434Y-100060185D01*
X149080361Y-100067025D01*
X149088598Y-100070787D01*
X149102887Y-100093021D01*
X149120189Y-100112989D01*
X149122476Y-100123503D01*
X149126372Y-100129565D01*
X149131395Y-100164500D01*
X149131395Y-100267169D01*
X149111710Y-100334208D01*
X149095076Y-100354850D01*
X149041388Y-100408537D01*
X149041383Y-100408543D01*
X148968912Y-100534066D01*
X148968911Y-100534070D01*
X148931395Y-100674080D01*
X148931395Y-100819030D01*
X148968911Y-100959040D01*
X148968912Y-100959043D01*
X149041383Y-101084566D01*
X149041385Y-101084568D01*
X149041386Y-101084570D01*
X149143880Y-101187064D01*
X149143881Y-101187065D01*
X149143883Y-101187066D01*
X149269406Y-101259537D01*
X149269407Y-101259537D01*
X149269410Y-101259539D01*
X149409420Y-101297055D01*
X149409423Y-101297055D01*
X149554367Y-101297055D01*
X149554370Y-101297055D01*
X149694380Y-101259539D01*
X149819910Y-101187064D01*
X149922404Y-101084570D01*
X149994879Y-100959040D01*
X150032395Y-100819030D01*
X150032395Y-100674080D01*
X149994879Y-100534070D01*
X149986843Y-100520152D01*
X149922406Y-100408543D01*
X149922401Y-100408537D01*
X149868714Y-100354850D01*
X149854010Y-100327922D01*
X149837418Y-100302104D01*
X149836526Y-100295903D01*
X149835229Y-100293527D01*
X149832395Y-100267169D01*
X149832395Y-100259046D01*
X149852080Y-100192007D01*
X149904884Y-100146252D01*
X149974042Y-100136308D01*
X149974272Y-100136341D01*
X149999385Y-100139999D01*
X150282599Y-100139999D01*
X150282600Y-100139998D01*
X150282600Y-97940000D01*
X149999387Y-97940000D01*
X149931351Y-97949912D01*
X149826409Y-98001214D01*
X149818256Y-98009368D01*
X149756932Y-98042851D01*
X149706387Y-98043301D01*
X149687278Y-98039500D01*
X149687274Y-98039500D01*
X148737926Y-98039500D01*
X148737923Y-98039500D01*
X148664864Y-98054032D01*
X148664861Y-98054033D01*
X148646489Y-98066309D01*
X148579811Y-98087185D01*
X148512431Y-98068699D01*
X148508711Y-98066309D01*
X148490341Y-98054035D01*
X148490340Y-98054034D01*
X148490339Y-98054033D01*
X148490338Y-98054033D01*
X148490335Y-98054032D01*
X148417277Y-98039500D01*
X148417274Y-98039500D01*
X147467926Y-98039500D01*
X147467923Y-98039500D01*
X147394864Y-98054032D01*
X147394861Y-98054033D01*
X147376489Y-98066309D01*
X147309811Y-98087185D01*
X147242431Y-98068699D01*
X147238711Y-98066309D01*
X147220341Y-98054035D01*
X147220340Y-98054034D01*
X147220339Y-98054033D01*
X147220338Y-98054033D01*
X147220335Y-98054032D01*
X147147277Y-98039500D01*
X147147274Y-98039500D01*
X146197926Y-98039500D01*
X146197923Y-98039500D01*
X146124864Y-98054032D01*
X146124861Y-98054033D01*
X146106489Y-98066309D01*
X146039811Y-98087185D01*
X145972431Y-98068699D01*
X145968711Y-98066309D01*
X145950341Y-98054035D01*
X145950340Y-98054034D01*
X145950339Y-98054033D01*
X145950338Y-98054033D01*
X145950335Y-98054032D01*
X145877277Y-98039500D01*
X145877274Y-98039500D01*
X144927926Y-98039500D01*
X144927923Y-98039500D01*
X144854864Y-98054032D01*
X144854861Y-98054033D01*
X144836489Y-98066309D01*
X144769811Y-98087185D01*
X144702431Y-98068699D01*
X144698711Y-98066309D01*
X144680341Y-98054035D01*
X144680340Y-98054034D01*
X144680339Y-98054033D01*
X144680338Y-98054033D01*
X144680335Y-98054032D01*
X144607277Y-98039500D01*
X144607274Y-98039500D01*
X143657926Y-98039500D01*
X143657923Y-98039500D01*
X143584864Y-98054032D01*
X143584861Y-98054033D01*
X143566489Y-98066309D01*
X143499811Y-98087185D01*
X143432431Y-98068699D01*
X143428711Y-98066309D01*
X143410341Y-98054035D01*
X143410340Y-98054034D01*
X143410339Y-98054033D01*
X143410338Y-98054033D01*
X143410335Y-98054032D01*
X143337277Y-98039500D01*
X143337274Y-98039500D01*
X142387926Y-98039500D01*
X142387923Y-98039500D01*
X142314864Y-98054032D01*
X142314861Y-98054033D01*
X142296489Y-98066309D01*
X142229811Y-98087185D01*
X142162431Y-98068699D01*
X142158711Y-98066309D01*
X142140341Y-98054035D01*
X142140340Y-98054034D01*
X142140339Y-98054033D01*
X142140338Y-98054033D01*
X142140335Y-98054032D01*
X142067277Y-98039500D01*
X142067274Y-98039500D01*
X141117926Y-98039500D01*
X141117923Y-98039500D01*
X141044864Y-98054032D01*
X141044861Y-98054033D01*
X141026489Y-98066309D01*
X140959811Y-98087185D01*
X140892431Y-98068699D01*
X140888711Y-98066309D01*
X140870341Y-98054035D01*
X140870340Y-98054034D01*
X140870339Y-98054033D01*
X140870338Y-98054033D01*
X140870335Y-98054032D01*
X140797277Y-98039500D01*
X140797274Y-98039500D01*
X139847926Y-98039500D01*
X139847923Y-98039500D01*
X139774864Y-98054032D01*
X139774861Y-98054033D01*
X139756489Y-98066309D01*
X139689811Y-98087185D01*
X139622431Y-98068699D01*
X139618711Y-98066309D01*
X139600341Y-98054035D01*
X139600340Y-98054034D01*
X139600339Y-98054033D01*
X139600338Y-98054033D01*
X139600335Y-98054032D01*
X139527277Y-98039500D01*
X139527274Y-98039500D01*
X138577926Y-98039500D01*
X138577923Y-98039500D01*
X138504864Y-98054032D01*
X138504861Y-98054033D01*
X138486489Y-98066309D01*
X138419811Y-98087185D01*
X138352431Y-98068699D01*
X138348711Y-98066309D01*
X138330341Y-98054035D01*
X138330340Y-98054034D01*
X138330339Y-98054033D01*
X138330338Y-98054033D01*
X138330335Y-98054032D01*
X138257277Y-98039500D01*
X138257274Y-98039500D01*
X137307926Y-98039500D01*
X137307923Y-98039500D01*
X137234864Y-98054032D01*
X137234857Y-98054035D01*
X137210989Y-98069983D01*
X137144311Y-98090860D01*
X137076931Y-98072374D01*
X137030242Y-98020395D01*
X137018100Y-97966880D01*
X137018100Y-97315323D01*
X137018099Y-97315321D01*
X137003567Y-97242264D01*
X137003566Y-97242261D01*
X137003566Y-97242260D01*
X136991291Y-97223889D01*
X136970414Y-97157214D01*
X136979414Y-97108571D01*
X136984194Y-97096732D01*
X136999330Y-97074080D01*
X148431395Y-97074080D01*
X148431395Y-97219030D01*
X148457197Y-97315323D01*
X148468912Y-97359043D01*
X148541383Y-97484566D01*
X148541385Y-97484568D01*
X148541386Y-97484570D01*
X148643880Y-97587064D01*
X148643881Y-97587065D01*
X148643883Y-97587066D01*
X148769406Y-97659537D01*
X148769407Y-97659537D01*
X148769410Y-97659539D01*
X148909420Y-97697055D01*
X148909423Y-97697055D01*
X149054367Y-97697055D01*
X149054370Y-97697055D01*
X149194380Y-97659539D01*
X149319910Y-97587064D01*
X149422404Y-97484570D01*
X149494879Y-97359040D01*
X149532395Y-97219030D01*
X149532395Y-97074080D01*
X149494879Y-96934070D01*
X149491063Y-96927461D01*
X149422406Y-96808543D01*
X149422401Y-96808537D01*
X149319912Y-96706048D01*
X149319906Y-96706043D01*
X149194383Y-96633572D01*
X149194384Y-96633572D01*
X149182901Y-96630495D01*
X149054370Y-96596055D01*
X148909420Y-96596055D01*
X148780888Y-96630495D01*
X148769406Y-96633572D01*
X148643883Y-96706043D01*
X148643877Y-96706048D01*
X148541388Y-96808537D01*
X148541383Y-96808543D01*
X148468912Y-96934066D01*
X148468911Y-96934070D01*
X148431395Y-97074080D01*
X136999330Y-97074080D01*
X137003566Y-97067740D01*
X137018100Y-96994674D01*
X137018100Y-96984372D01*
X137019743Y-96974381D01*
X137030680Y-96951655D01*
X137037785Y-96927461D01*
X137045573Y-96920712D01*
X137050044Y-96911424D01*
X137071532Y-96898218D01*
X137090589Y-96881706D01*
X137102684Y-96879074D01*
X137109572Y-96874842D01*
X137121073Y-96875074D01*
X137142100Y-96870500D01*
X137554592Y-96870500D01*
X137554594Y-96870500D01*
X137643738Y-96846614D01*
X137654362Y-96840480D01*
X137723662Y-96800470D01*
X138750052Y-95774080D01*
X147931395Y-95774080D01*
X147931395Y-95919030D01*
X147966860Y-96051386D01*
X147968912Y-96059043D01*
X148041383Y-96184566D01*
X148041385Y-96184568D01*
X148041386Y-96184570D01*
X148143880Y-96287064D01*
X148143881Y-96287065D01*
X148143883Y-96287066D01*
X148269406Y-96359537D01*
X148269407Y-96359537D01*
X148269410Y-96359539D01*
X148409420Y-96397055D01*
X148409423Y-96397055D01*
X148554367Y-96397055D01*
X148554370Y-96397055D01*
X148694380Y-96359539D01*
X148819910Y-96287064D01*
X148922404Y-96184570D01*
X148994879Y-96059040D01*
X149032395Y-95919030D01*
X149032395Y-95774080D01*
X148994879Y-95634070D01*
X148922404Y-95508540D01*
X148819910Y-95406046D01*
X148819908Y-95406045D01*
X148819906Y-95406043D01*
X148694383Y-95333572D01*
X148694384Y-95333572D01*
X148682901Y-95330495D01*
X148554370Y-95296055D01*
X148409420Y-95296055D01*
X148280888Y-95330495D01*
X148269406Y-95333572D01*
X148143883Y-95406043D01*
X148143877Y-95406048D01*
X148041388Y-95508537D01*
X148041383Y-95508543D01*
X147968912Y-95634066D01*
X147968911Y-95634070D01*
X147931395Y-95774080D01*
X138750052Y-95774080D01*
X142562365Y-91961767D01*
X142608509Y-91881843D01*
X142632395Y-91792699D01*
X142632395Y-85674080D01*
X143717101Y-85674080D01*
X143717101Y-85819030D01*
X143754617Y-85959040D01*
X143754618Y-85959043D01*
X143827089Y-86084566D01*
X143827091Y-86084568D01*
X143827092Y-86084570D01*
X143929586Y-86187064D01*
X143929587Y-86187065D01*
X143929589Y-86187066D01*
X144055112Y-86259537D01*
X144055113Y-86259537D01*
X144055116Y-86259539D01*
X144195126Y-86297055D01*
X144195129Y-86297055D01*
X144340073Y-86297055D01*
X144340076Y-86297055D01*
X144480086Y-86259539D01*
X144605616Y-86187064D01*
X144708110Y-86084570D01*
X144780585Y-85959040D01*
X144818101Y-85819030D01*
X144818101Y-85674080D01*
X144780585Y-85534070D01*
X144708110Y-85408540D01*
X144605616Y-85306046D01*
X144605614Y-85306045D01*
X144605612Y-85306043D01*
X144480089Y-85233572D01*
X144480090Y-85233572D01*
X144468607Y-85230495D01*
X144340076Y-85196055D01*
X144195126Y-85196055D01*
X144066594Y-85230495D01*
X144055112Y-85233572D01*
X143929589Y-85306043D01*
X143929583Y-85306048D01*
X143827094Y-85408537D01*
X143827089Y-85408543D01*
X143754618Y-85534066D01*
X143754617Y-85534070D01*
X143717101Y-85674080D01*
X142632395Y-85674080D01*
X142632395Y-85325941D01*
X142652080Y-85258902D01*
X142668714Y-85238260D01*
X142682001Y-85224973D01*
X142722404Y-85184570D01*
X142794879Y-85059040D01*
X142832395Y-84919030D01*
X142832395Y-84774080D01*
X142794879Y-84634070D01*
X142792414Y-84629801D01*
X142722406Y-84508543D01*
X142722401Y-84508537D01*
X142619912Y-84406048D01*
X142619906Y-84406043D01*
X142494383Y-84333572D01*
X142494384Y-84333572D01*
X142482901Y-84330495D01*
X142354370Y-84296055D01*
X142209420Y-84296055D01*
X142080888Y-84330495D01*
X142069406Y-84333572D01*
X141943883Y-84406043D01*
X141943877Y-84406048D01*
X141841388Y-84508537D01*
X141841383Y-84508543D01*
X141768912Y-84634066D01*
X141768911Y-84634070D01*
X141731395Y-84774080D01*
X141731395Y-84919030D01*
X141767022Y-85051991D01*
X141768912Y-85059043D01*
X141841383Y-85184566D01*
X141841388Y-85184572D01*
X141895076Y-85238260D01*
X141928561Y-85299583D01*
X141931395Y-85325941D01*
X141931395Y-91550011D01*
X141911710Y-91617050D01*
X141895076Y-91637692D01*
X137399587Y-96133181D01*
X137372659Y-96147884D01*
X137346841Y-96164477D01*
X137340640Y-96165368D01*
X137338264Y-96166666D01*
X137311906Y-96169500D01*
X137142100Y-96169500D01*
X137075061Y-96149815D01*
X137029306Y-96097011D01*
X137019366Y-96051320D01*
X137018697Y-96051386D01*
X137018131Y-96045645D01*
X137018100Y-96045500D01*
X137018100Y-96045323D01*
X137018099Y-96045321D01*
X137003567Y-95972264D01*
X137003566Y-95972261D01*
X137003566Y-95972260D01*
X136991291Y-95953889D01*
X136970414Y-95887214D01*
X136988898Y-95819834D01*
X136991292Y-95816109D01*
X137003566Y-95797740D01*
X137018100Y-95724674D01*
X137018100Y-95096544D01*
X137037785Y-95029505D01*
X137054419Y-95008863D01*
X139044751Y-93018531D01*
X141062365Y-91000917D01*
X141108509Y-90920993D01*
X141116207Y-90892264D01*
X141121323Y-90873171D01*
X141121323Y-90873170D01*
X141127522Y-90850033D01*
X141132395Y-90831849D01*
X141132395Y-83925941D01*
X141152080Y-83858902D01*
X141168714Y-83838260D01*
X141187947Y-83819027D01*
X141222404Y-83784570D01*
X141294879Y-83659040D01*
X141332395Y-83519030D01*
X141332395Y-83374080D01*
X141294879Y-83234070D01*
X141294591Y-83233572D01*
X141222406Y-83108543D01*
X141222401Y-83108537D01*
X141119912Y-83006048D01*
X141119906Y-83006043D01*
X140994383Y-82933572D01*
X140994384Y-82933572D01*
X140982901Y-82930495D01*
X140854370Y-82896055D01*
X140709420Y-82896055D01*
X140580888Y-82930495D01*
X140569406Y-82933572D01*
X140443883Y-83006043D01*
X140419575Y-83030351D01*
X140358251Y-83063835D01*
X140288560Y-83058849D01*
X140244215Y-83030351D01*
X140238538Y-83024674D01*
X140219910Y-83006046D01*
X140219907Y-83006044D01*
X140219906Y-83006043D01*
X140094383Y-82933572D01*
X140094384Y-82933572D01*
X140082901Y-82930495D01*
X139954370Y-82896055D01*
X139809420Y-82896055D01*
X139680888Y-82930495D01*
X139669406Y-82933572D01*
X139543883Y-83006043D01*
X139543877Y-83006048D01*
X139444076Y-83105850D01*
X139382753Y-83139335D01*
X139313061Y-83134351D01*
X139257128Y-83092479D01*
X139232711Y-83027015D01*
X139232395Y-83018169D01*
X139232395Y-83016976D01*
X139232395Y-83016974D01*
X139194879Y-82876964D01*
X139189146Y-82867035D01*
X139122406Y-82751437D01*
X139122401Y-82751431D01*
X139019912Y-82648942D01*
X139019906Y-82648937D01*
X138894383Y-82576466D01*
X138894384Y-82576466D01*
X138882901Y-82573389D01*
X138754370Y-82538949D01*
X138754367Y-82538949D01*
X138744925Y-82538949D01*
X138677886Y-82519264D01*
X138632131Y-82466460D01*
X138625150Y-82447043D01*
X138594879Y-82334070D01*
X138551337Y-82258654D01*
X138522406Y-82208543D01*
X138522401Y-82208537D01*
X138419912Y-82106048D01*
X138419906Y-82106043D01*
X138294383Y-82033572D01*
X138294384Y-82033572D01*
X138282901Y-82030495D01*
X138154370Y-81996055D01*
X138009420Y-81996055D01*
X137880888Y-82030495D01*
X137869406Y-82033572D01*
X137743883Y-82106043D01*
X137743877Y-82106048D01*
X137686745Y-82163181D01*
X137625422Y-82196666D01*
X137599064Y-82199500D01*
X137142100Y-82199500D01*
X137142007Y-82199472D01*
X137141915Y-82199500D01*
X137108369Y-82189595D01*
X137075061Y-82179815D01*
X137074998Y-82179742D01*
X137074905Y-82179715D01*
X137051938Y-82153130D01*
X137029306Y-82127011D01*
X137029271Y-82126891D01*
X137029229Y-82126843D01*
X137029149Y-82126477D01*
X137019336Y-82092964D01*
X137018100Y-82084275D01*
X137018100Y-82075326D01*
X137013630Y-82052859D01*
X137013151Y-82049485D01*
X137017702Y-82018161D01*
X137020524Y-81986624D01*
X137022786Y-81983171D01*
X137023198Y-81980341D01*
X137029067Y-81973587D01*
X137048237Y-81944337D01*
X137056385Y-81936189D01*
X137056387Y-81936185D01*
X137107688Y-81831247D01*
X137117600Y-81763219D01*
X137117600Y-81480000D01*
X134917601Y-81480000D01*
X134917601Y-81763217D01*
X134927512Y-81831249D01*
X134978815Y-81936191D01*
X134986965Y-81944341D01*
X135020450Y-82005664D01*
X135020901Y-82056213D01*
X135017100Y-82075321D01*
X135017100Y-83024678D01*
X135031632Y-83097735D01*
X135031633Y-83097738D01*
X135031633Y-83097739D01*
X135031634Y-83097740D01*
X135037053Y-83105850D01*
X135043909Y-83116111D01*
X135064785Y-83182789D01*
X135046299Y-83250169D01*
X135043909Y-83253889D01*
X135031633Y-83272261D01*
X135031632Y-83272264D01*
X135017100Y-83345321D01*
X135017100Y-84294678D01*
X135031632Y-84367735D01*
X135031633Y-84367738D01*
X135043909Y-84386111D01*
X135064785Y-84452789D01*
X135046299Y-84520169D01*
X135043909Y-84523889D01*
X135031633Y-84542261D01*
X135031632Y-84542264D01*
X135017100Y-84615321D01*
X135017100Y-85564678D01*
X135031632Y-85637735D01*
X135031633Y-85637738D01*
X135043909Y-85656111D01*
X135064785Y-85722789D01*
X135046299Y-85790169D01*
X135043911Y-85793885D01*
X135041248Y-85797871D01*
X135031633Y-85812261D01*
X135031632Y-85812264D01*
X135017100Y-85885321D01*
X135017100Y-86834678D01*
X135031632Y-86907735D01*
X135031633Y-86907738D01*
X135043909Y-86926111D01*
X135064785Y-86992789D01*
X135046299Y-87060169D01*
X135043909Y-87063889D01*
X135031633Y-87082261D01*
X135031632Y-87082264D01*
X135017100Y-87155321D01*
X135017100Y-88104678D01*
X135031632Y-88177735D01*
X135031633Y-88177738D01*
X135043909Y-88196111D01*
X135064785Y-88262789D01*
X135053170Y-88317442D01*
X135049166Y-88326020D01*
X135031634Y-88352260D01*
X135027707Y-88371999D01*
X135021374Y-88385570D01*
X135007773Y-88401005D01*
X134998237Y-88419235D01*
X134985143Y-88426689D01*
X134975184Y-88437994D01*
X134955396Y-88443626D01*
X134937519Y-88453806D01*
X134922474Y-88452998D01*
X134907984Y-88457124D01*
X134888293Y-88451165D01*
X134867750Y-88450063D01*
X134852133Y-88440222D01*
X134841110Y-88436886D01*
X134834464Y-88429087D01*
X134821328Y-88420809D01*
X134743997Y-88343478D01*
X134743994Y-88343476D01*
X134628416Y-88286974D01*
X134628414Y-88286973D01*
X134628413Y-88286973D01*
X134553477Y-88276055D01*
X134210313Y-88276055D01*
X134135377Y-88286973D01*
X134135375Y-88286973D01*
X134135373Y-88286974D01*
X134019795Y-88343476D01*
X133959575Y-88403696D01*
X133951627Y-88408035D01*
X133946201Y-88415284D01*
X133921441Y-88424517D01*
X133898251Y-88437180D01*
X133889220Y-88436534D01*
X133880736Y-88439698D01*
X133854915Y-88434080D01*
X133828560Y-88432195D01*
X133819505Y-88426376D01*
X133812464Y-88424844D01*
X133784210Y-88403692D01*
X133768711Y-88388192D01*
X133735228Y-88326868D01*
X133732395Y-88300514D01*
X133732395Y-88225941D01*
X133752080Y-88158902D01*
X133768714Y-88138260D01*
X133782001Y-88124973D01*
X133822404Y-88084570D01*
X133894879Y-87959040D01*
X133932395Y-87819030D01*
X133932395Y-87674080D01*
X133894879Y-87534070D01*
X133885052Y-87517050D01*
X133822406Y-87408543D01*
X133822401Y-87408537D01*
X133719912Y-87306048D01*
X133719906Y-87306043D01*
X133594383Y-87233572D01*
X133594384Y-87233572D01*
X133582901Y-87230495D01*
X133454370Y-87196055D01*
X133309420Y-87196055D01*
X133180888Y-87230495D01*
X133169406Y-87233572D01*
X133043883Y-87306043D01*
X133043877Y-87306048D01*
X132941388Y-87408537D01*
X132941383Y-87408543D01*
X132868912Y-87534066D01*
X132868911Y-87534070D01*
X132831395Y-87674080D01*
X132831395Y-87819030D01*
X132863054Y-87937180D01*
X132868912Y-87959043D01*
X132941383Y-88084566D01*
X132941388Y-88084572D01*
X132995076Y-88138260D01*
X133009779Y-88165187D01*
X133026372Y-88191006D01*
X133027263Y-88197206D01*
X133028561Y-88199583D01*
X133031395Y-88225941D01*
X133031395Y-88260514D01*
X133011710Y-88327553D01*
X132995076Y-88348195D01*
X132908818Y-88434452D01*
X132908816Y-88434455D01*
X132852314Y-88550033D01*
X132852313Y-88550035D01*
X132852313Y-88550037D01*
X132841395Y-88624973D01*
X132841395Y-89068137D01*
X132852313Y-89143073D01*
X132852313Y-89143074D01*
X132852314Y-89143076D01*
X132908816Y-89258654D01*
X132908818Y-89258657D01*
X132999790Y-89349629D01*
X133005406Y-89353639D01*
X133048527Y-89408614D01*
X133055082Y-89478176D01*
X133022988Y-89540238D01*
X133021034Y-89542237D01*
X132928816Y-89634455D01*
X132872314Y-89750033D01*
X132872313Y-89750035D01*
X132872313Y-89750037D01*
X132861395Y-89824973D01*
X132861395Y-90268137D01*
X132872313Y-90343073D01*
X132872313Y-90343074D01*
X132872314Y-90343076D01*
X132928816Y-90458654D01*
X132928818Y-90458657D01*
X132972362Y-90502201D01*
X133005847Y-90563524D01*
X133000863Y-90633216D01*
X132972363Y-90677562D01*
X132941389Y-90708536D01*
X132941383Y-90708543D01*
X132868912Y-90834066D01*
X132868911Y-90834070D01*
X132831395Y-90974080D01*
X132831395Y-91119030D01*
X132861490Y-91231345D01*
X132868912Y-91259043D01*
X132941383Y-91384566D01*
X132941385Y-91384568D01*
X132941386Y-91384570D01*
X133043880Y-91487064D01*
X133118869Y-91530359D01*
X133145601Y-91545793D01*
X133193817Y-91596360D01*
X133207039Y-91664967D01*
X133181071Y-91729832D01*
X133124157Y-91770360D01*
X133101480Y-91775884D01*
X133025376Y-91786972D01*
X133025374Y-91786973D01*
X132909795Y-91843476D01*
X132909792Y-91843478D01*
X132818817Y-91934453D01*
X132815900Y-91940422D01*
X132768772Y-91992004D01*
X132701237Y-92009918D01*
X132634739Y-91988476D01*
X132590389Y-91934487D01*
X132580500Y-91885961D01*
X132580500Y-80796780D01*
X134917600Y-80796780D01*
X134917600Y-81080000D01*
X135817600Y-81080000D01*
X136217600Y-81080000D01*
X137117599Y-81080000D01*
X137117599Y-80796782D01*
X137117599Y-80796780D01*
X152417600Y-80796780D01*
X152417600Y-81080000D01*
X153317600Y-81080000D01*
X153317600Y-80480000D01*
X152734382Y-80480000D01*
X152666350Y-80489912D01*
X152561408Y-80541215D01*
X152478812Y-80623811D01*
X152427512Y-80728748D01*
X152427511Y-80728751D01*
X152417600Y-80796780D01*
X137117599Y-80796780D01*
X137107687Y-80728750D01*
X137056384Y-80623808D01*
X136973788Y-80541212D01*
X136868851Y-80489912D01*
X136868848Y-80489911D01*
X136800820Y-80480000D01*
X136217600Y-80480000D01*
X136217600Y-81080000D01*
X135817600Y-81080000D01*
X135817600Y-80480000D01*
X135234382Y-80480000D01*
X135166350Y-80489912D01*
X135061408Y-80541215D01*
X134978812Y-80623811D01*
X134927512Y-80728748D01*
X134927511Y-80728751D01*
X134917600Y-80796780D01*
X132580500Y-80796780D01*
X132580500Y-79914000D01*
X132600185Y-79846961D01*
X132652989Y-79801206D01*
X132704500Y-79790000D01*
X154566319Y-79790000D01*
X154633358Y-79809685D01*
G37*
%TD.AperFunction*%
%TA.AperFunction,Conductor*%
G36*
X144362886Y-100307613D02*
G01*
X144396387Y-100331469D01*
X145670075Y-101605157D01*
X145703560Y-101666480D01*
X145706394Y-101692838D01*
X145706394Y-114805064D01*
X145697893Y-114834014D01*
X145691732Y-114863554D01*
X145688148Y-114867199D01*
X145686709Y-114872103D01*
X145663908Y-114891859D01*
X145642753Y-114913382D01*
X145636355Y-114915734D01*
X145633905Y-114917858D01*
X145609791Y-114925999D01*
X145608146Y-114926371D01*
X145552754Y-114937390D01*
X145549288Y-114939705D01*
X145534292Y-114943103D01*
X145509534Y-114941546D01*
X145484871Y-114944196D01*
X145466664Y-114938850D01*
X145464561Y-114938718D01*
X145463462Y-114937910D01*
X145463062Y-114937792D01*
X145387972Y-114922856D01*
X145387970Y-114922856D01*
X144525822Y-114922856D01*
X144525820Y-114922856D01*
X144440779Y-114939772D01*
X144440470Y-114938222D01*
X144384878Y-114944199D01*
X144379497Y-114943104D01*
X144364504Y-114939707D01*
X144361036Y-114937390D01*
X144305626Y-114926368D01*
X144303997Y-114925999D01*
X144274850Y-114909757D01*
X144245293Y-114894295D01*
X144244451Y-114892816D01*
X144242964Y-114891988D01*
X144227224Y-114862565D01*
X144210719Y-114833579D01*
X144210440Y-114831188D01*
X144210008Y-114830380D01*
X144210145Y-114828660D01*
X144207396Y-114805064D01*
X144207396Y-100520154D01*
X144207396Y-100520152D01*
X144188931Y-100451239D01*
X144190594Y-100381394D01*
X144229756Y-100323532D01*
X144293984Y-100296027D01*
X144362886Y-100307613D01*
G37*
%TD.AperFunction*%
%TA.AperFunction,Conductor*%
G36*
X148654158Y-102524089D02*
G01*
X148687663Y-102547947D01*
X148970076Y-102830360D01*
X149003561Y-102891683D01*
X149006395Y-102918041D01*
X149006395Y-114805064D01*
X148997893Y-114834014D01*
X148991734Y-114863553D01*
X148988149Y-114867199D01*
X148986710Y-114872103D01*
X148963909Y-114891859D01*
X148942755Y-114913381D01*
X148936357Y-114915733D01*
X148933906Y-114917858D01*
X148909794Y-114925999D01*
X148908164Y-114926368D01*
X148852755Y-114937390D01*
X148849286Y-114939707D01*
X148834294Y-114943104D01*
X148809541Y-114941547D01*
X148784877Y-114944199D01*
X148766664Y-114938851D01*
X148764562Y-114938719D01*
X148763463Y-114937911D01*
X148763055Y-114937791D01*
X148687971Y-114922856D01*
X148687969Y-114922856D01*
X148605395Y-114922856D01*
X148538356Y-114903171D01*
X148492601Y-114850367D01*
X148481395Y-114798856D01*
X148481395Y-102672153D01*
X148481395Y-102672151D01*
X148480209Y-102667724D01*
X148481868Y-102597877D01*
X148521028Y-102540013D01*
X148585255Y-102512506D01*
X148654158Y-102524089D01*
G37*
%TD.AperFunction*%
%TA.AperFunction,Conductor*%
G36*
X142967392Y-105715072D02*
G01*
X143044410Y-105759539D01*
X143184420Y-105797055D01*
X143184423Y-105797055D01*
X143329368Y-105797055D01*
X143329370Y-105797055D01*
X143350302Y-105791446D01*
X143420150Y-105793107D01*
X143478013Y-105832269D01*
X143505519Y-105896496D01*
X143506396Y-105911220D01*
X143506396Y-114805064D01*
X143497895Y-114834013D01*
X143491735Y-114863554D01*
X143488150Y-114867200D01*
X143486711Y-114872103D01*
X143463917Y-114891853D01*
X143442756Y-114913382D01*
X143436357Y-114915734D01*
X143433907Y-114917858D01*
X143409794Y-114925999D01*
X143408157Y-114926369D01*
X143352756Y-114937390D01*
X143349288Y-114939706D01*
X143334293Y-114943104D01*
X143309536Y-114941547D01*
X143284872Y-114944198D01*
X143266664Y-114938851D01*
X143264561Y-114938719D01*
X143263461Y-114937910D01*
X143263055Y-114937791D01*
X143187971Y-114922856D01*
X143187969Y-114922856D01*
X142956395Y-114922856D01*
X142889356Y-114903171D01*
X142843601Y-114850367D01*
X142832395Y-114798856D01*
X142832395Y-110200413D01*
X142832395Y-110200411D01*
X142808509Y-110111267D01*
X142798008Y-110093079D01*
X142781395Y-110031078D01*
X142781395Y-105822461D01*
X142801080Y-105755422D01*
X142853884Y-105709667D01*
X142923042Y-105699723D01*
X142967392Y-105715072D01*
G37*
%TD.AperFunction*%
%TA.AperFunction,Conductor*%
G36*
X140973429Y-99997763D02*
G01*
X140992140Y-99997702D01*
X141006424Y-100006815D01*
X141022766Y-100011298D01*
X141026473Y-100013680D01*
X141044860Y-100025966D01*
X141044862Y-100025966D01*
X141044864Y-100025967D01*
X141117921Y-100040499D01*
X141117924Y-100040500D01*
X141117926Y-100040500D01*
X141746056Y-100040500D01*
X141813095Y-100060185D01*
X141833737Y-100076819D01*
X142044076Y-100287158D01*
X142077561Y-100348481D01*
X142080395Y-100374839D01*
X142080395Y-110241698D01*
X142102740Y-110325094D01*
X142102741Y-110325095D01*
X142104281Y-110330843D01*
X142114782Y-110349031D01*
X142131395Y-110411031D01*
X142131395Y-114798856D01*
X142111710Y-114865895D01*
X142058906Y-114911650D01*
X142007395Y-114922856D01*
X141356539Y-114922856D01*
X141289500Y-114903171D01*
X141268858Y-114886537D01*
X140709419Y-114327098D01*
X140675934Y-114265775D01*
X140673100Y-114239417D01*
X140673100Y-100164500D01*
X140692785Y-100097461D01*
X140745589Y-100051706D01*
X140761771Y-100045639D01*
X140779060Y-100040500D01*
X140797274Y-100040500D01*
X140870340Y-100025966D01*
X140904301Y-100003274D01*
X140922271Y-99997933D01*
X140939216Y-99997876D01*
X140955386Y-99992814D01*
X140973429Y-99997763D01*
G37*
%TD.AperFunction*%
%TA.AperFunction,Conductor*%
G36*
X142986598Y-100192126D02*
G01*
X142993076Y-100198158D01*
X143470077Y-100675159D01*
X143503562Y-100736482D01*
X143506396Y-100762840D01*
X143506396Y-104581889D01*
X143486711Y-104648928D01*
X143433907Y-104694683D01*
X143364749Y-104704627D01*
X143350304Y-104701664D01*
X143329371Y-104696055D01*
X143329370Y-104696055D01*
X143184420Y-104696055D01*
X143055888Y-104730495D01*
X143044406Y-104733572D01*
X142967395Y-104778035D01*
X142899495Y-104794508D01*
X142833468Y-104771655D01*
X142790277Y-104716734D01*
X142781395Y-104670648D01*
X142781395Y-100285839D01*
X142801080Y-100218800D01*
X142853884Y-100173045D01*
X142923042Y-100163101D01*
X142986598Y-100192126D01*
G37*
%TD.AperFunction*%
%TA.AperFunction,Conductor*%
G36*
X139250729Y-83401653D02*
G01*
X139306662Y-83443525D01*
X139331079Y-83508989D01*
X139331395Y-83517835D01*
X139331395Y-83519030D01*
X139359158Y-83622642D01*
X139368912Y-83659043D01*
X139441383Y-83784566D01*
X139441388Y-83784572D01*
X139495076Y-83838260D01*
X139528561Y-83899583D01*
X139531395Y-83925941D01*
X139531395Y-85472055D01*
X139511710Y-85539094D01*
X139458906Y-85584849D01*
X139407395Y-85596055D01*
X139404370Y-85596055D01*
X139259420Y-85596055D01*
X139132397Y-85630091D01*
X139119406Y-85633572D01*
X138993883Y-85706043D01*
X138993877Y-85706048D01*
X138891388Y-85808537D01*
X138891383Y-85808543D01*
X138818912Y-85934066D01*
X138818911Y-85934070D01*
X138781395Y-86074080D01*
X138781395Y-86219030D01*
X138818911Y-86359040D01*
X138818912Y-86359043D01*
X138891383Y-86484566D01*
X138891385Y-86484568D01*
X138891386Y-86484570D01*
X138993880Y-86587064D01*
X138993881Y-86587065D01*
X138993883Y-86587066D01*
X139119406Y-86659537D01*
X139119407Y-86659537D01*
X139119410Y-86659539D01*
X139259420Y-86697055D01*
X139259423Y-86697055D01*
X139407395Y-86697055D01*
X139474434Y-86716740D01*
X139520189Y-86769544D01*
X139531395Y-86821055D01*
X139531395Y-90869160D01*
X139511710Y-90936199D01*
X139495076Y-90956841D01*
X137229781Y-93222136D01*
X137168458Y-93255621D01*
X137098766Y-93250637D01*
X137042833Y-93208765D01*
X137018416Y-93143301D01*
X137018100Y-93134455D01*
X137018100Y-92235323D01*
X137018099Y-92235321D01*
X137003567Y-92162264D01*
X137003566Y-92162262D01*
X137003566Y-92162260D01*
X136991291Y-92143889D01*
X136970414Y-92077214D01*
X136988898Y-92009834D01*
X136991292Y-92006109D01*
X137003566Y-91987740D01*
X137018100Y-91914674D01*
X137018100Y-91180595D01*
X137037785Y-91113556D01*
X137090589Y-91067801D01*
X137159747Y-91057857D01*
X137174179Y-91060817D01*
X137309420Y-91097055D01*
X137309423Y-91097055D01*
X137454367Y-91097055D01*
X137454370Y-91097055D01*
X137594380Y-91059539D01*
X137719910Y-90987064D01*
X137822404Y-90884570D01*
X137894879Y-90759040D01*
X137932395Y-90619030D01*
X137932395Y-90474080D01*
X137894879Y-90334070D01*
X137885055Y-90317055D01*
X137822406Y-90208543D01*
X137822401Y-90208537D01*
X137719912Y-90106048D01*
X137719910Y-90106046D01*
X137630102Y-90054195D01*
X137581886Y-90003628D01*
X137568102Y-89946808D01*
X137568102Y-87686120D01*
X137568102Y-87686118D01*
X137544216Y-87596974D01*
X137507898Y-87534070D01*
X137498075Y-87517056D01*
X137498072Y-87517053D01*
X137498071Y-87517050D01*
X137432814Y-87451793D01*
X137330552Y-87349530D01*
X137250628Y-87303386D01*
X137161484Y-87279500D01*
X137161483Y-87279500D01*
X137142100Y-87279500D01*
X137075061Y-87259815D01*
X137029306Y-87207011D01*
X137023239Y-87190829D01*
X137018100Y-87173539D01*
X137018100Y-87155326D01*
X137003566Y-87082260D01*
X136980874Y-87048298D01*
X136975533Y-87030329D01*
X136975476Y-87013383D01*
X136970414Y-86997214D01*
X136975363Y-86979170D01*
X136975302Y-86960460D01*
X136984415Y-86946175D01*
X136988898Y-86929834D01*
X136991292Y-86926109D01*
X137003566Y-86907740D01*
X137018100Y-86834674D01*
X137018100Y-85885326D01*
X137018100Y-85885323D01*
X137018099Y-85885321D01*
X137003567Y-85812264D01*
X137003566Y-85812261D01*
X137003566Y-85812260D01*
X136991291Y-85793889D01*
X136970414Y-85727214D01*
X136988898Y-85659834D01*
X136991292Y-85656109D01*
X137003566Y-85637740D01*
X137018100Y-85564674D01*
X137018100Y-84615326D01*
X137018100Y-84615323D01*
X137018099Y-84615321D01*
X137003567Y-84542264D01*
X137003566Y-84542261D01*
X137003566Y-84542260D01*
X136991291Y-84523889D01*
X136970414Y-84457214D01*
X136975533Y-84419671D01*
X136980874Y-84401701D01*
X137003566Y-84367740D01*
X137018100Y-84294674D01*
X137018100Y-84276460D01*
X137023239Y-84259171D01*
X137032819Y-84244372D01*
X137037785Y-84227461D01*
X137051409Y-84215655D01*
X137061209Y-84200518D01*
X137077269Y-84193247D01*
X137090589Y-84181706D01*
X137114030Y-84176606D01*
X137124860Y-84171704D01*
X137131842Y-84172731D01*
X137142100Y-84170500D01*
X137997486Y-84170500D01*
X137997488Y-84170500D01*
X138086632Y-84146614D01*
X138166556Y-84100470D01*
X138590758Y-83676268D01*
X138652081Y-83642783D01*
X138678439Y-83639949D01*
X138754367Y-83639949D01*
X138754370Y-83639949D01*
X138894380Y-83602433D01*
X139019910Y-83529958D01*
X139119714Y-83430154D01*
X139181037Y-83396669D01*
X139250729Y-83401653D01*
G37*
%TD.AperFunction*%
%TA.AperFunction,Conductor*%
G36*
X133935223Y-90460912D02*
G01*
X133979575Y-90489414D01*
X134039792Y-90549631D01*
X134039795Y-90549633D01*
X134140232Y-90598733D01*
X134155377Y-90606137D01*
X134230313Y-90617055D01*
X134230318Y-90617055D01*
X134573472Y-90617055D01*
X134573477Y-90617055D01*
X134648413Y-90606137D01*
X134748654Y-90557132D01*
X134763994Y-90549633D01*
X134763997Y-90549631D01*
X134805419Y-90508210D01*
X134866742Y-90474725D01*
X134936434Y-90479709D01*
X134992367Y-90521581D01*
X135013994Y-90568311D01*
X135017100Y-90581925D01*
X135017100Y-90644674D01*
X135031634Y-90717740D01*
X135056612Y-90755123D01*
X135061699Y-90777420D01*
X135060902Y-90790389D01*
X135064785Y-90802789D01*
X135058803Y-90824591D01*
X135057418Y-90847158D01*
X135049737Y-90857637D01*
X135046299Y-90870169D01*
X135043909Y-90873889D01*
X135031633Y-90892261D01*
X135031632Y-90892264D01*
X135017100Y-90965321D01*
X135017100Y-90972055D01*
X134997415Y-91039094D01*
X134944611Y-91084849D01*
X134893100Y-91096055D01*
X134735751Y-91096055D01*
X134682173Y-91110411D01*
X134682172Y-91110410D01*
X134646611Y-91119939D01*
X134646604Y-91119942D01*
X134566686Y-91166082D01*
X134566681Y-91166086D01*
X134011426Y-91721341D01*
X134011425Y-91721343D01*
X133981400Y-91773348D01*
X133970228Y-91792699D01*
X133962153Y-91806685D01*
X133936160Y-91835317D01*
X133937058Y-91836215D01*
X133929794Y-91843478D01*
X133929793Y-91843479D01*
X133891430Y-91881842D01*
X133869576Y-91903696D01*
X133808252Y-91937180D01*
X133738561Y-91932195D01*
X133694214Y-91903695D01*
X133633998Y-91843479D01*
X133558734Y-91806685D01*
X133542332Y-91798666D01*
X133490750Y-91751539D01*
X133472836Y-91684005D01*
X133494277Y-91617506D01*
X133548266Y-91573156D01*
X133564693Y-91567493D01*
X133594380Y-91559539D01*
X133719910Y-91487064D01*
X133822404Y-91384570D01*
X133894879Y-91259040D01*
X133932395Y-91119030D01*
X133932395Y-90974080D01*
X133894879Y-90834070D01*
X133889406Y-90824591D01*
X133822406Y-90708543D01*
X133822401Y-90708537D01*
X133791427Y-90677563D01*
X133787089Y-90669619D01*
X133779844Y-90664196D01*
X133770606Y-90639433D01*
X133757942Y-90616240D01*
X133758587Y-90607213D01*
X133755424Y-90598733D01*
X133761040Y-90572906D01*
X133762926Y-90546548D01*
X133768742Y-90537497D01*
X133770273Y-90530459D01*
X133791420Y-90502207D01*
X133804213Y-90489414D01*
X133865531Y-90455930D01*
X133935223Y-90460912D01*
G37*
%TD.AperFunction*%
%TA.AperFunction,Conductor*%
G36*
X152428390Y-84262238D02*
G01*
X152443882Y-84262382D01*
X152460730Y-84273431D01*
X152479775Y-84280023D01*
X152489353Y-84292203D01*
X152502308Y-84300699D01*
X152521114Y-84330565D01*
X152526759Y-84343236D01*
X152531634Y-84367740D01*
X152549772Y-84394887D01*
X152554071Y-84404534D01*
X152563374Y-84473782D01*
X152543909Y-84523889D01*
X152531633Y-84542261D01*
X152531632Y-84542264D01*
X152517100Y-84615321D01*
X152517100Y-85564678D01*
X152531632Y-85637735D01*
X152531633Y-85637738D01*
X152543909Y-85656111D01*
X152564785Y-85722789D01*
X152546299Y-85790169D01*
X152543911Y-85793885D01*
X152541248Y-85797871D01*
X152531633Y-85812261D01*
X152531632Y-85812264D01*
X152517100Y-85885321D01*
X152517100Y-86834678D01*
X152531632Y-86907735D01*
X152531633Y-86907738D01*
X152543909Y-86926111D01*
X152564785Y-86992789D01*
X152546299Y-87060169D01*
X152543909Y-87063889D01*
X152531633Y-87082261D01*
X152531632Y-87082264D01*
X152517100Y-87155321D01*
X152517100Y-88104678D01*
X152531632Y-88177735D01*
X152531633Y-88177738D01*
X152543909Y-88196111D01*
X152564785Y-88262789D01*
X152546299Y-88330169D01*
X152543909Y-88333889D01*
X152531633Y-88352261D01*
X152531632Y-88352264D01*
X152517100Y-88425321D01*
X152517100Y-89374678D01*
X152531632Y-89447735D01*
X152531633Y-89447738D01*
X152543909Y-89466111D01*
X152564785Y-89532789D01*
X152546299Y-89600169D01*
X152543909Y-89603889D01*
X152531633Y-89622261D01*
X152531632Y-89622264D01*
X152517100Y-89695321D01*
X152517100Y-90644678D01*
X152531632Y-90717735D01*
X152531633Y-90717738D01*
X152531633Y-90717739D01*
X152531634Y-90717740D01*
X152543909Y-90736111D01*
X152564785Y-90802789D01*
X152546299Y-90870169D01*
X152543909Y-90873889D01*
X152531633Y-90892261D01*
X152531632Y-90892264D01*
X152517100Y-90965321D01*
X152517100Y-91164306D01*
X152497415Y-91231345D01*
X152480781Y-91251987D01*
X152273032Y-91459736D01*
X152246104Y-91474439D01*
X152220286Y-91491032D01*
X152214085Y-91491923D01*
X152211709Y-91493221D01*
X152185351Y-91496055D01*
X152105395Y-91496055D01*
X152038356Y-91476370D01*
X151992601Y-91423566D01*
X151981395Y-91372055D01*
X151981395Y-84629801D01*
X152001080Y-84562762D01*
X152017710Y-84542124D01*
X152223974Y-84335859D01*
X152279559Y-84303767D01*
X152305895Y-84296711D01*
X152345848Y-84273643D01*
X152360904Y-84269991D01*
X152374015Y-84261736D01*
X152394163Y-84261922D01*
X152413748Y-84257171D01*
X152428390Y-84262238D01*
G37*
%TD.AperFunction*%
%TA.AperFunction,Conductor*%
G36*
X155510599Y-83340830D02*
G01*
X155542670Y-83343124D01*
X155545070Y-83344920D01*
X155548047Y-83345274D01*
X155572863Y-83365726D01*
X155598604Y-83384996D01*
X155599865Y-83387980D01*
X155601965Y-83389711D01*
X155617415Y-83421444D01*
X155621395Y-83433859D01*
X155621396Y-83437289D01*
X155635878Y-83528730D01*
X155678876Y-83613118D01*
X155681930Y-83622642D01*
X155683656Y-83692490D01*
X155663119Y-83734815D01*
X155577410Y-83849307D01*
X155528168Y-83981325D01*
X155523306Y-84026554D01*
X155523307Y-84026555D01*
X156057895Y-84026555D01*
X156066580Y-84029105D01*
X156075542Y-84027817D01*
X156099582Y-84038795D01*
X156124934Y-84046240D01*
X156130861Y-84053080D01*
X156139098Y-84056842D01*
X156153387Y-84079076D01*
X156170689Y-84099044D01*
X156172976Y-84109558D01*
X156176872Y-84115620D01*
X156181895Y-84150555D01*
X156181895Y-84302555D01*
X156162210Y-84369594D01*
X156109406Y-84415349D01*
X156057895Y-84426555D01*
X155523307Y-84426555D01*
X155528168Y-84471784D01*
X155577410Y-84603802D01*
X155661850Y-84716599D01*
X155765368Y-84794093D01*
X155784564Y-84819736D01*
X155804984Y-84844404D01*
X155805360Y-84847517D01*
X155807239Y-84850027D01*
X155809523Y-84881969D01*
X155813366Y-84913769D01*
X155811999Y-84916591D01*
X155812223Y-84919719D01*
X155796872Y-84947831D01*
X155782916Y-84976654D01*
X155779730Y-84979224D01*
X155778738Y-84981042D01*
X155755729Y-84999160D01*
X155754407Y-84999967D01*
X155743880Y-85006046D01*
X155742961Y-85006964D01*
X155735983Y-85011230D01*
X155708313Y-85018681D01*
X155681592Y-85029003D01*
X155675008Y-85027650D01*
X155668516Y-85029399D01*
X155641209Y-85020707D01*
X155613151Y-85014944D01*
X155605633Y-85009384D01*
X155601938Y-85008208D01*
X155598614Y-85004193D01*
X155583630Y-84993111D01*
X155533997Y-84943478D01*
X155533994Y-84943476D01*
X155418416Y-84886974D01*
X155418414Y-84886973D01*
X155418413Y-84886973D01*
X155343477Y-84876055D01*
X155000313Y-84876055D01*
X154925377Y-84886973D01*
X154925375Y-84886973D01*
X154925373Y-84886974D01*
X154809795Y-84943476D01*
X154809792Y-84943478D01*
X154729781Y-85023490D01*
X154668458Y-85056975D01*
X154598766Y-85051991D01*
X154542833Y-85010119D01*
X154518416Y-84944655D01*
X154518100Y-84935809D01*
X154518100Y-84615323D01*
X154518099Y-84615321D01*
X154503567Y-84542264D01*
X154503566Y-84542261D01*
X154503566Y-84542260D01*
X154491291Y-84523889D01*
X154470414Y-84457214D01*
X154474108Y-84424880D01*
X154479335Y-84404004D01*
X154503566Y-84367740D01*
X154518100Y-84294674D01*
X154518100Y-84249193D01*
X154521814Y-84234361D01*
X154532075Y-84216885D01*
X154537785Y-84197442D01*
X154549405Y-84187372D01*
X154557193Y-84174111D01*
X154575274Y-84164957D01*
X154590589Y-84151687D01*
X154595463Y-84149937D01*
X154595376Y-84149726D01*
X154602882Y-84146615D01*
X154602888Y-84146614D01*
X154682812Y-84100470D01*
X155411656Y-83371624D01*
X155414286Y-83370188D01*
X155415845Y-83367627D01*
X155444764Y-83353546D01*
X155472979Y-83338140D01*
X155475967Y-83338353D01*
X155478664Y-83337041D01*
X155510599Y-83340830D01*
G37*
%TD.AperFunction*%
%TD*%
M02*
