%TF.GenerationSoftware,KiCad,Pcbnew,9.0.5*%
%TF.CreationDate,2025-11-05T16:55:38-05:00*%
%TF.ProjectId,flight-computer,666c6967-6874-42d6-936f-6d7075746572,rev?*%
%TF.SameCoordinates,Original*%
%TF.FileFunction,Soldermask,Top*%
%TF.FilePolarity,Negative*%
%FSLAX46Y46*%
G04 Gerber Fmt 4.6, Leading zero omitted, Abs format (unit mm)*
G04 Created by KiCad (PCBNEW 9.0.5) date 2025-11-05 16:55:38*
%MOMM*%
%LPD*%
G01*
G04 APERTURE LIST*
G04 Aperture macros list*
%AMRoundRect*
0 Rectangle with rounded corners*
0 $1 Rounding radius*
0 $2 $3 $4 $5 $6 $7 $8 $9 X,Y pos of 4 corners*
0 Add a 4 corners polygon primitive as box body*
4,1,4,$2,$3,$4,$5,$6,$7,$8,$9,$2,$3,0*
0 Add four circle primitives for the rounded corners*
1,1,$1+$1,$2,$3*
1,1,$1+$1,$4,$5*
1,1,$1+$1,$6,$7*
1,1,$1+$1,$8,$9*
0 Add four rect primitives between the rounded corners*
20,1,$1+$1,$2,$3,$4,$5,0*
20,1,$1+$1,$4,$5,$6,$7,0*
20,1,$1+$1,$6,$7,$8,$9,0*
20,1,$1+$1,$8,$9,$2,$3,0*%
G04 Aperture macros list end*
%ADD10RoundRect,0.150000X-0.150000X0.587500X-0.150000X-0.587500X0.150000X-0.587500X0.150000X0.587500X0*%
%ADD11C,1.524000*%
%ADD12RoundRect,0.250000X-1.650000X0.650000X-1.650000X-0.650000X1.650000X-0.650000X1.650000X0.650000X0*%
%ADD13RoundRect,0.200000X-1.250000X0.200000X-1.250000X-0.200000X1.250000X-0.200000X1.250000X0.200000X0*%
%ADD14RoundRect,0.250000X1.650000X-0.650000X1.650000X0.650000X-1.650000X0.650000X-1.650000X-0.650000X0*%
%ADD15RoundRect,0.200000X1.250000X-0.200000X1.250000X0.200000X-1.250000X0.200000X-1.250000X-0.200000X0*%
%ADD16O,1.000000X1.800000*%
%ADD17O,1.000000X2.100000*%
%ADD18RoundRect,0.150000X-0.150000X-0.425000X0.150000X-0.425000X0.150000X0.425000X-0.150000X0.425000X0*%
%ADD19RoundRect,0.075000X-0.075000X-0.500000X0.075000X-0.500000X0.075000X0.500000X-0.075000X0.500000X0*%
%ADD20C,0.650000*%
%ADD21C,3.800000*%
%ADD22RoundRect,0.135000X-0.135000X-0.185000X0.135000X-0.185000X0.135000X0.185000X-0.135000X0.185000X0*%
%ADD23RoundRect,0.250000X-0.625000X0.312500X-0.625000X-0.312500X0.625000X-0.312500X0.625000X0.312500X0*%
%ADD24RoundRect,0.140000X0.140000X0.170000X-0.140000X0.170000X-0.140000X-0.170000X0.140000X-0.170000X0*%
%ADD25R,1.536700X0.431800*%
%ADD26RoundRect,0.140000X-0.140000X-0.170000X0.140000X-0.170000X0.140000X0.170000X-0.140000X0.170000X0*%
%ADD27RoundRect,0.250000X0.625000X-0.312500X0.625000X0.312500X-0.625000X0.312500X-0.625000X-0.312500X0*%
%ADD28R,0.351536X0.576580*%
%ADD29R,0.576580X0.351536*%
%ADD30RoundRect,0.250000X0.500000X-0.275000X0.500000X0.275000X-0.500000X0.275000X-0.500000X-0.275000X0*%
%ADD31RoundRect,0.250000X0.500000X-0.950000X0.500000X0.950000X-0.500000X0.950000X-0.500000X-0.950000X0*%
%ADD32RoundRect,0.140000X-0.170000X0.140000X-0.170000X-0.140000X0.170000X-0.140000X0.170000X0.140000X0*%
%ADD33RoundRect,0.250000X0.650000X-0.325000X0.650000X0.325000X-0.650000X0.325000X-0.650000X-0.325000X0*%
%ADD34R,4.597400X1.295400*%
%ADD35RoundRect,0.140000X0.170000X-0.140000X0.170000X0.140000X-0.170000X0.140000X-0.170000X-0.140000X0*%
%ADD36RoundRect,0.135000X0.135000X0.185000X-0.135000X0.185000X-0.135000X-0.185000X0.135000X-0.185000X0*%
%ADD37RoundRect,0.150000X-0.512500X-0.150000X0.512500X-0.150000X0.512500X0.150000X-0.512500X0.150000X0*%
G04 APERTURE END LIST*
D10*
%TO.C,Q1*%
X148531895Y-104121555D03*
X147581895Y-102246555D03*
X149481895Y-102246555D03*
%TD*%
D11*
%TO.C,J6*%
X154281895Y-111071655D03*
X154281895Y-113611655D03*
%TD*%
%TO.C,J3*%
X136106895Y-111111555D03*
X136106895Y-108571555D03*
%TD*%
D12*
%TO.C,J1*%
X134781895Y-97646555D03*
X134781895Y-84946555D03*
D13*
X139481895Y-95046555D03*
X139481895Y-93546555D03*
X139481895Y-92046555D03*
X139481895Y-90546555D03*
X139481895Y-89046555D03*
X139481895Y-87546555D03*
%TD*%
D14*
%TO.C,J2*%
X154781895Y-82146555D03*
X154781895Y-94846555D03*
D15*
X150081895Y-84746555D03*
X150081895Y-86246555D03*
X150081895Y-87746555D03*
X150081895Y-89246555D03*
X150081895Y-90746555D03*
X150081895Y-92246555D03*
%TD*%
D16*
%TO.C,J5*%
X148981895Y-127321555D03*
D17*
X148981895Y-123141555D03*
D16*
X140341895Y-127321555D03*
D17*
X140341895Y-123141555D03*
D18*
X141461895Y-122566555D03*
X142261895Y-122566555D03*
D19*
X142911895Y-122566555D03*
X143911895Y-122566555D03*
X145411895Y-122566555D03*
X146411895Y-122566555D03*
D18*
X147061895Y-122566555D03*
X147861895Y-122566555D03*
X147861895Y-122566555D03*
X147061895Y-122566555D03*
D19*
X145911895Y-122566555D03*
X144911895Y-122566555D03*
X144411895Y-122566555D03*
X143411895Y-122566555D03*
D18*
X142261895Y-122566555D03*
X141461895Y-122566555D03*
D20*
X147551895Y-123641555D03*
X141771895Y-123641555D03*
%TD*%
D21*
%TO.C,H2*%
X153982000Y-103200000D03*
%TD*%
D22*
%TO.C,R3*%
X148836895Y-114901555D03*
X147816895Y-114901555D03*
%TD*%
D23*
%TO.C,R10*%
X150981895Y-108009055D03*
X150981895Y-105084055D03*
%TD*%
D24*
%TO.C,C7*%
X143201895Y-86846555D03*
X144161895Y-86846555D03*
%TD*%
D21*
%TO.C,H4*%
X153982000Y-126450000D03*
%TD*%
D25*
%TO.C,U4*%
X147499645Y-97171556D03*
X147499645Y-97821554D03*
X147499645Y-98471556D03*
X147499645Y-99121554D03*
X142864145Y-99121554D03*
X142864145Y-98471556D03*
X142864145Y-97821554D03*
X142864145Y-97171556D03*
%TD*%
D26*
%TO.C,C9*%
X147481895Y-95346555D03*
X146521895Y-95346555D03*
%TD*%
D24*
%TO.C,C4*%
X145096895Y-113151555D03*
X146056895Y-113151555D03*
%TD*%
D21*
%TO.C,H1*%
X135582000Y-103200000D03*
%TD*%
D27*
%TO.C,R9*%
X148381895Y-106084055D03*
X148381895Y-109009055D03*
%TD*%
D28*
%TO.C,U3*%
X144267601Y-83183955D03*
X144767600Y-83183955D03*
X145267599Y-83183955D03*
D29*
X145977900Y-83390254D03*
X145977900Y-83890255D03*
X145977900Y-84390255D03*
X145977900Y-84890256D03*
D28*
X145267599Y-85096555D03*
X144767600Y-85096555D03*
X144267601Y-85096555D03*
D29*
X143557300Y-84890256D03*
X143557300Y-84390255D03*
X143557300Y-83890255D03*
X143557300Y-83390254D03*
%TD*%
D30*
%TO.C,D1*%
X137231895Y-122371555D03*
D31*
X137231895Y-119996555D03*
%TD*%
D32*
%TO.C,C8*%
X147281895Y-86073110D03*
X147281895Y-85113110D03*
%TD*%
D21*
%TO.C,H3*%
X135582000Y-126450000D03*
%TD*%
D33*
%TO.C,C1*%
X138076895Y-114176555D03*
X138076895Y-117126555D03*
%TD*%
D34*
%TO.C,L1*%
X143731895Y-107444255D03*
X143731895Y-111048855D03*
%TD*%
D35*
%TO.C,C2*%
X141326895Y-115651555D03*
X141326895Y-116611555D03*
%TD*%
D24*
%TO.C,C6*%
X142247129Y-104551234D03*
X143207129Y-104551234D03*
%TD*%
D36*
%TO.C,R2*%
X147816895Y-116651555D03*
X148836895Y-116651555D03*
%TD*%
D10*
%TO.C,Q2*%
X145031895Y-104121555D03*
X144081895Y-102246555D03*
X145981895Y-102246555D03*
%TD*%
D37*
%TO.C,U1*%
X145495000Y-114705000D03*
X145495000Y-115655000D03*
X145495000Y-116605000D03*
X143220000Y-116605000D03*
X143220000Y-115655000D03*
X143220000Y-114705000D03*
%TD*%
M02*
