%TF.GenerationSoftware,KiCad,Pcbnew,9.0.2*%
%TF.CreationDate,2025-08-03T14:59:52-04:00*%
%TF.ProjectId,SGTC_Center,53475443-5f43-4656-9e74-65722e6b6963,rev?*%
%TF.SameCoordinates,Original*%
%TF.FileFunction,Copper,L1,Top*%
%TF.FilePolarity,Positive*%
%FSLAX46Y46*%
G04 Gerber Fmt 4.6, Leading zero omitted, Abs format (unit mm)*
G04 Created by KiCad (PCBNEW 9.0.2) date 2025-08-03 14:59:52*
%MOMM*%
%LPD*%
G01*
G04 APERTURE LIST*
G04 Aperture macros list*
%AMRoundRect*
0 Rectangle with rounded corners*
0 $1 Rounding radius*
0 $2 $3 $4 $5 $6 $7 $8 $9 X,Y pos of 4 corners*
0 Add a 4 corners polygon primitive as box body*
4,1,4,$2,$3,$4,$5,$6,$7,$8,$9,$2,$3,0*
0 Add four circle primitives for the rounded corners*
1,1,$1+$1,$2,$3*
1,1,$1+$1,$4,$5*
1,1,$1+$1,$6,$7*
1,1,$1+$1,$8,$9*
0 Add four rect primitives between the rounded corners*
20,1,$1+$1,$2,$3,$4,$5,0*
20,1,$1+$1,$4,$5,$6,$7,0*
20,1,$1+$1,$6,$7,$8,$9,0*
20,1,$1+$1,$8,$9,$2,$3,0*%
%AMFreePoly0*
4,1,23,0.500000,-0.750000,0.000000,-0.750000,0.000000,-0.745722,-0.065263,-0.745722,-0.191342,-0.711940,-0.304381,-0.646677,-0.396677,-0.554381,-0.461940,-0.441342,-0.495722,-0.315263,-0.495722,-0.250000,-0.500000,-0.250000,-0.500000,0.250000,-0.495722,0.250000,-0.495722,0.315263,-0.461940,0.441342,-0.396677,0.554381,-0.304381,0.646677,-0.191342,0.711940,-0.065263,0.745722,0.000000,0.745722,
0.000000,0.750000,0.500000,0.750000,0.500000,-0.750000,0.500000,-0.750000,$1*%
%AMFreePoly1*
4,1,23,0.000000,0.745722,0.065263,0.745722,0.191342,0.711940,0.304381,0.646677,0.396677,0.554381,0.461940,0.441342,0.495722,0.315263,0.495722,0.250000,0.500000,0.250000,0.500000,-0.250000,0.495722,-0.250000,0.495722,-0.315263,0.461940,-0.441342,0.396677,-0.554381,0.304381,-0.646677,0.191342,-0.711940,0.065263,-0.745722,0.000000,-0.745722,0.000000,-0.750000,-0.500000,-0.750000,
-0.500000,0.750000,0.000000,0.750000,0.000000,0.745722,0.000000,0.745722,$1*%
G04 Aperture macros list end*
%TA.AperFunction,SMDPad,CuDef*%
%ADD10FreePoly0,180.000000*%
%TD*%
%TA.AperFunction,SMDPad,CuDef*%
%ADD11FreePoly1,180.000000*%
%TD*%
%TA.AperFunction,SMDPad,CuDef*%
%ADD12RoundRect,0.225000X-0.250000X0.225000X-0.250000X-0.225000X0.250000X-0.225000X0.250000X0.225000X0*%
%TD*%
%TA.AperFunction,SMDPad,CuDef*%
%ADD13RoundRect,0.200000X0.200000X0.275000X-0.200000X0.275000X-0.200000X-0.275000X0.200000X-0.275000X0*%
%TD*%
%TA.AperFunction,ComponentPad*%
%ADD14R,1.700000X1.700000*%
%TD*%
%TA.AperFunction,SMDPad,CuDef*%
%ADD15RoundRect,0.225000X-0.225000X-0.250000X0.225000X-0.250000X0.225000X0.250000X-0.225000X0.250000X0*%
%TD*%
%TA.AperFunction,SMDPad,CuDef*%
%ADD16R,1.409700X0.355600*%
%TD*%
%TA.AperFunction,ComponentPad*%
%ADD17C,1.700000*%
%TD*%
%TA.AperFunction,SMDPad,CuDef*%
%ADD18RoundRect,0.200000X-0.275000X0.200000X-0.275000X-0.200000X0.275000X-0.200000X0.275000X0.200000X0*%
%TD*%
%TA.AperFunction,SMDPad,CuDef*%
%ADD19R,0.599999X1.300000*%
%TD*%
%TA.AperFunction,SMDPad,CuDef*%
%ADD20RoundRect,0.200000X0.275000X-0.200000X0.275000X0.200000X-0.275000X0.200000X-0.275000X-0.200000X0*%
%TD*%
%TA.AperFunction,SMDPad,CuDef*%
%ADD21RoundRect,0.200000X-0.200000X-0.275000X0.200000X-0.275000X0.200000X0.275000X-0.200000X0.275000X0*%
%TD*%
%TA.AperFunction,ViaPad*%
%ADD22C,0.600000*%
%TD*%
%TA.AperFunction,Conductor*%
%ADD23C,0.200000*%
%TD*%
G04 APERTURE END LIST*
D10*
%TO.P,JP4,1,A*%
%TO.N,Net-(J3-Pin_3)*%
X173650000Y-110000000D03*
D11*
%TO.P,JP4,2,B*%
%TO.N,SPICLK*%
X172350000Y-110000000D03*
%TD*%
D12*
%TO.P,C1,1*%
%TO.N,Net-(U1-AIN2P)*%
X129500000Y-109625000D03*
%TO.P,C1,2*%
%TO.N,Net-(U1-AIN2N)*%
X129500000Y-111175000D03*
%TD*%
D10*
%TO.P,JP7,1,A*%
%TO.N,Net-(J3-Pin_2)*%
X173650000Y-96450000D03*
D11*
%TO.P,JP7,2,B*%
%TO.N,+3.3V*%
X172350000Y-96450000D03*
%TD*%
D10*
%TO.P,JP5,1,A*%
%TO.N,Net-(J3-Pin_2)*%
X173650000Y-104800000D03*
D11*
%TO.P,JP5,2,B*%
%TO.N,~{SYNC}{slash}~{RST}*%
X172350000Y-104800000D03*
%TD*%
D13*
%TO.P,R4,1*%
%TO.N,Net-(U1-AIN1P)*%
X116325000Y-111200000D03*
%TO.P,R4,2*%
%TO.N,GAUGE1_IN_N*%
X114675000Y-111200000D03*
%TD*%
D12*
%TO.P,C2,1*%
%TO.N,Net-(U1-AIN1N)*%
X118000000Y-109625000D03*
%TO.P,C2,2*%
%TO.N,Net-(U1-AIN1P)*%
X118000000Y-111175000D03*
%TD*%
D14*
%TO.P,J4,1,Pin_1*%
%TO.N,DIN*%
X156210000Y-120650000D03*
%TD*%
D10*
%TO.P,JP8,1,A*%
%TO.N,Net-(J3-Pin_2)*%
X173641217Y-101959443D03*
D11*
%TO.P,JP8,2,B*%
%TO.N,~{DRDY}*%
X172341217Y-101959443D03*
%TD*%
D14*
%TO.P,J8,1,Pin_1*%
%TO.N,GND*%
X125730000Y-120650000D03*
%TD*%
D15*
%TO.P,C4,1*%
%TO.N,Net-(U1-CAP)*%
X156025000Y-105200000D03*
%TO.P,C4,2*%
%TO.N,GND*%
X157575000Y-105200000D03*
%TD*%
D16*
%TO.P,U1,1,AVDD*%
%TO.N,+3.3V*%
X142800000Y-104150002D03*
%TO.P,U1,2,AGND*%
%TO.N,GND*%
X142800000Y-104800003D03*
%TO.P,U1,3,AIN0P*%
%TO.N,Net-(U1-AIN0P)*%
X142800000Y-105450001D03*
%TO.P,U1,4,AIN0N*%
%TO.N,Net-(U1-AIN0N)*%
X142800000Y-106100003D03*
%TO.P,U1,5,AIN1N*%
%TO.N,Net-(U1-AIN1N)*%
X142800000Y-106750001D03*
%TO.P,U1,6,AIN1P*%
%TO.N,Net-(U1-AIN1P)*%
X142800000Y-107400000D03*
%TO.P,U1,7,AIN2P*%
%TO.N,Net-(U1-AIN2P)*%
X142800000Y-108050001D03*
%TO.P,U1,8,AIN2N*%
%TO.N,Net-(U1-AIN2N)*%
X142800000Y-108700000D03*
%TO.P,U1,9,NC*%
%TO.N,unconnected-(U1-NC-Pad9)*%
X142800000Y-109350001D03*
%TO.P,U1,10,NC*%
%TO.N,unconnected-(U1-NC-Pad10)*%
X142800000Y-110000000D03*
%TO.P,U1,11,\u002ASYNC/\u002ARESET*%
%TO.N,~{SYNC}{slash}~{RST}*%
X148705500Y-110000002D03*
%TO.P,U1,12,\u002ACS*%
%TO.N,~{CS}*%
X148705500Y-109350004D03*
%TO.P,U1,13,\u002ADRDY*%
%TO.N,~{DRDY}*%
X148705500Y-108700003D03*
%TO.P,U1,14,SCLK*%
%TO.N,SPICLK*%
X148705500Y-108050004D03*
%TO.P,U1,15,DOUT*%
%TO.N,DOUT*%
X148705500Y-107400003D03*
%TO.P,U1,16,DIN*%
%TO.N,DIN*%
X148705500Y-106750004D03*
%TO.P,U1,17,CLKIN*%
%TO.N,ADCCLK*%
X148705500Y-106100003D03*
%TO.P,U1,18,CAP*%
%TO.N,Net-(U1-CAP)*%
X148705500Y-105450004D03*
%TO.P,U1,19,DGND*%
%TO.N,GND*%
X148705500Y-104800003D03*
%TO.P,U1,20,DVDD*%
%TO.N,+3.3V*%
X148705500Y-104150004D03*
%TD*%
D14*
%TO.P,J9,1,Pin_1*%
%TO.N,+3.3V*%
X118110000Y-120650000D03*
%TD*%
D10*
%TO.P,JP1,1,A*%
%TO.N,Net-(J3-Pin_3)*%
X173650000Y-119750000D03*
D11*
%TO.P,JP1,2,B*%
%TO.N,ADCCLK*%
X172350000Y-119750000D03*
%TD*%
D14*
%TO.P,J1,1,Pin_1*%
%TO.N,GAUGE1_IN_N*%
X111050000Y-102500000D03*
D17*
%TO.P,J1,2,Pin_2*%
%TO.N,GAUGE1_IN_P*%
X113590000Y-102500000D03*
%TO.P,J1,3,Pin_3*%
%TO.N,+3.3V*%
X116130000Y-102500000D03*
%TO.P,J1,4,Pin_4*%
%TO.N,GND*%
X118670000Y-102500000D03*
%TO.P,J1,5,Pin_5*%
%TO.N,GAUGE2_IN_N*%
X121210000Y-102500000D03*
%TO.P,J1,6,Pin_6*%
%TO.N,GAUGE2_IN_P*%
X123750000Y-102500000D03*
%TD*%
D18*
%TO.P,R5,1*%
%TO.N,TMP_IN_P*%
X145000000Y-98375000D03*
%TO.P,R5,2*%
%TO.N,Net-(U1-AIN0P)*%
X145000000Y-100025000D03*
%TD*%
D19*
%TO.P,U2,1,VDD*%
%TO.N,+3.3V*%
X116099998Y-97600000D03*
%TO.P,U2,2,VOUT*%
%TO.N,TMP_IN_P*%
X118000000Y-97600000D03*
%TO.P,U2,3,GND*%
%TO.N,GND*%
X117049999Y-95500000D03*
%TD*%
D20*
%TO.P,R6,1*%
%TO.N,Net-(U1-AIN0N)*%
X146600000Y-100025000D03*
%TO.P,R6,2*%
%TO.N,GND*%
X146600000Y-98375000D03*
%TD*%
D14*
%TO.P,J3,1,Pin_1*%
%TO.N,~{CS}*%
X212680000Y-120500000D03*
D17*
%TO.P,J3,2,Pin_2*%
%TO.N,Net-(J3-Pin_2)*%
X210140000Y-120500000D03*
%TO.P,J3,3,Pin_3*%
%TO.N,Net-(J3-Pin_3)*%
X207600000Y-120500000D03*
%TD*%
D14*
%TO.P,J7,1,Pin_1*%
%TO.N,~{SYNC}{slash}~{RST}*%
X133350000Y-120650000D03*
%TD*%
D10*
%TO.P,JP3,1,A*%
%TO.N,Net-(J3-Pin_3)*%
X173650000Y-113250000D03*
D11*
%TO.P,JP3,2,B*%
%TO.N,DOUT*%
X172350000Y-113250000D03*
%TD*%
D21*
%TO.P,R3,1*%
%TO.N,GAUGE1_IN_P*%
X114675000Y-109600000D03*
%TO.P,R3,2*%
%TO.N,Net-(U1-AIN1N)*%
X116325000Y-109600000D03*
%TD*%
D12*
%TO.P,C5,1*%
%TO.N,+3.3V*%
X137400000Y-103525000D03*
%TO.P,C5,2*%
%TO.N,GND*%
X137400000Y-105075000D03*
%TD*%
D14*
%TO.P,J5,1,Pin_1*%
%TO.N,DOUT*%
X148590000Y-120650000D03*
%TD*%
D15*
%TO.P,C3,1*%
%TO.N,Net-(U1-AIN0P)*%
X145025000Y-101800000D03*
%TO.P,C3,2*%
%TO.N,Net-(U1-AIN0N)*%
X146575000Y-101800000D03*
%TD*%
D14*
%TO.P,J6,1,Pin_1*%
%TO.N,SPICLK*%
X140970000Y-120650000D03*
%TD*%
D21*
%TO.P,R2,1*%
%TO.N,GAUGE2_IN_P*%
X126075000Y-109700000D03*
%TO.P,R2,2*%
%TO.N,Net-(U1-AIN2P)*%
X127725000Y-109700000D03*
%TD*%
D14*
%TO.P,J2,1,Pin_1*%
%TO.N,ADCCLK*%
X163830000Y-120650000D03*
%TD*%
D13*
%TO.P,R1,1*%
%TO.N,Net-(U1-AIN2N)*%
X127725000Y-111300000D03*
%TO.P,R1,2*%
%TO.N,GAUGE2_IN_N*%
X126075000Y-111300000D03*
%TD*%
D10*
%TO.P,JP6,1,A*%
%TO.N,Net-(J3-Pin_2)*%
X173650000Y-99200000D03*
D11*
%TO.P,JP6,2,B*%
%TO.N,GND*%
X172350000Y-99200000D03*
%TD*%
D12*
%TO.P,C6,1*%
%TO.N,+3.3V*%
X152500000Y-101825000D03*
%TO.P,C6,2*%
%TO.N,GND*%
X152500000Y-103375000D03*
%TD*%
D10*
%TO.P,JP2,1,A*%
%TO.N,Net-(J3-Pin_3)*%
X173650000Y-116500000D03*
D11*
%TO.P,JP2,2,B*%
%TO.N,DIN*%
X172350000Y-116500000D03*
%TD*%
D22*
%TO.N,GND*%
X169200000Y-118000000D03*
X159613600Y-119176800D03*
X169750000Y-112000000D03*
X111800000Y-106400000D03*
X212100000Y-118200000D03*
X166500000Y-108500000D03*
X159512000Y-105257600D03*
X186750000Y-120750000D03*
X145800000Y-103000000D03*
X169500000Y-115250000D03*
X144000000Y-104874999D03*
X149000000Y-111900000D03*
X169000000Y-103500000D03*
%TO.N,+3.3V*%
X133150000Y-103400000D03*
X146100000Y-105300000D03*
X120150000Y-104750000D03*
X144110000Y-104130000D03*
%TO.N,GAUGE2_IN_N*%
X123050000Y-111250000D03*
X121200000Y-105800000D03*
%TO.N,GAUGE2_IN_P*%
X123700000Y-105750000D03*
X123700000Y-108800000D03*
%TO.N,DIN*%
X150370000Y-106740000D03*
%TO.N,SPICLK*%
X147655909Y-108031909D03*
X143357600Y-112268000D03*
X148742400Y-115874800D03*
%TO.N,~{SYNC}{slash}~{RST}*%
X150368000Y-113233200D03*
%TO.N,ADCCLK*%
X150900000Y-106050000D03*
%TO.N,~{CS}*%
X155740000Y-109300000D03*
X152050000Y-109310000D03*
X150140000Y-109310000D03*
%TD*%
D23*
%TO.N,Net-(U1-AIN2N)*%
X129535000Y-111265000D02*
X129550000Y-111250000D01*
X129550000Y-111250000D02*
X132125002Y-108674998D01*
X127775000Y-111265000D02*
X129535000Y-111265000D01*
X132125002Y-108674998D02*
X142747250Y-108674998D01*
%TO.N,Net-(U1-AIN2P)*%
X127775000Y-109650000D02*
X129500000Y-109650000D01*
X131225001Y-108024999D02*
X142747250Y-108024999D01*
X129500000Y-109650000D02*
X129550000Y-109700000D01*
X129550000Y-109700000D02*
X131225001Y-108024999D01*
%TO.N,Net-(U1-AIN1N)*%
X121050001Y-106724999D02*
X142747250Y-106724999D01*
X116250000Y-109600000D02*
X117925000Y-109600000D01*
X118050000Y-109725000D02*
X121050001Y-106724999D01*
X117925000Y-109600000D02*
X118050000Y-109725000D01*
%TO.N,Net-(U1-AIN1P)*%
X121950002Y-107374998D02*
X142747250Y-107374998D01*
X118050000Y-111275000D02*
X121950002Y-107374998D01*
X118025000Y-111250000D02*
X118050000Y-111275000D01*
X116250000Y-111250000D02*
X118025000Y-111250000D01*
%TO.N,Net-(U1-AIN0P)*%
X145000000Y-100100000D02*
X145000000Y-104800000D01*
X145000000Y-104800000D02*
X144375001Y-105424999D01*
X144375001Y-105424999D02*
X142747250Y-105424999D01*
%TO.N,Net-(U1-AIN0N)*%
X146550000Y-101750000D02*
X146550000Y-104050000D01*
X144524999Y-106075001D02*
X142747250Y-106075001D01*
X146600000Y-101700000D02*
X146550000Y-101750000D01*
X146550000Y-104050000D02*
X144524999Y-106075001D01*
X146600000Y-100125000D02*
X146600000Y-101700000D01*
%TO.N,GND*%
X142800000Y-104800003D02*
X143925004Y-104800003D01*
X143925004Y-104800003D02*
X144000000Y-104874999D01*
%TO.N,Net-(U1-CAP)*%
X148652750Y-105425002D02*
X155974998Y-105425002D01*
X155974998Y-105425002D02*
X156050000Y-105350000D01*
%TO.N,+3.3V*%
X137450000Y-103475000D02*
X139425000Y-103475000D01*
X146100000Y-105300000D02*
X146100000Y-108084650D01*
X116107060Y-102507836D02*
X116107060Y-97707062D01*
X118349224Y-104750000D02*
X120150000Y-104750000D01*
X164175000Y-101825000D02*
X152500000Y-101825000D01*
X146100000Y-105300000D02*
X147249996Y-104150004D01*
X133150000Y-103400000D02*
X133225000Y-103475000D01*
X148705500Y-104150004D02*
X150174996Y-104150004D01*
X146100000Y-108084650D02*
X140443450Y-113741200D01*
X133225000Y-103475000D02*
X137450000Y-103475000D01*
X169550000Y-96450000D02*
X164175000Y-101825000D01*
X116107060Y-97707062D02*
X116099998Y-97700000D01*
X144105000Y-104125000D02*
X144110000Y-104130000D01*
X142747250Y-104125000D02*
X144105000Y-104125000D01*
X139425000Y-103475000D02*
X140075000Y-104125000D01*
X120446800Y-113741200D02*
X118110000Y-116078000D01*
X172300000Y-96450000D02*
X169550000Y-96450000D01*
X118110000Y-116078000D02*
X118110000Y-120650000D01*
X140443450Y-113741200D02*
X120446800Y-113741200D01*
X150174996Y-104150004D02*
X152500000Y-101825000D01*
X140075000Y-104125000D02*
X142747250Y-104125000D01*
X116107060Y-102507836D02*
X118349224Y-104750000D01*
X147249996Y-104150004D02*
X148705500Y-104150004D01*
%TO.N,GAUGE1_IN_P*%
X113567060Y-102507836D02*
X112550000Y-103524896D01*
X113250000Y-109600000D02*
X114600000Y-109600000D01*
X112550000Y-103524896D02*
X112550000Y-108900000D01*
X112550000Y-108900000D02*
X113250000Y-109600000D01*
%TO.N,GAUGE1_IN_N*%
X113300000Y-111250000D02*
X114600000Y-111250000D01*
X111027060Y-108977060D02*
X113300000Y-111250000D01*
X111027060Y-102507836D02*
X111027060Y-108977060D01*
%TO.N,GAUGE2_IN_N*%
X123065000Y-111265000D02*
X126125000Y-111265000D01*
X123050000Y-111250000D02*
X123065000Y-111265000D01*
X121187060Y-102507836D02*
X121187060Y-105787060D01*
X121187060Y-105787060D02*
X121200000Y-105800000D01*
%TO.N,GAUGE2_IN_P*%
X123700000Y-108800000D02*
X124550000Y-109650000D01*
X123727060Y-102507836D02*
X123727060Y-105722940D01*
X124550000Y-109650000D02*
X126125000Y-109650000D01*
X123727060Y-105722940D02*
X123700000Y-105750000D01*
%TO.N,DIN*%
X148652750Y-106725002D02*
X150355002Y-106725002D01*
X160360000Y-116500000D02*
X156210000Y-120650000D01*
X172350000Y-116500000D02*
X160360000Y-116500000D01*
X150355002Y-106725002D02*
X150370000Y-106740000D01*
%TO.N,SPICLK*%
X172350000Y-110000000D02*
X154617200Y-110000000D01*
X140970000Y-114655600D02*
X140970000Y-120650000D01*
X143357600Y-112268000D02*
X140970000Y-114655600D01*
X147674004Y-108050004D02*
X147655909Y-108031909D01*
X148705500Y-108050004D02*
X147674004Y-108050004D01*
X154617200Y-110000000D02*
X148742400Y-115874800D01*
%TO.N,~{SYNC}{slash}~{RST}*%
X150325000Y-109975000D02*
X152900000Y-107400000D01*
X164620768Y-107400000D02*
X167220768Y-104800000D01*
X167220768Y-104800000D02*
X172350000Y-104800000D01*
X150325000Y-113190200D02*
X150368000Y-113233200D01*
X152900000Y-107400000D02*
X164620768Y-107400000D01*
X150325000Y-109975000D02*
X150325000Y-113190200D01*
X148652750Y-109975000D02*
X150325000Y-109975000D01*
%TO.N,ADCCLK*%
X150874999Y-106075001D02*
X150900000Y-106050000D01*
X172350000Y-119750000D02*
X171500000Y-120600000D01*
X171500000Y-120600000D02*
X163840000Y-120600000D01*
X148652750Y-106075001D02*
X150874999Y-106075001D01*
%TO.N,DOUT*%
X147508583Y-107400003D02*
X147104909Y-107803677D01*
X155990000Y-113250000D02*
X148590000Y-120650000D01*
X148705500Y-107400003D02*
X147508583Y-107400003D01*
X147104909Y-119164909D02*
X148590000Y-120650000D01*
X172350000Y-113250000D02*
X155990000Y-113250000D01*
X147104909Y-107803677D02*
X147104909Y-119164909D01*
%TO.N,~{CS}*%
X152050000Y-109310000D02*
X155730000Y-109310000D01*
X150124998Y-109325002D02*
X150140000Y-109310000D01*
X148652750Y-109325002D02*
X150124998Y-109325002D01*
X155730000Y-109310000D02*
X155740000Y-109300000D01*
%TO.N,Net-(J3-Pin_2)*%
X173650000Y-96650000D02*
X173650000Y-99300000D01*
X173650000Y-99300000D02*
X173600000Y-99350000D01*
X183350000Y-114500000D02*
X173650000Y-104800000D01*
X173600000Y-102100000D02*
X173600000Y-104940000D01*
X204140000Y-114500000D02*
X183350000Y-114500000D01*
X173600000Y-99350000D02*
X173600000Y-102100000D01*
X210140000Y-120500000D02*
X204140000Y-114500000D01*
%TO.N,Net-(J3-Pin_3)*%
X173650000Y-116500000D02*
X173650000Y-113250000D01*
X173650000Y-113250000D02*
X173650000Y-110000000D01*
X207600000Y-120500000D02*
X206850000Y-119750000D01*
X173650000Y-119750000D02*
X173650000Y-116500000D01*
X206850000Y-119750000D02*
X173650000Y-119750000D01*
%TO.N,~{DRDY}*%
X167290557Y-101959443D02*
X172341217Y-101959443D01*
X152500000Y-106500000D02*
X162750000Y-106500000D01*
X148705500Y-108700003D02*
X150299997Y-108700003D01*
X162750000Y-106500000D02*
X167290557Y-101959443D01*
X150299997Y-108700003D02*
X152500000Y-106500000D01*
%TO.N,TMP_IN_P*%
X144250000Y-97700000D02*
X145000000Y-98450000D01*
X118000000Y-97700000D02*
X144250000Y-97700000D01*
%TD*%
%TA.AperFunction,Conductor*%
%TO.N,GND*%
G36*
X112161791Y-103558625D02*
G01*
X112195783Y-103609499D01*
X112199500Y-103636371D01*
X112199500Y-108946143D01*
X112214789Y-109003205D01*
X112219881Y-109022207D01*
X112223386Y-109035288D01*
X112269530Y-109115212D01*
X113034787Y-109880469D01*
X113034789Y-109880470D01*
X113034791Y-109880472D01*
X113114708Y-109926612D01*
X113114706Y-109926612D01*
X113114710Y-109926613D01*
X113114712Y-109926614D01*
X113203856Y-109950500D01*
X113953891Y-109950500D01*
X114012082Y-109969407D01*
X114047335Y-110016802D01*
X114072207Y-110087883D01*
X114152845Y-110197144D01*
X114152847Y-110197146D01*
X114152850Y-110197150D01*
X114152853Y-110197152D01*
X114152855Y-110197154D01*
X114262116Y-110277792D01*
X114262117Y-110277792D01*
X114262118Y-110277793D01*
X114295635Y-110289521D01*
X114344317Y-110306556D01*
X114392997Y-110343621D01*
X114410594Y-110402222D01*
X114390386Y-110459973D01*
X114344317Y-110493444D01*
X114262116Y-110522207D01*
X114152855Y-110602845D01*
X114152845Y-110602855D01*
X114072207Y-110712116D01*
X114029839Y-110833198D01*
X113992774Y-110881878D01*
X113936395Y-110899500D01*
X113486190Y-110899500D01*
X113427999Y-110880593D01*
X113416186Y-110870504D01*
X111406556Y-108860874D01*
X111378779Y-108806357D01*
X111377560Y-108790870D01*
X111377560Y-103699500D01*
X111396467Y-103641309D01*
X111445967Y-103605345D01*
X111476560Y-103600500D01*
X111924673Y-103600500D01*
X111924674Y-103600500D01*
X111997740Y-103585966D01*
X112045499Y-103554054D01*
X112104387Y-103537447D01*
X112161791Y-103558625D01*
G37*
%TD.AperFunction*%
%TA.AperFunction,Conductor*%
G36*
X119337329Y-59123442D02*
G01*
X218442444Y-121216928D01*
X218773650Y-121424442D01*
X218812923Y-121471360D01*
X218817117Y-121532402D01*
X218784632Y-121584251D01*
X218727874Y-121607103D01*
X218721087Y-121607336D01*
X213844544Y-121607336D01*
X213786353Y-121588429D01*
X213750389Y-121538929D01*
X213750389Y-121477743D01*
X213762227Y-121453336D01*
X213762553Y-121452847D01*
X213765966Y-121447740D01*
X213780500Y-121374674D01*
X213780500Y-119625326D01*
X213765966Y-119552260D01*
X213725293Y-119491387D01*
X213710602Y-119469400D01*
X213710599Y-119469397D01*
X213627742Y-119414035D01*
X213627740Y-119414034D01*
X213627737Y-119414033D01*
X213627736Y-119414033D01*
X213554684Y-119399501D01*
X213554674Y-119399500D01*
X211805326Y-119399500D01*
X211805325Y-119399500D01*
X211805315Y-119399501D01*
X211732263Y-119414033D01*
X211732257Y-119414035D01*
X211649400Y-119469397D01*
X211649397Y-119469400D01*
X211594035Y-119552257D01*
X211594033Y-119552263D01*
X211579501Y-119625315D01*
X211579500Y-119625327D01*
X211579500Y-121374672D01*
X211579501Y-121374684D01*
X211594033Y-121447736D01*
X211594035Y-121447742D01*
X211597773Y-121453336D01*
X211614380Y-121512225D01*
X211593201Y-121569628D01*
X211542327Y-121603620D01*
X211515456Y-121607336D01*
X210792856Y-121607336D01*
X210734665Y-121588429D01*
X210698701Y-121538929D01*
X210698701Y-121477743D01*
X210734664Y-121428244D01*
X210856928Y-121339414D01*
X210979414Y-121216928D01*
X211081232Y-121076788D01*
X211159873Y-120922445D01*
X211159874Y-120922440D01*
X211159876Y-120922438D01*
X211213401Y-120757706D01*
X211213402Y-120757702D01*
X211240500Y-120586614D01*
X211240500Y-120413385D01*
X211213402Y-120242297D01*
X211213401Y-120242293D01*
X211159876Y-120077561D01*
X211159874Y-120077558D01*
X211159873Y-120077557D01*
X211159873Y-120077555D01*
X211081232Y-119923212D01*
X210979414Y-119783072D01*
X210856928Y-119660586D01*
X210716788Y-119558768D01*
X210716787Y-119558767D01*
X210716785Y-119558766D01*
X210562441Y-119480125D01*
X210562438Y-119480123D01*
X210397706Y-119426598D01*
X210397702Y-119426597D01*
X210226614Y-119399500D01*
X210226611Y-119399500D01*
X210053389Y-119399500D01*
X210053386Y-119399500D01*
X209882297Y-119426597D01*
X209882293Y-119426598D01*
X209717561Y-119480123D01*
X209717552Y-119480127D01*
X209714239Y-119481816D01*
X209653807Y-119491387D01*
X209599291Y-119463610D01*
X207005088Y-116869407D01*
X204355212Y-114219530D01*
X204275288Y-114173386D01*
X204186144Y-114149500D01*
X204186142Y-114149500D01*
X183536190Y-114149500D01*
X183477999Y-114130593D01*
X183466186Y-114120504D01*
X174434496Y-105088814D01*
X174406719Y-105034297D01*
X174405500Y-105018810D01*
X174405500Y-104484175D01*
X174405500Y-104484174D01*
X174396794Y-104418044D01*
X174362719Y-104290877D01*
X174362717Y-104290873D01*
X174337198Y-104229264D01*
X174337197Y-104229263D01*
X174337195Y-104229257D01*
X174271369Y-104115243D01*
X174271366Y-104115239D01*
X174230770Y-104062333D01*
X174230768Y-104062331D01*
X174230765Y-104062327D01*
X174137673Y-103969235D01*
X174137668Y-103969231D01*
X174137666Y-103969229D01*
X174084760Y-103928633D01*
X174084757Y-103928631D01*
X173999999Y-103879696D01*
X173959059Y-103834227D01*
X173950500Y-103793960D01*
X173950500Y-102960412D01*
X173969407Y-102902221D01*
X173999998Y-102874676D01*
X174075974Y-102830812D01*
X174128890Y-102790208D01*
X174221982Y-102697116D01*
X174262586Y-102644200D01*
X174328412Y-102530186D01*
X174353936Y-102468566D01*
X174388011Y-102341399D01*
X174396717Y-102275269D01*
X174396717Y-101643617D01*
X174388011Y-101577487D01*
X174353936Y-101450320D01*
X174353934Y-101450316D01*
X174328415Y-101388707D01*
X174328414Y-101388706D01*
X174328412Y-101388700D01*
X174262586Y-101274686D01*
X174221982Y-101221770D01*
X174128890Y-101128678D01*
X174128885Y-101128674D01*
X174128883Y-101128672D01*
X174075974Y-101088074D01*
X173999999Y-101044209D01*
X173959059Y-100998739D01*
X173950500Y-100958473D01*
X173950500Y-100206039D01*
X173969407Y-100147848D01*
X173999998Y-100120304D01*
X174084757Y-100071369D01*
X174137673Y-100030765D01*
X174230765Y-99937673D01*
X174271369Y-99884757D01*
X174337195Y-99770743D01*
X174362719Y-99709123D01*
X174396794Y-99581956D01*
X174405500Y-99515826D01*
X174405500Y-98884174D01*
X174396794Y-98818044D01*
X174362719Y-98690877D01*
X174349802Y-98659694D01*
X174337198Y-98629264D01*
X174337197Y-98629263D01*
X174337195Y-98629257D01*
X174271369Y-98515243D01*
X174257192Y-98496767D01*
X174230770Y-98462333D01*
X174230768Y-98462331D01*
X174230765Y-98462327D01*
X174137673Y-98369235D01*
X174137668Y-98369231D01*
X174137666Y-98369229D01*
X174084757Y-98328631D01*
X174049999Y-98308563D01*
X174009059Y-98263093D01*
X174000500Y-98222827D01*
X174000500Y-97427171D01*
X174019407Y-97368980D01*
X174049997Y-97341437D01*
X174084757Y-97321369D01*
X174137673Y-97280765D01*
X174230765Y-97187673D01*
X174271369Y-97134757D01*
X174337195Y-97020743D01*
X174362719Y-96959123D01*
X174396794Y-96831956D01*
X174405500Y-96765826D01*
X174405500Y-96134174D01*
X174396794Y-96068044D01*
X174362719Y-95940877D01*
X174362717Y-95940873D01*
X174337198Y-95879264D01*
X174337197Y-95879263D01*
X174337195Y-95879257D01*
X174271369Y-95765243D01*
X174230765Y-95712327D01*
X174137673Y-95619235D01*
X174137668Y-95619231D01*
X174137666Y-95619229D01*
X174084760Y-95578633D01*
X174084757Y-95578631D01*
X173970743Y-95512805D01*
X173970739Y-95512803D01*
X173970735Y-95512801D01*
X173909125Y-95487281D01*
X173828412Y-95465654D01*
X173781956Y-95453206D01*
X173781953Y-95453205D01*
X173781951Y-95453205D01*
X173715827Y-95444500D01*
X173715826Y-95444500D01*
X173150000Y-95444500D01*
X173149997Y-95444500D01*
X173052223Y-95463948D01*
X173043219Y-95467679D01*
X173042380Y-95465654D01*
X172996100Y-95478700D01*
X172957421Y-95466132D01*
X172956781Y-95467679D01*
X172947776Y-95463948D01*
X172850002Y-95444500D01*
X172850000Y-95444500D01*
X172284174Y-95444500D01*
X172284172Y-95444500D01*
X172218051Y-95453205D01*
X172218046Y-95453205D01*
X172090874Y-95487281D01*
X172029264Y-95512801D01*
X171915239Y-95578633D01*
X171862333Y-95619229D01*
X171769229Y-95712333D01*
X171728633Y-95765239D01*
X171662801Y-95879264D01*
X171637282Y-95940873D01*
X171614439Y-96026124D01*
X171581114Y-96077438D01*
X171523993Y-96099364D01*
X171518812Y-96099500D01*
X169503856Y-96099500D01*
X169414712Y-96123386D01*
X169334788Y-96169530D01*
X164058814Y-101445504D01*
X164004297Y-101473281D01*
X163988810Y-101474500D01*
X153279426Y-101474500D01*
X153221235Y-101455593D01*
X153186668Y-101410097D01*
X153171628Y-101369774D01*
X153156825Y-101350000D01*
X153089687Y-101260313D01*
X153022897Y-101210315D01*
X152980228Y-101178373D01*
X152980226Y-101178372D01*
X152852114Y-101130588D01*
X152852113Y-101130587D01*
X152813895Y-101126479D01*
X152795485Y-101124500D01*
X152795481Y-101124500D01*
X152204521Y-101124500D01*
X152204515Y-101124501D01*
X152147888Y-101130587D01*
X152147886Y-101130588D01*
X152019774Y-101178372D01*
X152019773Y-101178372D01*
X152019772Y-101178373D01*
X151910315Y-101260311D01*
X151910311Y-101260315D01*
X151828373Y-101369771D01*
X151780587Y-101497887D01*
X151778594Y-101516430D01*
X151774743Y-101552260D01*
X151774500Y-101554518D01*
X151774500Y-102013809D01*
X151755593Y-102072000D01*
X151745504Y-102083813D01*
X150058810Y-103770508D01*
X150004293Y-103798285D01*
X149988806Y-103799504D01*
X149632807Y-103799504D01*
X149577806Y-103782820D01*
X149508092Y-103736239D01*
X149508090Y-103736238D01*
X149508087Y-103736237D01*
X149508086Y-103736237D01*
X149435034Y-103721705D01*
X149435024Y-103721704D01*
X147975976Y-103721704D01*
X147975975Y-103721704D01*
X147975965Y-103721705D01*
X147902913Y-103736237D01*
X147902907Y-103736239D01*
X147833194Y-103782820D01*
X147778193Y-103799504D01*
X147203852Y-103799504D01*
X147114708Y-103823390D01*
X147048998Y-103861327D01*
X146989151Y-103874048D01*
X146933256Y-103849161D01*
X146902663Y-103796173D01*
X146900500Y-103775590D01*
X146900500Y-102588750D01*
X146919407Y-102530559D01*
X146964901Y-102495993D01*
X147030226Y-102471628D01*
X147139687Y-102389687D01*
X147221628Y-102280226D01*
X147269412Y-102152114D01*
X147275500Y-102095485D01*
X147275499Y-101504516D01*
X147269412Y-101447886D01*
X147221628Y-101319774D01*
X147139687Y-101210313D01*
X147097019Y-101178372D01*
X147030228Y-101128373D01*
X147030226Y-101128372D01*
X147014899Y-101122655D01*
X146966986Y-101084602D01*
X146950500Y-101029898D01*
X146950500Y-100746109D01*
X146969407Y-100687918D01*
X147016802Y-100652665D01*
X147028452Y-100648588D01*
X147087882Y-100627793D01*
X147197150Y-100547150D01*
X147277793Y-100437882D01*
X147322646Y-100309699D01*
X147325499Y-100279273D01*
X147325500Y-100279273D01*
X147325500Y-99770727D01*
X147325499Y-99770725D01*
X147324549Y-99760594D01*
X147322646Y-99740301D01*
X147277793Y-99612118D01*
X147255530Y-99581953D01*
X147197154Y-99502855D01*
X147197152Y-99502853D01*
X147197150Y-99502850D01*
X147197146Y-99502847D01*
X147197144Y-99502845D01*
X147087883Y-99422207D01*
X146959703Y-99377355D01*
X146959694Y-99377353D01*
X146929274Y-99374500D01*
X146929266Y-99374500D01*
X146270734Y-99374500D01*
X146270725Y-99374500D01*
X146240305Y-99377353D01*
X146240296Y-99377355D01*
X146112116Y-99422207D01*
X146002855Y-99502845D01*
X146002845Y-99502855D01*
X145922207Y-99612116D01*
X145893444Y-99694317D01*
X145856379Y-99742997D01*
X145797778Y-99760594D01*
X145740027Y-99740386D01*
X145706556Y-99694317D01*
X145677792Y-99612116D01*
X145597154Y-99502855D01*
X145597152Y-99502853D01*
X145597150Y-99502850D01*
X145597146Y-99502847D01*
X145597144Y-99502845D01*
X145487883Y-99422207D01*
X145359703Y-99377355D01*
X145359694Y-99377353D01*
X145329274Y-99374500D01*
X145329266Y-99374500D01*
X144670734Y-99374500D01*
X144670725Y-99374500D01*
X144640305Y-99377353D01*
X144640296Y-99377355D01*
X144512116Y-99422207D01*
X144402855Y-99502845D01*
X144402845Y-99502855D01*
X144322207Y-99612116D01*
X144277355Y-99740296D01*
X144277353Y-99740305D01*
X144274500Y-99770725D01*
X144274500Y-100279274D01*
X144277353Y-100309694D01*
X144277355Y-100309703D01*
X144322207Y-100437883D01*
X144402845Y-100547144D01*
X144402847Y-100547146D01*
X144402850Y-100547150D01*
X144402853Y-100547152D01*
X144402855Y-100547154D01*
X144512116Y-100627792D01*
X144512117Y-100627792D01*
X144512118Y-100627793D01*
X144562013Y-100645252D01*
X144583198Y-100652665D01*
X144631878Y-100689730D01*
X144649500Y-100746109D01*
X144649500Y-101029898D01*
X144630593Y-101088089D01*
X144585101Y-101122655D01*
X144569774Y-101128372D01*
X144569771Y-101128373D01*
X144460315Y-101210311D01*
X144460311Y-101210315D01*
X144378373Y-101319771D01*
X144330587Y-101447887D01*
X144324500Y-101504518D01*
X144324500Y-102095478D01*
X144324501Y-102095484D01*
X144330587Y-102152111D01*
X144330587Y-102152112D01*
X144330588Y-102152114D01*
X144378372Y-102280226D01*
X144460313Y-102389687D01*
X144569774Y-102471628D01*
X144585095Y-102477342D01*
X144633010Y-102515392D01*
X144649500Y-102570101D01*
X144649500Y-103651969D01*
X144630593Y-103710160D01*
X144581093Y-103746124D01*
X144519907Y-103746124D01*
X144480498Y-103721974D01*
X144448015Y-103689491D01*
X144448012Y-103689489D01*
X144448010Y-103689487D01*
X144322488Y-103617017D01*
X144322489Y-103617017D01*
X144260847Y-103600500D01*
X144182475Y-103579500D01*
X144037525Y-103579500D01*
X144013394Y-103585966D01*
X143897510Y-103617017D01*
X143771989Y-103689487D01*
X143771983Y-103689492D01*
X143733563Y-103727912D01*
X143679046Y-103755689D01*
X143618614Y-103746117D01*
X143608560Y-103740224D01*
X143602595Y-103736238D01*
X143602590Y-103736236D01*
X143602587Y-103736235D01*
X143602586Y-103736235D01*
X143529534Y-103721703D01*
X143529524Y-103721702D01*
X142070476Y-103721702D01*
X142070475Y-103721702D01*
X142070465Y-103721703D01*
X141997413Y-103736235D01*
X141997407Y-103736237D01*
X141965113Y-103757816D01*
X141910112Y-103774500D01*
X140261190Y-103774500D01*
X140202999Y-103755593D01*
X140191186Y-103745504D01*
X139918156Y-103472474D01*
X139640212Y-103194530D01*
X139560288Y-103148386D01*
X139471144Y-103124500D01*
X139471142Y-103124500D01*
X138160250Y-103124500D01*
X138102059Y-103105593D01*
X138073359Y-103072945D01*
X138071626Y-103069771D01*
X138002546Y-102977491D01*
X137989687Y-102960313D01*
X137938722Y-102922161D01*
X137880228Y-102878373D01*
X137880226Y-102878372D01*
X137752114Y-102830588D01*
X137752113Y-102830587D01*
X137713895Y-102826479D01*
X137695485Y-102824500D01*
X137695481Y-102824500D01*
X137104521Y-102824500D01*
X137104515Y-102824501D01*
X137047888Y-102830587D01*
X137047886Y-102830588D01*
X136919774Y-102878372D01*
X136919773Y-102878372D01*
X136919772Y-102878373D01*
X136810315Y-102960311D01*
X136810311Y-102960315D01*
X136728373Y-103069771D01*
X136726641Y-103072945D01*
X136724447Y-103075017D01*
X136724129Y-103075442D01*
X136724055Y-103075386D01*
X136682159Y-103114957D01*
X136639750Y-103124500D01*
X133683760Y-103124500D01*
X133625569Y-103105593D01*
X133598025Y-103075002D01*
X133590510Y-103061987D01*
X133590509Y-103061985D01*
X133488015Y-102959491D01*
X133488012Y-102959489D01*
X133488010Y-102959487D01*
X133362488Y-102887017D01*
X133362489Y-102887017D01*
X133316428Y-102874675D01*
X133222475Y-102849500D01*
X133077525Y-102849500D01*
X133015790Y-102866041D01*
X132937510Y-102887017D01*
X132811989Y-102959487D01*
X132709487Y-103061989D01*
X132637017Y-103187510D01*
X132599500Y-103327525D01*
X132599500Y-103472475D01*
X132619031Y-103545366D01*
X132637017Y-103612489D01*
X132709487Y-103738010D01*
X132709489Y-103738012D01*
X132709491Y-103738015D01*
X132811985Y-103840509D01*
X132811987Y-103840510D01*
X132811989Y-103840512D01*
X132937511Y-103912982D01*
X132937512Y-103912982D01*
X132937515Y-103912984D01*
X133077525Y-103950500D01*
X133077526Y-103950500D01*
X133222474Y-103950500D01*
X133222475Y-103950500D01*
X133362485Y-103912984D01*
X133362487Y-103912982D01*
X133362489Y-103912982D01*
X133491039Y-103838764D01*
X133540539Y-103825500D01*
X136601925Y-103825500D01*
X136660116Y-103844407D01*
X136694681Y-103889900D01*
X136728372Y-103980226D01*
X136728373Y-103980228D01*
X136755505Y-104016472D01*
X136810313Y-104089687D01*
X136919774Y-104171628D01*
X136944901Y-104181000D01*
X136992815Y-104219050D01*
X137009212Y-104277997D01*
X136987830Y-104335325D01*
X136946623Y-104365854D01*
X136890273Y-104388076D01*
X136890271Y-104388077D01*
X136775282Y-104475276D01*
X136775276Y-104475282D01*
X136688077Y-104590270D01*
X136635132Y-104724531D01*
X136625000Y-104808895D01*
X136625000Y-104874999D01*
X136625001Y-104875000D01*
X138174999Y-104875000D01*
X138175000Y-104874999D01*
X138175000Y-104808899D01*
X138174999Y-104808895D01*
X138164867Y-104724531D01*
X138111922Y-104590270D01*
X138024723Y-104475282D01*
X138024717Y-104475276D01*
X137909728Y-104388077D01*
X137909724Y-104388074D01*
X137853377Y-104365854D01*
X137806180Y-104326917D01*
X137790883Y-104267675D01*
X137813329Y-104210756D01*
X137855098Y-104181000D01*
X137880226Y-104171628D01*
X137989687Y-104089687D01*
X138071628Y-103980226D01*
X138105318Y-103889900D01*
X138143368Y-103841988D01*
X138198075Y-103825500D01*
X139238810Y-103825500D01*
X139297001Y-103844407D01*
X139308814Y-103854496D01*
X139859788Y-104405470D01*
X139859790Y-104405471D01*
X139936053Y-104449502D01*
X139936054Y-104449502D01*
X139939712Y-104451614D01*
X140028856Y-104475500D01*
X141696153Y-104475500D01*
X141754344Y-104494407D01*
X141790308Y-104543907D01*
X141794242Y-104574551D01*
X141795150Y-104574551D01*
X141795150Y-104622202D01*
X141795151Y-104622203D01*
X143834994Y-104622203D01*
X143884495Y-104635467D01*
X143897515Y-104642984D01*
X144037525Y-104680500D01*
X144037526Y-104680500D01*
X144182474Y-104680500D01*
X144182475Y-104680500D01*
X144322485Y-104642984D01*
X144322487Y-104642982D01*
X144322489Y-104642982D01*
X144448010Y-104570512D01*
X144448010Y-104570511D01*
X144448015Y-104570509D01*
X144480498Y-104538025D01*
X144501151Y-104527502D01*
X144519907Y-104513876D01*
X144527896Y-104513876D01*
X144535013Y-104510250D01*
X144557908Y-104513876D01*
X144581093Y-104513876D01*
X144587555Y-104518571D01*
X144595445Y-104519821D01*
X144611836Y-104536212D01*
X144630593Y-104549840D01*
X144633061Y-104557437D01*
X144638710Y-104563086D01*
X144649500Y-104608031D01*
X144649500Y-104613810D01*
X144630593Y-104672001D01*
X144620504Y-104683814D01*
X144258815Y-105045503D01*
X144204298Y-105073280D01*
X144188811Y-105074499D01*
X143903850Y-105074499D01*
X143845659Y-105055592D01*
X143809695Y-105006092D01*
X143805283Y-104978237D01*
X143804849Y-104977803D01*
X141795152Y-104977803D01*
X141795151Y-104977804D01*
X141795151Y-105022594D01*
X141798059Y-105047677D01*
X141844949Y-105153873D01*
X141851482Y-105213173D01*
X141844650Y-105247519D01*
X141844650Y-105652473D01*
X141844651Y-105652485D01*
X141857734Y-105718251D01*
X141859184Y-105725541D01*
X141859185Y-105725543D01*
X141862916Y-105734550D01*
X141859936Y-105735783D01*
X141872089Y-105778912D01*
X141860536Y-105814468D01*
X141862916Y-105815454D01*
X141859183Y-105824466D01*
X141844651Y-105897518D01*
X141844650Y-105897530D01*
X141844650Y-106275499D01*
X141825743Y-106333690D01*
X141776243Y-106369654D01*
X141745650Y-106374499D01*
X124088808Y-106374499D01*
X124030617Y-106355592D01*
X123994653Y-106306092D01*
X123994653Y-106244906D01*
X124030617Y-106195406D01*
X124037221Y-106191117D01*
X124038009Y-106190512D01*
X124038015Y-106190509D01*
X124140509Y-106088015D01*
X124140512Y-106088010D01*
X124212982Y-105962489D01*
X124212982Y-105962487D01*
X124212984Y-105962485D01*
X124250500Y-105822475D01*
X124250500Y-105677525D01*
X124212984Y-105537515D01*
X124212982Y-105537512D01*
X124212982Y-105537510D01*
X124140512Y-105411989D01*
X124140507Y-105411983D01*
X124106556Y-105378031D01*
X124102930Y-105370914D01*
X124096467Y-105366219D01*
X124089302Y-105344167D01*
X124078779Y-105323514D01*
X124077560Y-105308028D01*
X124077560Y-105275001D01*
X136625000Y-105275001D01*
X136625000Y-105341104D01*
X136635132Y-105425468D01*
X136688077Y-105559729D01*
X136775276Y-105674717D01*
X136775282Y-105674723D01*
X136890270Y-105761922D01*
X137024531Y-105814867D01*
X137108895Y-105824999D01*
X137108900Y-105825000D01*
X137199999Y-105825000D01*
X137200000Y-105824999D01*
X137200000Y-105275001D01*
X137600000Y-105275001D01*
X137600000Y-105824999D01*
X137600001Y-105825000D01*
X137691100Y-105825000D01*
X137691104Y-105824999D01*
X137775468Y-105814867D01*
X137909729Y-105761922D01*
X138024717Y-105674723D01*
X138024723Y-105674717D01*
X138111922Y-105559729D01*
X138164867Y-105425468D01*
X138174999Y-105341104D01*
X138175000Y-105341100D01*
X138175000Y-105275001D01*
X138174999Y-105275000D01*
X137600001Y-105275000D01*
X137600000Y-105275001D01*
X137200000Y-105275001D01*
X137199999Y-105275000D01*
X136625001Y-105275000D01*
X136625000Y-105275001D01*
X124077560Y-105275001D01*
X124077560Y-103622631D01*
X124096467Y-103564440D01*
X124145966Y-103528476D01*
X124172445Y-103519873D01*
X124326788Y-103441232D01*
X124466928Y-103339414D01*
X124589414Y-103216928D01*
X124691232Y-103076788D01*
X124769873Y-102922445D01*
X124769874Y-102922440D01*
X124769876Y-102922438D01*
X124823401Y-102757706D01*
X124823402Y-102757702D01*
X124850500Y-102586614D01*
X124850500Y-102413384D01*
X124850499Y-102413378D01*
X124823402Y-102242297D01*
X124823401Y-102242293D01*
X124769876Y-102077561D01*
X124769874Y-102077558D01*
X124769873Y-102077557D01*
X124769873Y-102077555D01*
X124691232Y-101923212D01*
X124589414Y-101783072D01*
X124466928Y-101660586D01*
X124326788Y-101558768D01*
X124326787Y-101558767D01*
X124326785Y-101558766D01*
X124172441Y-101480125D01*
X124172438Y-101480123D01*
X124007706Y-101426598D01*
X124007702Y-101426597D01*
X123836614Y-101399500D01*
X123836611Y-101399500D01*
X123663389Y-101399500D01*
X123663386Y-101399500D01*
X123492297Y-101426597D01*
X123492293Y-101426598D01*
X123327561Y-101480123D01*
X123327558Y-101480125D01*
X123173214Y-101558766D01*
X123033073Y-101660585D01*
X122910585Y-101783073D01*
X122808766Y-101923214D01*
X122730125Y-102077558D01*
X122730123Y-102077561D01*
X122676598Y-102242293D01*
X122676597Y-102242297D01*
X122649501Y-102413378D01*
X122649500Y-102413384D01*
X122649500Y-102586614D01*
X122676597Y-102757702D01*
X122676598Y-102757706D01*
X122730123Y-102922438D01*
X122730125Y-102922441D01*
X122808053Y-103075386D01*
X122808768Y-103076788D01*
X122910586Y-103216928D01*
X123033072Y-103339414D01*
X123173212Y-103441232D01*
X123173215Y-103441234D01*
X123173217Y-103441235D01*
X123234528Y-103472474D01*
X123322504Y-103517299D01*
X123365769Y-103560563D01*
X123376560Y-103605509D01*
X123376560Y-105253909D01*
X123357653Y-105312100D01*
X123347569Y-105323906D01*
X123300741Y-105370735D01*
X123259488Y-105411988D01*
X123259487Y-105411989D01*
X123187017Y-105537510D01*
X123150252Y-105674717D01*
X123149500Y-105677525D01*
X123149500Y-105822475D01*
X123177105Y-105925498D01*
X123187017Y-105962489D01*
X123259487Y-106088010D01*
X123259489Y-106088012D01*
X123259491Y-106088015D01*
X123361985Y-106190509D01*
X123361987Y-106190510D01*
X123361988Y-106190511D01*
X123367134Y-106194460D01*
X123366115Y-106195787D01*
X123401632Y-106235229D01*
X123408029Y-106296079D01*
X123377438Y-106349068D01*
X123321544Y-106373956D01*
X123311192Y-106374499D01*
X121643032Y-106374499D01*
X121584841Y-106355592D01*
X121548877Y-106306092D01*
X121548877Y-106244906D01*
X121573026Y-106205497D01*
X121640509Y-106138015D01*
X121669377Y-106088015D01*
X121712982Y-106012489D01*
X121712982Y-106012487D01*
X121712984Y-106012485D01*
X121750500Y-105872475D01*
X121750500Y-105727525D01*
X121712984Y-105587515D01*
X121712982Y-105587512D01*
X121712982Y-105587510D01*
X121640512Y-105461989D01*
X121640510Y-105461987D01*
X121640509Y-105461985D01*
X121566554Y-105388030D01*
X121538779Y-105333516D01*
X121537560Y-105318029D01*
X121537560Y-103622631D01*
X121556467Y-103564440D01*
X121605966Y-103528476D01*
X121632445Y-103519873D01*
X121786788Y-103441232D01*
X121926928Y-103339414D01*
X122049414Y-103216928D01*
X122151232Y-103076788D01*
X122229873Y-102922445D01*
X122229874Y-102922440D01*
X122229876Y-102922438D01*
X122283401Y-102757706D01*
X122283402Y-102757702D01*
X122310500Y-102586614D01*
X122310500Y-102413384D01*
X122310499Y-102413378D01*
X122283402Y-102242297D01*
X122283401Y-102242293D01*
X122229876Y-102077561D01*
X122229874Y-102077558D01*
X122229873Y-102077557D01*
X122229873Y-102077555D01*
X122151232Y-101923212D01*
X122049414Y-101783072D01*
X121926928Y-101660586D01*
X121786788Y-101558768D01*
X121786787Y-101558767D01*
X121786785Y-101558766D01*
X121632441Y-101480125D01*
X121632438Y-101480123D01*
X121467706Y-101426598D01*
X121467702Y-101426597D01*
X121296614Y-101399500D01*
X121296611Y-101399500D01*
X121123389Y-101399500D01*
X121123386Y-101399500D01*
X120952297Y-101426597D01*
X120952293Y-101426598D01*
X120787561Y-101480123D01*
X120787558Y-101480125D01*
X120633214Y-101558766D01*
X120493073Y-101660585D01*
X120370585Y-101783073D01*
X120268766Y-101923214D01*
X120190125Y-102077558D01*
X120190123Y-102077561D01*
X120136598Y-102242293D01*
X120136597Y-102242297D01*
X120109501Y-102413378D01*
X120109500Y-102413384D01*
X120109500Y-102586614D01*
X120136597Y-102757702D01*
X120136598Y-102757706D01*
X120190123Y-102922438D01*
X120190125Y-102922441D01*
X120268053Y-103075386D01*
X120268768Y-103076788D01*
X120370586Y-103216928D01*
X120493072Y-103339414D01*
X120633212Y-103441232D01*
X120633215Y-103441234D01*
X120633217Y-103441235D01*
X120694528Y-103472474D01*
X120782504Y-103517299D01*
X120825769Y-103560563D01*
X120836560Y-103605509D01*
X120836560Y-104468683D01*
X120817653Y-104526874D01*
X120768153Y-104562838D01*
X120706967Y-104562838D01*
X120657467Y-104526874D01*
X120651824Y-104518183D01*
X120590512Y-104411989D01*
X120590510Y-104411987D01*
X120590509Y-104411985D01*
X120488015Y-104309491D01*
X120488012Y-104309489D01*
X120488010Y-104309487D01*
X120362488Y-104237017D01*
X120362489Y-104237017D01*
X120319503Y-104225499D01*
X120222475Y-104199500D01*
X120077525Y-104199500D01*
X120035518Y-104210756D01*
X119937510Y-104237017D01*
X119811989Y-104309487D01*
X119811984Y-104309491D01*
X119750971Y-104370504D01*
X119696454Y-104398281D01*
X119680968Y-104399500D01*
X118535414Y-104399500D01*
X118477223Y-104380593D01*
X118465410Y-104370504D01*
X117156001Y-103061095D01*
X117128224Y-103006578D01*
X117137794Y-102946150D01*
X117149873Y-102922445D01*
X117197690Y-102775282D01*
X117203402Y-102757702D01*
X117230500Y-102586614D01*
X117230500Y-102413385D01*
X117229883Y-102409489D01*
X117520000Y-102409489D01*
X117520000Y-102590510D01*
X117548316Y-102769289D01*
X117604250Y-102941440D01*
X117686430Y-103102728D01*
X117727667Y-103159488D01*
X118201980Y-102685174D01*
X118204075Y-102692993D01*
X118269901Y-102807007D01*
X118362993Y-102900099D01*
X118477007Y-102965925D01*
X118484821Y-102968019D01*
X118010511Y-103442330D01*
X118067275Y-103483571D01*
X118228559Y-103565749D01*
X118400710Y-103621683D01*
X118579490Y-103650000D01*
X118760510Y-103650000D01*
X118939289Y-103621683D01*
X119111440Y-103565749D01*
X119272728Y-103483569D01*
X119329487Y-103442330D01*
X118855176Y-102968019D01*
X118862993Y-102965925D01*
X118977007Y-102900099D01*
X119070099Y-102807007D01*
X119135925Y-102692993D01*
X119138019Y-102685176D01*
X119612330Y-103159487D01*
X119653569Y-103102728D01*
X119735749Y-102941440D01*
X119791683Y-102769289D01*
X119820000Y-102590510D01*
X119820000Y-102409489D01*
X119791683Y-102230710D01*
X119735749Y-102058559D01*
X119653571Y-101897275D01*
X119612330Y-101840511D01*
X119138019Y-102314821D01*
X119135925Y-102307007D01*
X119070099Y-102192993D01*
X118977007Y-102099901D01*
X118862993Y-102034075D01*
X118855174Y-102031980D01*
X119329488Y-101557667D01*
X119272728Y-101516430D01*
X119111440Y-101434250D01*
X118939289Y-101378316D01*
X118760510Y-101350000D01*
X118579490Y-101350000D01*
X118400710Y-101378316D01*
X118228559Y-101434250D01*
X118067267Y-101516432D01*
X118010510Y-101557667D01*
X118484823Y-102031980D01*
X118477007Y-102034075D01*
X118362993Y-102099901D01*
X118269901Y-102192993D01*
X118204075Y-102307007D01*
X118201980Y-102314823D01*
X117727667Y-101840510D01*
X117686432Y-101897267D01*
X117604250Y-102058559D01*
X117548316Y-102230710D01*
X117520000Y-102409489D01*
X117229883Y-102409489D01*
X117203402Y-102242297D01*
X117203401Y-102242293D01*
X117149876Y-102077561D01*
X117149874Y-102077558D01*
X117149873Y-102077557D01*
X117149873Y-102077555D01*
X117071232Y-101923212D01*
X116969414Y-101783072D01*
X116846928Y-101660586D01*
X116706788Y-101558768D01*
X116706787Y-101558767D01*
X116706785Y-101558766D01*
X116552445Y-101480127D01*
X116525966Y-101471523D01*
X116476466Y-101435558D01*
X116457560Y-101377369D01*
X116457560Y-98565729D01*
X116476467Y-98507538D01*
X116501559Y-98483413D01*
X116551567Y-98449999D01*
X116580599Y-98430601D01*
X116635964Y-98347740D01*
X116650498Y-98274674D01*
X116650498Y-96925327D01*
X117449500Y-96925327D01*
X117449500Y-98274672D01*
X117449501Y-98274684D01*
X117464033Y-98347736D01*
X117464035Y-98347742D01*
X117519397Y-98430599D01*
X117519400Y-98430602D01*
X117548432Y-98450000D01*
X117602260Y-98485966D01*
X117643906Y-98494250D01*
X117675315Y-98500498D01*
X117675320Y-98500498D01*
X117675326Y-98500500D01*
X117675327Y-98500500D01*
X118324673Y-98500500D01*
X118324674Y-98500500D01*
X118397740Y-98485966D01*
X118480601Y-98430601D01*
X118535966Y-98347740D01*
X118550500Y-98274674D01*
X118550500Y-98149500D01*
X118569407Y-98091309D01*
X118618907Y-98055345D01*
X118649500Y-98050500D01*
X144063810Y-98050500D01*
X144071407Y-98052968D01*
X144079297Y-98051719D01*
X144099952Y-98062243D01*
X144122001Y-98069407D01*
X144133814Y-98079496D01*
X144245504Y-98191186D01*
X144273281Y-98245703D01*
X144274500Y-98261190D01*
X144274500Y-98629274D01*
X144277353Y-98659694D01*
X144277355Y-98659703D01*
X144322207Y-98787883D01*
X144402845Y-98897144D01*
X144402847Y-98897146D01*
X144402850Y-98897150D01*
X144402853Y-98897152D01*
X144402855Y-98897154D01*
X144512116Y-98977792D01*
X144512117Y-98977792D01*
X144512118Y-98977793D01*
X144640301Y-99022646D01*
X144670725Y-99025499D01*
X144670727Y-99025500D01*
X144670734Y-99025500D01*
X145329273Y-99025500D01*
X145329273Y-99025499D01*
X145359699Y-99022646D01*
X145487882Y-98977793D01*
X145597150Y-98897150D01*
X145677793Y-98787882D01*
X145680720Y-98779514D01*
X145717782Y-98730835D01*
X145776381Y-98713235D01*
X145834134Y-98733440D01*
X145866923Y-98777613D01*
X145881647Y-98817090D01*
X145967807Y-98932184D01*
X145967815Y-98932192D01*
X146082909Y-99018352D01*
X146082911Y-99018353D01*
X146217618Y-99068596D01*
X146217629Y-99068598D01*
X146277176Y-99075000D01*
X146399999Y-99075000D01*
X146400000Y-99074999D01*
X146400000Y-98575001D01*
X146800000Y-98575001D01*
X146800000Y-99074999D01*
X146800001Y-99075000D01*
X146922824Y-99075000D01*
X146982370Y-99068598D01*
X146982381Y-99068596D01*
X147117088Y-99018353D01*
X147117090Y-99018352D01*
X147232184Y-98932192D01*
X147232192Y-98932184D01*
X147318352Y-98817090D01*
X147318353Y-98817088D01*
X147368596Y-98682381D01*
X147368598Y-98682370D01*
X147375000Y-98622824D01*
X147375000Y-98575001D01*
X147374999Y-98575000D01*
X146800001Y-98575000D01*
X146800000Y-98575001D01*
X146400000Y-98575001D01*
X146400000Y-97675001D01*
X146800000Y-97675001D01*
X146800000Y-98174999D01*
X146800001Y-98175000D01*
X147374999Y-98175000D01*
X147375000Y-98174999D01*
X147375000Y-98127175D01*
X147368598Y-98067629D01*
X147368596Y-98067618D01*
X147318353Y-97932911D01*
X147318352Y-97932909D01*
X147232192Y-97817815D01*
X147232184Y-97817807D01*
X147117090Y-97731647D01*
X147117088Y-97731646D01*
X146982381Y-97681403D01*
X146982370Y-97681401D01*
X146922824Y-97675000D01*
X146800001Y-97675000D01*
X146800000Y-97675001D01*
X146400000Y-97675001D01*
X146399999Y-97675000D01*
X146277176Y-97675000D01*
X146217629Y-97681401D01*
X146217618Y-97681403D01*
X146082911Y-97731646D01*
X146082909Y-97731647D01*
X145967815Y-97817807D01*
X145967807Y-97817815D01*
X145881647Y-97932909D01*
X145866923Y-97972386D01*
X145828872Y-98020301D01*
X145769925Y-98036698D01*
X145712597Y-98015316D01*
X145680720Y-97970484D01*
X145677792Y-97962116D01*
X145597154Y-97852855D01*
X145597152Y-97852853D01*
X145597150Y-97852850D01*
X145597146Y-97852847D01*
X145597144Y-97852845D01*
X145487883Y-97772207D01*
X145359703Y-97727355D01*
X145359694Y-97727353D01*
X145329274Y-97724500D01*
X145329266Y-97724500D01*
X144811190Y-97724500D01*
X144752999Y-97705593D01*
X144741187Y-97695504D01*
X144465214Y-97419532D01*
X144465212Y-97419530D01*
X144385288Y-97373386D01*
X144296144Y-97349500D01*
X144296142Y-97349500D01*
X118649500Y-97349500D01*
X118591309Y-97330593D01*
X118555345Y-97281093D01*
X118550500Y-97250500D01*
X118550500Y-96925327D01*
X118550498Y-96925315D01*
X118547015Y-96907808D01*
X118535966Y-96852260D01*
X118480601Y-96769399D01*
X118480599Y-96769397D01*
X118397742Y-96714035D01*
X118397740Y-96714034D01*
X118397737Y-96714033D01*
X118397736Y-96714033D01*
X118324684Y-96699501D01*
X118324674Y-96699500D01*
X117675326Y-96699500D01*
X117675325Y-96699500D01*
X117675315Y-96699501D01*
X117602263Y-96714033D01*
X117602257Y-96714035D01*
X117519400Y-96769397D01*
X117519397Y-96769400D01*
X117464035Y-96852257D01*
X117464033Y-96852263D01*
X117449501Y-96925315D01*
X117449500Y-96925327D01*
X116650498Y-96925327D01*
X116650498Y-96925326D01*
X116635964Y-96852260D01*
X116580599Y-96769399D01*
X116580597Y-96769397D01*
X116497740Y-96714035D01*
X116497738Y-96714034D01*
X116497735Y-96714033D01*
X116497734Y-96714033D01*
X116424682Y-96699501D01*
X116424672Y-96699500D01*
X115775324Y-96699500D01*
X115775323Y-96699500D01*
X115775313Y-96699501D01*
X115702261Y-96714033D01*
X115702255Y-96714035D01*
X115619398Y-96769397D01*
X115619395Y-96769400D01*
X115564033Y-96852257D01*
X115564031Y-96852263D01*
X115549499Y-96925315D01*
X115549498Y-96925327D01*
X115549498Y-98274672D01*
X115549499Y-98274684D01*
X115564031Y-98347736D01*
X115564033Y-98347742D01*
X115619395Y-98430599D01*
X115619400Y-98430604D01*
X115710365Y-98491383D01*
X115708448Y-98494250D01*
X115741967Y-98522874D01*
X115756560Y-98574608D01*
X115756560Y-101394490D01*
X115737653Y-101452681D01*
X115702505Y-101482700D01*
X115553214Y-101558766D01*
X115413073Y-101660585D01*
X115290585Y-101783073D01*
X115188766Y-101923214D01*
X115110125Y-102077558D01*
X115110123Y-102077561D01*
X115056598Y-102242293D01*
X115056597Y-102242297D01*
X115029501Y-102413378D01*
X115029500Y-102413384D01*
X115029500Y-102586614D01*
X115056597Y-102757702D01*
X115056598Y-102757706D01*
X115110123Y-102922438D01*
X115110125Y-102922441D01*
X115188053Y-103075386D01*
X115188768Y-103076788D01*
X115290586Y-103216928D01*
X115413072Y-103339414D01*
X115553212Y-103441232D01*
X115707555Y-103519873D01*
X115707557Y-103519873D01*
X115707558Y-103519874D01*
X115707561Y-103519876D01*
X115872293Y-103573401D01*
X115872297Y-103573402D01*
X116043386Y-103600500D01*
X116043389Y-103600500D01*
X116216614Y-103600500D01*
X116387702Y-103573402D01*
X116473986Y-103545366D01*
X116548311Y-103521215D01*
X116609496Y-103521215D01*
X116648908Y-103545366D01*
X118134012Y-105030470D01*
X118173073Y-105053021D01*
X118201667Y-105069531D01*
X118201666Y-105069531D01*
X118210278Y-105074502D01*
X118213936Y-105076614D01*
X118303080Y-105100500D01*
X118303081Y-105100500D01*
X118395368Y-105100500D01*
X119680968Y-105100500D01*
X119739159Y-105119407D01*
X119750971Y-105129496D01*
X119811984Y-105190508D01*
X119811989Y-105190512D01*
X119937511Y-105262982D01*
X119937512Y-105262982D01*
X119937515Y-105262984D01*
X120077525Y-105300500D01*
X120077526Y-105300500D01*
X120222474Y-105300500D01*
X120222475Y-105300500D01*
X120362485Y-105262984D01*
X120362487Y-105262982D01*
X120362489Y-105262982D01*
X120488010Y-105190512D01*
X120488010Y-105190511D01*
X120488015Y-105190509D01*
X120590509Y-105088015D01*
X120590512Y-105088010D01*
X120651824Y-104981816D01*
X120697293Y-104940875D01*
X120758143Y-104934479D01*
X120811131Y-104965072D01*
X120836018Y-105020968D01*
X120836560Y-105031316D01*
X120836560Y-105343908D01*
X120817653Y-105402099D01*
X120807564Y-105413911D01*
X120759491Y-105461983D01*
X120759487Y-105461989D01*
X120687017Y-105587510D01*
X120662174Y-105680226D01*
X120649500Y-105727525D01*
X120649500Y-105872475D01*
X120675741Y-105970407D01*
X120687017Y-106012489D01*
X120759487Y-106138010D01*
X120759489Y-106138012D01*
X120759491Y-106138015D01*
X120861985Y-106240509D01*
X120876573Y-106248931D01*
X120917514Y-106294401D01*
X120923910Y-106355251D01*
X120893317Y-106408239D01*
X120876574Y-106420404D01*
X120834790Y-106444528D01*
X118382549Y-108896767D01*
X118328032Y-108924544D01*
X118301973Y-108925197D01*
X118297586Y-108924725D01*
X118295485Y-108924500D01*
X118295483Y-108924500D01*
X117704521Y-108924500D01*
X117704515Y-108924501D01*
X117647888Y-108930587D01*
X117647886Y-108930588D01*
X117519774Y-108978372D01*
X117519773Y-108978372D01*
X117519772Y-108978373D01*
X117410315Y-109060311D01*
X117410311Y-109060315D01*
X117328373Y-109169771D01*
X117328371Y-109169775D01*
X117322657Y-109185097D01*
X117304891Y-109207468D01*
X117288090Y-109230593D01*
X117285983Y-109231277D01*
X117284606Y-109233012D01*
X117229899Y-109249500D01*
X117046109Y-109249500D01*
X116987918Y-109230593D01*
X116952665Y-109183198D01*
X116933571Y-109128631D01*
X116927793Y-109112118D01*
X116920949Y-109102845D01*
X116847154Y-109002855D01*
X116847152Y-109002853D01*
X116847150Y-109002850D01*
X116847146Y-109002847D01*
X116847144Y-109002845D01*
X116737883Y-108922207D01*
X116609703Y-108877355D01*
X116609694Y-108877353D01*
X116579274Y-108874500D01*
X116579266Y-108874500D01*
X116070734Y-108874500D01*
X116070725Y-108874500D01*
X116040305Y-108877353D01*
X116040296Y-108877355D01*
X115912116Y-108922207D01*
X115802855Y-109002845D01*
X115802845Y-109002855D01*
X115722207Y-109112116D01*
X115677355Y-109240296D01*
X115677353Y-109240305D01*
X115674500Y-109270725D01*
X115674500Y-109929274D01*
X115677353Y-109959694D01*
X115677355Y-109959703D01*
X115722207Y-110087883D01*
X115802845Y-110197144D01*
X115802847Y-110197146D01*
X115802850Y-110197150D01*
X115802853Y-110197152D01*
X115802855Y-110197154D01*
X115912116Y-110277792D01*
X115912117Y-110277792D01*
X115912118Y-110277793D01*
X115945635Y-110289521D01*
X115994317Y-110306556D01*
X116042997Y-110343621D01*
X116060594Y-110402222D01*
X116040386Y-110459973D01*
X115994317Y-110493444D01*
X115912116Y-110522207D01*
X115802855Y-110602845D01*
X115802845Y-110602855D01*
X115722207Y-110712116D01*
X115677355Y-110840296D01*
X115677353Y-110840305D01*
X115674500Y-110870725D01*
X115674500Y-111529274D01*
X115677353Y-111559694D01*
X115677355Y-111559703D01*
X115722207Y-111687883D01*
X115802845Y-111797144D01*
X115802847Y-111797146D01*
X115802850Y-111797150D01*
X115802853Y-111797152D01*
X115802855Y-111797154D01*
X115912116Y-111877792D01*
X115912117Y-111877792D01*
X115912118Y-111877793D01*
X116040301Y-111922646D01*
X116070725Y-111925499D01*
X116070727Y-111925500D01*
X116070734Y-111925500D01*
X116579273Y-111925500D01*
X116579273Y-111925499D01*
X116609699Y-111922646D01*
X116737882Y-111877793D01*
X116847150Y-111797150D01*
X116905934Y-111717500D01*
X116927791Y-111687885D01*
X116927792Y-111687883D01*
X116927793Y-111687882D01*
X116935169Y-111666801D01*
X116972233Y-111618122D01*
X117028613Y-111600500D01*
X117256563Y-111600500D01*
X117314754Y-111619407D01*
X117335816Y-111640171D01*
X117410309Y-111739682D01*
X117410313Y-111739687D01*
X117519774Y-111821628D01*
X117647886Y-111869412D01*
X117704515Y-111875500D01*
X118295484Y-111875499D01*
X118352114Y-111869412D01*
X118480226Y-111821628D01*
X118589687Y-111739687D01*
X118671628Y-111630226D01*
X118719412Y-111502114D01*
X118725500Y-111445485D01*
X118725499Y-111177525D01*
X122499500Y-111177525D01*
X122499500Y-111322474D01*
X122537017Y-111462489D01*
X122609487Y-111588010D01*
X122609489Y-111588012D01*
X122609491Y-111588015D01*
X122711985Y-111690509D01*
X122711987Y-111690510D01*
X122711989Y-111690512D01*
X122837511Y-111762982D01*
X122837512Y-111762982D01*
X122837515Y-111762984D01*
X122977525Y-111800500D01*
X122977526Y-111800500D01*
X123122474Y-111800500D01*
X123122475Y-111800500D01*
X123262485Y-111762984D01*
X123262487Y-111762982D01*
X123262489Y-111762982D01*
X123388010Y-111690512D01*
X123388011Y-111690511D01*
X123388015Y-111690509D01*
X123396722Y-111681802D01*
X123434029Y-111644496D01*
X123488546Y-111616719D01*
X123504032Y-111615500D01*
X125341644Y-111615500D01*
X125399835Y-111634407D01*
X125435088Y-111681802D01*
X125472207Y-111787883D01*
X125552845Y-111897144D01*
X125552847Y-111897146D01*
X125552850Y-111897150D01*
X125552853Y-111897152D01*
X125552855Y-111897154D01*
X125662116Y-111977792D01*
X125662117Y-111977792D01*
X125662118Y-111977793D01*
X125790301Y-112022646D01*
X125820725Y-112025499D01*
X125820727Y-112025500D01*
X125820734Y-112025500D01*
X126329273Y-112025500D01*
X126329273Y-112025499D01*
X126359699Y-112022646D01*
X126487882Y-111977793D01*
X126597150Y-111897150D01*
X126677793Y-111787882D01*
X126722646Y-111659699D01*
X126725499Y-111629273D01*
X126725500Y-111629273D01*
X126725500Y-110970727D01*
X126725499Y-110970725D01*
X126722646Y-110940305D01*
X126722646Y-110940301D01*
X126677793Y-110812118D01*
X126675854Y-110809491D01*
X126597154Y-110702855D01*
X126597152Y-110702853D01*
X126597150Y-110702850D01*
X126597146Y-110702847D01*
X126597144Y-110702845D01*
X126487883Y-110622207D01*
X126405682Y-110593444D01*
X126357002Y-110556379D01*
X126339405Y-110497779D01*
X126359613Y-110440027D01*
X126405682Y-110406556D01*
X126430765Y-110397779D01*
X126487882Y-110377793D01*
X126597150Y-110297150D01*
X126677793Y-110187882D01*
X126722646Y-110059699D01*
X126725499Y-110029273D01*
X126725500Y-110029273D01*
X126725500Y-109370727D01*
X126725499Y-109370725D01*
X126722646Y-109340301D01*
X126677793Y-109212118D01*
X126677790Y-109212114D01*
X126597154Y-109102855D01*
X126597152Y-109102853D01*
X126597150Y-109102850D01*
X126597146Y-109102847D01*
X126597144Y-109102845D01*
X126487883Y-109022207D01*
X126359703Y-108977355D01*
X126359694Y-108977353D01*
X126329274Y-108974500D01*
X126329266Y-108974500D01*
X125820734Y-108974500D01*
X125820725Y-108974500D01*
X125790305Y-108977353D01*
X125790296Y-108977355D01*
X125662116Y-109022207D01*
X125552855Y-109102845D01*
X125552845Y-109102855D01*
X125472208Y-109212114D01*
X125472207Y-109212118D01*
X125464830Y-109233198D01*
X125427767Y-109281878D01*
X125371387Y-109299500D01*
X124736190Y-109299500D01*
X124677999Y-109280593D01*
X124666186Y-109270504D01*
X124279496Y-108883814D01*
X124251719Y-108829297D01*
X124250500Y-108813810D01*
X124250500Y-108727525D01*
X124230559Y-108653105D01*
X124212984Y-108587515D01*
X124212982Y-108587512D01*
X124212982Y-108587510D01*
X124140512Y-108461989D01*
X124140510Y-108461987D01*
X124140509Y-108461985D01*
X124038015Y-108359491D01*
X124038012Y-108359489D01*
X124038010Y-108359487D01*
X123912488Y-108287017D01*
X123912489Y-108287017D01*
X123882896Y-108279087D01*
X123772475Y-108249500D01*
X123627525Y-108249500D01*
X123565790Y-108266041D01*
X123487510Y-108287017D01*
X123361989Y-108359487D01*
X123259487Y-108461989D01*
X123187017Y-108587510D01*
X123163005Y-108677124D01*
X123149500Y-108727525D01*
X123149500Y-108872475D01*
X123176164Y-108971985D01*
X123187017Y-109012489D01*
X123259487Y-109138010D01*
X123259489Y-109138012D01*
X123259491Y-109138015D01*
X123361985Y-109240509D01*
X123361987Y-109240510D01*
X123361989Y-109240512D01*
X123487511Y-109312982D01*
X123487512Y-109312982D01*
X123487515Y-109312984D01*
X123627525Y-109350500D01*
X123713810Y-109350500D01*
X123772001Y-109369407D01*
X123783814Y-109379496D01*
X124334788Y-109930470D01*
X124414712Y-109976614D01*
X124503856Y-110000500D01*
X124503857Y-110000500D01*
X124596144Y-110000500D01*
X125336395Y-110000500D01*
X125394586Y-110019407D01*
X125429839Y-110066802D01*
X125472207Y-110187883D01*
X125552845Y-110297144D01*
X125552847Y-110297146D01*
X125552850Y-110297150D01*
X125552853Y-110297152D01*
X125552855Y-110297154D01*
X125662116Y-110377792D01*
X125662117Y-110377792D01*
X125662118Y-110377793D01*
X125695635Y-110389521D01*
X125744317Y-110406556D01*
X125792997Y-110443621D01*
X125810594Y-110502222D01*
X125790386Y-110559973D01*
X125744317Y-110593444D01*
X125662116Y-110622207D01*
X125552855Y-110702845D01*
X125552845Y-110702855D01*
X125472207Y-110812116D01*
X125459582Y-110848198D01*
X125422517Y-110896878D01*
X125366138Y-110914500D01*
X123534031Y-110914500D01*
X123475840Y-110895593D01*
X123464033Y-110885509D01*
X123388015Y-110809491D01*
X123388012Y-110809489D01*
X123388010Y-110809487D01*
X123262488Y-110737017D01*
X123262489Y-110737017D01*
X123232896Y-110729087D01*
X123122475Y-110699500D01*
X122977525Y-110699500D01*
X122930442Y-110712116D01*
X122837510Y-110737017D01*
X122711989Y-110809487D01*
X122609487Y-110911989D01*
X122537017Y-111037510D01*
X122499500Y-111177525D01*
X118725499Y-111177525D01*
X118725499Y-111136188D01*
X118744406Y-111077998D01*
X118754489Y-111066191D01*
X122066188Y-107754494D01*
X122120705Y-107726717D01*
X122136192Y-107725498D01*
X130789813Y-107725498D01*
X130848004Y-107744405D01*
X130883968Y-107793905D01*
X130883968Y-107855091D01*
X130859818Y-107894499D01*
X130103501Y-108650816D01*
X129858813Y-108895504D01*
X129804296Y-108923281D01*
X129788809Y-108924500D01*
X129204521Y-108924500D01*
X129204515Y-108924501D01*
X129147888Y-108930587D01*
X129147886Y-108930588D01*
X129019774Y-108978372D01*
X129019773Y-108978372D01*
X129019772Y-108978373D01*
X128910315Y-109060311D01*
X128910311Y-109060315D01*
X128828372Y-109169773D01*
X128804006Y-109235099D01*
X128765955Y-109283012D01*
X128711249Y-109299500D01*
X128428613Y-109299500D01*
X128370422Y-109280593D01*
X128335169Y-109233199D01*
X128327793Y-109212118D01*
X128327791Y-109212116D01*
X128327791Y-109212114D01*
X128247154Y-109102855D01*
X128247152Y-109102853D01*
X128247150Y-109102850D01*
X128247146Y-109102847D01*
X128247144Y-109102845D01*
X128137883Y-109022207D01*
X128009703Y-108977355D01*
X128009694Y-108977353D01*
X127979274Y-108974500D01*
X127979266Y-108974500D01*
X127470734Y-108974500D01*
X127470725Y-108974500D01*
X127440305Y-108977353D01*
X127440296Y-108977355D01*
X127312116Y-109022207D01*
X127202855Y-109102845D01*
X127202845Y-109102855D01*
X127122207Y-109212116D01*
X127077355Y-109340296D01*
X127077353Y-109340305D01*
X127074500Y-109370725D01*
X127074500Y-110029274D01*
X127077353Y-110059694D01*
X127077355Y-110059703D01*
X127122207Y-110187883D01*
X127202845Y-110297144D01*
X127202847Y-110297146D01*
X127202850Y-110297150D01*
X127202853Y-110297152D01*
X127202855Y-110297154D01*
X127312116Y-110377792D01*
X127312117Y-110377792D01*
X127312118Y-110377793D01*
X127345635Y-110389521D01*
X127394317Y-110406556D01*
X127442997Y-110443621D01*
X127460594Y-110502222D01*
X127440386Y-110559973D01*
X127394317Y-110593444D01*
X127312116Y-110622207D01*
X127202855Y-110702845D01*
X127202845Y-110702855D01*
X127122207Y-110812116D01*
X127077355Y-110940296D01*
X127077353Y-110940305D01*
X127074500Y-110970725D01*
X127074500Y-111629274D01*
X127077353Y-111659694D01*
X127077355Y-111659703D01*
X127122207Y-111787883D01*
X127202845Y-111897144D01*
X127202847Y-111897146D01*
X127202850Y-111897150D01*
X127202853Y-111897152D01*
X127202855Y-111897154D01*
X127312116Y-111977792D01*
X127312117Y-111977792D01*
X127312118Y-111977793D01*
X127440301Y-112022646D01*
X127470725Y-112025499D01*
X127470727Y-112025500D01*
X127470734Y-112025500D01*
X127979273Y-112025500D01*
X127979273Y-112025499D01*
X128009699Y-112022646D01*
X128137882Y-111977793D01*
X128247150Y-111897150D01*
X128327793Y-111787882D01*
X128364912Y-111681802D01*
X128401977Y-111633122D01*
X128458356Y-111615500D01*
X128767792Y-111615500D01*
X128825983Y-111634407D01*
X128847044Y-111655169D01*
X128910313Y-111739687D01*
X129019774Y-111821628D01*
X129147886Y-111869412D01*
X129204515Y-111875500D01*
X129795484Y-111875499D01*
X129852114Y-111869412D01*
X129980226Y-111821628D01*
X130089687Y-111739687D01*
X130171628Y-111630226D01*
X130219412Y-111502114D01*
X130225500Y-111445485D01*
X130225499Y-111111188D01*
X130244406Y-111052998D01*
X130254489Y-111041191D01*
X132241188Y-109054494D01*
X132295705Y-109026717D01*
X132311192Y-109025498D01*
X141748291Y-109025498D01*
X141806482Y-109044405D01*
X141842446Y-109093905D01*
X141845388Y-109143814D01*
X141844650Y-109147519D01*
X141844650Y-109552473D01*
X141844651Y-109552485D01*
X141857693Y-109618046D01*
X141859184Y-109625541D01*
X141859185Y-109625542D01*
X141862917Y-109634553D01*
X141859933Y-109635788D01*
X141872089Y-109678883D01*
X141860534Y-109714464D01*
X141862916Y-109715451D01*
X141859183Y-109724463D01*
X141844651Y-109797515D01*
X141844650Y-109797527D01*
X141844650Y-110202472D01*
X141844651Y-110202484D01*
X141859183Y-110275536D01*
X141859185Y-110275542D01*
X141914547Y-110358399D01*
X141914550Y-110358402D01*
X141986619Y-110406556D01*
X141997410Y-110413766D01*
X142052958Y-110424815D01*
X142070465Y-110428298D01*
X142070470Y-110428298D01*
X142070476Y-110428300D01*
X143021660Y-110428300D01*
X143079851Y-110447207D01*
X143115815Y-110496707D01*
X143115815Y-110557893D01*
X143091664Y-110597304D01*
X140327264Y-113361704D01*
X140272747Y-113389481D01*
X140257260Y-113390700D01*
X120400656Y-113390700D01*
X120311512Y-113414586D01*
X120311511Y-113414586D01*
X120311509Y-113414587D01*
X120231590Y-113460729D01*
X117829528Y-115862790D01*
X117795954Y-115920943D01*
X117795954Y-115920944D01*
X117783387Y-115942709D01*
X117783386Y-115942711D01*
X117783386Y-115942712D01*
X117770482Y-115990873D01*
X117759500Y-116031857D01*
X117759500Y-119450500D01*
X117740593Y-119508691D01*
X117691093Y-119544655D01*
X117660500Y-119549500D01*
X117235326Y-119549500D01*
X117235325Y-119549500D01*
X117235315Y-119549501D01*
X117162263Y-119564033D01*
X117162257Y-119564035D01*
X117079400Y-119619397D01*
X117079397Y-119619400D01*
X117024035Y-119702257D01*
X117024033Y-119702263D01*
X117009501Y-119775315D01*
X117009500Y-119775327D01*
X117009500Y-121508336D01*
X116990593Y-121566527D01*
X116941093Y-121602491D01*
X116910500Y-121607336D01*
X69215850Y-121607336D01*
X69157659Y-121588429D01*
X69121695Y-121538929D01*
X69121128Y-121479547D01*
X71636671Y-113203018D01*
X75155559Y-101625327D01*
X109949500Y-101625327D01*
X109949500Y-103374672D01*
X109949501Y-103374684D01*
X109964033Y-103447736D01*
X109964035Y-103447742D01*
X110019397Y-103530599D01*
X110019400Y-103530602D01*
X110083455Y-103573401D01*
X110102260Y-103585966D01*
X110157808Y-103597015D01*
X110175315Y-103600498D01*
X110175320Y-103600498D01*
X110175326Y-103600500D01*
X110577560Y-103600500D01*
X110635751Y-103619407D01*
X110671715Y-103668907D01*
X110676560Y-103699500D01*
X110676560Y-109023204D01*
X110682241Y-109044405D01*
X110693791Y-109087513D01*
X110697901Y-109102850D01*
X110700446Y-109112348D01*
X110746590Y-109192272D01*
X113084788Y-111530470D01*
X113084790Y-111530471D01*
X113154077Y-111570475D01*
X113154086Y-111570478D01*
X113154088Y-111570480D01*
X113164712Y-111576614D01*
X113253856Y-111600500D01*
X113253857Y-111600500D01*
X113346144Y-111600500D01*
X113971387Y-111600500D01*
X114029578Y-111619407D01*
X114064830Y-111666800D01*
X114070080Y-111681802D01*
X114072208Y-111687885D01*
X114152845Y-111797144D01*
X114152847Y-111797146D01*
X114152850Y-111797150D01*
X114152853Y-111797152D01*
X114152855Y-111797154D01*
X114262116Y-111877792D01*
X114262117Y-111877792D01*
X114262118Y-111877793D01*
X114390301Y-111922646D01*
X114420725Y-111925499D01*
X114420727Y-111925500D01*
X114420734Y-111925500D01*
X114929273Y-111925500D01*
X114929273Y-111925499D01*
X114959699Y-111922646D01*
X115087882Y-111877793D01*
X115197150Y-111797150D01*
X115277793Y-111687882D01*
X115322646Y-111559699D01*
X115325499Y-111529273D01*
X115325500Y-111529273D01*
X115325500Y-110870727D01*
X115325499Y-110870725D01*
X115324256Y-110857467D01*
X115322646Y-110840301D01*
X115277793Y-110712118D01*
X115270949Y-110702845D01*
X115197154Y-110602855D01*
X115197152Y-110602853D01*
X115197150Y-110602850D01*
X115197146Y-110602847D01*
X115197144Y-110602845D01*
X115087883Y-110522207D01*
X115005682Y-110493444D01*
X114957002Y-110456379D01*
X114939405Y-110397779D01*
X114959613Y-110340027D01*
X115005682Y-110306556D01*
X115032551Y-110297154D01*
X115087882Y-110277793D01*
X115197150Y-110197150D01*
X115277793Y-110087882D01*
X115322646Y-109959699D01*
X115325499Y-109929273D01*
X115325500Y-109929273D01*
X115325500Y-109270727D01*
X115325499Y-109270725D01*
X115324712Y-109262333D01*
X115322646Y-109240301D01*
X115277793Y-109112118D01*
X115270949Y-109102845D01*
X115197154Y-109002855D01*
X115197152Y-109002853D01*
X115197150Y-109002850D01*
X115197146Y-109002847D01*
X115197144Y-109002845D01*
X115087883Y-108922207D01*
X114959703Y-108877355D01*
X114959694Y-108877353D01*
X114929274Y-108874500D01*
X114929266Y-108874500D01*
X114420734Y-108874500D01*
X114420725Y-108874500D01*
X114390305Y-108877353D01*
X114390296Y-108877355D01*
X114262116Y-108922207D01*
X114152855Y-109002845D01*
X114152845Y-109002855D01*
X114072207Y-109112116D01*
X114047335Y-109183198D01*
X114010270Y-109231878D01*
X113953891Y-109249500D01*
X113436190Y-109249500D01*
X113377999Y-109230593D01*
X113366186Y-109220504D01*
X112929496Y-108783814D01*
X112901719Y-108729297D01*
X112900500Y-108713810D01*
X112900500Y-103711084D01*
X112902968Y-103703486D01*
X112901719Y-103695597D01*
X112912242Y-103674942D01*
X112919407Y-103652893D01*
X112929491Y-103641086D01*
X113039287Y-103531289D01*
X113093802Y-103503513D01*
X113154229Y-103513083D01*
X113167555Y-103519873D01*
X113167560Y-103519874D01*
X113167563Y-103519876D01*
X113332293Y-103573401D01*
X113332297Y-103573402D01*
X113503386Y-103600500D01*
X113503389Y-103600500D01*
X113676614Y-103600500D01*
X113847702Y-103573402D01*
X113847706Y-103573401D01*
X114012438Y-103519876D01*
X114012440Y-103519874D01*
X114012445Y-103519873D01*
X114166788Y-103441232D01*
X114306928Y-103339414D01*
X114429414Y-103216928D01*
X114531232Y-103076788D01*
X114609873Y-102922445D01*
X114609874Y-102922440D01*
X114609876Y-102922438D01*
X114663401Y-102757706D01*
X114663402Y-102757702D01*
X114690500Y-102586614D01*
X114690500Y-102413384D01*
X114690499Y-102413378D01*
X114663402Y-102242297D01*
X114663401Y-102242293D01*
X114609876Y-102077561D01*
X114609874Y-102077558D01*
X114609873Y-102077557D01*
X114609873Y-102077555D01*
X114531232Y-101923212D01*
X114429414Y-101783072D01*
X114306928Y-101660586D01*
X114166788Y-101558768D01*
X114166787Y-101558767D01*
X114166785Y-101558766D01*
X114012441Y-101480125D01*
X114012438Y-101480123D01*
X113847706Y-101426598D01*
X113847702Y-101426597D01*
X113676614Y-101399500D01*
X113676611Y-101399500D01*
X113503389Y-101399500D01*
X113503386Y-101399500D01*
X113332297Y-101426597D01*
X113332293Y-101426598D01*
X113167561Y-101480123D01*
X113167558Y-101480125D01*
X113013214Y-101558766D01*
X112873073Y-101660585D01*
X112750585Y-101783073D01*
X112648766Y-101923214D01*
X112570125Y-102077558D01*
X112570123Y-102077561D01*
X112516598Y-102242293D01*
X112516597Y-102242297D01*
X112489501Y-102413378D01*
X112489500Y-102413384D01*
X112489500Y-102586614D01*
X112516597Y-102757702D01*
X112516598Y-102757706D01*
X112570124Y-102922440D01*
X112570187Y-102922591D01*
X112570191Y-102922645D01*
X112571328Y-102926144D01*
X112570488Y-102926416D01*
X112574991Y-102983588D01*
X112548730Y-103030483D01*
X112430828Y-103148386D01*
X112319504Y-103259710D01*
X112264987Y-103287487D01*
X112204555Y-103277916D01*
X112161290Y-103234651D01*
X112150500Y-103189706D01*
X112150500Y-101625327D01*
X112150498Y-101625315D01*
X112143806Y-101591673D01*
X112135966Y-101552260D01*
X112112026Y-101516430D01*
X112080602Y-101469400D01*
X112080599Y-101469397D01*
X111997742Y-101414035D01*
X111997740Y-101414034D01*
X111997737Y-101414033D01*
X111997736Y-101414033D01*
X111924684Y-101399501D01*
X111924674Y-101399500D01*
X110175326Y-101399500D01*
X110175325Y-101399500D01*
X110175315Y-101399501D01*
X110102263Y-101414033D01*
X110102257Y-101414035D01*
X110019400Y-101469397D01*
X110019397Y-101469400D01*
X109964035Y-101552257D01*
X109964033Y-101552263D01*
X109949501Y-101625315D01*
X109949500Y-101625327D01*
X75155559Y-101625327D01*
X76956485Y-95700001D01*
X116450000Y-95700001D01*
X116450000Y-96194791D01*
X116452908Y-96219874D01*
X116498212Y-96322477D01*
X116577521Y-96401786D01*
X116680126Y-96447090D01*
X116705202Y-96449999D01*
X116849999Y-96449999D01*
X116849999Y-95700001D01*
X117249999Y-95700001D01*
X117249999Y-96449998D01*
X117250000Y-96449999D01*
X117394789Y-96449999D01*
X117394790Y-96449998D01*
X117419873Y-96447090D01*
X117522476Y-96401786D01*
X117601785Y-96322477D01*
X117647089Y-96219872D01*
X117649998Y-96194797D01*
X117649999Y-96194795D01*
X117649999Y-95700001D01*
X117649998Y-95700000D01*
X117250000Y-95700000D01*
X117249999Y-95700001D01*
X116849999Y-95700001D01*
X116849998Y-95700000D01*
X116450001Y-95700000D01*
X116450000Y-95700001D01*
X76956485Y-95700001D01*
X77228447Y-94805202D01*
X116449999Y-94805202D01*
X116449999Y-95299999D01*
X116450000Y-95300000D01*
X116849998Y-95300000D01*
X116849999Y-95299999D01*
X116849999Y-94550001D01*
X117249999Y-94550001D01*
X117249999Y-95299999D01*
X117250000Y-95300000D01*
X117649997Y-95300000D01*
X117649998Y-95299999D01*
X117649998Y-94805210D01*
X117649997Y-94805208D01*
X117647089Y-94780125D01*
X117601785Y-94677522D01*
X117522476Y-94598213D01*
X117419871Y-94552909D01*
X117394796Y-94550000D01*
X117250000Y-94550000D01*
X117249999Y-94550001D01*
X116849999Y-94550001D01*
X116849998Y-94550000D01*
X116705209Y-94550000D01*
X116705206Y-94550001D01*
X116680124Y-94552909D01*
X116577521Y-94598213D01*
X116498212Y-94677522D01*
X116452908Y-94780127D01*
X116449999Y-94805202D01*
X77228447Y-94805202D01*
X88056706Y-59178546D01*
X88091719Y-59128369D01*
X88149538Y-59108354D01*
X88151428Y-59108336D01*
X119284766Y-59108336D01*
X119337329Y-59123442D01*
G37*
%TD.AperFunction*%
%TA.AperFunction,Conductor*%
G36*
X142747324Y-111993335D02*
G01*
X142776436Y-111997169D01*
X142777418Y-111998101D01*
X142778759Y-111998314D01*
X142799528Y-112019083D01*
X142820818Y-112039287D01*
X142821065Y-112040620D01*
X142822024Y-112041579D01*
X142826616Y-112070575D01*
X142831967Y-112099448D01*
X142831119Y-112105883D01*
X142807100Y-112195525D01*
X142807100Y-112288301D01*
X142806253Y-112294734D01*
X142795739Y-112316775D01*
X142788193Y-112340001D01*
X142782787Y-112343928D01*
X142779911Y-112349959D01*
X142778104Y-112351814D01*
X140689530Y-114440388D01*
X140643386Y-114520312D01*
X140619500Y-114609457D01*
X140619500Y-119450500D01*
X140600593Y-119508691D01*
X140551093Y-119544655D01*
X140520500Y-119549500D01*
X140095326Y-119549500D01*
X140095325Y-119549500D01*
X140095315Y-119549501D01*
X140022263Y-119564033D01*
X140022257Y-119564035D01*
X139939400Y-119619397D01*
X139939397Y-119619400D01*
X139884035Y-119702257D01*
X139884033Y-119702263D01*
X139869501Y-119775315D01*
X139869500Y-119775327D01*
X139869500Y-121508336D01*
X139850593Y-121566527D01*
X139801093Y-121602491D01*
X139770500Y-121607336D01*
X134549500Y-121607336D01*
X134491309Y-121588429D01*
X134455345Y-121538929D01*
X134450500Y-121508336D01*
X134450500Y-119775327D01*
X134450498Y-119775315D01*
X134441509Y-119730127D01*
X134435966Y-119702260D01*
X134384562Y-119625327D01*
X134380602Y-119619400D01*
X134380599Y-119619397D01*
X134297742Y-119564035D01*
X134297740Y-119564034D01*
X134297737Y-119564033D01*
X134297736Y-119564033D01*
X134224684Y-119549501D01*
X134224674Y-119549500D01*
X132475326Y-119549500D01*
X132475325Y-119549500D01*
X132475315Y-119549501D01*
X132402263Y-119564033D01*
X132402257Y-119564035D01*
X132319400Y-119619397D01*
X132319397Y-119619400D01*
X132264035Y-119702257D01*
X132264033Y-119702263D01*
X132249501Y-119775315D01*
X132249500Y-119775327D01*
X132249500Y-121508336D01*
X132230593Y-121566527D01*
X132181093Y-121602491D01*
X132150500Y-121607336D01*
X126979000Y-121607336D01*
X126920809Y-121588429D01*
X126884845Y-121538929D01*
X126880000Y-121508336D01*
X126880000Y-120850001D01*
X126879999Y-120850000D01*
X126191880Y-120850000D01*
X126195925Y-120842993D01*
X126230000Y-120715826D01*
X126230000Y-120584174D01*
X126195925Y-120457007D01*
X126191880Y-120450000D01*
X126879998Y-120450000D01*
X126879999Y-120449999D01*
X126879999Y-119755210D01*
X126879998Y-119755208D01*
X126877090Y-119730125D01*
X126831786Y-119627522D01*
X126752477Y-119548213D01*
X126649872Y-119502909D01*
X126624797Y-119500000D01*
X125930001Y-119500000D01*
X125930000Y-119500001D01*
X125930000Y-120188120D01*
X125922993Y-120184075D01*
X125795826Y-120150000D01*
X125664174Y-120150000D01*
X125537007Y-120184075D01*
X125530000Y-120188120D01*
X125530000Y-119500001D01*
X125529999Y-119500000D01*
X124835210Y-119500000D01*
X124835207Y-119500001D01*
X124810125Y-119502909D01*
X124707522Y-119548213D01*
X124628213Y-119627522D01*
X124582909Y-119730127D01*
X124580000Y-119755202D01*
X124580000Y-120449999D01*
X124580001Y-120450000D01*
X125268120Y-120450000D01*
X125264075Y-120457007D01*
X125230000Y-120584174D01*
X125230000Y-120715826D01*
X125264075Y-120842993D01*
X125268120Y-120850000D01*
X124580002Y-120850000D01*
X124580001Y-120850001D01*
X124580001Y-121508336D01*
X124561094Y-121566527D01*
X124511594Y-121602491D01*
X124481001Y-121607336D01*
X119309500Y-121607336D01*
X119251309Y-121588429D01*
X119215345Y-121538929D01*
X119210500Y-121508336D01*
X119210500Y-119775327D01*
X119210499Y-119775323D01*
X119210497Y-119775315D01*
X119195966Y-119702260D01*
X119144562Y-119625327D01*
X119140602Y-119619400D01*
X119140599Y-119619397D01*
X119057742Y-119564035D01*
X119057740Y-119564034D01*
X119057737Y-119564033D01*
X119057736Y-119564033D01*
X118984684Y-119549501D01*
X118984674Y-119549500D01*
X118984673Y-119549500D01*
X118559500Y-119549500D01*
X118501309Y-119530593D01*
X118465345Y-119481093D01*
X118460500Y-119450500D01*
X118460500Y-116264189D01*
X118479407Y-116205998D01*
X118489496Y-116194185D01*
X120562985Y-114120696D01*
X120617502Y-114092919D01*
X120632989Y-114091700D01*
X140489592Y-114091700D01*
X140489594Y-114091700D01*
X140578738Y-114067814D01*
X140658662Y-114021670D01*
X142663814Y-112016517D01*
X142689967Y-112003192D01*
X142715775Y-111989181D01*
X142717119Y-111989358D01*
X142718327Y-111988743D01*
X142747324Y-111993335D01*
G37*
%TD.AperFunction*%
%TA.AperFunction,Conductor*%
G36*
X171577003Y-96819407D02*
G01*
X171612967Y-96868907D01*
X171614439Y-96873876D01*
X171637282Y-96959126D01*
X171662801Y-97020735D01*
X171662803Y-97020739D01*
X171662805Y-97020743D01*
X171728631Y-97134757D01*
X171728633Y-97134760D01*
X171769229Y-97187666D01*
X171769231Y-97187668D01*
X171769235Y-97187673D01*
X171862327Y-97280765D01*
X171862331Y-97280768D01*
X171862333Y-97280770D01*
X171862754Y-97281093D01*
X171915243Y-97321369D01*
X172029257Y-97387195D01*
X172029263Y-97387197D01*
X172029264Y-97387198D01*
X172090874Y-97412718D01*
X172090875Y-97412718D01*
X172090877Y-97412719D01*
X172218044Y-97446794D01*
X172284174Y-97455500D01*
X172284175Y-97455500D01*
X172849999Y-97455500D01*
X172850000Y-97455500D01*
X172947776Y-97436051D01*
X172947782Y-97436046D01*
X172956788Y-97432318D01*
X172957627Y-97434346D01*
X173003879Y-97421298D01*
X173042569Y-97433869D01*
X173043212Y-97432318D01*
X173052219Y-97436047D01*
X173052224Y-97436051D01*
X173150000Y-97455500D01*
X173200500Y-97455500D01*
X173258691Y-97474407D01*
X173294655Y-97523907D01*
X173299500Y-97554500D01*
X173299500Y-98095500D01*
X173280593Y-98153691D01*
X173231093Y-98189655D01*
X173200500Y-98194500D01*
X173149999Y-98194500D01*
X173125720Y-98199329D01*
X173052224Y-98213949D01*
X173052222Y-98213949D01*
X173052222Y-98213950D01*
X173052220Y-98213951D01*
X172969336Y-98269332D01*
X172969332Y-98269336D01*
X172913951Y-98352220D01*
X172913950Y-98352222D01*
X172913949Y-98352224D01*
X172899329Y-98425720D01*
X172898359Y-98430602D01*
X172894500Y-98450000D01*
X172894500Y-99950000D01*
X172913949Y-100047776D01*
X172969334Y-100130666D01*
X173052224Y-100186051D01*
X173150000Y-100205500D01*
X173150500Y-100205500D01*
X173150716Y-100205570D01*
X173154836Y-100205976D01*
X173154747Y-100206879D01*
X173208691Y-100224407D01*
X173244655Y-100273907D01*
X173249500Y-100304500D01*
X173249500Y-100854943D01*
X173230593Y-100913134D01*
X173181093Y-100949098D01*
X173171328Y-100951727D01*
X173161030Y-100953943D01*
X173141217Y-100953943D01*
X173043441Y-100973392D01*
X173030513Y-100982029D01*
X173012045Y-100986004D01*
X172999477Y-100984715D01*
X172987317Y-100988143D01*
X172966293Y-100981312D01*
X172951178Y-100979762D01*
X172948061Y-100976969D01*
X172947998Y-100977122D01*
X172938993Y-100973391D01*
X172841219Y-100953943D01*
X172841217Y-100953943D01*
X172275391Y-100953943D01*
X172275389Y-100953943D01*
X172209268Y-100962648D01*
X172209263Y-100962648D01*
X172082091Y-100996724D01*
X172020481Y-101022244D01*
X171906456Y-101088076D01*
X171853550Y-101128672D01*
X171760446Y-101221776D01*
X171719850Y-101274682D01*
X171654018Y-101388707D01*
X171628499Y-101450316D01*
X171628499Y-101450317D01*
X171628498Y-101450320D01*
X171613976Y-101504518D01*
X171605656Y-101535567D01*
X171572331Y-101586881D01*
X171515210Y-101608807D01*
X171510029Y-101608943D01*
X167244413Y-101608943D01*
X167155269Y-101632829D01*
X167155268Y-101632829D01*
X167155266Y-101632830D01*
X167075347Y-101678972D01*
X162633814Y-106120504D01*
X162579297Y-106148281D01*
X162563810Y-106149500D01*
X157978184Y-106149500D01*
X157919993Y-106130593D01*
X157884029Y-106081093D01*
X157884029Y-106019907D01*
X157919993Y-105970407D01*
X157941865Y-105958402D01*
X158059729Y-105911922D01*
X158174717Y-105824723D01*
X158174723Y-105824717D01*
X158261922Y-105709729D01*
X158314867Y-105575468D01*
X158324999Y-105491104D01*
X158325000Y-105491100D01*
X158325000Y-105400001D01*
X158324999Y-105400000D01*
X157674000Y-105400000D01*
X157615809Y-105381093D01*
X157579845Y-105331593D01*
X157575000Y-105301000D01*
X157575000Y-105200001D01*
X157574999Y-105200000D01*
X157474000Y-105200000D01*
X157415809Y-105181093D01*
X157379845Y-105131593D01*
X157375000Y-105101000D01*
X157375000Y-104425001D01*
X157775000Y-104425001D01*
X157775000Y-104999999D01*
X157775001Y-105000000D01*
X158324999Y-105000000D01*
X158325000Y-104999999D01*
X158325000Y-104908899D01*
X158324999Y-104908895D01*
X158314867Y-104824531D01*
X158261922Y-104690270D01*
X158174723Y-104575282D01*
X158174717Y-104575276D01*
X158059729Y-104488077D01*
X157925468Y-104435132D01*
X157841104Y-104425000D01*
X157775001Y-104425000D01*
X157775000Y-104425001D01*
X157375000Y-104425001D01*
X157374999Y-104425000D01*
X157308895Y-104425000D01*
X157224531Y-104435132D01*
X157090270Y-104488077D01*
X156975282Y-104575276D01*
X156975276Y-104575282D01*
X156888077Y-104690271D01*
X156888076Y-104690273D01*
X156865854Y-104746623D01*
X156826917Y-104793820D01*
X156767675Y-104809116D01*
X156710755Y-104786669D01*
X156681000Y-104744901D01*
X156671628Y-104719774D01*
X156589687Y-104610313D01*
X156536519Y-104570512D01*
X156480228Y-104528373D01*
X156480226Y-104528372D01*
X156352114Y-104480588D01*
X156352113Y-104480587D01*
X156313895Y-104476479D01*
X156295485Y-104474500D01*
X156295481Y-104474500D01*
X155754521Y-104474500D01*
X155754515Y-104474501D01*
X155697888Y-104480587D01*
X155697886Y-104480588D01*
X155569774Y-104528372D01*
X155569773Y-104528372D01*
X155569772Y-104528373D01*
X155460315Y-104610311D01*
X155460311Y-104610315D01*
X155378373Y-104719771D01*
X155330587Y-104847887D01*
X155324500Y-104904518D01*
X155324500Y-104975502D01*
X155305593Y-105033693D01*
X155256093Y-105069657D01*
X155225500Y-105074502D01*
X149809350Y-105074502D01*
X149751159Y-105055595D01*
X149715195Y-105006095D01*
X149710783Y-104978237D01*
X149710349Y-104977803D01*
X147700652Y-104977803D01*
X147700651Y-104977804D01*
X147700651Y-105022594D01*
X147703559Y-105047677D01*
X147750450Y-105153874D01*
X147756983Y-105213175D01*
X147750150Y-105247524D01*
X147750150Y-105652476D01*
X147750151Y-105652488D01*
X147764683Y-105725540D01*
X147764684Y-105725544D01*
X147764685Y-105725546D01*
X147768417Y-105734556D01*
X147765433Y-105735791D01*
X147777589Y-105778886D01*
X147766034Y-105814467D01*
X147768416Y-105815454D01*
X147764683Y-105824466D01*
X147750151Y-105897518D01*
X147750150Y-105897530D01*
X147750150Y-106302475D01*
X147750151Y-106302487D01*
X147764368Y-106373956D01*
X147764684Y-106375543D01*
X147764685Y-106375545D01*
X147768416Y-106384552D01*
X147765434Y-106385786D01*
X147777589Y-106428895D01*
X147766034Y-106464476D01*
X147768413Y-106465462D01*
X147764683Y-106474464D01*
X147750150Y-106547527D01*
X147750150Y-106950503D01*
X147731243Y-107008694D01*
X147681743Y-107044658D01*
X147651150Y-107049503D01*
X147462439Y-107049503D01*
X147444751Y-107054242D01*
X147373399Y-107073360D01*
X147373296Y-107073388D01*
X147373290Y-107073391D01*
X147293375Y-107119530D01*
X147293370Y-107119534D01*
X146824438Y-107588465D01*
X146783888Y-107658701D01*
X146778298Y-107668382D01*
X146778296Y-107668387D01*
X146778295Y-107668389D01*
X146754409Y-107757533D01*
X146754409Y-119211053D01*
X146778295Y-119300197D01*
X146824439Y-119380121D01*
X147460505Y-120016187D01*
X147488281Y-120070702D01*
X147489500Y-120086189D01*
X147489500Y-121508336D01*
X147470593Y-121566527D01*
X147421093Y-121602491D01*
X147390500Y-121607336D01*
X142169500Y-121607336D01*
X142111309Y-121588429D01*
X142075345Y-121538929D01*
X142070500Y-121508336D01*
X142070500Y-119775327D01*
X142070498Y-119775315D01*
X142061509Y-119730127D01*
X142055966Y-119702260D01*
X142004562Y-119625327D01*
X142000602Y-119619400D01*
X142000599Y-119619397D01*
X141917742Y-119564035D01*
X141917740Y-119564034D01*
X141917737Y-119564033D01*
X141917736Y-119564033D01*
X141844684Y-119549501D01*
X141844674Y-119549500D01*
X141844673Y-119549500D01*
X141419500Y-119549500D01*
X141361309Y-119530593D01*
X141325345Y-119481093D01*
X141320500Y-119450500D01*
X141320500Y-114841789D01*
X141339407Y-114783598D01*
X141349496Y-114771785D01*
X143273785Y-112847496D01*
X143328302Y-112819719D01*
X143343789Y-112818500D01*
X143430074Y-112818500D01*
X143430075Y-112818500D01*
X143570085Y-112780984D01*
X143570087Y-112780982D01*
X143570089Y-112780982D01*
X143695610Y-112708512D01*
X143695610Y-112708511D01*
X143695615Y-112708509D01*
X143798109Y-112606015D01*
X143821651Y-112565239D01*
X143870582Y-112480489D01*
X143870582Y-112480487D01*
X143870584Y-112480485D01*
X143908100Y-112340475D01*
X143908100Y-112195525D01*
X143870584Y-112055515D01*
X143870582Y-112055512D01*
X143870582Y-112055510D01*
X143798112Y-111929989D01*
X143798110Y-111929987D01*
X143798109Y-111929985D01*
X143695615Y-111827491D01*
X143695612Y-111827489D01*
X143695610Y-111827487D01*
X143570088Y-111755017D01*
X143570089Y-111755017D01*
X143501498Y-111736638D01*
X143430075Y-111717500D01*
X143285125Y-111717500D01*
X143247508Y-111727579D01*
X143201747Y-111739841D01*
X143140645Y-111736638D01*
X143093095Y-111698133D01*
X143077260Y-111639032D01*
X143099187Y-111581911D01*
X143106101Y-111574230D01*
X146380470Y-108299862D01*
X146426614Y-108219938D01*
X146450500Y-108130793D01*
X146450500Y-108038506D01*
X146450500Y-105769031D01*
X146469407Y-105710840D01*
X146479490Y-105699033D01*
X146540509Y-105638015D01*
X146612984Y-105512485D01*
X146650500Y-105372475D01*
X146650500Y-105286190D01*
X146669407Y-105227999D01*
X146679496Y-105216186D01*
X147366182Y-104529500D01*
X147373299Y-104525873D01*
X147377995Y-104519411D01*
X147400043Y-104512247D01*
X147420699Y-104501723D01*
X147436186Y-104500504D01*
X147601650Y-104500504D01*
X147659841Y-104519411D01*
X147695805Y-104568911D01*
X147700650Y-104599504D01*
X147700650Y-104622202D01*
X147700651Y-104622203D01*
X149710348Y-104622203D01*
X149710349Y-104622202D01*
X149710349Y-104599504D01*
X149729256Y-104541313D01*
X149778756Y-104505349D01*
X149809349Y-104500504D01*
X150221138Y-104500504D01*
X150221140Y-104500504D01*
X150310284Y-104476618D01*
X150320218Y-104470882D01*
X150325184Y-104468016D01*
X150353592Y-104451614D01*
X150390208Y-104430474D01*
X151245680Y-103575001D01*
X151725000Y-103575001D01*
X151725000Y-103641104D01*
X151735132Y-103725468D01*
X151788077Y-103859729D01*
X151875276Y-103974717D01*
X151875282Y-103974723D01*
X151990270Y-104061922D01*
X152124531Y-104114867D01*
X152208895Y-104124999D01*
X152208900Y-104125000D01*
X152299999Y-104125000D01*
X152300000Y-104124999D01*
X152300000Y-103575001D01*
X152700000Y-103575001D01*
X152700000Y-104124999D01*
X152700001Y-104125000D01*
X152791100Y-104125000D01*
X152791104Y-104124999D01*
X152875468Y-104114867D01*
X153009729Y-104061922D01*
X153124717Y-103974723D01*
X153124723Y-103974717D01*
X153211922Y-103859729D01*
X153264867Y-103725468D01*
X153274999Y-103641104D01*
X153275000Y-103641100D01*
X153275000Y-103575001D01*
X153274999Y-103575000D01*
X152700001Y-103575000D01*
X152700000Y-103575001D01*
X152300000Y-103575001D01*
X152299999Y-103575000D01*
X151725001Y-103575000D01*
X151725000Y-103575001D01*
X151245680Y-103575001D01*
X151616686Y-103203994D01*
X151671201Y-103176219D01*
X151686688Y-103175000D01*
X153274999Y-103175000D01*
X153275000Y-103174999D01*
X153275000Y-103108899D01*
X153274999Y-103108895D01*
X153264867Y-103024531D01*
X153211922Y-102890270D01*
X153124723Y-102775282D01*
X153124717Y-102775276D01*
X153009728Y-102688077D01*
X153009724Y-102688074D01*
X152953377Y-102665854D01*
X152906180Y-102626917D01*
X152890883Y-102567675D01*
X152913329Y-102510756D01*
X152955098Y-102481000D01*
X152980226Y-102471628D01*
X153089687Y-102389687D01*
X153171628Y-102280226D01*
X153185775Y-102242297D01*
X153186668Y-102239903D01*
X153224719Y-102191989D01*
X153279426Y-102175500D01*
X164221142Y-102175500D01*
X164221144Y-102175500D01*
X164310288Y-102151614D01*
X164322597Y-102144506D01*
X164322600Y-102144506D01*
X164340716Y-102134046D01*
X164390212Y-102105470D01*
X169666186Y-96829496D01*
X169720703Y-96801719D01*
X169736190Y-96800500D01*
X171518812Y-96800500D01*
X171577003Y-96819407D01*
G37*
%TD.AperFunction*%
%TA.AperFunction,Conductor*%
G36*
X171577003Y-113619407D02*
G01*
X171612967Y-113668907D01*
X171614435Y-113673864D01*
X171637281Y-113759123D01*
X171637282Y-113759126D01*
X171662801Y-113820735D01*
X171662803Y-113820739D01*
X171662805Y-113820743D01*
X171707296Y-113897803D01*
X171728633Y-113934760D01*
X171769229Y-113987666D01*
X171769231Y-113987668D01*
X171769235Y-113987673D01*
X171862327Y-114080765D01*
X171862331Y-114080768D01*
X171862333Y-114080770D01*
X171878166Y-114092919D01*
X171915243Y-114121369D01*
X172029257Y-114187195D01*
X172029263Y-114187197D01*
X172029264Y-114187198D01*
X172090874Y-114212718D01*
X172090875Y-114212718D01*
X172090877Y-114212719D01*
X172218044Y-114246794D01*
X172284174Y-114255500D01*
X172284175Y-114255500D01*
X172849999Y-114255500D01*
X172850000Y-114255500D01*
X172947776Y-114236051D01*
X172947782Y-114236046D01*
X172956788Y-114232318D01*
X172957627Y-114234346D01*
X173003879Y-114221298D01*
X173042569Y-114233869D01*
X173043212Y-114232318D01*
X173052219Y-114236047D01*
X173052224Y-114236051D01*
X173150000Y-114255500D01*
X173200500Y-114255500D01*
X173258691Y-114274407D01*
X173294655Y-114323907D01*
X173299500Y-114354500D01*
X173299500Y-115395500D01*
X173280593Y-115453691D01*
X173231093Y-115489655D01*
X173200500Y-115494500D01*
X173149997Y-115494500D01*
X173052223Y-115513948D01*
X173043219Y-115517679D01*
X173042380Y-115515654D01*
X172996100Y-115528700D01*
X172957421Y-115516132D01*
X172956781Y-115517679D01*
X172947776Y-115513948D01*
X172850002Y-115494500D01*
X172850000Y-115494500D01*
X172284174Y-115494500D01*
X172284172Y-115494500D01*
X172218051Y-115503205D01*
X172218046Y-115503205D01*
X172090874Y-115537281D01*
X172029264Y-115562801D01*
X171915239Y-115628633D01*
X171862333Y-115669229D01*
X171769229Y-115762333D01*
X171728633Y-115815239D01*
X171662801Y-115929264D01*
X171637282Y-115990873D01*
X171637282Y-115990874D01*
X171637281Y-115990877D01*
X171626301Y-116031856D01*
X171614439Y-116076124D01*
X171581114Y-116127438D01*
X171523993Y-116149364D01*
X171518812Y-116149500D01*
X160313856Y-116149500D01*
X160224712Y-116173386D01*
X160224711Y-116173386D01*
X160224709Y-116173387D01*
X160144790Y-116219529D01*
X156843814Y-119520504D01*
X156789297Y-119548281D01*
X156773810Y-119549500D01*
X155335326Y-119549500D01*
X155335325Y-119549500D01*
X155335315Y-119549501D01*
X155262263Y-119564033D01*
X155262257Y-119564035D01*
X155179400Y-119619397D01*
X155179397Y-119619400D01*
X155124035Y-119702257D01*
X155124033Y-119702263D01*
X155109501Y-119775315D01*
X155109500Y-119775327D01*
X155109500Y-121508336D01*
X155090593Y-121566527D01*
X155041093Y-121602491D01*
X155010500Y-121607336D01*
X149789500Y-121607336D01*
X149731309Y-121588429D01*
X149695345Y-121538929D01*
X149690500Y-121508336D01*
X149690500Y-120086189D01*
X149709407Y-120027998D01*
X149719496Y-120016185D01*
X156106185Y-113629496D01*
X156160702Y-113601719D01*
X156176189Y-113600500D01*
X171518812Y-113600500D01*
X171577003Y-113619407D01*
G37*
%TD.AperFunction*%
%TA.AperFunction,Conductor*%
G36*
X171577003Y-116869407D02*
G01*
X171612967Y-116918907D01*
X171614439Y-116923876D01*
X171637282Y-117009126D01*
X171662801Y-117070735D01*
X171662803Y-117070739D01*
X171662805Y-117070743D01*
X171728631Y-117184757D01*
X171728633Y-117184760D01*
X171769229Y-117237666D01*
X171769231Y-117237668D01*
X171769235Y-117237673D01*
X171862327Y-117330765D01*
X171862331Y-117330768D01*
X171862333Y-117330770D01*
X171915236Y-117371364D01*
X171915243Y-117371369D01*
X172029257Y-117437195D01*
X172029263Y-117437197D01*
X172029264Y-117437198D01*
X172090874Y-117462718D01*
X172090875Y-117462718D01*
X172090877Y-117462719D01*
X172218044Y-117496794D01*
X172284174Y-117505500D01*
X172284175Y-117505500D01*
X172849999Y-117505500D01*
X172850000Y-117505500D01*
X172947776Y-117486051D01*
X172947782Y-117486046D01*
X172956788Y-117482318D01*
X172957627Y-117484346D01*
X173003879Y-117471298D01*
X173042569Y-117483869D01*
X173043212Y-117482318D01*
X173052219Y-117486047D01*
X173052224Y-117486051D01*
X173150000Y-117505500D01*
X173200500Y-117505500D01*
X173258691Y-117524407D01*
X173294655Y-117573907D01*
X173299500Y-117604500D01*
X173299500Y-118645500D01*
X173280593Y-118703691D01*
X173231093Y-118739655D01*
X173200500Y-118744500D01*
X173149997Y-118744500D01*
X173052223Y-118763948D01*
X173043219Y-118767679D01*
X173042380Y-118765654D01*
X172996100Y-118778700D01*
X172957421Y-118766132D01*
X172956781Y-118767679D01*
X172947776Y-118763948D01*
X172850002Y-118744500D01*
X172850000Y-118744500D01*
X172284174Y-118744500D01*
X172284172Y-118744500D01*
X172218051Y-118753205D01*
X172218046Y-118753205D01*
X172090874Y-118787281D01*
X172029264Y-118812801D01*
X171915239Y-118878633D01*
X171862333Y-118919229D01*
X171769229Y-119012333D01*
X171728633Y-119065239D01*
X171662801Y-119179264D01*
X171637281Y-119240874D01*
X171603205Y-119368046D01*
X171603205Y-119368051D01*
X171594500Y-119434172D01*
X171594500Y-119968810D01*
X171575593Y-120027001D01*
X171565504Y-120038814D01*
X171383814Y-120220504D01*
X171329297Y-120248281D01*
X171313810Y-120249500D01*
X165029500Y-120249500D01*
X164971309Y-120230593D01*
X164935345Y-120181093D01*
X164930500Y-120150500D01*
X164930500Y-119775327D01*
X164930498Y-119775315D01*
X164921509Y-119730127D01*
X164915966Y-119702260D01*
X164864562Y-119625327D01*
X164860602Y-119619400D01*
X164860599Y-119619397D01*
X164777742Y-119564035D01*
X164777740Y-119564034D01*
X164777737Y-119564033D01*
X164777736Y-119564033D01*
X164704684Y-119549501D01*
X164704674Y-119549500D01*
X162955326Y-119549500D01*
X162955325Y-119549500D01*
X162955315Y-119549501D01*
X162882263Y-119564033D01*
X162882257Y-119564035D01*
X162799400Y-119619397D01*
X162799397Y-119619400D01*
X162744035Y-119702257D01*
X162744033Y-119702263D01*
X162729501Y-119775315D01*
X162729500Y-119775327D01*
X162729500Y-121508336D01*
X162710593Y-121566527D01*
X162661093Y-121602491D01*
X162630500Y-121607336D01*
X157409500Y-121607336D01*
X157351309Y-121588429D01*
X157315345Y-121538929D01*
X157310500Y-121508336D01*
X157310500Y-120086189D01*
X157329407Y-120027998D01*
X157339496Y-120016185D01*
X160476185Y-116879496D01*
X160530702Y-116851719D01*
X160546189Y-116850500D01*
X171518812Y-116850500D01*
X171577003Y-116869407D01*
G37*
%TD.AperFunction*%
%TA.AperFunction,Conductor*%
G36*
X206450681Y-120105136D02*
G01*
X206494601Y-120119407D01*
X206530565Y-120168907D01*
X206530565Y-120230090D01*
X206530564Y-120230093D01*
X206526597Y-120242300D01*
X206526596Y-120242302D01*
X206499500Y-120413385D01*
X206499500Y-120586614D01*
X206526597Y-120757702D01*
X206526598Y-120757706D01*
X206580123Y-120922438D01*
X206580125Y-120922441D01*
X206615214Y-120991309D01*
X206658768Y-121076788D01*
X206760586Y-121216928D01*
X206883072Y-121339414D01*
X207005335Y-121428244D01*
X207041299Y-121477743D01*
X207041299Y-121538929D01*
X207005335Y-121588429D01*
X206947144Y-121607336D01*
X165029500Y-121607336D01*
X164971309Y-121588429D01*
X164935345Y-121538929D01*
X164930500Y-121508336D01*
X164930500Y-121049500D01*
X164949407Y-120991309D01*
X164998907Y-120955345D01*
X165029500Y-120950500D01*
X171546142Y-120950500D01*
X171546144Y-120950500D01*
X171635288Y-120926614D01*
X171639459Y-120924205D01*
X171642513Y-120922443D01*
X171659690Y-120912525D01*
X171715212Y-120880470D01*
X171898977Y-120696703D01*
X171953491Y-120668927D01*
X172013924Y-120678498D01*
X172018449Y-120680955D01*
X172029257Y-120687195D01*
X172029259Y-120687196D01*
X172029263Y-120687198D01*
X172090874Y-120712718D01*
X172090875Y-120712718D01*
X172090877Y-120712719D01*
X172218044Y-120746794D01*
X172284174Y-120755500D01*
X172284175Y-120755500D01*
X172849999Y-120755500D01*
X172850000Y-120755500D01*
X172947776Y-120736051D01*
X172947782Y-120736046D01*
X172956788Y-120732318D01*
X172957627Y-120734346D01*
X173003879Y-120721298D01*
X173042569Y-120733869D01*
X173043212Y-120732318D01*
X173052219Y-120736047D01*
X173052224Y-120736051D01*
X173150000Y-120755500D01*
X173150001Y-120755500D01*
X173715825Y-120755500D01*
X173715826Y-120755500D01*
X173781956Y-120746794D01*
X173909123Y-120712719D01*
X173970743Y-120687195D01*
X174084757Y-120621369D01*
X174137673Y-120580765D01*
X174230765Y-120487673D01*
X174271369Y-120434757D01*
X174337195Y-120320743D01*
X174362719Y-120259123D01*
X174385561Y-120173875D01*
X174418886Y-120122562D01*
X174476007Y-120100636D01*
X174481188Y-120100500D01*
X206436411Y-120100500D01*
X206450681Y-120105136D01*
G37*
%TD.AperFunction*%
%TA.AperFunction,Conductor*%
G36*
X171577003Y-105169407D02*
G01*
X171612967Y-105218907D01*
X171614435Y-105223864D01*
X171635125Y-105301076D01*
X171637282Y-105309126D01*
X171662801Y-105370735D01*
X171662803Y-105370739D01*
X171662805Y-105370743D01*
X171715484Y-105461985D01*
X171728633Y-105484760D01*
X171769229Y-105537666D01*
X171769231Y-105537668D01*
X171769235Y-105537673D01*
X171862327Y-105630765D01*
X171862331Y-105630768D01*
X171862333Y-105630770D01*
X171871770Y-105638011D01*
X171915243Y-105671369D01*
X172029257Y-105737195D01*
X172029263Y-105737197D01*
X172029264Y-105737198D01*
X172090874Y-105762718D01*
X172090875Y-105762718D01*
X172090877Y-105762719D01*
X172218044Y-105796794D01*
X172284174Y-105805500D01*
X172284175Y-105805500D01*
X172849999Y-105805500D01*
X172850000Y-105805500D01*
X172947776Y-105786051D01*
X172947782Y-105786046D01*
X172956788Y-105782318D01*
X172957627Y-105784346D01*
X173003879Y-105771298D01*
X173042569Y-105783869D01*
X173043212Y-105782318D01*
X173052219Y-105786047D01*
X173052224Y-105786051D01*
X173150000Y-105805500D01*
X173150001Y-105805500D01*
X173715825Y-105805500D01*
X173715826Y-105805500D01*
X173781956Y-105796794D01*
X173909123Y-105762719D01*
X173970743Y-105737195D01*
X173981517Y-105730974D01*
X174041363Y-105718251D01*
X174097259Y-105743135D01*
X174101023Y-105746705D01*
X183134788Y-114780470D01*
X183214712Y-114826614D01*
X183303856Y-114850500D01*
X183303857Y-114850500D01*
X183396144Y-114850500D01*
X203953810Y-114850500D01*
X204012001Y-114869407D01*
X204023814Y-114879496D01*
X206564332Y-117420014D01*
X209103610Y-119959291D01*
X209131387Y-120013808D01*
X209121816Y-120074239D01*
X209120127Y-120077552D01*
X209120123Y-120077561D01*
X209066598Y-120242293D01*
X209066597Y-120242297D01*
X209039500Y-120413385D01*
X209039500Y-120586614D01*
X209066597Y-120757702D01*
X209066598Y-120757706D01*
X209120123Y-120922438D01*
X209120125Y-120922441D01*
X209155214Y-120991309D01*
X209198768Y-121076788D01*
X209300586Y-121216928D01*
X209423072Y-121339414D01*
X209545335Y-121428244D01*
X209581299Y-121477743D01*
X209581299Y-121538929D01*
X209545335Y-121588429D01*
X209487144Y-121607336D01*
X208252856Y-121607336D01*
X208194665Y-121588429D01*
X208158701Y-121538929D01*
X208158701Y-121477743D01*
X208194664Y-121428244D01*
X208316928Y-121339414D01*
X208439414Y-121216928D01*
X208541232Y-121076788D01*
X208619873Y-120922445D01*
X208619874Y-120922440D01*
X208619876Y-120922438D01*
X208673401Y-120757706D01*
X208673402Y-120757702D01*
X208700500Y-120586614D01*
X208700500Y-120413385D01*
X208673402Y-120242297D01*
X208673401Y-120242293D01*
X208619876Y-120077561D01*
X208619874Y-120077558D01*
X208619873Y-120077557D01*
X208619873Y-120077555D01*
X208541232Y-119923212D01*
X208439414Y-119783072D01*
X208316928Y-119660586D01*
X208176788Y-119558768D01*
X208176787Y-119558767D01*
X208176785Y-119558766D01*
X208022441Y-119480125D01*
X208022438Y-119480123D01*
X207857706Y-119426598D01*
X207857702Y-119426597D01*
X207686614Y-119399500D01*
X207686611Y-119399500D01*
X207513389Y-119399500D01*
X207513386Y-119399500D01*
X207342297Y-119426597D01*
X207342293Y-119426598D01*
X207177561Y-119480123D01*
X207177547Y-119480129D01*
X207173988Y-119481943D01*
X207113555Y-119491509D01*
X207068789Y-119472275D01*
X207065213Y-119469531D01*
X207065212Y-119469530D01*
X206985288Y-119423386D01*
X206896144Y-119399500D01*
X206896142Y-119399500D01*
X174481188Y-119399500D01*
X174422997Y-119380593D01*
X174387033Y-119331093D01*
X174385561Y-119326124D01*
X174378614Y-119300197D01*
X174362719Y-119240877D01*
X174337195Y-119179257D01*
X174271369Y-119065243D01*
X174258693Y-119048723D01*
X174230770Y-119012333D01*
X174230768Y-119012331D01*
X174230765Y-119012327D01*
X174137673Y-118919235D01*
X174137668Y-118919231D01*
X174137666Y-118919229D01*
X174084757Y-118878631D01*
X174049999Y-118858563D01*
X174009059Y-118813093D01*
X174000500Y-118772827D01*
X174000500Y-117477171D01*
X174019407Y-117418980D01*
X174049997Y-117391437D01*
X174084757Y-117371369D01*
X174137673Y-117330765D01*
X174230765Y-117237673D01*
X174271369Y-117184757D01*
X174337195Y-117070743D01*
X174362719Y-117009123D01*
X174396794Y-116881956D01*
X174405500Y-116815826D01*
X174405500Y-116184174D01*
X174396794Y-116118044D01*
X174362719Y-115990877D01*
X174362717Y-115990873D01*
X174337198Y-115929264D01*
X174337197Y-115929263D01*
X174337195Y-115929257D01*
X174271369Y-115815243D01*
X174230765Y-115762327D01*
X174137673Y-115669235D01*
X174137668Y-115669231D01*
X174137666Y-115669229D01*
X174084757Y-115628631D01*
X174049999Y-115608563D01*
X174009059Y-115563093D01*
X174000500Y-115522827D01*
X174000500Y-114227171D01*
X174019407Y-114168980D01*
X174049997Y-114141437D01*
X174084757Y-114121369D01*
X174137673Y-114080765D01*
X174230765Y-113987673D01*
X174271369Y-113934757D01*
X174337195Y-113820743D01*
X174362719Y-113759123D01*
X174396794Y-113631956D01*
X174405500Y-113565826D01*
X174405500Y-112934174D01*
X174396794Y-112868044D01*
X174362719Y-112740877D01*
X174362717Y-112740873D01*
X174337198Y-112679264D01*
X174337197Y-112679263D01*
X174337195Y-112679257D01*
X174271369Y-112565243D01*
X174230765Y-112512327D01*
X174137673Y-112419235D01*
X174137668Y-112419231D01*
X174137666Y-112419229D01*
X174084757Y-112378631D01*
X174049999Y-112358563D01*
X174009059Y-112313093D01*
X174000500Y-112272827D01*
X174000500Y-110977171D01*
X174019407Y-110918980D01*
X174049997Y-110891437D01*
X174084757Y-110871369D01*
X174137673Y-110830765D01*
X174230765Y-110737673D01*
X174271369Y-110684757D01*
X174337195Y-110570743D01*
X174362719Y-110509123D01*
X174396794Y-110381956D01*
X174405500Y-110315826D01*
X174405500Y-109684174D01*
X174396794Y-109618044D01*
X174362719Y-109490877D01*
X174362717Y-109490873D01*
X174337198Y-109429264D01*
X174337197Y-109429263D01*
X174337195Y-109429257D01*
X174271369Y-109315243D01*
X174259289Y-109299500D01*
X174230770Y-109262333D01*
X174230768Y-109262331D01*
X174230765Y-109262327D01*
X174137673Y-109169235D01*
X174137668Y-109169231D01*
X174137666Y-109169229D01*
X174084760Y-109128633D01*
X174084757Y-109128631D01*
X173970743Y-109062805D01*
X173970739Y-109062803D01*
X173970735Y-109062801D01*
X173909125Y-109037281D01*
X173781953Y-109003205D01*
X173781948Y-109003205D01*
X173779289Y-109002855D01*
X173762918Y-109000699D01*
X173715827Y-108994500D01*
X173715826Y-108994500D01*
X173150000Y-108994500D01*
X173149997Y-108994500D01*
X173052223Y-109013948D01*
X173043219Y-109017679D01*
X173042380Y-109015654D01*
X172996100Y-109028700D01*
X172957421Y-109016132D01*
X172956781Y-109017679D01*
X172947776Y-109013948D01*
X172850002Y-108994500D01*
X172850000Y-108994500D01*
X172284174Y-108994500D01*
X172284172Y-108994500D01*
X172218051Y-109003205D01*
X172218046Y-109003205D01*
X172090874Y-109037281D01*
X172029264Y-109062801D01*
X171915239Y-109128633D01*
X171862333Y-109169229D01*
X171769229Y-109262333D01*
X171728633Y-109315239D01*
X171662801Y-109429264D01*
X171637282Y-109490873D01*
X171637282Y-109490874D01*
X171637281Y-109490877D01*
X171628812Y-109522485D01*
X171614439Y-109576124D01*
X171581114Y-109627438D01*
X171523993Y-109649364D01*
X171518812Y-109649500D01*
X156344395Y-109649500D01*
X156286204Y-109630593D01*
X156250240Y-109581093D01*
X156250240Y-109519907D01*
X156252928Y-109512623D01*
X156252980Y-109512496D01*
X156252982Y-109512488D01*
X156252984Y-109512485D01*
X156290500Y-109372475D01*
X156290500Y-109227525D01*
X156252984Y-109087515D01*
X156252982Y-109087512D01*
X156252982Y-109087510D01*
X156180512Y-108961989D01*
X156180510Y-108961987D01*
X156180509Y-108961985D01*
X156078015Y-108859491D01*
X156078012Y-108859489D01*
X156078010Y-108859487D01*
X155952488Y-108787017D01*
X155952489Y-108787017D01*
X155922896Y-108779087D01*
X155812475Y-108749500D01*
X155667525Y-108749500D01*
X155630205Y-108759500D01*
X155527510Y-108787017D01*
X155401989Y-108859487D01*
X155401984Y-108859491D01*
X155330971Y-108930504D01*
X155276454Y-108958281D01*
X155260968Y-108959500D01*
X152519032Y-108959500D01*
X152460841Y-108940593D01*
X152449029Y-108930504D01*
X152388015Y-108869491D01*
X152388010Y-108869487D01*
X152262488Y-108797017D01*
X152262484Y-108797015D01*
X152220047Y-108785644D01*
X152168733Y-108752320D01*
X152146807Y-108695198D01*
X152162643Y-108636098D01*
X152175662Y-108620019D01*
X153016186Y-107779496D01*
X153070703Y-107751719D01*
X153086190Y-107750500D01*
X164666910Y-107750500D01*
X164666912Y-107750500D01*
X164756056Y-107726614D01*
X164782357Y-107711429D01*
X164835980Y-107680470D01*
X167336953Y-105179495D01*
X167391470Y-105151719D01*
X167406957Y-105150500D01*
X171518812Y-105150500D01*
X171577003Y-105169407D01*
G37*
%TD.AperFunction*%
%TA.AperFunction,Conductor*%
G36*
X147569589Y-108578699D02*
G01*
X147583434Y-108582409D01*
X147653341Y-108582409D01*
X147655531Y-108582506D01*
X147682221Y-108592504D01*
X147709341Y-108601316D01*
X147710686Y-108603167D01*
X147712828Y-108603970D01*
X147728540Y-108627741D01*
X147745305Y-108650816D01*
X147745305Y-108653105D01*
X147746566Y-108655013D01*
X147750150Y-108681409D01*
X147750150Y-108902475D01*
X147750151Y-108902487D01*
X147764683Y-108975539D01*
X147764684Y-108975543D01*
X147764685Y-108975545D01*
X147768416Y-108984552D01*
X147765434Y-108985786D01*
X147777589Y-109028895D01*
X147766034Y-109064476D01*
X147768413Y-109065462D01*
X147764683Y-109074464D01*
X147750150Y-109147527D01*
X147750150Y-109552476D01*
X147750151Y-109552488D01*
X147764683Y-109625540D01*
X147764684Y-109625544D01*
X147764685Y-109625546D01*
X147768416Y-109634553D01*
X147765435Y-109635787D01*
X147777588Y-109678904D01*
X147766033Y-109714466D01*
X147768416Y-109715453D01*
X147764683Y-109724465D01*
X147750151Y-109797517D01*
X147750150Y-109797529D01*
X147750150Y-110202474D01*
X147750151Y-110202486D01*
X147764683Y-110275538D01*
X147764685Y-110275544D01*
X147820047Y-110358401D01*
X147820050Y-110358404D01*
X147855299Y-110381956D01*
X147902910Y-110413768D01*
X147956862Y-110424500D01*
X147975965Y-110428300D01*
X147975970Y-110428300D01*
X147975976Y-110428302D01*
X147975977Y-110428302D01*
X149435023Y-110428302D01*
X149435024Y-110428302D01*
X149508090Y-110413768D01*
X149590951Y-110358403D01*
X149590955Y-110358396D01*
X149594857Y-110354496D01*
X149649374Y-110326719D01*
X149664861Y-110325500D01*
X149875500Y-110325500D01*
X149933691Y-110344407D01*
X149969655Y-110393907D01*
X149974500Y-110424500D01*
X149974500Y-112807168D01*
X149955593Y-112865359D01*
X149945505Y-112877170D01*
X149927492Y-112895183D01*
X149927487Y-112895189D01*
X149855017Y-113020710D01*
X149817500Y-113160725D01*
X149817500Y-113305674D01*
X149855017Y-113445689D01*
X149927487Y-113571210D01*
X149927489Y-113571212D01*
X149927491Y-113571215D01*
X150029985Y-113673709D01*
X150029987Y-113673710D01*
X150029989Y-113673712D01*
X150155511Y-113746182D01*
X150155515Y-113746184D01*
X150163250Y-113748257D01*
X150214564Y-113781581D01*
X150236490Y-113838703D01*
X150220654Y-113897803D01*
X150207630Y-113913887D01*
X148826214Y-115295304D01*
X148771697Y-115323081D01*
X148756210Y-115324300D01*
X148669925Y-115324300D01*
X148608190Y-115340841D01*
X148529910Y-115361817D01*
X148404389Y-115434287D01*
X148301887Y-115536789D01*
X148229417Y-115662310D01*
X148202616Y-115762333D01*
X148191900Y-115802325D01*
X148191900Y-115947275D01*
X148203583Y-115990877D01*
X148229417Y-116087289D01*
X148301887Y-116212810D01*
X148301889Y-116212812D01*
X148301891Y-116212815D01*
X148404385Y-116315309D01*
X148404387Y-116315310D01*
X148404389Y-116315312D01*
X148529911Y-116387782D01*
X148529912Y-116387782D01*
X148529915Y-116387784D01*
X148669925Y-116425300D01*
X148669926Y-116425300D01*
X148814874Y-116425300D01*
X148814875Y-116425300D01*
X148954885Y-116387784D01*
X148954887Y-116387782D01*
X148954889Y-116387782D01*
X149080410Y-116315312D01*
X149080410Y-116315311D01*
X149080415Y-116315309D01*
X149182909Y-116212815D01*
X149193665Y-116194185D01*
X149255382Y-116087289D01*
X149255382Y-116087287D01*
X149255384Y-116087285D01*
X149292900Y-115947275D01*
X149292900Y-115860990D01*
X149311807Y-115802799D01*
X149321896Y-115790986D01*
X154733386Y-110379496D01*
X154787903Y-110351719D01*
X154803390Y-110350500D01*
X171518812Y-110350500D01*
X171577003Y-110369407D01*
X171612967Y-110418907D01*
X171614435Y-110423864D01*
X171635432Y-110502222D01*
X171637282Y-110509126D01*
X171662801Y-110570735D01*
X171662803Y-110570739D01*
X171662805Y-110570743D01*
X171681345Y-110602855D01*
X171728633Y-110684760D01*
X171769229Y-110737666D01*
X171769231Y-110737668D01*
X171769235Y-110737673D01*
X171862327Y-110830765D01*
X171862331Y-110830768D01*
X171862333Y-110830770D01*
X171914116Y-110870504D01*
X171915243Y-110871369D01*
X172029257Y-110937195D01*
X172029263Y-110937197D01*
X172029264Y-110937198D01*
X172090874Y-110962718D01*
X172090875Y-110962718D01*
X172090877Y-110962719D01*
X172218044Y-110996794D01*
X172284174Y-111005500D01*
X172284175Y-111005500D01*
X172849999Y-111005500D01*
X172850000Y-111005500D01*
X172947776Y-110986051D01*
X172947782Y-110986046D01*
X172956788Y-110982318D01*
X172957627Y-110984346D01*
X173003879Y-110971298D01*
X173042569Y-110983869D01*
X173043212Y-110982318D01*
X173052219Y-110986047D01*
X173052224Y-110986051D01*
X173150000Y-111005500D01*
X173200500Y-111005500D01*
X173258691Y-111024407D01*
X173294655Y-111073907D01*
X173299500Y-111104500D01*
X173299500Y-112145500D01*
X173280593Y-112203691D01*
X173231093Y-112239655D01*
X173200500Y-112244500D01*
X173149997Y-112244500D01*
X173052223Y-112263948D01*
X173043219Y-112267679D01*
X173042380Y-112265654D01*
X172996100Y-112278700D01*
X172957421Y-112266132D01*
X172956781Y-112267679D01*
X172947776Y-112263948D01*
X172850002Y-112244500D01*
X172850000Y-112244500D01*
X172284174Y-112244500D01*
X172284172Y-112244500D01*
X172218051Y-112253205D01*
X172218046Y-112253205D01*
X172090874Y-112287281D01*
X172029264Y-112312801D01*
X171915239Y-112378633D01*
X171862333Y-112419229D01*
X171769229Y-112512333D01*
X171728633Y-112565239D01*
X171662801Y-112679264D01*
X171637282Y-112740873D01*
X171614439Y-112826124D01*
X171581114Y-112877438D01*
X171523993Y-112899364D01*
X171518812Y-112899500D01*
X155943856Y-112899500D01*
X155854712Y-112923386D01*
X155854711Y-112923386D01*
X155854709Y-112923387D01*
X155774790Y-112969529D01*
X149223814Y-119520504D01*
X149169297Y-119548281D01*
X149153810Y-119549500D01*
X148026190Y-119549500D01*
X147967999Y-119530593D01*
X147956186Y-119520504D01*
X147484405Y-119048723D01*
X147456628Y-118994206D01*
X147455409Y-118978719D01*
X147455409Y-108677124D01*
X147460912Y-108660186D01*
X147461700Y-108642395D01*
X147470133Y-108631806D01*
X147474316Y-108618933D01*
X147488724Y-108608464D01*
X147499819Y-108594535D01*
X147512863Y-108590926D01*
X147523816Y-108582969D01*
X147543487Y-108582454D01*
X147558790Y-108578221D01*
X147569589Y-108578699D01*
G37*
%TD.AperFunction*%
%TA.AperFunction,Conductor*%
G36*
X171568220Y-102328850D02*
G01*
X171604184Y-102378350D01*
X171605652Y-102383307D01*
X171612668Y-102409489D01*
X171628499Y-102468569D01*
X171654018Y-102530178D01*
X171654020Y-102530182D01*
X171654022Y-102530186D01*
X171709870Y-102626917D01*
X171719850Y-102644203D01*
X171760446Y-102697109D01*
X171760448Y-102697111D01*
X171760452Y-102697116D01*
X171853544Y-102790208D01*
X171853548Y-102790211D01*
X171853550Y-102790213D01*
X171898234Y-102824500D01*
X171906460Y-102830812D01*
X172020474Y-102896638D01*
X172020480Y-102896640D01*
X172020481Y-102896641D01*
X172082091Y-102922161D01*
X172082092Y-102922161D01*
X172082094Y-102922162D01*
X172209261Y-102956237D01*
X172275391Y-102964943D01*
X172275392Y-102964943D01*
X172841216Y-102964943D01*
X172841217Y-102964943D01*
X172938993Y-102945494D01*
X172938999Y-102945489D01*
X172948005Y-102941761D01*
X172948844Y-102943789D01*
X172995096Y-102930741D01*
X173012045Y-102932881D01*
X173030512Y-102936855D01*
X173043441Y-102945494D01*
X173141217Y-102964943D01*
X173161031Y-102964943D01*
X173171328Y-102967159D01*
X173189120Y-102977491D01*
X173208691Y-102983850D01*
X173214982Y-102992509D01*
X173224239Y-102997885D01*
X173232560Y-103016703D01*
X173244655Y-103033350D01*
X173247296Y-103050027D01*
X173248984Y-103053844D01*
X173248359Y-103056743D01*
X173249500Y-103063943D01*
X173249500Y-103695500D01*
X173230593Y-103753691D01*
X173181093Y-103789655D01*
X173154815Y-103793816D01*
X173154836Y-103794024D01*
X173151319Y-103794370D01*
X173150500Y-103794500D01*
X173149997Y-103794500D01*
X173052223Y-103813948D01*
X173043219Y-103817679D01*
X173042380Y-103815654D01*
X172996100Y-103828700D01*
X172957421Y-103816132D01*
X172956781Y-103817679D01*
X172947776Y-103813948D01*
X172850002Y-103794500D01*
X172850000Y-103794500D01*
X172284174Y-103794500D01*
X172284172Y-103794500D01*
X172218051Y-103803205D01*
X172218046Y-103803205D01*
X172090874Y-103837281D01*
X172029264Y-103862801D01*
X171915239Y-103928633D01*
X171862333Y-103969229D01*
X171769229Y-104062333D01*
X171728633Y-104115239D01*
X171662801Y-104229264D01*
X171637282Y-104290873D01*
X171637282Y-104290874D01*
X171637281Y-104290877D01*
X171623453Y-104342485D01*
X171614439Y-104376124D01*
X171581114Y-104427438D01*
X171523993Y-104449364D01*
X171518812Y-104449500D01*
X167174624Y-104449500D01*
X167085480Y-104473386D01*
X167085479Y-104473386D01*
X167085477Y-104473387D01*
X167005558Y-104519529D01*
X164504582Y-107020504D01*
X164450065Y-107048281D01*
X164434578Y-107049500D01*
X152853856Y-107049500D01*
X152773150Y-107071125D01*
X152764712Y-107073386D01*
X152684788Y-107119530D01*
X150763913Y-109040403D01*
X150738841Y-109053177D01*
X150714490Y-109067236D01*
X150711803Y-109066953D01*
X150709396Y-109068180D01*
X150681611Y-109063779D01*
X150653640Y-109060839D01*
X150651632Y-109059031D01*
X150648964Y-109058609D01*
X150608172Y-109019897D01*
X150597697Y-109001753D01*
X150584977Y-108941905D01*
X150609864Y-108886010D01*
X150613411Y-108882270D01*
X152616186Y-106879496D01*
X152670703Y-106851719D01*
X152686190Y-106850500D01*
X162796142Y-106850500D01*
X162796144Y-106850500D01*
X162885288Y-106826614D01*
X162965212Y-106780470D01*
X167406742Y-102338938D01*
X167461259Y-102311162D01*
X167476746Y-102309943D01*
X171510029Y-102309943D01*
X171568220Y-102328850D01*
G37*
%TD.AperFunction*%
%TA.AperFunction,Conductor*%
G36*
X145861568Y-102141811D02*
G01*
X145892756Y-102184739D01*
X145928372Y-102280226D01*
X146010313Y-102389687D01*
X146119774Y-102471628D01*
X146135095Y-102477342D01*
X146183010Y-102515392D01*
X146199500Y-102570101D01*
X146199500Y-103863810D01*
X146180593Y-103922001D01*
X146170504Y-103933814D01*
X145519504Y-104584814D01*
X145464987Y-104612591D01*
X145404555Y-104603020D01*
X145361290Y-104559755D01*
X145350500Y-104514810D01*
X145350500Y-102588750D01*
X145369407Y-102530559D01*
X145414901Y-102495993D01*
X145480226Y-102471628D01*
X145589687Y-102389687D01*
X145671628Y-102280226D01*
X145707243Y-102184739D01*
X145745293Y-102136826D01*
X145804240Y-102120429D01*
X145861568Y-102141811D01*
G37*
%TD.AperFunction*%
%TD*%
M02*
