M48
; DRILL file {KiCad 9.0.2} date 2025-08-03T14:59:47-0400
; FORMAT={-:-/ absolute / metric / decimal}
; #@! TF.CreationDate,2025-08-03T14:59:47-04:00
; #@! TF.GenerationSoftware,Kicad,Pcbnew,9.0.2
; #@! TF.FileFunction,Plated,1,2,PTH
FMAT,2
METRIC
; #@! TA.AperFunction,Plated,PTH,ViaDrill
T1C0.300
; #@! TA.AperFunction,Plated,PTH,ComponentDrill
T2C1.000
%
G90
G05
T1
X111.8Y-106.4
X120.15Y-104.75
X121.2Y-105.8
X123.05Y-111.25
X123.7Y-105.75
X123.7Y-108.8
X133.15Y-103.4
X143.358Y-112.268
X144.0Y-104.875
X144.11Y-104.13
X145.8Y-103.0
X146.1Y-105.3
X147.656Y-108.032
X148.742Y-115.875
X149.0Y-111.9
X150.14Y-109.31
X150.368Y-113.233
X150.37Y-106.74
X150.9Y-106.05
X152.05Y-109.31
X155.74Y-109.3
X159.512Y-105.258
X159.614Y-119.177
X166.5Y-108.5
X169.0Y-103.5
X169.2Y-118.0
X169.5Y-115.25
X169.75Y-112.0
X186.75Y-120.75
X212.1Y-118.2
T2
X111.05Y-102.5
X113.59Y-102.5
X116.13Y-102.5
X118.11Y-120.65
X118.67Y-102.5
X121.21Y-102.5
X123.75Y-102.5
X125.73Y-120.65
X133.35Y-120.65
X140.97Y-120.65
X148.59Y-120.65
X156.21Y-120.65
X163.83Y-120.65
X207.6Y-120.5
X210.14Y-120.5
X212.68Y-120.5
M30
