%TF.GenerationSoftware,KiCad,Pcbnew,9.0.3*%
%TF.CreationDate,2025-09-15T18:31:03-04:00*%
%TF.ProjectId,SGTC_Center,53475443-5f43-4656-9e74-65722e6b6963,rev?*%
%TF.SameCoordinates,Original*%
%TF.FileFunction,Copper,L1,Top*%
%TF.FilePolarity,Positive*%
%FSLAX46Y46*%
G04 Gerber Fmt 4.6, Leading zero omitted, Abs format (unit mm)*
G04 Created by KiCad (PCBNEW 9.0.3) date 2025-09-15 18:31:03*
%MOMM*%
%LPD*%
G01*
G04 APERTURE LIST*
G04 Aperture macros list*
%AMRoundRect*
0 Rectangle with rounded corners*
0 $1 Rounding radius*
0 $2 $3 $4 $5 $6 $7 $8 $9 X,Y pos of 4 corners*
0 Add a 4 corners polygon primitive as box body*
4,1,4,$2,$3,$4,$5,$6,$7,$8,$9,$2,$3,0*
0 Add four circle primitives for the rounded corners*
1,1,$1+$1,$2,$3*
1,1,$1+$1,$4,$5*
1,1,$1+$1,$6,$7*
1,1,$1+$1,$8,$9*
0 Add four rect primitives between the rounded corners*
20,1,$1+$1,$2,$3,$4,$5,0*
20,1,$1+$1,$4,$5,$6,$7,0*
20,1,$1+$1,$6,$7,$8,$9,0*
20,1,$1+$1,$8,$9,$2,$3,0*%
%AMFreePoly0*
4,1,23,0.500000,-0.750000,0.000000,-0.750000,0.000000,-0.745722,-0.065263,-0.745722,-0.191342,-0.711940,-0.304381,-0.646677,-0.396677,-0.554381,-0.461940,-0.441342,-0.495722,-0.315263,-0.495722,-0.250000,-0.500000,-0.250000,-0.500000,0.250000,-0.495722,0.250000,-0.495722,0.315263,-0.461940,0.441342,-0.396677,0.554381,-0.304381,0.646677,-0.191342,0.711940,-0.065263,0.745722,0.000000,0.745722,
0.000000,0.750000,0.500000,0.750000,0.500000,-0.750000,0.500000,-0.750000,$1*%
%AMFreePoly1*
4,1,23,0.000000,0.745722,0.065263,0.745722,0.191342,0.711940,0.304381,0.646677,0.396677,0.554381,0.461940,0.441342,0.495722,0.315263,0.495722,0.250000,0.500000,0.250000,0.500000,-0.250000,0.495722,-0.250000,0.495722,-0.315263,0.461940,-0.441342,0.396677,-0.554381,0.304381,-0.646677,0.191342,-0.711940,0.065263,-0.745722,0.000000,-0.745722,0.000000,-0.750000,-0.500000,-0.750000,
-0.500000,0.750000,0.000000,0.750000,0.000000,0.745722,0.000000,0.745722,$1*%
G04 Aperture macros list end*
%TA.AperFunction,Conductor*%
%ADD10C,0.200000*%
%TD*%
%TA.AperFunction,SMDPad,CuDef*%
%ADD11RoundRect,0.200000X0.200000X0.275000X-0.200000X0.275000X-0.200000X-0.275000X0.200000X-0.275000X0*%
%TD*%
%TA.AperFunction,SMDPad,CuDef*%
%ADD12RoundRect,0.200000X-0.275000X0.200000X-0.275000X-0.200000X0.275000X-0.200000X0.275000X0.200000X0*%
%TD*%
%TA.AperFunction,SMDPad,CuDef*%
%ADD13FreePoly0,180.000000*%
%TD*%
%TA.AperFunction,SMDPad,CuDef*%
%ADD14FreePoly1,180.000000*%
%TD*%
%TA.AperFunction,SMDPad,CuDef*%
%ADD15RoundRect,0.225000X-0.250000X0.225000X-0.250000X-0.225000X0.250000X-0.225000X0.250000X0.225000X0*%
%TD*%
%TA.AperFunction,ComponentPad*%
%ADD16R,1.700000X1.700000*%
%TD*%
%TA.AperFunction,SMDPad,CuDef*%
%ADD17RoundRect,0.225000X-0.225000X-0.250000X0.225000X-0.250000X0.225000X0.250000X-0.225000X0.250000X0*%
%TD*%
%TA.AperFunction,SMDPad,CuDef*%
%ADD18R,1.409700X0.355600*%
%TD*%
%TA.AperFunction,SMDPad,CuDef*%
%ADD19R,0.599999X1.300000*%
%TD*%
%TA.AperFunction,ComponentPad*%
%ADD20C,1.700000*%
%TD*%
%TA.AperFunction,SMDPad,CuDef*%
%ADD21RoundRect,0.200000X-0.200000X-0.275000X0.200000X-0.275000X0.200000X0.275000X-0.200000X0.275000X0*%
%TD*%
%TA.AperFunction,ViaPad*%
%ADD22C,0.600000*%
%TD*%
%TA.AperFunction,Conductor*%
%ADD23C,0.500000*%
%TD*%
G04 APERTURE END LIST*
D10*
%TO.N,GAUGE1_IN_N*%
X82125000Y-127500000D02*
X70940000Y-138475000D01*
%TO.N,+3.3V*%
X86920000Y-138550000D02*
X78675000Y-138550000D01*
%TD*%
D11*
%TO.P,R8,2*%
%TO.N,GAUGE2_IN_P*%
X155675000Y-134250000D03*
%TO.P,R8,1*%
%TO.N,+3.3V*%
X157325000Y-134250000D03*
%TD*%
%TO.P,R2,1*%
%TO.N,+3.3V*%
X84075000Y-133250000D03*
%TO.P,R2,2*%
%TO.N,GAUGE1_IN_P*%
X82425000Y-133250000D03*
%TD*%
D12*
%TO.P,R9,2*%
%TO.N,GAUGE2_IN_N*%
X150500000Y-136825000D03*
%TO.P,R9,1*%
%TO.N,GND*%
X150500000Y-135175000D03*
%TD*%
D13*
%TO.P,JP8,1,A*%
%TO.N,Net-(J8-Pin_3)*%
X142460000Y-127900000D03*
D14*
%TO.P,JP8,2,B*%
%TO.N,SPICLK*%
X141160000Y-127900000D03*
%TD*%
D15*
%TO.P,C4,1*%
%TO.N,Net-(U1-AIN2P)*%
X98310000Y-127525000D03*
%TO.P,C4,2*%
%TO.N,Net-(U1-AIN2N)*%
X98310000Y-129075000D03*
%TD*%
D13*
%TO.P,JP3,1,A*%
%TO.N,Net-(J8-Pin_2)*%
X142460000Y-114350000D03*
D14*
%TO.P,JP3,2,B*%
%TO.N,+3.3V*%
X141160000Y-114350000D03*
%TD*%
D13*
%TO.P,JP1,1,A*%
%TO.N,Net-(J8-Pin_2)*%
X142460000Y-122700000D03*
D14*
%TO.P,JP1,2,B*%
%TO.N,~{SYNC}{slash}~{RST}*%
X141160000Y-122700000D03*
%TD*%
D11*
%TO.P,R5,1*%
%TO.N,Net-(U1-AIN1P)*%
X85135000Y-129100000D03*
%TO.P,R5,2*%
%TO.N,GAUGE1_IN_P*%
X83485000Y-129100000D03*
%TD*%
D15*
%TO.P,C2,1*%
%TO.N,Net-(U1-AIN1N)*%
X86810000Y-127525000D03*
%TO.P,C2,2*%
%TO.N,Net-(U1-AIN1P)*%
X86810000Y-129075000D03*
%TD*%
D16*
%TO.P,J2,1,Pin_1*%
%TO.N,DIN*%
X125020000Y-138550000D03*
%TD*%
D13*
%TO.P,JP4,1,A*%
%TO.N,Net-(J8-Pin_2)*%
X142451217Y-119859443D03*
D14*
%TO.P,JP4,2,B*%
%TO.N,~{DRDY}*%
X141151217Y-119859443D03*
%TD*%
D16*
%TO.P,J6,1,Pin_1*%
%TO.N,GND*%
X94540000Y-138550000D03*
%TD*%
D17*
%TO.P,C6,1*%
%TO.N,Net-(U1-CAP)*%
X124835000Y-123100000D03*
%TO.P,C6,2*%
%TO.N,GND*%
X126385000Y-123100000D03*
%TD*%
D18*
%TO.P,U1,1,AVDD*%
%TO.N,+3.3V*%
X111610000Y-122050002D03*
%TO.P,U1,2,AGND*%
%TO.N,GND*%
X111610000Y-122700003D03*
%TO.P,U1,3,AIN0P*%
%TO.N,Net-(U1-AIN0P)*%
X111610000Y-123350001D03*
%TO.P,U1,4,AIN0N*%
%TO.N,GND*%
X111610000Y-124000003D03*
%TO.P,U1,5,AIN1N*%
%TO.N,Net-(U1-AIN1N)*%
X111610000Y-124650001D03*
%TO.P,U1,6,AIN1P*%
%TO.N,Net-(U1-AIN1P)*%
X111610000Y-125300000D03*
%TO.P,U1,7,AIN2P*%
%TO.N,Net-(U1-AIN2P)*%
X111610000Y-125950001D03*
%TO.P,U1,8,AIN2N*%
%TO.N,Net-(U1-AIN2N)*%
X111610000Y-126600000D03*
%TO.P,U1,9,NC*%
%TO.N,unconnected-(U1-NC-Pad9)*%
X111610000Y-127250001D03*
%TO.P,U1,10,NC*%
%TO.N,unconnected-(U1-NC-Pad10)*%
X111610000Y-127900000D03*
%TO.P,U1,11,\u002ASYNC/\u002ARESET*%
%TO.N,~{SYNC}{slash}~{RST}*%
X117515500Y-127900002D03*
%TO.P,U1,12,\u002ACS*%
%TO.N,~{CS}*%
X117515500Y-127250004D03*
%TO.P,U1,13,\u002ADRDY*%
%TO.N,~{DRDY}*%
X117515500Y-126600003D03*
%TO.P,U1,14,SCLK*%
%TO.N,SPICLK*%
X117515500Y-125950004D03*
%TO.P,U1,15,DOUT*%
%TO.N,DOUT*%
X117515500Y-125300003D03*
%TO.P,U1,16,DIN*%
%TO.N,DIN*%
X117515500Y-124650004D03*
%TO.P,U1,17,CLKIN*%
%TO.N,ADCCLK*%
X117515500Y-124000003D03*
%TO.P,U1,18,CAP*%
%TO.N,Net-(U1-CAP)*%
X117515500Y-123350004D03*
%TO.P,U1,19,DGND*%
%TO.N,GND*%
X117515500Y-122700003D03*
%TO.P,U1,20,DVDD*%
%TO.N,+3.3V*%
X117515500Y-122050004D03*
%TD*%
D16*
%TO.P,J7,1,Pin_1*%
%TO.N,+3.3V*%
X86920000Y-138550000D03*
%TD*%
D13*
%TO.P,JP5,1,A*%
%TO.N,Net-(J8-Pin_3)*%
X142460000Y-137650000D03*
D14*
%TO.P,JP5,2,B*%
%TO.N,ADCCLK*%
X141160000Y-137650000D03*
%TD*%
D12*
%TO.P,R1,1*%
%TO.N,TMP_IN_P*%
X113810000Y-116275000D03*
%TO.P,R1,2*%
%TO.N,Net-(U1-AIN0P)*%
X113810000Y-117925000D03*
%TD*%
D19*
%TO.P,U2,1,VDD*%
%TO.N,+3.3V*%
X84909998Y-115500000D03*
%TO.P,U2,2,VOUT*%
%TO.N,TMP_IN_P*%
X86810000Y-115500000D03*
%TO.P,U2,3,GND*%
%TO.N,GND*%
X85859999Y-113400000D03*
%TD*%
D12*
%TO.P,R3,1*%
%TO.N,GND*%
X82000000Y-123925000D03*
%TO.P,R3,2*%
%TO.N,GAUGE1_IN_N*%
X82000000Y-125575000D03*
%TD*%
D16*
%TO.P,J8,1,Pin_1*%
%TO.N,~{CS}*%
X181490000Y-138400000D03*
D20*
%TO.P,J8,2,Pin_2*%
%TO.N,Net-(J8-Pin_2)*%
X178950000Y-138400000D03*
%TO.P,J8,3,Pin_3*%
%TO.N,Net-(J8-Pin_3)*%
X176410000Y-138400000D03*
%TD*%
D16*
%TO.P,J5,1,Pin_1*%
%TO.N,~{SYNC}{slash}~{RST}*%
X102160000Y-138550000D03*
%TD*%
D13*
%TO.P,JP7,1,A*%
%TO.N,Net-(J8-Pin_3)*%
X142460000Y-131150000D03*
D14*
%TO.P,JP7,2,B*%
%TO.N,DOUT*%
X141160000Y-131150000D03*
%TD*%
D21*
%TO.P,R4,1*%
%TO.N,GAUGE1_IN_N*%
X83485000Y-127500000D03*
%TO.P,R4,2*%
%TO.N,Net-(U1-AIN1N)*%
X85135000Y-127500000D03*
%TD*%
D15*
%TO.P,C3,1*%
%TO.N,+3.3V*%
X106210000Y-121425000D03*
%TO.P,C3,2*%
%TO.N,GND*%
X106210000Y-122975000D03*
%TD*%
D16*
%TO.P,J3,1,Pin_1*%
%TO.N,DOUT*%
X117400000Y-138550000D03*
%TD*%
D17*
%TO.P,C1,1*%
%TO.N,Net-(U1-AIN0P)*%
X113835000Y-119700000D03*
%TO.P,C1,2*%
%TO.N,GND*%
X115385000Y-119700000D03*
%TD*%
D16*
%TO.P,J10,1,Pin_1*%
%TO.N,GAUGE2_IN_N*%
X153710000Y-136750000D03*
D20*
%TO.P,J10,2,Pin_2*%
%TO.N,GAUGE2_IN_P*%
X156250000Y-136750000D03*
%TO.P,J10,3,Pin_3*%
%TO.N,+3.3V*%
X158790000Y-136750000D03*
%TO.P,J10,4,Pin_4*%
%TO.N,GND*%
X161330000Y-136750000D03*
%TD*%
D16*
%TO.P,J4,1,Pin_1*%
%TO.N,SPICLK*%
X109780000Y-138550000D03*
%TD*%
D21*
%TO.P,R6,1*%
%TO.N,GAUGE2_IN_P*%
X94885000Y-127600000D03*
%TO.P,R6,2*%
%TO.N,Net-(U1-AIN2P)*%
X96535000Y-127600000D03*
%TD*%
D16*
%TO.P,J1,1,Pin_1*%
%TO.N,ADCCLK*%
X132640000Y-138550000D03*
%TD*%
D11*
%TO.P,R7,1*%
%TO.N,Net-(U1-AIN2N)*%
X96535000Y-129200000D03*
%TO.P,R7,2*%
%TO.N,GAUGE2_IN_N*%
X94885000Y-129200000D03*
%TD*%
D20*
%TO.P,J9,4,Pin_4*%
%TO.N,+3.3V*%
X78560000Y-138475000D03*
%TO.P,J9,3,Pin_3*%
%TO.N,GND*%
X76020000Y-138475000D03*
%TO.P,J9,2,Pin_2*%
%TO.N,GAUGE1_IN_P*%
X73480000Y-138475000D03*
D16*
%TO.P,J9,1,Pin_1*%
%TO.N,GAUGE1_IN_N*%
X70940000Y-138475000D03*
%TD*%
D13*
%TO.P,JP2,1,A*%
%TO.N,Net-(J8-Pin_2)*%
X142460000Y-117100000D03*
D14*
%TO.P,JP2,2,B*%
%TO.N,GND*%
X141160000Y-117100000D03*
%TD*%
D15*
%TO.P,C5,1*%
%TO.N,+3.3V*%
X121310000Y-119725000D03*
%TO.P,C5,2*%
%TO.N,GND*%
X121310000Y-121275000D03*
%TD*%
D13*
%TO.P,JP6,1,A*%
%TO.N,Net-(J8-Pin_3)*%
X142460000Y-134400000D03*
D14*
%TO.P,JP6,2,B*%
%TO.N,DIN*%
X141160000Y-134400000D03*
%TD*%
D22*
%TO.N,+3.3V*%
X141160000Y-114350000D03*
X158750000Y-134200000D03*
%TO.N,GND*%
X138010000Y-135900000D03*
X128423600Y-137076800D03*
X138560000Y-129900000D03*
X80610000Y-124300000D03*
X120500000Y-129000000D03*
X78250000Y-132250000D03*
X180910000Y-136100000D03*
X135310000Y-126400000D03*
X128322000Y-123157600D03*
X104000000Y-128250000D03*
X114610000Y-120900000D03*
X138310000Y-133150000D03*
X152500000Y-126000000D03*
X112810000Y-122774999D03*
X146750000Y-136250000D03*
X117810000Y-129800000D03*
X137810000Y-121400000D03*
%TO.N,+3.3V*%
X101960000Y-121300000D03*
X114910000Y-123200000D03*
X88960000Y-122650000D03*
X89250000Y-128225000D03*
X112920000Y-122030000D03*
%TO.N,GAUGE2_IN_N*%
X91860000Y-129150000D03*
X93425000Y-116600000D03*
X90010000Y-123700000D03*
%TO.N,GAUGE2_IN_P*%
X92510000Y-123650000D03*
X148250000Y-130475000D03*
X95250000Y-116700000D03*
X92510000Y-126700000D03*
%TO.N,DIN*%
X119180000Y-124640000D03*
%TO.N,SPICLK*%
X116465909Y-125931909D03*
X112167600Y-130168000D03*
X117552400Y-133774800D03*
%TO.N,~{SYNC}{slash}~{RST}*%
X119178000Y-131133200D03*
%TO.N,ADCCLK*%
X119710000Y-123950000D03*
%TO.N,~{CS}*%
X124550000Y-127200000D03*
X120860000Y-127210000D03*
X118950000Y-127210000D03*
%TD*%
D10*
%TO.N,GAUGE1_IN_P*%
X73480000Y-138475000D02*
X78705000Y-133250000D01*
X78705000Y-133250000D02*
X82425000Y-133250000D01*
X82425000Y-133250000D02*
X82425000Y-130160000D01*
X82425000Y-130160000D02*
X83485000Y-129100000D01*
%TO.N,GAUGE2_IN_P*%
X156250000Y-136750000D02*
X155801480Y-136750000D01*
X155801480Y-136750000D02*
X149526480Y-130475000D01*
X149526480Y-130475000D02*
X148250000Y-130475000D01*
%TO.N,GAUGE2_IN_N*%
X153710000Y-136750000D02*
X150575000Y-136750000D01*
X150575000Y-136750000D02*
X150500000Y-136825000D01*
%TO.N,GAUGE2_IN_P*%
X156250000Y-136750000D02*
X156250000Y-134825000D01*
X156250000Y-134825000D02*
X155675000Y-134250000D01*
%TO.N,+3.3V*%
X84075000Y-133250000D02*
X86192000Y-133250000D01*
X86192000Y-133250000D02*
X86920000Y-133978000D01*
%TO.N,GAUGE1_IN_N*%
X82000000Y-125575000D02*
X82000000Y-127375000D01*
X82000000Y-127375000D02*
X82125000Y-127500000D01*
X82125000Y-127500000D02*
X83485000Y-127500000D01*
%TO.N,+3.3V*%
X157325000Y-134250000D02*
X158700000Y-134250000D01*
X158700000Y-134250000D02*
X158750000Y-134200000D01*
X158790000Y-134240000D02*
X158750000Y-134200000D01*
X158790000Y-136750000D02*
X158790000Y-134240000D01*
%TO.N,Net-(J8-Pin_3)*%
X176410000Y-138400000D02*
X143210000Y-138400000D01*
X143210000Y-138400000D02*
X142460000Y-137650000D01*
%TO.N,Net-(U1-AIN2N)*%
X98345000Y-129165000D02*
X98360000Y-129150000D01*
X98360000Y-129150000D02*
X100935002Y-126574998D01*
X96585000Y-129165000D02*
X98345000Y-129165000D01*
X100935002Y-126574998D02*
X111557250Y-126574998D01*
%TO.N,Net-(U1-AIN2P)*%
X96585000Y-127550000D02*
X98310000Y-127550000D01*
X100035001Y-125924999D02*
X111557250Y-125924999D01*
X98310000Y-127550000D02*
X98360000Y-127600000D01*
X98360000Y-127600000D02*
X100035001Y-125924999D01*
%TO.N,Net-(U1-AIN1N)*%
X89860001Y-124624999D02*
X111557250Y-124624999D01*
X85060000Y-127500000D02*
X86735000Y-127500000D01*
X86860000Y-127625000D02*
X89860001Y-124624999D01*
X86735000Y-127500000D02*
X86860000Y-127625000D01*
%TO.N,Net-(U1-AIN1P)*%
X90760002Y-125274998D02*
X111557250Y-125274998D01*
X86860000Y-129175000D02*
X90760002Y-125274998D01*
X86835000Y-129150000D02*
X86860000Y-129175000D01*
X85060000Y-129150000D02*
X86835000Y-129150000D01*
%TO.N,Net-(U1-AIN0P)*%
X113810000Y-118000000D02*
X113810000Y-122700000D01*
X113810000Y-122700000D02*
X113185001Y-123324999D01*
X113185001Y-123324999D02*
X111557250Y-123324999D01*
%TO.N,GND*%
X115360000Y-119650000D02*
X115360000Y-121950000D01*
X113334999Y-123975001D02*
X111557250Y-123975001D01*
X115410000Y-119600000D02*
X115360000Y-119650000D01*
X115360000Y-121950000D02*
X113334999Y-123975001D01*
X111610000Y-122700003D02*
X112735004Y-122700003D01*
X112735004Y-122700003D02*
X112810000Y-122774999D01*
%TO.N,Net-(U1-CAP)*%
X117462750Y-123325002D02*
X124784998Y-123325002D01*
X124784998Y-123325002D02*
X124860000Y-123250000D01*
%TO.N,+3.3V*%
X106260000Y-121375000D02*
X108235000Y-121375000D01*
X89256800Y-131641200D02*
X89256800Y-128231800D01*
X114910000Y-123200000D02*
X114910000Y-125984650D01*
X84917060Y-120407836D02*
X84917060Y-115607062D01*
X132985000Y-119725000D02*
X121310000Y-119725000D01*
X114910000Y-123200000D02*
X116059996Y-122050004D01*
X101960000Y-121300000D02*
X102035000Y-121375000D01*
X89256800Y-128231800D02*
X89250000Y-128225000D01*
X88960000Y-122650000D02*
X87159224Y-122650000D01*
X117515500Y-122050004D02*
X118984996Y-122050004D01*
X114910000Y-125984650D02*
X109253450Y-131641200D01*
X102035000Y-121375000D02*
X106260000Y-121375000D01*
X138360000Y-114350000D02*
X132985000Y-119725000D01*
X84917060Y-115607062D02*
X84909998Y-115600000D01*
X112915000Y-122025000D02*
X112920000Y-122030000D01*
X111557250Y-122025000D02*
X112915000Y-122025000D01*
X108235000Y-121375000D02*
X108885000Y-122025000D01*
X89256800Y-131641200D02*
X86920000Y-133978000D01*
X87159224Y-122650000D02*
X84917060Y-120407836D01*
X141110000Y-114350000D02*
X138360000Y-114350000D01*
X86920000Y-133978000D02*
X86920000Y-138550000D01*
X109253450Y-131641200D02*
X89256800Y-131641200D01*
X118984996Y-122050004D02*
X121310000Y-119725000D01*
X108885000Y-122025000D02*
X111557250Y-122025000D01*
X116059996Y-122050004D02*
X117515500Y-122050004D01*
%TO.N,GAUGE2_IN_N*%
X91875000Y-129165000D02*
X94935000Y-129165000D01*
X89997060Y-120407836D02*
X89997060Y-120027940D01*
X91860000Y-129150000D02*
X91875000Y-129165000D01*
X89997060Y-120407836D02*
X89997060Y-123687060D01*
X89997060Y-120027940D02*
X93425000Y-116600000D01*
X89997060Y-123687060D02*
X90010000Y-123700000D01*
%TO.N,GAUGE2_IN_P*%
X92510000Y-126700000D02*
X93360000Y-127550000D01*
X92537060Y-123622940D02*
X92537060Y-119412940D01*
X92510000Y-123650000D02*
X92537060Y-123622940D01*
X93360000Y-127550000D02*
X94935000Y-127550000D01*
X92537060Y-119412940D02*
X95250000Y-116700000D01*
%TO.N,DIN*%
X117462750Y-124625002D02*
X119165002Y-124625002D01*
X129170000Y-134400000D02*
X125020000Y-138550000D01*
X141160000Y-134400000D02*
X129170000Y-134400000D01*
X119165002Y-124625002D02*
X119180000Y-124640000D01*
%TO.N,SPICLK*%
X141160000Y-127900000D02*
X123427200Y-127900000D01*
X109780000Y-132555600D02*
X109780000Y-138550000D01*
X112167600Y-130168000D02*
X109780000Y-132555600D01*
X116484004Y-125950004D02*
X116465909Y-125931909D01*
X117515500Y-125950004D02*
X116484004Y-125950004D01*
X123427200Y-127900000D02*
X117552400Y-133774800D01*
%TO.N,~{SYNC}{slash}~{RST}*%
X119135000Y-127875000D02*
X121710000Y-125300000D01*
X133430768Y-125300000D02*
X136030768Y-122700000D01*
X136030768Y-122700000D02*
X141160000Y-122700000D01*
X119135000Y-131090200D02*
X119178000Y-131133200D01*
X121710000Y-125300000D02*
X133430768Y-125300000D01*
X119135000Y-127875000D02*
X119135000Y-131090200D01*
X117462750Y-127875000D02*
X119135000Y-127875000D01*
%TO.N,ADCCLK*%
X119684999Y-123975001D02*
X119710000Y-123950000D01*
X141160000Y-137650000D02*
X140310000Y-138500000D01*
X140310000Y-138500000D02*
X132650000Y-138500000D01*
X117462750Y-123975001D02*
X119684999Y-123975001D01*
%TO.N,DOUT*%
X116318583Y-125300003D02*
X115914909Y-125703677D01*
X124800000Y-131150000D02*
X117400000Y-138550000D01*
X117515500Y-125300003D02*
X116318583Y-125300003D01*
X115914909Y-137064909D02*
X117400000Y-138550000D01*
X141160000Y-131150000D02*
X124800000Y-131150000D01*
X115914909Y-125703677D02*
X115914909Y-137064909D01*
%TO.N,~{CS}*%
X120860000Y-127210000D02*
X124540000Y-127210000D01*
X118934998Y-127225002D02*
X118950000Y-127210000D01*
X117462750Y-127225002D02*
X118934998Y-127225002D01*
X124540000Y-127210000D02*
X124550000Y-127200000D01*
D23*
%TO.N,Net-(J8-Pin_2)*%
X173800000Y-133250000D02*
X153010000Y-133250000D01*
X153010000Y-133250000D02*
X142460000Y-122700000D01*
X178950000Y-138400000D02*
X173800000Y-133250000D01*
D10*
%TO.N,~{DRDY}*%
X136100557Y-119859443D02*
X141151217Y-119859443D01*
X121310000Y-124400000D02*
X131560000Y-124400000D01*
X117515500Y-126600003D02*
X119109997Y-126600003D01*
X131560000Y-124400000D02*
X136100557Y-119859443D01*
X119109997Y-126600003D02*
X121310000Y-124400000D01*
%TO.N,TMP_IN_P*%
X113060000Y-115600000D02*
X113810000Y-116350000D01*
X86810000Y-115600000D02*
X113060000Y-115600000D01*
%TD*%
%TA.AperFunction,Conductor*%
%TO.N,GND*%
G36*
X107631175Y-76600038D02*
G01*
X183825194Y-124353873D01*
X207276571Y-139051788D01*
X207834618Y-139401538D01*
X207873884Y-139448461D01*
X207878070Y-139509503D01*
X207845577Y-139561348D01*
X207788816Y-139584192D01*
X207782043Y-139584424D01*
X182603036Y-139584424D01*
X182544845Y-139565517D01*
X182508881Y-139516017D01*
X182508881Y-139454831D01*
X182520720Y-139430423D01*
X182530202Y-139416232D01*
X182575966Y-139347740D01*
X182590500Y-139274674D01*
X182590500Y-137525326D01*
X182575966Y-137452260D01*
X182547387Y-137409488D01*
X182520602Y-137369400D01*
X182520599Y-137369397D01*
X182437742Y-137314035D01*
X182437740Y-137314034D01*
X182437737Y-137314033D01*
X182437736Y-137314033D01*
X182364684Y-137299501D01*
X182364674Y-137299500D01*
X180615326Y-137299500D01*
X180615325Y-137299500D01*
X180615315Y-137299501D01*
X180542263Y-137314033D01*
X180542257Y-137314035D01*
X180459400Y-137369397D01*
X180459397Y-137369400D01*
X180404035Y-137452257D01*
X180404033Y-137452263D01*
X180389501Y-137525315D01*
X180389500Y-137525327D01*
X180389500Y-139274672D01*
X180389501Y-139274684D01*
X180404033Y-139347736D01*
X180404035Y-139347742D01*
X180459280Y-139430423D01*
X180475888Y-139489311D01*
X180454710Y-139546715D01*
X180403836Y-139580707D01*
X180376964Y-139584424D01*
X179461861Y-139584424D01*
X179403670Y-139565517D01*
X179367706Y-139516017D01*
X179367706Y-139454831D01*
X179403670Y-139405331D01*
X179416916Y-139397214D01*
X179526788Y-139341232D01*
X179666928Y-139239414D01*
X179789414Y-139116928D01*
X179891232Y-138976788D01*
X179969873Y-138822445D01*
X179969874Y-138822440D01*
X179969876Y-138822438D01*
X180023401Y-138657706D01*
X180023402Y-138657702D01*
X180050500Y-138486614D01*
X180050500Y-138313385D01*
X180023402Y-138142297D01*
X180023401Y-138142293D01*
X179969876Y-137977561D01*
X179969874Y-137977558D01*
X179969873Y-137977557D01*
X179969873Y-137977555D01*
X179891232Y-137823212D01*
X179789414Y-137683072D01*
X179666928Y-137560586D01*
X179526788Y-137458768D01*
X179526787Y-137458767D01*
X179526785Y-137458766D01*
X179372441Y-137380125D01*
X179372438Y-137380123D01*
X179207706Y-137326598D01*
X179207702Y-137326597D01*
X179036614Y-137299500D01*
X179036611Y-137299500D01*
X178863389Y-137299500D01*
X178863386Y-137299500D01*
X178692296Y-137326597D01*
X178668565Y-137334308D01*
X178607380Y-137334307D01*
X178567971Y-137310157D01*
X176342571Y-135084757D01*
X174107314Y-132849500D01*
X174107311Y-132849498D01*
X174107310Y-132849497D01*
X174107309Y-132849496D01*
X173993189Y-132783609D01*
X173993191Y-132783609D01*
X173912983Y-132762118D01*
X173865892Y-132749500D01*
X173865890Y-132749500D01*
X153258322Y-132749500D01*
X153200131Y-132730593D01*
X153188318Y-132720504D01*
X143784496Y-123316682D01*
X143756719Y-123262165D01*
X143755500Y-123246678D01*
X143755500Y-113374003D01*
X143755500Y-113374000D01*
X143749661Y-113319687D01*
X143738455Y-113268176D01*
X143731219Y-113241802D01*
X143731218Y-113241800D01*
X143731217Y-113241797D01*
X143681892Y-113155178D01*
X143681889Y-113155175D01*
X143681888Y-113155172D01*
X143669881Y-113141315D01*
X143636147Y-113102383D01*
X143636138Y-113102373D01*
X143603358Y-113070742D01*
X143603355Y-113070740D01*
X143515025Y-113024535D01*
X143515020Y-113024533D01*
X143447997Y-113004853D01*
X143447989Y-113004851D01*
X143447985Y-113004850D01*
X143447980Y-113004849D01*
X143447979Y-113004849D01*
X143376004Y-112994500D01*
X143376000Y-112994500D01*
X142121828Y-112994500D01*
X142087092Y-112998079D01*
X142069722Y-112999869D01*
X142020205Y-113010183D01*
X141995928Y-113016499D01*
X141908437Y-113064293D01*
X141854838Y-113109103D01*
X141854825Y-113109115D01*
X141822638Y-113141315D01*
X141774875Y-113228820D01*
X141760369Y-113275170D01*
X141724944Y-113325057D01*
X141666962Y-113344594D01*
X141664788Y-113344500D01*
X141660000Y-113344500D01*
X141094174Y-113344500D01*
X141094172Y-113344500D01*
X141028051Y-113353205D01*
X141028046Y-113353205D01*
X140900874Y-113387281D01*
X140839264Y-113412801D01*
X140725239Y-113478633D01*
X140672333Y-113519229D01*
X140579229Y-113612333D01*
X140538633Y-113665239D01*
X140472801Y-113779264D01*
X140447282Y-113840873D01*
X140424439Y-113926124D01*
X140391114Y-113977438D01*
X140333993Y-113999364D01*
X140328812Y-113999500D01*
X138313856Y-113999500D01*
X138224712Y-114023386D01*
X138144788Y-114069530D01*
X132868814Y-119345504D01*
X132814297Y-119373281D01*
X132798810Y-119374500D01*
X122089426Y-119374500D01*
X122031235Y-119355593D01*
X121996668Y-119310097D01*
X121981628Y-119269774D01*
X121944199Y-119219775D01*
X121899687Y-119160313D01*
X121832897Y-119110315D01*
X121790228Y-119078373D01*
X121790226Y-119078372D01*
X121662114Y-119030588D01*
X121662113Y-119030587D01*
X121623895Y-119026479D01*
X121605485Y-119024500D01*
X121605481Y-119024500D01*
X121014521Y-119024500D01*
X121014515Y-119024501D01*
X120957888Y-119030587D01*
X120957886Y-119030588D01*
X120829774Y-119078372D01*
X120829773Y-119078372D01*
X120829772Y-119078373D01*
X120720315Y-119160311D01*
X120720311Y-119160315D01*
X120638373Y-119269771D01*
X120590587Y-119397887D01*
X120584500Y-119454518D01*
X120584500Y-119913809D01*
X120565593Y-119972000D01*
X120555504Y-119983813D01*
X118868810Y-121670508D01*
X118814293Y-121698285D01*
X118798806Y-121699504D01*
X118442807Y-121699504D01*
X118387806Y-121682820D01*
X118318092Y-121636239D01*
X118318090Y-121636238D01*
X118318087Y-121636237D01*
X118318086Y-121636237D01*
X118245034Y-121621705D01*
X118245024Y-121621704D01*
X116785976Y-121621704D01*
X116785975Y-121621704D01*
X116785965Y-121621705D01*
X116712913Y-121636237D01*
X116712907Y-121636239D01*
X116643194Y-121682820D01*
X116588193Y-121699504D01*
X116013852Y-121699504D01*
X115924708Y-121723390D01*
X115844784Y-121769534D01*
X114993814Y-122620504D01*
X114939297Y-122648281D01*
X114923810Y-122649500D01*
X114837525Y-122649500D01*
X114775790Y-122666041D01*
X114697510Y-122687017D01*
X114571989Y-122759487D01*
X114469487Y-122861989D01*
X114397017Y-122987510D01*
X114369418Y-123090512D01*
X114359500Y-123127525D01*
X114359500Y-123272475D01*
X114385044Y-123367807D01*
X114397017Y-123412489D01*
X114469487Y-123538010D01*
X114469489Y-123538012D01*
X114469491Y-123538015D01*
X114530505Y-123599029D01*
X114558281Y-123653544D01*
X114559500Y-123669031D01*
X114559500Y-125798460D01*
X114540593Y-125856651D01*
X114530504Y-125868464D01*
X112718896Y-127680071D01*
X112712534Y-127683312D01*
X112708438Y-127689157D01*
X112685753Y-127696957D01*
X112664379Y-127707848D01*
X112657329Y-127706731D01*
X112650578Y-127709053D01*
X112627640Y-127702029D01*
X112603947Y-127698277D01*
X112598898Y-127693228D01*
X112592074Y-127691139D01*
X112583193Y-127677523D01*
X112560682Y-127655012D01*
X112555272Y-127642259D01*
X112553100Y-127635942D01*
X112550816Y-127624460D01*
X112547387Y-127619328D01*
X112543214Y-127607192D01*
X112542900Y-127588814D01*
X112537910Y-127571125D01*
X112542366Y-127557412D01*
X112542172Y-127546015D01*
X112549439Y-127535645D01*
X112549473Y-127535539D01*
X112547084Y-127534550D01*
X112550811Y-127525547D01*
X112550816Y-127525541D01*
X112565350Y-127452475D01*
X112565350Y-127047527D01*
X112564611Y-127043814D01*
X112561591Y-127028631D01*
X112550816Y-126974461D01*
X112550812Y-126974456D01*
X112547084Y-126965452D01*
X112550066Y-126964216D01*
X112537909Y-126921116D01*
X112549474Y-126885542D01*
X112547083Y-126884552D01*
X112550811Y-126875546D01*
X112550816Y-126875540D01*
X112565350Y-126802474D01*
X112565350Y-126397526D01*
X112550816Y-126324460D01*
X112550812Y-126324455D01*
X112547083Y-126315448D01*
X112550067Y-126314212D01*
X112537910Y-126271125D01*
X112549473Y-126235539D01*
X112547084Y-126234550D01*
X112550811Y-126225547D01*
X112550816Y-126225541D01*
X112565350Y-126152475D01*
X112565350Y-125747527D01*
X112550816Y-125674461D01*
X112550812Y-125674456D01*
X112547084Y-125665452D01*
X112550066Y-125664216D01*
X112537909Y-125621116D01*
X112549474Y-125585542D01*
X112547083Y-125584552D01*
X112550811Y-125575546D01*
X112550816Y-125575540D01*
X112565350Y-125502474D01*
X112565350Y-125097526D01*
X112550816Y-125024460D01*
X112550812Y-125024455D01*
X112547083Y-125015448D01*
X112550067Y-125014212D01*
X112537910Y-124971125D01*
X112549473Y-124935539D01*
X112547084Y-124934550D01*
X112550811Y-124925547D01*
X112550816Y-124925541D01*
X112565350Y-124852475D01*
X112565350Y-124447527D01*
X112558517Y-124413175D01*
X112565050Y-124353873D01*
X112611940Y-124247675D01*
X112614849Y-124222600D01*
X112614850Y-124222598D01*
X112614850Y-124177804D01*
X112614849Y-124177803D01*
X110605152Y-124177803D01*
X110604041Y-124178913D01*
X110586244Y-124233690D01*
X110536744Y-124269654D01*
X110506151Y-124274499D01*
X92898808Y-124274499D01*
X92840617Y-124255592D01*
X92804653Y-124206092D01*
X92804653Y-124144906D01*
X92840617Y-124095406D01*
X92847221Y-124091117D01*
X92848009Y-124090512D01*
X92848015Y-124090509D01*
X92950509Y-123988015D01*
X92950512Y-123988010D01*
X93022982Y-123862489D01*
X93022982Y-123862487D01*
X93022984Y-123862485D01*
X93060500Y-123722475D01*
X93060500Y-123577525D01*
X93022984Y-123437515D01*
X93022982Y-123437512D01*
X93022982Y-123437510D01*
X92950512Y-123311989D01*
X92950507Y-123311983D01*
X92916556Y-123278031D01*
X92912930Y-123270914D01*
X92906467Y-123266219D01*
X92899302Y-123244167D01*
X92888779Y-123223514D01*
X92887560Y-123208028D01*
X92887560Y-123175001D01*
X105435000Y-123175001D01*
X105435000Y-123241104D01*
X105445132Y-123325468D01*
X105498077Y-123459729D01*
X105585276Y-123574717D01*
X105585282Y-123574723D01*
X105700270Y-123661922D01*
X105834531Y-123714867D01*
X105918895Y-123724999D01*
X105918900Y-123725000D01*
X106009999Y-123725000D01*
X106010000Y-123724999D01*
X106010000Y-123175001D01*
X106410000Y-123175001D01*
X106410000Y-123724999D01*
X106410001Y-123725000D01*
X106501100Y-123725000D01*
X106501104Y-123724999D01*
X106585468Y-123714867D01*
X106719729Y-123661922D01*
X106834717Y-123574723D01*
X106834723Y-123574717D01*
X106921922Y-123459729D01*
X106974867Y-123325468D01*
X106984999Y-123241104D01*
X106985000Y-123241100D01*
X106985000Y-123175001D01*
X106984999Y-123175000D01*
X106410001Y-123175000D01*
X106410000Y-123175001D01*
X106010000Y-123175001D01*
X106009999Y-123175000D01*
X105435001Y-123175000D01*
X105435000Y-123175001D01*
X92887560Y-123175001D01*
X92887560Y-121227525D01*
X101409500Y-121227525D01*
X101409500Y-121372474D01*
X101447017Y-121512489D01*
X101519487Y-121638010D01*
X101519489Y-121638012D01*
X101519491Y-121638015D01*
X101621985Y-121740509D01*
X101621987Y-121740510D01*
X101621989Y-121740512D01*
X101747511Y-121812982D01*
X101747512Y-121812982D01*
X101747515Y-121812984D01*
X101887525Y-121850500D01*
X101887526Y-121850500D01*
X102032474Y-121850500D01*
X102032475Y-121850500D01*
X102172485Y-121812984D01*
X102172487Y-121812982D01*
X102172489Y-121812982D01*
X102301039Y-121738764D01*
X102350539Y-121725500D01*
X105411925Y-121725500D01*
X105470116Y-121744407D01*
X105504681Y-121789900D01*
X105538372Y-121880226D01*
X105620313Y-121989687D01*
X105729774Y-122071628D01*
X105754901Y-122081000D01*
X105802815Y-122119050D01*
X105819212Y-122177997D01*
X105797830Y-122235325D01*
X105756623Y-122265854D01*
X105700273Y-122288076D01*
X105700271Y-122288077D01*
X105585282Y-122375276D01*
X105585276Y-122375282D01*
X105498077Y-122490270D01*
X105445132Y-122624531D01*
X105435000Y-122708895D01*
X105435000Y-122774999D01*
X105435001Y-122775000D01*
X106984999Y-122775000D01*
X106985000Y-122774999D01*
X106985000Y-122708899D01*
X106984999Y-122708895D01*
X106974867Y-122624531D01*
X106921922Y-122490270D01*
X106834723Y-122375282D01*
X106834717Y-122375276D01*
X106719728Y-122288077D01*
X106719724Y-122288074D01*
X106663377Y-122265854D01*
X106616180Y-122226917D01*
X106600883Y-122167675D01*
X106623329Y-122110756D01*
X106665098Y-122081000D01*
X106690226Y-122071628D01*
X106799687Y-121989687D01*
X106881628Y-121880226D01*
X106915318Y-121789900D01*
X106953368Y-121741988D01*
X107008075Y-121725500D01*
X108048810Y-121725500D01*
X108107001Y-121744407D01*
X108118814Y-121754496D01*
X108669788Y-122305470D01*
X108669790Y-122305471D01*
X108746053Y-122349502D01*
X108746054Y-122349502D01*
X108749712Y-122351614D01*
X108838856Y-122375500D01*
X110506153Y-122375500D01*
X110564344Y-122394407D01*
X110600308Y-122443907D01*
X110604242Y-122474551D01*
X110605150Y-122474551D01*
X110605150Y-122522202D01*
X110605151Y-122522203D01*
X112644994Y-122522203D01*
X112694495Y-122535467D01*
X112707515Y-122542984D01*
X112847525Y-122580500D01*
X112847526Y-122580500D01*
X112992474Y-122580500D01*
X112992475Y-122580500D01*
X113132485Y-122542984D01*
X113132487Y-122542982D01*
X113132489Y-122542982D01*
X113258010Y-122470512D01*
X113258010Y-122470511D01*
X113258015Y-122470509D01*
X113290498Y-122438025D01*
X113311151Y-122427502D01*
X113329907Y-122413876D01*
X113337896Y-122413876D01*
X113345013Y-122410250D01*
X113367908Y-122413876D01*
X113391093Y-122413876D01*
X113397555Y-122418571D01*
X113405445Y-122419821D01*
X113421836Y-122436212D01*
X113440593Y-122449840D01*
X113443061Y-122457437D01*
X113448710Y-122463086D01*
X113459500Y-122508031D01*
X113459500Y-122513810D01*
X113440593Y-122572001D01*
X113430504Y-122583814D01*
X113068815Y-122945503D01*
X113014298Y-122973280D01*
X112998811Y-122974499D01*
X112713850Y-122974499D01*
X112655659Y-122955592D01*
X112619695Y-122906092D01*
X112615283Y-122878237D01*
X112614849Y-122877803D01*
X110605152Y-122877803D01*
X110605151Y-122877804D01*
X110605151Y-122922594D01*
X110608059Y-122947677D01*
X110654949Y-123053873D01*
X110661482Y-123113173D01*
X110654650Y-123147519D01*
X110654650Y-123552477D01*
X110661483Y-123586828D01*
X110654950Y-123646129D01*
X110608060Y-123752327D01*
X110608059Y-123752330D01*
X110605150Y-123777405D01*
X110605150Y-123822202D01*
X110605151Y-123822203D01*
X112614848Y-123822203D01*
X112614849Y-123822202D01*
X112614849Y-123774553D01*
X112616437Y-123774553D01*
X112630649Y-123720841D01*
X112678078Y-123682186D01*
X112713846Y-123675499D01*
X113231143Y-123675499D01*
X113231145Y-123675499D01*
X113320289Y-123651613D01*
X113400213Y-123605469D01*
X114090470Y-122915212D01*
X114136614Y-122835288D01*
X114144859Y-122804516D01*
X114160500Y-122746144D01*
X114160500Y-120488750D01*
X114179407Y-120430559D01*
X114224901Y-120395993D01*
X114290226Y-120371628D01*
X114399687Y-120289687D01*
X114481628Y-120180226D01*
X114491000Y-120155098D01*
X114529049Y-120107185D01*
X114587996Y-120090787D01*
X114645324Y-120112169D01*
X114675854Y-120153377D01*
X114698074Y-120209724D01*
X114698077Y-120209728D01*
X114785276Y-120324717D01*
X114785282Y-120324723D01*
X114900270Y-120411922D01*
X115034531Y-120464867D01*
X115118895Y-120474999D01*
X115118900Y-120475000D01*
X115184999Y-120475000D01*
X115185000Y-120474999D01*
X115185000Y-119900001D01*
X115585000Y-119900001D01*
X115585000Y-120474999D01*
X115585001Y-120475000D01*
X115651100Y-120475000D01*
X115651104Y-120474999D01*
X115735468Y-120464867D01*
X115869729Y-120411922D01*
X115984717Y-120324723D01*
X115984723Y-120324717D01*
X116071922Y-120209729D01*
X116124867Y-120075468D01*
X116134999Y-119991104D01*
X116135000Y-119991100D01*
X116135000Y-119900001D01*
X116134999Y-119900000D01*
X115585001Y-119900000D01*
X115585000Y-119900001D01*
X115185000Y-119900001D01*
X115185000Y-118925001D01*
X115585000Y-118925001D01*
X115585000Y-119499999D01*
X115585001Y-119500000D01*
X116134999Y-119500000D01*
X116135000Y-119499999D01*
X116135000Y-119408899D01*
X116134999Y-119408895D01*
X116124867Y-119324531D01*
X116071922Y-119190270D01*
X115984723Y-119075282D01*
X115984717Y-119075276D01*
X115869729Y-118988077D01*
X115735468Y-118935132D01*
X115651104Y-118925000D01*
X115585001Y-118925000D01*
X115585000Y-118925001D01*
X115185000Y-118925001D01*
X115184999Y-118925000D01*
X115118895Y-118925000D01*
X115034531Y-118935132D01*
X114900270Y-118988077D01*
X114785282Y-119075276D01*
X114785276Y-119075282D01*
X114698077Y-119190271D01*
X114698076Y-119190273D01*
X114675854Y-119246623D01*
X114636917Y-119293820D01*
X114577675Y-119309116D01*
X114520755Y-119286669D01*
X114491000Y-119244901D01*
X114481628Y-119219774D01*
X114399687Y-119110313D01*
X114290226Y-119028372D01*
X114279845Y-119024500D01*
X114224901Y-119004006D01*
X114176988Y-118965955D01*
X114160500Y-118911249D01*
X114160500Y-118646109D01*
X114179407Y-118587918D01*
X114226802Y-118552665D01*
X114238452Y-118548588D01*
X114297882Y-118527793D01*
X114407150Y-118447150D01*
X114487793Y-118337882D01*
X114532646Y-118209699D01*
X114535499Y-118179273D01*
X114535500Y-118179273D01*
X114535500Y-117670727D01*
X114535499Y-117670725D01*
X114532646Y-117640305D01*
X114532646Y-117640301D01*
X114487793Y-117512118D01*
X114407150Y-117402850D01*
X114407146Y-117402847D01*
X114407144Y-117402845D01*
X114297883Y-117322207D01*
X114169703Y-117277355D01*
X114169694Y-117277353D01*
X114139274Y-117274500D01*
X114139266Y-117274500D01*
X113480734Y-117274500D01*
X113480725Y-117274500D01*
X113450305Y-117277353D01*
X113450296Y-117277355D01*
X113322116Y-117322207D01*
X113212855Y-117402845D01*
X113212845Y-117402855D01*
X113132207Y-117512116D01*
X113087355Y-117640296D01*
X113087353Y-117640305D01*
X113084500Y-117670725D01*
X113084500Y-118179274D01*
X113087353Y-118209694D01*
X113087355Y-118209703D01*
X113132207Y-118337883D01*
X113212845Y-118447144D01*
X113212847Y-118447146D01*
X113212850Y-118447150D01*
X113212853Y-118447152D01*
X113212855Y-118447154D01*
X113322116Y-118527792D01*
X113322117Y-118527792D01*
X113322118Y-118527793D01*
X113372013Y-118545252D01*
X113393198Y-118552665D01*
X113441878Y-118589730D01*
X113459500Y-118646109D01*
X113459500Y-118929898D01*
X113440593Y-118988089D01*
X113395101Y-119022655D01*
X113379774Y-119028372D01*
X113379771Y-119028373D01*
X113270315Y-119110311D01*
X113270311Y-119110315D01*
X113188373Y-119219771D01*
X113140587Y-119347887D01*
X113134500Y-119404518D01*
X113134500Y-119995478D01*
X113134501Y-119995484D01*
X113140587Y-120052111D01*
X113140587Y-120052112D01*
X113140588Y-120052114D01*
X113188372Y-120180226D01*
X113270313Y-120289687D01*
X113379774Y-120371628D01*
X113395095Y-120377342D01*
X113443010Y-120415392D01*
X113459500Y-120470101D01*
X113459500Y-121551969D01*
X113440593Y-121610160D01*
X113391093Y-121646124D01*
X113329907Y-121646124D01*
X113290498Y-121621974D01*
X113258015Y-121589491D01*
X113258012Y-121589489D01*
X113258010Y-121589487D01*
X113132488Y-121517017D01*
X113132489Y-121517017D01*
X113102896Y-121509087D01*
X112992475Y-121479500D01*
X112847525Y-121479500D01*
X112785790Y-121496041D01*
X112707510Y-121517017D01*
X112581989Y-121589487D01*
X112581983Y-121589492D01*
X112543563Y-121627912D01*
X112489046Y-121655689D01*
X112428614Y-121646117D01*
X112418560Y-121640224D01*
X112412595Y-121636238D01*
X112412590Y-121636236D01*
X112412587Y-121636235D01*
X112412586Y-121636235D01*
X112339534Y-121621703D01*
X112339524Y-121621702D01*
X110880476Y-121621702D01*
X110880475Y-121621702D01*
X110880465Y-121621703D01*
X110807413Y-121636235D01*
X110807407Y-121636237D01*
X110775113Y-121657816D01*
X110720112Y-121674500D01*
X109071190Y-121674500D01*
X109012999Y-121655593D01*
X109001186Y-121645504D01*
X108728156Y-121372474D01*
X108450212Y-121094530D01*
X108370288Y-121048386D01*
X108281144Y-121024500D01*
X108281142Y-121024500D01*
X106970250Y-121024500D01*
X106912059Y-121005593D01*
X106883359Y-120972945D01*
X106881626Y-120969771D01*
X106817306Y-120883850D01*
X106799687Y-120860313D01*
X106706120Y-120790270D01*
X106690228Y-120778373D01*
X106690226Y-120778372D01*
X106562114Y-120730588D01*
X106562113Y-120730587D01*
X106523895Y-120726479D01*
X106505485Y-120724500D01*
X106505481Y-120724500D01*
X105914521Y-120724500D01*
X105914515Y-120724501D01*
X105857888Y-120730587D01*
X105857886Y-120730588D01*
X105729774Y-120778372D01*
X105729773Y-120778372D01*
X105729772Y-120778373D01*
X105620315Y-120860311D01*
X105620311Y-120860315D01*
X105538373Y-120969771D01*
X105536641Y-120972945D01*
X105534447Y-120975017D01*
X105534129Y-120975442D01*
X105534055Y-120975386D01*
X105492159Y-121014957D01*
X105449750Y-121024500D01*
X102493760Y-121024500D01*
X102435569Y-121005593D01*
X102408025Y-120975002D01*
X102400510Y-120961987D01*
X102400509Y-120961985D01*
X102298015Y-120859491D01*
X102298012Y-120859489D01*
X102298010Y-120859487D01*
X102172488Y-120787017D01*
X102172489Y-120787017D01*
X102140226Y-120778372D01*
X102032475Y-120749500D01*
X101887525Y-120749500D01*
X101825790Y-120766041D01*
X101747510Y-120787017D01*
X101621989Y-120859487D01*
X101519487Y-120961989D01*
X101447017Y-121087510D01*
X101409500Y-121227525D01*
X92887560Y-121227525D01*
X92887560Y-119599130D01*
X92906467Y-119540939D01*
X92916556Y-119529126D01*
X95166186Y-117279496D01*
X95220703Y-117251719D01*
X95236190Y-117250500D01*
X95322474Y-117250500D01*
X95322475Y-117250500D01*
X95462485Y-117212984D01*
X95462487Y-117212982D01*
X95462489Y-117212982D01*
X95588010Y-117140512D01*
X95588010Y-117140511D01*
X95588015Y-117140509D01*
X95690509Y-117038015D01*
X95755470Y-116925500D01*
X95762982Y-116912489D01*
X95762982Y-116912487D01*
X95762984Y-116912485D01*
X95800500Y-116772475D01*
X95800500Y-116627525D01*
X95762984Y-116487515D01*
X95762982Y-116487512D01*
X95762982Y-116487510D01*
X95690512Y-116361989D01*
X95690510Y-116361987D01*
X95690509Y-116361985D01*
X95588015Y-116259491D01*
X95588012Y-116259489D01*
X95588010Y-116259487D01*
X95462488Y-116187017D01*
X95462489Y-116187017D01*
X95416462Y-116174684D01*
X95322475Y-116149500D01*
X95177525Y-116149500D01*
X95140246Y-116159489D01*
X95037510Y-116187017D01*
X94911989Y-116259487D01*
X94809487Y-116361989D01*
X94737017Y-116487510D01*
X94699500Y-116627525D01*
X94699500Y-116713810D01*
X94680593Y-116772001D01*
X94670504Y-116783814D01*
X92256590Y-119197728D01*
X92243862Y-119219774D01*
X92229355Y-119244900D01*
X92210447Y-119277649D01*
X92210446Y-119277651D01*
X92210446Y-119277652D01*
X92201753Y-119310097D01*
X92186560Y-119366797D01*
X92186560Y-123153909D01*
X92167653Y-123212100D01*
X92157569Y-123223906D01*
X92110741Y-123270735D01*
X92069488Y-123311988D01*
X92069487Y-123311989D01*
X91997017Y-123437510D01*
X91960252Y-123574717D01*
X91959500Y-123577525D01*
X91959500Y-123722475D01*
X91986222Y-123822202D01*
X91997017Y-123862489D01*
X92069487Y-123988010D01*
X92069489Y-123988012D01*
X92069491Y-123988015D01*
X92171985Y-124090509D01*
X92171987Y-124090510D01*
X92171988Y-124090511D01*
X92177134Y-124094460D01*
X92176115Y-124095787D01*
X92211632Y-124135229D01*
X92218029Y-124196079D01*
X92187438Y-124249068D01*
X92131544Y-124273956D01*
X92121192Y-124274499D01*
X90453032Y-124274499D01*
X90394841Y-124255592D01*
X90358877Y-124206092D01*
X90358877Y-124144906D01*
X90383026Y-124105497D01*
X90450509Y-124038015D01*
X90454794Y-124030593D01*
X90522982Y-123912489D01*
X90522982Y-123912487D01*
X90522984Y-123912485D01*
X90560500Y-123772475D01*
X90560500Y-123627525D01*
X90522984Y-123487515D01*
X90522982Y-123487512D01*
X90522982Y-123487510D01*
X90450512Y-123361989D01*
X90450510Y-123361987D01*
X90450509Y-123361985D01*
X90376554Y-123288030D01*
X90348779Y-123233516D01*
X90347560Y-123218029D01*
X90347560Y-120214129D01*
X90366467Y-120155938D01*
X90376556Y-120144125D01*
X93341185Y-117179496D01*
X93395702Y-117151719D01*
X93411189Y-117150500D01*
X93497474Y-117150500D01*
X93497475Y-117150500D01*
X93637485Y-117112984D01*
X93637487Y-117112982D01*
X93637489Y-117112982D01*
X93763010Y-117040512D01*
X93763010Y-117040511D01*
X93763015Y-117040509D01*
X93865509Y-116938015D01*
X93874382Y-116922646D01*
X93937982Y-116812489D01*
X93937982Y-116812487D01*
X93937984Y-116812485D01*
X93975500Y-116672475D01*
X93975500Y-116527525D01*
X93937984Y-116387515D01*
X93937982Y-116387512D01*
X93937982Y-116387510D01*
X93865512Y-116261989D01*
X93865510Y-116261987D01*
X93865509Y-116261985D01*
X93763015Y-116159491D01*
X93763012Y-116159489D01*
X93721005Y-116135236D01*
X93680065Y-116089766D01*
X93673670Y-116028916D01*
X93704263Y-115975928D01*
X93760158Y-115951042D01*
X93770506Y-115950500D01*
X112873810Y-115950500D01*
X112932001Y-115969407D01*
X112943814Y-115979496D01*
X113055504Y-116091186D01*
X113083281Y-116145703D01*
X113084500Y-116161190D01*
X113084500Y-116529274D01*
X113087353Y-116559694D01*
X113087355Y-116559703D01*
X113132207Y-116687883D01*
X113212845Y-116797144D01*
X113212847Y-116797146D01*
X113212850Y-116797150D01*
X113212853Y-116797152D01*
X113212855Y-116797154D01*
X113322116Y-116877792D01*
X113322117Y-116877792D01*
X113322118Y-116877793D01*
X113450301Y-116922646D01*
X113480725Y-116925499D01*
X113480727Y-116925500D01*
X113480734Y-116925500D01*
X114139273Y-116925500D01*
X114139273Y-116925499D01*
X114169699Y-116922646D01*
X114297882Y-116877793D01*
X114407150Y-116797150D01*
X114487793Y-116687882D01*
X114532646Y-116559699D01*
X114535499Y-116529273D01*
X114535500Y-116529273D01*
X114535500Y-116020727D01*
X114535499Y-116020725D01*
X114532646Y-115990301D01*
X114487793Y-115862118D01*
X114407150Y-115752850D01*
X114407146Y-115752847D01*
X114407144Y-115752845D01*
X114297883Y-115672207D01*
X114169703Y-115627355D01*
X114169694Y-115627353D01*
X114139274Y-115624500D01*
X114139266Y-115624500D01*
X113621190Y-115624500D01*
X113562999Y-115605593D01*
X113551187Y-115595504D01*
X113275214Y-115319532D01*
X113275212Y-115319530D01*
X113195288Y-115273386D01*
X113106144Y-115249500D01*
X113106142Y-115249500D01*
X87459500Y-115249500D01*
X87401309Y-115230593D01*
X87365345Y-115181093D01*
X87360500Y-115150500D01*
X87360500Y-114825327D01*
X87360498Y-114825315D01*
X87357015Y-114807808D01*
X87345966Y-114752260D01*
X87290601Y-114669399D01*
X87290599Y-114669397D01*
X87207742Y-114614035D01*
X87207740Y-114614034D01*
X87207737Y-114614033D01*
X87207736Y-114614033D01*
X87134684Y-114599501D01*
X87134674Y-114599500D01*
X86485326Y-114599500D01*
X86485325Y-114599500D01*
X86485315Y-114599501D01*
X86412263Y-114614033D01*
X86412257Y-114614035D01*
X86329400Y-114669397D01*
X86329397Y-114669400D01*
X86274035Y-114752257D01*
X86274033Y-114752263D01*
X86259501Y-114825315D01*
X86259500Y-114825327D01*
X86259500Y-116174672D01*
X86259501Y-116174684D01*
X86274033Y-116247736D01*
X86274035Y-116247742D01*
X86329397Y-116330599D01*
X86329399Y-116330601D01*
X86412260Y-116385966D01*
X86453906Y-116394250D01*
X86485315Y-116400498D01*
X86485320Y-116400498D01*
X86485326Y-116400500D01*
X86485327Y-116400500D01*
X87134673Y-116400500D01*
X87134674Y-116400500D01*
X87207740Y-116385966D01*
X87290601Y-116330601D01*
X87345966Y-116247740D01*
X87360500Y-116174674D01*
X87360500Y-116049500D01*
X87379407Y-115991309D01*
X87428907Y-115955345D01*
X87459500Y-115950500D01*
X93079494Y-115950500D01*
X93137685Y-115969407D01*
X93173649Y-116018907D01*
X93173649Y-116080093D01*
X93137685Y-116129593D01*
X93128995Y-116135236D01*
X93086987Y-116159489D01*
X92984487Y-116261989D01*
X92912017Y-116387510D01*
X92874500Y-116527525D01*
X92874500Y-116613810D01*
X92855593Y-116672001D01*
X92845504Y-116683814D01*
X89716590Y-119812728D01*
X89670446Y-119892652D01*
X89646560Y-119981797D01*
X89646560Y-122368683D01*
X89627653Y-122426874D01*
X89578153Y-122462838D01*
X89516967Y-122462838D01*
X89467467Y-122426874D01*
X89461824Y-122418183D01*
X89400512Y-122311989D01*
X89400510Y-122311987D01*
X89400509Y-122311985D01*
X89298015Y-122209491D01*
X89298012Y-122209489D01*
X89298010Y-122209487D01*
X89172488Y-122137017D01*
X89172489Y-122137017D01*
X89129503Y-122125499D01*
X89032475Y-122099500D01*
X88887525Y-122099500D01*
X88845518Y-122110756D01*
X88747510Y-122137017D01*
X88621989Y-122209487D01*
X88621984Y-122209491D01*
X88560971Y-122270504D01*
X88506454Y-122298281D01*
X88490968Y-122299500D01*
X87345414Y-122299500D01*
X87287223Y-122280593D01*
X87275410Y-122270504D01*
X85296556Y-120291650D01*
X85268779Y-120237133D01*
X85267560Y-120221646D01*
X85267560Y-116465729D01*
X85286467Y-116407538D01*
X85311559Y-116383413D01*
X85343629Y-116361985D01*
X85390599Y-116330601D01*
X85445964Y-116247740D01*
X85460498Y-116174674D01*
X85460498Y-114825326D01*
X85445964Y-114752260D01*
X85390599Y-114669399D01*
X85390597Y-114669397D01*
X85307740Y-114614035D01*
X85307738Y-114614034D01*
X85307735Y-114614033D01*
X85307734Y-114614033D01*
X85234682Y-114599501D01*
X85234672Y-114599500D01*
X84585324Y-114599500D01*
X84585323Y-114599500D01*
X84585313Y-114599501D01*
X84512261Y-114614033D01*
X84512255Y-114614035D01*
X84429398Y-114669397D01*
X84429395Y-114669400D01*
X84374033Y-114752257D01*
X84374031Y-114752263D01*
X84359499Y-114825315D01*
X84359498Y-114825327D01*
X84359498Y-116174672D01*
X84359499Y-116174684D01*
X84374031Y-116247736D01*
X84374033Y-116247742D01*
X84429395Y-116330599D01*
X84429400Y-116330604D01*
X84520365Y-116391383D01*
X84518448Y-116394250D01*
X84551967Y-116422874D01*
X84566560Y-116474608D01*
X84566560Y-120453980D01*
X84590446Y-120543124D01*
X84636590Y-120623048D01*
X86944012Y-122930470D01*
X86983073Y-122953021D01*
X87011667Y-122969531D01*
X87011666Y-122969531D01*
X87020278Y-122974502D01*
X87023936Y-122976614D01*
X87113080Y-123000500D01*
X87113081Y-123000500D01*
X87205368Y-123000500D01*
X88490968Y-123000500D01*
X88549159Y-123019407D01*
X88560971Y-123029496D01*
X88621984Y-123090508D01*
X88621989Y-123090512D01*
X88747511Y-123162982D01*
X88747512Y-123162982D01*
X88747515Y-123162984D01*
X88887525Y-123200500D01*
X88887526Y-123200500D01*
X89032474Y-123200500D01*
X89032475Y-123200500D01*
X89172485Y-123162984D01*
X89172487Y-123162982D01*
X89172489Y-123162982D01*
X89298010Y-123090512D01*
X89298010Y-123090511D01*
X89298015Y-123090509D01*
X89400509Y-122988015D01*
X89400801Y-122987510D01*
X89461824Y-122881816D01*
X89507293Y-122840875D01*
X89568143Y-122834479D01*
X89621131Y-122865072D01*
X89646018Y-122920968D01*
X89646560Y-122931316D01*
X89646560Y-123243908D01*
X89627653Y-123302099D01*
X89617564Y-123313911D01*
X89569491Y-123361983D01*
X89569487Y-123361989D01*
X89497017Y-123487510D01*
X89472174Y-123580226D01*
X89459500Y-123627525D01*
X89459500Y-123772475D01*
X89485443Y-123869294D01*
X89497017Y-123912489D01*
X89569487Y-124038010D01*
X89569489Y-124038012D01*
X89569491Y-124038015D01*
X89671985Y-124140509D01*
X89686573Y-124148931D01*
X89727514Y-124194401D01*
X89733910Y-124255251D01*
X89703317Y-124308239D01*
X89686574Y-124320404D01*
X89644790Y-124344528D01*
X87192549Y-126796767D01*
X87138032Y-126824544D01*
X87111973Y-126825197D01*
X87107586Y-126824725D01*
X87105485Y-126824500D01*
X87105483Y-126824500D01*
X86514521Y-126824500D01*
X86514515Y-126824501D01*
X86457888Y-126830587D01*
X86457886Y-126830588D01*
X86329774Y-126878372D01*
X86329773Y-126878372D01*
X86329772Y-126878373D01*
X86220315Y-126960311D01*
X86220311Y-126960315D01*
X86138373Y-127069771D01*
X86138371Y-127069775D01*
X86132657Y-127085097D01*
X86114891Y-127107468D01*
X86098090Y-127130593D01*
X86095983Y-127131277D01*
X86094606Y-127133012D01*
X86039899Y-127149500D01*
X85856109Y-127149500D01*
X85797918Y-127130593D01*
X85762665Y-127083198D01*
X85737792Y-127012116D01*
X85657154Y-126902855D01*
X85657152Y-126902853D01*
X85657150Y-126902850D01*
X85657146Y-126902847D01*
X85657144Y-126902845D01*
X85547883Y-126822207D01*
X85419703Y-126777355D01*
X85419694Y-126777353D01*
X85389274Y-126774500D01*
X85389266Y-126774500D01*
X84880734Y-126774500D01*
X84880725Y-126774500D01*
X84850305Y-126777353D01*
X84850296Y-126777355D01*
X84722116Y-126822207D01*
X84612855Y-126902845D01*
X84612845Y-126902855D01*
X84532207Y-127012116D01*
X84487355Y-127140296D01*
X84487353Y-127140305D01*
X84484500Y-127170725D01*
X84484500Y-127829274D01*
X84487353Y-127859694D01*
X84487355Y-127859703D01*
X84532207Y-127987883D01*
X84612845Y-128097144D01*
X84612847Y-128097146D01*
X84612850Y-128097150D01*
X84612853Y-128097152D01*
X84612855Y-128097154D01*
X84722116Y-128177792D01*
X84722117Y-128177792D01*
X84722118Y-128177793D01*
X84755635Y-128189521D01*
X84804317Y-128206556D01*
X84852997Y-128243621D01*
X84870594Y-128302222D01*
X84850386Y-128359973D01*
X84804317Y-128393444D01*
X84722116Y-128422207D01*
X84612855Y-128502845D01*
X84612845Y-128502855D01*
X84532207Y-128612116D01*
X84487355Y-128740296D01*
X84487353Y-128740305D01*
X84484500Y-128770725D01*
X84484500Y-129429274D01*
X84487353Y-129459694D01*
X84487355Y-129459703D01*
X84532207Y-129587883D01*
X84612845Y-129697144D01*
X84612847Y-129697146D01*
X84612850Y-129697150D01*
X84612853Y-129697152D01*
X84612855Y-129697154D01*
X84722116Y-129777792D01*
X84722117Y-129777792D01*
X84722118Y-129777793D01*
X84850301Y-129822646D01*
X84880725Y-129825499D01*
X84880727Y-129825500D01*
X84880734Y-129825500D01*
X85389273Y-129825500D01*
X85389273Y-129825499D01*
X85419699Y-129822646D01*
X85547882Y-129777793D01*
X85657150Y-129697150D01*
X85715934Y-129617500D01*
X85737791Y-129587885D01*
X85737792Y-129587883D01*
X85737793Y-129587882D01*
X85745169Y-129566801D01*
X85782233Y-129518122D01*
X85838613Y-129500500D01*
X86066563Y-129500500D01*
X86124754Y-129519407D01*
X86145816Y-129540171D01*
X86220309Y-129639682D01*
X86220313Y-129639687D01*
X86329774Y-129721628D01*
X86457886Y-129769412D01*
X86514515Y-129775500D01*
X87105484Y-129775499D01*
X87162114Y-129769412D01*
X87290226Y-129721628D01*
X87399687Y-129639687D01*
X87481628Y-129530226D01*
X87529412Y-129402114D01*
X87535500Y-129345485D01*
X87535499Y-129036188D01*
X87554406Y-128977999D01*
X87564489Y-128966191D01*
X88555864Y-127974816D01*
X88610379Y-127947041D01*
X88670811Y-127956612D01*
X88714076Y-127999877D01*
X88723647Y-128060309D01*
X88721493Y-128070445D01*
X88712908Y-128102486D01*
X88699500Y-128152525D01*
X88699500Y-128297475D01*
X88716674Y-128361568D01*
X88737017Y-128437489D01*
X88809487Y-128563010D01*
X88809489Y-128563012D01*
X88809491Y-128563015D01*
X88877305Y-128630829D01*
X88905081Y-128685344D01*
X88906300Y-128700831D01*
X88906300Y-131455010D01*
X88887393Y-131513201D01*
X88877304Y-131525014D01*
X86990003Y-133412314D01*
X86935486Y-133440091D01*
X86875054Y-133430520D01*
X86849998Y-133412316D01*
X86407212Y-132969530D01*
X86327288Y-132923386D01*
X86238144Y-132899500D01*
X86238142Y-132899500D01*
X84796109Y-132899500D01*
X84737918Y-132880593D01*
X84702665Y-132833198D01*
X84685313Y-132783609D01*
X84677793Y-132762118D01*
X84632524Y-132700781D01*
X84597154Y-132652855D01*
X84597152Y-132652853D01*
X84597150Y-132652850D01*
X84597146Y-132652847D01*
X84597144Y-132652845D01*
X84487883Y-132572207D01*
X84359703Y-132527355D01*
X84359694Y-132527353D01*
X84329274Y-132524500D01*
X84329266Y-132524500D01*
X83820734Y-132524500D01*
X83820725Y-132524500D01*
X83790305Y-132527353D01*
X83790296Y-132527355D01*
X83662116Y-132572207D01*
X83552855Y-132652845D01*
X83552845Y-132652855D01*
X83472207Y-132762116D01*
X83427355Y-132890296D01*
X83427353Y-132890305D01*
X83424500Y-132920725D01*
X83424500Y-133579274D01*
X83427353Y-133609694D01*
X83427355Y-133609703D01*
X83472207Y-133737883D01*
X83552845Y-133847144D01*
X83552847Y-133847146D01*
X83552850Y-133847150D01*
X83552853Y-133847152D01*
X83552855Y-133847154D01*
X83662116Y-133927792D01*
X83662117Y-133927792D01*
X83662118Y-133927793D01*
X83790301Y-133972646D01*
X83820725Y-133975499D01*
X83820727Y-133975500D01*
X83820734Y-133975500D01*
X84329273Y-133975500D01*
X84329273Y-133975499D01*
X84359699Y-133972646D01*
X84487882Y-133927793D01*
X84597150Y-133847150D01*
X84677793Y-133737882D01*
X84702665Y-133666802D01*
X84739730Y-133618122D01*
X84796109Y-133600500D01*
X86005810Y-133600500D01*
X86064001Y-133619407D01*
X86075814Y-133629496D01*
X86540504Y-134094186D01*
X86568281Y-134148703D01*
X86569500Y-134164190D01*
X86569500Y-137350500D01*
X86550593Y-137408691D01*
X86501093Y-137444655D01*
X86470500Y-137449500D01*
X86045326Y-137449500D01*
X86045325Y-137449500D01*
X86045315Y-137449501D01*
X85972263Y-137464033D01*
X85972257Y-137464035D01*
X85889400Y-137519397D01*
X85889397Y-137519400D01*
X85834035Y-137602257D01*
X85834033Y-137602263D01*
X85819501Y-137675315D01*
X85819500Y-137675327D01*
X85819500Y-138100500D01*
X85800593Y-138158691D01*
X85751093Y-138194655D01*
X85720500Y-138199500D01*
X79699546Y-138199500D01*
X79641355Y-138180593D01*
X79605392Y-138131095D01*
X79579873Y-138052555D01*
X79501232Y-137898212D01*
X79399414Y-137758072D01*
X79276928Y-137635586D01*
X79136788Y-137533768D01*
X79136787Y-137533767D01*
X79136785Y-137533766D01*
X78982441Y-137455125D01*
X78982438Y-137455123D01*
X78817706Y-137401598D01*
X78817702Y-137401597D01*
X78646614Y-137374500D01*
X78646611Y-137374500D01*
X78473389Y-137374500D01*
X78473386Y-137374500D01*
X78302297Y-137401597D01*
X78302293Y-137401598D01*
X78137561Y-137455123D01*
X78137558Y-137455125D01*
X77983214Y-137533766D01*
X77843073Y-137635585D01*
X77720585Y-137758073D01*
X77618766Y-137898214D01*
X77540125Y-138052558D01*
X77540123Y-138052561D01*
X77486598Y-138217293D01*
X77486597Y-138217297D01*
X77459501Y-138388378D01*
X77459500Y-138388384D01*
X77459500Y-138561614D01*
X77486597Y-138732702D01*
X77486598Y-138732706D01*
X77540123Y-138897438D01*
X77540125Y-138897441D01*
X77589909Y-138995150D01*
X77618768Y-139051788D01*
X77720586Y-139191928D01*
X77843072Y-139314414D01*
X77968209Y-139405332D01*
X78004173Y-139454831D01*
X78004173Y-139516017D01*
X77968209Y-139565517D01*
X77910018Y-139584424D01*
X76754195Y-139584424D01*
X76696004Y-139565517D01*
X76660040Y-139516017D01*
X76660040Y-139454831D01*
X76678541Y-139429365D01*
X76679488Y-139417331D01*
X76205176Y-138943019D01*
X76212993Y-138940925D01*
X76327007Y-138875099D01*
X76420099Y-138782007D01*
X76485925Y-138667993D01*
X76488019Y-138660176D01*
X76962330Y-139134487D01*
X77003569Y-139077728D01*
X77085749Y-138916440D01*
X77141683Y-138744289D01*
X77170000Y-138565510D01*
X77170000Y-138384489D01*
X77141683Y-138205710D01*
X77085749Y-138033559D01*
X77003571Y-137872275D01*
X76962330Y-137815511D01*
X76488019Y-138289821D01*
X76485925Y-138282007D01*
X76420099Y-138167993D01*
X76327007Y-138074901D01*
X76212993Y-138009075D01*
X76205174Y-138006980D01*
X76679488Y-137532667D01*
X76622728Y-137491430D01*
X76461440Y-137409250D01*
X76289289Y-137353316D01*
X76110510Y-137325000D01*
X75929490Y-137325000D01*
X75750710Y-137353316D01*
X75578559Y-137409250D01*
X75417267Y-137491432D01*
X75360510Y-137532667D01*
X75834823Y-138006980D01*
X75827007Y-138009075D01*
X75712993Y-138074901D01*
X75619901Y-138167993D01*
X75554075Y-138282007D01*
X75551980Y-138289823D01*
X75077667Y-137815510D01*
X75036432Y-137872267D01*
X74954250Y-138033559D01*
X74898316Y-138205710D01*
X74870000Y-138384489D01*
X74870000Y-138565510D01*
X74898316Y-138744289D01*
X74954250Y-138916440D01*
X75036430Y-139077728D01*
X75077667Y-139134488D01*
X75551980Y-138660174D01*
X75554075Y-138667993D01*
X75619901Y-138782007D01*
X75712993Y-138875099D01*
X75827007Y-138940925D01*
X75834821Y-138943019D01*
X75360510Y-139417331D01*
X75361457Y-139429368D01*
X75379957Y-139454830D01*
X75379958Y-139516015D01*
X75343995Y-139565516D01*
X75285805Y-139584424D01*
X74129982Y-139584424D01*
X74071791Y-139565517D01*
X74035827Y-139516017D01*
X74035827Y-139454831D01*
X74071790Y-139405332D01*
X74196928Y-139314414D01*
X74319414Y-139191928D01*
X74421232Y-139051788D01*
X74499873Y-138897445D01*
X74499874Y-138897440D01*
X74499876Y-138897438D01*
X74553401Y-138732706D01*
X74553402Y-138732702D01*
X74580500Y-138561614D01*
X74580500Y-138388385D01*
X74553402Y-138217297D01*
X74553401Y-138217293D01*
X74499876Y-138052563D01*
X74499872Y-138052553D01*
X74498186Y-138049244D01*
X74488611Y-137988813D01*
X74516386Y-137934295D01*
X74516385Y-137934295D01*
X78821186Y-133629496D01*
X78875703Y-133601719D01*
X78891190Y-133600500D01*
X81703891Y-133600500D01*
X81762082Y-133619407D01*
X81797335Y-133666802D01*
X81822207Y-133737883D01*
X81902845Y-133847144D01*
X81902847Y-133847146D01*
X81902850Y-133847150D01*
X81902853Y-133847152D01*
X81902855Y-133847154D01*
X82012116Y-133927792D01*
X82012117Y-133927792D01*
X82012118Y-133927793D01*
X82140301Y-133972646D01*
X82170725Y-133975499D01*
X82170727Y-133975500D01*
X82170734Y-133975500D01*
X82679273Y-133975500D01*
X82679273Y-133975499D01*
X82709699Y-133972646D01*
X82837882Y-133927793D01*
X82947150Y-133847150D01*
X83027793Y-133737882D01*
X83072646Y-133609699D01*
X83075499Y-133579273D01*
X83075500Y-133579273D01*
X83075500Y-132920727D01*
X83075499Y-132920725D01*
X83072646Y-132890301D01*
X83027793Y-132762118D01*
X82982524Y-132700781D01*
X82947154Y-132652855D01*
X82947152Y-132652853D01*
X82947150Y-132652850D01*
X82947146Y-132652847D01*
X82947144Y-132652845D01*
X82837885Y-132572208D01*
X82831324Y-132568741D01*
X82832507Y-132566502D01*
X82793118Y-132536508D01*
X82775500Y-132480134D01*
X82775500Y-130346189D01*
X82794407Y-130287998D01*
X82804496Y-130276185D01*
X83226185Y-129854496D01*
X83280702Y-129826719D01*
X83296189Y-129825500D01*
X83739273Y-129825500D01*
X83739273Y-129825499D01*
X83769699Y-129822646D01*
X83897882Y-129777793D01*
X84007150Y-129697150D01*
X84087793Y-129587882D01*
X84132646Y-129459699D01*
X84135499Y-129429273D01*
X84135500Y-129429273D01*
X84135500Y-128770727D01*
X84135499Y-128770725D01*
X84134256Y-128757467D01*
X84132646Y-128740301D01*
X84087793Y-128612118D01*
X84080949Y-128602845D01*
X84007154Y-128502855D01*
X84007152Y-128502853D01*
X84007150Y-128502850D01*
X84007146Y-128502847D01*
X84007144Y-128502845D01*
X83897883Y-128422207D01*
X83815682Y-128393444D01*
X83767002Y-128356379D01*
X83749405Y-128297779D01*
X83769613Y-128240027D01*
X83815682Y-128206556D01*
X83842551Y-128197154D01*
X83897882Y-128177793D01*
X84007150Y-128097150D01*
X84087793Y-127987882D01*
X84132646Y-127859699D01*
X84135499Y-127829273D01*
X84135500Y-127829273D01*
X84135500Y-127170727D01*
X84135499Y-127170725D01*
X84134712Y-127162333D01*
X84132646Y-127140301D01*
X84087793Y-127012118D01*
X84080949Y-127002845D01*
X84007154Y-126902855D01*
X84007152Y-126902853D01*
X84007150Y-126902850D01*
X84007146Y-126902847D01*
X84007144Y-126902845D01*
X83897883Y-126822207D01*
X83769703Y-126777355D01*
X83769694Y-126777353D01*
X83739274Y-126774500D01*
X83739266Y-126774500D01*
X83230734Y-126774500D01*
X83230725Y-126774500D01*
X83200305Y-126777353D01*
X83200296Y-126777355D01*
X83072116Y-126822207D01*
X82962855Y-126902845D01*
X82962845Y-126902855D01*
X82882207Y-127012116D01*
X82857335Y-127083198D01*
X82820270Y-127131878D01*
X82763891Y-127149500D01*
X82449500Y-127149500D01*
X82391309Y-127130593D01*
X82355345Y-127081093D01*
X82350500Y-127050500D01*
X82350500Y-126296109D01*
X82369407Y-126237918D01*
X82416802Y-126202665D01*
X82428452Y-126198588D01*
X82487882Y-126177793D01*
X82597150Y-126097150D01*
X82677793Y-125987882D01*
X82722646Y-125859699D01*
X82725499Y-125829273D01*
X82725500Y-125829273D01*
X82725500Y-125320727D01*
X82725499Y-125320725D01*
X82722646Y-125290305D01*
X82722646Y-125290301D01*
X82677793Y-125162118D01*
X82671050Y-125152982D01*
X82597154Y-125052855D01*
X82597152Y-125052853D01*
X82597150Y-125052850D01*
X82597146Y-125052847D01*
X82597144Y-125052845D01*
X82487883Y-124972207D01*
X82359703Y-124927355D01*
X82359694Y-124927353D01*
X82329274Y-124924500D01*
X82329266Y-124924500D01*
X81670734Y-124924500D01*
X81670725Y-124924500D01*
X81640305Y-124927353D01*
X81640296Y-124927355D01*
X81512116Y-124972207D01*
X81402855Y-125052845D01*
X81402845Y-125052855D01*
X81322207Y-125162116D01*
X81277355Y-125290296D01*
X81277353Y-125290305D01*
X81274500Y-125320725D01*
X81274500Y-125829274D01*
X81277353Y-125859694D01*
X81277355Y-125859703D01*
X81322207Y-125987883D01*
X81402845Y-126097144D01*
X81402847Y-126097146D01*
X81402850Y-126097150D01*
X81402853Y-126097152D01*
X81402855Y-126097154D01*
X81512116Y-126177792D01*
X81512117Y-126177792D01*
X81512118Y-126177793D01*
X81538476Y-126187016D01*
X81583198Y-126202665D01*
X81631878Y-126239730D01*
X81649500Y-126296109D01*
X81649500Y-127427632D01*
X81648035Y-127427632D01*
X81638242Y-127480474D01*
X81620575Y-127503901D01*
X71589989Y-137346164D01*
X71535212Y-137373424D01*
X71520652Y-137374500D01*
X70065326Y-137374500D01*
X70065325Y-137374500D01*
X70065315Y-137374501D01*
X69992263Y-137389033D01*
X69992257Y-137389035D01*
X69909400Y-137444397D01*
X69909397Y-137444400D01*
X69854035Y-137527257D01*
X69854033Y-137527263D01*
X69839501Y-137600315D01*
X69839500Y-137600327D01*
X69839500Y-139349672D01*
X69839501Y-139349684D01*
X69854033Y-139422736D01*
X69854035Y-139422742D01*
X69859168Y-139430424D01*
X69875775Y-139489313D01*
X69854596Y-139546716D01*
X69803721Y-139580708D01*
X69776851Y-139584424D01*
X56842742Y-139584424D01*
X56784551Y-139565517D01*
X56748587Y-139516017D01*
X56748020Y-139456635D01*
X56748569Y-139454831D01*
X61393336Y-124172824D01*
X81224999Y-124172824D01*
X81231401Y-124232370D01*
X81231403Y-124232381D01*
X81281646Y-124367088D01*
X81281647Y-124367090D01*
X81367807Y-124482184D01*
X81367815Y-124482192D01*
X81482909Y-124568352D01*
X81482911Y-124568353D01*
X81617618Y-124618596D01*
X81617629Y-124618598D01*
X81677176Y-124625000D01*
X81799999Y-124625000D01*
X81800000Y-124624999D01*
X81800000Y-124125001D01*
X82200000Y-124125001D01*
X82200000Y-124624999D01*
X82200001Y-124625000D01*
X82322824Y-124625000D01*
X82382370Y-124618598D01*
X82382381Y-124618596D01*
X82517088Y-124568353D01*
X82517090Y-124568352D01*
X82632184Y-124482192D01*
X82632192Y-124482184D01*
X82718352Y-124367090D01*
X82718353Y-124367088D01*
X82768596Y-124232381D01*
X82768598Y-124232370D01*
X82775000Y-124172824D01*
X82775000Y-124125001D01*
X82774999Y-124125000D01*
X82200001Y-124125000D01*
X82200000Y-124125001D01*
X81800000Y-124125001D01*
X81799999Y-124125000D01*
X81225001Y-124125000D01*
X81225000Y-124125001D01*
X81225000Y-124172824D01*
X81224999Y-124172824D01*
X61393336Y-124172824D01*
X61507402Y-123797530D01*
X61543982Y-123677175D01*
X81225000Y-123677175D01*
X81225000Y-123724999D01*
X81225001Y-123725000D01*
X81799999Y-123725000D01*
X81800000Y-123724999D01*
X81800000Y-123225001D01*
X82200000Y-123225001D01*
X82200000Y-123724999D01*
X82200001Y-123725000D01*
X82774999Y-123725000D01*
X82775000Y-123724999D01*
X82775000Y-123677175D01*
X82768598Y-123617629D01*
X82768596Y-123617618D01*
X82718353Y-123482911D01*
X82718352Y-123482909D01*
X82632192Y-123367815D01*
X82632184Y-123367807D01*
X82517090Y-123281647D01*
X82517088Y-123281646D01*
X82382381Y-123231403D01*
X82382370Y-123231401D01*
X82322824Y-123225000D01*
X82200001Y-123225000D01*
X82200000Y-123225001D01*
X81800000Y-123225001D01*
X81799999Y-123225000D01*
X81677176Y-123225000D01*
X81617629Y-123231401D01*
X81617618Y-123231403D01*
X81482911Y-123281646D01*
X81482909Y-123281647D01*
X81367815Y-123367807D01*
X81367807Y-123367815D01*
X81281647Y-123482909D01*
X81281646Y-123482911D01*
X81231403Y-123617618D01*
X81231401Y-123617629D01*
X81225000Y-123677175D01*
X61543982Y-123677175D01*
X61553539Y-123645732D01*
X63496916Y-117251719D01*
X64606808Y-113600001D01*
X85260000Y-113600001D01*
X85260000Y-114094791D01*
X85262908Y-114119874D01*
X85308212Y-114222477D01*
X85387521Y-114301786D01*
X85490126Y-114347090D01*
X85515202Y-114349999D01*
X85659999Y-114349999D01*
X85659999Y-113600001D01*
X86059999Y-113600001D01*
X86059999Y-114349998D01*
X86060000Y-114349999D01*
X86204789Y-114349999D01*
X86204790Y-114349998D01*
X86229873Y-114347090D01*
X86332476Y-114301786D01*
X86411785Y-114222477D01*
X86457089Y-114119872D01*
X86459998Y-114094797D01*
X86459999Y-114094795D01*
X86459999Y-113600001D01*
X86459998Y-113600000D01*
X86060000Y-113600000D01*
X86059999Y-113600001D01*
X85659999Y-113600001D01*
X85659998Y-113600000D01*
X85260001Y-113600000D01*
X85260000Y-113600001D01*
X64606808Y-113600001D01*
X64878771Y-112705202D01*
X85259999Y-112705202D01*
X85259999Y-113199999D01*
X85260000Y-113200000D01*
X85659998Y-113200000D01*
X85659999Y-113199999D01*
X85659999Y-112450001D01*
X86059999Y-112450001D01*
X86059999Y-113199999D01*
X86060000Y-113200000D01*
X86459997Y-113200000D01*
X86459998Y-113199999D01*
X86459998Y-112705210D01*
X86459997Y-112705208D01*
X86457089Y-112680125D01*
X86411785Y-112577522D01*
X86332476Y-112498213D01*
X86229871Y-112452909D01*
X86204796Y-112450000D01*
X86060000Y-112450000D01*
X86059999Y-112450001D01*
X85659999Y-112450001D01*
X85659998Y-112450000D01*
X85515209Y-112450000D01*
X85515206Y-112450001D01*
X85490124Y-112452909D01*
X85387521Y-112498213D01*
X85308212Y-112577522D01*
X85262908Y-112680127D01*
X85259999Y-112705202D01*
X64878771Y-112705202D01*
X75835720Y-76655134D01*
X75870733Y-76604957D01*
X75928552Y-76584942D01*
X75930442Y-76584924D01*
X107578600Y-76584924D01*
X107631175Y-76600038D01*
G37*
%TD.AperFunction*%
%TA.AperFunction,Conductor*%
G36*
X82822082Y-127869407D02*
G01*
X82857335Y-127916802D01*
X82882207Y-127987883D01*
X82962845Y-128097144D01*
X82962847Y-128097146D01*
X82962850Y-128097150D01*
X82962853Y-128097152D01*
X82962855Y-128097154D01*
X83072116Y-128177792D01*
X83072117Y-128177792D01*
X83072118Y-128177793D01*
X83105635Y-128189521D01*
X83154317Y-128206556D01*
X83202997Y-128243621D01*
X83220594Y-128302222D01*
X83200386Y-128359973D01*
X83154317Y-128393444D01*
X83072116Y-128422207D01*
X82962855Y-128502845D01*
X82962845Y-128502855D01*
X82882207Y-128612116D01*
X82837355Y-128740296D01*
X82837353Y-128740305D01*
X82834500Y-128770725D01*
X82834500Y-129213810D01*
X82815593Y-129272001D01*
X82805504Y-129283814D01*
X82144530Y-129944788D01*
X82098386Y-130024712D01*
X82079418Y-130095504D01*
X82074500Y-130113857D01*
X82074500Y-132480134D01*
X82055593Y-132538325D01*
X82017554Y-132566619D01*
X82018676Y-132568741D01*
X82012114Y-132572208D01*
X81902855Y-132652845D01*
X81902845Y-132652855D01*
X81822207Y-132762116D01*
X81797335Y-132833198D01*
X81760270Y-132881878D01*
X81703891Y-132899500D01*
X78658856Y-132899500D01*
X78569712Y-132923386D01*
X78489788Y-132969530D01*
X74020707Y-137438609D01*
X73966190Y-137466386D01*
X73905759Y-137456815D01*
X73902447Y-137455127D01*
X73902438Y-137455123D01*
X73737706Y-137401598D01*
X73737702Y-137401597D01*
X73566614Y-137374500D01*
X73566611Y-137374500D01*
X73393389Y-137374500D01*
X73393386Y-137374500D01*
X73222297Y-137401597D01*
X73222293Y-137401598D01*
X73057561Y-137455123D01*
X73057558Y-137455125D01*
X72903214Y-137533766D01*
X72763073Y-137635585D01*
X72640585Y-137758073D01*
X72538766Y-137898214D01*
X72460125Y-138052558D01*
X72460123Y-138052561D01*
X72406598Y-138217293D01*
X72406597Y-138217297D01*
X72379501Y-138388378D01*
X72379500Y-138388384D01*
X72379500Y-138561614D01*
X72406597Y-138732702D01*
X72406598Y-138732706D01*
X72460123Y-138897438D01*
X72460125Y-138897441D01*
X72509909Y-138995150D01*
X72538768Y-139051788D01*
X72640586Y-139191928D01*
X72763072Y-139314414D01*
X72888209Y-139405332D01*
X72924173Y-139454831D01*
X72924173Y-139516017D01*
X72888209Y-139565517D01*
X72830018Y-139584424D01*
X72103149Y-139584424D01*
X72044958Y-139565517D01*
X72008994Y-139516017D01*
X72008994Y-139454831D01*
X72020832Y-139430424D01*
X72024669Y-139424681D01*
X72025966Y-139422740D01*
X72040500Y-139349674D01*
X72040500Y-137927769D01*
X72059407Y-137869578D01*
X72070157Y-137857111D01*
X81017737Y-129077525D01*
X82239362Y-127878836D01*
X82294139Y-127851576D01*
X82308699Y-127850500D01*
X82763891Y-127850500D01*
X82822082Y-127869407D01*
G37*
%TD.AperFunction*%
%TA.AperFunction,Conductor*%
G36*
X111563414Y-129894300D02*
G01*
X111588759Y-129898314D01*
X111592551Y-129902106D01*
X111597733Y-129903495D01*
X111613879Y-129923434D01*
X111632024Y-129941579D01*
X111632863Y-129946877D01*
X111636238Y-129951045D01*
X111637581Y-129976667D01*
X111641595Y-130002011D01*
X111639441Y-130012147D01*
X111617100Y-130095525D01*
X111617100Y-130181810D01*
X111598193Y-130240001D01*
X111588104Y-130251814D01*
X109499530Y-132340388D01*
X109453386Y-132420312D01*
X109429500Y-132509457D01*
X109429500Y-137350500D01*
X109410593Y-137408691D01*
X109361093Y-137444655D01*
X109330500Y-137449500D01*
X108905326Y-137449500D01*
X108905325Y-137449500D01*
X108905315Y-137449501D01*
X108832263Y-137464033D01*
X108832257Y-137464035D01*
X108749400Y-137519397D01*
X108749397Y-137519400D01*
X108694035Y-137602257D01*
X108694033Y-137602263D01*
X108679501Y-137675315D01*
X108679500Y-137675327D01*
X108679500Y-139424681D01*
X108687742Y-139466108D01*
X108680552Y-139526869D01*
X108639020Y-139571800D01*
X108590645Y-139584424D01*
X103349355Y-139584424D01*
X103291164Y-139565517D01*
X103255200Y-139516017D01*
X103252258Y-139466108D01*
X103260499Y-139424681D01*
X103260500Y-139424672D01*
X103260500Y-137675327D01*
X103260498Y-137675315D01*
X103251509Y-137630127D01*
X103245966Y-137602260D01*
X103213776Y-137554083D01*
X103190602Y-137519400D01*
X103190599Y-137519397D01*
X103107742Y-137464035D01*
X103107740Y-137464034D01*
X103107737Y-137464033D01*
X103107736Y-137464033D01*
X103034684Y-137449501D01*
X103034674Y-137449500D01*
X101285326Y-137449500D01*
X101285325Y-137449500D01*
X101285315Y-137449501D01*
X101212263Y-137464033D01*
X101212257Y-137464035D01*
X101129400Y-137519397D01*
X101129397Y-137519400D01*
X101074035Y-137602257D01*
X101074033Y-137602263D01*
X101059501Y-137675315D01*
X101059500Y-137675327D01*
X101059500Y-139424681D01*
X101067742Y-139466108D01*
X101060552Y-139526869D01*
X101019020Y-139571800D01*
X100970645Y-139584424D01*
X95784950Y-139584424D01*
X95726759Y-139565517D01*
X95690795Y-139516017D01*
X95686610Y-139474014D01*
X95689999Y-139444797D01*
X95690000Y-139444795D01*
X95690000Y-138750001D01*
X95689999Y-138750000D01*
X95001880Y-138750000D01*
X95005925Y-138742993D01*
X95040000Y-138615826D01*
X95040000Y-138484174D01*
X95005925Y-138357007D01*
X95001880Y-138350000D01*
X95689998Y-138350000D01*
X95689999Y-138349999D01*
X95689999Y-137655210D01*
X95689998Y-137655208D01*
X95687090Y-137630125D01*
X95641786Y-137527522D01*
X95562477Y-137448213D01*
X95459872Y-137402909D01*
X95434797Y-137400000D01*
X94740001Y-137400000D01*
X94740000Y-137400001D01*
X94740000Y-138088120D01*
X94732993Y-138084075D01*
X94605826Y-138050000D01*
X94474174Y-138050000D01*
X94347007Y-138084075D01*
X94340000Y-138088120D01*
X94340000Y-137400001D01*
X94339999Y-137400000D01*
X93645210Y-137400000D01*
X93645207Y-137400001D01*
X93620125Y-137402909D01*
X93517522Y-137448213D01*
X93438213Y-137527522D01*
X93392909Y-137630127D01*
X93390000Y-137655202D01*
X93390000Y-138349999D01*
X93390001Y-138350000D01*
X94078120Y-138350000D01*
X94074075Y-138357007D01*
X94040000Y-138484174D01*
X94040000Y-138615826D01*
X94074075Y-138742993D01*
X94078120Y-138750000D01*
X93390002Y-138750000D01*
X93390001Y-138750001D01*
X93390001Y-139444788D01*
X93393391Y-139474018D01*
X93381313Y-139534000D01*
X93336286Y-139575427D01*
X93295050Y-139584424D01*
X88109355Y-139584424D01*
X88051164Y-139565517D01*
X88015200Y-139516017D01*
X88012258Y-139466108D01*
X88020499Y-139424681D01*
X88020500Y-139424672D01*
X88020500Y-137675327D01*
X88020499Y-137675323D01*
X88020497Y-137675315D01*
X88005966Y-137602260D01*
X87973776Y-137554083D01*
X87950602Y-137519400D01*
X87950599Y-137519397D01*
X87867742Y-137464035D01*
X87867740Y-137464034D01*
X87867737Y-137464033D01*
X87867736Y-137464033D01*
X87794684Y-137449501D01*
X87794674Y-137449500D01*
X87794673Y-137449500D01*
X87369500Y-137449500D01*
X87311309Y-137430593D01*
X87275345Y-137381093D01*
X87270500Y-137350500D01*
X87270500Y-134164189D01*
X87289407Y-134105998D01*
X87299496Y-134094185D01*
X89372985Y-132020696D01*
X89427502Y-131992919D01*
X89442989Y-131991700D01*
X109299592Y-131991700D01*
X109299594Y-131991700D01*
X109388738Y-131967814D01*
X109468662Y-131921670D01*
X111473814Y-129916517D01*
X111478590Y-129914084D01*
X111481511Y-129909587D01*
X111505462Y-129900392D01*
X111528327Y-129888743D01*
X111533624Y-129889582D01*
X111538632Y-129887660D01*
X111563414Y-129894300D01*
G37*
%TD.AperFunction*%
%TA.AperFunction,Conductor*%
G36*
X140387003Y-114719407D02*
G01*
X140422967Y-114768907D01*
X140424439Y-114773876D01*
X140447282Y-114859126D01*
X140472801Y-114920735D01*
X140472803Y-114920739D01*
X140472805Y-114920743D01*
X140538631Y-115034757D01*
X140538633Y-115034760D01*
X140579229Y-115087666D01*
X140579231Y-115087668D01*
X140579235Y-115087673D01*
X140672327Y-115180765D01*
X140672331Y-115180768D01*
X140672333Y-115180770D01*
X140672754Y-115181093D01*
X140725243Y-115221369D01*
X140839257Y-115287195D01*
X140839263Y-115287197D01*
X140839264Y-115287198D01*
X140900874Y-115312718D01*
X140900875Y-115312718D01*
X140900877Y-115312719D01*
X141028044Y-115346794D01*
X141094174Y-115355500D01*
X141094175Y-115355500D01*
X141606481Y-115355500D01*
X141664672Y-115374407D01*
X141700636Y-115423907D01*
X141705465Y-115456247D01*
X141647132Y-118756693D01*
X141627199Y-118814540D01*
X141577071Y-118849624D01*
X141548147Y-118853943D01*
X141085389Y-118853943D01*
X141019268Y-118862648D01*
X141019263Y-118862648D01*
X140892091Y-118896724D01*
X140830481Y-118922244D01*
X140716456Y-118988076D01*
X140663550Y-119028672D01*
X140570446Y-119121776D01*
X140529850Y-119174682D01*
X140464018Y-119288707D01*
X140438499Y-119350316D01*
X140438498Y-119350320D01*
X140422802Y-119408899D01*
X140415656Y-119435567D01*
X140382331Y-119486881D01*
X140325210Y-119508807D01*
X140320029Y-119508943D01*
X136054413Y-119508943D01*
X135965269Y-119532829D01*
X135965268Y-119532829D01*
X135965266Y-119532830D01*
X135885347Y-119578972D01*
X131443814Y-124020504D01*
X131389297Y-124048281D01*
X131373810Y-124049500D01*
X126788184Y-124049500D01*
X126729993Y-124030593D01*
X126694029Y-123981093D01*
X126694029Y-123919907D01*
X126729993Y-123870407D01*
X126751865Y-123858402D01*
X126869729Y-123811922D01*
X126984717Y-123724723D01*
X126984723Y-123724717D01*
X127071922Y-123609729D01*
X127124867Y-123475468D01*
X127134999Y-123391104D01*
X127135000Y-123391100D01*
X127135000Y-123300001D01*
X127134999Y-123300000D01*
X126484000Y-123300000D01*
X126425809Y-123281093D01*
X126389845Y-123231593D01*
X126385000Y-123201000D01*
X126385000Y-123100001D01*
X126384999Y-123100000D01*
X126284000Y-123100000D01*
X126225809Y-123081093D01*
X126189845Y-123031593D01*
X126185000Y-123001000D01*
X126185000Y-122325001D01*
X126585000Y-122325001D01*
X126585000Y-122899999D01*
X126585001Y-122900000D01*
X127134999Y-122900000D01*
X127135000Y-122899999D01*
X127135000Y-122808899D01*
X127134999Y-122808895D01*
X127124867Y-122724531D01*
X127071922Y-122590270D01*
X126984723Y-122475282D01*
X126984717Y-122475276D01*
X126869729Y-122388077D01*
X126735468Y-122335132D01*
X126651104Y-122325000D01*
X126585001Y-122325000D01*
X126585000Y-122325001D01*
X126185000Y-122325001D01*
X126184999Y-122325000D01*
X126118895Y-122325000D01*
X126034531Y-122335132D01*
X125900270Y-122388077D01*
X125785282Y-122475276D01*
X125785276Y-122475282D01*
X125698077Y-122590271D01*
X125698076Y-122590273D01*
X125675854Y-122646623D01*
X125636917Y-122693820D01*
X125577675Y-122709116D01*
X125520755Y-122686669D01*
X125491000Y-122644901D01*
X125481628Y-122619774D01*
X125399687Y-122510313D01*
X125346519Y-122470512D01*
X125290228Y-122428373D01*
X125290226Y-122428372D01*
X125162114Y-122380588D01*
X125162113Y-122380587D01*
X125123895Y-122376479D01*
X125105485Y-122374500D01*
X125105481Y-122374500D01*
X124564521Y-122374500D01*
X124564515Y-122374501D01*
X124507888Y-122380587D01*
X124507886Y-122380588D01*
X124379774Y-122428372D01*
X124379773Y-122428372D01*
X124379772Y-122428373D01*
X124270315Y-122510311D01*
X124270311Y-122510315D01*
X124188373Y-122619771D01*
X124140587Y-122747887D01*
X124134500Y-122804515D01*
X124134500Y-122875502D01*
X124115593Y-122933693D01*
X124066093Y-122969657D01*
X124035500Y-122974502D01*
X118619350Y-122974502D01*
X118561159Y-122955595D01*
X118525195Y-122906095D01*
X118520783Y-122878237D01*
X118520349Y-122877803D01*
X116510652Y-122877803D01*
X116510651Y-122877804D01*
X116510651Y-122922594D01*
X116513559Y-122947677D01*
X116560450Y-123053874D01*
X116566983Y-123113175D01*
X116560150Y-123147524D01*
X116560150Y-123552476D01*
X116560151Y-123552488D01*
X116574683Y-123625540D01*
X116574684Y-123625544D01*
X116574685Y-123625546D01*
X116578417Y-123634556D01*
X116575433Y-123635791D01*
X116587589Y-123678886D01*
X116576034Y-123714467D01*
X116578416Y-123715454D01*
X116574683Y-123724466D01*
X116560151Y-123797518D01*
X116560150Y-123797530D01*
X116560150Y-124202475D01*
X116560151Y-124202487D01*
X116574368Y-124273956D01*
X116574684Y-124275543D01*
X116574685Y-124275545D01*
X116578416Y-124284552D01*
X116575434Y-124285786D01*
X116587589Y-124328895D01*
X116576034Y-124364476D01*
X116578413Y-124365462D01*
X116574683Y-124374464D01*
X116560150Y-124447527D01*
X116560150Y-124850503D01*
X116541243Y-124908694D01*
X116491743Y-124944658D01*
X116461150Y-124949503D01*
X116272439Y-124949503D01*
X116187706Y-124972207D01*
X116185114Y-124972901D01*
X116183297Y-124973388D01*
X116183295Y-124973388D01*
X116183295Y-124973389D01*
X116179635Y-124975502D01*
X116103370Y-125019534D01*
X115634438Y-125488465D01*
X115593888Y-125558701D01*
X115588298Y-125568382D01*
X115588296Y-125568387D01*
X115588295Y-125568389D01*
X115564409Y-125657533D01*
X115564409Y-137111053D01*
X115572400Y-137140874D01*
X115580858Y-137172443D01*
X115585949Y-137191440D01*
X115588295Y-137200197D01*
X115634439Y-137280121D01*
X116270505Y-137916187D01*
X116298281Y-137970702D01*
X116299500Y-137986189D01*
X116299500Y-139424681D01*
X116307742Y-139466108D01*
X116300552Y-139526869D01*
X116259020Y-139571800D01*
X116210645Y-139584424D01*
X110969355Y-139584424D01*
X110911164Y-139565517D01*
X110875200Y-139516017D01*
X110872258Y-139466108D01*
X110880499Y-139424681D01*
X110880500Y-139424672D01*
X110880500Y-137675327D01*
X110880498Y-137675315D01*
X110871509Y-137630127D01*
X110865966Y-137602260D01*
X110833776Y-137554083D01*
X110810602Y-137519400D01*
X110810599Y-137519397D01*
X110727742Y-137464035D01*
X110727740Y-137464034D01*
X110727737Y-137464033D01*
X110727736Y-137464033D01*
X110654684Y-137449501D01*
X110654674Y-137449500D01*
X110654673Y-137449500D01*
X110229500Y-137449500D01*
X110171309Y-137430593D01*
X110135345Y-137381093D01*
X110130500Y-137350500D01*
X110130500Y-132741789D01*
X110149407Y-132683598D01*
X110159496Y-132671785D01*
X112083785Y-130747496D01*
X112138302Y-130719719D01*
X112153789Y-130718500D01*
X112240074Y-130718500D01*
X112240075Y-130718500D01*
X112380085Y-130680984D01*
X112380087Y-130680982D01*
X112380089Y-130680982D01*
X112505610Y-130608512D01*
X112505610Y-130608511D01*
X112505615Y-130608509D01*
X112608109Y-130506015D01*
X112631651Y-130465239D01*
X112680582Y-130380489D01*
X112680582Y-130380487D01*
X112680584Y-130380485D01*
X112718100Y-130240475D01*
X112718100Y-130095525D01*
X112680584Y-129955515D01*
X112680582Y-129955512D01*
X112680582Y-129955510D01*
X112608112Y-129829989D01*
X112608110Y-129829987D01*
X112608109Y-129829985D01*
X112505615Y-129727491D01*
X112505612Y-129727489D01*
X112505610Y-129727487D01*
X112380088Y-129655017D01*
X112380089Y-129655017D01*
X112311498Y-129636638D01*
X112240075Y-129617500D01*
X112095125Y-129617500D01*
X112057508Y-129627579D01*
X112011747Y-129639841D01*
X111950645Y-129636638D01*
X111903095Y-129598133D01*
X111887260Y-129539032D01*
X111909187Y-129481911D01*
X111916101Y-129474230D01*
X115190470Y-126199862D01*
X115236614Y-126119938D01*
X115260500Y-126030793D01*
X115260500Y-125938506D01*
X115260500Y-123669031D01*
X115279407Y-123610840D01*
X115289490Y-123599033D01*
X115350509Y-123538015D01*
X115379668Y-123487510D01*
X115422982Y-123412489D01*
X115422982Y-123412487D01*
X115422984Y-123412485D01*
X115460500Y-123272475D01*
X115460500Y-123186190D01*
X115479407Y-123127999D01*
X115489496Y-123116186D01*
X116176182Y-122429500D01*
X116183299Y-122425873D01*
X116187995Y-122419411D01*
X116210043Y-122412247D01*
X116230699Y-122401723D01*
X116246186Y-122400504D01*
X116411650Y-122400504D01*
X116469841Y-122419411D01*
X116505805Y-122468911D01*
X116510650Y-122499504D01*
X116510650Y-122522202D01*
X116510651Y-122522203D01*
X118520348Y-122522203D01*
X118520349Y-122522202D01*
X118520349Y-122499504D01*
X118539256Y-122441313D01*
X118588756Y-122405349D01*
X118619349Y-122400504D01*
X119031138Y-122400504D01*
X119031140Y-122400504D01*
X119120284Y-122376618D01*
X119130218Y-122370882D01*
X119135184Y-122368016D01*
X119163592Y-122351614D01*
X119200208Y-122330474D01*
X120055680Y-121475001D01*
X120535000Y-121475001D01*
X120535000Y-121541104D01*
X120545132Y-121625468D01*
X120598077Y-121759729D01*
X120685276Y-121874717D01*
X120685282Y-121874723D01*
X120800270Y-121961922D01*
X120934531Y-122014867D01*
X121018895Y-122024999D01*
X121018900Y-122025000D01*
X121109999Y-122025000D01*
X121110000Y-122024999D01*
X121110000Y-121475001D01*
X121510000Y-121475001D01*
X121510000Y-122024999D01*
X121510001Y-122025000D01*
X121601100Y-122025000D01*
X121601104Y-122024999D01*
X121685468Y-122014867D01*
X121819729Y-121961922D01*
X121934717Y-121874723D01*
X121934723Y-121874717D01*
X122021922Y-121759729D01*
X122074867Y-121625468D01*
X122084999Y-121541104D01*
X122085000Y-121541100D01*
X122085000Y-121475001D01*
X122084999Y-121475000D01*
X121510001Y-121475000D01*
X121510000Y-121475001D01*
X121110000Y-121475001D01*
X121109999Y-121475000D01*
X120535001Y-121475000D01*
X120535000Y-121475001D01*
X120055680Y-121475001D01*
X120426686Y-121103994D01*
X120481201Y-121076219D01*
X120496688Y-121075000D01*
X122084999Y-121075000D01*
X122085000Y-121074999D01*
X122085000Y-121008899D01*
X122084999Y-121008895D01*
X122074867Y-120924531D01*
X122021922Y-120790270D01*
X121934723Y-120675282D01*
X121934717Y-120675276D01*
X121819728Y-120588077D01*
X121819724Y-120588074D01*
X121763377Y-120565854D01*
X121716180Y-120526917D01*
X121700883Y-120467675D01*
X121723329Y-120410756D01*
X121765098Y-120381000D01*
X121790226Y-120371628D01*
X121899687Y-120289687D01*
X121981628Y-120180226D01*
X121996668Y-120139903D01*
X122034719Y-120091989D01*
X122089426Y-120075500D01*
X133031142Y-120075500D01*
X133031144Y-120075500D01*
X133120288Y-120051614D01*
X133200212Y-120005470D01*
X138476186Y-114729496D01*
X138530703Y-114701719D01*
X138546190Y-114700500D01*
X140328812Y-114700500D01*
X140387003Y-114719407D01*
G37*
%TD.AperFunction*%
%TA.AperFunction,Conductor*%
G36*
X140387003Y-131519407D02*
G01*
X140422967Y-131568907D01*
X140424435Y-131573864D01*
X140447281Y-131659123D01*
X140447282Y-131659126D01*
X140472801Y-131720735D01*
X140472803Y-131720739D01*
X140472805Y-131720743D01*
X140517296Y-131797803D01*
X140538633Y-131834760D01*
X140579229Y-131887666D01*
X140579231Y-131887668D01*
X140579235Y-131887673D01*
X140672327Y-131980765D01*
X140672331Y-131980768D01*
X140672333Y-131980770D01*
X140688166Y-131992919D01*
X140725243Y-132021369D01*
X140839257Y-132087195D01*
X140839263Y-132087197D01*
X140839264Y-132087198D01*
X140900874Y-132112718D01*
X140900875Y-132112718D01*
X140900877Y-132112719D01*
X141028044Y-132146794D01*
X141094174Y-132155500D01*
X141558300Y-132155500D01*
X141616491Y-132174407D01*
X141652455Y-132223907D01*
X141657287Y-132256065D01*
X141646765Y-132920727D01*
X141640806Y-133297067D01*
X141620979Y-133354951D01*
X141570916Y-133390127D01*
X141541818Y-133394500D01*
X141094172Y-133394500D01*
X141028051Y-133403205D01*
X141028046Y-133403205D01*
X140900874Y-133437281D01*
X140839264Y-133462801D01*
X140725239Y-133528633D01*
X140672333Y-133569229D01*
X140579229Y-133662333D01*
X140538633Y-133715239D01*
X140472801Y-133829264D01*
X140447282Y-133890873D01*
X140447281Y-133890877D01*
X140437390Y-133927792D01*
X140424439Y-133976124D01*
X140391114Y-134027438D01*
X140333993Y-134049364D01*
X140328812Y-134049500D01*
X129123856Y-134049500D01*
X129034712Y-134073386D01*
X129034711Y-134073386D01*
X129034709Y-134073387D01*
X128954790Y-134119529D01*
X125653814Y-137420504D01*
X125599297Y-137448281D01*
X125583810Y-137449500D01*
X124145326Y-137449500D01*
X124145325Y-137449500D01*
X124145315Y-137449501D01*
X124072263Y-137464033D01*
X124072257Y-137464035D01*
X123989400Y-137519397D01*
X123989397Y-137519400D01*
X123934035Y-137602257D01*
X123934033Y-137602263D01*
X123919501Y-137675315D01*
X123919500Y-137675327D01*
X123919500Y-139424681D01*
X123927742Y-139466108D01*
X123920552Y-139526869D01*
X123879020Y-139571800D01*
X123830645Y-139584424D01*
X118589355Y-139584424D01*
X118531164Y-139565517D01*
X118495200Y-139516017D01*
X118492258Y-139466108D01*
X118500499Y-139424681D01*
X118500500Y-139424672D01*
X118500500Y-137986189D01*
X118519407Y-137927998D01*
X118529496Y-137916185D01*
X124916185Y-131529496D01*
X124970702Y-131501719D01*
X124986189Y-131500500D01*
X140328812Y-131500500D01*
X140387003Y-131519407D01*
G37*
%TD.AperFunction*%
%TA.AperFunction,Conductor*%
G36*
X140387003Y-134769407D02*
G01*
X140422967Y-134818907D01*
X140424435Y-134823864D01*
X140437825Y-134873832D01*
X140447282Y-134909126D01*
X140472801Y-134970735D01*
X140472803Y-134970739D01*
X140472805Y-134970743D01*
X140532709Y-135074500D01*
X140538633Y-135084760D01*
X140579229Y-135137666D01*
X140579231Y-135137668D01*
X140579235Y-135137673D01*
X140672327Y-135230765D01*
X140672331Y-135230768D01*
X140672333Y-135230770D01*
X140725239Y-135271366D01*
X140725243Y-135271369D01*
X140839257Y-135337195D01*
X140839263Y-135337197D01*
X140839264Y-135337198D01*
X140900874Y-135362718D01*
X140900875Y-135362718D01*
X140900877Y-135362719D01*
X141028044Y-135396794D01*
X141094174Y-135405500D01*
X141506842Y-135405500D01*
X141565033Y-135424407D01*
X141600997Y-135473907D01*
X141605829Y-135506065D01*
X141590193Y-136493710D01*
X141589348Y-136547067D01*
X141569521Y-136604951D01*
X141519458Y-136640127D01*
X141490360Y-136644500D01*
X141094172Y-136644500D01*
X141028051Y-136653205D01*
X141028046Y-136653205D01*
X140900874Y-136687281D01*
X140839264Y-136712801D01*
X140725239Y-136778633D01*
X140672333Y-136819229D01*
X140579229Y-136912333D01*
X140538633Y-136965239D01*
X140472801Y-137079264D01*
X140447281Y-137140874D01*
X140413205Y-137268046D01*
X140413205Y-137268051D01*
X140404500Y-137334172D01*
X140404500Y-137868810D01*
X140385593Y-137927001D01*
X140375504Y-137938814D01*
X140193814Y-138120504D01*
X140139297Y-138148281D01*
X140123810Y-138149500D01*
X133839500Y-138149500D01*
X133781309Y-138130593D01*
X133745345Y-138081093D01*
X133740500Y-138050500D01*
X133740500Y-137675327D01*
X133740498Y-137675315D01*
X133731509Y-137630127D01*
X133725966Y-137602260D01*
X133693776Y-137554083D01*
X133670602Y-137519400D01*
X133670599Y-137519397D01*
X133587742Y-137464035D01*
X133587740Y-137464034D01*
X133587737Y-137464033D01*
X133587736Y-137464033D01*
X133514684Y-137449501D01*
X133514674Y-137449500D01*
X131765326Y-137449500D01*
X131765325Y-137449500D01*
X131765315Y-137449501D01*
X131692263Y-137464033D01*
X131692257Y-137464035D01*
X131609400Y-137519397D01*
X131609397Y-137519400D01*
X131554035Y-137602257D01*
X131554033Y-137602263D01*
X131539501Y-137675315D01*
X131539500Y-137675327D01*
X131539500Y-139424681D01*
X131547742Y-139466108D01*
X131540552Y-139526869D01*
X131499020Y-139571800D01*
X131450645Y-139584424D01*
X126209355Y-139584424D01*
X126151164Y-139565517D01*
X126115200Y-139516017D01*
X126112258Y-139466108D01*
X126120499Y-139424681D01*
X126120500Y-139424672D01*
X126120500Y-137986189D01*
X126139407Y-137927998D01*
X126149496Y-137916185D01*
X129286185Y-134779496D01*
X129340702Y-134751719D01*
X129356189Y-134750500D01*
X140328812Y-134750500D01*
X140387003Y-134769407D01*
G37*
%TD.AperFunction*%
%TA.AperFunction,Conductor*%
G36*
X140387003Y-123069407D02*
G01*
X140422967Y-123118907D01*
X140424435Y-123123864D01*
X140445125Y-123201076D01*
X140447282Y-123209126D01*
X140472801Y-123270735D01*
X140472803Y-123270739D01*
X140472805Y-123270743D01*
X140525484Y-123361985D01*
X140538633Y-123384760D01*
X140579229Y-123437666D01*
X140579231Y-123437668D01*
X140579235Y-123437673D01*
X140672327Y-123530765D01*
X140672331Y-123530768D01*
X140672333Y-123530770D01*
X140700624Y-123552478D01*
X140725243Y-123571369D01*
X140839257Y-123637195D01*
X140839263Y-123637197D01*
X140839264Y-123637198D01*
X140900874Y-123662718D01*
X140900875Y-123662718D01*
X140900877Y-123662719D01*
X141028044Y-123696794D01*
X141094174Y-123705500D01*
X141458899Y-123705500D01*
X141469877Y-123709067D01*
X141481378Y-123708086D01*
X141498293Y-123718299D01*
X141517090Y-123724407D01*
X141523875Y-123733746D01*
X141533755Y-123739712D01*
X141539280Y-123754950D01*
X141553054Y-123773907D01*
X141557541Y-123796085D01*
X141557974Y-123801162D01*
X141556770Y-123869294D01*
X141558728Y-123905698D01*
X141563133Y-123940716D01*
X141564432Y-123949738D01*
X141571216Y-123967919D01*
X141570865Y-123967993D01*
X141573288Y-123979623D01*
X141575549Y-123988010D01*
X141580992Y-124008199D01*
X141592299Y-124028055D01*
X141592298Y-124028055D01*
X141596237Y-124034973D01*
X141599285Y-124043138D01*
X141603644Y-124050192D01*
X141604575Y-124049615D01*
X141620567Y-124077699D01*
X141620582Y-124077723D01*
X141630321Y-124094826D01*
X141632636Y-124098097D01*
X141635498Y-124101815D01*
X141636013Y-124102571D01*
X141636019Y-124102580D01*
X141663319Y-124139034D01*
X141680462Y-124151862D01*
X141708856Y-124179260D01*
X141736160Y-124193542D01*
X141743136Y-124198762D01*
X141743137Y-124198762D01*
X141743138Y-124198763D01*
X141776418Y-124214678D01*
X141778094Y-124215476D01*
X141797192Y-124225466D01*
X141801813Y-124226822D01*
X141806165Y-124228904D01*
X141806726Y-124229113D01*
X141806728Y-124229114D01*
X141825834Y-124236235D01*
X141848873Y-124244822D01*
X141871289Y-124246418D01*
X141878313Y-124247173D01*
X141936211Y-124255500D01*
X143266678Y-124255500D01*
X143324869Y-124274407D01*
X143336682Y-124284496D01*
X149007682Y-129955496D01*
X149035459Y-130010013D01*
X149025888Y-130070445D01*
X148982623Y-130113710D01*
X148937678Y-130124500D01*
X148719032Y-130124500D01*
X148660841Y-130105593D01*
X148649029Y-130095504D01*
X148588015Y-130034491D01*
X148588010Y-130034487D01*
X148462488Y-129962017D01*
X148462489Y-129962017D01*
X148386214Y-129941579D01*
X148322475Y-129924500D01*
X148177525Y-129924500D01*
X148115790Y-129941041D01*
X148037510Y-129962017D01*
X147911989Y-130034487D01*
X147809487Y-130136989D01*
X147737017Y-130262510D01*
X147721819Y-130319229D01*
X147699500Y-130402525D01*
X147699500Y-130547475D01*
X147723396Y-130636656D01*
X147737017Y-130687489D01*
X147809487Y-130813010D01*
X147809489Y-130813012D01*
X147809491Y-130813015D01*
X147911985Y-130915509D01*
X147911987Y-130915510D01*
X147911989Y-130915512D01*
X148037511Y-130987982D01*
X148037512Y-130987982D01*
X148037515Y-130987984D01*
X148177525Y-131025500D01*
X148177526Y-131025500D01*
X148322474Y-131025500D01*
X148322475Y-131025500D01*
X148462485Y-130987984D01*
X148462487Y-130987982D01*
X148462489Y-130987982D01*
X148588010Y-130915512D01*
X148588010Y-130915511D01*
X148588015Y-130915509D01*
X148618522Y-130885002D01*
X148649029Y-130854496D01*
X148703546Y-130826719D01*
X148719032Y-130825500D01*
X149340290Y-130825500D01*
X149398481Y-130844407D01*
X149410294Y-130854496D01*
X154036294Y-135480496D01*
X154064071Y-135535013D01*
X154054500Y-135595445D01*
X154011235Y-135638710D01*
X153966290Y-135649500D01*
X152835326Y-135649500D01*
X152835325Y-135649500D01*
X152835315Y-135649501D01*
X152762263Y-135664033D01*
X152762257Y-135664035D01*
X152679400Y-135719397D01*
X152679397Y-135719400D01*
X152624035Y-135802257D01*
X152624033Y-135802263D01*
X152609501Y-135875315D01*
X152609500Y-135875327D01*
X152609500Y-136300500D01*
X152590593Y-136358691D01*
X152541093Y-136394655D01*
X152510500Y-136399500D01*
X151218459Y-136399500D01*
X151160268Y-136380593D01*
X151138804Y-136359288D01*
X151097152Y-136302852D01*
X151097150Y-136302850D01*
X150987883Y-136222207D01*
X150859703Y-136177355D01*
X150859694Y-136177353D01*
X150829274Y-136174500D01*
X150829266Y-136174500D01*
X150170734Y-136174500D01*
X150170725Y-136174500D01*
X150140305Y-136177353D01*
X150140296Y-136177355D01*
X150012116Y-136222207D01*
X149902855Y-136302845D01*
X149902845Y-136302855D01*
X149822207Y-136412116D01*
X149777355Y-136540296D01*
X149777353Y-136540305D01*
X149774500Y-136570725D01*
X149774500Y-137079274D01*
X149777353Y-137109694D01*
X149777355Y-137109703D01*
X149822207Y-137237883D01*
X149902845Y-137347144D01*
X149902847Y-137347146D01*
X149902850Y-137347150D01*
X149902853Y-137347152D01*
X149902855Y-137347154D01*
X150012116Y-137427792D01*
X150012117Y-137427792D01*
X150012118Y-137427793D01*
X150140301Y-137472646D01*
X150170725Y-137475499D01*
X150170727Y-137475500D01*
X150170734Y-137475500D01*
X150829273Y-137475500D01*
X150829273Y-137475499D01*
X150859699Y-137472646D01*
X150987882Y-137427793D01*
X151097150Y-137347150D01*
X151177793Y-137237882D01*
X151202665Y-137166802D01*
X151239730Y-137118122D01*
X151296109Y-137100500D01*
X152510500Y-137100500D01*
X152568691Y-137119407D01*
X152604655Y-137168907D01*
X152609500Y-137199500D01*
X152609500Y-137624672D01*
X152609501Y-137624684D01*
X152624033Y-137697736D01*
X152624035Y-137697742D01*
X152679397Y-137780599D01*
X152679400Y-137780602D01*
X152743172Y-137823212D01*
X152762260Y-137835966D01*
X152817808Y-137847015D01*
X152835315Y-137850498D01*
X152835320Y-137850498D01*
X152835326Y-137850500D01*
X152835327Y-137850500D01*
X154584673Y-137850500D01*
X154584674Y-137850500D01*
X154657740Y-137835966D01*
X154740601Y-137780601D01*
X154795966Y-137697740D01*
X154810500Y-137624674D01*
X154810500Y-136493710D01*
X154829407Y-136435519D01*
X154878907Y-136399555D01*
X154940093Y-136399555D01*
X154979504Y-136423706D01*
X155123359Y-136567561D01*
X155151136Y-136622078D01*
X155151137Y-136653047D01*
X155149501Y-136663378D01*
X155149500Y-136663384D01*
X155149500Y-136836614D01*
X155176597Y-137007702D01*
X155176598Y-137007706D01*
X155230123Y-137172438D01*
X155230125Y-137172441D01*
X155308670Y-137326597D01*
X155308768Y-137326788D01*
X155410586Y-137466928D01*
X155533072Y-137589414D01*
X155673212Y-137691232D01*
X155827555Y-137769873D01*
X155827557Y-137769873D01*
X155827558Y-137769874D01*
X155827561Y-137769876D01*
X155992293Y-137823401D01*
X155992297Y-137823402D01*
X156163386Y-137850500D01*
X156163389Y-137850500D01*
X156336614Y-137850500D01*
X156507702Y-137823402D01*
X156507706Y-137823401D01*
X156672438Y-137769876D01*
X156672440Y-137769874D01*
X156672445Y-137769873D01*
X156826788Y-137691232D01*
X156966928Y-137589414D01*
X157089414Y-137466928D01*
X157191232Y-137326788D01*
X157269873Y-137172445D01*
X157269874Y-137172440D01*
X157269876Y-137172438D01*
X157323401Y-137007706D01*
X157323402Y-137007702D01*
X157350500Y-136836614D01*
X157350500Y-136663384D01*
X157350499Y-136663378D01*
X157323402Y-136492297D01*
X157323401Y-136492293D01*
X157269876Y-136327561D01*
X157269874Y-136327558D01*
X157269873Y-136327557D01*
X157269873Y-136327555D01*
X157191232Y-136173212D01*
X157089414Y-136033072D01*
X156966928Y-135910586D01*
X156826788Y-135808768D01*
X156826787Y-135808767D01*
X156826785Y-135808766D01*
X156672446Y-135730127D01*
X156670437Y-135729474D01*
X156668904Y-135728976D01*
X156619406Y-135693011D01*
X156600500Y-135634823D01*
X156600500Y-134873832D01*
X156619407Y-134815641D01*
X156668907Y-134779677D01*
X156730093Y-134779677D01*
X156779155Y-134815044D01*
X156802850Y-134847150D01*
X156802853Y-134847152D01*
X156802855Y-134847154D01*
X156912116Y-134927792D01*
X156912117Y-134927792D01*
X156912118Y-134927793D01*
X157040301Y-134972646D01*
X157070725Y-134975499D01*
X157070727Y-134975500D01*
X157070734Y-134975500D01*
X157579273Y-134975500D01*
X157579273Y-134975499D01*
X157609699Y-134972646D01*
X157737882Y-134927793D01*
X157847150Y-134847150D01*
X157927793Y-134737882D01*
X157952665Y-134666802D01*
X157989730Y-134618122D01*
X158046109Y-134600500D01*
X158330969Y-134600500D01*
X158338566Y-134602968D01*
X158346456Y-134601719D01*
X158367111Y-134612243D01*
X158389160Y-134619407D01*
X158400966Y-134629490D01*
X158410505Y-134639029D01*
X158438281Y-134693544D01*
X158439500Y-134709031D01*
X158439500Y-135634823D01*
X158420593Y-135693014D01*
X158371095Y-135728976D01*
X158370117Y-135729294D01*
X158367553Y-135730127D01*
X158213214Y-135808766D01*
X158073073Y-135910585D01*
X157950585Y-136033073D01*
X157848766Y-136173214D01*
X157770125Y-136327558D01*
X157770123Y-136327561D01*
X157716598Y-136492293D01*
X157716597Y-136492297D01*
X157689501Y-136663378D01*
X157689500Y-136663384D01*
X157689500Y-136836614D01*
X157716597Y-137007702D01*
X157716598Y-137007706D01*
X157770123Y-137172438D01*
X157770125Y-137172441D01*
X157848670Y-137326597D01*
X157848768Y-137326788D01*
X157950586Y-137466928D01*
X158073072Y-137589414D01*
X158213212Y-137691232D01*
X158367555Y-137769873D01*
X158367557Y-137769873D01*
X158367558Y-137769874D01*
X158367561Y-137769876D01*
X158532293Y-137823401D01*
X158532297Y-137823402D01*
X158703386Y-137850500D01*
X158703389Y-137850500D01*
X158876614Y-137850500D01*
X159047702Y-137823402D01*
X159047706Y-137823401D01*
X159212438Y-137769876D01*
X159212440Y-137769874D01*
X159212445Y-137769873D01*
X159366788Y-137691232D01*
X159506928Y-137589414D01*
X159629414Y-137466928D01*
X159731232Y-137326788D01*
X159809873Y-137172445D01*
X159809874Y-137172440D01*
X159809876Y-137172438D01*
X159863401Y-137007706D01*
X159863402Y-137007702D01*
X159890500Y-136836614D01*
X159890500Y-136663385D01*
X159863402Y-136492297D01*
X159863401Y-136492293D01*
X159809876Y-136327561D01*
X159809874Y-136327558D01*
X159809873Y-136327557D01*
X159809873Y-136327555D01*
X159731232Y-136173212D01*
X159629414Y-136033072D01*
X159506928Y-135910586D01*
X159366788Y-135808768D01*
X159366787Y-135808767D01*
X159366785Y-135808766D01*
X159212446Y-135730127D01*
X159210437Y-135729474D01*
X159208904Y-135728976D01*
X159159406Y-135693011D01*
X159140500Y-135634823D01*
X159140500Y-134629031D01*
X159159407Y-134570840D01*
X159169490Y-134559033D01*
X159190509Y-134538015D01*
X159194186Y-134531646D01*
X159262982Y-134412489D01*
X159262982Y-134412487D01*
X159262984Y-134412485D01*
X159300500Y-134272475D01*
X159300500Y-134127525D01*
X159262984Y-133987515D01*
X159262982Y-133987512D01*
X159262982Y-133987510D01*
X159211880Y-133899000D01*
X159199158Y-133839152D01*
X159224044Y-133783256D01*
X159277032Y-133752664D01*
X159297616Y-133750500D01*
X173551678Y-133750500D01*
X173609869Y-133769407D01*
X173621682Y-133779496D01*
X177246172Y-137403986D01*
X177273949Y-137458503D01*
X177264378Y-137518935D01*
X177221113Y-137562200D01*
X177160681Y-137571771D01*
X177117977Y-137554083D01*
X177090013Y-137533766D01*
X177069601Y-137518935D01*
X176986786Y-137458766D01*
X176832441Y-137380125D01*
X176832438Y-137380123D01*
X176667706Y-137326598D01*
X176667702Y-137326597D01*
X176496614Y-137299500D01*
X176496611Y-137299500D01*
X176323389Y-137299500D01*
X176323386Y-137299500D01*
X176152297Y-137326597D01*
X176152293Y-137326598D01*
X175987561Y-137380123D01*
X175987558Y-137380125D01*
X175833214Y-137458766D01*
X175693073Y-137560585D01*
X175570585Y-137683073D01*
X175468766Y-137823214D01*
X175390127Y-137977553D01*
X175389294Y-137980117D01*
X175388978Y-137981093D01*
X175388977Y-137981095D01*
X175353011Y-138030594D01*
X175294823Y-138049500D01*
X161677090Y-138049500D01*
X161618899Y-138030593D01*
X161582935Y-137981093D01*
X161582935Y-137919907D01*
X161618899Y-137870407D01*
X161646498Y-137856345D01*
X161771440Y-137815749D01*
X161932728Y-137733569D01*
X161989487Y-137692330D01*
X161515176Y-137218019D01*
X161522993Y-137215925D01*
X161637007Y-137150099D01*
X161730099Y-137057007D01*
X161795925Y-136942993D01*
X161798019Y-136935176D01*
X162272330Y-137409487D01*
X162313569Y-137352728D01*
X162395749Y-137191440D01*
X162451683Y-137019289D01*
X162480000Y-136840510D01*
X162480000Y-136659489D01*
X162451683Y-136480710D01*
X162395749Y-136308559D01*
X162313571Y-136147275D01*
X162272330Y-136090511D01*
X161798019Y-136564821D01*
X161795925Y-136557007D01*
X161730099Y-136442993D01*
X161637007Y-136349901D01*
X161522993Y-136284075D01*
X161515174Y-136281980D01*
X161989488Y-135807667D01*
X161932728Y-135766430D01*
X161771440Y-135684250D01*
X161599289Y-135628316D01*
X161420510Y-135600000D01*
X161239490Y-135600000D01*
X161060710Y-135628316D01*
X160888559Y-135684250D01*
X160727267Y-135766432D01*
X160670510Y-135807667D01*
X161144823Y-136281980D01*
X161137007Y-136284075D01*
X161022993Y-136349901D01*
X160929901Y-136442993D01*
X160864075Y-136557007D01*
X160861980Y-136564823D01*
X160387667Y-136090510D01*
X160346432Y-136147267D01*
X160264250Y-136308559D01*
X160208316Y-136480710D01*
X160180000Y-136659489D01*
X160180000Y-136840510D01*
X160208316Y-137019289D01*
X160264250Y-137191440D01*
X160346430Y-137352728D01*
X160387667Y-137409488D01*
X160861980Y-136935174D01*
X160864075Y-136942993D01*
X160929901Y-137057007D01*
X161022993Y-137150099D01*
X161137007Y-137215925D01*
X161144821Y-137218019D01*
X160670511Y-137692330D01*
X160727275Y-137733571D01*
X160888559Y-137815749D01*
X161013502Y-137856345D01*
X161063002Y-137892309D01*
X161081910Y-137950500D01*
X161063003Y-138008690D01*
X161013503Y-138044654D01*
X160982910Y-138049500D01*
X143621234Y-138049500D01*
X143563043Y-138030593D01*
X143527079Y-137981093D01*
X143522255Y-137948438D01*
X143522323Y-137945181D01*
X143574872Y-135422824D01*
X149724999Y-135422824D01*
X149731401Y-135482370D01*
X149731403Y-135482381D01*
X149781646Y-135617088D01*
X149781647Y-135617090D01*
X149867807Y-135732184D01*
X149867815Y-135732192D01*
X149982909Y-135818352D01*
X149982911Y-135818353D01*
X150117618Y-135868596D01*
X150117629Y-135868598D01*
X150177176Y-135875000D01*
X150299999Y-135875000D01*
X150300000Y-135874999D01*
X150300000Y-135375001D01*
X150700000Y-135375001D01*
X150700000Y-135874999D01*
X150700001Y-135875000D01*
X150822824Y-135875000D01*
X150882370Y-135868598D01*
X150882381Y-135868596D01*
X151017088Y-135818353D01*
X151017090Y-135818352D01*
X151132184Y-135732192D01*
X151132192Y-135732184D01*
X151218352Y-135617090D01*
X151218353Y-135617088D01*
X151268596Y-135482381D01*
X151268598Y-135482370D01*
X151275000Y-135422824D01*
X151275000Y-135375001D01*
X151274999Y-135375000D01*
X150700001Y-135375000D01*
X150700000Y-135375001D01*
X150300000Y-135375001D01*
X150299999Y-135375000D01*
X149725001Y-135375000D01*
X149725000Y-135375001D01*
X149725000Y-135422824D01*
X149724999Y-135422824D01*
X143574872Y-135422824D01*
X143585198Y-134927175D01*
X149725000Y-134927175D01*
X149725000Y-134974999D01*
X149725001Y-134975000D01*
X150299999Y-134975000D01*
X150300000Y-134974999D01*
X150300000Y-134475001D01*
X150700000Y-134475001D01*
X150700000Y-134974999D01*
X150700001Y-134975000D01*
X151274999Y-134975000D01*
X151275000Y-134974999D01*
X151275000Y-134927175D01*
X151268598Y-134867629D01*
X151268596Y-134867618D01*
X151218353Y-134732911D01*
X151218352Y-134732909D01*
X151132192Y-134617815D01*
X151132184Y-134617807D01*
X151017090Y-134531647D01*
X151017088Y-134531646D01*
X150882381Y-134481403D01*
X150882370Y-134481401D01*
X150822824Y-134475000D01*
X150700001Y-134475000D01*
X150700000Y-134475001D01*
X150300000Y-134475001D01*
X150299999Y-134475000D01*
X150177176Y-134475000D01*
X150117629Y-134481401D01*
X150117618Y-134481403D01*
X149982911Y-134531646D01*
X149982909Y-134531647D01*
X149867815Y-134617807D01*
X149867807Y-134617815D01*
X149781647Y-134732909D01*
X149781646Y-134732911D01*
X149731403Y-134867618D01*
X149731401Y-134867629D01*
X149725000Y-134927175D01*
X143585198Y-134927175D01*
X143752807Y-126881904D01*
X143747576Y-126824877D01*
X143736398Y-126770784D01*
X143728609Y-126741802D01*
X143712669Y-126713810D01*
X143679282Y-126655178D01*
X143679279Y-126655175D01*
X143679278Y-126655172D01*
X143655322Y-126627525D01*
X143633537Y-126602383D01*
X143633528Y-126602373D01*
X143611802Y-126581409D01*
X143600749Y-126570743D01*
X143600748Y-126570742D01*
X143600745Y-126570740D01*
X143512415Y-126524535D01*
X143512410Y-126524533D01*
X143445387Y-126504853D01*
X143445379Y-126504851D01*
X143445375Y-126504850D01*
X143445370Y-126504849D01*
X143445369Y-126504849D01*
X143373394Y-126494500D01*
X143373390Y-126494500D01*
X142122052Y-126494500D01*
X142122046Y-126494500D01*
X142069718Y-126499917D01*
X142019998Y-126510321D01*
X141995500Y-126516730D01*
X141995497Y-126516731D01*
X141995495Y-126516731D01*
X141995495Y-126516732D01*
X141989513Y-126520014D01*
X141908094Y-126564685D01*
X141854568Y-126609602D01*
X141822430Y-126641871D01*
X141774829Y-126729465D01*
X141754086Y-126796185D01*
X141754086Y-126796188D01*
X141751694Y-126811140D01*
X141723831Y-126865613D01*
X141669271Y-126893305D01*
X141653937Y-126894500D01*
X141094172Y-126894500D01*
X141028051Y-126903205D01*
X141028046Y-126903205D01*
X140900874Y-126937281D01*
X140839264Y-126962801D01*
X140725239Y-127028633D01*
X140672333Y-127069229D01*
X140579229Y-127162333D01*
X140538633Y-127215239D01*
X140472801Y-127329264D01*
X140447282Y-127390873D01*
X140447281Y-127390877D01*
X140438812Y-127422485D01*
X140424439Y-127476124D01*
X140391114Y-127527438D01*
X140333993Y-127549364D01*
X140328812Y-127549500D01*
X125154395Y-127549500D01*
X125096204Y-127530593D01*
X125060240Y-127481093D01*
X125060240Y-127419907D01*
X125062928Y-127412623D01*
X125062980Y-127412496D01*
X125062982Y-127412488D01*
X125062984Y-127412485D01*
X125100500Y-127272475D01*
X125100500Y-127127525D01*
X125062984Y-126987515D01*
X125062982Y-126987512D01*
X125062982Y-126987510D01*
X124990512Y-126861989D01*
X124990510Y-126861987D01*
X124990509Y-126861985D01*
X124888015Y-126759491D01*
X124888012Y-126759489D01*
X124888010Y-126759487D01*
X124762488Y-126687017D01*
X124762489Y-126687017D01*
X124732896Y-126679087D01*
X124622475Y-126649500D01*
X124477525Y-126649500D01*
X124456335Y-126655178D01*
X124337510Y-126687017D01*
X124211989Y-126759487D01*
X124211984Y-126759491D01*
X124140971Y-126830504D01*
X124086454Y-126858281D01*
X124070968Y-126859500D01*
X121329032Y-126859500D01*
X121270841Y-126840593D01*
X121259029Y-126830504D01*
X121198015Y-126769491D01*
X121198010Y-126769487D01*
X121072488Y-126697017D01*
X121072484Y-126697015D01*
X121030047Y-126685644D01*
X120978733Y-126652320D01*
X120956807Y-126595198D01*
X120972643Y-126536098D01*
X120985662Y-126520019D01*
X121826186Y-125679496D01*
X121880703Y-125651719D01*
X121896190Y-125650500D01*
X133476910Y-125650500D01*
X133476912Y-125650500D01*
X133566056Y-125626614D01*
X133592357Y-125611429D01*
X133645980Y-125580470D01*
X136146953Y-123079495D01*
X136201470Y-123051719D01*
X136216957Y-123050500D01*
X140328812Y-123050500D01*
X140387003Y-123069407D01*
G37*
%TD.AperFunction*%
%TA.AperFunction,Conductor*%
G36*
X116379589Y-126478699D02*
G01*
X116393434Y-126482409D01*
X116463341Y-126482409D01*
X116465531Y-126482506D01*
X116492221Y-126492504D01*
X116519341Y-126501316D01*
X116520686Y-126503167D01*
X116522828Y-126503970D01*
X116538540Y-126527741D01*
X116555305Y-126550816D01*
X116555305Y-126553105D01*
X116556566Y-126555013D01*
X116560150Y-126581409D01*
X116560150Y-126802475D01*
X116560151Y-126802487D01*
X116574683Y-126875539D01*
X116574684Y-126875543D01*
X116574685Y-126875545D01*
X116578416Y-126884552D01*
X116575434Y-126885786D01*
X116587589Y-126928895D01*
X116576034Y-126964476D01*
X116578413Y-126965462D01*
X116574683Y-126974464D01*
X116560150Y-127047527D01*
X116560150Y-127452476D01*
X116560151Y-127452488D01*
X116574683Y-127525540D01*
X116574684Y-127525544D01*
X116574685Y-127525546D01*
X116578416Y-127534553D01*
X116575435Y-127535787D01*
X116587588Y-127578904D01*
X116576033Y-127614466D01*
X116578416Y-127615453D01*
X116574683Y-127624465D01*
X116560151Y-127697517D01*
X116560150Y-127697529D01*
X116560150Y-128102474D01*
X116560151Y-128102486D01*
X116574683Y-128175538D01*
X116574685Y-128175544D01*
X116630047Y-128258401D01*
X116630050Y-128258404D01*
X116661617Y-128279496D01*
X116712910Y-128313768D01*
X116766862Y-128324500D01*
X116785965Y-128328300D01*
X116785970Y-128328300D01*
X116785976Y-128328302D01*
X116785977Y-128328302D01*
X118245023Y-128328302D01*
X118245024Y-128328302D01*
X118318090Y-128313768D01*
X118400951Y-128258403D01*
X118400955Y-128258396D01*
X118404857Y-128254496D01*
X118459374Y-128226719D01*
X118474861Y-128225500D01*
X118685500Y-128225500D01*
X118743691Y-128244407D01*
X118779655Y-128293907D01*
X118784500Y-128324500D01*
X118784500Y-130707168D01*
X118765593Y-130765359D01*
X118755505Y-130777170D01*
X118737492Y-130795183D01*
X118737487Y-130795189D01*
X118665017Y-130920710D01*
X118646991Y-130987984D01*
X118627500Y-131060725D01*
X118627500Y-131205675D01*
X118649956Y-131289481D01*
X118665017Y-131345689D01*
X118737487Y-131471210D01*
X118737489Y-131471212D01*
X118737491Y-131471215D01*
X118839985Y-131573709D01*
X118839987Y-131573710D01*
X118839989Y-131573712D01*
X118965511Y-131646182D01*
X118965515Y-131646184D01*
X118973250Y-131648257D01*
X119024564Y-131681581D01*
X119046490Y-131738703D01*
X119030654Y-131797803D01*
X119017630Y-131813887D01*
X117636214Y-133195304D01*
X117581697Y-133223081D01*
X117566210Y-133224300D01*
X117479925Y-133224300D01*
X117418190Y-133240841D01*
X117339910Y-133261817D01*
X117214389Y-133334287D01*
X117111887Y-133436789D01*
X117039417Y-133562310D01*
X117001900Y-133702325D01*
X117001900Y-133847274D01*
X117039417Y-133987289D01*
X117111887Y-134112810D01*
X117111889Y-134112812D01*
X117111891Y-134112815D01*
X117214385Y-134215309D01*
X117214387Y-134215310D01*
X117214389Y-134215312D01*
X117339911Y-134287782D01*
X117339912Y-134287782D01*
X117339915Y-134287784D01*
X117479925Y-134325300D01*
X117479926Y-134325300D01*
X117624874Y-134325300D01*
X117624875Y-134325300D01*
X117764885Y-134287784D01*
X117764887Y-134287782D01*
X117764889Y-134287782D01*
X117890410Y-134215312D01*
X117890410Y-134215311D01*
X117890415Y-134215309D01*
X117992909Y-134112815D01*
X117996845Y-134105998D01*
X118065382Y-133987289D01*
X118065382Y-133987287D01*
X118065384Y-133987285D01*
X118102900Y-133847275D01*
X118102900Y-133760990D01*
X118121807Y-133702799D01*
X118131896Y-133690986D01*
X123543386Y-128279496D01*
X123597903Y-128251719D01*
X123613390Y-128250500D01*
X140328812Y-128250500D01*
X140387003Y-128269407D01*
X140422967Y-128318907D01*
X140424435Y-128323864D01*
X140445432Y-128402222D01*
X140447282Y-128409126D01*
X140472801Y-128470735D01*
X140472803Y-128470739D01*
X140472805Y-128470743D01*
X140538631Y-128584757D01*
X140538633Y-128584760D01*
X140579229Y-128637666D01*
X140579231Y-128637668D01*
X140579235Y-128637673D01*
X140672327Y-128730765D01*
X140672331Y-128730768D01*
X140672333Y-128730770D01*
X140724404Y-128770725D01*
X140725243Y-128771369D01*
X140839257Y-128837195D01*
X140839263Y-128837197D01*
X140839264Y-128837198D01*
X140900874Y-128862718D01*
X140900875Y-128862718D01*
X140900877Y-128862719D01*
X141028044Y-128896794D01*
X141094174Y-128905500D01*
X141094175Y-128905500D01*
X141609759Y-128905500D01*
X141667950Y-128924407D01*
X141703914Y-128973907D01*
X141708746Y-129006064D01*
X141697804Y-129697154D01*
X141692264Y-130047067D01*
X141672437Y-130104951D01*
X141622374Y-130140127D01*
X141593276Y-130144500D01*
X141094172Y-130144500D01*
X141028051Y-130153205D01*
X141028046Y-130153205D01*
X140900874Y-130187281D01*
X140839264Y-130212801D01*
X140725239Y-130278633D01*
X140672333Y-130319229D01*
X140579229Y-130412333D01*
X140538633Y-130465239D01*
X140472801Y-130579264D01*
X140447282Y-130640873D01*
X140424439Y-130726124D01*
X140391114Y-130777438D01*
X140333993Y-130799364D01*
X140328812Y-130799500D01*
X124753856Y-130799500D01*
X124664712Y-130823386D01*
X124664711Y-130823386D01*
X124664709Y-130823387D01*
X124584790Y-130869529D01*
X118033814Y-137420504D01*
X117979297Y-137448281D01*
X117963810Y-137449500D01*
X116836190Y-137449500D01*
X116777999Y-137430593D01*
X116766186Y-137420504D01*
X116294405Y-136948723D01*
X116266628Y-136894206D01*
X116265409Y-136878719D01*
X116265409Y-126577124D01*
X116270912Y-126560186D01*
X116271700Y-126542395D01*
X116280133Y-126531806D01*
X116284316Y-126518933D01*
X116298724Y-126508464D01*
X116309819Y-126494535D01*
X116322863Y-126490926D01*
X116333816Y-126482969D01*
X116353487Y-126482454D01*
X116368790Y-126478221D01*
X116379589Y-126478699D01*
G37*
%TD.AperFunction*%
%TA.AperFunction,Conductor*%
G36*
X99658004Y-125644405D02*
G01*
X99693968Y-125693905D01*
X99693968Y-125755091D01*
X99669818Y-125794499D01*
X98913501Y-126550816D01*
X98668813Y-126795504D01*
X98614296Y-126823281D01*
X98598809Y-126824500D01*
X98014521Y-126824500D01*
X98014515Y-126824501D01*
X97957888Y-126830587D01*
X97957886Y-126830588D01*
X97829774Y-126878372D01*
X97829773Y-126878372D01*
X97829772Y-126878373D01*
X97720315Y-126960311D01*
X97720311Y-126960315D01*
X97638372Y-127069773D01*
X97614006Y-127135099D01*
X97575955Y-127183012D01*
X97521249Y-127199500D01*
X97238613Y-127199500D01*
X97180422Y-127180593D01*
X97145169Y-127133199D01*
X97137793Y-127112118D01*
X97137791Y-127112116D01*
X97137791Y-127112114D01*
X97057154Y-127002855D01*
X97057152Y-127002853D01*
X97057150Y-127002850D01*
X97057146Y-127002847D01*
X97057144Y-127002845D01*
X96947883Y-126922207D01*
X96819703Y-126877355D01*
X96819694Y-126877353D01*
X96789274Y-126874500D01*
X96789266Y-126874500D01*
X96280734Y-126874500D01*
X96280725Y-126874500D01*
X96250305Y-126877353D01*
X96250296Y-126877355D01*
X96122116Y-126922207D01*
X96012855Y-127002845D01*
X96012845Y-127002855D01*
X95932207Y-127112116D01*
X95887355Y-127240296D01*
X95887353Y-127240305D01*
X95884500Y-127270725D01*
X95884500Y-127929274D01*
X95887353Y-127959694D01*
X95887355Y-127959703D01*
X95932207Y-128087883D01*
X96012845Y-128197144D01*
X96012847Y-128197146D01*
X96012850Y-128197150D01*
X96012853Y-128197152D01*
X96012855Y-128197154D01*
X96122116Y-128277792D01*
X96122117Y-128277792D01*
X96122118Y-128277793D01*
X96155635Y-128289521D01*
X96204317Y-128306556D01*
X96252997Y-128343621D01*
X96270594Y-128402222D01*
X96250386Y-128459973D01*
X96204317Y-128493444D01*
X96122116Y-128522207D01*
X96012855Y-128602845D01*
X96012845Y-128602855D01*
X95932207Y-128712116D01*
X95887355Y-128840296D01*
X95887353Y-128840305D01*
X95884500Y-128870725D01*
X95884500Y-129529274D01*
X95887353Y-129559694D01*
X95887355Y-129559703D01*
X95932207Y-129687883D01*
X96012845Y-129797144D01*
X96012847Y-129797146D01*
X96012850Y-129797150D01*
X96012853Y-129797152D01*
X96012855Y-129797154D01*
X96122116Y-129877792D01*
X96122117Y-129877792D01*
X96122118Y-129877793D01*
X96250301Y-129922646D01*
X96280725Y-129925499D01*
X96280727Y-129925500D01*
X96280734Y-129925500D01*
X96789273Y-129925500D01*
X96789273Y-129925499D01*
X96819699Y-129922646D01*
X96947882Y-129877793D01*
X97057150Y-129797150D01*
X97137793Y-129687882D01*
X97174912Y-129581802D01*
X97211977Y-129533122D01*
X97268356Y-129515500D01*
X97577792Y-129515500D01*
X97635983Y-129534407D01*
X97657044Y-129555169D01*
X97720313Y-129639687D01*
X97829774Y-129721628D01*
X97957886Y-129769412D01*
X98014515Y-129775500D01*
X98605484Y-129775499D01*
X98662114Y-129769412D01*
X98790226Y-129721628D01*
X98899687Y-129639687D01*
X98981628Y-129530226D01*
X99029412Y-129402114D01*
X99035500Y-129345485D01*
X99035499Y-129011188D01*
X99054406Y-128952998D01*
X99064489Y-128941191D01*
X101051188Y-126954494D01*
X101105705Y-126926717D01*
X101121192Y-126925498D01*
X110558291Y-126925498D01*
X110616482Y-126944405D01*
X110652446Y-126993905D01*
X110655388Y-127043814D01*
X110654650Y-127047519D01*
X110654650Y-127452473D01*
X110654651Y-127452485D01*
X110669183Y-127525537D01*
X110669184Y-127525541D01*
X110669185Y-127525542D01*
X110672917Y-127534553D01*
X110669933Y-127535788D01*
X110682089Y-127578883D01*
X110670534Y-127614464D01*
X110672916Y-127615451D01*
X110669183Y-127624463D01*
X110654651Y-127697515D01*
X110654650Y-127697527D01*
X110654650Y-128102472D01*
X110654651Y-128102484D01*
X110669183Y-128175536D01*
X110669185Y-128175542D01*
X110724547Y-128258399D01*
X110724550Y-128258402D01*
X110796619Y-128306556D01*
X110807410Y-128313766D01*
X110862958Y-128324815D01*
X110880465Y-128328298D01*
X110880470Y-128328298D01*
X110880476Y-128328300D01*
X111831660Y-128328300D01*
X111889851Y-128347207D01*
X111925815Y-128396707D01*
X111925815Y-128457893D01*
X111901664Y-128497304D01*
X109137264Y-131261704D01*
X109082747Y-131289481D01*
X109067260Y-131290700D01*
X89706300Y-131290700D01*
X89648109Y-131271793D01*
X89612145Y-131222293D01*
X89607300Y-131191700D01*
X89607300Y-129077525D01*
X91309500Y-129077525D01*
X91309500Y-129222475D01*
X91322771Y-129272001D01*
X91347017Y-129362489D01*
X91419487Y-129488010D01*
X91419489Y-129488012D01*
X91419491Y-129488015D01*
X91521985Y-129590509D01*
X91521987Y-129590510D01*
X91521989Y-129590512D01*
X91647511Y-129662982D01*
X91647512Y-129662982D01*
X91647515Y-129662984D01*
X91787525Y-129700500D01*
X91787526Y-129700500D01*
X91932474Y-129700500D01*
X91932475Y-129700500D01*
X92072485Y-129662984D01*
X92072487Y-129662982D01*
X92072489Y-129662982D01*
X92198010Y-129590512D01*
X92198011Y-129590511D01*
X92198015Y-129590509D01*
X92206722Y-129581802D01*
X92244029Y-129544496D01*
X92298546Y-129516719D01*
X92314032Y-129515500D01*
X94151644Y-129515500D01*
X94209835Y-129534407D01*
X94245088Y-129581802D01*
X94282207Y-129687883D01*
X94362845Y-129797144D01*
X94362847Y-129797146D01*
X94362850Y-129797150D01*
X94362853Y-129797152D01*
X94362855Y-129797154D01*
X94472116Y-129877792D01*
X94472117Y-129877792D01*
X94472118Y-129877793D01*
X94600301Y-129922646D01*
X94630725Y-129925499D01*
X94630727Y-129925500D01*
X94630734Y-129925500D01*
X95139273Y-129925500D01*
X95139273Y-129925499D01*
X95169699Y-129922646D01*
X95297882Y-129877793D01*
X95407150Y-129797150D01*
X95487793Y-129687882D01*
X95532646Y-129559699D01*
X95535499Y-129529273D01*
X95535500Y-129529273D01*
X95535500Y-128870727D01*
X95535499Y-128870725D01*
X95532646Y-128840305D01*
X95532646Y-128840301D01*
X95487793Y-128712118D01*
X95485854Y-128709491D01*
X95407154Y-128602855D01*
X95407152Y-128602853D01*
X95407150Y-128602850D01*
X95407146Y-128602847D01*
X95407144Y-128602845D01*
X95297883Y-128522207D01*
X95215682Y-128493444D01*
X95167002Y-128456379D01*
X95149405Y-128397779D01*
X95169613Y-128340027D01*
X95215682Y-128306556D01*
X95240765Y-128297779D01*
X95297882Y-128277793D01*
X95407150Y-128197150D01*
X95487793Y-128087882D01*
X95532646Y-127959699D01*
X95535499Y-127929273D01*
X95535500Y-127929273D01*
X95535500Y-127270727D01*
X95535499Y-127270725D01*
X95532646Y-127240301D01*
X95487793Y-127112118D01*
X95487790Y-127112114D01*
X95407154Y-127002855D01*
X95407152Y-127002853D01*
X95407150Y-127002850D01*
X95407146Y-127002847D01*
X95407144Y-127002845D01*
X95297883Y-126922207D01*
X95169703Y-126877355D01*
X95169694Y-126877353D01*
X95139274Y-126874500D01*
X95139266Y-126874500D01*
X94630734Y-126874500D01*
X94630725Y-126874500D01*
X94600305Y-126877353D01*
X94600296Y-126877355D01*
X94472116Y-126922207D01*
X94362855Y-127002845D01*
X94362845Y-127002855D01*
X94282208Y-127112114D01*
X94282207Y-127112118D01*
X94274830Y-127133198D01*
X94237767Y-127181878D01*
X94181387Y-127199500D01*
X93546190Y-127199500D01*
X93487999Y-127180593D01*
X93476186Y-127170504D01*
X93089496Y-126783814D01*
X93061719Y-126729297D01*
X93060500Y-126713810D01*
X93060500Y-126627525D01*
X93040559Y-126553105D01*
X93022984Y-126487515D01*
X93022982Y-126487512D01*
X93022982Y-126487510D01*
X92950512Y-126361989D01*
X92950510Y-126361987D01*
X92950509Y-126361985D01*
X92848015Y-126259491D01*
X92848012Y-126259489D01*
X92848010Y-126259487D01*
X92722488Y-126187017D01*
X92722489Y-126187017D01*
X92688061Y-126177792D01*
X92582475Y-126149500D01*
X92437525Y-126149500D01*
X92375790Y-126166041D01*
X92297510Y-126187017D01*
X92171989Y-126259487D01*
X92069487Y-126361989D01*
X91997017Y-126487510D01*
X91959500Y-126627525D01*
X91959500Y-126772475D01*
X91984457Y-126865613D01*
X91997017Y-126912489D01*
X92069487Y-127038010D01*
X92069489Y-127038012D01*
X92069491Y-127038015D01*
X92171985Y-127140509D01*
X92171987Y-127140510D01*
X92171989Y-127140512D01*
X92297511Y-127212982D01*
X92297512Y-127212982D01*
X92297515Y-127212984D01*
X92437525Y-127250500D01*
X92523810Y-127250500D01*
X92582001Y-127269407D01*
X92593814Y-127279496D01*
X93144788Y-127830470D01*
X93144790Y-127830471D01*
X93221053Y-127874502D01*
X93221054Y-127874502D01*
X93224712Y-127876614D01*
X93313856Y-127900500D01*
X93313857Y-127900500D01*
X93406144Y-127900500D01*
X94146395Y-127900500D01*
X94204586Y-127919407D01*
X94239839Y-127966802D01*
X94282207Y-128087883D01*
X94362845Y-128197144D01*
X94362847Y-128197146D01*
X94362850Y-128197150D01*
X94362853Y-128197152D01*
X94362855Y-128197154D01*
X94472116Y-128277792D01*
X94472117Y-128277792D01*
X94472118Y-128277793D01*
X94505635Y-128289521D01*
X94554317Y-128306556D01*
X94602997Y-128343621D01*
X94620594Y-128402222D01*
X94600386Y-128459973D01*
X94554317Y-128493444D01*
X94472116Y-128522207D01*
X94362855Y-128602845D01*
X94362845Y-128602855D01*
X94282207Y-128712116D01*
X94269582Y-128748198D01*
X94232517Y-128796878D01*
X94176138Y-128814500D01*
X92344031Y-128814500D01*
X92285840Y-128795593D01*
X92274033Y-128785509D01*
X92198015Y-128709491D01*
X92198012Y-128709489D01*
X92198010Y-128709487D01*
X92072488Y-128637017D01*
X92072489Y-128637017D01*
X92042719Y-128629040D01*
X91932475Y-128599500D01*
X91787525Y-128599500D01*
X91740442Y-128612116D01*
X91647510Y-128637017D01*
X91521989Y-128709487D01*
X91419487Y-128811989D01*
X91347017Y-128937510D01*
X91336168Y-128977999D01*
X91309500Y-129077525D01*
X89607300Y-129077525D01*
X89607300Y-128687231D01*
X89626207Y-128629040D01*
X89636290Y-128617233D01*
X89690509Y-128563015D01*
X89714070Y-128522207D01*
X89762982Y-128437489D01*
X89762982Y-128437487D01*
X89762984Y-128437485D01*
X89800500Y-128297475D01*
X89800500Y-128152525D01*
X89762984Y-128012515D01*
X89762982Y-128012512D01*
X89762982Y-128012510D01*
X89690512Y-127886989D01*
X89690510Y-127886987D01*
X89690509Y-127886985D01*
X89588015Y-127784491D01*
X89588012Y-127784489D01*
X89588010Y-127784487D01*
X89462488Y-127712017D01*
X89462489Y-127712017D01*
X89408419Y-127697529D01*
X89322475Y-127674500D01*
X89177525Y-127674500D01*
X89156734Y-127680071D01*
X89095445Y-127696493D01*
X89034343Y-127693290D01*
X88986793Y-127654785D01*
X88970958Y-127595684D01*
X88992885Y-127538563D01*
X88999805Y-127530876D01*
X90876188Y-125654494D01*
X90930705Y-125626717D01*
X90946192Y-125625498D01*
X99599813Y-125625498D01*
X99658004Y-125644405D01*
G37*
%TD.AperFunction*%
%TA.AperFunction,Conductor*%
G36*
X120264518Y-127314223D02*
G01*
X120284963Y-127317461D01*
X120292444Y-127324942D01*
X120302320Y-127328733D01*
X120313591Y-127346089D01*
X120328228Y-127360726D01*
X120335644Y-127380047D01*
X120347015Y-127422484D01*
X120347017Y-127422488D01*
X120419487Y-127548010D01*
X120419489Y-127548012D01*
X120419491Y-127548015D01*
X120521985Y-127650509D01*
X120521987Y-127650510D01*
X120521989Y-127650512D01*
X120647511Y-127722982D01*
X120647512Y-127722982D01*
X120647515Y-127722984D01*
X120787525Y-127760500D01*
X120787526Y-127760500D01*
X120932474Y-127760500D01*
X120932475Y-127760500D01*
X121072485Y-127722984D01*
X121072487Y-127722982D01*
X121072489Y-127722982D01*
X121198010Y-127650512D01*
X121198010Y-127650511D01*
X121198015Y-127650509D01*
X121241332Y-127607192D01*
X121259029Y-127589496D01*
X121313546Y-127561719D01*
X121329032Y-127560500D01*
X123032011Y-127560500D01*
X123090202Y-127579407D01*
X123126166Y-127628907D01*
X123126166Y-127690093D01*
X123102016Y-127729501D01*
X122268508Y-128563010D01*
X119858687Y-130972830D01*
X119804170Y-131000607D01*
X119743738Y-130991036D01*
X119700473Y-130947771D01*
X119693057Y-130928450D01*
X119690984Y-130920715D01*
X119690982Y-130920711D01*
X119618512Y-130795189D01*
X119618510Y-130795187D01*
X119618509Y-130795185D01*
X119516015Y-130692691D01*
X119516012Y-130692689D01*
X119514496Y-130691173D01*
X119486719Y-130636656D01*
X119485500Y-130621169D01*
X119485500Y-128061190D01*
X119504407Y-128002999D01*
X119514496Y-127991186D01*
X119831182Y-127674500D01*
X120170016Y-127335665D01*
X120179441Y-127330863D01*
X120186098Y-127322643D01*
X120206089Y-127317286D01*
X120224531Y-127307890D01*
X120234980Y-127309544D01*
X120245198Y-127306807D01*
X120264518Y-127314223D01*
G37*
%TD.AperFunction*%
%TA.AperFunction,Conductor*%
G36*
X140322599Y-120210778D02*
G01*
X140325210Y-120210079D01*
X140351463Y-120220156D01*
X140378220Y-120228850D01*
X140379808Y-120231036D01*
X140382331Y-120232005D01*
X140397648Y-120255590D01*
X140414184Y-120278350D01*
X140415652Y-120283307D01*
X140426750Y-120324723D01*
X140438499Y-120368569D01*
X140464018Y-120430178D01*
X140464020Y-120430182D01*
X140464022Y-120430186D01*
X140497834Y-120488750D01*
X140529850Y-120544203D01*
X140570446Y-120597109D01*
X140570448Y-120597111D01*
X140570452Y-120597116D01*
X140663544Y-120690208D01*
X140663548Y-120690211D01*
X140663550Y-120690213D01*
X140708234Y-120724500D01*
X140716460Y-120730812D01*
X140830474Y-120796638D01*
X140830480Y-120796640D01*
X140830481Y-120796641D01*
X140892091Y-120822161D01*
X140892092Y-120822161D01*
X140892094Y-120822162D01*
X141019261Y-120856237D01*
X141085391Y-120864943D01*
X141509104Y-120864943D01*
X141567295Y-120883850D01*
X141603259Y-120933350D01*
X141608089Y-120965692D01*
X141596928Y-121597249D01*
X141576995Y-121655097D01*
X141526867Y-121690180D01*
X141497943Y-121694500D01*
X141094172Y-121694500D01*
X141028051Y-121703205D01*
X141028046Y-121703205D01*
X140900874Y-121737281D01*
X140839264Y-121762801D01*
X140725239Y-121828633D01*
X140672333Y-121869229D01*
X140579229Y-121962333D01*
X140538633Y-122015239D01*
X140472801Y-122129264D01*
X140447282Y-122190873D01*
X140447281Y-122190877D01*
X140433453Y-122242485D01*
X140424439Y-122276124D01*
X140391114Y-122327438D01*
X140333993Y-122349364D01*
X140328812Y-122349500D01*
X135984624Y-122349500D01*
X135895480Y-122373386D01*
X135895479Y-122373386D01*
X135895477Y-122373387D01*
X135815558Y-122419529D01*
X133314582Y-124920504D01*
X133260065Y-124948281D01*
X133244578Y-124949500D01*
X121663856Y-124949500D01*
X121579112Y-124972207D01*
X121579111Y-124972206D01*
X121574715Y-124973384D01*
X121574708Y-124973387D01*
X121494790Y-125019528D01*
X119573913Y-126940403D01*
X119548841Y-126953177D01*
X119524490Y-126967236D01*
X119521803Y-126966953D01*
X119519396Y-126968180D01*
X119491611Y-126963779D01*
X119463640Y-126960839D01*
X119461632Y-126959031D01*
X119458964Y-126958609D01*
X119418172Y-126919897D01*
X119407697Y-126901753D01*
X119394977Y-126841905D01*
X119419864Y-126786010D01*
X119423411Y-126782270D01*
X121426186Y-124779496D01*
X121480703Y-124751719D01*
X121496190Y-124750500D01*
X131606142Y-124750500D01*
X131606144Y-124750500D01*
X131695288Y-124726614D01*
X131775212Y-124680470D01*
X136216742Y-120238938D01*
X136271259Y-120211162D01*
X136286746Y-120209943D01*
X140320029Y-120209943D01*
X140322599Y-120210778D01*
G37*
%TD.AperFunction*%
%TD*%
%TA.AperFunction,Conductor*%
%TO.N,Net-(J8-Pin_2)*%
G36*
X143443039Y-113269685D02*
G01*
X143488794Y-113322489D01*
X143500000Y-113374000D01*
X143500000Y-123876000D01*
X143480315Y-123943039D01*
X143427511Y-123988794D01*
X143376000Y-124000000D01*
X141936211Y-124000000D01*
X141926470Y-123997139D01*
X141916398Y-123998407D01*
X141893510Y-123987461D01*
X141869172Y-123980315D01*
X141862524Y-123972643D01*
X141853365Y-123968263D01*
X141840027Y-123946680D01*
X141823417Y-123927511D01*
X141820994Y-123915881D01*
X141816635Y-123908827D01*
X141812230Y-123873809D01*
X141815228Y-123704189D01*
X141836095Y-123637508D01*
X141836106Y-123637490D01*
X141840666Y-123630666D01*
X141896051Y-123547776D01*
X141915500Y-123450000D01*
X141915500Y-121950000D01*
X141915500Y-121949997D01*
X141915499Y-121949995D01*
X141896052Y-121852225D01*
X141896051Y-121852223D01*
X141880287Y-121828631D01*
X141870763Y-121814378D01*
X141849885Y-121747703D01*
X141849884Y-121743403D01*
X141867036Y-120772946D01*
X141883904Y-120719043D01*
X141882595Y-120718501D01*
X141887269Y-120707217D01*
X141906716Y-120609447D01*
X141906717Y-120609445D01*
X141906717Y-119109442D01*
X141905292Y-119102279D01*
X141899874Y-119075043D01*
X141897511Y-119048674D01*
X141997847Y-113371808D01*
X142018714Y-113305128D01*
X142072318Y-113260313D01*
X142121828Y-113250000D01*
X143376000Y-113250000D01*
X143443039Y-113269685D01*
G37*
%TD.AperFunction*%
%TD*%
%TA.AperFunction,Conductor*%
%TO.N,Net-(J8-Pin_3)*%
G36*
X143440429Y-126769685D02*
G01*
X143486184Y-126822489D01*
X143497362Y-126876582D01*
X143291591Y-136753675D01*
X143252530Y-138628583D01*
X143231453Y-138695198D01*
X143177708Y-138739843D01*
X143128557Y-138750000D01*
X141959508Y-138750000D01*
X141892469Y-138730315D01*
X141846714Y-138677511D01*
X141836770Y-138608353D01*
X141856404Y-138557111D01*
X141896051Y-138497776D01*
X141915500Y-138400000D01*
X141915500Y-136900000D01*
X141915500Y-136899997D01*
X141915499Y-136899995D01*
X141896052Y-136802228D01*
X141896051Y-136802224D01*
X141863610Y-136753672D01*
X141842733Y-136686998D01*
X141842729Y-136682900D01*
X141864130Y-135331221D01*
X141884872Y-135264506D01*
X141896051Y-135247776D01*
X141896052Y-135247774D01*
X141915499Y-135150004D01*
X141915500Y-135150002D01*
X141915500Y-133649998D01*
X141910163Y-133623169D01*
X141896051Y-133552224D01*
X141896049Y-133552221D01*
X141895149Y-133547695D01*
X141892783Y-133521557D01*
X141998068Y-126872037D01*
X142018811Y-126805317D01*
X142072333Y-126760404D01*
X142122052Y-126750000D01*
X143373390Y-126750000D01*
X143440429Y-126769685D01*
G37*
%TD.AperFunction*%
%TD*%
M02*
