%TF.GenerationSoftware,KiCad,Pcbnew,9.0.3*%
%TF.CreationDate,2025-09-15T18:31:04-04:00*%
%TF.ProjectId,SGTC_Center,53475443-5f43-4656-9e74-65722e6b6963,rev?*%
%TF.SameCoordinates,Original*%
%TF.FileFunction,Legend,Top*%
%TF.FilePolarity,Positive*%
%FSLAX46Y46*%
G04 Gerber Fmt 4.6, Leading zero omitted, Abs format (unit mm)*
G04 Created by KiCad (PCBNEW 9.0.3) date 2025-09-15 18:31:04*
%MOMM*%
%LPD*%
G01*
G04 APERTURE LIST*
%ADD10C,0.100000*%
%ADD11C,0.150000*%
%ADD12C,0.120000*%
%ADD13C,0.152400*%
%ADD14C,0.000000*%
%ADD15C,0.200000*%
G04 APERTURE END LIST*
D10*
X56557060Y-140084924D02*
X75857060Y-76584924D01*
X75857060Y-76584924D02*
X107607060Y-76584924D01*
X107607060Y-76584924D02*
X208925000Y-140075000D01*
D11*
X184033333Y-139059580D02*
X183985714Y-139107200D01*
X183985714Y-139107200D02*
X183842857Y-139154819D01*
X183842857Y-139154819D02*
X183747619Y-139154819D01*
X183747619Y-139154819D02*
X183604762Y-139107200D01*
X183604762Y-139107200D02*
X183509524Y-139011961D01*
X183509524Y-139011961D02*
X183461905Y-138916723D01*
X183461905Y-138916723D02*
X183414286Y-138726247D01*
X183414286Y-138726247D02*
X183414286Y-138583390D01*
X183414286Y-138583390D02*
X183461905Y-138392914D01*
X183461905Y-138392914D02*
X183509524Y-138297676D01*
X183509524Y-138297676D02*
X183604762Y-138202438D01*
X183604762Y-138202438D02*
X183747619Y-138154819D01*
X183747619Y-138154819D02*
X183842857Y-138154819D01*
X183842857Y-138154819D02*
X183985714Y-138202438D01*
X183985714Y-138202438D02*
X184033333Y-138250057D01*
X184414286Y-139107200D02*
X184557143Y-139154819D01*
X184557143Y-139154819D02*
X184795238Y-139154819D01*
X184795238Y-139154819D02*
X184890476Y-139107200D01*
X184890476Y-139107200D02*
X184938095Y-139059580D01*
X184938095Y-139059580D02*
X184985714Y-138964342D01*
X184985714Y-138964342D02*
X184985714Y-138869104D01*
X184985714Y-138869104D02*
X184938095Y-138773866D01*
X184938095Y-138773866D02*
X184890476Y-138726247D01*
X184890476Y-138726247D02*
X184795238Y-138678628D01*
X184795238Y-138678628D02*
X184604762Y-138631009D01*
X184604762Y-138631009D02*
X184509524Y-138583390D01*
X184509524Y-138583390D02*
X184461905Y-138535771D01*
X184461905Y-138535771D02*
X184414286Y-138440533D01*
X184414286Y-138440533D02*
X184414286Y-138345295D01*
X184414286Y-138345295D02*
X184461905Y-138250057D01*
X184461905Y-138250057D02*
X184509524Y-138202438D01*
X184509524Y-138202438D02*
X184604762Y-138154819D01*
X184604762Y-138154819D02*
X184842857Y-138154819D01*
X184842857Y-138154819D02*
X184985714Y-138202438D01*
X183323810Y-137877200D02*
X185076191Y-137877200D01*
X110262600Y-136490839D02*
X110310219Y-136347982D01*
X110310219Y-136347982D02*
X110310219Y-136109887D01*
X110310219Y-136109887D02*
X110262600Y-136014649D01*
X110262600Y-136014649D02*
X110214980Y-135967030D01*
X110214980Y-135967030D02*
X110119742Y-135919411D01*
X110119742Y-135919411D02*
X110024504Y-135919411D01*
X110024504Y-135919411D02*
X109929266Y-135967030D01*
X109929266Y-135967030D02*
X109881647Y-136014649D01*
X109881647Y-136014649D02*
X109834028Y-136109887D01*
X109834028Y-136109887D02*
X109786409Y-136300363D01*
X109786409Y-136300363D02*
X109738790Y-136395601D01*
X109738790Y-136395601D02*
X109691171Y-136443220D01*
X109691171Y-136443220D02*
X109595933Y-136490839D01*
X109595933Y-136490839D02*
X109500695Y-136490839D01*
X109500695Y-136490839D02*
X109405457Y-136443220D01*
X109405457Y-136443220D02*
X109357838Y-136395601D01*
X109357838Y-136395601D02*
X109310219Y-136300363D01*
X109310219Y-136300363D02*
X109310219Y-136062268D01*
X109310219Y-136062268D02*
X109357838Y-135919411D01*
X110214980Y-134919411D02*
X110262600Y-134967030D01*
X110262600Y-134967030D02*
X110310219Y-135109887D01*
X110310219Y-135109887D02*
X110310219Y-135205125D01*
X110310219Y-135205125D02*
X110262600Y-135347982D01*
X110262600Y-135347982D02*
X110167361Y-135443220D01*
X110167361Y-135443220D02*
X110072123Y-135490839D01*
X110072123Y-135490839D02*
X109881647Y-135538458D01*
X109881647Y-135538458D02*
X109738790Y-135538458D01*
X109738790Y-135538458D02*
X109548314Y-135490839D01*
X109548314Y-135490839D02*
X109453076Y-135443220D01*
X109453076Y-135443220D02*
X109357838Y-135347982D01*
X109357838Y-135347982D02*
X109310219Y-135205125D01*
X109310219Y-135205125D02*
X109310219Y-135109887D01*
X109310219Y-135109887D02*
X109357838Y-134967030D01*
X109357838Y-134967030D02*
X109405457Y-134919411D01*
X110310219Y-134490839D02*
X109310219Y-134490839D01*
X110310219Y-133919411D02*
X109738790Y-134347982D01*
X109310219Y-133919411D02*
X109881647Y-134490839D01*
X133024180Y-135914592D02*
X133071800Y-135962211D01*
X133071800Y-135962211D02*
X133119419Y-136105068D01*
X133119419Y-136105068D02*
X133119419Y-136200306D01*
X133119419Y-136200306D02*
X133071800Y-136343163D01*
X133071800Y-136343163D02*
X132976561Y-136438401D01*
X132976561Y-136438401D02*
X132881323Y-136486020D01*
X132881323Y-136486020D02*
X132690847Y-136533639D01*
X132690847Y-136533639D02*
X132547990Y-136533639D01*
X132547990Y-136533639D02*
X132357514Y-136486020D01*
X132357514Y-136486020D02*
X132262276Y-136438401D01*
X132262276Y-136438401D02*
X132167038Y-136343163D01*
X132167038Y-136343163D02*
X132119419Y-136200306D01*
X132119419Y-136200306D02*
X132119419Y-136105068D01*
X132119419Y-136105068D02*
X132167038Y-135962211D01*
X132167038Y-135962211D02*
X132214657Y-135914592D01*
X133119419Y-135009830D02*
X133119419Y-135486020D01*
X133119419Y-135486020D02*
X132119419Y-135486020D01*
X133119419Y-134676496D02*
X132119419Y-134676496D01*
X133119419Y-134105068D02*
X132547990Y-134533639D01*
X132119419Y-134105068D02*
X132690847Y-134676496D01*
X144146779Y-120769819D02*
X144146779Y-119769819D01*
X144146779Y-119769819D02*
X144384874Y-119769819D01*
X144384874Y-119769819D02*
X144527731Y-119817438D01*
X144527731Y-119817438D02*
X144622969Y-119912676D01*
X144622969Y-119912676D02*
X144670588Y-120007914D01*
X144670588Y-120007914D02*
X144718207Y-120198390D01*
X144718207Y-120198390D02*
X144718207Y-120341247D01*
X144718207Y-120341247D02*
X144670588Y-120531723D01*
X144670588Y-120531723D02*
X144622969Y-120626961D01*
X144622969Y-120626961D02*
X144527731Y-120722200D01*
X144527731Y-120722200D02*
X144384874Y-120769819D01*
X144384874Y-120769819D02*
X144146779Y-120769819D01*
X145718207Y-120769819D02*
X145384874Y-120293628D01*
X145146779Y-120769819D02*
X145146779Y-119769819D01*
X145146779Y-119769819D02*
X145527731Y-119769819D01*
X145527731Y-119769819D02*
X145622969Y-119817438D01*
X145622969Y-119817438D02*
X145670588Y-119865057D01*
X145670588Y-119865057D02*
X145718207Y-119960295D01*
X145718207Y-119960295D02*
X145718207Y-120103152D01*
X145718207Y-120103152D02*
X145670588Y-120198390D01*
X145670588Y-120198390D02*
X145622969Y-120246009D01*
X145622969Y-120246009D02*
X145527731Y-120293628D01*
X145527731Y-120293628D02*
X145146779Y-120293628D01*
X146146779Y-120769819D02*
X146146779Y-119769819D01*
X146146779Y-119769819D02*
X146384874Y-119769819D01*
X146384874Y-119769819D02*
X146527731Y-119817438D01*
X146527731Y-119817438D02*
X146622969Y-119912676D01*
X146622969Y-119912676D02*
X146670588Y-120007914D01*
X146670588Y-120007914D02*
X146718207Y-120198390D01*
X146718207Y-120198390D02*
X146718207Y-120341247D01*
X146718207Y-120341247D02*
X146670588Y-120531723D01*
X146670588Y-120531723D02*
X146622969Y-120626961D01*
X146622969Y-120626961D02*
X146527731Y-120722200D01*
X146527731Y-120722200D02*
X146384874Y-120769819D01*
X146384874Y-120769819D02*
X146146779Y-120769819D01*
X147337255Y-120293628D02*
X147337255Y-120769819D01*
X147003922Y-119769819D02*
X147337255Y-120293628D01*
X147337255Y-120293628D02*
X147670588Y-119769819D01*
X144008684Y-119492200D02*
X147665827Y-119492200D01*
X125499419Y-136443220D02*
X124499419Y-136443220D01*
X124499419Y-136443220D02*
X124499419Y-136205125D01*
X124499419Y-136205125D02*
X124547038Y-136062268D01*
X124547038Y-136062268D02*
X124642276Y-135967030D01*
X124642276Y-135967030D02*
X124737514Y-135919411D01*
X124737514Y-135919411D02*
X124927990Y-135871792D01*
X124927990Y-135871792D02*
X125070847Y-135871792D01*
X125070847Y-135871792D02*
X125261323Y-135919411D01*
X125261323Y-135919411D02*
X125356561Y-135967030D01*
X125356561Y-135967030D02*
X125451800Y-136062268D01*
X125451800Y-136062268D02*
X125499419Y-136205125D01*
X125499419Y-136205125D02*
X125499419Y-136443220D01*
X125499419Y-135443220D02*
X124499419Y-135443220D01*
X125499419Y-134967030D02*
X124499419Y-134967030D01*
X124499419Y-134967030D02*
X125499419Y-134395602D01*
X125499419Y-134395602D02*
X124499419Y-134395602D01*
X86450219Y-136479658D02*
X86450219Y-135860611D01*
X86450219Y-135860611D02*
X86831171Y-136193944D01*
X86831171Y-136193944D02*
X86831171Y-136051087D01*
X86831171Y-136051087D02*
X86878790Y-135955849D01*
X86878790Y-135955849D02*
X86926409Y-135908230D01*
X86926409Y-135908230D02*
X87021647Y-135860611D01*
X87021647Y-135860611D02*
X87259742Y-135860611D01*
X87259742Y-135860611D02*
X87354980Y-135908230D01*
X87354980Y-135908230D02*
X87402600Y-135955849D01*
X87402600Y-135955849D02*
X87450219Y-136051087D01*
X87450219Y-136051087D02*
X87450219Y-136336801D01*
X87450219Y-136336801D02*
X87402600Y-136432039D01*
X87402600Y-136432039D02*
X87354980Y-136479658D01*
X87354980Y-135432039D02*
X87402600Y-135384420D01*
X87402600Y-135384420D02*
X87450219Y-135432039D01*
X87450219Y-135432039D02*
X87402600Y-135479658D01*
X87402600Y-135479658D02*
X87354980Y-135432039D01*
X87354980Y-135432039D02*
X87450219Y-135432039D01*
X86450219Y-135051087D02*
X86450219Y-134432040D01*
X86450219Y-134432040D02*
X86831171Y-134765373D01*
X86831171Y-134765373D02*
X86831171Y-134622516D01*
X86831171Y-134622516D02*
X86878790Y-134527278D01*
X86878790Y-134527278D02*
X86926409Y-134479659D01*
X86926409Y-134479659D02*
X87021647Y-134432040D01*
X87021647Y-134432040D02*
X87259742Y-134432040D01*
X87259742Y-134432040D02*
X87354980Y-134479659D01*
X87354980Y-134479659D02*
X87402600Y-134527278D01*
X87402600Y-134527278D02*
X87450219Y-134622516D01*
X87450219Y-134622516D02*
X87450219Y-134908230D01*
X87450219Y-134908230D02*
X87402600Y-135003468D01*
X87402600Y-135003468D02*
X87354980Y-135051087D01*
X86450219Y-134146325D02*
X87450219Y-133812992D01*
X87450219Y-133812992D02*
X86450219Y-133479659D01*
X102741019Y-135871792D02*
X102264828Y-136205125D01*
X102741019Y-136443220D02*
X101741019Y-136443220D01*
X101741019Y-136443220D02*
X101741019Y-136062268D01*
X101741019Y-136062268D02*
X101788638Y-135967030D01*
X101788638Y-135967030D02*
X101836257Y-135919411D01*
X101836257Y-135919411D02*
X101931495Y-135871792D01*
X101931495Y-135871792D02*
X102074352Y-135871792D01*
X102074352Y-135871792D02*
X102169590Y-135919411D01*
X102169590Y-135919411D02*
X102217209Y-135967030D01*
X102217209Y-135967030D02*
X102264828Y-136062268D01*
X102264828Y-136062268D02*
X102264828Y-136443220D01*
X102693400Y-135490839D02*
X102741019Y-135347982D01*
X102741019Y-135347982D02*
X102741019Y-135109887D01*
X102741019Y-135109887D02*
X102693400Y-135014649D01*
X102693400Y-135014649D02*
X102645780Y-134967030D01*
X102645780Y-134967030D02*
X102550542Y-134919411D01*
X102550542Y-134919411D02*
X102455304Y-134919411D01*
X102455304Y-134919411D02*
X102360066Y-134967030D01*
X102360066Y-134967030D02*
X102312447Y-135014649D01*
X102312447Y-135014649D02*
X102264828Y-135109887D01*
X102264828Y-135109887D02*
X102217209Y-135300363D01*
X102217209Y-135300363D02*
X102169590Y-135395601D01*
X102169590Y-135395601D02*
X102121971Y-135443220D01*
X102121971Y-135443220D02*
X102026733Y-135490839D01*
X102026733Y-135490839D02*
X101931495Y-135490839D01*
X101931495Y-135490839D02*
X101836257Y-135443220D01*
X101836257Y-135443220D02*
X101788638Y-135395601D01*
X101788638Y-135395601D02*
X101741019Y-135300363D01*
X101741019Y-135300363D02*
X101741019Y-135062268D01*
X101741019Y-135062268D02*
X101788638Y-134919411D01*
X101741019Y-134633696D02*
X101741019Y-134062268D01*
X102741019Y-134347982D02*
X101741019Y-134347982D01*
X101463400Y-136581316D02*
X101463400Y-134067030D01*
X144670588Y-117067438D02*
X144575350Y-117019819D01*
X144575350Y-117019819D02*
X144432493Y-117019819D01*
X144432493Y-117019819D02*
X144289636Y-117067438D01*
X144289636Y-117067438D02*
X144194398Y-117162676D01*
X144194398Y-117162676D02*
X144146779Y-117257914D01*
X144146779Y-117257914D02*
X144099160Y-117448390D01*
X144099160Y-117448390D02*
X144099160Y-117591247D01*
X144099160Y-117591247D02*
X144146779Y-117781723D01*
X144146779Y-117781723D02*
X144194398Y-117876961D01*
X144194398Y-117876961D02*
X144289636Y-117972200D01*
X144289636Y-117972200D02*
X144432493Y-118019819D01*
X144432493Y-118019819D02*
X144527731Y-118019819D01*
X144527731Y-118019819D02*
X144670588Y-117972200D01*
X144670588Y-117972200D02*
X144718207Y-117924580D01*
X144718207Y-117924580D02*
X144718207Y-117591247D01*
X144718207Y-117591247D02*
X144527731Y-117591247D01*
X145146779Y-118019819D02*
X145146779Y-117019819D01*
X145146779Y-117019819D02*
X145718207Y-118019819D01*
X145718207Y-118019819D02*
X145718207Y-117019819D01*
X146194398Y-118019819D02*
X146194398Y-117019819D01*
X146194398Y-117019819D02*
X146432493Y-117019819D01*
X146432493Y-117019819D02*
X146575350Y-117067438D01*
X146575350Y-117067438D02*
X146670588Y-117162676D01*
X146670588Y-117162676D02*
X146718207Y-117257914D01*
X146718207Y-117257914D02*
X146765826Y-117448390D01*
X146765826Y-117448390D02*
X146765826Y-117591247D01*
X146765826Y-117591247D02*
X146718207Y-117781723D01*
X146718207Y-117781723D02*
X146670588Y-117876961D01*
X146670588Y-117876961D02*
X146575350Y-117972200D01*
X146575350Y-117972200D02*
X146432493Y-118019819D01*
X146432493Y-118019819D02*
X146194398Y-118019819D01*
X144146779Y-131769819D02*
X144146779Y-130769819D01*
X144146779Y-130769819D02*
X144384874Y-130769819D01*
X144384874Y-130769819D02*
X144527731Y-130817438D01*
X144527731Y-130817438D02*
X144622969Y-130912676D01*
X144622969Y-130912676D02*
X144670588Y-131007914D01*
X144670588Y-131007914D02*
X144718207Y-131198390D01*
X144718207Y-131198390D02*
X144718207Y-131341247D01*
X144718207Y-131341247D02*
X144670588Y-131531723D01*
X144670588Y-131531723D02*
X144622969Y-131626961D01*
X144622969Y-131626961D02*
X144527731Y-131722200D01*
X144527731Y-131722200D02*
X144384874Y-131769819D01*
X144384874Y-131769819D02*
X144146779Y-131769819D01*
X145337255Y-130769819D02*
X145527731Y-130769819D01*
X145527731Y-130769819D02*
X145622969Y-130817438D01*
X145622969Y-130817438D02*
X145718207Y-130912676D01*
X145718207Y-130912676D02*
X145765826Y-131103152D01*
X145765826Y-131103152D02*
X145765826Y-131436485D01*
X145765826Y-131436485D02*
X145718207Y-131626961D01*
X145718207Y-131626961D02*
X145622969Y-131722200D01*
X145622969Y-131722200D02*
X145527731Y-131769819D01*
X145527731Y-131769819D02*
X145337255Y-131769819D01*
X145337255Y-131769819D02*
X145242017Y-131722200D01*
X145242017Y-131722200D02*
X145146779Y-131626961D01*
X145146779Y-131626961D02*
X145099160Y-131436485D01*
X145099160Y-131436485D02*
X145099160Y-131103152D01*
X145099160Y-131103152D02*
X145146779Y-130912676D01*
X145146779Y-130912676D02*
X145242017Y-130817438D01*
X145242017Y-130817438D02*
X145337255Y-130769819D01*
X146194398Y-130769819D02*
X146194398Y-131579342D01*
X146194398Y-131579342D02*
X146242017Y-131674580D01*
X146242017Y-131674580D02*
X146289636Y-131722200D01*
X146289636Y-131722200D02*
X146384874Y-131769819D01*
X146384874Y-131769819D02*
X146575350Y-131769819D01*
X146575350Y-131769819D02*
X146670588Y-131722200D01*
X146670588Y-131722200D02*
X146718207Y-131674580D01*
X146718207Y-131674580D02*
X146765826Y-131579342D01*
X146765826Y-131579342D02*
X146765826Y-130769819D01*
X147099160Y-130769819D02*
X147670588Y-130769819D01*
X147384874Y-131769819D02*
X147384874Y-130769819D01*
X144146779Y-134769819D02*
X144146779Y-133769819D01*
X144146779Y-133769819D02*
X144384874Y-133769819D01*
X144384874Y-133769819D02*
X144527731Y-133817438D01*
X144527731Y-133817438D02*
X144622969Y-133912676D01*
X144622969Y-133912676D02*
X144670588Y-134007914D01*
X144670588Y-134007914D02*
X144718207Y-134198390D01*
X144718207Y-134198390D02*
X144718207Y-134341247D01*
X144718207Y-134341247D02*
X144670588Y-134531723D01*
X144670588Y-134531723D02*
X144622969Y-134626961D01*
X144622969Y-134626961D02*
X144527731Y-134722200D01*
X144527731Y-134722200D02*
X144384874Y-134769819D01*
X144384874Y-134769819D02*
X144146779Y-134769819D01*
X145146779Y-134769819D02*
X145146779Y-133769819D01*
X145622969Y-134769819D02*
X145622969Y-133769819D01*
X145622969Y-133769819D02*
X146194397Y-134769819D01*
X146194397Y-134769819D02*
X146194397Y-133769819D01*
X144101541Y-114619819D02*
X144720588Y-114619819D01*
X144720588Y-114619819D02*
X144387255Y-115000771D01*
X144387255Y-115000771D02*
X144530112Y-115000771D01*
X144530112Y-115000771D02*
X144625350Y-115048390D01*
X144625350Y-115048390D02*
X144672969Y-115096009D01*
X144672969Y-115096009D02*
X144720588Y-115191247D01*
X144720588Y-115191247D02*
X144720588Y-115429342D01*
X144720588Y-115429342D02*
X144672969Y-115524580D01*
X144672969Y-115524580D02*
X144625350Y-115572200D01*
X144625350Y-115572200D02*
X144530112Y-115619819D01*
X144530112Y-115619819D02*
X144244398Y-115619819D01*
X144244398Y-115619819D02*
X144149160Y-115572200D01*
X144149160Y-115572200D02*
X144101541Y-115524580D01*
X145149160Y-115524580D02*
X145196779Y-115572200D01*
X145196779Y-115572200D02*
X145149160Y-115619819D01*
X145149160Y-115619819D02*
X145101541Y-115572200D01*
X145101541Y-115572200D02*
X145149160Y-115524580D01*
X145149160Y-115524580D02*
X145149160Y-115619819D01*
X145530112Y-114619819D02*
X146149159Y-114619819D01*
X146149159Y-114619819D02*
X145815826Y-115000771D01*
X145815826Y-115000771D02*
X145958683Y-115000771D01*
X145958683Y-115000771D02*
X146053921Y-115048390D01*
X146053921Y-115048390D02*
X146101540Y-115096009D01*
X146101540Y-115096009D02*
X146149159Y-115191247D01*
X146149159Y-115191247D02*
X146149159Y-115429342D01*
X146149159Y-115429342D02*
X146101540Y-115524580D01*
X146101540Y-115524580D02*
X146053921Y-115572200D01*
X146053921Y-115572200D02*
X145958683Y-115619819D01*
X145958683Y-115619819D02*
X145672969Y-115619819D01*
X145672969Y-115619819D02*
X145577731Y-115572200D01*
X145577731Y-115572200D02*
X145530112Y-115524580D01*
X146434874Y-114619819D02*
X146768207Y-115619819D01*
X146768207Y-115619819D02*
X147101540Y-114619819D01*
X144099160Y-128222200D02*
X144242017Y-128269819D01*
X144242017Y-128269819D02*
X144480112Y-128269819D01*
X144480112Y-128269819D02*
X144575350Y-128222200D01*
X144575350Y-128222200D02*
X144622969Y-128174580D01*
X144622969Y-128174580D02*
X144670588Y-128079342D01*
X144670588Y-128079342D02*
X144670588Y-127984104D01*
X144670588Y-127984104D02*
X144622969Y-127888866D01*
X144622969Y-127888866D02*
X144575350Y-127841247D01*
X144575350Y-127841247D02*
X144480112Y-127793628D01*
X144480112Y-127793628D02*
X144289636Y-127746009D01*
X144289636Y-127746009D02*
X144194398Y-127698390D01*
X144194398Y-127698390D02*
X144146779Y-127650771D01*
X144146779Y-127650771D02*
X144099160Y-127555533D01*
X144099160Y-127555533D02*
X144099160Y-127460295D01*
X144099160Y-127460295D02*
X144146779Y-127365057D01*
X144146779Y-127365057D02*
X144194398Y-127317438D01*
X144194398Y-127317438D02*
X144289636Y-127269819D01*
X144289636Y-127269819D02*
X144527731Y-127269819D01*
X144527731Y-127269819D02*
X144670588Y-127317438D01*
X145670588Y-128174580D02*
X145622969Y-128222200D01*
X145622969Y-128222200D02*
X145480112Y-128269819D01*
X145480112Y-128269819D02*
X145384874Y-128269819D01*
X145384874Y-128269819D02*
X145242017Y-128222200D01*
X145242017Y-128222200D02*
X145146779Y-128126961D01*
X145146779Y-128126961D02*
X145099160Y-128031723D01*
X145099160Y-128031723D02*
X145051541Y-127841247D01*
X145051541Y-127841247D02*
X145051541Y-127698390D01*
X145051541Y-127698390D02*
X145099160Y-127507914D01*
X145099160Y-127507914D02*
X145146779Y-127412676D01*
X145146779Y-127412676D02*
X145242017Y-127317438D01*
X145242017Y-127317438D02*
X145384874Y-127269819D01*
X145384874Y-127269819D02*
X145480112Y-127269819D01*
X145480112Y-127269819D02*
X145622969Y-127317438D01*
X145622969Y-127317438D02*
X145670588Y-127365057D01*
X146099160Y-128269819D02*
X146099160Y-127269819D01*
X146670588Y-128269819D02*
X146242017Y-127698390D01*
X146670588Y-127269819D02*
X146099160Y-127841247D01*
X144718207Y-137924580D02*
X144670588Y-137972200D01*
X144670588Y-137972200D02*
X144527731Y-138019819D01*
X144527731Y-138019819D02*
X144432493Y-138019819D01*
X144432493Y-138019819D02*
X144289636Y-137972200D01*
X144289636Y-137972200D02*
X144194398Y-137876961D01*
X144194398Y-137876961D02*
X144146779Y-137781723D01*
X144146779Y-137781723D02*
X144099160Y-137591247D01*
X144099160Y-137591247D02*
X144099160Y-137448390D01*
X144099160Y-137448390D02*
X144146779Y-137257914D01*
X144146779Y-137257914D02*
X144194398Y-137162676D01*
X144194398Y-137162676D02*
X144289636Y-137067438D01*
X144289636Y-137067438D02*
X144432493Y-137019819D01*
X144432493Y-137019819D02*
X144527731Y-137019819D01*
X144527731Y-137019819D02*
X144670588Y-137067438D01*
X144670588Y-137067438D02*
X144718207Y-137115057D01*
X145622969Y-138019819D02*
X145146779Y-138019819D01*
X145146779Y-138019819D02*
X145146779Y-137019819D01*
X145956303Y-138019819D02*
X145956303Y-137019819D01*
X146527731Y-138019819D02*
X146099160Y-137448390D01*
X146527731Y-137019819D02*
X145956303Y-137591247D01*
X144718207Y-123769819D02*
X144384874Y-123293628D01*
X144146779Y-123769819D02*
X144146779Y-122769819D01*
X144146779Y-122769819D02*
X144527731Y-122769819D01*
X144527731Y-122769819D02*
X144622969Y-122817438D01*
X144622969Y-122817438D02*
X144670588Y-122865057D01*
X144670588Y-122865057D02*
X144718207Y-122960295D01*
X144718207Y-122960295D02*
X144718207Y-123103152D01*
X144718207Y-123103152D02*
X144670588Y-123198390D01*
X144670588Y-123198390D02*
X144622969Y-123246009D01*
X144622969Y-123246009D02*
X144527731Y-123293628D01*
X144527731Y-123293628D02*
X144146779Y-123293628D01*
X145099160Y-123722200D02*
X145242017Y-123769819D01*
X145242017Y-123769819D02*
X145480112Y-123769819D01*
X145480112Y-123769819D02*
X145575350Y-123722200D01*
X145575350Y-123722200D02*
X145622969Y-123674580D01*
X145622969Y-123674580D02*
X145670588Y-123579342D01*
X145670588Y-123579342D02*
X145670588Y-123484104D01*
X145670588Y-123484104D02*
X145622969Y-123388866D01*
X145622969Y-123388866D02*
X145575350Y-123341247D01*
X145575350Y-123341247D02*
X145480112Y-123293628D01*
X145480112Y-123293628D02*
X145289636Y-123246009D01*
X145289636Y-123246009D02*
X145194398Y-123198390D01*
X145194398Y-123198390D02*
X145146779Y-123150771D01*
X145146779Y-123150771D02*
X145099160Y-123055533D01*
X145099160Y-123055533D02*
X145099160Y-122960295D01*
X145099160Y-122960295D02*
X145146779Y-122865057D01*
X145146779Y-122865057D02*
X145194398Y-122817438D01*
X145194398Y-122817438D02*
X145289636Y-122769819D01*
X145289636Y-122769819D02*
X145527731Y-122769819D01*
X145527731Y-122769819D02*
X145670588Y-122817438D01*
X145956303Y-122769819D02*
X146527731Y-122769819D01*
X146242017Y-123769819D02*
X146242017Y-122769819D01*
X144008684Y-122492200D02*
X146522970Y-122492200D01*
X117930219Y-136536820D02*
X116930219Y-136536820D01*
X116930219Y-136536820D02*
X116930219Y-136298725D01*
X116930219Y-136298725D02*
X116977838Y-136155868D01*
X116977838Y-136155868D02*
X117073076Y-136060630D01*
X117073076Y-136060630D02*
X117168314Y-136013011D01*
X117168314Y-136013011D02*
X117358790Y-135965392D01*
X117358790Y-135965392D02*
X117501647Y-135965392D01*
X117501647Y-135965392D02*
X117692123Y-136013011D01*
X117692123Y-136013011D02*
X117787361Y-136060630D01*
X117787361Y-136060630D02*
X117882600Y-136155868D01*
X117882600Y-136155868D02*
X117930219Y-136298725D01*
X117930219Y-136298725D02*
X117930219Y-136536820D01*
X116930219Y-135346344D02*
X116930219Y-135155868D01*
X116930219Y-135155868D02*
X116977838Y-135060630D01*
X116977838Y-135060630D02*
X117073076Y-134965392D01*
X117073076Y-134965392D02*
X117263552Y-134917773D01*
X117263552Y-134917773D02*
X117596885Y-134917773D01*
X117596885Y-134917773D02*
X117787361Y-134965392D01*
X117787361Y-134965392D02*
X117882600Y-135060630D01*
X117882600Y-135060630D02*
X117930219Y-135155868D01*
X117930219Y-135155868D02*
X117930219Y-135346344D01*
X117930219Y-135346344D02*
X117882600Y-135441582D01*
X117882600Y-135441582D02*
X117787361Y-135536820D01*
X117787361Y-135536820D02*
X117596885Y-135584439D01*
X117596885Y-135584439D02*
X117263552Y-135584439D01*
X117263552Y-135584439D02*
X117073076Y-135536820D01*
X117073076Y-135536820D02*
X116977838Y-135441582D01*
X116977838Y-135441582D02*
X116930219Y-135346344D01*
X116930219Y-134489201D02*
X117739742Y-134489201D01*
X117739742Y-134489201D02*
X117834980Y-134441582D01*
X117834980Y-134441582D02*
X117882600Y-134393963D01*
X117882600Y-134393963D02*
X117930219Y-134298725D01*
X117930219Y-134298725D02*
X117930219Y-134108249D01*
X117930219Y-134108249D02*
X117882600Y-134013011D01*
X117882600Y-134013011D02*
X117834980Y-133965392D01*
X117834980Y-133965392D02*
X117739742Y-133917773D01*
X117739742Y-133917773D02*
X116930219Y-133917773D01*
X116930219Y-133584439D02*
X116930219Y-133013011D01*
X117930219Y-133298725D02*
X116930219Y-133298725D01*
X94117838Y-135919411D02*
X94070219Y-136014649D01*
X94070219Y-136014649D02*
X94070219Y-136157506D01*
X94070219Y-136157506D02*
X94117838Y-136300363D01*
X94117838Y-136300363D02*
X94213076Y-136395601D01*
X94213076Y-136395601D02*
X94308314Y-136443220D01*
X94308314Y-136443220D02*
X94498790Y-136490839D01*
X94498790Y-136490839D02*
X94641647Y-136490839D01*
X94641647Y-136490839D02*
X94832123Y-136443220D01*
X94832123Y-136443220D02*
X94927361Y-136395601D01*
X94927361Y-136395601D02*
X95022600Y-136300363D01*
X95022600Y-136300363D02*
X95070219Y-136157506D01*
X95070219Y-136157506D02*
X95070219Y-136062268D01*
X95070219Y-136062268D02*
X95022600Y-135919411D01*
X95022600Y-135919411D02*
X94974980Y-135871792D01*
X94974980Y-135871792D02*
X94641647Y-135871792D01*
X94641647Y-135871792D02*
X94641647Y-136062268D01*
X95070219Y-135443220D02*
X94070219Y-135443220D01*
X94070219Y-135443220D02*
X95070219Y-134871792D01*
X95070219Y-134871792D02*
X94070219Y-134871792D01*
X95070219Y-134395601D02*
X94070219Y-134395601D01*
X94070219Y-134395601D02*
X94070219Y-134157506D01*
X94070219Y-134157506D02*
X94117838Y-134014649D01*
X94117838Y-134014649D02*
X94213076Y-133919411D01*
X94213076Y-133919411D02*
X94308314Y-133871792D01*
X94308314Y-133871792D02*
X94498790Y-133824173D01*
X94498790Y-133824173D02*
X94641647Y-133824173D01*
X94641647Y-133824173D02*
X94832123Y-133871792D01*
X94832123Y-133871792D02*
X94927361Y-133919411D01*
X94927361Y-133919411D02*
X95022600Y-134014649D01*
X95022600Y-134014649D02*
X95070219Y-134157506D01*
X95070219Y-134157506D02*
X95070219Y-134395601D01*
X156333333Y-133454819D02*
X156000000Y-132978628D01*
X155761905Y-133454819D02*
X155761905Y-132454819D01*
X155761905Y-132454819D02*
X156142857Y-132454819D01*
X156142857Y-132454819D02*
X156238095Y-132502438D01*
X156238095Y-132502438D02*
X156285714Y-132550057D01*
X156285714Y-132550057D02*
X156333333Y-132645295D01*
X156333333Y-132645295D02*
X156333333Y-132788152D01*
X156333333Y-132788152D02*
X156285714Y-132883390D01*
X156285714Y-132883390D02*
X156238095Y-132931009D01*
X156238095Y-132931009D02*
X156142857Y-132978628D01*
X156142857Y-132978628D02*
X155761905Y-132978628D01*
X156904762Y-132883390D02*
X156809524Y-132835771D01*
X156809524Y-132835771D02*
X156761905Y-132788152D01*
X156761905Y-132788152D02*
X156714286Y-132692914D01*
X156714286Y-132692914D02*
X156714286Y-132645295D01*
X156714286Y-132645295D02*
X156761905Y-132550057D01*
X156761905Y-132550057D02*
X156809524Y-132502438D01*
X156809524Y-132502438D02*
X156904762Y-132454819D01*
X156904762Y-132454819D02*
X157095238Y-132454819D01*
X157095238Y-132454819D02*
X157190476Y-132502438D01*
X157190476Y-132502438D02*
X157238095Y-132550057D01*
X157238095Y-132550057D02*
X157285714Y-132645295D01*
X157285714Y-132645295D02*
X157285714Y-132692914D01*
X157285714Y-132692914D02*
X157238095Y-132788152D01*
X157238095Y-132788152D02*
X157190476Y-132835771D01*
X157190476Y-132835771D02*
X157095238Y-132883390D01*
X157095238Y-132883390D02*
X156904762Y-132883390D01*
X156904762Y-132883390D02*
X156809524Y-132931009D01*
X156809524Y-132931009D02*
X156761905Y-132978628D01*
X156761905Y-132978628D02*
X156714286Y-133073866D01*
X156714286Y-133073866D02*
X156714286Y-133264342D01*
X156714286Y-133264342D02*
X156761905Y-133359580D01*
X156761905Y-133359580D02*
X156809524Y-133407200D01*
X156809524Y-133407200D02*
X156904762Y-133454819D01*
X156904762Y-133454819D02*
X157095238Y-133454819D01*
X157095238Y-133454819D02*
X157190476Y-133407200D01*
X157190476Y-133407200D02*
X157238095Y-133359580D01*
X157238095Y-133359580D02*
X157285714Y-133264342D01*
X157285714Y-133264342D02*
X157285714Y-133073866D01*
X157285714Y-133073866D02*
X157238095Y-132978628D01*
X157238095Y-132978628D02*
X157190476Y-132931009D01*
X157190476Y-132931009D02*
X157095238Y-132883390D01*
X83083333Y-135134819D02*
X82750000Y-134658628D01*
X82511905Y-135134819D02*
X82511905Y-134134819D01*
X82511905Y-134134819D02*
X82892857Y-134134819D01*
X82892857Y-134134819D02*
X82988095Y-134182438D01*
X82988095Y-134182438D02*
X83035714Y-134230057D01*
X83035714Y-134230057D02*
X83083333Y-134325295D01*
X83083333Y-134325295D02*
X83083333Y-134468152D01*
X83083333Y-134468152D02*
X83035714Y-134563390D01*
X83035714Y-134563390D02*
X82988095Y-134611009D01*
X82988095Y-134611009D02*
X82892857Y-134658628D01*
X82892857Y-134658628D02*
X82511905Y-134658628D01*
X83464286Y-134230057D02*
X83511905Y-134182438D01*
X83511905Y-134182438D02*
X83607143Y-134134819D01*
X83607143Y-134134819D02*
X83845238Y-134134819D01*
X83845238Y-134134819D02*
X83940476Y-134182438D01*
X83940476Y-134182438D02*
X83988095Y-134230057D01*
X83988095Y-134230057D02*
X84035714Y-134325295D01*
X84035714Y-134325295D02*
X84035714Y-134420533D01*
X84035714Y-134420533D02*
X83988095Y-134563390D01*
X83988095Y-134563390D02*
X83416667Y-135134819D01*
X83416667Y-135134819D02*
X84035714Y-135134819D01*
X149454819Y-136166666D02*
X148978628Y-136499999D01*
X149454819Y-136738094D02*
X148454819Y-136738094D01*
X148454819Y-136738094D02*
X148454819Y-136357142D01*
X148454819Y-136357142D02*
X148502438Y-136261904D01*
X148502438Y-136261904D02*
X148550057Y-136214285D01*
X148550057Y-136214285D02*
X148645295Y-136166666D01*
X148645295Y-136166666D02*
X148788152Y-136166666D01*
X148788152Y-136166666D02*
X148883390Y-136214285D01*
X148883390Y-136214285D02*
X148931009Y-136261904D01*
X148931009Y-136261904D02*
X148978628Y-136357142D01*
X148978628Y-136357142D02*
X148978628Y-136738094D01*
X149454819Y-135690475D02*
X149454819Y-135499999D01*
X149454819Y-135499999D02*
X149407200Y-135404761D01*
X149407200Y-135404761D02*
X149359580Y-135357142D01*
X149359580Y-135357142D02*
X149216723Y-135261904D01*
X149216723Y-135261904D02*
X149026247Y-135214285D01*
X149026247Y-135214285D02*
X148645295Y-135214285D01*
X148645295Y-135214285D02*
X148550057Y-135261904D01*
X148550057Y-135261904D02*
X148502438Y-135309523D01*
X148502438Y-135309523D02*
X148454819Y-135404761D01*
X148454819Y-135404761D02*
X148454819Y-135595237D01*
X148454819Y-135595237D02*
X148502438Y-135690475D01*
X148502438Y-135690475D02*
X148550057Y-135738094D01*
X148550057Y-135738094D02*
X148645295Y-135785713D01*
X148645295Y-135785713D02*
X148883390Y-135785713D01*
X148883390Y-135785713D02*
X148978628Y-135738094D01*
X148978628Y-135738094D02*
X149026247Y-135690475D01*
X149026247Y-135690475D02*
X149073866Y-135595237D01*
X149073866Y-135595237D02*
X149073866Y-135404761D01*
X149073866Y-135404761D02*
X149026247Y-135309523D01*
X149026247Y-135309523D02*
X148978628Y-135261904D01*
X148978628Y-135261904D02*
X148883390Y-135214285D01*
X100099580Y-128466666D02*
X100147200Y-128514285D01*
X100147200Y-128514285D02*
X100194819Y-128657142D01*
X100194819Y-128657142D02*
X100194819Y-128752380D01*
X100194819Y-128752380D02*
X100147200Y-128895237D01*
X100147200Y-128895237D02*
X100051961Y-128990475D01*
X100051961Y-128990475D02*
X99956723Y-129038094D01*
X99956723Y-129038094D02*
X99766247Y-129085713D01*
X99766247Y-129085713D02*
X99623390Y-129085713D01*
X99623390Y-129085713D02*
X99432914Y-129038094D01*
X99432914Y-129038094D02*
X99337676Y-128990475D01*
X99337676Y-128990475D02*
X99242438Y-128895237D01*
X99242438Y-128895237D02*
X99194819Y-128752380D01*
X99194819Y-128752380D02*
X99194819Y-128657142D01*
X99194819Y-128657142D02*
X99242438Y-128514285D01*
X99242438Y-128514285D02*
X99290057Y-128466666D01*
X99528152Y-127609523D02*
X100194819Y-127609523D01*
X99147200Y-127847618D02*
X99861485Y-128085713D01*
X99861485Y-128085713D02*
X99861485Y-127466666D01*
X84143333Y-130984819D02*
X83810000Y-130508628D01*
X83571905Y-130984819D02*
X83571905Y-129984819D01*
X83571905Y-129984819D02*
X83952857Y-129984819D01*
X83952857Y-129984819D02*
X84048095Y-130032438D01*
X84048095Y-130032438D02*
X84095714Y-130080057D01*
X84095714Y-130080057D02*
X84143333Y-130175295D01*
X84143333Y-130175295D02*
X84143333Y-130318152D01*
X84143333Y-130318152D02*
X84095714Y-130413390D01*
X84095714Y-130413390D02*
X84048095Y-130461009D01*
X84048095Y-130461009D02*
X83952857Y-130508628D01*
X83952857Y-130508628D02*
X83571905Y-130508628D01*
X85048095Y-129984819D02*
X84571905Y-129984819D01*
X84571905Y-129984819D02*
X84524286Y-130461009D01*
X84524286Y-130461009D02*
X84571905Y-130413390D01*
X84571905Y-130413390D02*
X84667143Y-130365771D01*
X84667143Y-130365771D02*
X84905238Y-130365771D01*
X84905238Y-130365771D02*
X85000476Y-130413390D01*
X85000476Y-130413390D02*
X85048095Y-130461009D01*
X85048095Y-130461009D02*
X85095714Y-130556247D01*
X85095714Y-130556247D02*
X85095714Y-130794342D01*
X85095714Y-130794342D02*
X85048095Y-130889580D01*
X85048095Y-130889580D02*
X85000476Y-130937200D01*
X85000476Y-130937200D02*
X84905238Y-130984819D01*
X84905238Y-130984819D02*
X84667143Y-130984819D01*
X84667143Y-130984819D02*
X84571905Y-130937200D01*
X84571905Y-130937200D02*
X84524286Y-130889580D01*
X88599580Y-128466666D02*
X88647200Y-128514285D01*
X88647200Y-128514285D02*
X88694819Y-128657142D01*
X88694819Y-128657142D02*
X88694819Y-128752380D01*
X88694819Y-128752380D02*
X88647200Y-128895237D01*
X88647200Y-128895237D02*
X88551961Y-128990475D01*
X88551961Y-128990475D02*
X88456723Y-129038094D01*
X88456723Y-129038094D02*
X88266247Y-129085713D01*
X88266247Y-129085713D02*
X88123390Y-129085713D01*
X88123390Y-129085713D02*
X87932914Y-129038094D01*
X87932914Y-129038094D02*
X87837676Y-128990475D01*
X87837676Y-128990475D02*
X87742438Y-128895237D01*
X87742438Y-128895237D02*
X87694819Y-128752380D01*
X87694819Y-128752380D02*
X87694819Y-128657142D01*
X87694819Y-128657142D02*
X87742438Y-128514285D01*
X87742438Y-128514285D02*
X87790057Y-128466666D01*
X87790057Y-128085713D02*
X87742438Y-128038094D01*
X87742438Y-128038094D02*
X87694819Y-127942856D01*
X87694819Y-127942856D02*
X87694819Y-127704761D01*
X87694819Y-127704761D02*
X87742438Y-127609523D01*
X87742438Y-127609523D02*
X87790057Y-127561904D01*
X87790057Y-127561904D02*
X87885295Y-127514285D01*
X87885295Y-127514285D02*
X87980533Y-127514285D01*
X87980533Y-127514285D02*
X88123390Y-127561904D01*
X88123390Y-127561904D02*
X88694819Y-128133332D01*
X88694819Y-128133332D02*
X88694819Y-127514285D01*
X125443333Y-122029580D02*
X125395714Y-122077200D01*
X125395714Y-122077200D02*
X125252857Y-122124819D01*
X125252857Y-122124819D02*
X125157619Y-122124819D01*
X125157619Y-122124819D02*
X125014762Y-122077200D01*
X125014762Y-122077200D02*
X124919524Y-121981961D01*
X124919524Y-121981961D02*
X124871905Y-121886723D01*
X124871905Y-121886723D02*
X124824286Y-121696247D01*
X124824286Y-121696247D02*
X124824286Y-121553390D01*
X124824286Y-121553390D02*
X124871905Y-121362914D01*
X124871905Y-121362914D02*
X124919524Y-121267676D01*
X124919524Y-121267676D02*
X125014762Y-121172438D01*
X125014762Y-121172438D02*
X125157619Y-121124819D01*
X125157619Y-121124819D02*
X125252857Y-121124819D01*
X125252857Y-121124819D02*
X125395714Y-121172438D01*
X125395714Y-121172438D02*
X125443333Y-121220057D01*
X126300476Y-121124819D02*
X126110000Y-121124819D01*
X126110000Y-121124819D02*
X126014762Y-121172438D01*
X126014762Y-121172438D02*
X125967143Y-121220057D01*
X125967143Y-121220057D02*
X125871905Y-121362914D01*
X125871905Y-121362914D02*
X125824286Y-121553390D01*
X125824286Y-121553390D02*
X125824286Y-121934342D01*
X125824286Y-121934342D02*
X125871905Y-122029580D01*
X125871905Y-122029580D02*
X125919524Y-122077200D01*
X125919524Y-122077200D02*
X126014762Y-122124819D01*
X126014762Y-122124819D02*
X126205238Y-122124819D01*
X126205238Y-122124819D02*
X126300476Y-122077200D01*
X126300476Y-122077200D02*
X126348095Y-122029580D01*
X126348095Y-122029580D02*
X126395714Y-121934342D01*
X126395714Y-121934342D02*
X126395714Y-121696247D01*
X126395714Y-121696247D02*
X126348095Y-121601009D01*
X126348095Y-121601009D02*
X126300476Y-121553390D01*
X126300476Y-121553390D02*
X126205238Y-121505771D01*
X126205238Y-121505771D02*
X126014762Y-121505771D01*
X126014762Y-121505771D02*
X125919524Y-121553390D01*
X125919524Y-121553390D02*
X125871905Y-121601009D01*
X125871905Y-121601009D02*
X125824286Y-121696247D01*
X113800845Y-124429821D02*
X113800845Y-125239344D01*
X113800845Y-125239344D02*
X113848464Y-125334582D01*
X113848464Y-125334582D02*
X113896083Y-125382202D01*
X113896083Y-125382202D02*
X113991321Y-125429821D01*
X113991321Y-125429821D02*
X114181797Y-125429821D01*
X114181797Y-125429821D02*
X114277035Y-125382202D01*
X114277035Y-125382202D02*
X114324654Y-125334582D01*
X114324654Y-125334582D02*
X114372273Y-125239344D01*
X114372273Y-125239344D02*
X114372273Y-124429821D01*
X115372273Y-125429821D02*
X114800845Y-125429821D01*
X115086559Y-125429821D02*
X115086559Y-124429821D01*
X115086559Y-124429821D02*
X114991321Y-124572678D01*
X114991321Y-124572678D02*
X114896083Y-124667916D01*
X114896083Y-124667916D02*
X114800845Y-124715535D01*
X111356000Y-120006220D02*
X111356000Y-120244315D01*
X111117905Y-120149077D02*
X111356000Y-120244315D01*
X111356000Y-120244315D02*
X111594095Y-120149077D01*
X111213143Y-120434791D02*
X111356000Y-120244315D01*
X111356000Y-120244315D02*
X111498857Y-120434791D01*
X117464819Y-117266666D02*
X116988628Y-117599999D01*
X117464819Y-117838094D02*
X116464819Y-117838094D01*
X116464819Y-117838094D02*
X116464819Y-117457142D01*
X116464819Y-117457142D02*
X116512438Y-117361904D01*
X116512438Y-117361904D02*
X116560057Y-117314285D01*
X116560057Y-117314285D02*
X116655295Y-117266666D01*
X116655295Y-117266666D02*
X116798152Y-117266666D01*
X116798152Y-117266666D02*
X116893390Y-117314285D01*
X116893390Y-117314285D02*
X116941009Y-117361904D01*
X116941009Y-117361904D02*
X116988628Y-117457142D01*
X116988628Y-117457142D02*
X116988628Y-117838094D01*
X117464819Y-116314285D02*
X117464819Y-116885713D01*
X117464819Y-116599999D02*
X116464819Y-116599999D01*
X116464819Y-116599999D02*
X116607676Y-116695237D01*
X116607676Y-116695237D02*
X116702914Y-116790475D01*
X116702914Y-116790475D02*
X116750533Y-116885713D01*
X82748095Y-112454819D02*
X82748095Y-113264342D01*
X82748095Y-113264342D02*
X82795714Y-113359580D01*
X82795714Y-113359580D02*
X82843333Y-113407200D01*
X82843333Y-113407200D02*
X82938571Y-113454819D01*
X82938571Y-113454819D02*
X83129047Y-113454819D01*
X83129047Y-113454819D02*
X83224285Y-113407200D01*
X83224285Y-113407200D02*
X83271904Y-113359580D01*
X83271904Y-113359580D02*
X83319523Y-113264342D01*
X83319523Y-113264342D02*
X83319523Y-112454819D01*
X83748095Y-112550057D02*
X83795714Y-112502438D01*
X83795714Y-112502438D02*
X83890952Y-112454819D01*
X83890952Y-112454819D02*
X84129047Y-112454819D01*
X84129047Y-112454819D02*
X84224285Y-112502438D01*
X84224285Y-112502438D02*
X84271904Y-112550057D01*
X84271904Y-112550057D02*
X84319523Y-112645295D01*
X84319523Y-112645295D02*
X84319523Y-112740533D01*
X84319523Y-112740533D02*
X84271904Y-112883390D01*
X84271904Y-112883390D02*
X83700476Y-113454819D01*
X83700476Y-113454819D02*
X84319523Y-113454819D01*
X83954819Y-124666666D02*
X83478628Y-124999999D01*
X83954819Y-125238094D02*
X82954819Y-125238094D01*
X82954819Y-125238094D02*
X82954819Y-124857142D01*
X82954819Y-124857142D02*
X83002438Y-124761904D01*
X83002438Y-124761904D02*
X83050057Y-124714285D01*
X83050057Y-124714285D02*
X83145295Y-124666666D01*
X83145295Y-124666666D02*
X83288152Y-124666666D01*
X83288152Y-124666666D02*
X83383390Y-124714285D01*
X83383390Y-124714285D02*
X83431009Y-124761904D01*
X83431009Y-124761904D02*
X83478628Y-124857142D01*
X83478628Y-124857142D02*
X83478628Y-125238094D01*
X82954819Y-124333332D02*
X82954819Y-123714285D01*
X82954819Y-123714285D02*
X83335771Y-124047618D01*
X83335771Y-124047618D02*
X83335771Y-123904761D01*
X83335771Y-123904761D02*
X83383390Y-123809523D01*
X83383390Y-123809523D02*
X83431009Y-123761904D01*
X83431009Y-123761904D02*
X83526247Y-123714285D01*
X83526247Y-123714285D02*
X83764342Y-123714285D01*
X83764342Y-123714285D02*
X83859580Y-123761904D01*
X83859580Y-123761904D02*
X83907200Y-123809523D01*
X83907200Y-123809523D02*
X83954819Y-123904761D01*
X83954819Y-123904761D02*
X83954819Y-124190475D01*
X83954819Y-124190475D02*
X83907200Y-124285713D01*
X83907200Y-124285713D02*
X83859580Y-124333332D01*
X84143333Y-126524819D02*
X83810000Y-126048628D01*
X83571905Y-126524819D02*
X83571905Y-125524819D01*
X83571905Y-125524819D02*
X83952857Y-125524819D01*
X83952857Y-125524819D02*
X84048095Y-125572438D01*
X84048095Y-125572438D02*
X84095714Y-125620057D01*
X84095714Y-125620057D02*
X84143333Y-125715295D01*
X84143333Y-125715295D02*
X84143333Y-125858152D01*
X84143333Y-125858152D02*
X84095714Y-125953390D01*
X84095714Y-125953390D02*
X84048095Y-126001009D01*
X84048095Y-126001009D02*
X83952857Y-126048628D01*
X83952857Y-126048628D02*
X83571905Y-126048628D01*
X85000476Y-125858152D02*
X85000476Y-126524819D01*
X84762381Y-125477200D02*
X84524286Y-126191485D01*
X84524286Y-126191485D02*
X85143333Y-126191485D01*
X107999580Y-122366666D02*
X108047200Y-122414285D01*
X108047200Y-122414285D02*
X108094819Y-122557142D01*
X108094819Y-122557142D02*
X108094819Y-122652380D01*
X108094819Y-122652380D02*
X108047200Y-122795237D01*
X108047200Y-122795237D02*
X107951961Y-122890475D01*
X107951961Y-122890475D02*
X107856723Y-122938094D01*
X107856723Y-122938094D02*
X107666247Y-122985713D01*
X107666247Y-122985713D02*
X107523390Y-122985713D01*
X107523390Y-122985713D02*
X107332914Y-122938094D01*
X107332914Y-122938094D02*
X107237676Y-122890475D01*
X107237676Y-122890475D02*
X107142438Y-122795237D01*
X107142438Y-122795237D02*
X107094819Y-122652380D01*
X107094819Y-122652380D02*
X107094819Y-122557142D01*
X107094819Y-122557142D02*
X107142438Y-122414285D01*
X107142438Y-122414285D02*
X107190057Y-122366666D01*
X107094819Y-122033332D02*
X107094819Y-121414285D01*
X107094819Y-121414285D02*
X107475771Y-121747618D01*
X107475771Y-121747618D02*
X107475771Y-121604761D01*
X107475771Y-121604761D02*
X107523390Y-121509523D01*
X107523390Y-121509523D02*
X107571009Y-121461904D01*
X107571009Y-121461904D02*
X107666247Y-121414285D01*
X107666247Y-121414285D02*
X107904342Y-121414285D01*
X107904342Y-121414285D02*
X107999580Y-121461904D01*
X107999580Y-121461904D02*
X108047200Y-121509523D01*
X108047200Y-121509523D02*
X108094819Y-121604761D01*
X108094819Y-121604761D02*
X108094819Y-121890475D01*
X108094819Y-121890475D02*
X108047200Y-121985713D01*
X108047200Y-121985713D02*
X107999580Y-122033332D01*
X116843333Y-120159580D02*
X116795714Y-120207200D01*
X116795714Y-120207200D02*
X116652857Y-120254819D01*
X116652857Y-120254819D02*
X116557619Y-120254819D01*
X116557619Y-120254819D02*
X116414762Y-120207200D01*
X116414762Y-120207200D02*
X116319524Y-120111961D01*
X116319524Y-120111961D02*
X116271905Y-120016723D01*
X116271905Y-120016723D02*
X116224286Y-119826247D01*
X116224286Y-119826247D02*
X116224286Y-119683390D01*
X116224286Y-119683390D02*
X116271905Y-119492914D01*
X116271905Y-119492914D02*
X116319524Y-119397676D01*
X116319524Y-119397676D02*
X116414762Y-119302438D01*
X116414762Y-119302438D02*
X116557619Y-119254819D01*
X116557619Y-119254819D02*
X116652857Y-119254819D01*
X116652857Y-119254819D02*
X116795714Y-119302438D01*
X116795714Y-119302438D02*
X116843333Y-119350057D01*
X117795714Y-120254819D02*
X117224286Y-120254819D01*
X117510000Y-120254819D02*
X117510000Y-119254819D01*
X117510000Y-119254819D02*
X117414762Y-119397676D01*
X117414762Y-119397676D02*
X117319524Y-119492914D01*
X117319524Y-119492914D02*
X117224286Y-119540533D01*
X95543333Y-126624819D02*
X95210000Y-126148628D01*
X94971905Y-126624819D02*
X94971905Y-125624819D01*
X94971905Y-125624819D02*
X95352857Y-125624819D01*
X95352857Y-125624819D02*
X95448095Y-125672438D01*
X95448095Y-125672438D02*
X95495714Y-125720057D01*
X95495714Y-125720057D02*
X95543333Y-125815295D01*
X95543333Y-125815295D02*
X95543333Y-125958152D01*
X95543333Y-125958152D02*
X95495714Y-126053390D01*
X95495714Y-126053390D02*
X95448095Y-126101009D01*
X95448095Y-126101009D02*
X95352857Y-126148628D01*
X95352857Y-126148628D02*
X94971905Y-126148628D01*
X96400476Y-125624819D02*
X96210000Y-125624819D01*
X96210000Y-125624819D02*
X96114762Y-125672438D01*
X96114762Y-125672438D02*
X96067143Y-125720057D01*
X96067143Y-125720057D02*
X95971905Y-125862914D01*
X95971905Y-125862914D02*
X95924286Y-126053390D01*
X95924286Y-126053390D02*
X95924286Y-126434342D01*
X95924286Y-126434342D02*
X95971905Y-126529580D01*
X95971905Y-126529580D02*
X96019524Y-126577200D01*
X96019524Y-126577200D02*
X96114762Y-126624819D01*
X96114762Y-126624819D02*
X96305238Y-126624819D01*
X96305238Y-126624819D02*
X96400476Y-126577200D01*
X96400476Y-126577200D02*
X96448095Y-126529580D01*
X96448095Y-126529580D02*
X96495714Y-126434342D01*
X96495714Y-126434342D02*
X96495714Y-126196247D01*
X96495714Y-126196247D02*
X96448095Y-126101009D01*
X96448095Y-126101009D02*
X96400476Y-126053390D01*
X96400476Y-126053390D02*
X96305238Y-126005771D01*
X96305238Y-126005771D02*
X96114762Y-126005771D01*
X96114762Y-126005771D02*
X96019524Y-126053390D01*
X96019524Y-126053390D02*
X95971905Y-126101009D01*
X95971905Y-126101009D02*
X95924286Y-126196247D01*
X95543333Y-131084819D02*
X95210000Y-130608628D01*
X94971905Y-131084819D02*
X94971905Y-130084819D01*
X94971905Y-130084819D02*
X95352857Y-130084819D01*
X95352857Y-130084819D02*
X95448095Y-130132438D01*
X95448095Y-130132438D02*
X95495714Y-130180057D01*
X95495714Y-130180057D02*
X95543333Y-130275295D01*
X95543333Y-130275295D02*
X95543333Y-130418152D01*
X95543333Y-130418152D02*
X95495714Y-130513390D01*
X95495714Y-130513390D02*
X95448095Y-130561009D01*
X95448095Y-130561009D02*
X95352857Y-130608628D01*
X95352857Y-130608628D02*
X94971905Y-130608628D01*
X95876667Y-130084819D02*
X96543333Y-130084819D01*
X96543333Y-130084819D02*
X96114762Y-131084819D01*
X123099580Y-120666666D02*
X123147200Y-120714285D01*
X123147200Y-120714285D02*
X123194819Y-120857142D01*
X123194819Y-120857142D02*
X123194819Y-120952380D01*
X123194819Y-120952380D02*
X123147200Y-121095237D01*
X123147200Y-121095237D02*
X123051961Y-121190475D01*
X123051961Y-121190475D02*
X122956723Y-121238094D01*
X122956723Y-121238094D02*
X122766247Y-121285713D01*
X122766247Y-121285713D02*
X122623390Y-121285713D01*
X122623390Y-121285713D02*
X122432914Y-121238094D01*
X122432914Y-121238094D02*
X122337676Y-121190475D01*
X122337676Y-121190475D02*
X122242438Y-121095237D01*
X122242438Y-121095237D02*
X122194819Y-120952380D01*
X122194819Y-120952380D02*
X122194819Y-120857142D01*
X122194819Y-120857142D02*
X122242438Y-120714285D01*
X122242438Y-120714285D02*
X122290057Y-120666666D01*
X122194819Y-119761904D02*
X122194819Y-120238094D01*
X122194819Y-120238094D02*
X122671009Y-120285713D01*
X122671009Y-120285713D02*
X122623390Y-120238094D01*
X122623390Y-120238094D02*
X122575771Y-120142856D01*
X122575771Y-120142856D02*
X122575771Y-119904761D01*
X122575771Y-119904761D02*
X122623390Y-119809523D01*
X122623390Y-119809523D02*
X122671009Y-119761904D01*
X122671009Y-119761904D02*
X122766247Y-119714285D01*
X122766247Y-119714285D02*
X123004342Y-119714285D01*
X123004342Y-119714285D02*
X123099580Y-119761904D01*
X123099580Y-119761904D02*
X123147200Y-119809523D01*
X123147200Y-119809523D02*
X123194819Y-119904761D01*
X123194819Y-119904761D02*
X123194819Y-120142856D01*
X123194819Y-120142856D02*
X123147200Y-120238094D01*
X123147200Y-120238094D02*
X123099580Y-120285713D01*
D12*
%TO.C,R8*%
X156737258Y-133727500D02*
X156262742Y-133727500D01*
X156737258Y-134772500D02*
X156262742Y-134772500D01*
%TO.C,R2*%
X83487258Y-133772500D02*
X83012742Y-133772500D01*
X83487258Y-132727500D02*
X83012742Y-132727500D01*
%TO.C,R9*%
X149977500Y-135762742D02*
X149977500Y-136237258D01*
X151022500Y-135762742D02*
X151022500Y-136237258D01*
%TO.C,JP8*%
X140410000Y-128200000D02*
X140410000Y-127600000D01*
X141110000Y-126900000D02*
X142510000Y-126900000D01*
X142510000Y-128900000D02*
X141110000Y-128900000D01*
X143210000Y-127600000D02*
X143210000Y-128200000D01*
X140410000Y-127600000D02*
G75*
G02*
X141110000Y-126900000I700000J0D01*
G01*
X141110000Y-128900000D02*
G75*
G02*
X140410000Y-128200000I0J700000D01*
G01*
X142510000Y-126900000D02*
G75*
G02*
X143210000Y-127600000I1J-699999D01*
G01*
X143210000Y-128200000D02*
G75*
G02*
X142510000Y-128900000I-699999J-1D01*
G01*
%TO.C,C4*%
X97800000Y-128159420D02*
X97800000Y-128440580D01*
X98820000Y-128159420D02*
X98820000Y-128440580D01*
%TO.C,JP3*%
X140410000Y-114650000D02*
X140410000Y-114050000D01*
X141110000Y-113350000D02*
X142510000Y-113350000D01*
X142510000Y-115350000D02*
X141110000Y-115350000D01*
X143210000Y-114050000D02*
X143210000Y-114650000D01*
X140410000Y-114050000D02*
G75*
G02*
X141110000Y-113350000I700000J0D01*
G01*
X141110000Y-115350000D02*
G75*
G02*
X140410000Y-114650000I0J700000D01*
G01*
X142510000Y-113350000D02*
G75*
G02*
X143210000Y-114050000I1J-699999D01*
G01*
X143210000Y-114650000D02*
G75*
G02*
X142510000Y-115350000I-699999J-1D01*
G01*
%TO.C,JP1*%
X140410000Y-123000000D02*
X140410000Y-122400000D01*
X141110000Y-121700000D02*
X142510000Y-121700000D01*
X142510000Y-123700000D02*
X141110000Y-123700000D01*
X143210000Y-122400000D02*
X143210000Y-123000000D01*
X140410000Y-122400000D02*
G75*
G02*
X141110000Y-121700000I700000J0D01*
G01*
X141110000Y-123700000D02*
G75*
G02*
X140410000Y-123000000I0J700000D01*
G01*
X142510000Y-121700000D02*
G75*
G02*
X143210000Y-122400000I1J-699999D01*
G01*
X143210000Y-123000000D02*
G75*
G02*
X142510000Y-123700000I-699999J-1D01*
G01*
%TO.C,R5*%
X84547258Y-128577500D02*
X84072742Y-128577500D01*
X84547258Y-129622500D02*
X84072742Y-129622500D01*
%TO.C,C2*%
X86300000Y-128159420D02*
X86300000Y-128440580D01*
X87320000Y-128159420D02*
X87320000Y-128440580D01*
%TO.C,J2*%
X123640000Y-137170000D02*
X125020000Y-137170000D01*
X123640000Y-138550000D02*
X123640000Y-137170000D01*
X123640000Y-139820000D02*
X123640000Y-139930000D01*
X123640000Y-139820000D02*
X126400000Y-139820000D01*
X123640000Y-139930000D02*
X126400000Y-139930000D01*
X126400000Y-139820000D02*
X126400000Y-139930000D01*
%TO.C,JP4*%
X140401217Y-120159443D02*
X140401217Y-119559443D01*
X141101217Y-118859443D02*
X142501217Y-118859443D01*
X142501217Y-120859443D02*
X141101217Y-120859443D01*
X143201217Y-119559443D02*
X143201217Y-120159443D01*
X140401217Y-119559443D02*
G75*
G02*
X141101217Y-118859443I700000J0D01*
G01*
X141101217Y-120859443D02*
G75*
G02*
X140401217Y-120159443I0J700000D01*
G01*
X142501217Y-118859443D02*
G75*
G02*
X143201217Y-119559443I1J-699999D01*
G01*
X143201217Y-120159443D02*
G75*
G02*
X142501217Y-120859443I-699999J-1D01*
G01*
%TO.C,J6*%
X93160000Y-137170000D02*
X94540000Y-137170000D01*
X93160000Y-138550000D02*
X93160000Y-137170000D01*
X93160000Y-139820000D02*
X93160000Y-139930000D01*
X93160000Y-139820000D02*
X95920000Y-139820000D01*
X93160000Y-139930000D02*
X95920000Y-139930000D01*
X95920000Y-139820000D02*
X95920000Y-139930000D01*
%TO.C,C6*%
X125469420Y-122590000D02*
X125750580Y-122590000D01*
X125469420Y-123610000D02*
X125750580Y-123610000D01*
D13*
%TO.C,U1*%
X112380486Y-128404002D02*
X116745001Y-128404002D01*
X116745014Y-121546002D02*
X112380499Y-121546002D01*
D14*
G36*
X110651150Y-128090500D02*
G01*
X110397150Y-128090500D01*
X110397150Y-127709500D01*
X110651150Y-127709500D01*
X110651150Y-128090500D01*
G37*
G36*
X118728350Y-122240504D02*
G01*
X118474350Y-122240504D01*
X118474350Y-121859504D01*
X118728350Y-121859504D01*
X118728350Y-122240504D01*
G37*
D12*
%TO.C,J7*%
X85540000Y-137170000D02*
X86920000Y-137170000D01*
X85540000Y-138550000D02*
X85540000Y-137170000D01*
X85540000Y-139820000D02*
X85540000Y-139930000D01*
X85540000Y-139820000D02*
X88300000Y-139820000D01*
X85540000Y-139930000D02*
X88300000Y-139930000D01*
X88300000Y-139820000D02*
X88300000Y-139930000D01*
%TO.C,JP5*%
X140410000Y-137950000D02*
X140410000Y-137350000D01*
X141110000Y-136650000D02*
X142510000Y-136650000D01*
X142510000Y-138650000D02*
X141110000Y-138650000D01*
X143210000Y-137350000D02*
X143210000Y-137950000D01*
X140410000Y-137350000D02*
G75*
G02*
X141110000Y-136650000I700000J0D01*
G01*
X141110000Y-138650000D02*
G75*
G02*
X140410000Y-137950000I0J700000D01*
G01*
X142510000Y-136650000D02*
G75*
G02*
X143210000Y-137350000I1J-699999D01*
G01*
X143210000Y-137950000D02*
G75*
G02*
X142510000Y-138650000I-699999J-1D01*
G01*
%TO.C,R1*%
X113287500Y-116862742D02*
X113287500Y-117337258D01*
X114332500Y-116862742D02*
X114332500Y-117337258D01*
D15*
%TO.C,U2*%
X84339999Y-114475001D02*
X84339999Y-113749999D01*
X85184999Y-113749999D02*
X84339999Y-113749999D01*
X86135000Y-115150001D02*
X85584998Y-115150001D01*
X87379999Y-113749999D02*
X86534999Y-113749999D01*
X87379999Y-114475001D02*
X87379999Y-113749999D01*
D12*
%TO.C,R3*%
X82522500Y-124512742D02*
X82522500Y-124987258D01*
X81477500Y-124512742D02*
X81477500Y-124987258D01*
%TO.C,J8*%
X175030000Y-137020000D02*
X175030000Y-139780000D01*
X180220000Y-137020000D02*
X175030000Y-137020000D01*
X180220000Y-137020000D02*
X180220000Y-139780000D01*
X180220000Y-139780000D02*
X175030000Y-139780000D01*
X181490000Y-137020000D02*
X182870000Y-137020000D01*
X182870000Y-137020000D02*
X182870000Y-138400000D01*
%TO.C,J5*%
X100780000Y-137170000D02*
X102160000Y-137170000D01*
X100780000Y-138550000D02*
X100780000Y-137170000D01*
X100780000Y-139820000D02*
X100780000Y-139930000D01*
X100780000Y-139820000D02*
X103540000Y-139820000D01*
X100780000Y-139930000D02*
X103540000Y-139930000D01*
X103540000Y-139820000D02*
X103540000Y-139930000D01*
%TO.C,JP7*%
X140410000Y-131450000D02*
X140410000Y-130850000D01*
X141110000Y-130150000D02*
X142510000Y-130150000D01*
X142510000Y-132150000D02*
X141110000Y-132150000D01*
X143210000Y-130850000D02*
X143210000Y-131450000D01*
X140410000Y-130850000D02*
G75*
G02*
X141110000Y-130150000I700000J0D01*
G01*
X141110000Y-132150000D02*
G75*
G02*
X140410000Y-131450000I0J700000D01*
G01*
X142510000Y-130150000D02*
G75*
G02*
X143210000Y-130850000I1J-699999D01*
G01*
X143210000Y-131450000D02*
G75*
G02*
X142510000Y-132150000I-699999J-1D01*
G01*
%TO.C,R4*%
X84072742Y-126977500D02*
X84547258Y-126977500D01*
X84072742Y-128022500D02*
X84547258Y-128022500D01*
%TO.C,C3*%
X105700000Y-122059420D02*
X105700000Y-122340580D01*
X106720000Y-122059420D02*
X106720000Y-122340580D01*
%TO.C,J3*%
X116020000Y-137170000D02*
X117400000Y-137170000D01*
X116020000Y-138550000D02*
X116020000Y-137170000D01*
X116020000Y-139820000D02*
X116020000Y-139930000D01*
X116020000Y-139820000D02*
X118780000Y-139820000D01*
X116020000Y-139930000D02*
X118780000Y-139930000D01*
X118780000Y-139820000D02*
X118780000Y-139930000D01*
%TO.C,C1*%
X114469420Y-119190000D02*
X114750580Y-119190000D01*
X114469420Y-120210000D02*
X114750580Y-120210000D01*
%TO.C,J10*%
X152330000Y-138130000D02*
X152330000Y-136750000D01*
X153710000Y-138130000D02*
X152330000Y-138130000D01*
X154980000Y-135370000D02*
X162710000Y-135370000D01*
X154980000Y-138130000D02*
X154980000Y-135370000D01*
X154980000Y-138130000D02*
X162710000Y-138130000D01*
X162710000Y-138130000D02*
X162710000Y-135370000D01*
%TO.C,J4*%
X108400000Y-137170000D02*
X109780000Y-137170000D01*
X108400000Y-138550000D02*
X108400000Y-137170000D01*
X108400000Y-139820000D02*
X108400000Y-139930000D01*
X108400000Y-139820000D02*
X111160000Y-139820000D01*
X108400000Y-139930000D02*
X111160000Y-139930000D01*
X111160000Y-139820000D02*
X111160000Y-139930000D01*
%TO.C,R6*%
X95472742Y-127077500D02*
X95947258Y-127077500D01*
X95472742Y-128122500D02*
X95947258Y-128122500D01*
%TO.C,J1*%
X131260000Y-137170000D02*
X132640000Y-137170000D01*
X131260000Y-138550000D02*
X131260000Y-137170000D01*
X131260000Y-139820000D02*
X131260000Y-139930000D01*
X131260000Y-139820000D02*
X134020000Y-139820000D01*
X131260000Y-139930000D02*
X134020000Y-139930000D01*
X134020000Y-139820000D02*
X134020000Y-139930000D01*
%TO.C,R7*%
X95947258Y-128677500D02*
X95472742Y-128677500D01*
X95947258Y-129722500D02*
X95472742Y-129722500D01*
%TO.C,J9*%
X79940000Y-139855000D02*
X79940000Y-137095000D01*
X72210000Y-139855000D02*
X79940000Y-139855000D01*
X72210000Y-139855000D02*
X72210000Y-137095000D01*
X72210000Y-137095000D02*
X79940000Y-137095000D01*
X70940000Y-139855000D02*
X69560000Y-139855000D01*
X69560000Y-139855000D02*
X69560000Y-138475000D01*
%TO.C,JP2*%
X140410000Y-117400000D02*
X140410000Y-116800000D01*
X141110000Y-116100000D02*
X142510000Y-116100000D01*
X142510000Y-118100000D02*
X141110000Y-118100000D01*
X143210000Y-116800000D02*
X143210000Y-117400000D01*
X140410000Y-116800000D02*
G75*
G02*
X141110000Y-116100000I700000J0D01*
G01*
X141110000Y-118100000D02*
G75*
G02*
X140410000Y-117400000I0J700000D01*
G01*
X142510000Y-116100000D02*
G75*
G02*
X143210000Y-116800000I1J-699999D01*
G01*
X143210000Y-117400000D02*
G75*
G02*
X142510000Y-118100000I-699999J-1D01*
G01*
%TO.C,C5*%
X120800000Y-120359420D02*
X120800000Y-120640580D01*
X121820000Y-120359420D02*
X121820000Y-120640580D01*
%TO.C,JP6*%
X140410000Y-134700000D02*
X140410000Y-134100000D01*
X141110000Y-133400000D02*
X142510000Y-133400000D01*
X142510000Y-135400000D02*
X141110000Y-135400000D01*
X143210000Y-134100000D02*
X143210000Y-134700000D01*
X140410000Y-134100000D02*
G75*
G02*
X141110000Y-133400000I700000J0D01*
G01*
X141110000Y-135400000D02*
G75*
G02*
X140410000Y-134700000I0J700000D01*
G01*
X142510000Y-133400000D02*
G75*
G02*
X143210000Y-134100000I1J-699999D01*
G01*
X143210000Y-134700000D02*
G75*
G02*
X142510000Y-135400000I-699999J-1D01*
G01*
%TD*%
M02*
