%TF.GenerationSoftware,KiCad,Pcbnew,9.0.2*%
%TF.CreationDate,2025-09-07T15:39:00-04:00*%
%TF.ProjectId,SGTC_Center,53475443-5f43-4656-9e74-65722e6b6963,rev?*%
%TF.SameCoordinates,Original*%
%TF.FileFunction,Soldermask,Top*%
%TF.FilePolarity,Negative*%
%FSLAX46Y46*%
G04 Gerber Fmt 4.6, Leading zero omitted, Abs format (unit mm)*
G04 Created by KiCad (PCBNEW 9.0.2) date 2025-09-07 15:39:00*
%MOMM*%
%LPD*%
G01*
G04 APERTURE LIST*
G04 Aperture macros list*
%AMRoundRect*
0 Rectangle with rounded corners*
0 $1 Rounding radius*
0 $2 $3 $4 $5 $6 $7 $8 $9 X,Y pos of 4 corners*
0 Add a 4 corners polygon primitive as box body*
4,1,4,$2,$3,$4,$5,$6,$7,$8,$9,$2,$3,0*
0 Add four circle primitives for the rounded corners*
1,1,$1+$1,$2,$3*
1,1,$1+$1,$4,$5*
1,1,$1+$1,$6,$7*
1,1,$1+$1,$8,$9*
0 Add four rect primitives between the rounded corners*
20,1,$1+$1,$2,$3,$4,$5,0*
20,1,$1+$1,$4,$5,$6,$7,0*
20,1,$1+$1,$6,$7,$8,$9,0*
20,1,$1+$1,$8,$9,$2,$3,0*%
%AMFreePoly0*
4,1,23,0.500000,-0.750000,0.000000,-0.750000,0.000000,-0.745722,-0.065263,-0.745722,-0.191342,-0.711940,-0.304381,-0.646677,-0.396677,-0.554381,-0.461940,-0.441342,-0.495722,-0.315263,-0.495722,-0.250000,-0.500000,-0.250000,-0.500000,0.250000,-0.495722,0.250000,-0.495722,0.315263,-0.461940,0.441342,-0.396677,0.554381,-0.304381,0.646677,-0.191342,0.711940,-0.065263,0.745722,0.000000,0.745722,
0.000000,0.750000,0.500000,0.750000,0.500000,-0.750000,0.500000,-0.750000,$1*%
%AMFreePoly1*
4,1,23,0.000000,0.745722,0.065263,0.745722,0.191342,0.711940,0.304381,0.646677,0.396677,0.554381,0.461940,0.441342,0.495722,0.315263,0.495722,0.250000,0.500000,0.250000,0.500000,-0.250000,0.495722,-0.250000,0.495722,-0.315263,0.461940,-0.441342,0.396677,-0.554381,0.304381,-0.646677,0.191342,-0.711940,0.065263,-0.745722,0.000000,-0.745722,0.000000,-0.750000,-0.500000,-0.750000,
-0.500000,0.750000,0.000000,0.750000,0.000000,0.745722,0.000000,0.745722,$1*%
G04 Aperture macros list end*
%ADD10C,1.700000*%
%ADD11R,1.700000X1.700000*%
%ADD12FreePoly0,180.000000*%
%ADD13FreePoly1,180.000000*%
%ADD14RoundRect,0.225000X-0.250000X0.225000X-0.250000X-0.225000X0.250000X-0.225000X0.250000X0.225000X0*%
%ADD15RoundRect,0.200000X0.200000X0.275000X-0.200000X0.275000X-0.200000X-0.275000X0.200000X-0.275000X0*%
%ADD16RoundRect,0.225000X-0.225000X-0.250000X0.225000X-0.250000X0.225000X0.250000X-0.225000X0.250000X0*%
%ADD17R,1.409700X0.355600*%
%ADD18RoundRect,0.200000X-0.275000X0.200000X-0.275000X-0.200000X0.275000X-0.200000X0.275000X0.200000X0*%
%ADD19R,0.599999X1.300000*%
%ADD20RoundRect,0.200000X0.275000X-0.200000X0.275000X0.200000X-0.275000X0.200000X-0.275000X-0.200000X0*%
%ADD21RoundRect,0.200000X-0.200000X-0.275000X0.200000X-0.275000X0.200000X0.275000X-0.200000X0.275000X0*%
G04 APERTURE END LIST*
%TO.C,JP4*%
G36*
X141960000Y-128650000D02*
G01*
X141660000Y-128650000D01*
X141660000Y-127150000D01*
X141960000Y-127150000D01*
X141960000Y-128650000D01*
G37*
%TO.C,JP7*%
G36*
X141960000Y-115100000D02*
G01*
X141660000Y-115100000D01*
X141660000Y-113600000D01*
X141960000Y-113600000D01*
X141960000Y-115100000D01*
G37*
%TO.C,JP5*%
G36*
X141960000Y-123450000D02*
G01*
X141660000Y-123450000D01*
X141660000Y-121950000D01*
X141960000Y-121950000D01*
X141960000Y-123450000D01*
G37*
%TO.C,JP8*%
G36*
X141951217Y-120609443D02*
G01*
X141651217Y-120609443D01*
X141651217Y-119109443D01*
X141951217Y-119109443D01*
X141951217Y-120609443D01*
G37*
%TO.C,JP1*%
G36*
X141960000Y-138400000D02*
G01*
X141660000Y-138400000D01*
X141660000Y-136900000D01*
X141960000Y-136900000D01*
X141960000Y-138400000D01*
G37*
%TO.C,JP3*%
G36*
X141960000Y-131900000D02*
G01*
X141660000Y-131900000D01*
X141660000Y-130400000D01*
X141960000Y-130400000D01*
X141960000Y-131900000D01*
G37*
%TO.C,JP6*%
G36*
X141960000Y-117850000D02*
G01*
X141660000Y-117850000D01*
X141660000Y-116350000D01*
X141960000Y-116350000D01*
X141960000Y-117850000D01*
G37*
%TO.C,JP2*%
G36*
X141960000Y-135150000D02*
G01*
X141660000Y-135150000D01*
X141660000Y-133650000D01*
X141960000Y-133650000D01*
X141960000Y-135150000D01*
G37*
%TD*%
D10*
%TO.C,J11*%
X161310000Y-138650000D03*
X158770000Y-138650000D03*
X156230000Y-138650000D03*
D11*
X153690000Y-138650000D03*
%TD*%
%TO.C,J10*%
X70940000Y-138475000D03*
D10*
X73480000Y-138475000D03*
X76020000Y-138475000D03*
X78560000Y-138475000D03*
%TD*%
D12*
%TO.C,JP4*%
X142460000Y-127900000D03*
D13*
X141160000Y-127900000D03*
%TD*%
D14*
%TO.C,C1*%
X98310000Y-127525000D03*
X98310000Y-129075000D03*
%TD*%
D12*
%TO.C,JP7*%
X142460000Y-114350000D03*
D13*
X141160000Y-114350000D03*
%TD*%
D12*
%TO.C,JP5*%
X142460000Y-122700000D03*
D13*
X141160000Y-122700000D03*
%TD*%
D15*
%TO.C,R4*%
X85135000Y-129100000D03*
X83485000Y-129100000D03*
%TD*%
D14*
%TO.C,C2*%
X86810000Y-127525000D03*
X86810000Y-129075000D03*
%TD*%
D11*
%TO.C,J4*%
X125020000Y-138550000D03*
%TD*%
D12*
%TO.C,JP8*%
X142451217Y-119859443D03*
D13*
X141151217Y-119859443D03*
%TD*%
D11*
%TO.C,J8*%
X94540000Y-138550000D03*
%TD*%
D16*
%TO.C,C4*%
X124835000Y-123100000D03*
X126385000Y-123100000D03*
%TD*%
D17*
%TO.C,U1*%
X111610000Y-122050002D03*
X111610000Y-122700003D03*
X111610000Y-123350001D03*
X111610000Y-124000003D03*
X111610000Y-124650001D03*
X111610000Y-125300000D03*
X111610000Y-125950001D03*
X111610000Y-126600000D03*
X111610000Y-127250001D03*
X111610000Y-127900000D03*
X117515500Y-127900002D03*
X117515500Y-127250004D03*
X117515500Y-126600003D03*
X117515500Y-125950004D03*
X117515500Y-125300003D03*
X117515500Y-124650004D03*
X117515500Y-124000003D03*
X117515500Y-123350004D03*
X117515500Y-122700003D03*
X117515500Y-122050004D03*
%TD*%
D11*
%TO.C,J9*%
X86920000Y-138550000D03*
%TD*%
D12*
%TO.C,JP1*%
X142460000Y-137650000D03*
D13*
X141160000Y-137650000D03*
%TD*%
D18*
%TO.C,R5*%
X113810000Y-116275000D03*
X113810000Y-117925000D03*
%TD*%
D19*
%TO.C,U2*%
X84909998Y-115500000D03*
X86810000Y-115500000D03*
X85859999Y-113400000D03*
%TD*%
D20*
%TO.C,R6*%
X115410000Y-117925000D03*
X115410000Y-116275000D03*
%TD*%
D11*
%TO.C,J3*%
X181490000Y-138400000D03*
D10*
X178950000Y-138400000D03*
X176410000Y-138400000D03*
%TD*%
D11*
%TO.C,J7*%
X102160000Y-138550000D03*
%TD*%
D12*
%TO.C,JP3*%
X142460000Y-131150000D03*
D13*
X141160000Y-131150000D03*
%TD*%
D21*
%TO.C,R3*%
X83485000Y-127500000D03*
X85135000Y-127500000D03*
%TD*%
D14*
%TO.C,C5*%
X106210000Y-121425000D03*
X106210000Y-122975000D03*
%TD*%
D11*
%TO.C,J5*%
X117400000Y-138550000D03*
%TD*%
D16*
%TO.C,C3*%
X113835000Y-119700000D03*
X115385000Y-119700000D03*
%TD*%
D11*
%TO.C,J6*%
X109780000Y-138550000D03*
%TD*%
D21*
%TO.C,R2*%
X94885000Y-127600000D03*
X96535000Y-127600000D03*
%TD*%
D11*
%TO.C,J2*%
X132640000Y-138550000D03*
%TD*%
D15*
%TO.C,R1*%
X96535000Y-129200000D03*
X94885000Y-129200000D03*
%TD*%
D12*
%TO.C,JP6*%
X142460000Y-117100000D03*
D13*
X141160000Y-117100000D03*
%TD*%
D14*
%TO.C,C6*%
X121310000Y-119725000D03*
X121310000Y-121275000D03*
%TD*%
D12*
%TO.C,JP2*%
X142460000Y-134400000D03*
D13*
X141160000Y-134400000D03*
%TD*%
M02*
