%TF.GenerationSoftware,KiCad,Pcbnew,9.0.2*%
%TF.CreationDate,2025-09-07T15:39:00-04:00*%
%TF.ProjectId,SGTC_Center,53475443-5f43-4656-9e74-65722e6b6963,rev?*%
%TF.SameCoordinates,Original*%
%TF.FileFunction,Copper,L2,Bot*%
%TF.FilePolarity,Positive*%
%FSLAX46Y46*%
G04 Gerber Fmt 4.6, Leading zero omitted, Abs format (unit mm)*
G04 Created by KiCad (PCBNEW 9.0.2) date 2025-09-07 15:39:00*
%MOMM*%
%LPD*%
G01*
G04 APERTURE LIST*
%TA.AperFunction,ComponentPad*%
%ADD10C,1.700000*%
%TD*%
%TA.AperFunction,ComponentPad*%
%ADD11R,1.700000X1.700000*%
%TD*%
%TA.AperFunction,ViaPad*%
%ADD12C,0.600000*%
%TD*%
%TA.AperFunction,Conductor*%
%ADD13C,0.200000*%
%TD*%
G04 APERTURE END LIST*
D10*
%TO.P,J11,4,Pin_4*%
%TO.N,GND*%
X161310000Y-138650000D03*
%TO.P,J11,3,Pin_3*%
%TO.N,+3.3V*%
X158770000Y-138650000D03*
%TO.P,J11,2,Pin_2*%
%TO.N,GAUGE2_IN_P*%
X156230000Y-138650000D03*
D11*
%TO.P,J11,1,Pin_1*%
%TO.N,GAUGE2_IN_N*%
X153690000Y-138650000D03*
%TD*%
%TO.P,J10,1,Pin_1*%
%TO.N,GAUGE1_IN_P*%
X70940000Y-138475000D03*
D10*
%TO.P,J10,2,Pin_2*%
%TO.N,GAUGE1_IN_N*%
X73480000Y-138475000D03*
%TO.P,J10,3,Pin_3*%
%TO.N,GND*%
X76020000Y-138475000D03*
%TO.P,J10,4,Pin_4*%
%TO.N,+3.3V*%
X78560000Y-138475000D03*
%TD*%
D11*
%TO.P,J4,1,Pin_1*%
%TO.N,DIN*%
X125020000Y-138550000D03*
%TD*%
%TO.P,J8,1,Pin_1*%
%TO.N,GND*%
X94540000Y-138550000D03*
%TD*%
%TO.P,J9,1,Pin_1*%
%TO.N,+3.3V*%
X86920000Y-138550000D03*
%TD*%
%TO.P,J3,1,Pin_1*%
%TO.N,~{CS}*%
X181490000Y-138400000D03*
D10*
%TO.P,J3,2,Pin_2*%
%TO.N,Net-(J3-Pin_2)*%
X178950000Y-138400000D03*
%TO.P,J3,3,Pin_3*%
%TO.N,Net-(J3-Pin_3)*%
X176410000Y-138400000D03*
%TD*%
D11*
%TO.P,J7,1,Pin_1*%
%TO.N,~{SYNC}{slash}~{RST}*%
X102160000Y-138550000D03*
%TD*%
%TO.P,J5,1,Pin_1*%
%TO.N,DOUT*%
X117400000Y-138550000D03*
%TD*%
%TO.P,J6,1,Pin_1*%
%TO.N,SPICLK*%
X109780000Y-138550000D03*
%TD*%
%TO.P,J2,1,Pin_1*%
%TO.N,ADCCLK*%
X132640000Y-138550000D03*
%TD*%
D12*
%TO.N,GAUGE2_IN_N*%
X93425000Y-116600000D03*
%TO.N,GAUGE2_IN_P*%
X152500000Y-134725000D03*
X148250000Y-130475000D03*
X95250000Y-116700000D03*
%TO.N,+3.3V*%
X158775000Y-136825000D03*
X174651409Y-133323591D03*
X89250000Y-128225000D03*
%TO.N,GND*%
X138010000Y-135900000D03*
X128423600Y-137076800D03*
X138560000Y-129900000D03*
X80610000Y-124300000D03*
X180910000Y-136100000D03*
X135310000Y-126400000D03*
X128322000Y-123157600D03*
X157975000Y-135150000D03*
X114610000Y-120900000D03*
X138310000Y-133150000D03*
X112810000Y-122774999D03*
X117810000Y-129800000D03*
X137810000Y-121400000D03*
%TO.N,+3.3V*%
X101960000Y-121300000D03*
X114910000Y-123200000D03*
X88960000Y-122650000D03*
X112920000Y-122030000D03*
%TO.N,GAUGE2_IN_N*%
X91860000Y-129150000D03*
X90010000Y-123700000D03*
%TO.N,GAUGE2_IN_P*%
X92510000Y-123650000D03*
X92510000Y-126700000D03*
%TO.N,DIN*%
X119180000Y-124640000D03*
%TO.N,SPICLK*%
X116465909Y-125931909D03*
X112167600Y-130168000D03*
X117552400Y-133774800D03*
%TO.N,~{SYNC}{slash}~{RST}*%
X119178000Y-131133200D03*
%TO.N,ADCCLK*%
X119710000Y-123950000D03*
%TO.N,~{CS}*%
X124550000Y-127200000D03*
X120860000Y-127210000D03*
X118950000Y-127210000D03*
%TD*%
D13*
%TO.N,GAUGE2_IN_N*%
X93425000Y-116600000D02*
X96075000Y-119250000D01*
X96075000Y-119250000D02*
X115820768Y-119250000D01*
X115820768Y-119250000D02*
X135220768Y-138650000D01*
X135220768Y-138650000D02*
X153690000Y-138650000D01*
%TO.N,GAUGE2_IN_P*%
X95250000Y-116700000D02*
X134475000Y-116700000D01*
X134475000Y-116700000D02*
X148250000Y-130475000D01*
X152750000Y-134975000D02*
X152750000Y-135170000D01*
X152500000Y-134725000D02*
X152750000Y-134975000D01*
X152750000Y-135170000D02*
X156230000Y-138650000D01*
%TO.N,+3.3V*%
X171150000Y-136825000D02*
X174651409Y-133323591D01*
X158775000Y-136825000D02*
X171150000Y-136825000D01*
X89250000Y-122940000D02*
X88960000Y-122650000D01*
X89250000Y-128225000D02*
X89250000Y-122940000D01*
X113740000Y-122030000D02*
X114910000Y-123200000D01*
X112920000Y-122030000D02*
X113740000Y-122030000D01*
X88960000Y-122650000D02*
X100610000Y-122650000D01*
X100610000Y-122650000D02*
X101960000Y-121300000D01*
%TO.N,GAUGE2_IN_N*%
X90010000Y-127300000D02*
X91860000Y-129150000D01*
X90010000Y-123700000D02*
X90010000Y-127300000D01*
%TO.N,GAUGE2_IN_P*%
X92510000Y-123650000D02*
X92510000Y-126700000D01*
%TO.N,DIN*%
X125020000Y-130480000D02*
X125020000Y-138550000D01*
X119180000Y-124640000D02*
X125020000Y-130480000D01*
%TO.N,SPICLK*%
X112229818Y-130168000D02*
X112167600Y-130168000D01*
X112777200Y-138550000D02*
X109780000Y-138550000D01*
X116465909Y-125931909D02*
X112229818Y-130168000D01*
X117552400Y-133774800D02*
X112777200Y-138550000D01*
%TO.N,~{SYNC}{slash}~{RST}*%
X119178000Y-131133200D02*
X105970000Y-131133200D01*
X102160000Y-134943200D02*
X102160000Y-138550000D01*
X105970000Y-131133200D02*
X102160000Y-134943200D01*
%TO.N,ADCCLK*%
X119710000Y-123950000D02*
X132607060Y-136847060D01*
X132607060Y-136847060D02*
X132607060Y-138457836D01*
%TO.N,~{CS}*%
X118950000Y-127210000D02*
X120860000Y-127210000D01*
X129090000Y-131740000D02*
X174789224Y-131740000D01*
X174789224Y-131740000D02*
X181507060Y-138457836D01*
X124550000Y-127200000D02*
X129090000Y-131740000D01*
%TD*%
%TA.AperFunction,Conductor*%
%TO.N,GND*%
G36*
X107631175Y-76600038D02*
G01*
X181951562Y-123179593D01*
X207779392Y-139366926D01*
X207834618Y-139401538D01*
X207873884Y-139448461D01*
X207878070Y-139509503D01*
X207845577Y-139561348D01*
X207788816Y-139584192D01*
X207782043Y-139584424D01*
X182603036Y-139584424D01*
X182544845Y-139565517D01*
X182508881Y-139516017D01*
X182508881Y-139454831D01*
X182520720Y-139430423D01*
X182530744Y-139415420D01*
X182575966Y-139347740D01*
X182590500Y-139274674D01*
X182590500Y-137525326D01*
X182587839Y-137511951D01*
X182583758Y-137491432D01*
X182575966Y-137452260D01*
X182561489Y-137430593D01*
X182520602Y-137369400D01*
X182520599Y-137369397D01*
X182437742Y-137314035D01*
X182437740Y-137314034D01*
X182437737Y-137314033D01*
X182437736Y-137314033D01*
X182364684Y-137299501D01*
X182364674Y-137299500D01*
X182364673Y-137299500D01*
X180885414Y-137299500D01*
X180827223Y-137280593D01*
X180815410Y-137270504D01*
X177931891Y-134386985D01*
X175004436Y-131459530D01*
X174924512Y-131413386D01*
X174835368Y-131389500D01*
X174835366Y-131389500D01*
X129276190Y-131389500D01*
X129217999Y-131370593D01*
X129206186Y-131360504D01*
X125129496Y-127283814D01*
X125101719Y-127229297D01*
X125100500Y-127213810D01*
X125100500Y-127127525D01*
X125096825Y-127113810D01*
X125062984Y-126987515D01*
X125062982Y-126987512D01*
X125062982Y-126987510D01*
X124990512Y-126861989D01*
X124990510Y-126861987D01*
X124990509Y-126861985D01*
X124888015Y-126759491D01*
X124888012Y-126759489D01*
X124888010Y-126759487D01*
X124762488Y-126687017D01*
X124762489Y-126687017D01*
X124732896Y-126679087D01*
X124622475Y-126649500D01*
X124477525Y-126649500D01*
X124440205Y-126659500D01*
X124337510Y-126687017D01*
X124211989Y-126759487D01*
X124109489Y-126861987D01*
X124107728Y-126865038D01*
X124105852Y-126866726D01*
X124105540Y-126867134D01*
X124105464Y-126867075D01*
X124062257Y-126905977D01*
X124001407Y-126912371D01*
X123951989Y-126885539D01*
X119996920Y-122930470D01*
X116035980Y-118969530D01*
X115956056Y-118923386D01*
X115866912Y-118899500D01*
X115866910Y-118899500D01*
X96261190Y-118899500D01*
X96202999Y-118880593D01*
X96191186Y-118870504D01*
X94004496Y-116683814D01*
X93976719Y-116629297D01*
X93976580Y-116627525D01*
X94699500Y-116627525D01*
X94699500Y-116772474D01*
X94737017Y-116912489D01*
X94809487Y-117038010D01*
X94809489Y-117038012D01*
X94809491Y-117038015D01*
X94911985Y-117140509D01*
X94911987Y-117140510D01*
X94911989Y-117140512D01*
X95037511Y-117212982D01*
X95037512Y-117212982D01*
X95037515Y-117212984D01*
X95177525Y-117250500D01*
X95177526Y-117250500D01*
X95322474Y-117250500D01*
X95322475Y-117250500D01*
X95462485Y-117212984D01*
X95462487Y-117212982D01*
X95462489Y-117212982D01*
X95588010Y-117140512D01*
X95588010Y-117140511D01*
X95588015Y-117140509D01*
X95618522Y-117110002D01*
X95649029Y-117079496D01*
X95703546Y-117051719D01*
X95719032Y-117050500D01*
X134288810Y-117050500D01*
X134347001Y-117069407D01*
X134358814Y-117079496D01*
X147670504Y-130391186D01*
X147698281Y-130445703D01*
X147699500Y-130461190D01*
X147699500Y-130547474D01*
X147737017Y-130687489D01*
X147809487Y-130813010D01*
X147809489Y-130813012D01*
X147809491Y-130813015D01*
X147911985Y-130915509D01*
X147911987Y-130915510D01*
X147911989Y-130915512D01*
X148037511Y-130987982D01*
X148037512Y-130987982D01*
X148037515Y-130987984D01*
X148177525Y-131025500D01*
X148177526Y-131025500D01*
X148322474Y-131025500D01*
X148322475Y-131025500D01*
X148462485Y-130987984D01*
X148462487Y-130987982D01*
X148462489Y-130987982D01*
X148588010Y-130915512D01*
X148588010Y-130915511D01*
X148588015Y-130915509D01*
X148690509Y-130813015D01*
X148694221Y-130806585D01*
X148762982Y-130687489D01*
X148762982Y-130687487D01*
X148762984Y-130687485D01*
X148800500Y-130547475D01*
X148800500Y-130402525D01*
X148762984Y-130262515D01*
X148762982Y-130262512D01*
X148762982Y-130262510D01*
X148690512Y-130136989D01*
X148690510Y-130136987D01*
X148690509Y-130136985D01*
X148588015Y-130034491D01*
X148588012Y-130034489D01*
X148588010Y-130034487D01*
X148462488Y-129962017D01*
X148462489Y-129962017D01*
X148432896Y-129954087D01*
X148322475Y-129924500D01*
X148322474Y-129924500D01*
X148236190Y-129924500D01*
X148177999Y-129905593D01*
X148166186Y-129895504D01*
X141433664Y-123162982D01*
X134690212Y-116419530D01*
X134610288Y-116373386D01*
X134521144Y-116349500D01*
X134521142Y-116349500D01*
X95719032Y-116349500D01*
X95660841Y-116330593D01*
X95649029Y-116320504D01*
X95588015Y-116259491D01*
X95588010Y-116259487D01*
X95462488Y-116187017D01*
X95462489Y-116187017D01*
X95359761Y-116159491D01*
X95322475Y-116149500D01*
X95177525Y-116149500D01*
X95140239Y-116159491D01*
X95037510Y-116187017D01*
X94911989Y-116259487D01*
X94809487Y-116361989D01*
X94737017Y-116487510D01*
X94699500Y-116627525D01*
X93976580Y-116627525D01*
X93975500Y-116613810D01*
X93975500Y-116527525D01*
X93946562Y-116419530D01*
X93937984Y-116387515D01*
X93937982Y-116387512D01*
X93937982Y-116387510D01*
X93865512Y-116261989D01*
X93865510Y-116261987D01*
X93865509Y-116261985D01*
X93763015Y-116159491D01*
X93763012Y-116159489D01*
X93763010Y-116159487D01*
X93637488Y-116087017D01*
X93637489Y-116087017D01*
X93607896Y-116079087D01*
X93497475Y-116049500D01*
X93352525Y-116049500D01*
X93290790Y-116066041D01*
X93212510Y-116087017D01*
X93086989Y-116159487D01*
X92984487Y-116261989D01*
X92912017Y-116387510D01*
X92885222Y-116487510D01*
X92874500Y-116527525D01*
X92874500Y-116672475D01*
X92901295Y-116772474D01*
X92912017Y-116812489D01*
X92984487Y-116938010D01*
X92984489Y-116938012D01*
X92984491Y-116938015D01*
X93086985Y-117040509D01*
X93086987Y-117040510D01*
X93086989Y-117040512D01*
X93212511Y-117112982D01*
X93212512Y-117112982D01*
X93212515Y-117112984D01*
X93352525Y-117150500D01*
X93438810Y-117150500D01*
X93497001Y-117169407D01*
X93508814Y-117179496D01*
X95859788Y-119530470D01*
X95939712Y-119576614D01*
X96028856Y-119600500D01*
X115634578Y-119600500D01*
X115692769Y-119619407D01*
X115704582Y-119629496D01*
X119415532Y-123340446D01*
X119443309Y-123394963D01*
X119433738Y-123455395D01*
X119395029Y-123496186D01*
X119371987Y-123509489D01*
X119269487Y-123611989D01*
X119197017Y-123737510D01*
X119159500Y-123877525D01*
X119159500Y-123999608D01*
X119140593Y-124057799D01*
X119091093Y-124093763D01*
X119086133Y-124095232D01*
X119055113Y-124103544D01*
X118967510Y-124127017D01*
X118841989Y-124199487D01*
X118739487Y-124301989D01*
X118667017Y-124427510D01*
X118629500Y-124567525D01*
X118629500Y-124712474D01*
X118667017Y-124852489D01*
X118739487Y-124978010D01*
X118739489Y-124978012D01*
X118739491Y-124978015D01*
X118841985Y-125080509D01*
X118841987Y-125080510D01*
X118841989Y-125080512D01*
X118967511Y-125152982D01*
X118967512Y-125152982D01*
X118967515Y-125152984D01*
X119107525Y-125190500D01*
X119193810Y-125190500D01*
X119252001Y-125209407D01*
X119263814Y-125219496D01*
X120615763Y-126571445D01*
X120625701Y-126590950D01*
X120639043Y-126608298D01*
X120639298Y-126617636D01*
X120643540Y-126625962D01*
X120640116Y-126647580D01*
X120640714Y-126669460D01*
X120635628Y-126675918D01*
X120633969Y-126686394D01*
X120606114Y-126719923D01*
X120600920Y-126723917D01*
X120521985Y-126769491D01*
X120456429Y-126835046D01*
X120451323Y-126838974D01*
X120428262Y-126847169D01*
X120406454Y-126858281D01*
X120394305Y-126859237D01*
X120393670Y-126859463D01*
X120393199Y-126859324D01*
X120390968Y-126859500D01*
X119419032Y-126859500D01*
X119360841Y-126840593D01*
X119349029Y-126830504D01*
X119288015Y-126769491D01*
X119288010Y-126769487D01*
X119162488Y-126697017D01*
X119162489Y-126697017D01*
X119083747Y-126675918D01*
X119022475Y-126659500D01*
X118877525Y-126659500D01*
X118816253Y-126675918D01*
X118737510Y-126697017D01*
X118611989Y-126769487D01*
X118509487Y-126871989D01*
X118437017Y-126997510D01*
X118401705Y-127129297D01*
X118399500Y-127137525D01*
X118399500Y-127282475D01*
X118429087Y-127392896D01*
X118437017Y-127422489D01*
X118509487Y-127548010D01*
X118509489Y-127548012D01*
X118509491Y-127548015D01*
X118611985Y-127650509D01*
X118611987Y-127650510D01*
X118611989Y-127650512D01*
X118737511Y-127722982D01*
X118737512Y-127722982D01*
X118737515Y-127722984D01*
X118877525Y-127760500D01*
X118877526Y-127760500D01*
X119022474Y-127760500D01*
X119022475Y-127760500D01*
X119162485Y-127722984D01*
X119162487Y-127722982D01*
X119162489Y-127722982D01*
X119288010Y-127650512D01*
X119288010Y-127650511D01*
X119288015Y-127650509D01*
X119318522Y-127620002D01*
X119349029Y-127589496D01*
X119403546Y-127561719D01*
X119419032Y-127560500D01*
X120390968Y-127560500D01*
X120449159Y-127579407D01*
X120460971Y-127589496D01*
X120521984Y-127650508D01*
X120521989Y-127650512D01*
X120647511Y-127722982D01*
X120647512Y-127722982D01*
X120647515Y-127722984D01*
X120787525Y-127760500D01*
X120787526Y-127760500D01*
X120932474Y-127760500D01*
X120932475Y-127760500D01*
X121072485Y-127722984D01*
X121072487Y-127722982D01*
X121072489Y-127722982D01*
X121198010Y-127650512D01*
X121198010Y-127650511D01*
X121198015Y-127650509D01*
X121300509Y-127548015D01*
X121342814Y-127474739D01*
X121388282Y-127433799D01*
X121449132Y-127427403D01*
X121498554Y-127454236D01*
X124640504Y-130596186D01*
X124668281Y-130650703D01*
X124669500Y-130666190D01*
X124669500Y-137350500D01*
X124650593Y-137408691D01*
X124601093Y-137444655D01*
X124570500Y-137449500D01*
X124145326Y-137449500D01*
X124145325Y-137449500D01*
X124145315Y-137449501D01*
X124072263Y-137464033D01*
X124072257Y-137464035D01*
X123989400Y-137519397D01*
X123989397Y-137519400D01*
X123934035Y-137602257D01*
X123934033Y-137602263D01*
X123919501Y-137675315D01*
X123919500Y-137675327D01*
X123919500Y-139424681D01*
X123927742Y-139466108D01*
X123920552Y-139526869D01*
X123879020Y-139571800D01*
X123830645Y-139584424D01*
X118589355Y-139584424D01*
X118531164Y-139565517D01*
X118495200Y-139516017D01*
X118492258Y-139466108D01*
X118500499Y-139424681D01*
X118500500Y-139424672D01*
X118500500Y-137675327D01*
X118500498Y-137675315D01*
X118491846Y-137631820D01*
X118485966Y-137602260D01*
X118473932Y-137584250D01*
X118430602Y-137519400D01*
X118430599Y-137519397D01*
X118347742Y-137464035D01*
X118347740Y-137464034D01*
X118347737Y-137464033D01*
X118347736Y-137464033D01*
X118274684Y-137449501D01*
X118274674Y-137449500D01*
X116525326Y-137449500D01*
X116525325Y-137449500D01*
X116525315Y-137449501D01*
X116452263Y-137464033D01*
X116452257Y-137464035D01*
X116369400Y-137519397D01*
X116369397Y-137519400D01*
X116314035Y-137602257D01*
X116314033Y-137602263D01*
X116299501Y-137675315D01*
X116299500Y-137675327D01*
X116299500Y-139424681D01*
X116307742Y-139466108D01*
X116300552Y-139526869D01*
X116259020Y-139571800D01*
X116210645Y-139584424D01*
X110969355Y-139584424D01*
X110911164Y-139565517D01*
X110875200Y-139516017D01*
X110872258Y-139466108D01*
X110880499Y-139424681D01*
X110880500Y-139424672D01*
X110880500Y-138999500D01*
X110899407Y-138941309D01*
X110948907Y-138905345D01*
X110979500Y-138900500D01*
X112823342Y-138900500D01*
X112823344Y-138900500D01*
X112912488Y-138876614D01*
X112992412Y-138830470D01*
X117468586Y-134354296D01*
X117523103Y-134326519D01*
X117538590Y-134325300D01*
X117624874Y-134325300D01*
X117624875Y-134325300D01*
X117764885Y-134287784D01*
X117764887Y-134287782D01*
X117764889Y-134287782D01*
X117890410Y-134215312D01*
X117890410Y-134215311D01*
X117890415Y-134215309D01*
X117992909Y-134112815D01*
X118065384Y-133987285D01*
X118102900Y-133847275D01*
X118102900Y-133702325D01*
X118065384Y-133562315D01*
X118065382Y-133562312D01*
X118065382Y-133562310D01*
X117992912Y-133436789D01*
X117992910Y-133436787D01*
X117992909Y-133436785D01*
X117890415Y-133334291D01*
X117890412Y-133334289D01*
X117890410Y-133334287D01*
X117764888Y-133261817D01*
X117764889Y-133261817D01*
X117735296Y-133253887D01*
X117624875Y-133224300D01*
X117479925Y-133224300D01*
X117418190Y-133240841D01*
X117339910Y-133261817D01*
X117214389Y-133334287D01*
X117111887Y-133436789D01*
X117039417Y-133562310D01*
X117001900Y-133702325D01*
X117001900Y-133788610D01*
X116982993Y-133846801D01*
X116972904Y-133858614D01*
X112661014Y-138170504D01*
X112606497Y-138198281D01*
X112591010Y-138199500D01*
X110979500Y-138199500D01*
X110921309Y-138180593D01*
X110885345Y-138131093D01*
X110880500Y-138100500D01*
X110880500Y-137675327D01*
X110880498Y-137675315D01*
X110871846Y-137631820D01*
X110865966Y-137602260D01*
X110853932Y-137584250D01*
X110810602Y-137519400D01*
X110810599Y-137519397D01*
X110727742Y-137464035D01*
X110727740Y-137464034D01*
X110727737Y-137464033D01*
X110727736Y-137464033D01*
X110654684Y-137449501D01*
X110654674Y-137449500D01*
X108905326Y-137449500D01*
X108905325Y-137449500D01*
X108905315Y-137449501D01*
X108832263Y-137464033D01*
X108832257Y-137464035D01*
X108749400Y-137519397D01*
X108749397Y-137519400D01*
X108694035Y-137602257D01*
X108694033Y-137602263D01*
X108679501Y-137675315D01*
X108679500Y-137675327D01*
X108679500Y-139424681D01*
X108687742Y-139466108D01*
X108680552Y-139526869D01*
X108639020Y-139571800D01*
X108590645Y-139584424D01*
X103349355Y-139584424D01*
X103291164Y-139565517D01*
X103255200Y-139516017D01*
X103252258Y-139466108D01*
X103260499Y-139424681D01*
X103260500Y-139424672D01*
X103260500Y-137675327D01*
X103260498Y-137675315D01*
X103251846Y-137631820D01*
X103245966Y-137602260D01*
X103233932Y-137584250D01*
X103190602Y-137519400D01*
X103190599Y-137519397D01*
X103107742Y-137464035D01*
X103107740Y-137464034D01*
X103107737Y-137464033D01*
X103107736Y-137464033D01*
X103034684Y-137449501D01*
X103034674Y-137449500D01*
X103034673Y-137449500D01*
X102609500Y-137449500D01*
X102551309Y-137430593D01*
X102515345Y-137381093D01*
X102510500Y-137350500D01*
X102510500Y-135129390D01*
X102529407Y-135071199D01*
X102539496Y-135059386D01*
X106086186Y-131512696D01*
X106140703Y-131484919D01*
X106156190Y-131483700D01*
X118708968Y-131483700D01*
X118767159Y-131502607D01*
X118778971Y-131512696D01*
X118839984Y-131573708D01*
X118839989Y-131573712D01*
X118965511Y-131646182D01*
X118965512Y-131646182D01*
X118965515Y-131646184D01*
X119105525Y-131683700D01*
X119105526Y-131683700D01*
X119250474Y-131683700D01*
X119250475Y-131683700D01*
X119390485Y-131646184D01*
X119390487Y-131646182D01*
X119390489Y-131646182D01*
X119516010Y-131573712D01*
X119516010Y-131573711D01*
X119516015Y-131573709D01*
X119618509Y-131471215D01*
X119651897Y-131413386D01*
X119690982Y-131345689D01*
X119690982Y-131345687D01*
X119690984Y-131345685D01*
X119728500Y-131205675D01*
X119728500Y-131060725D01*
X119690984Y-130920715D01*
X119690982Y-130920712D01*
X119690982Y-130920710D01*
X119618512Y-130795189D01*
X119618510Y-130795187D01*
X119618509Y-130795185D01*
X119516015Y-130692691D01*
X119516012Y-130692689D01*
X119516010Y-130692687D01*
X119390488Y-130620217D01*
X119390489Y-130620217D01*
X119346794Y-130608509D01*
X119250475Y-130582700D01*
X119105525Y-130582700D01*
X119055195Y-130596186D01*
X118965510Y-130620217D01*
X118839989Y-130692687D01*
X118839984Y-130692691D01*
X118778971Y-130753704D01*
X118724454Y-130781481D01*
X118708968Y-130782700D01*
X112570249Y-130782700D01*
X112512058Y-130763793D01*
X112476094Y-130714293D01*
X112476094Y-130653107D01*
X112502989Y-130615060D01*
X112501026Y-130613097D01*
X112505612Y-130608510D01*
X112505615Y-130608509D01*
X112608109Y-130506015D01*
X112680584Y-130380485D01*
X112718100Y-130240475D01*
X112718100Y-130216407D01*
X112737007Y-130158216D01*
X112747096Y-130146403D01*
X116382094Y-126511405D01*
X116436611Y-126483628D01*
X116452098Y-126482409D01*
X116538383Y-126482409D01*
X116538384Y-126482409D01*
X116678394Y-126444893D01*
X116678396Y-126444891D01*
X116678398Y-126444891D01*
X116803919Y-126372421D01*
X116803919Y-126372420D01*
X116803924Y-126372418D01*
X116906418Y-126269924D01*
X116906421Y-126269919D01*
X116978891Y-126144398D01*
X116978891Y-126144396D01*
X116978893Y-126144394D01*
X117016409Y-126004384D01*
X117016409Y-125859434D01*
X116978893Y-125719424D01*
X116978891Y-125719421D01*
X116978891Y-125719419D01*
X116906421Y-125593898D01*
X116906419Y-125593896D01*
X116906418Y-125593894D01*
X116803924Y-125491400D01*
X116803921Y-125491398D01*
X116803919Y-125491396D01*
X116678397Y-125418926D01*
X116678398Y-125418926D01*
X116648805Y-125410996D01*
X116538384Y-125381409D01*
X116393434Y-125381409D01*
X116331699Y-125397950D01*
X116253419Y-125418926D01*
X116127898Y-125491396D01*
X116025396Y-125593898D01*
X115952926Y-125719419D01*
X115915409Y-125859434D01*
X115915409Y-125945718D01*
X115896502Y-126003909D01*
X115886413Y-126015722D01*
X112313631Y-129588504D01*
X112259114Y-129616281D01*
X112243627Y-129617500D01*
X112240075Y-129617500D01*
X112095125Y-129617500D01*
X112033390Y-129634041D01*
X111955110Y-129655017D01*
X111829589Y-129727487D01*
X111727087Y-129829989D01*
X111654617Y-129955510D01*
X111633455Y-130034487D01*
X111617100Y-130095525D01*
X111617100Y-130240475D01*
X111623006Y-130262515D01*
X111654617Y-130380489D01*
X111727087Y-130506010D01*
X111727089Y-130506012D01*
X111727091Y-130506015D01*
X111829585Y-130608509D01*
X111829587Y-130608510D01*
X111834174Y-130613097D01*
X111832097Y-130615173D01*
X111859868Y-130655561D01*
X111858280Y-130716726D01*
X111821044Y-130765276D01*
X111764951Y-130782700D01*
X105923856Y-130782700D01*
X105853268Y-130801614D01*
X105853267Y-130801613D01*
X105834714Y-130806585D01*
X105834712Y-130806585D01*
X105834712Y-130806586D01*
X105823577Y-130813015D01*
X105754788Y-130852730D01*
X101879528Y-134727990D01*
X101839413Y-134797471D01*
X101839412Y-134797475D01*
X101833386Y-134807912D01*
X101824866Y-134839712D01*
X101809500Y-134897057D01*
X101809500Y-137350500D01*
X101790593Y-137408691D01*
X101741093Y-137444655D01*
X101710500Y-137449500D01*
X101285326Y-137449500D01*
X101285325Y-137449500D01*
X101285315Y-137449501D01*
X101212263Y-137464033D01*
X101212257Y-137464035D01*
X101129400Y-137519397D01*
X101129397Y-137519400D01*
X101074035Y-137602257D01*
X101074033Y-137602263D01*
X101059501Y-137675315D01*
X101059500Y-137675327D01*
X101059500Y-139424681D01*
X101067742Y-139466108D01*
X101060552Y-139526869D01*
X101019020Y-139571800D01*
X100970645Y-139584424D01*
X95784950Y-139584424D01*
X95726759Y-139565517D01*
X95690795Y-139516017D01*
X95686610Y-139474014D01*
X95689999Y-139444797D01*
X95690000Y-139444795D01*
X95690000Y-138750001D01*
X95689999Y-138750000D01*
X95001880Y-138750000D01*
X95005925Y-138742993D01*
X95040000Y-138615826D01*
X95040000Y-138484174D01*
X95005925Y-138357007D01*
X95001880Y-138350000D01*
X95689998Y-138350000D01*
X95689999Y-138349999D01*
X95689999Y-137655210D01*
X95689998Y-137655208D01*
X95687090Y-137630125D01*
X95641786Y-137527522D01*
X95562477Y-137448213D01*
X95459872Y-137402909D01*
X95434797Y-137400000D01*
X94740001Y-137400000D01*
X94740000Y-137400001D01*
X94740000Y-138088120D01*
X94732993Y-138084075D01*
X94605826Y-138050000D01*
X94474174Y-138050000D01*
X94347007Y-138084075D01*
X94340000Y-138088120D01*
X94340000Y-137400001D01*
X94339999Y-137400000D01*
X93645210Y-137400000D01*
X93645207Y-137400001D01*
X93620125Y-137402909D01*
X93517522Y-137448213D01*
X93438213Y-137527522D01*
X93392909Y-137630127D01*
X93390000Y-137655202D01*
X93390000Y-138349999D01*
X93390001Y-138350000D01*
X94078120Y-138350000D01*
X94074075Y-138357007D01*
X94040000Y-138484174D01*
X94040000Y-138615826D01*
X94074075Y-138742993D01*
X94078120Y-138750000D01*
X93390002Y-138750000D01*
X93390001Y-138750001D01*
X93390001Y-139444788D01*
X93393391Y-139474018D01*
X93381313Y-139534000D01*
X93336286Y-139575427D01*
X93295050Y-139584424D01*
X88109355Y-139584424D01*
X88051164Y-139565517D01*
X88015200Y-139516017D01*
X88012258Y-139466108D01*
X88020499Y-139424681D01*
X88020500Y-139424672D01*
X88020500Y-137675327D01*
X88020499Y-137675323D01*
X88020497Y-137675315D01*
X88005966Y-137602260D01*
X87993932Y-137584250D01*
X87950602Y-137519400D01*
X87950599Y-137519397D01*
X87867742Y-137464035D01*
X87867740Y-137464034D01*
X87867737Y-137464033D01*
X87867736Y-137464033D01*
X87794684Y-137449501D01*
X87794674Y-137449500D01*
X86045326Y-137449500D01*
X86045325Y-137449500D01*
X86045315Y-137449501D01*
X85972263Y-137464033D01*
X85972257Y-137464035D01*
X85889400Y-137519397D01*
X85889397Y-137519400D01*
X85834035Y-137602257D01*
X85834033Y-137602263D01*
X85819501Y-137675315D01*
X85819500Y-137675327D01*
X85819500Y-139424681D01*
X85827742Y-139466108D01*
X85820552Y-139526869D01*
X85779020Y-139571800D01*
X85730645Y-139584424D01*
X79209982Y-139584424D01*
X79151791Y-139565517D01*
X79115827Y-139516017D01*
X79115827Y-139454831D01*
X79151790Y-139405332D01*
X79276928Y-139314414D01*
X79399414Y-139191928D01*
X79501232Y-139051788D01*
X79579873Y-138897445D01*
X79579874Y-138897440D01*
X79579876Y-138897438D01*
X79633401Y-138732706D01*
X79633402Y-138732702D01*
X79660500Y-138561614D01*
X79660500Y-138388384D01*
X79660499Y-138388378D01*
X79633402Y-138217297D01*
X79633401Y-138217293D01*
X79579876Y-138052561D01*
X79579874Y-138052558D01*
X79579873Y-138052557D01*
X79579873Y-138052555D01*
X79501232Y-137898212D01*
X79399414Y-137758072D01*
X79276928Y-137635586D01*
X79136788Y-137533768D01*
X79136787Y-137533767D01*
X79136785Y-137533766D01*
X78982441Y-137455125D01*
X78982438Y-137455123D01*
X78817706Y-137401598D01*
X78817702Y-137401597D01*
X78646614Y-137374500D01*
X78646611Y-137374500D01*
X78473389Y-137374500D01*
X78473386Y-137374500D01*
X78302297Y-137401597D01*
X78302293Y-137401598D01*
X78137561Y-137455123D01*
X78137558Y-137455125D01*
X77983214Y-137533766D01*
X77843073Y-137635585D01*
X77720585Y-137758073D01*
X77618766Y-137898214D01*
X77540125Y-138052558D01*
X77540123Y-138052561D01*
X77486598Y-138217293D01*
X77486597Y-138217297D01*
X77459501Y-138388378D01*
X77459500Y-138388384D01*
X77459500Y-138561614D01*
X77486597Y-138732702D01*
X77486598Y-138732706D01*
X77540123Y-138897438D01*
X77540125Y-138897441D01*
X77592635Y-139000500D01*
X77618768Y-139051788D01*
X77720586Y-139191928D01*
X77843072Y-139314414D01*
X77968209Y-139405332D01*
X78004173Y-139454831D01*
X78004173Y-139516017D01*
X77968209Y-139565517D01*
X77910018Y-139584424D01*
X76754195Y-139584424D01*
X76696004Y-139565517D01*
X76660040Y-139516017D01*
X76660040Y-139454831D01*
X76678541Y-139429365D01*
X76679488Y-139417331D01*
X76205176Y-138943019D01*
X76212993Y-138940925D01*
X76327007Y-138875099D01*
X76420099Y-138782007D01*
X76485925Y-138667993D01*
X76488019Y-138660176D01*
X76962330Y-139134487D01*
X77003569Y-139077728D01*
X77085749Y-138916440D01*
X77141683Y-138744289D01*
X77170000Y-138565510D01*
X77170000Y-138384489D01*
X77141683Y-138205710D01*
X77085749Y-138033559D01*
X77003571Y-137872275D01*
X76962330Y-137815511D01*
X76488019Y-138289821D01*
X76485925Y-138282007D01*
X76420099Y-138167993D01*
X76327007Y-138074901D01*
X76212993Y-138009075D01*
X76205174Y-138006980D01*
X76679488Y-137532667D01*
X76622728Y-137491430D01*
X76461440Y-137409250D01*
X76289289Y-137353316D01*
X76110510Y-137325000D01*
X75929490Y-137325000D01*
X75750710Y-137353316D01*
X75578559Y-137409250D01*
X75417267Y-137491432D01*
X75360510Y-137532667D01*
X75834823Y-138006980D01*
X75827007Y-138009075D01*
X75712993Y-138074901D01*
X75619901Y-138167993D01*
X75554075Y-138282007D01*
X75551980Y-138289823D01*
X75077667Y-137815510D01*
X75036432Y-137872267D01*
X74954250Y-138033559D01*
X74898316Y-138205710D01*
X74870000Y-138384489D01*
X74870000Y-138565510D01*
X74898316Y-138744289D01*
X74954250Y-138916440D01*
X75036430Y-139077728D01*
X75077667Y-139134488D01*
X75551980Y-138660174D01*
X75554075Y-138667993D01*
X75619901Y-138782007D01*
X75712993Y-138875099D01*
X75827007Y-138940925D01*
X75834821Y-138943019D01*
X75360510Y-139417331D01*
X75361457Y-139429368D01*
X75379957Y-139454830D01*
X75379958Y-139516015D01*
X75343995Y-139565516D01*
X75285805Y-139584424D01*
X74129982Y-139584424D01*
X74071791Y-139565517D01*
X74035827Y-139516017D01*
X74035827Y-139454831D01*
X74071790Y-139405332D01*
X74196928Y-139314414D01*
X74319414Y-139191928D01*
X74421232Y-139051788D01*
X74499873Y-138897445D01*
X74499874Y-138897440D01*
X74499876Y-138897438D01*
X74553401Y-138732706D01*
X74553402Y-138732702D01*
X74580500Y-138561614D01*
X74580500Y-138388385D01*
X74553402Y-138217297D01*
X74553401Y-138217293D01*
X74499876Y-138052561D01*
X74499874Y-138052558D01*
X74499873Y-138052557D01*
X74499873Y-138052555D01*
X74421232Y-137898212D01*
X74319414Y-137758072D01*
X74196928Y-137635586D01*
X74056788Y-137533768D01*
X74056787Y-137533767D01*
X74056785Y-137533766D01*
X73902441Y-137455125D01*
X73902438Y-137455123D01*
X73737706Y-137401598D01*
X73737702Y-137401597D01*
X73566614Y-137374500D01*
X73566611Y-137374500D01*
X73393389Y-137374500D01*
X73393386Y-137374500D01*
X73222297Y-137401597D01*
X73222293Y-137401598D01*
X73057561Y-137455123D01*
X73057558Y-137455125D01*
X72903214Y-137533766D01*
X72763073Y-137635585D01*
X72640585Y-137758073D01*
X72538766Y-137898214D01*
X72460125Y-138052558D01*
X72460123Y-138052561D01*
X72406598Y-138217293D01*
X72406597Y-138217297D01*
X72379501Y-138388378D01*
X72379500Y-138388384D01*
X72379500Y-138561614D01*
X72406597Y-138732702D01*
X72406598Y-138732706D01*
X72460123Y-138897438D01*
X72460125Y-138897441D01*
X72512635Y-139000500D01*
X72538768Y-139051788D01*
X72640586Y-139191928D01*
X72763072Y-139314414D01*
X72888209Y-139405332D01*
X72924173Y-139454831D01*
X72924173Y-139516017D01*
X72888209Y-139565517D01*
X72830018Y-139584424D01*
X72103149Y-139584424D01*
X72044958Y-139565517D01*
X72008994Y-139516017D01*
X72008994Y-139454831D01*
X72020832Y-139430424D01*
X72024669Y-139424681D01*
X72025966Y-139422740D01*
X72040500Y-139349674D01*
X72040500Y-137600326D01*
X72025966Y-137527260D01*
X71983721Y-137464035D01*
X71970602Y-137444400D01*
X71970599Y-137444397D01*
X71887742Y-137389035D01*
X71887740Y-137389034D01*
X71887737Y-137389033D01*
X71887736Y-137389033D01*
X71814684Y-137374501D01*
X71814674Y-137374500D01*
X70065326Y-137374500D01*
X70065325Y-137374500D01*
X70065315Y-137374501D01*
X69992263Y-137389033D01*
X69992257Y-137389035D01*
X69909400Y-137444397D01*
X69909397Y-137444400D01*
X69854035Y-137527257D01*
X69854033Y-137527263D01*
X69839501Y-137600315D01*
X69839500Y-137600327D01*
X69839500Y-139349672D01*
X69839501Y-139349684D01*
X69854033Y-139422736D01*
X69854035Y-139422742D01*
X69859168Y-139430424D01*
X69875775Y-139489313D01*
X69854596Y-139546716D01*
X69803721Y-139580708D01*
X69776851Y-139584424D01*
X56842742Y-139584424D01*
X56784551Y-139565517D01*
X56748587Y-139516017D01*
X56748020Y-139456635D01*
X61878206Y-122577525D01*
X88409500Y-122577525D01*
X88409500Y-122722475D01*
X88419419Y-122759491D01*
X88447017Y-122862489D01*
X88519487Y-122988010D01*
X88519489Y-122988012D01*
X88519491Y-122988015D01*
X88621985Y-123090509D01*
X88621987Y-123090510D01*
X88621989Y-123090512D01*
X88747511Y-123162982D01*
X88747509Y-123162982D01*
X88747513Y-123162983D01*
X88747515Y-123162984D01*
X88826126Y-123184048D01*
X88877437Y-123217370D01*
X88899364Y-123274491D01*
X88899500Y-123279673D01*
X88899500Y-127755968D01*
X88880593Y-127814159D01*
X88870504Y-127825971D01*
X88809491Y-127886984D01*
X88809487Y-127886989D01*
X88737017Y-128012510D01*
X88699500Y-128152525D01*
X88699500Y-128297474D01*
X88737017Y-128437489D01*
X88809487Y-128563010D01*
X88809489Y-128563012D01*
X88809491Y-128563015D01*
X88911985Y-128665509D01*
X88911987Y-128665510D01*
X88911989Y-128665512D01*
X89037511Y-128737982D01*
X89037512Y-128737982D01*
X89037515Y-128737984D01*
X89177525Y-128775500D01*
X89177526Y-128775500D01*
X89322474Y-128775500D01*
X89322475Y-128775500D01*
X89462485Y-128737984D01*
X89462487Y-128737982D01*
X89462489Y-128737982D01*
X89588010Y-128665512D01*
X89588010Y-128665511D01*
X89588015Y-128665509D01*
X89690509Y-128563015D01*
X89762984Y-128437485D01*
X89800500Y-128297475D01*
X89800500Y-128152525D01*
X89762984Y-128012515D01*
X89762982Y-128012512D01*
X89762982Y-128012510D01*
X89690512Y-127886989D01*
X89690508Y-127886984D01*
X89629496Y-127825971D01*
X89625870Y-127818854D01*
X89619407Y-127814159D01*
X89612242Y-127792107D01*
X89601719Y-127771454D01*
X89600500Y-127755968D01*
X89600500Y-127625189D01*
X89619407Y-127566998D01*
X89668907Y-127531034D01*
X89730093Y-127531034D01*
X89769501Y-127555183D01*
X91280505Y-129066187D01*
X91308281Y-129120702D01*
X91309500Y-129136189D01*
X91309500Y-129222474D01*
X91347017Y-129362489D01*
X91419487Y-129488010D01*
X91419489Y-129488012D01*
X91419491Y-129488015D01*
X91521985Y-129590509D01*
X91521987Y-129590510D01*
X91521989Y-129590512D01*
X91647511Y-129662982D01*
X91647512Y-129662982D01*
X91647515Y-129662984D01*
X91787525Y-129700500D01*
X91787526Y-129700500D01*
X91932474Y-129700500D01*
X91932475Y-129700500D01*
X92072485Y-129662984D01*
X92072487Y-129662982D01*
X92072489Y-129662982D01*
X92198010Y-129590512D01*
X92198010Y-129590511D01*
X92198015Y-129590509D01*
X92300509Y-129488015D01*
X92372984Y-129362485D01*
X92410500Y-129222475D01*
X92410500Y-129077525D01*
X92372984Y-128937515D01*
X92372982Y-128937512D01*
X92372982Y-128937510D01*
X92300512Y-128811989D01*
X92300510Y-128811987D01*
X92300509Y-128811985D01*
X92198015Y-128709491D01*
X92198012Y-128709489D01*
X92198010Y-128709487D01*
X92072488Y-128637017D01*
X92072489Y-128637017D01*
X92042896Y-128629087D01*
X91932475Y-128599500D01*
X91932474Y-128599500D01*
X91846190Y-128599500D01*
X91787999Y-128580593D01*
X91776186Y-128570504D01*
X90389496Y-127183814D01*
X90361719Y-127129297D01*
X90360500Y-127113810D01*
X90360500Y-124169031D01*
X90379407Y-124110840D01*
X90389490Y-124099033D01*
X90450509Y-124038015D01*
X90459481Y-124022475D01*
X90522982Y-123912489D01*
X90522982Y-123912487D01*
X90522984Y-123912485D01*
X90560500Y-123772475D01*
X90560500Y-123627525D01*
X90522984Y-123487515D01*
X90522982Y-123487512D01*
X90522982Y-123487510D01*
X90450512Y-123361989D01*
X90450510Y-123361987D01*
X90450509Y-123361985D01*
X90348015Y-123259491D01*
X90348012Y-123259489D01*
X90348010Y-123259487D01*
X90219403Y-123185236D01*
X90178462Y-123139767D01*
X90172066Y-123078917D01*
X90202659Y-123025929D01*
X90258555Y-123001042D01*
X90268903Y-123000500D01*
X92164494Y-123000500D01*
X92222685Y-123019407D01*
X92258649Y-123068907D01*
X92258649Y-123130093D01*
X92222685Y-123179593D01*
X92213995Y-123185236D01*
X92171987Y-123209489D01*
X92069487Y-123311989D01*
X91997017Y-123437510D01*
X91997016Y-123437515D01*
X91959500Y-123577525D01*
X91959500Y-123722475D01*
X91972897Y-123772474D01*
X91997017Y-123862489D01*
X92069487Y-123988010D01*
X92069489Y-123988012D01*
X92069491Y-123988015D01*
X92130505Y-124049029D01*
X92158281Y-124103544D01*
X92159500Y-124119031D01*
X92159500Y-126230968D01*
X92140593Y-126289159D01*
X92130504Y-126300971D01*
X92069491Y-126361984D01*
X92069487Y-126361989D01*
X91997017Y-126487510D01*
X91974527Y-126571445D01*
X91959500Y-126627525D01*
X91959500Y-126772475D01*
X91984755Y-126866726D01*
X91997017Y-126912489D01*
X92069487Y-127038010D01*
X92069489Y-127038012D01*
X92069491Y-127038015D01*
X92171985Y-127140509D01*
X92171987Y-127140510D01*
X92171989Y-127140512D01*
X92297511Y-127212982D01*
X92297512Y-127212982D01*
X92297515Y-127212984D01*
X92437525Y-127250500D01*
X92437526Y-127250500D01*
X92582474Y-127250500D01*
X92582475Y-127250500D01*
X92722485Y-127212984D01*
X92722487Y-127212982D01*
X92722489Y-127212982D01*
X92848010Y-127140512D01*
X92848010Y-127140511D01*
X92848015Y-127140509D01*
X92950509Y-127038015D01*
X93022984Y-126912485D01*
X93060500Y-126772475D01*
X93060500Y-126627525D01*
X93022984Y-126487515D01*
X93022982Y-126487512D01*
X93022982Y-126487510D01*
X92950512Y-126361989D01*
X92950508Y-126361984D01*
X92889496Y-126300971D01*
X92861719Y-126246454D01*
X92860500Y-126230968D01*
X92860500Y-124119031D01*
X92879407Y-124060840D01*
X92889490Y-124049033D01*
X92950509Y-123988015D01*
X92994114Y-123912489D01*
X93022982Y-123862489D01*
X93022982Y-123862487D01*
X93022984Y-123862485D01*
X93060500Y-123722475D01*
X93060500Y-123577525D01*
X93022984Y-123437515D01*
X93022982Y-123437512D01*
X93022982Y-123437510D01*
X92950512Y-123311989D01*
X92950510Y-123311987D01*
X92950509Y-123311985D01*
X92848015Y-123209491D01*
X92848012Y-123209489D01*
X92806005Y-123185236D01*
X92765065Y-123139766D01*
X92758670Y-123078916D01*
X92789263Y-123025928D01*
X92845158Y-123001042D01*
X92855506Y-123000500D01*
X100656142Y-123000500D01*
X100656144Y-123000500D01*
X100745288Y-122976614D01*
X100755912Y-122970480D01*
X100825212Y-122930470D01*
X101798155Y-121957525D01*
X112369500Y-121957525D01*
X112369500Y-122102475D01*
X112378756Y-122137017D01*
X112407017Y-122242489D01*
X112479487Y-122368010D01*
X112479489Y-122368012D01*
X112479491Y-122368015D01*
X112581985Y-122470509D01*
X112581987Y-122470510D01*
X112581989Y-122470512D01*
X112707511Y-122542982D01*
X112707512Y-122542982D01*
X112707515Y-122542984D01*
X112847525Y-122580500D01*
X112847526Y-122580500D01*
X112992474Y-122580500D01*
X112992475Y-122580500D01*
X113132485Y-122542984D01*
X113132487Y-122542982D01*
X113132489Y-122542982D01*
X113258010Y-122470512D01*
X113258010Y-122470511D01*
X113258015Y-122470509D01*
X113291014Y-122437510D01*
X113319029Y-122409496D01*
X113326145Y-122405870D01*
X113330841Y-122399407D01*
X113352892Y-122392242D01*
X113373546Y-122381719D01*
X113389032Y-122380500D01*
X113553810Y-122380500D01*
X113612001Y-122399407D01*
X113623814Y-122409496D01*
X114330504Y-123116186D01*
X114358281Y-123170703D01*
X114359500Y-123186190D01*
X114359500Y-123272475D01*
X114389087Y-123382896D01*
X114397017Y-123412489D01*
X114469487Y-123538010D01*
X114469489Y-123538012D01*
X114469491Y-123538015D01*
X114571985Y-123640509D01*
X114571987Y-123640510D01*
X114571989Y-123640512D01*
X114697511Y-123712982D01*
X114697512Y-123712982D01*
X114697515Y-123712984D01*
X114837525Y-123750500D01*
X114837526Y-123750500D01*
X114982474Y-123750500D01*
X114982475Y-123750500D01*
X115122485Y-123712984D01*
X115122487Y-123712982D01*
X115122489Y-123712982D01*
X115248010Y-123640512D01*
X115248010Y-123640511D01*
X115248015Y-123640509D01*
X115350509Y-123538015D01*
X115350512Y-123538010D01*
X115422982Y-123412489D01*
X115422982Y-123412487D01*
X115422984Y-123412485D01*
X115460500Y-123272475D01*
X115460500Y-123127525D01*
X115422984Y-122987515D01*
X115422982Y-122987512D01*
X115422982Y-122987510D01*
X115350512Y-122861989D01*
X115350510Y-122861987D01*
X115350509Y-122861985D01*
X115248015Y-122759491D01*
X115248012Y-122759489D01*
X115248010Y-122759487D01*
X115122488Y-122687017D01*
X115122489Y-122687017D01*
X115092896Y-122679087D01*
X114982475Y-122649500D01*
X114982474Y-122649500D01*
X114896190Y-122649500D01*
X114837999Y-122630593D01*
X114826186Y-122620504D01*
X114415169Y-122209487D01*
X113955212Y-121749530D01*
X113875288Y-121703386D01*
X113875287Y-121703385D01*
X113875286Y-121703385D01*
X113864517Y-121700499D01*
X113864517Y-121700500D01*
X113786144Y-121679500D01*
X113786142Y-121679500D01*
X113389032Y-121679500D01*
X113330841Y-121660593D01*
X113319029Y-121650504D01*
X113258015Y-121589491D01*
X113258010Y-121589487D01*
X113132488Y-121517017D01*
X113132489Y-121517017D01*
X113102896Y-121509087D01*
X112992475Y-121479500D01*
X112847525Y-121479500D01*
X112785790Y-121496041D01*
X112707510Y-121517017D01*
X112581989Y-121589487D01*
X112479487Y-121691989D01*
X112407017Y-121817510D01*
X112397851Y-121851719D01*
X112369500Y-121957525D01*
X101798155Y-121957525D01*
X101876185Y-121879495D01*
X101930702Y-121851719D01*
X101946189Y-121850500D01*
X102032474Y-121850500D01*
X102032475Y-121850500D01*
X102172485Y-121812984D01*
X102172487Y-121812982D01*
X102172489Y-121812982D01*
X102298010Y-121740512D01*
X102298010Y-121740511D01*
X102298015Y-121740509D01*
X102400509Y-121638015D01*
X102400512Y-121638010D01*
X102472982Y-121512489D01*
X102472982Y-121512487D01*
X102472984Y-121512485D01*
X102510500Y-121372475D01*
X102510500Y-121227525D01*
X102472984Y-121087515D01*
X102472982Y-121087512D01*
X102472982Y-121087510D01*
X102400512Y-120961989D01*
X102400510Y-120961987D01*
X102400509Y-120961985D01*
X102298015Y-120859491D01*
X102298012Y-120859489D01*
X102298010Y-120859487D01*
X102172488Y-120787017D01*
X102172489Y-120787017D01*
X102142896Y-120779087D01*
X102032475Y-120749500D01*
X101887525Y-120749500D01*
X101825790Y-120766041D01*
X101747510Y-120787017D01*
X101621989Y-120859487D01*
X101519487Y-120961989D01*
X101447017Y-121087510D01*
X101409500Y-121227525D01*
X101409500Y-121313810D01*
X101390593Y-121372001D01*
X101380504Y-121383814D01*
X100493814Y-122270504D01*
X100439297Y-122298281D01*
X100423810Y-122299500D01*
X89429032Y-122299500D01*
X89370841Y-122280593D01*
X89359029Y-122270504D01*
X89298015Y-122209491D01*
X89298010Y-122209487D01*
X89172488Y-122137017D01*
X89172489Y-122137017D01*
X89142896Y-122129087D01*
X89032475Y-122099500D01*
X88887525Y-122099500D01*
X88825790Y-122116041D01*
X88747510Y-122137017D01*
X88621989Y-122209487D01*
X88519487Y-122311989D01*
X88447017Y-122437510D01*
X88447016Y-122437515D01*
X88409500Y-122577525D01*
X61878206Y-122577525D01*
X75835720Y-76655134D01*
X75870733Y-76604957D01*
X75928552Y-76584942D01*
X75930442Y-76584924D01*
X107578600Y-76584924D01*
X107631175Y-76600038D01*
G37*
%TD.AperFunction*%
%TA.AperFunction,Conductor*%
G36*
X125504119Y-130240568D02*
G01*
X125511820Y-130247502D01*
X132227564Y-136963246D01*
X132255341Y-137017763D01*
X132256560Y-137033250D01*
X132256560Y-137350500D01*
X132237653Y-137408691D01*
X132188153Y-137444655D01*
X132157560Y-137449500D01*
X131765326Y-137449500D01*
X131765325Y-137449500D01*
X131765315Y-137449501D01*
X131692263Y-137464033D01*
X131692257Y-137464035D01*
X131609400Y-137519397D01*
X131609397Y-137519400D01*
X131554035Y-137602257D01*
X131554033Y-137602263D01*
X131539501Y-137675315D01*
X131539500Y-137675327D01*
X131539500Y-139424681D01*
X131547742Y-139466108D01*
X131540552Y-139526869D01*
X131499020Y-139571800D01*
X131450645Y-139584424D01*
X126209355Y-139584424D01*
X126151164Y-139565517D01*
X126115200Y-139516017D01*
X126112258Y-139466108D01*
X126120499Y-139424681D01*
X126120500Y-139424672D01*
X126120500Y-137675327D01*
X126120498Y-137675315D01*
X126111846Y-137631820D01*
X126105966Y-137602260D01*
X126093932Y-137584250D01*
X126050602Y-137519400D01*
X126050599Y-137519397D01*
X125967742Y-137464035D01*
X125967740Y-137464034D01*
X125967737Y-137464033D01*
X125967736Y-137464033D01*
X125894684Y-137449501D01*
X125894674Y-137449500D01*
X125894673Y-137449500D01*
X125469500Y-137449500D01*
X125411309Y-137430593D01*
X125375345Y-137381093D01*
X125370500Y-137350500D01*
X125370500Y-130433857D01*
X125366836Y-130420182D01*
X125346614Y-130344712D01*
X125346612Y-130344709D01*
X125346189Y-130343129D01*
X125349391Y-130282028D01*
X125387897Y-130234478D01*
X125446997Y-130218642D01*
X125504119Y-130240568D01*
G37*
%TD.AperFunction*%
%TA.AperFunction,Conductor*%
G36*
X174661225Y-132109407D02*
G01*
X174673038Y-132119496D01*
X180360504Y-137806962D01*
X180388281Y-137861479D01*
X180389500Y-137876966D01*
X180389500Y-139274672D01*
X180389501Y-139274684D01*
X180404033Y-139347736D01*
X180404035Y-139347742D01*
X180459280Y-139430423D01*
X180475888Y-139489311D01*
X180454710Y-139546715D01*
X180403836Y-139580707D01*
X180376964Y-139584424D01*
X179461861Y-139584424D01*
X179403670Y-139565517D01*
X179367706Y-139516017D01*
X179367706Y-139454831D01*
X179403670Y-139405331D01*
X179416916Y-139397214D01*
X179476360Y-139366926D01*
X179526788Y-139341232D01*
X179666928Y-139239414D01*
X179789414Y-139116928D01*
X179891232Y-138976788D01*
X179969873Y-138822445D01*
X179969874Y-138822440D01*
X179969876Y-138822438D01*
X180023401Y-138657706D01*
X180023402Y-138657702D01*
X180050500Y-138486614D01*
X180050500Y-138313385D01*
X180023402Y-138142297D01*
X180023401Y-138142293D01*
X179969876Y-137977561D01*
X179969874Y-137977558D01*
X179969873Y-137977557D01*
X179969873Y-137977555D01*
X179891232Y-137823212D01*
X179789414Y-137683072D01*
X179666928Y-137560586D01*
X179526788Y-137458768D01*
X179526787Y-137458767D01*
X179526785Y-137458766D01*
X179372441Y-137380125D01*
X179372438Y-137380123D01*
X179207706Y-137326598D01*
X179207702Y-137326597D01*
X179036614Y-137299500D01*
X179036611Y-137299500D01*
X178863389Y-137299500D01*
X178863386Y-137299500D01*
X178692297Y-137326597D01*
X178692293Y-137326598D01*
X178527561Y-137380123D01*
X178527558Y-137380125D01*
X178373214Y-137458766D01*
X178233073Y-137560585D01*
X178110585Y-137683073D01*
X178008766Y-137823214D01*
X177930125Y-137977558D01*
X177930123Y-137977561D01*
X177876598Y-138142293D01*
X177876597Y-138142297D01*
X177849500Y-138313385D01*
X177849500Y-138486614D01*
X177876597Y-138657702D01*
X177876598Y-138657706D01*
X177930123Y-138822438D01*
X177930125Y-138822441D01*
X178008678Y-138976613D01*
X178008768Y-138976788D01*
X178110586Y-139116928D01*
X178233072Y-139239414D01*
X178373212Y-139341232D01*
X178373214Y-139341233D01*
X178483084Y-139397214D01*
X178526348Y-139440479D01*
X178535920Y-139500911D01*
X178508143Y-139555427D01*
X178453626Y-139583205D01*
X178438139Y-139584424D01*
X176921861Y-139584424D01*
X176863670Y-139565517D01*
X176827706Y-139516017D01*
X176827706Y-139454831D01*
X176863670Y-139405331D01*
X176876916Y-139397214D01*
X176936360Y-139366926D01*
X176986788Y-139341232D01*
X177126928Y-139239414D01*
X177249414Y-139116928D01*
X177351232Y-138976788D01*
X177429873Y-138822445D01*
X177429874Y-138822440D01*
X177429876Y-138822438D01*
X177483401Y-138657706D01*
X177483402Y-138657702D01*
X177510500Y-138486614D01*
X177510500Y-138313385D01*
X177483402Y-138142297D01*
X177483401Y-138142293D01*
X177429876Y-137977561D01*
X177429874Y-137977558D01*
X177429873Y-137977557D01*
X177429873Y-137977555D01*
X177351232Y-137823212D01*
X177249414Y-137683072D01*
X177126928Y-137560586D01*
X176986788Y-137458768D01*
X176986787Y-137458767D01*
X176986785Y-137458766D01*
X176832441Y-137380125D01*
X176832438Y-137380123D01*
X176667706Y-137326598D01*
X176667702Y-137326597D01*
X176496614Y-137299500D01*
X176496611Y-137299500D01*
X176323389Y-137299500D01*
X176323386Y-137299500D01*
X176152297Y-137326597D01*
X176152293Y-137326598D01*
X175987561Y-137380123D01*
X175987558Y-137380125D01*
X175833214Y-137458766D01*
X175693073Y-137560585D01*
X175570585Y-137683073D01*
X175468766Y-137823214D01*
X175390125Y-137977558D01*
X175390123Y-137977561D01*
X175336598Y-138142293D01*
X175336597Y-138142297D01*
X175309500Y-138313385D01*
X175309500Y-138486614D01*
X175336597Y-138657702D01*
X175336598Y-138657706D01*
X175390123Y-138822438D01*
X175390125Y-138822441D01*
X175468678Y-138976613D01*
X175468768Y-138976788D01*
X175570586Y-139116928D01*
X175693072Y-139239414D01*
X175833212Y-139341232D01*
X175833214Y-139341233D01*
X175943084Y-139397214D01*
X175986348Y-139440479D01*
X175995920Y-139500911D01*
X175968143Y-139555427D01*
X175913626Y-139583205D01*
X175898139Y-139584424D01*
X162002590Y-139584424D01*
X161944399Y-139565517D01*
X161932586Y-139555428D01*
X161495177Y-139118019D01*
X161502993Y-139115925D01*
X161617007Y-139050099D01*
X161710099Y-138957007D01*
X161775925Y-138842993D01*
X161778019Y-138835176D01*
X162252330Y-139309487D01*
X162293569Y-139252728D01*
X162375749Y-139091440D01*
X162431683Y-138919289D01*
X162460000Y-138740509D01*
X162460000Y-138559489D01*
X162431683Y-138380710D01*
X162375749Y-138208559D01*
X162293571Y-138047275D01*
X162252330Y-137990511D01*
X161778019Y-138464821D01*
X161775925Y-138457007D01*
X161710099Y-138342993D01*
X161617007Y-138249901D01*
X161502993Y-138184075D01*
X161495174Y-138181980D01*
X161969488Y-137707667D01*
X161912728Y-137666430D01*
X161751440Y-137584250D01*
X161579289Y-137528316D01*
X161400510Y-137500000D01*
X161219490Y-137500000D01*
X161040710Y-137528316D01*
X160868559Y-137584250D01*
X160707267Y-137666432D01*
X160650510Y-137707667D01*
X161124823Y-138181980D01*
X161117007Y-138184075D01*
X161002993Y-138249901D01*
X160909901Y-138342993D01*
X160844075Y-138457007D01*
X160841980Y-138464823D01*
X160367667Y-137990510D01*
X160326432Y-138047267D01*
X160244250Y-138208559D01*
X160188316Y-138380710D01*
X160160000Y-138559489D01*
X160160000Y-138740509D01*
X160188316Y-138919289D01*
X160244250Y-139091440D01*
X160326430Y-139252728D01*
X160367667Y-139309488D01*
X160841980Y-138835174D01*
X160844075Y-138842993D01*
X160909901Y-138957007D01*
X161002993Y-139050099D01*
X161117007Y-139115925D01*
X161124822Y-139118019D01*
X160687414Y-139555428D01*
X160632897Y-139583205D01*
X160617410Y-139584424D01*
X159630925Y-139584424D01*
X159572734Y-139565517D01*
X159536770Y-139516017D01*
X159536770Y-139454831D01*
X159560919Y-139415422D01*
X159609414Y-139366928D01*
X159711232Y-139226788D01*
X159789873Y-139072445D01*
X159789874Y-139072440D01*
X159789876Y-139072438D01*
X159843401Y-138907706D01*
X159843402Y-138907702D01*
X159870500Y-138736614D01*
X159870500Y-138563385D01*
X159843402Y-138392297D01*
X159843401Y-138392293D01*
X159789876Y-138227561D01*
X159789874Y-138227558D01*
X159789873Y-138227557D01*
X159789873Y-138227555D01*
X159711232Y-138073212D01*
X159609414Y-137933072D01*
X159486928Y-137810586D01*
X159346788Y-137708768D01*
X159346787Y-137708767D01*
X159346785Y-137708766D01*
X159192441Y-137630125D01*
X159192438Y-137630123D01*
X159027706Y-137576598D01*
X159027702Y-137576597D01*
X158902762Y-137556809D01*
X158848245Y-137529032D01*
X158820468Y-137474515D01*
X158830039Y-137414083D01*
X158873304Y-137370818D01*
X158892620Y-137363403D01*
X158987485Y-137337984D01*
X158987487Y-137337982D01*
X158987489Y-137337982D01*
X159113010Y-137265512D01*
X159113010Y-137265511D01*
X159113015Y-137265509D01*
X159143522Y-137235002D01*
X159174029Y-137204496D01*
X159228546Y-137176719D01*
X159244032Y-137175500D01*
X171196142Y-137175500D01*
X171196144Y-137175500D01*
X171285288Y-137151614D01*
X171295912Y-137145480D01*
X171365212Y-137105470D01*
X174567595Y-133903087D01*
X174622112Y-133875310D01*
X174637599Y-133874091D01*
X174723883Y-133874091D01*
X174723884Y-133874091D01*
X174863894Y-133836575D01*
X174863896Y-133836573D01*
X174863898Y-133836573D01*
X174989419Y-133764103D01*
X174989419Y-133764102D01*
X174989424Y-133764100D01*
X175091918Y-133661606D01*
X175164393Y-133536076D01*
X175201909Y-133396066D01*
X175201909Y-133251116D01*
X175164393Y-133111106D01*
X175164391Y-133111103D01*
X175164391Y-133111101D01*
X175091921Y-132985580D01*
X175091919Y-132985578D01*
X175091918Y-132985576D01*
X174989424Y-132883082D01*
X174989421Y-132883080D01*
X174989419Y-132883078D01*
X174863897Y-132810608D01*
X174863898Y-132810608D01*
X174834305Y-132802678D01*
X174723884Y-132773091D01*
X174578934Y-132773091D01*
X174517199Y-132789632D01*
X174438919Y-132810608D01*
X174313398Y-132883078D01*
X174210896Y-132985580D01*
X174138426Y-133111101D01*
X174100909Y-133251116D01*
X174100909Y-133337401D01*
X174082002Y-133395592D01*
X174071913Y-133407405D01*
X171033814Y-136445504D01*
X170979297Y-136473281D01*
X170963810Y-136474500D01*
X159244032Y-136474500D01*
X159185841Y-136455593D01*
X159174029Y-136445504D01*
X159113015Y-136384491D01*
X159113010Y-136384487D01*
X158987488Y-136312017D01*
X158987489Y-136312017D01*
X158957896Y-136304087D01*
X158847475Y-136274500D01*
X158702525Y-136274500D01*
X158640790Y-136291041D01*
X158562510Y-136312017D01*
X158436989Y-136384487D01*
X158334487Y-136486989D01*
X158262017Y-136612510D01*
X158262016Y-136612515D01*
X158224500Y-136752525D01*
X158224500Y-136897475D01*
X158249893Y-136992242D01*
X158262017Y-137037489D01*
X158334487Y-137163010D01*
X158334489Y-137163012D01*
X158334491Y-137163015D01*
X158436985Y-137265509D01*
X158436987Y-137265510D01*
X158436989Y-137265512D01*
X158562511Y-137337982D01*
X158562509Y-137337982D01*
X158562513Y-137337983D01*
X158562515Y-137337984D01*
X158653660Y-137362406D01*
X158704972Y-137395729D01*
X158726899Y-137452851D01*
X158711063Y-137511951D01*
X158663514Y-137550456D01*
X158643523Y-137555813D01*
X158512296Y-137576598D01*
X158512293Y-137576598D01*
X158347561Y-137630123D01*
X158347558Y-137630125D01*
X158193214Y-137708766D01*
X158053073Y-137810585D01*
X157930585Y-137933073D01*
X157828766Y-138073214D01*
X157750125Y-138227558D01*
X157750123Y-138227561D01*
X157696598Y-138392293D01*
X157696597Y-138392297D01*
X157669501Y-138563378D01*
X157669500Y-138563384D01*
X157669500Y-138736614D01*
X157696597Y-138907702D01*
X157696598Y-138907706D01*
X157750123Y-139072438D01*
X157750125Y-139072441D01*
X157750126Y-139072444D01*
X157750127Y-139072445D01*
X157828768Y-139226788D01*
X157930586Y-139366928D01*
X157979080Y-139415422D01*
X158006856Y-139469937D01*
X157997285Y-139530369D01*
X157954020Y-139573634D01*
X157909075Y-139584424D01*
X157090925Y-139584424D01*
X157032734Y-139565517D01*
X156996770Y-139516017D01*
X156996770Y-139454831D01*
X157020919Y-139415422D01*
X157069414Y-139366928D01*
X157171232Y-139226788D01*
X157249873Y-139072445D01*
X157249874Y-139072440D01*
X157249876Y-139072438D01*
X157303401Y-138907706D01*
X157303402Y-138907702D01*
X157330500Y-138736614D01*
X157330500Y-138563384D01*
X157330499Y-138563378D01*
X157303402Y-138392297D01*
X157303401Y-138392293D01*
X157249876Y-138227561D01*
X157249874Y-138227558D01*
X157249873Y-138227557D01*
X157249873Y-138227555D01*
X157171232Y-138073212D01*
X157069414Y-137933072D01*
X156946928Y-137810586D01*
X156806788Y-137708768D01*
X156806787Y-137708767D01*
X156806785Y-137708766D01*
X156652441Y-137630125D01*
X156652438Y-137630123D01*
X156487706Y-137576598D01*
X156487702Y-137576597D01*
X156316614Y-137549500D01*
X156316611Y-137549500D01*
X156143389Y-137549500D01*
X156143386Y-137549500D01*
X155972297Y-137576597D01*
X155972293Y-137576598D01*
X155807561Y-137630123D01*
X155807546Y-137630130D01*
X155804229Y-137631820D01*
X155743795Y-137641384D01*
X155689291Y-137613609D01*
X153129496Y-135053814D01*
X153101719Y-134999297D01*
X153100500Y-134983810D01*
X153100500Y-134928857D01*
X153100500Y-134928856D01*
X153076614Y-134839712D01*
X153076612Y-134839709D01*
X153076612Y-134839707D01*
X153063764Y-134817454D01*
X153050500Y-134767954D01*
X153050500Y-134652525D01*
X153012984Y-134512515D01*
X153012982Y-134512512D01*
X153012982Y-134512510D01*
X152940512Y-134386989D01*
X152940510Y-134386987D01*
X152940509Y-134386985D01*
X152838015Y-134284491D01*
X152838012Y-134284489D01*
X152838010Y-134284487D01*
X152712488Y-134212017D01*
X152712489Y-134212017D01*
X152682896Y-134204087D01*
X152572475Y-134174500D01*
X152427525Y-134174500D01*
X152365790Y-134191041D01*
X152287510Y-134212017D01*
X152161989Y-134284487D01*
X152059487Y-134386989D01*
X151987017Y-134512510D01*
X151949500Y-134652525D01*
X151949500Y-134797472D01*
X151949499Y-134797472D01*
X151987017Y-134937489D01*
X152059487Y-135063010D01*
X152059489Y-135063012D01*
X152059491Y-135063015D01*
X152161985Y-135165509D01*
X152161987Y-135165510D01*
X152161989Y-135165512D01*
X152287511Y-135237982D01*
X152287509Y-135237982D01*
X152287513Y-135237983D01*
X152287515Y-135237984D01*
X152362675Y-135258123D01*
X152413987Y-135291446D01*
X152422787Y-135304249D01*
X152423385Y-135305285D01*
X152423386Y-135305288D01*
X152469530Y-135385212D01*
X153468805Y-136384487D01*
X154464814Y-137380496D01*
X154492591Y-137435013D01*
X154483020Y-137495445D01*
X154439755Y-137538710D01*
X154394810Y-137549500D01*
X152815326Y-137549500D01*
X152815325Y-137549500D01*
X152815315Y-137549501D01*
X152742263Y-137564033D01*
X152742257Y-137564035D01*
X152659400Y-137619397D01*
X152659397Y-137619400D01*
X152604035Y-137702257D01*
X152604033Y-137702263D01*
X152589501Y-137775315D01*
X152589500Y-137775327D01*
X152589500Y-138200500D01*
X152570593Y-138258691D01*
X152521093Y-138294655D01*
X152490500Y-138299500D01*
X135406958Y-138299500D01*
X135348767Y-138280593D01*
X135336954Y-138270504D01*
X129325954Y-132259504D01*
X129298177Y-132204987D01*
X129307748Y-132144555D01*
X129351013Y-132101290D01*
X129395958Y-132090500D01*
X174603034Y-132090500D01*
X174661225Y-132109407D01*
G37*
%TD.AperFunction*%
%TD*%
M02*
