%TF.GenerationSoftware,KiCad,Pcbnew,9.0.2*%
%TF.CreationDate,2025-09-07T15:39:00-04:00*%
%TF.ProjectId,SGTC_Center,53475443-5f43-4656-9e74-65722e6b6963,rev?*%
%TF.SameCoordinates,Original*%
%TF.FileFunction,Paste,Top*%
%TF.FilePolarity,Positive*%
%FSLAX46Y46*%
G04 Gerber Fmt 4.6, Leading zero omitted, Abs format (unit mm)*
G04 Created by KiCad (PCBNEW 9.0.2) date 2025-09-07 15:39:00*
%MOMM*%
%LPD*%
G01*
G04 APERTURE LIST*
G04 Aperture macros list*
%AMRoundRect*
0 Rectangle with rounded corners*
0 $1 Rounding radius*
0 $2 $3 $4 $5 $6 $7 $8 $9 X,Y pos of 4 corners*
0 Add a 4 corners polygon primitive as box body*
4,1,4,$2,$3,$4,$5,$6,$7,$8,$9,$2,$3,0*
0 Add four circle primitives for the rounded corners*
1,1,$1+$1,$2,$3*
1,1,$1+$1,$4,$5*
1,1,$1+$1,$6,$7*
1,1,$1+$1,$8,$9*
0 Add four rect primitives between the rounded corners*
20,1,$1+$1,$2,$3,$4,$5,0*
20,1,$1+$1,$4,$5,$6,$7,0*
20,1,$1+$1,$6,$7,$8,$9,0*
20,1,$1+$1,$8,$9,$2,$3,0*%
G04 Aperture macros list end*
%ADD10RoundRect,0.225000X-0.250000X0.225000X-0.250000X-0.225000X0.250000X-0.225000X0.250000X0.225000X0*%
%ADD11RoundRect,0.200000X0.200000X0.275000X-0.200000X0.275000X-0.200000X-0.275000X0.200000X-0.275000X0*%
%ADD12RoundRect,0.225000X-0.225000X-0.250000X0.225000X-0.250000X0.225000X0.250000X-0.225000X0.250000X0*%
%ADD13R,1.409700X0.355600*%
%ADD14RoundRect,0.200000X-0.275000X0.200000X-0.275000X-0.200000X0.275000X-0.200000X0.275000X0.200000X0*%
%ADD15R,0.599999X1.300000*%
%ADD16RoundRect,0.200000X0.275000X-0.200000X0.275000X0.200000X-0.275000X0.200000X-0.275000X-0.200000X0*%
%ADD17RoundRect,0.200000X-0.200000X-0.275000X0.200000X-0.275000X0.200000X0.275000X-0.200000X0.275000X0*%
G04 APERTURE END LIST*
D10*
%TO.C,C1*%
X98310000Y-127525000D03*
X98310000Y-129075000D03*
%TD*%
D11*
%TO.C,R4*%
X85135000Y-129100000D03*
X83485000Y-129100000D03*
%TD*%
D10*
%TO.C,C2*%
X86810000Y-127525000D03*
X86810000Y-129075000D03*
%TD*%
D12*
%TO.C,C4*%
X124835000Y-123100000D03*
X126385000Y-123100000D03*
%TD*%
D13*
%TO.C,U1*%
X111610000Y-122050002D03*
X111610000Y-122700003D03*
X111610000Y-123350001D03*
X111610000Y-124000003D03*
X111610000Y-124650001D03*
X111610000Y-125300000D03*
X111610000Y-125950001D03*
X111610000Y-126600000D03*
X111610000Y-127250001D03*
X111610000Y-127900000D03*
X117515500Y-127900002D03*
X117515500Y-127250004D03*
X117515500Y-126600003D03*
X117515500Y-125950004D03*
X117515500Y-125300003D03*
X117515500Y-124650004D03*
X117515500Y-124000003D03*
X117515500Y-123350004D03*
X117515500Y-122700003D03*
X117515500Y-122050004D03*
%TD*%
D14*
%TO.C,R5*%
X113810000Y-116275000D03*
X113810000Y-117925000D03*
%TD*%
D15*
%TO.C,U2*%
X84909998Y-115500000D03*
X86810000Y-115500000D03*
X85859999Y-113400000D03*
%TD*%
D16*
%TO.C,R6*%
X115410000Y-117925000D03*
X115410000Y-116275000D03*
%TD*%
D17*
%TO.C,R3*%
X83485000Y-127500000D03*
X85135000Y-127500000D03*
%TD*%
D10*
%TO.C,C5*%
X106210000Y-121425000D03*
X106210000Y-122975000D03*
%TD*%
D12*
%TO.C,C3*%
X113835000Y-119700000D03*
X115385000Y-119700000D03*
%TD*%
D17*
%TO.C,R2*%
X94885000Y-127600000D03*
X96535000Y-127600000D03*
%TD*%
D11*
%TO.C,R1*%
X96535000Y-129200000D03*
X94885000Y-129200000D03*
%TD*%
D10*
%TO.C,C6*%
X121310000Y-119725000D03*
X121310000Y-121275000D03*
%TD*%
M02*
