M48
; DRILL file {KiCad 9.0.2} date 2025-09-07T15:38:58-0400
; FORMAT={-:-/ absolute / metric / decimal}
; #@! TF.CreationDate,2025-09-07T15:38:58-04:00
; #@! TF.GenerationSoftware,Kicad,Pcbnew,9.0.2
; #@! TF.FileFunction,Plated,1,2,PTH
FMAT,2
METRIC
; #@! TA.AperFunction,Plated,PTH,ViaDrill
T1C0.300
; #@! TA.AperFunction,Plated,PTH,ComponentDrill
T2C1.000
%
G90
G05
T1
X80.61Y-124.3
X88.96Y-122.65
X89.25Y-128.225
X90.01Y-123.7
X91.86Y-129.15
X92.51Y-123.65
X92.51Y-126.7
X93.425Y-116.6
X95.25Y-116.7
X101.96Y-121.3
X112.168Y-130.168
X112.81Y-122.775
X112.92Y-122.03
X114.61Y-120.9
X114.91Y-123.2
X116.466Y-125.932
X117.552Y-133.775
X117.81Y-129.8
X118.95Y-127.21
X119.178Y-131.133
X119.18Y-124.64
X119.71Y-123.95
X120.86Y-127.21
X124.55Y-127.2
X128.322Y-123.158
X128.424Y-137.077
X135.31Y-126.4
X137.81Y-121.4
X138.01Y-135.9
X138.31Y-133.15
X138.56Y-129.9
X148.25Y-130.475
X152.5Y-134.725
X157.975Y-135.15
X158.775Y-136.825
X174.651Y-133.324
X180.91Y-136.1
T2
X70.94Y-138.475
X73.48Y-138.475
X76.02Y-138.475
X78.56Y-138.475
X86.92Y-138.55
X94.54Y-138.55
X102.16Y-138.55
X109.78Y-138.55
X117.4Y-138.55
X125.02Y-138.55
X132.64Y-138.55
X153.69Y-138.65
X156.23Y-138.65
X158.77Y-138.65
X161.31Y-138.65
X176.41Y-138.4
X178.95Y-138.4
X181.49Y-138.4
M30
