%TF.GenerationSoftware,KiCad,Pcbnew,9.0.2*%
%TF.CreationDate,2025-08-03T15:01:54-04:00*%
%TF.ProjectId,SGTC,53475443-2e6b-4696-9361-645f70636258,rev?*%
%TF.SameCoordinates,Original*%
%TF.FileFunction,Copper,L1,Top*%
%TF.FilePolarity,Positive*%
%FSLAX46Y46*%
G04 Gerber Fmt 4.6, Leading zero omitted, Abs format (unit mm)*
G04 Created by KiCad (PCBNEW 9.0.2) date 2025-08-03 15:01:54*
%MOMM*%
%LPD*%
G01*
G04 APERTURE LIST*
G04 Aperture macros list*
%AMRoundRect*
0 Rectangle with rounded corners*
0 $1 Rounding radius*
0 $2 $3 $4 $5 $6 $7 $8 $9 X,Y pos of 4 corners*
0 Add a 4 corners polygon primitive as box body*
4,1,4,$2,$3,$4,$5,$6,$7,$8,$9,$2,$3,0*
0 Add four circle primitives for the rounded corners*
1,1,$1+$1,$2,$3*
1,1,$1+$1,$4,$5*
1,1,$1+$1,$6,$7*
1,1,$1+$1,$8,$9*
0 Add four rect primitives between the rounded corners*
20,1,$1+$1,$2,$3,$4,$5,0*
20,1,$1+$1,$4,$5,$6,$7,0*
20,1,$1+$1,$6,$7,$8,$9,0*
20,1,$1+$1,$8,$9,$2,$3,0*%
G04 Aperture macros list end*
%TA.AperFunction,EtchedComponent*%
%ADD10C,0.100000*%
%TD*%
%TA.AperFunction,SMDPad,CuDef*%
%ADD11RoundRect,0.075000X-0.424264X0.176777X0.176777X-0.424264X0.424264X-0.176777X-0.176777X0.424264X0*%
%TD*%
%TA.AperFunction,SMDPad,CuDef*%
%ADD12C,0.100000*%
%TD*%
%TA.AperFunction,SMDPad,CuDef*%
%ADD13RoundRect,0.075000X-0.175000X0.425000X-0.175000X-0.425000X0.175000X-0.425000X0.175000X0.425000X0*%
%TD*%
%TA.AperFunction,SMDPad,CuDef*%
%ADD14RoundRect,0.075000X0.175000X-0.425000X0.175000X0.425000X-0.175000X0.425000X-0.175000X-0.425000X0*%
%TD*%
%TA.AperFunction,ComponentPad*%
%ADD15R,1.700000X1.700000*%
%TD*%
%TA.AperFunction,ComponentPad*%
%ADD16C,1.700000*%
%TD*%
%TA.AperFunction,SMDPad,CuDef*%
%ADD17RoundRect,0.075000X0.424264X-0.176777X-0.176777X0.424264X-0.424264X0.176777X0.176777X-0.424264X0*%
%TD*%
%TA.AperFunction,ViaPad*%
%ADD18C,0.600000*%
%TD*%
%TA.AperFunction,Conductor*%
%ADD19C,0.400000*%
%TD*%
%TA.AperFunction,Conductor*%
%ADD20C,0.100000*%
%TD*%
%TA.AperFunction,Conductor*%
%ADD21C,0.200000*%
%TD*%
G04 APERTURE END LIST*
D10*
%TO.C,REF\u002A\u002A*%
X188847314Y-88200000D02*
X188847314Y-87700000D01*
X155773553Y-92113553D02*
X155420000Y-91760000D01*
X131166447Y-93233224D02*
X131520000Y-93586777D01*
X154223553Y-93756776D02*
X153870000Y-93403223D01*
X129616447Y-94876447D02*
X129970000Y-95230000D01*
X96542686Y-98790000D02*
X96542686Y-99290000D01*
X94285104Y-98800000D02*
X94285104Y-99300000D01*
X191104896Y-88190000D02*
X191104896Y-87690000D01*
%TD*%
D11*
%TO.P,U5,1,GND*%
%TO.N,GND*%
X159339250Y-90790823D03*
%TO.P,U5,2,V_READ*%
%TO.N,A2_IN_P*%
X157925036Y-92205037D03*
%TD*%
D12*
%TO.P,REF\u002A\u002A,1*%
%TO.N,A1_IN_P*%
X188847314Y-87700000D03*
%TO.P,REF\u002A\u002A,2*%
%TO.N,GND*%
X188847314Y-88200000D03*
%TD*%
D13*
%TO.P,U3,1,+3.3V*%
%TO.N,+3.3V*%
X194480000Y-86140000D03*
%TO.P,U3,2,V_READ*%
%TO.N,A1_IN_N*%
X192480000Y-86140000D03*
%TD*%
D14*
%TO.P,U3,1,+3.3V*%
%TO.N,+3.3V*%
X90910000Y-100850000D03*
%TO.P,U3,2,V_READ*%
%TO.N,A1_IN_P*%
X92910000Y-100850000D03*
%TD*%
D12*
%TO.P,REF\u002A\u002A,1*%
%TO.N,GND*%
X155420000Y-91760000D03*
%TO.P,REF\u002A\u002A,2*%
%TO.N,A2_IN_P*%
X155773553Y-92113553D03*
%TD*%
D15*
%TO.P,J1,1,Pin_1*%
%TO.N,A1_IN_N*%
X104920000Y-105300000D03*
D16*
%TO.P,J1,2,Pin_2*%
%TO.N,A1_IN_P*%
X107460000Y-105300000D03*
%TO.P,J1,3,Pin_3*%
%TO.N,+3.3V*%
X110000000Y-105300000D03*
%TO.P,J1,4,Pin_4*%
%TO.N,GND*%
X112540000Y-105300000D03*
%TO.P,J1,5,Pin_5*%
%TO.N,A2_IN_N*%
X115080000Y-105300000D03*
%TO.P,J1,6,Pin_6*%
%TO.N,A2_IN_P*%
X117620000Y-105300000D03*
%TD*%
D12*
%TO.P,REF\u002A\u002A,1*%
%TO.N,+3.3V*%
X131520000Y-93586777D03*
%TO.P,REF\u002A\u002A,2*%
%TO.N,A2_IN_P*%
X131166447Y-93233224D03*
%TD*%
%TO.P,REF\u002A\u002A,1*%
%TO.N,+3.3V*%
X153870000Y-93403223D03*
%TO.P,REF\u002A\u002A,2*%
%TO.N,A2_IN_N*%
X154223553Y-93756776D03*
%TD*%
%TO.P,REF\u002A\u002A,1*%
%TO.N,GND*%
X129970000Y-95230000D03*
%TO.P,REF\u002A\u002A,2*%
%TO.N,A2_IN_N*%
X129616447Y-94876447D03*
%TD*%
D13*
%TO.P,U5,1,GND*%
%TO.N,GND*%
X99990000Y-100900000D03*
%TO.P,U5,2,V_READ*%
%TO.N,A1_IN_N*%
X97990000Y-100900000D03*
%TD*%
D12*
%TO.P,REF\u002A\u002A,1*%
%TO.N,A1_IN_N*%
X96542686Y-99290000D03*
%TO.P,REF\u002A\u002A,2*%
%TO.N,GND*%
X96542686Y-98790000D03*
%TD*%
D14*
%TO.P,U5,1,GND*%
%TO.N,GND*%
X185400000Y-86090000D03*
%TO.P,U5,2,V_READ*%
%TO.N,A1_IN_P*%
X187400000Y-86090000D03*
%TD*%
D15*
%TO.P,J1,1,Pin_1*%
%TO.N,A1_IN_N*%
X180470000Y-81690000D03*
D16*
%TO.P,J1,2,Pin_2*%
%TO.N,A1_IN_P*%
X177930000Y-81690000D03*
%TO.P,J1,3,Pin_3*%
%TO.N,+3.3V*%
X175390000Y-81690000D03*
%TO.P,J1,4,Pin_4*%
%TO.N,GND*%
X172850000Y-81690000D03*
%TO.P,J1,5,Pin_5*%
%TO.N,A2_IN_N*%
X170310000Y-81690000D03*
%TO.P,J1,6,Pin_6*%
%TO.N,A2_IN_P*%
X167770000Y-81690000D03*
%TD*%
D17*
%TO.P,U6,1,+3.3V*%
%TO.N,+3.3V*%
X152842893Y-97007107D03*
%TO.P,U6,2,V_READ*%
%TO.N,A2_IN_N*%
X154257107Y-95592893D03*
%TD*%
D12*
%TO.P,REF\u002A\u002A,1*%
%TO.N,A1_IN_P*%
X94285104Y-99300000D03*
%TO.P,REF\u002A\u002A,2*%
%TO.N,+3.3V*%
X94285104Y-98800000D03*
%TD*%
D17*
%TO.P,U5,1,GND*%
%TO.N,GND*%
X126050750Y-96199177D03*
%TO.P,U5,2,V_READ*%
%TO.N,A2_IN_N*%
X127464964Y-94784963D03*
%TD*%
D11*
%TO.P,U6,1,+3.3V*%
%TO.N,+3.3V*%
X132547107Y-89982893D03*
%TO.P,U6,2,V_READ*%
%TO.N,A2_IN_P*%
X131132893Y-91397107D03*
%TD*%
D12*
%TO.P,REF\u002A\u002A,1*%
%TO.N,A1_IN_N*%
X191104896Y-87690000D03*
%TO.P,REF\u002A\u002A,2*%
%TO.N,+3.3V*%
X191104896Y-88190000D03*
%TD*%
D18*
%TO.N,A2_IN_P*%
X130200000Y-90560000D03*
X119660000Y-105310000D03*
%TD*%
D19*
%TO.N,A1_IN_P*%
X106650000Y-106690000D02*
X107460000Y-105880000D01*
X180320000Y-84080000D02*
X177930000Y-81690000D01*
D20*
X188847314Y-87700000D02*
X187400000Y-86252686D01*
D19*
X107460000Y-105880000D02*
X107460000Y-105300000D01*
X185390000Y-84080000D02*
X180320000Y-84080000D01*
D20*
X94285104Y-99300000D02*
X92910000Y-100675104D01*
D19*
X92910000Y-100850000D02*
X98750000Y-106690000D01*
D21*
X92910000Y-100675104D02*
X92910000Y-100850000D01*
D19*
X187400000Y-86090000D02*
X185390000Y-84080000D01*
D21*
X187400000Y-86090000D02*
X187400000Y-86252686D01*
D19*
X98750000Y-106690000D02*
X106650000Y-106690000D01*
D20*
%TO.N,GND*%
X188347060Y-98197836D02*
X188097060Y-98197836D01*
X135072564Y-104221751D02*
X135249340Y-104044974D01*
X97292940Y-98792164D02*
X97542940Y-98792164D01*
X129592486Y-95559693D02*
X129769263Y-95382916D01*
X157565282Y-89662539D02*
X157388504Y-89839317D01*
X133658349Y-105635965D02*
X133835127Y-105459188D01*
X126592384Y-98570000D02*
X133658349Y-105635965D01*
X96542940Y-98807060D02*
X96542940Y-88792164D01*
X187097060Y-98197836D02*
X187097060Y-88197836D01*
X100042940Y-98792164D02*
X100042940Y-88792164D01*
X155620737Y-91607084D02*
X148549669Y-84536016D01*
X127647942Y-97504237D02*
X134719008Y-104575305D01*
X100042940Y-88792164D02*
X100292940Y-88792164D01*
X128001496Y-97150683D02*
X135072564Y-104221751D01*
X184347060Y-88197836D02*
X184347060Y-98197836D01*
X184847060Y-88197836D02*
X184847060Y-98197836D01*
X188347060Y-88197836D02*
X188347060Y-98197836D01*
X158797616Y-88420000D02*
X158797616Y-90249189D01*
X98042940Y-88792164D02*
X98292940Y-88792164D01*
X157918834Y-89308987D02*
X157742058Y-89485763D01*
X136663554Y-102630761D02*
X129592486Y-95559693D01*
X158797616Y-88420000D02*
X151731651Y-81354035D01*
X101292940Y-88792164D02*
X101292940Y-98790000D01*
X158625941Y-88601880D02*
X158449164Y-88778657D01*
X129415709Y-95736470D02*
X136486775Y-102807538D01*
X185847060Y-88197836D02*
X185847060Y-98197836D01*
X156681397Y-90546422D02*
X149610330Y-83475355D01*
X158449164Y-88778657D02*
X151378097Y-81707588D01*
X126592384Y-96740811D02*
X126050750Y-96199177D01*
X155974291Y-91253530D02*
X148903225Y-84182462D01*
X184097060Y-88200000D02*
X185400000Y-86897060D01*
X100292940Y-98792164D02*
X100542940Y-98792164D01*
X126764059Y-98388120D02*
X126940836Y-98211343D01*
X184847060Y-98197836D02*
X184597060Y-98197836D01*
X133835127Y-105459188D02*
X126764059Y-98388120D01*
X101042940Y-98792164D02*
X101042940Y-88792164D01*
X99542940Y-88792164D02*
X99792940Y-88792164D01*
X149256776Y-83828909D02*
X149080000Y-84005685D01*
X97542940Y-88792164D02*
X97792940Y-88792164D01*
X135249340Y-104044974D02*
X128178272Y-96973907D01*
X97542940Y-98792164D02*
X97542940Y-88792164D01*
X97042940Y-98792164D02*
X97042940Y-88792164D01*
X137017107Y-102277207D02*
X129970000Y-95230100D01*
X126592384Y-98570000D02*
X126592384Y-96740811D01*
X129238933Y-95913246D02*
X129415709Y-95736470D01*
X184097060Y-98197836D02*
X184097060Y-88200000D01*
X157211728Y-90016093D02*
X157034952Y-90192869D01*
X185847060Y-98197836D02*
X185597060Y-98197836D01*
X99542940Y-98792164D02*
X99542940Y-88792164D01*
X98792940Y-88792164D02*
X98792940Y-98792164D01*
X98042940Y-98792164D02*
X98042940Y-88792164D01*
X149787106Y-83298579D02*
X156858174Y-90369647D01*
X100792940Y-98792164D02*
X101042940Y-98792164D01*
X149963884Y-83121802D02*
X149787106Y-83298579D01*
X148726446Y-84359239D02*
X155797514Y-91430307D01*
X97042940Y-88792164D02*
X97292940Y-88792164D01*
X158095611Y-89132210D02*
X151024543Y-82061142D01*
X126940836Y-98211343D02*
X134011903Y-105282412D01*
X151554873Y-81530812D02*
X158625941Y-88601880D01*
X97792940Y-98792164D02*
X98042940Y-98792164D01*
X136133224Y-103161091D02*
X136310000Y-102984315D01*
X148903225Y-84182462D02*
X148726446Y-84359239D01*
X134011903Y-105282412D02*
X134188678Y-105105635D01*
X187847060Y-98197836D02*
X187597060Y-98197836D01*
X156327844Y-90899977D02*
X149256776Y-83828909D01*
X96792940Y-88792164D02*
X96792940Y-98792164D01*
X187597060Y-98197836D02*
X187597060Y-88197836D01*
X185097060Y-88197836D02*
X184847060Y-88197836D01*
X151378097Y-81707588D02*
X151201322Y-81884365D01*
X135779670Y-103514645D02*
X135956446Y-103337868D01*
X148549669Y-84536016D02*
X148372893Y-84712793D01*
X150140660Y-82945026D02*
X157211728Y-90016093D01*
X99042940Y-88792164D02*
X99292940Y-88792164D01*
X149610330Y-83475355D02*
X149433554Y-83652132D01*
X155797514Y-91430307D02*
X155620737Y-91607084D01*
X188097060Y-88197836D02*
X187847060Y-88197836D01*
X134719008Y-104575305D02*
X134895786Y-104398529D01*
X148372893Y-84712793D02*
X155420000Y-91759900D01*
X188097060Y-98197836D02*
X188097060Y-88197836D01*
X184597060Y-88197836D02*
X184347060Y-88197836D01*
X156504621Y-90723199D02*
X156327844Y-90899977D01*
X186097060Y-88197836D02*
X185847060Y-88197836D01*
X134365457Y-104928858D02*
X134542234Y-104752081D01*
X128708603Y-96443578D02*
X135779670Y-103514645D01*
X187847060Y-88197836D02*
X187847060Y-98197836D01*
X188597060Y-98197836D02*
X188597060Y-88197836D01*
X97292940Y-88792164D02*
X97292940Y-98792164D01*
X134542234Y-104752081D02*
X127471166Y-97681013D01*
X98792940Y-98792164D02*
X99042940Y-98792164D01*
X187097060Y-88197836D02*
X186847060Y-88197836D01*
X185347060Y-98197836D02*
X185097060Y-98197836D01*
X100792940Y-88792164D02*
X100792940Y-98792164D01*
X150317436Y-82768249D02*
X150140660Y-82945026D01*
X99792940Y-88792164D02*
X99792940Y-98792164D01*
X157034952Y-90192869D02*
X149963884Y-83121802D01*
X149433554Y-83652132D02*
X156504621Y-90723199D01*
X188847060Y-88182940D02*
X188847060Y-98197836D01*
X184347060Y-98197836D02*
X184097060Y-98197836D01*
X136310000Y-102984315D02*
X129238933Y-95913246D01*
X135602894Y-103691421D02*
X128531826Y-96620353D01*
X185597060Y-88197836D02*
X185347060Y-88197836D01*
X151201322Y-81884365D02*
X158272389Y-88955432D01*
X99792940Y-98792164D02*
X100042940Y-98792164D01*
X100542940Y-88792164D02*
X100792940Y-88792164D01*
X156151067Y-91076754D02*
X155974291Y-91253530D01*
X101042940Y-88792164D02*
X101292940Y-88792164D01*
X187597060Y-88197836D02*
X187347060Y-88197836D01*
X98542940Y-98792164D02*
X98542940Y-88792164D01*
X186597060Y-88197836D02*
X186347060Y-88197836D01*
X127824718Y-97327461D02*
X128001496Y-97150683D01*
X100292940Y-88792164D02*
X100292940Y-98792164D01*
X128531826Y-96620353D02*
X128708603Y-96443578D01*
X96792940Y-98792164D02*
X97042940Y-98792164D01*
X186347060Y-88197836D02*
X186347060Y-98197836D01*
X98292940Y-88792164D02*
X98292940Y-98792164D01*
X101292940Y-98790000D02*
X99990000Y-100092940D01*
X129769263Y-95382916D02*
X136840331Y-102453984D01*
X188597060Y-88197836D02*
X188347060Y-88197836D01*
X158797616Y-90249189D02*
X159339250Y-90790823D01*
X150847766Y-82237919D02*
X157918834Y-89308987D01*
X156858174Y-90369647D02*
X156681397Y-90546422D01*
X134188678Y-105105635D02*
X127117611Y-98034568D01*
X135956446Y-103337868D02*
X128885379Y-96266801D01*
X127294389Y-97857790D02*
X134365457Y-104928858D01*
X128885379Y-96266801D02*
X129062156Y-96090023D01*
X136840331Y-102453984D02*
X137017107Y-102277207D01*
X98542940Y-88792164D02*
X98792940Y-88792164D01*
X128355048Y-96797131D02*
X135426116Y-103868198D01*
X149080000Y-84005685D02*
X156151067Y-91076754D01*
X99990000Y-100092940D02*
X99990000Y-100900000D01*
X151024543Y-82061142D02*
X150847766Y-82237919D01*
X96542940Y-88792164D02*
X96792940Y-88792164D01*
X188847060Y-98197836D02*
X188597060Y-98197836D01*
X185597060Y-98197836D02*
X185597060Y-88197836D01*
X186347060Y-98197836D02*
X186097060Y-98197836D01*
X186597060Y-98197836D02*
X186597060Y-88197836D01*
X184597060Y-98197836D02*
X184597060Y-88197836D01*
X158272389Y-88955432D02*
X158095611Y-89132210D01*
X186097060Y-98197836D02*
X186097060Y-88197836D01*
X186847060Y-98197836D02*
X186597060Y-98197836D01*
X185097060Y-98197836D02*
X185097060Y-88197836D01*
X134895786Y-104398529D02*
X127824718Y-97327461D01*
X187347060Y-98197836D02*
X187097060Y-98197836D01*
X135426116Y-103868198D02*
X135602894Y-103691421D01*
X150670992Y-82414695D02*
X150494214Y-82591471D01*
X99292940Y-88792164D02*
X99292940Y-98792164D01*
X157388504Y-89839317D02*
X150317436Y-82768249D01*
X185347060Y-88197836D02*
X185347060Y-98197836D01*
X127117611Y-98034568D02*
X127294389Y-97857790D01*
X99292940Y-98792164D02*
X99542940Y-98792164D01*
X187347060Y-88197836D02*
X187347060Y-98197836D01*
X129062156Y-96090023D02*
X136133224Y-103161091D01*
X185400000Y-86897060D02*
X185400000Y-86090000D01*
X151731651Y-81354035D02*
X151554873Y-81530812D01*
X128178272Y-96973907D02*
X128355048Y-96797131D01*
X157742058Y-89485763D02*
X150670992Y-82414695D01*
X100542940Y-98792164D02*
X100542940Y-88792164D01*
X97792940Y-88792164D02*
X97792940Y-98792164D01*
X99042940Y-98792164D02*
X99042940Y-88792164D01*
X127471166Y-97681013D02*
X127647942Y-97504237D01*
X136486775Y-102807538D02*
X136663554Y-102630761D01*
X98292940Y-98792164D02*
X98542940Y-98792164D01*
X186847060Y-88197836D02*
X186847060Y-98197836D01*
X150494214Y-82591471D02*
X157565282Y-89662539D01*
D19*
%TO.N,A1_IN_N*%
X102390000Y-105300000D02*
X104920000Y-105300000D01*
D20*
X191104896Y-87690000D02*
X192480000Y-86314896D01*
D19*
X192480000Y-86140000D02*
X188030000Y-81690000D01*
D21*
X97990000Y-100900000D02*
X97990000Y-100737314D01*
D19*
X188030000Y-81690000D02*
X180470000Y-81690000D01*
D20*
X96542686Y-99290000D02*
X97990000Y-100737314D01*
D21*
X192480000Y-86314896D02*
X192480000Y-86140000D01*
D19*
X102390000Y-105300000D02*
X97990000Y-100900000D01*
D20*
%TO.N,+3.3V*%
X132951243Y-92200938D02*
X132951243Y-92200937D01*
X191347060Y-98190000D02*
X191347060Y-88197836D01*
D19*
X97756000Y-107696000D02*
X90910000Y-100850000D01*
D20*
X151201321Y-96026500D02*
X144130253Y-88955432D01*
X150500000Y-96740000D02*
X150767107Y-97007107D01*
D19*
X110000000Y-105300000D02*
X127150000Y-88150000D01*
D20*
X132774467Y-92377714D02*
X132951243Y-92200938D01*
D19*
X175390000Y-81690000D02*
X158240000Y-98840000D01*
D20*
X141436525Y-97857790D02*
X134365457Y-90786722D01*
X151554873Y-95672948D02*
X144483805Y-88601880D01*
D19*
X158240000Y-98840000D02*
X154675786Y-98840000D01*
D20*
X90292940Y-98792164D02*
X90292940Y-88792164D01*
X144837361Y-88248326D02*
X145014136Y-88071549D01*
D19*
X110000000Y-105300000D02*
X107604000Y-107696000D01*
D20*
X92542940Y-88792164D02*
X92542940Y-98792164D01*
X91542940Y-88792164D02*
X91542940Y-98792164D01*
X152261980Y-94965841D02*
X145190912Y-87894773D01*
X140729418Y-98564897D02*
X133658350Y-91493829D01*
X143599923Y-89485763D02*
X150670991Y-96556830D01*
X150500000Y-96739395D02*
X143423145Y-89662540D01*
D19*
X154675786Y-98840000D02*
X152842893Y-97007107D01*
D20*
X192597060Y-98197836D02*
X192847060Y-98197836D01*
X145190912Y-87894773D02*
X145367690Y-87717996D01*
X192347060Y-88197836D02*
X192597060Y-88197836D01*
X143423145Y-89662540D02*
X143599923Y-89485763D01*
X151378097Y-95849724D02*
X151554873Y-95672948D01*
X194097060Y-98197836D02*
X194347060Y-98197836D01*
X195097060Y-98197836D02*
X195347060Y-98197836D01*
X138961650Y-100332665D02*
X131890582Y-93261597D01*
X194847060Y-98197836D02*
X194847060Y-88197836D01*
X90042940Y-98792164D02*
X89792940Y-98792164D01*
X91292940Y-88792164D02*
X91042940Y-88792164D01*
X152792310Y-94435511D02*
X152969088Y-94258733D01*
X151908427Y-95319394D02*
X144837361Y-88248326D01*
X134011903Y-91140276D02*
X133835127Y-91317052D01*
X192847060Y-98197836D02*
X192847060Y-88197836D01*
X92792940Y-88792164D02*
X92542940Y-88792164D01*
X134622893Y-89982893D02*
X132547107Y-89982893D01*
X152438757Y-94789062D02*
X152438757Y-94789063D01*
X194847060Y-88197836D02*
X195097060Y-88197836D01*
X93792940Y-98792164D02*
X93792940Y-88792164D01*
X91542940Y-98792164D02*
X91292940Y-98792164D01*
X195847060Y-98197836D02*
X195847060Y-88212940D01*
X133304797Y-91847382D02*
X133128020Y-92024159D01*
X132597690Y-92554489D02*
X132420912Y-92731267D01*
X92792940Y-98792164D02*
X92792940Y-88792164D01*
X193097060Y-88197836D02*
X193097060Y-98197836D01*
X90910000Y-100144120D02*
X89542940Y-98777060D01*
D19*
X107604000Y-107696000D02*
X97756000Y-107696000D01*
D20*
X151024543Y-96203278D02*
X151201321Y-96026500D01*
X191847060Y-98197836D02*
X191847060Y-88197836D01*
X140906195Y-98388120D02*
X140729418Y-98564897D01*
X132244136Y-92908043D02*
X132067360Y-93084819D01*
X90542940Y-98792164D02*
X90292940Y-98792164D01*
X94285104Y-98800000D02*
X94285104Y-88800000D01*
X138779333Y-100503900D02*
X138608098Y-100675135D01*
X145544466Y-87541219D02*
X145721242Y-87364443D01*
X140199088Y-99095227D02*
X140022310Y-99272004D01*
X132420912Y-92731267D02*
X139491980Y-99802334D01*
X151731650Y-95496171D02*
X151908427Y-95319394D01*
X150767107Y-97007107D02*
X152842893Y-97007107D01*
X90542940Y-88792164D02*
X90542940Y-98792164D01*
X150500000Y-96740000D02*
X150500000Y-96739395D01*
X146251572Y-86834113D02*
X146428350Y-86657335D01*
X144483805Y-88601880D02*
X144660582Y-88425103D01*
X90042940Y-88792164D02*
X90042940Y-98792164D01*
X191597060Y-98197836D02*
X191847060Y-98197836D01*
X90292940Y-88792164D02*
X90042940Y-88792164D01*
X194347060Y-88197836D02*
X194597060Y-88197836D01*
X139491980Y-99802334D02*
X139315204Y-99979110D01*
X91792940Y-88792164D02*
X91542940Y-88792164D01*
X133481573Y-91670606D02*
X140552639Y-98741674D01*
X93042940Y-88792164D02*
X93042940Y-98792164D01*
X140022310Y-99272004D02*
X132951243Y-92200937D01*
X91292940Y-98792164D02*
X91292940Y-88792164D01*
X94042940Y-98792164D02*
X93792940Y-98792164D01*
X89542940Y-88792164D02*
X89542940Y-98777060D01*
X150847766Y-96380054D02*
X143776699Y-89308987D01*
X146428350Y-86657335D02*
X153499418Y-93728403D01*
X193347060Y-88197836D02*
X193597060Y-88197836D01*
X94042940Y-88800000D02*
X94042940Y-98792164D01*
X146610667Y-86486100D02*
X146781902Y-86314865D01*
X144130253Y-88955432D02*
X144307029Y-88778657D01*
X193847060Y-98197836D02*
X193847060Y-88197836D01*
X133835127Y-91317052D02*
X140906195Y-98388120D01*
X134365457Y-90786722D02*
X134188679Y-90963500D01*
X91042940Y-88792164D02*
X91042940Y-98792164D01*
X152969088Y-94258733D02*
X145898020Y-87187666D01*
X191597060Y-88197836D02*
X191597060Y-98197836D01*
X141082971Y-98211343D02*
X134011903Y-91140276D01*
X193097060Y-98197836D02*
X193347060Y-98197836D01*
X192347060Y-98197836D02*
X192347060Y-88197836D01*
X139315204Y-99979110D02*
X132244136Y-92908043D01*
X194597060Y-98197836D02*
X194847060Y-98197836D01*
D19*
X130714214Y-88150000D02*
X132547107Y-89982893D01*
D20*
X89792940Y-88792164D02*
X89542940Y-88792164D01*
X90910000Y-100850000D02*
X90910000Y-100144120D01*
X94285104Y-88800000D02*
X94042940Y-88800000D01*
X145898020Y-87187666D02*
X146074796Y-87010890D01*
X141613301Y-97681013D02*
X141436525Y-97857790D01*
X192097060Y-98197836D02*
X192347060Y-98197836D01*
X191104896Y-88190000D02*
X191104896Y-98190000D01*
X133128020Y-92024159D02*
X140199088Y-99095227D01*
X90792940Y-98792164D02*
X90792940Y-88792164D01*
X131890582Y-93261597D02*
X131713806Y-93438373D01*
X191847060Y-88197836D02*
X192097060Y-88197836D01*
X143776699Y-89308987D02*
X143953475Y-89132210D01*
X145721242Y-87364443D02*
X152792310Y-94435511D01*
X191347060Y-88197836D02*
X191597060Y-88197836D01*
X134890000Y-90250000D02*
X134890000Y-90250605D01*
X153322640Y-93905181D02*
X146251572Y-86834113D01*
D19*
X127150000Y-88150000D02*
X130714214Y-88150000D01*
D20*
X153676194Y-93551627D02*
X146610667Y-86486100D01*
X152615533Y-94612286D02*
X152438757Y-94789062D01*
X92292940Y-98792164D02*
X92292940Y-88792164D01*
X140375864Y-98918451D02*
X133304797Y-91847382D01*
X194480000Y-86845880D02*
X195847060Y-88212940D01*
D19*
X175390000Y-81690000D02*
X177131000Y-79949000D01*
D20*
X132774467Y-92377714D02*
X139845534Y-99448781D01*
X150670991Y-96556830D02*
X150847766Y-96380054D01*
X93042940Y-98792164D02*
X92792940Y-98792164D01*
X138608098Y-100675135D02*
X131522963Y-93590000D01*
X93542940Y-88792164D02*
X93542940Y-98792164D01*
X92542940Y-98792164D02*
X92292940Y-98792164D01*
X134188679Y-90963500D02*
X141259747Y-98034568D01*
X195097060Y-88197836D02*
X195097060Y-98197836D01*
X134719009Y-90433170D02*
X134542234Y-90609946D01*
D19*
X188289000Y-79949000D02*
X194480000Y-86140000D01*
D20*
X152085203Y-95142618D02*
X152261980Y-94965841D01*
X195347060Y-88197836D02*
X195597060Y-88197836D01*
X131713806Y-93438373D02*
X138779333Y-100503900D01*
X93542940Y-98792164D02*
X93292940Y-98792164D01*
X153145864Y-94081957D02*
X153322640Y-93905181D01*
X195347060Y-98197836D02*
X195347060Y-88197836D01*
X141790077Y-97504237D02*
X134719009Y-90433170D01*
X92042940Y-88792164D02*
X92042940Y-98792164D01*
X134542234Y-90609946D02*
X141613301Y-97681013D01*
X139845534Y-99448781D02*
X139668758Y-99625557D01*
X91792940Y-98792164D02*
X91792940Y-88792164D01*
X194097060Y-88197836D02*
X194097060Y-98197836D01*
X144307029Y-88778657D02*
X151378097Y-95849724D01*
X92292940Y-88792164D02*
X92042940Y-88792164D01*
X146781902Y-86314865D02*
X153867037Y-93400000D01*
X192847060Y-88197836D02*
X193097060Y-88197836D01*
X193347060Y-98197836D02*
X193347060Y-88197836D01*
X152615533Y-94612286D02*
X145544466Y-87541219D01*
X194480000Y-86140000D02*
X194480000Y-86845880D01*
X91042940Y-98792164D02*
X90792940Y-98792164D01*
X139668758Y-99625557D02*
X132597690Y-92554489D01*
X89792940Y-98792164D02*
X89792940Y-88792164D01*
X192097060Y-88197836D02*
X192097060Y-98197836D01*
D19*
X177131000Y-79949000D02*
X188289000Y-79949000D01*
D20*
X193597060Y-88197836D02*
X193597060Y-98197836D01*
X194347060Y-98197836D02*
X194347060Y-88197836D01*
X191104896Y-98190000D02*
X191347060Y-98190000D01*
X141259747Y-98034568D02*
X141082971Y-98211343D01*
X195597060Y-98197836D02*
X195847060Y-98197836D01*
X93292940Y-98792164D02*
X93292940Y-88792164D01*
X133658350Y-91493829D02*
X133481573Y-91670606D01*
X93292940Y-88792164D02*
X93042940Y-88792164D01*
X144660582Y-88425103D02*
X151731650Y-95496171D01*
X140552639Y-98741674D02*
X140375864Y-98918451D01*
X146074796Y-87010890D02*
X153145864Y-94081957D01*
X90792940Y-88792164D02*
X90542940Y-88792164D01*
X132067360Y-93084819D02*
X139138428Y-100155887D01*
X92042940Y-98792164D02*
X91792940Y-98792164D01*
X193597060Y-98197836D02*
X193847060Y-98197836D01*
X193847060Y-88197836D02*
X194097060Y-88197836D01*
X93792940Y-88792164D02*
X93542940Y-88792164D01*
X145367690Y-87717996D02*
X152438757Y-94789063D01*
X194597060Y-88197836D02*
X194597060Y-98197836D01*
X139138428Y-100155887D02*
X138961650Y-100332665D01*
X134890000Y-90250605D02*
X141966855Y-97327460D01*
X145014136Y-88071549D02*
X152085203Y-95142618D01*
X153499418Y-93728403D02*
X153676194Y-93551627D01*
X195597060Y-88197836D02*
X195597060Y-98197836D01*
X141966855Y-97327460D02*
X141790077Y-97504237D01*
X192597060Y-88197836D02*
X192597060Y-98197836D01*
X143953475Y-89132210D02*
X151024543Y-96203278D01*
X134890000Y-90250000D02*
X134622893Y-89982893D01*
%TO.N,A2_IN_N*%
X153900000Y-94530000D02*
X153900000Y-95235786D01*
D19*
X170310000Y-82892081D02*
X157609188Y-95592893D01*
X157609188Y-95592893D02*
X154257107Y-95592893D01*
D20*
X128440000Y-95160000D02*
X127840001Y-95160000D01*
X128723553Y-94876447D02*
X128440000Y-95160000D01*
D19*
X115080000Y-105300000D02*
X125595037Y-94784963D01*
D20*
X127840001Y-95160000D02*
X127464964Y-94784963D01*
D19*
X125595037Y-94784963D02*
X127464964Y-94784963D01*
X170310000Y-81690000D02*
X170310000Y-82892081D01*
D20*
X129616447Y-94876447D02*
X128723553Y-94876447D01*
X154223553Y-93756776D02*
X154223553Y-94206447D01*
X153900000Y-95235786D02*
X154257107Y-95592893D01*
X154223553Y-94206447D02*
X153900000Y-94530000D01*
D19*
%TO.N,A2_IN_P*%
X158499999Y-92780000D02*
X157925036Y-92205037D01*
D20*
X157549999Y-91830000D02*
X157925036Y-92205037D01*
D19*
X130295786Y-90560000D02*
X131132893Y-91397107D01*
D20*
X156950000Y-91830000D02*
X157549999Y-91830000D01*
X131490000Y-91754214D02*
X131132893Y-91397107D01*
D19*
X167770000Y-84070000D02*
X159060000Y-92780000D01*
X167770000Y-81690000D02*
X167770000Y-84070000D01*
D20*
X131166447Y-93233224D02*
X131166447Y-92783553D01*
X131166447Y-92783553D02*
X131490000Y-92460000D01*
D19*
X130200000Y-90560000D02*
X130295786Y-90560000D01*
D20*
X156666447Y-92113553D02*
X156950000Y-91830000D01*
D19*
X117620000Y-105300000D02*
X119650000Y-105300000D01*
X159060000Y-92780000D02*
X158499999Y-92780000D01*
D20*
X131490000Y-92460000D02*
X131490000Y-91754214D01*
X155773553Y-92113553D02*
X156666447Y-92113553D01*
D19*
X119650000Y-105300000D02*
X119660000Y-105310000D01*
%TD*%
%TA.AperFunction,Conductor*%
%TO.N,GND*%
G36*
X126605724Y-62703735D02*
G01*
X126641688Y-62753235D01*
X126641688Y-62814421D01*
X126627626Y-62842019D01*
X126613908Y-62860898D01*
X126521808Y-63041656D01*
X126459117Y-63234598D01*
X126427383Y-63434961D01*
X126427383Y-63637838D01*
X126459117Y-63838201D01*
X126459119Y-63838206D01*
X126521809Y-64031146D01*
X126569581Y-64124903D01*
X126613909Y-64211902D01*
X126613911Y-64211906D01*
X126733148Y-64376022D01*
X126733150Y-64376024D01*
X126733153Y-64376028D01*
X126876603Y-64519478D01*
X126876606Y-64519480D01*
X126876608Y-64519482D01*
X127040724Y-64638719D01*
X127040728Y-64638721D01*
X127221485Y-64730822D01*
X127414425Y-64793512D01*
X127414426Y-64793512D01*
X127414429Y-64793513D01*
X127614793Y-64825248D01*
X127614796Y-64825248D01*
X127817669Y-64825248D01*
X128018032Y-64793513D01*
X128018033Y-64793512D01*
X128018037Y-64793512D01*
X128210977Y-64730822D01*
X128391734Y-64638721D01*
X128405570Y-64628669D01*
X128555853Y-64519482D01*
X128555859Y-64519478D01*
X128699309Y-64376028D01*
X128818552Y-64211903D01*
X128910653Y-64031146D01*
X128973343Y-63838206D01*
X128979024Y-63802337D01*
X129005079Y-63637838D01*
X129005079Y-63434961D01*
X128973344Y-63234598D01*
X128970077Y-63224542D01*
X128910653Y-63041654D01*
X128818552Y-62860897D01*
X128804835Y-62842017D01*
X128785929Y-62783828D01*
X128804836Y-62725637D01*
X128854337Y-62689673D01*
X128884929Y-62684828D01*
X134167533Y-62684828D01*
X134225724Y-62703735D01*
X134261688Y-62753235D01*
X134261688Y-62814421D01*
X134247626Y-62842019D01*
X134233908Y-62860898D01*
X134141808Y-63041656D01*
X134079117Y-63234598D01*
X134047383Y-63434961D01*
X134047383Y-63637838D01*
X134079117Y-63838201D01*
X134079119Y-63838206D01*
X134141809Y-64031146D01*
X134189581Y-64124903D01*
X134233909Y-64211902D01*
X134233911Y-64211906D01*
X134353148Y-64376022D01*
X134353150Y-64376024D01*
X134353153Y-64376028D01*
X134496603Y-64519478D01*
X134496606Y-64519480D01*
X134496608Y-64519482D01*
X134660724Y-64638719D01*
X134660728Y-64638721D01*
X134841485Y-64730822D01*
X135034425Y-64793512D01*
X135034426Y-64793512D01*
X135034429Y-64793513D01*
X135234793Y-64825248D01*
X135234796Y-64825248D01*
X135437669Y-64825248D01*
X135638032Y-64793513D01*
X135638033Y-64793512D01*
X135638037Y-64793512D01*
X135830977Y-64730822D01*
X136011734Y-64638721D01*
X136025570Y-64628669D01*
X136175853Y-64519482D01*
X136175859Y-64519478D01*
X136319309Y-64376028D01*
X136438552Y-64211903D01*
X136530653Y-64031146D01*
X136593343Y-63838206D01*
X136599024Y-63802337D01*
X136625079Y-63637838D01*
X136625079Y-63434961D01*
X136593344Y-63234598D01*
X136590077Y-63224542D01*
X136530653Y-63041654D01*
X136438552Y-62860897D01*
X136424835Y-62842017D01*
X136405929Y-62783828D01*
X136424836Y-62725637D01*
X136474337Y-62689673D01*
X136504929Y-62684828D01*
X141787533Y-62684828D01*
X141845724Y-62703735D01*
X141881688Y-62753235D01*
X141881688Y-62814421D01*
X141867626Y-62842019D01*
X141853908Y-62860898D01*
X141761808Y-63041656D01*
X141699117Y-63234598D01*
X141667383Y-63434961D01*
X141667383Y-63637838D01*
X141699117Y-63838201D01*
X141699119Y-63838206D01*
X141761809Y-64031146D01*
X141809581Y-64124903D01*
X141853909Y-64211902D01*
X141853911Y-64211906D01*
X141973148Y-64376022D01*
X141973150Y-64376024D01*
X141973153Y-64376028D01*
X142116603Y-64519478D01*
X142116606Y-64519480D01*
X142116608Y-64519482D01*
X142280724Y-64638719D01*
X142280728Y-64638721D01*
X142461485Y-64730822D01*
X142654425Y-64793512D01*
X142654426Y-64793512D01*
X142654429Y-64793513D01*
X142854793Y-64825248D01*
X142854796Y-64825248D01*
X143057669Y-64825248D01*
X143258032Y-64793513D01*
X143258033Y-64793512D01*
X143258037Y-64793512D01*
X143450977Y-64730822D01*
X143631734Y-64638721D01*
X143645570Y-64628669D01*
X143795853Y-64519482D01*
X143795859Y-64519478D01*
X143939309Y-64376028D01*
X144058552Y-64211903D01*
X144150653Y-64031146D01*
X144213343Y-63838206D01*
X144219024Y-63802337D01*
X144245079Y-63637838D01*
X144245079Y-63434961D01*
X144213344Y-63234598D01*
X144210077Y-63224542D01*
X144150653Y-63041654D01*
X144058552Y-62860897D01*
X144044835Y-62842017D01*
X144025929Y-62783828D01*
X144044836Y-62725637D01*
X144094337Y-62689673D01*
X144124929Y-62684828D01*
X149407533Y-62684828D01*
X149465724Y-62703735D01*
X149501688Y-62753235D01*
X149501688Y-62814421D01*
X149487626Y-62842019D01*
X149473908Y-62860898D01*
X149381808Y-63041656D01*
X149319117Y-63234598D01*
X149287383Y-63434961D01*
X149287383Y-63637838D01*
X149319117Y-63838201D01*
X149319119Y-63838206D01*
X149381809Y-64031146D01*
X149429581Y-64124903D01*
X149473909Y-64211902D01*
X149473911Y-64211906D01*
X149593148Y-64376022D01*
X149593150Y-64376024D01*
X149593153Y-64376028D01*
X149736603Y-64519478D01*
X149736606Y-64519480D01*
X149736608Y-64519482D01*
X149900724Y-64638719D01*
X149900728Y-64638721D01*
X150081485Y-64730822D01*
X150274425Y-64793512D01*
X150274426Y-64793512D01*
X150274429Y-64793513D01*
X150474793Y-64825248D01*
X150474796Y-64825248D01*
X150677669Y-64825248D01*
X150878032Y-64793513D01*
X150878033Y-64793512D01*
X150878037Y-64793512D01*
X151070977Y-64730822D01*
X151251734Y-64638721D01*
X151265570Y-64628669D01*
X151415853Y-64519482D01*
X151415859Y-64519478D01*
X151559309Y-64376028D01*
X151678552Y-64211903D01*
X151770653Y-64031146D01*
X151833343Y-63838206D01*
X151839024Y-63802337D01*
X151865079Y-63637838D01*
X151865079Y-63434961D01*
X151833344Y-63234598D01*
X151830077Y-63224542D01*
X151770653Y-63041654D01*
X151678552Y-62860897D01*
X151664835Y-62842017D01*
X151645929Y-62783828D01*
X151664836Y-62725637D01*
X151714337Y-62689673D01*
X151744929Y-62684828D01*
X157027533Y-62684828D01*
X157085724Y-62703735D01*
X157121688Y-62753235D01*
X157121688Y-62814421D01*
X157107626Y-62842019D01*
X157093908Y-62860898D01*
X157001808Y-63041656D01*
X156939117Y-63234598D01*
X156907383Y-63434961D01*
X156907383Y-63637838D01*
X156939117Y-63838201D01*
X156939119Y-63838206D01*
X157001809Y-64031146D01*
X157049581Y-64124903D01*
X157093909Y-64211902D01*
X157093911Y-64211906D01*
X157213148Y-64376022D01*
X157213150Y-64376024D01*
X157213153Y-64376028D01*
X157356603Y-64519478D01*
X157356606Y-64519480D01*
X157356608Y-64519482D01*
X157520724Y-64638719D01*
X157520728Y-64638721D01*
X157701485Y-64730822D01*
X157894425Y-64793512D01*
X157894426Y-64793512D01*
X157894429Y-64793513D01*
X158094793Y-64825248D01*
X158094796Y-64825248D01*
X158297669Y-64825248D01*
X158498032Y-64793513D01*
X158498033Y-64793512D01*
X158498037Y-64793512D01*
X158690977Y-64730822D01*
X158871734Y-64638721D01*
X158885570Y-64628669D01*
X159035853Y-64519482D01*
X159035859Y-64519478D01*
X159179309Y-64376028D01*
X159298552Y-64211903D01*
X159390653Y-64031146D01*
X159453343Y-63838206D01*
X159459024Y-63802337D01*
X159485079Y-63637838D01*
X159485079Y-63434961D01*
X159453344Y-63234598D01*
X159450077Y-63224542D01*
X159390653Y-63041654D01*
X159298552Y-62860897D01*
X159284835Y-62842017D01*
X159265929Y-62783828D01*
X159284836Y-62725637D01*
X159334337Y-62689673D01*
X159364929Y-62684828D01*
X164639030Y-62684828D01*
X164697221Y-62703735D01*
X164733185Y-62753235D01*
X164733185Y-62814421D01*
X164719122Y-62842019D01*
X164712713Y-62850839D01*
X164712709Y-62850845D01*
X164620608Y-63031604D01*
X164557917Y-63224546D01*
X164526183Y-63424909D01*
X164526183Y-63627786D01*
X164557917Y-63828149D01*
X164557919Y-63828154D01*
X164620609Y-64021094D01*
X164625731Y-64031146D01*
X164712709Y-64201850D01*
X164712711Y-64201854D01*
X164831948Y-64365970D01*
X164831950Y-64365972D01*
X164831953Y-64365976D01*
X164975403Y-64509426D01*
X164975406Y-64509428D01*
X164975408Y-64509430D01*
X165139524Y-64628667D01*
X165139528Y-64628669D01*
X165320285Y-64720770D01*
X165513225Y-64783460D01*
X165513226Y-64783460D01*
X165513229Y-64783461D01*
X165713593Y-64815196D01*
X165713596Y-64815196D01*
X165916469Y-64815196D01*
X166116832Y-64783461D01*
X166116833Y-64783460D01*
X166116837Y-64783460D01*
X166309777Y-64720770D01*
X166490534Y-64628669D01*
X166654659Y-64509426D01*
X166798109Y-64365976D01*
X166917352Y-64201851D01*
X167009453Y-64021094D01*
X167072143Y-63828154D01*
X167100906Y-63646555D01*
X167103879Y-63627786D01*
X167103879Y-63424909D01*
X167072144Y-63224546D01*
X167072143Y-63224542D01*
X167009453Y-63031602D01*
X166917352Y-62850845D01*
X166910940Y-62842019D01*
X166892032Y-62783829D01*
X166910939Y-62725638D01*
X166960439Y-62689674D01*
X166991032Y-62684828D01*
X204573840Y-62684828D01*
X204632031Y-62703735D01*
X204667995Y-62753235D01*
X204670192Y-62806573D01*
X196342912Y-98082015D01*
X196311141Y-98134305D01*
X196254702Y-98157935D01*
X196195154Y-98143877D01*
X196155241Y-98097503D01*
X196147560Y-98059270D01*
X196147560Y-88173378D01*
X196137339Y-88135233D01*
X196137339Y-88135232D01*
X196127081Y-88096950D01*
X196127080Y-88096948D01*
X196087523Y-88028433D01*
X196087522Y-88028432D01*
X196087521Y-88028431D01*
X196087520Y-88028429D01*
X194938329Y-86879238D01*
X194910552Y-86824721D01*
X194920123Y-86764289D01*
X194925011Y-86756154D01*
X194925744Y-86754581D01*
X194925747Y-86754579D01*
X194974259Y-86650545D01*
X194980500Y-86603139D01*
X194980499Y-85676862D01*
X194974259Y-85629455D01*
X194974259Y-85629453D01*
X194925748Y-85525423D01*
X194925747Y-85525422D01*
X194925747Y-85525421D01*
X194844579Y-85444253D01*
X194740545Y-85395741D01*
X194693139Y-85389500D01*
X194693138Y-85389500D01*
X194407611Y-85389500D01*
X194349420Y-85370593D01*
X194337607Y-85360504D01*
X191469500Y-82492397D01*
X188565614Y-79588511D01*
X188565611Y-79588509D01*
X188565610Y-79588508D01*
X188565609Y-79588507D01*
X188462890Y-79529202D01*
X188462886Y-79529200D01*
X188438673Y-79522712D01*
X188438673Y-79522713D01*
X188348309Y-79498500D01*
X177071691Y-79498500D01*
X177026508Y-79510606D01*
X176981325Y-79522713D01*
X176981324Y-79522712D01*
X176957115Y-79529200D01*
X176957113Y-79529200D01*
X176957113Y-79529201D01*
X176854391Y-79588507D01*
X176854386Y-79588510D01*
X175825397Y-80617498D01*
X175770880Y-80645275D01*
X175724800Y-80641649D01*
X175647698Y-80616597D01*
X175476614Y-80589500D01*
X175476611Y-80589500D01*
X175303389Y-80589500D01*
X175303386Y-80589500D01*
X175132297Y-80616597D01*
X175132293Y-80616598D01*
X174967561Y-80670123D01*
X174967558Y-80670125D01*
X174813214Y-80748766D01*
X174673073Y-80850585D01*
X174550585Y-80973073D01*
X174448766Y-81113214D01*
X174370125Y-81267558D01*
X174345323Y-81343888D01*
X174309359Y-81393388D01*
X174251167Y-81412294D01*
X174192977Y-81393386D01*
X174157014Y-81343886D01*
X174101096Y-81171786D01*
X174004623Y-80982446D01*
X174004619Y-80982440D01*
X173965270Y-80928282D01*
X173965269Y-80928282D01*
X173332962Y-81560590D01*
X173315925Y-81497007D01*
X173250099Y-81382993D01*
X173157007Y-81289901D01*
X173042993Y-81224075D01*
X172979407Y-81207037D01*
X173611716Y-80574729D01*
X173611716Y-80574728D01*
X173557559Y-80535380D01*
X173557553Y-80535376D01*
X173368215Y-80438904D01*
X173166121Y-80373240D01*
X172956250Y-80340000D01*
X172743750Y-80340000D01*
X172533878Y-80373240D01*
X172331784Y-80438904D01*
X172142446Y-80535376D01*
X172142442Y-80535378D01*
X172088282Y-80574728D01*
X172720591Y-81207037D01*
X172657007Y-81224075D01*
X172542993Y-81289901D01*
X172449901Y-81382993D01*
X172384075Y-81497007D01*
X172367037Y-81560591D01*
X171734728Y-80928282D01*
X171695378Y-80982442D01*
X171695376Y-80982446D01*
X171598904Y-81171784D01*
X171542985Y-81343887D01*
X171507021Y-81393387D01*
X171448830Y-81412294D01*
X171390639Y-81393387D01*
X171354676Y-81343887D01*
X171329876Y-81267561D01*
X171329874Y-81267558D01*
X171329873Y-81267557D01*
X171329873Y-81267555D01*
X171251232Y-81113212D01*
X171149414Y-80973072D01*
X171026928Y-80850586D01*
X170886788Y-80748768D01*
X170886787Y-80748767D01*
X170886785Y-80748766D01*
X170792390Y-80700670D01*
X170792388Y-80700668D01*
X170732447Y-80670127D01*
X170732438Y-80670123D01*
X170567706Y-80616598D01*
X170567702Y-80616597D01*
X170396614Y-80589500D01*
X170396611Y-80589500D01*
X170223389Y-80589500D01*
X170223386Y-80589500D01*
X170052297Y-80616597D01*
X170052293Y-80616598D01*
X169887561Y-80670123D01*
X169887558Y-80670125D01*
X169733214Y-80748766D01*
X169593073Y-80850585D01*
X169470585Y-80973073D01*
X169368766Y-81113214D01*
X169290125Y-81267558D01*
X169290123Y-81267561D01*
X169236598Y-81432293D01*
X169236597Y-81432297D01*
X169209500Y-81603385D01*
X169209500Y-81776614D01*
X169236597Y-81947702D01*
X169236598Y-81947706D01*
X169290123Y-82112438D01*
X169290125Y-82112441D01*
X169325214Y-82181309D01*
X169368768Y-82266788D01*
X169470586Y-82406928D01*
X169593072Y-82529414D01*
X169733212Y-82631232D01*
X169744645Y-82637057D01*
X169787910Y-82680320D01*
X169797482Y-82740752D01*
X169769706Y-82795269D01*
X169769705Y-82795271D01*
X168389504Y-84175473D01*
X168334987Y-84203250D01*
X168274555Y-84193679D01*
X168231290Y-84150414D01*
X168220500Y-84105469D01*
X168220500Y-82756245D01*
X168239407Y-82698054D01*
X168274554Y-82668036D01*
X168346788Y-82631232D01*
X168486928Y-82529414D01*
X168609414Y-82406928D01*
X168711232Y-82266788D01*
X168789873Y-82112445D01*
X168789874Y-82112440D01*
X168789876Y-82112438D01*
X168843401Y-81947706D01*
X168843402Y-81947702D01*
X168870500Y-81776614D01*
X168870500Y-81603385D01*
X168843402Y-81432297D01*
X168843401Y-81432293D01*
X168789876Y-81267561D01*
X168789874Y-81267558D01*
X168789873Y-81267557D01*
X168789873Y-81267555D01*
X168711232Y-81113212D01*
X168609414Y-80973072D01*
X168486928Y-80850586D01*
X168346788Y-80748768D01*
X168346787Y-80748767D01*
X168346785Y-80748766D01*
X168192441Y-80670125D01*
X168192438Y-80670123D01*
X168027706Y-80616598D01*
X168027702Y-80616597D01*
X167856614Y-80589500D01*
X167856611Y-80589500D01*
X167683389Y-80589500D01*
X167683386Y-80589500D01*
X167512297Y-80616597D01*
X167512293Y-80616598D01*
X167347561Y-80670123D01*
X167347558Y-80670125D01*
X167193214Y-80748766D01*
X167053073Y-80850585D01*
X166930585Y-80973073D01*
X166828766Y-81113214D01*
X166750125Y-81267558D01*
X166750123Y-81267561D01*
X166696598Y-81432293D01*
X166696597Y-81432297D01*
X166669500Y-81603385D01*
X166669500Y-81776614D01*
X166696597Y-81947702D01*
X166696598Y-81947706D01*
X166750123Y-82112438D01*
X166750125Y-82112441D01*
X166785214Y-82181309D01*
X166828768Y-82266788D01*
X166930586Y-82406928D01*
X167053072Y-82529414D01*
X167193212Y-82631232D01*
X167265445Y-82668036D01*
X167308709Y-82711299D01*
X167319500Y-82756245D01*
X167319500Y-83842388D01*
X167300593Y-83900579D01*
X167290504Y-83912392D01*
X160446549Y-90756346D01*
X160392032Y-90784123D01*
X160331600Y-90774552D01*
X160288335Y-90731287D01*
X160285080Y-90724226D01*
X160265775Y-90677618D01*
X160265775Y-90677617D01*
X160196756Y-90587670D01*
X159589249Y-89980163D01*
X159589249Y-90691823D01*
X159570342Y-90750014D01*
X159520842Y-90785978D01*
X159490249Y-90790823D01*
X159339251Y-90790823D01*
X159339250Y-90790824D01*
X159339250Y-90941822D01*
X159320343Y-91000013D01*
X159270843Y-91035977D01*
X159240250Y-91040822D01*
X158528590Y-91040822D01*
X159136097Y-91648329D01*
X159226045Y-91717348D01*
X159272653Y-91736653D01*
X159319180Y-91776389D01*
X159333464Y-91835884D01*
X159310050Y-91892412D01*
X159304773Y-91898121D01*
X158902393Y-92300503D01*
X158895276Y-92304129D01*
X158890580Y-92310593D01*
X158868529Y-92317757D01*
X158847876Y-92328281D01*
X158832389Y-92329500D01*
X158745970Y-92329500D01*
X158687779Y-92310593D01*
X158652941Y-92264360D01*
X158635540Y-92216554D01*
X158635540Y-92216553D01*
X158606432Y-92178619D01*
X157951454Y-91523643D01*
X157913520Y-91494533D01*
X157805654Y-91455273D01*
X157690865Y-91455273D01*
X157582999Y-91494533D01*
X157582994Y-91494536D01*
X157564090Y-91509042D01*
X157506414Y-91529466D01*
X157503823Y-91529500D01*
X156910438Y-91529500D01*
X156853794Y-91544677D01*
X156792694Y-91541476D01*
X156745144Y-91502971D01*
X156729308Y-91443870D01*
X156751234Y-91386749D01*
X156758438Y-91378779D01*
X157099006Y-91040822D01*
X157602868Y-90540823D01*
X158344663Y-90540823D01*
X158344664Y-90540824D01*
X159089250Y-90540824D01*
X159089251Y-90540823D01*
X159089251Y-89796237D01*
X159089250Y-89796236D01*
X159012371Y-89806358D01*
X159012363Y-89806360D01*
X158872495Y-89864295D01*
X158872491Y-89864297D01*
X158782541Y-89933319D01*
X158481746Y-90234114D01*
X158412724Y-90324064D01*
X158412722Y-90324068D01*
X158354787Y-90463936D01*
X158354785Y-90463944D01*
X158344663Y-90540823D01*
X157602868Y-90540823D01*
X159730000Y-88430000D01*
X150630000Y-79150000D01*
X150629999Y-79149999D01*
X141299999Y-88639999D01*
X141300000Y-88639999D01*
X141300000Y-88640000D01*
X150600000Y-97490000D01*
X150754852Y-97336334D01*
X150809475Y-97308767D01*
X150824586Y-97307607D01*
X152394573Y-97307607D01*
X152452764Y-97326514D01*
X152464576Y-97336603D01*
X152816475Y-97688501D01*
X152854409Y-97717611D01*
X152931082Y-97745517D01*
X152967226Y-97768543D01*
X154399172Y-99200489D01*
X154399174Y-99200490D01*
X154399175Y-99200491D01*
X154399176Y-99200492D01*
X154473182Y-99243219D01*
X154501899Y-99259799D01*
X154518581Y-99264268D01*
X154518585Y-99264271D01*
X154518586Y-99264270D01*
X154616477Y-99290500D01*
X154616478Y-99290500D01*
X158299308Y-99290500D01*
X158299309Y-99290500D01*
X158397200Y-99264270D01*
X158413887Y-99259799D01*
X158516614Y-99200489D01*
X171230655Y-86486447D01*
X184650000Y-86486447D01*
X185046447Y-86090000D01*
X184650000Y-85693553D01*
X184650000Y-86486447D01*
X171230655Y-86486447D01*
X174954603Y-82762499D01*
X175009118Y-82734724D01*
X175055196Y-82738349D01*
X175132299Y-82763402D01*
X175132300Y-82763402D01*
X175132303Y-82763403D01*
X175303386Y-82790500D01*
X175303389Y-82790500D01*
X175476614Y-82790500D01*
X175647702Y-82763402D01*
X175647706Y-82763401D01*
X175812438Y-82709876D01*
X175812440Y-82709874D01*
X175812445Y-82709873D01*
X175966788Y-82631232D01*
X176106928Y-82529414D01*
X176229414Y-82406928D01*
X176331232Y-82266788D01*
X176409873Y-82112445D01*
X176409874Y-82112440D01*
X176409876Y-82112438D01*
X176463401Y-81947706D01*
X176463402Y-81947702D01*
X176490500Y-81776614D01*
X176490500Y-81603385D01*
X176463403Y-81432303D01*
X176463400Y-81432293D01*
X176438348Y-81355195D01*
X176438348Y-81294014D01*
X176462498Y-81254603D01*
X177288608Y-80428496D01*
X177343124Y-80400719D01*
X177358611Y-80399500D01*
X177785085Y-80399500D01*
X177843276Y-80418407D01*
X177879240Y-80467907D01*
X177879240Y-80529093D01*
X177843276Y-80578593D01*
X177800572Y-80596281D01*
X177672297Y-80616597D01*
X177672293Y-80616598D01*
X177507561Y-80670123D01*
X177507558Y-80670125D01*
X177353214Y-80748766D01*
X177213073Y-80850585D01*
X177090585Y-80973073D01*
X176988766Y-81113214D01*
X176910125Y-81267558D01*
X176910123Y-81267561D01*
X176856598Y-81432293D01*
X176856597Y-81432297D01*
X176829500Y-81603385D01*
X176829500Y-81776614D01*
X176856597Y-81947702D01*
X176856598Y-81947706D01*
X176910123Y-82112438D01*
X176910125Y-82112441D01*
X176945214Y-82181309D01*
X176988768Y-82266788D01*
X177090586Y-82406928D01*
X177213072Y-82529414D01*
X177353212Y-82631232D01*
X177507555Y-82709873D01*
X177507557Y-82709873D01*
X177507558Y-82709874D01*
X177507561Y-82709876D01*
X177672293Y-82763401D01*
X177672297Y-82763402D01*
X177843386Y-82790500D01*
X177843389Y-82790500D01*
X178016614Y-82790500D01*
X178187696Y-82763403D01*
X178187697Y-82763402D01*
X178187701Y-82763402D01*
X178264800Y-82738349D01*
X178325984Y-82738349D01*
X178365397Y-82762500D01*
X180043386Y-84440489D01*
X180102696Y-84474731D01*
X180146114Y-84499799D01*
X180260691Y-84530500D01*
X185162389Y-84530500D01*
X185220580Y-84549407D01*
X185232393Y-84559496D01*
X185593893Y-84920996D01*
X185621670Y-84975513D01*
X185612099Y-85035945D01*
X185568834Y-85079210D01*
X185523889Y-85090000D01*
X185187309Y-85090000D01*
X185074898Y-85104799D01*
X185074890Y-85104801D01*
X184935022Y-85162736D01*
X184873497Y-85209944D01*
X185576776Y-85913224D01*
X186150000Y-86486447D01*
X186150000Y-85716111D01*
X186168907Y-85657920D01*
X186218407Y-85621956D01*
X186279593Y-85621956D01*
X186319004Y-85646107D01*
X186870504Y-86197607D01*
X186898281Y-86252124D01*
X186899500Y-86267611D01*
X186899500Y-86553133D01*
X186899501Y-86553145D01*
X186905740Y-86600544D01*
X186905740Y-86600546D01*
X186954251Y-86704576D01*
X186954252Y-86704577D01*
X186954253Y-86704579D01*
X187035421Y-86785747D01*
X187125387Y-86827699D01*
X187170133Y-86869426D01*
X187181808Y-86929487D01*
X187155950Y-86984940D01*
X187102436Y-87014603D01*
X187082615Y-87016418D01*
X186002791Y-87006263D01*
X185944781Y-86986809D01*
X185933718Y-86977271D01*
X185399999Y-86443552D01*
X184877527Y-86966022D01*
X184823011Y-86993799D01*
X184806593Y-86995014D01*
X183231370Y-86980200D01*
X183210000Y-86980000D01*
X183209999Y-86980000D01*
X183190000Y-98869999D01*
X183190000Y-98870000D01*
X189630000Y-98810000D01*
X189627758Y-98150438D01*
X189590000Y-87040000D01*
X188643463Y-87031097D01*
X188585452Y-87011643D01*
X188574390Y-87002105D01*
X187929495Y-86357210D01*
X187901718Y-86302693D01*
X187900499Y-86287206D01*
X187900499Y-85626865D01*
X187900498Y-85626854D01*
X187894259Y-85579455D01*
X187894259Y-85579453D01*
X187845748Y-85475423D01*
X187845747Y-85475422D01*
X187845747Y-85475421D01*
X187764579Y-85394253D01*
X187660545Y-85345741D01*
X187613139Y-85339500D01*
X187613138Y-85339500D01*
X187327611Y-85339500D01*
X187269420Y-85320593D01*
X187257607Y-85310504D01*
X186477603Y-84530500D01*
X185666614Y-83719511D01*
X185666611Y-83719509D01*
X185666610Y-83719508D01*
X185666609Y-83719507D01*
X185563890Y-83660202D01*
X185563886Y-83660200D01*
X185539673Y-83653712D01*
X185539673Y-83653713D01*
X185449309Y-83629500D01*
X185449307Y-83629500D01*
X180547611Y-83629500D01*
X180489420Y-83610593D01*
X180477607Y-83600504D01*
X179836607Y-82959504D01*
X179808830Y-82904987D01*
X179818401Y-82844555D01*
X179861666Y-82801290D01*
X179906611Y-82790500D01*
X181344673Y-82790500D01*
X181344674Y-82790500D01*
X181417740Y-82775966D01*
X181500601Y-82720601D01*
X181555966Y-82637740D01*
X181570500Y-82564674D01*
X181570500Y-82239500D01*
X181589407Y-82181309D01*
X181638907Y-82145345D01*
X181669500Y-82140500D01*
X187802389Y-82140500D01*
X187860580Y-82159407D01*
X187872393Y-82169496D01*
X191950504Y-86247607D01*
X191954130Y-86254724D01*
X191960593Y-86259420D01*
X191967756Y-86281468D01*
X191978281Y-86302124D01*
X191979500Y-86317611D01*
X191979500Y-86349416D01*
X191960593Y-86407607D01*
X191950504Y-86419420D01*
X190920385Y-87449540D01*
X190920384Y-87449539D01*
X190864435Y-87505489D01*
X190824876Y-87574007D01*
X190824874Y-87574011D01*
X190804396Y-87650435D01*
X190804396Y-98229564D01*
X190824874Y-98305988D01*
X190824876Y-98305992D01*
X190862174Y-98370593D01*
X190864436Y-98374511D01*
X190920385Y-98430460D01*
X190943225Y-98443647D01*
X190988903Y-98470019D01*
X190988907Y-98470021D01*
X191065331Y-98490499D01*
X191065333Y-98490500D01*
X191065334Y-98490500D01*
X191386622Y-98490500D01*
X191431816Y-98478390D01*
X191483060Y-98478390D01*
X191557498Y-98498336D01*
X191886620Y-98498336D01*
X191886622Y-98498336D01*
X191946438Y-98482308D01*
X191997682Y-98482308D01*
X192057498Y-98498336D01*
X192057500Y-98498336D01*
X192386620Y-98498336D01*
X192386622Y-98498336D01*
X192446438Y-98482308D01*
X192497682Y-98482308D01*
X192557498Y-98498336D01*
X192557500Y-98498336D01*
X192886620Y-98498336D01*
X192886622Y-98498336D01*
X192946438Y-98482308D01*
X192997682Y-98482308D01*
X193057498Y-98498336D01*
X193057500Y-98498336D01*
X193386620Y-98498336D01*
X193386622Y-98498336D01*
X193446438Y-98482308D01*
X193497682Y-98482308D01*
X193557498Y-98498336D01*
X193557500Y-98498336D01*
X193886620Y-98498336D01*
X193886622Y-98498336D01*
X193946438Y-98482308D01*
X193997682Y-98482308D01*
X194057498Y-98498336D01*
X194057500Y-98498336D01*
X194386620Y-98498336D01*
X194386622Y-98498336D01*
X194446438Y-98482308D01*
X194497682Y-98482308D01*
X194557498Y-98498336D01*
X194557500Y-98498336D01*
X194886620Y-98498336D01*
X194886622Y-98498336D01*
X194946438Y-98482308D01*
X194997682Y-98482308D01*
X195057498Y-98498336D01*
X195057500Y-98498336D01*
X195386620Y-98498336D01*
X195386622Y-98498336D01*
X195446438Y-98482308D01*
X195497682Y-98482308D01*
X195557498Y-98498336D01*
X195557500Y-98498336D01*
X195886623Y-98498336D01*
X195886623Y-98498335D01*
X195963049Y-98477857D01*
X196031571Y-98438296D01*
X196082605Y-98387261D01*
X196137119Y-98359485D01*
X196197551Y-98369056D01*
X196240816Y-98412320D01*
X196250388Y-98472752D01*
X196248959Y-98480011D01*
X190171895Y-124223245D01*
X190140124Y-124275535D01*
X190083685Y-124299165D01*
X190075543Y-124299500D01*
X189084907Y-124299500D01*
X95179304Y-62908217D01*
X95214023Y-62761090D01*
X95245790Y-62708798D01*
X95302227Y-62685164D01*
X95310377Y-62684828D01*
X126547533Y-62684828D01*
X126605724Y-62703735D01*
G37*
%TD.AperFunction*%
%TA.AperFunction,Conductor*%
G36*
X172384075Y-81882993D02*
G01*
X172449901Y-81997007D01*
X172542993Y-82090099D01*
X172657007Y-82155925D01*
X172720590Y-82172962D01*
X172088282Y-82805269D01*
X172088282Y-82805270D01*
X172142440Y-82844619D01*
X172142446Y-82844623D01*
X172331784Y-82941095D01*
X172533878Y-83006759D01*
X172743750Y-83040000D01*
X172956250Y-83040000D01*
X173166124Y-83006758D01*
X173173902Y-83004231D01*
X173235088Y-83004226D01*
X173284590Y-83040186D01*
X173303502Y-83098376D01*
X173284599Y-83156568D01*
X173274506Y-83168387D01*
X158082393Y-98360504D01*
X158027876Y-98388281D01*
X158012389Y-98389500D01*
X154903397Y-98389500D01*
X154845206Y-98370593D01*
X154833393Y-98360504D01*
X153604329Y-97131440D01*
X153581303Y-97095296D01*
X153553397Y-97018623D01*
X153524289Y-96980689D01*
X152869311Y-96325713D01*
X152831377Y-96296603D01*
X152723511Y-96257343D01*
X152608722Y-96257343D01*
X152500856Y-96296603D01*
X152500851Y-96296605D01*
X152462922Y-96325710D01*
X152462918Y-96325713D01*
X152161499Y-96627134D01*
X152130236Y-96667876D01*
X152079810Y-96702531D01*
X152051695Y-96706607D01*
X151629760Y-96706607D01*
X151571569Y-96687700D01*
X151535605Y-96638200D01*
X151535605Y-96577014D01*
X151560026Y-96537335D01*
X152485142Y-95619311D01*
X153430766Y-94680936D01*
X153485389Y-94653369D01*
X153545784Y-94663173D01*
X153588882Y-94706604D01*
X153599500Y-94751209D01*
X153599500Y-95148536D01*
X153580593Y-95206727D01*
X153577407Y-95210713D01*
X153546603Y-95250855D01*
X153546603Y-95250856D01*
X153507343Y-95358722D01*
X153507343Y-95473511D01*
X153546603Y-95581377D01*
X153575711Y-95619311D01*
X154230689Y-96274287D01*
X154268623Y-96303397D01*
X154376489Y-96342657D01*
X154376490Y-96342657D01*
X154491277Y-96342657D01*
X154491278Y-96342657D01*
X154599144Y-96303397D01*
X154637079Y-96274289D01*
X154838976Y-96072389D01*
X154893493Y-96044612D01*
X154908980Y-96043393D01*
X157668495Y-96043393D01*
X157668497Y-96043393D01*
X157760402Y-96018767D01*
X157783075Y-96012692D01*
X157885802Y-95953382D01*
X170670490Y-83168695D01*
X170729799Y-83065967D01*
X170760500Y-82951390D01*
X170760500Y-82756245D01*
X170779407Y-82698054D01*
X170814554Y-82668036D01*
X170886788Y-82631232D01*
X171026928Y-82529414D01*
X171149414Y-82406928D01*
X171251232Y-82266788D01*
X171329873Y-82112445D01*
X171354675Y-82036111D01*
X171390639Y-81986612D01*
X171448830Y-81967705D01*
X171507021Y-81986612D01*
X171542985Y-82036112D01*
X171598904Y-82208215D01*
X171695376Y-82397553D01*
X171695380Y-82397559D01*
X171734728Y-82451716D01*
X171734729Y-82451716D01*
X172367037Y-81819407D01*
X172384075Y-81882993D01*
G37*
%TD.AperFunction*%
%TD*%
%TA.AperFunction,Conductor*%
%TO.N,GND*%
G36*
X190206011Y-124078719D02*
G01*
X190171895Y-124223245D01*
X190140124Y-124275535D01*
X190083686Y-124299165D01*
X190075543Y-124299500D01*
X158858306Y-124299500D01*
X158800115Y-124280593D01*
X158764151Y-124231093D01*
X158764151Y-124169907D01*
X158778214Y-124142308D01*
X158784321Y-124133903D01*
X158876422Y-123953146D01*
X158939112Y-123760206D01*
X158967875Y-123578607D01*
X158970848Y-123559838D01*
X158970848Y-123356961D01*
X158939113Y-123156598D01*
X158939112Y-123156594D01*
X158876422Y-122963654D01*
X158784321Y-122782897D01*
X158784319Y-122782893D01*
X158665082Y-122618777D01*
X158665080Y-122618775D01*
X158665078Y-122618772D01*
X158521628Y-122475322D01*
X158521624Y-122475319D01*
X158521622Y-122475317D01*
X158357506Y-122356080D01*
X158357502Y-122356078D01*
X158270503Y-122311750D01*
X158176746Y-122263978D01*
X158176743Y-122263977D01*
X157983801Y-122201286D01*
X157783438Y-122169552D01*
X157783435Y-122169552D01*
X157580565Y-122169552D01*
X157580562Y-122169552D01*
X157380198Y-122201286D01*
X157187256Y-122263977D01*
X157006497Y-122356078D01*
X157006493Y-122356080D01*
X156842377Y-122475317D01*
X156698917Y-122618777D01*
X156579680Y-122782893D01*
X156579678Y-122782897D01*
X156487577Y-122963656D01*
X156424886Y-123156598D01*
X156393152Y-123356961D01*
X156393152Y-123559838D01*
X156424886Y-123760201D01*
X156424888Y-123760206D01*
X156487578Y-123953146D01*
X156492700Y-123963198D01*
X156579678Y-124133901D01*
X156585786Y-124142308D01*
X156604694Y-124200499D01*
X156585788Y-124258690D01*
X156536288Y-124294654D01*
X156505694Y-124299500D01*
X151246809Y-124299500D01*
X151188618Y-124280593D01*
X151152654Y-124231093D01*
X151152654Y-124169907D01*
X151164024Y-124147596D01*
X151163490Y-124147269D01*
X151165517Y-124143960D01*
X151165521Y-124143955D01*
X151257622Y-123963198D01*
X151320312Y-123770258D01*
X151325993Y-123734389D01*
X151352048Y-123569890D01*
X151352048Y-123367013D01*
X151320313Y-123166650D01*
X151317046Y-123156594D01*
X151257622Y-122973706D01*
X151165521Y-122792949D01*
X151165519Y-122792945D01*
X151046282Y-122628829D01*
X151046280Y-122628827D01*
X151046278Y-122628824D01*
X150902828Y-122485374D01*
X150902824Y-122485371D01*
X150902822Y-122485369D01*
X150738706Y-122366132D01*
X150738702Y-122366130D01*
X150651703Y-122321802D01*
X150557946Y-122274030D01*
X150527006Y-122263977D01*
X150365001Y-122211338D01*
X150164638Y-122179604D01*
X150164635Y-122179604D01*
X149961765Y-122179604D01*
X149961762Y-122179604D01*
X149761398Y-122211338D01*
X149568456Y-122274029D01*
X149387697Y-122366130D01*
X149387693Y-122366132D01*
X149223577Y-122485369D01*
X149080117Y-122628829D01*
X148960880Y-122792945D01*
X148960878Y-122792949D01*
X148868777Y-122973708D01*
X148806086Y-123166650D01*
X148774352Y-123367013D01*
X148774352Y-123569890D01*
X148806086Y-123770253D01*
X148806088Y-123770258D01*
X148868778Y-123963198D01*
X148916550Y-124056955D01*
X148960878Y-124143954D01*
X148962910Y-124147269D01*
X148961559Y-124148096D01*
X148978591Y-124200480D01*
X148959695Y-124258675D01*
X148910203Y-124294648D01*
X148879591Y-124299500D01*
X143626809Y-124299500D01*
X143568618Y-124280593D01*
X143532654Y-124231093D01*
X143532654Y-124169907D01*
X143544024Y-124147596D01*
X143543490Y-124147269D01*
X143545517Y-124143960D01*
X143545521Y-124143955D01*
X143637622Y-123963198D01*
X143700312Y-123770258D01*
X143705993Y-123734389D01*
X143732048Y-123569890D01*
X143732048Y-123367013D01*
X143700313Y-123166650D01*
X143697046Y-123156594D01*
X143637622Y-122973706D01*
X143545521Y-122792949D01*
X143545519Y-122792945D01*
X143426282Y-122628829D01*
X143426280Y-122628827D01*
X143426278Y-122628824D01*
X143282828Y-122485374D01*
X143282824Y-122485371D01*
X143282822Y-122485369D01*
X143118706Y-122366132D01*
X143118702Y-122366130D01*
X143031703Y-122321802D01*
X142937946Y-122274030D01*
X142907006Y-122263977D01*
X142745001Y-122211338D01*
X142544638Y-122179604D01*
X142544635Y-122179604D01*
X142341765Y-122179604D01*
X142341762Y-122179604D01*
X142141398Y-122211338D01*
X141948456Y-122274029D01*
X141767697Y-122366130D01*
X141767693Y-122366132D01*
X141603577Y-122485369D01*
X141460117Y-122628829D01*
X141340880Y-122792945D01*
X141340878Y-122792949D01*
X141248777Y-122973708D01*
X141186086Y-123166650D01*
X141154352Y-123367013D01*
X141154352Y-123569890D01*
X141186086Y-123770253D01*
X141186088Y-123770258D01*
X141248778Y-123963198D01*
X141296550Y-124056955D01*
X141340878Y-124143954D01*
X141342910Y-124147269D01*
X141341559Y-124148096D01*
X141358591Y-124200480D01*
X141339695Y-124258675D01*
X141290203Y-124294648D01*
X141259591Y-124299500D01*
X136006809Y-124299500D01*
X135948618Y-124280593D01*
X135912654Y-124231093D01*
X135912654Y-124169907D01*
X135924024Y-124147596D01*
X135923490Y-124147269D01*
X135925517Y-124143960D01*
X135925521Y-124143955D01*
X136017622Y-123963198D01*
X136080312Y-123770258D01*
X136085993Y-123734389D01*
X136112048Y-123569890D01*
X136112048Y-123367013D01*
X136080313Y-123166650D01*
X136077046Y-123156594D01*
X136017622Y-122973706D01*
X135925521Y-122792949D01*
X135925519Y-122792945D01*
X135806282Y-122628829D01*
X135806280Y-122628827D01*
X135806278Y-122628824D01*
X135662828Y-122485374D01*
X135662824Y-122485371D01*
X135662822Y-122485369D01*
X135498706Y-122366132D01*
X135498702Y-122366130D01*
X135411703Y-122321802D01*
X135317946Y-122274030D01*
X135287006Y-122263977D01*
X135125001Y-122211338D01*
X134924638Y-122179604D01*
X134924635Y-122179604D01*
X134721765Y-122179604D01*
X134721762Y-122179604D01*
X134521398Y-122211338D01*
X134328456Y-122274029D01*
X134147697Y-122366130D01*
X134147693Y-122366132D01*
X133983577Y-122485369D01*
X133840117Y-122628829D01*
X133720880Y-122792945D01*
X133720878Y-122792949D01*
X133628777Y-122973708D01*
X133566086Y-123166650D01*
X133534352Y-123367013D01*
X133534352Y-123569890D01*
X133566086Y-123770253D01*
X133566088Y-123770258D01*
X133628778Y-123963198D01*
X133676550Y-124056955D01*
X133720878Y-124143954D01*
X133722910Y-124147269D01*
X133721559Y-124148096D01*
X133738591Y-124200480D01*
X133719695Y-124258675D01*
X133670203Y-124294648D01*
X133639591Y-124299500D01*
X128386809Y-124299500D01*
X128328618Y-124280593D01*
X128292654Y-124231093D01*
X128292654Y-124169907D01*
X128304024Y-124147596D01*
X128303490Y-124147269D01*
X128305517Y-124143960D01*
X128305521Y-124143955D01*
X128397622Y-123963198D01*
X128460312Y-123770258D01*
X128465993Y-123734389D01*
X128492048Y-123569890D01*
X128492048Y-123367013D01*
X128460313Y-123166650D01*
X128457046Y-123156594D01*
X128397622Y-122973706D01*
X128305521Y-122792949D01*
X128305519Y-122792945D01*
X128186282Y-122628829D01*
X128186280Y-122628827D01*
X128186278Y-122628824D01*
X128042828Y-122485374D01*
X128042824Y-122485371D01*
X128042822Y-122485369D01*
X127878706Y-122366132D01*
X127878702Y-122366130D01*
X127791703Y-122321802D01*
X127697946Y-122274030D01*
X127667006Y-122263977D01*
X127505001Y-122211338D01*
X127304638Y-122179604D01*
X127304635Y-122179604D01*
X127101765Y-122179604D01*
X127101762Y-122179604D01*
X126901398Y-122211338D01*
X126708456Y-122274029D01*
X126527697Y-122366130D01*
X126527693Y-122366132D01*
X126363577Y-122485369D01*
X126220117Y-122628829D01*
X126100880Y-122792945D01*
X126100878Y-122792949D01*
X126008777Y-122973708D01*
X125946086Y-123166650D01*
X125914352Y-123367013D01*
X125914352Y-123569890D01*
X125946086Y-123770253D01*
X125946088Y-123770258D01*
X126008778Y-123963198D01*
X126056550Y-124056955D01*
X126100878Y-124143954D01*
X126102910Y-124147269D01*
X126101559Y-124148096D01*
X126118591Y-124200480D01*
X126099695Y-124258675D01*
X126050203Y-124294648D01*
X126019591Y-124299500D01*
X120766809Y-124299500D01*
X120708618Y-124280593D01*
X120672654Y-124231093D01*
X120672654Y-124169907D01*
X120684024Y-124147596D01*
X120683490Y-124147269D01*
X120685517Y-124143960D01*
X120685521Y-124143955D01*
X120777622Y-123963198D01*
X120840312Y-123770258D01*
X120845993Y-123734389D01*
X120872048Y-123569890D01*
X120872048Y-123367013D01*
X120840313Y-123166650D01*
X120837046Y-123156594D01*
X120777622Y-122973706D01*
X120685521Y-122792949D01*
X120685519Y-122792945D01*
X120566282Y-122628829D01*
X120566280Y-122628827D01*
X120566278Y-122628824D01*
X120422828Y-122485374D01*
X120422824Y-122485371D01*
X120422822Y-122485369D01*
X120258706Y-122366132D01*
X120258702Y-122366130D01*
X120171703Y-122321802D01*
X120077946Y-122274030D01*
X120047006Y-122263977D01*
X119885001Y-122211338D01*
X119684638Y-122179604D01*
X119684635Y-122179604D01*
X119481765Y-122179604D01*
X119481762Y-122179604D01*
X119281398Y-122211338D01*
X119088456Y-122274029D01*
X118907697Y-122366130D01*
X118907693Y-122366132D01*
X118743577Y-122485369D01*
X118600117Y-122628829D01*
X118480880Y-122792945D01*
X118480878Y-122792949D01*
X118388777Y-122973708D01*
X118326086Y-123166650D01*
X118294352Y-123367013D01*
X118294352Y-123569890D01*
X118326086Y-123770253D01*
X118326088Y-123770258D01*
X118388778Y-123963198D01*
X118436550Y-124056955D01*
X118480878Y-124143954D01*
X118482910Y-124147269D01*
X118481559Y-124148096D01*
X118498591Y-124200480D01*
X118479695Y-124258675D01*
X118430203Y-124294648D01*
X118399591Y-124299500D01*
X113146809Y-124299500D01*
X113088618Y-124280593D01*
X113052654Y-124231093D01*
X113052654Y-124169907D01*
X113064024Y-124147596D01*
X113063490Y-124147269D01*
X113065517Y-124143960D01*
X113065521Y-124143955D01*
X113157622Y-123963198D01*
X113220312Y-123770258D01*
X113225993Y-123734389D01*
X113252048Y-123569890D01*
X113252048Y-123367013D01*
X113220313Y-123166650D01*
X113217046Y-123156594D01*
X113157622Y-122973706D01*
X113065521Y-122792949D01*
X113065519Y-122792945D01*
X112946282Y-122628829D01*
X112946280Y-122628827D01*
X112946278Y-122628824D01*
X112802828Y-122485374D01*
X112802824Y-122485371D01*
X112802822Y-122485369D01*
X112638706Y-122366132D01*
X112638702Y-122366130D01*
X112551703Y-122321802D01*
X112457946Y-122274030D01*
X112427006Y-122263977D01*
X112265001Y-122211338D01*
X112064638Y-122179604D01*
X112064635Y-122179604D01*
X111861765Y-122179604D01*
X111861762Y-122179604D01*
X111661398Y-122211338D01*
X111468456Y-122274029D01*
X111287697Y-122366130D01*
X111287693Y-122366132D01*
X111123577Y-122485369D01*
X110980117Y-122628829D01*
X110860880Y-122792945D01*
X110860878Y-122792949D01*
X110768777Y-122973708D01*
X110706086Y-123166650D01*
X110674352Y-123367013D01*
X110674352Y-123569890D01*
X110706086Y-123770253D01*
X110706088Y-123770258D01*
X110768778Y-123963198D01*
X110816550Y-124056955D01*
X110860878Y-124143954D01*
X110862910Y-124147269D01*
X110861559Y-124148096D01*
X110878591Y-124200480D01*
X110859695Y-124258675D01*
X110810203Y-124294648D01*
X110779591Y-124299500D01*
X80817434Y-124299500D01*
X80759243Y-124280593D01*
X80723279Y-124231093D01*
X80721080Y-124177763D01*
X80731431Y-124133901D01*
X89047086Y-88894687D01*
X89078853Y-88842395D01*
X89135290Y-88818761D01*
X89194839Y-88832813D01*
X89234756Y-88879185D01*
X89242440Y-88917425D01*
X89242440Y-98816624D01*
X89262918Y-98893047D01*
X89262919Y-98893049D01*
X89282050Y-98926185D01*
X89302480Y-98961571D01*
X90290908Y-99949999D01*
X90451670Y-100110761D01*
X90479447Y-100165278D01*
X90469876Y-100225710D01*
X90464988Y-100233845D01*
X90415741Y-100339455D01*
X90409500Y-100386862D01*
X90409500Y-101313134D01*
X90409501Y-101313145D01*
X90415740Y-101360544D01*
X90415740Y-101360546D01*
X90464251Y-101464576D01*
X90464252Y-101464577D01*
X90464253Y-101464579D01*
X90545421Y-101545747D01*
X90649455Y-101594259D01*
X90696861Y-101600500D01*
X90982388Y-101600499D01*
X91040578Y-101619406D01*
X91052392Y-101629495D01*
X97479386Y-108056489D01*
X97479388Y-108056490D01*
X97479389Y-108056491D01*
X97479390Y-108056492D01*
X97582107Y-108115796D01*
X97582109Y-108115797D01*
X97582113Y-108115799D01*
X97606322Y-108122284D01*
X97606325Y-108122287D01*
X97606326Y-108122286D01*
X97696688Y-108146499D01*
X97696690Y-108146500D01*
X97696691Y-108146500D01*
X107663309Y-108146500D01*
X107753669Y-108122287D01*
X107753672Y-108122287D01*
X107766903Y-108118741D01*
X107777887Y-108115799D01*
X107880614Y-108056489D01*
X109564603Y-106372499D01*
X109619118Y-106344724D01*
X109665196Y-106348349D01*
X109742299Y-106373402D01*
X109742300Y-106373402D01*
X109742303Y-106373403D01*
X109913386Y-106400500D01*
X109913389Y-106400500D01*
X110086614Y-106400500D01*
X110257702Y-106373402D01*
X110257706Y-106373401D01*
X110422438Y-106319876D01*
X110422440Y-106319874D01*
X110422445Y-106319873D01*
X110576788Y-106241232D01*
X110716928Y-106139414D01*
X110839414Y-106016928D01*
X110941232Y-105876788D01*
X111019873Y-105722445D01*
X111044675Y-105646111D01*
X111080639Y-105596612D01*
X111138830Y-105577705D01*
X111197021Y-105596612D01*
X111232985Y-105646112D01*
X111288904Y-105818215D01*
X111385376Y-106007553D01*
X111385380Y-106007559D01*
X111424728Y-106061716D01*
X111424729Y-106061716D01*
X112057037Y-105429407D01*
X112074075Y-105492993D01*
X112139901Y-105607007D01*
X112232993Y-105700099D01*
X112347007Y-105765925D01*
X112410589Y-105782962D01*
X111778282Y-106415269D01*
X111778282Y-106415270D01*
X111832440Y-106454619D01*
X111832446Y-106454623D01*
X112021784Y-106551095D01*
X112223878Y-106616759D01*
X112433750Y-106650000D01*
X112646250Y-106650000D01*
X112856121Y-106616759D01*
X113058215Y-106551095D01*
X113247556Y-106454620D01*
X113301716Y-106415270D01*
X112669408Y-105782962D01*
X112732993Y-105765925D01*
X112847007Y-105700099D01*
X112940099Y-105607007D01*
X113005925Y-105492993D01*
X113022962Y-105429408D01*
X113655270Y-106061716D01*
X113694620Y-106007556D01*
X113791096Y-105818213D01*
X113847014Y-105646113D01*
X113882978Y-105596613D01*
X113941168Y-105577705D01*
X113999359Y-105596612D01*
X114035323Y-105646111D01*
X114060125Y-105722441D01*
X114111353Y-105822984D01*
X114138768Y-105876788D01*
X114240586Y-106016928D01*
X114363072Y-106139414D01*
X114503212Y-106241232D01*
X114657555Y-106319873D01*
X114657557Y-106319873D01*
X114657558Y-106319874D01*
X114657561Y-106319876D01*
X114822293Y-106373401D01*
X114822297Y-106373402D01*
X114993386Y-106400500D01*
X114993389Y-106400500D01*
X115166614Y-106400500D01*
X115337702Y-106373402D01*
X115337706Y-106373401D01*
X115502438Y-106319876D01*
X115502440Y-106319874D01*
X115502445Y-106319873D01*
X115656788Y-106241232D01*
X115796928Y-106139414D01*
X115919414Y-106016928D01*
X116021232Y-105876788D01*
X116099873Y-105722445D01*
X116099874Y-105722440D01*
X116099876Y-105722438D01*
X116153401Y-105557706D01*
X116153402Y-105557702D01*
X116180500Y-105386614D01*
X116180500Y-105213385D01*
X116519500Y-105213385D01*
X116519500Y-105386614D01*
X116546597Y-105557702D01*
X116546598Y-105557706D01*
X116600123Y-105722438D01*
X116600125Y-105722441D01*
X116651353Y-105822984D01*
X116678768Y-105876788D01*
X116780586Y-106016928D01*
X116903072Y-106139414D01*
X117043212Y-106241232D01*
X117197555Y-106319873D01*
X117197557Y-106319873D01*
X117197558Y-106319874D01*
X117197561Y-106319876D01*
X117362293Y-106373401D01*
X117362297Y-106373402D01*
X117533386Y-106400500D01*
X117533389Y-106400500D01*
X117706614Y-106400500D01*
X117877702Y-106373402D01*
X117877706Y-106373401D01*
X118042438Y-106319876D01*
X118042440Y-106319874D01*
X118042445Y-106319873D01*
X118196788Y-106241232D01*
X118336928Y-106139414D01*
X118459414Y-106016928D01*
X118561232Y-105876788D01*
X118598036Y-105804554D01*
X118641301Y-105761290D01*
X118686246Y-105750500D01*
X119295442Y-105750500D01*
X119344942Y-105763764D01*
X119447511Y-105822982D01*
X119447512Y-105822982D01*
X119447515Y-105822984D01*
X119587525Y-105860500D01*
X119587526Y-105860500D01*
X119732474Y-105860500D01*
X119732475Y-105860500D01*
X119872485Y-105822984D01*
X119872487Y-105822982D01*
X119872489Y-105822982D01*
X119998010Y-105750512D01*
X119998010Y-105750511D01*
X119998015Y-105750509D01*
X120100509Y-105648015D01*
X120152649Y-105557706D01*
X120172982Y-105522489D01*
X120172982Y-105522487D01*
X120172984Y-105522485D01*
X120210500Y-105382475D01*
X120210500Y-105237525D01*
X120172984Y-105097515D01*
X120172982Y-105097512D01*
X120172982Y-105097510D01*
X120100512Y-104971989D01*
X120100510Y-104971987D01*
X120100509Y-104971985D01*
X119998015Y-104869491D01*
X119998012Y-104869489D01*
X119998010Y-104869487D01*
X119872488Y-104797017D01*
X119872489Y-104797017D01*
X119842896Y-104789087D01*
X119732475Y-104759500D01*
X119587525Y-104759500D01*
X119540855Y-104772005D01*
X119447513Y-104797016D01*
X119379582Y-104836237D01*
X119330082Y-104849500D01*
X118686246Y-104849500D01*
X118628055Y-104830593D01*
X118598036Y-104795445D01*
X118561232Y-104723212D01*
X118459414Y-104583072D01*
X118336928Y-104460586D01*
X118196788Y-104358768D01*
X118196787Y-104358767D01*
X118196785Y-104358766D01*
X118042441Y-104280125D01*
X118042438Y-104280123D01*
X117877706Y-104226598D01*
X117877702Y-104226597D01*
X117706614Y-104199500D01*
X117706611Y-104199500D01*
X117533389Y-104199500D01*
X117533386Y-104199500D01*
X117362297Y-104226597D01*
X117362293Y-104226598D01*
X117197561Y-104280123D01*
X117197558Y-104280125D01*
X117043214Y-104358766D01*
X116903073Y-104460585D01*
X116780585Y-104583073D01*
X116678766Y-104723214D01*
X116600125Y-104877558D01*
X116600123Y-104877561D01*
X116546598Y-105042293D01*
X116546597Y-105042297D01*
X116519500Y-105213385D01*
X116180500Y-105213385D01*
X116153403Y-105042302D01*
X116153402Y-105042300D01*
X116128350Y-104965198D01*
X116128349Y-104904013D01*
X116152498Y-104864603D01*
X124567927Y-96449176D01*
X125240090Y-96449176D01*
X125800751Y-97009837D01*
X125800751Y-96449177D01*
X126300749Y-96449177D01*
X126300749Y-97193762D01*
X126377631Y-97183640D01*
X126517504Y-97125704D01*
X126517508Y-97125702D01*
X126607458Y-97056680D01*
X126908253Y-96755885D01*
X126977275Y-96665935D01*
X126977277Y-96665931D01*
X127035212Y-96526063D01*
X127035214Y-96526055D01*
X127045336Y-96449176D01*
X126300750Y-96449176D01*
X126300749Y-96449177D01*
X125800751Y-96449177D01*
X125800750Y-96449176D01*
X125240090Y-96449176D01*
X124567927Y-96449176D01*
X125038929Y-95978174D01*
X125093446Y-95950397D01*
X125108933Y-95949178D01*
X126861410Y-95949178D01*
X126316699Y-95404467D01*
X126288922Y-95349950D01*
X126298493Y-95289518D01*
X126341758Y-95246253D01*
X126386703Y-95235463D01*
X127166644Y-95235463D01*
X127224835Y-95254370D01*
X127236647Y-95264459D01*
X127372649Y-95400460D01*
X127438546Y-95466357D01*
X127476480Y-95495467D01*
X127584346Y-95534727D01*
X127584347Y-95534727D01*
X127699134Y-95534727D01*
X127699135Y-95534727D01*
X127807001Y-95495467D01*
X127825910Y-95480958D01*
X127883586Y-95460534D01*
X127886177Y-95460500D01*
X128479562Y-95460500D01*
X128536205Y-95445322D01*
X128597303Y-95448523D01*
X128644854Y-95487027D01*
X128660691Y-95546127D01*
X128638766Y-95603249D01*
X128631561Y-95611220D01*
X125660000Y-98559999D01*
X125660000Y-98560000D01*
X134760000Y-107840000D01*
X144090000Y-98350000D01*
X134790000Y-89500000D01*
X134789999Y-89500000D01*
X134789998Y-89500000D01*
X134635148Y-89653665D01*
X134580525Y-89681233D01*
X134565414Y-89682393D01*
X132995427Y-89682393D01*
X132937236Y-89663486D01*
X132925424Y-89653397D01*
X132573525Y-89301499D01*
X132535589Y-89272387D01*
X132458915Y-89244480D01*
X132422772Y-89221455D01*
X131709009Y-88507692D01*
X130990828Y-87789511D01*
X130990825Y-87789509D01*
X130990824Y-87789508D01*
X130990823Y-87789507D01*
X130888104Y-87730202D01*
X130888100Y-87730200D01*
X130863887Y-87723712D01*
X130863887Y-87723713D01*
X130773523Y-87699500D01*
X127090691Y-87699500D01*
X126992800Y-87725730D01*
X126992799Y-87725729D01*
X126976116Y-87730200D01*
X126976114Y-87730200D01*
X126976114Y-87730201D01*
X126873391Y-87789507D01*
X126873386Y-87789510D01*
X110435397Y-104227498D01*
X110380880Y-104255275D01*
X110334800Y-104251649D01*
X110257698Y-104226597D01*
X110086614Y-104199500D01*
X110086611Y-104199500D01*
X109913389Y-104199500D01*
X109913386Y-104199500D01*
X109742297Y-104226597D01*
X109742293Y-104226598D01*
X109577561Y-104280123D01*
X109577558Y-104280125D01*
X109423214Y-104358766D01*
X109283073Y-104460585D01*
X109160585Y-104583073D01*
X109058766Y-104723214D01*
X108980125Y-104877558D01*
X108980123Y-104877561D01*
X108926598Y-105042293D01*
X108926597Y-105042297D01*
X108899500Y-105213385D01*
X108899500Y-105386614D01*
X108926597Y-105557700D01*
X108951648Y-105634802D01*
X108951647Y-105695987D01*
X108927497Y-105735397D01*
X107446393Y-107216504D01*
X107391876Y-107244281D01*
X107376389Y-107245500D01*
X106958318Y-107245500D01*
X106900127Y-107226593D01*
X106864163Y-107177093D01*
X106864163Y-107115907D01*
X106900127Y-107066407D01*
X106908819Y-107060763D01*
X106926614Y-107050489D01*
X107559504Y-106417597D01*
X107614016Y-106389823D01*
X107693452Y-106377242D01*
X107717696Y-106373403D01*
X107717697Y-106373402D01*
X107717701Y-106373402D01*
X107882445Y-106319873D01*
X108036788Y-106241232D01*
X108176928Y-106139414D01*
X108299414Y-106016928D01*
X108401232Y-105876788D01*
X108479873Y-105722445D01*
X108479874Y-105722440D01*
X108479876Y-105722438D01*
X108533401Y-105557706D01*
X108533402Y-105557702D01*
X108560500Y-105386614D01*
X108560500Y-105213385D01*
X108533402Y-105042297D01*
X108533401Y-105042293D01*
X108479876Y-104877561D01*
X108479874Y-104877558D01*
X108479873Y-104877557D01*
X108479873Y-104877555D01*
X108401232Y-104723212D01*
X108299414Y-104583072D01*
X108176928Y-104460586D01*
X108036788Y-104358768D01*
X108036787Y-104358767D01*
X108036785Y-104358766D01*
X107882441Y-104280125D01*
X107882438Y-104280123D01*
X107717706Y-104226598D01*
X107717702Y-104226597D01*
X107546614Y-104199500D01*
X107546611Y-104199500D01*
X107373389Y-104199500D01*
X107373386Y-104199500D01*
X107202297Y-104226597D01*
X107202293Y-104226598D01*
X107037561Y-104280123D01*
X107037558Y-104280125D01*
X106883214Y-104358766D01*
X106743073Y-104460585D01*
X106620585Y-104583073D01*
X106518766Y-104723214D01*
X106440125Y-104877558D01*
X106440123Y-104877561D01*
X106386598Y-105042293D01*
X106386597Y-105042297D01*
X106359500Y-105213385D01*
X106359500Y-105386614D01*
X106386597Y-105557702D01*
X106386598Y-105557706D01*
X106440123Y-105722438D01*
X106440125Y-105722441D01*
X106491353Y-105822984D01*
X106518768Y-105876788D01*
X106598400Y-105986392D01*
X106600868Y-105993988D01*
X106606516Y-105999636D01*
X106610142Y-106022530D01*
X106617307Y-106044582D01*
X106614838Y-106052179D01*
X106616088Y-106060069D01*
X106605564Y-106080723D01*
X106598400Y-106102773D01*
X106588311Y-106114585D01*
X106492394Y-106210503D01*
X106437878Y-106238281D01*
X106422390Y-106239500D01*
X106119500Y-106239500D01*
X106061309Y-106220593D01*
X106025345Y-106171093D01*
X106020500Y-106140500D01*
X106020500Y-104425327D01*
X106020498Y-104425315D01*
X106017015Y-104407808D01*
X106005966Y-104352260D01*
X105957768Y-104280125D01*
X105950602Y-104269400D01*
X105950599Y-104269397D01*
X105867742Y-104214035D01*
X105867740Y-104214034D01*
X105867737Y-104214033D01*
X105867736Y-104214033D01*
X105794684Y-104199501D01*
X105794674Y-104199500D01*
X104045326Y-104199500D01*
X104045325Y-104199500D01*
X104045315Y-104199501D01*
X103972263Y-104214033D01*
X103972257Y-104214035D01*
X103889400Y-104269397D01*
X103889397Y-104269400D01*
X103834035Y-104352257D01*
X103834033Y-104352263D01*
X103819501Y-104425315D01*
X103819500Y-104425327D01*
X103819500Y-104750500D01*
X103800593Y-104808691D01*
X103751093Y-104844655D01*
X103720500Y-104849500D01*
X102617612Y-104849500D01*
X102559421Y-104830593D01*
X102547608Y-104820504D01*
X99796107Y-102069004D01*
X99768330Y-102014487D01*
X99777901Y-101954055D01*
X99821166Y-101910790D01*
X99866111Y-101900000D01*
X100202689Y-101900000D01*
X100202690Y-101899999D01*
X100315101Y-101885200D01*
X100315110Y-101885198D01*
X100454978Y-101827263D01*
X100454983Y-101827260D01*
X100516502Y-101780054D01*
X99665445Y-100928997D01*
X99665443Y-100928994D01*
X99636449Y-100900000D01*
X100343553Y-100900000D01*
X100740000Y-101296447D01*
X100740000Y-100503553D01*
X100343553Y-100900000D01*
X99636449Y-100900000D01*
X99240000Y-100503551D01*
X99240000Y-101273889D01*
X99221093Y-101332080D01*
X99171593Y-101368044D01*
X99110407Y-101368044D01*
X99070996Y-101343893D01*
X98519495Y-100792392D01*
X98491718Y-100737875D01*
X98490499Y-100722388D01*
X98490499Y-100436865D01*
X98490498Y-100436854D01*
X98484259Y-100389455D01*
X98484259Y-100389453D01*
X98435748Y-100285423D01*
X98435747Y-100285422D01*
X98435747Y-100285421D01*
X98354579Y-100204253D01*
X98264609Y-100162299D01*
X98219863Y-100120572D01*
X98208188Y-100060511D01*
X98234046Y-100005058D01*
X98287560Y-99975395D01*
X98307378Y-99973580D01*
X99387209Y-99983735D01*
X99445215Y-100003188D01*
X99456278Y-100012726D01*
X99990000Y-100546447D01*
X100512469Y-100023977D01*
X100566986Y-99996199D01*
X100583392Y-99994984D01*
X102180000Y-100010000D01*
X102200000Y-88120000D01*
X102199999Y-88120000D01*
X95759999Y-88180000D01*
X95799999Y-99949999D01*
X95800000Y-99950000D01*
X96746536Y-99958901D01*
X96804545Y-99978355D01*
X96815608Y-99987893D01*
X97460504Y-100632789D01*
X97488281Y-100687306D01*
X97489500Y-100702793D01*
X97489500Y-101363134D01*
X97489501Y-101363145D01*
X97495740Y-101410544D01*
X97495740Y-101410546D01*
X97544251Y-101514576D01*
X97544252Y-101514577D01*
X97544253Y-101514579D01*
X97625421Y-101595747D01*
X97729455Y-101644259D01*
X97776861Y-101650500D01*
X98062388Y-101650499D01*
X98120578Y-101669406D01*
X98132391Y-101679494D01*
X102113386Y-105660490D01*
X102216113Y-105719799D01*
X102240320Y-105726284D01*
X102240325Y-105726287D01*
X102240326Y-105726286D01*
X102330688Y-105750499D01*
X102330690Y-105750500D01*
X102330691Y-105750500D01*
X103720500Y-105750500D01*
X103778691Y-105769407D01*
X103814655Y-105818907D01*
X103819500Y-105849500D01*
X103819500Y-106140500D01*
X103800593Y-106198691D01*
X103751093Y-106234655D01*
X103720500Y-106239500D01*
X98977611Y-106239500D01*
X98919420Y-106220593D01*
X98907607Y-106210504D01*
X93439495Y-100742392D01*
X93435868Y-100735274D01*
X93429406Y-100730579D01*
X93422242Y-100708530D01*
X93411718Y-100687875D01*
X93410499Y-100672388D01*
X93410499Y-100640583D01*
X93429406Y-100582392D01*
X93439495Y-100570579D01*
X93949563Y-100060511D01*
X94525564Y-99484511D01*
X94565126Y-99415988D01*
X94585604Y-99339562D01*
X94585604Y-99260438D01*
X94585604Y-98760438D01*
X94585604Y-88760438D01*
X94565125Y-88684011D01*
X94525564Y-88615489D01*
X94469615Y-88559540D01*
X94456041Y-88551703D01*
X94401096Y-88519980D01*
X94401092Y-88519978D01*
X94324668Y-88499500D01*
X94324666Y-88499500D01*
X94082502Y-88499500D01*
X94003378Y-88499500D01*
X93958184Y-88511610D01*
X93906940Y-88511610D01*
X93832502Y-88491664D01*
X93582502Y-88491664D01*
X93503378Y-88491664D01*
X93443562Y-88507692D01*
X93392318Y-88507692D01*
X93332502Y-88491664D01*
X93082502Y-88491664D01*
X93003378Y-88491664D01*
X92943562Y-88507692D01*
X92892318Y-88507692D01*
X92832502Y-88491664D01*
X92582502Y-88491664D01*
X92503378Y-88491664D01*
X92443562Y-88507692D01*
X92392318Y-88507692D01*
X92332502Y-88491664D01*
X92082502Y-88491664D01*
X92003378Y-88491664D01*
X91943562Y-88507692D01*
X91892318Y-88507692D01*
X91832502Y-88491664D01*
X91582502Y-88491664D01*
X91503378Y-88491664D01*
X91443562Y-88507692D01*
X91392318Y-88507692D01*
X91332502Y-88491664D01*
X91082502Y-88491664D01*
X91003378Y-88491664D01*
X90943562Y-88507692D01*
X90892318Y-88507692D01*
X90832502Y-88491664D01*
X90582502Y-88491664D01*
X90503378Y-88491664D01*
X90443562Y-88507692D01*
X90392318Y-88507692D01*
X90332502Y-88491664D01*
X90082502Y-88491664D01*
X90003378Y-88491664D01*
X89943562Y-88507692D01*
X89892318Y-88507692D01*
X89832502Y-88491664D01*
X89582502Y-88491664D01*
X89503378Y-88491664D01*
X89503375Y-88491664D01*
X89426951Y-88512142D01*
X89426947Y-88512144D01*
X89358429Y-88551703D01*
X89303241Y-88606891D01*
X89248724Y-88634668D01*
X89188292Y-88625096D01*
X89145028Y-88581831D01*
X89135457Y-88521399D01*
X89136884Y-88514150D01*
X89137358Y-88512144D01*
X92664563Y-73564923D01*
X95214023Y-62761091D01*
X95245790Y-62708798D01*
X95302227Y-62685164D01*
X95310377Y-62684828D01*
X96296417Y-62684828D01*
X190206011Y-124078719D01*
G37*
%TD.AperFunction*%
%TA.AperFunction,Conductor*%
G36*
X130544794Y-88619407D02*
G01*
X130556607Y-88629496D01*
X131785669Y-89858558D01*
X131808694Y-89894701D01*
X131836601Y-89971373D01*
X131836603Y-89971378D01*
X131865711Y-90009311D01*
X132520689Y-90664287D01*
X132558623Y-90693397D01*
X132666489Y-90732657D01*
X132666490Y-90732657D01*
X132781277Y-90732657D01*
X132781278Y-90732657D01*
X132889144Y-90693397D01*
X132927079Y-90664289D01*
X133228501Y-90362865D01*
X133257611Y-90324930D01*
X133257611Y-90324929D01*
X133259764Y-90322124D01*
X133310190Y-90287469D01*
X133338305Y-90283393D01*
X133760240Y-90283393D01*
X133818431Y-90302300D01*
X133854395Y-90351800D01*
X133854395Y-90412986D01*
X133829974Y-90452665D01*
X131959234Y-92309061D01*
X131904611Y-92336629D01*
X131844216Y-92326825D01*
X131801118Y-92283394D01*
X131790500Y-92238789D01*
X131790500Y-91841463D01*
X131809407Y-91783272D01*
X131812587Y-91779293D01*
X131814282Y-91777083D01*
X131814287Y-91777079D01*
X131843397Y-91739144D01*
X131882657Y-91631278D01*
X131882657Y-91516489D01*
X131843397Y-91408623D01*
X131814289Y-91370689D01*
X131159311Y-90715713D01*
X131121375Y-90686601D01*
X131044701Y-90658694D01*
X131008558Y-90635669D01*
X130712061Y-90339172D01*
X130696332Y-90318673D01*
X130640509Y-90221985D01*
X130538015Y-90119491D01*
X130538012Y-90119489D01*
X130538010Y-90119487D01*
X130412488Y-90047017D01*
X130412489Y-90047017D01*
X130382896Y-90039087D01*
X130272475Y-90009500D01*
X130127525Y-90009500D01*
X130065790Y-90026041D01*
X129987510Y-90047017D01*
X129861989Y-90119487D01*
X129759487Y-90221989D01*
X129687017Y-90347510D01*
X129682903Y-90362865D01*
X129649500Y-90487525D01*
X129649500Y-90632475D01*
X129665824Y-90693396D01*
X129687017Y-90772489D01*
X129759487Y-90898010D01*
X129759489Y-90898012D01*
X129759491Y-90898015D01*
X129861985Y-91000509D01*
X129861987Y-91000510D01*
X129861989Y-91000512D01*
X129987511Y-91072982D01*
X129987512Y-91072982D01*
X129987515Y-91072984D01*
X130127525Y-91110500D01*
X130168175Y-91110500D01*
X130175772Y-91112968D01*
X130183662Y-91111719D01*
X130204317Y-91122243D01*
X130226366Y-91129407D01*
X130238179Y-91139496D01*
X130371455Y-91272772D01*
X130394480Y-91308915D01*
X130422387Y-91385587D01*
X130422389Y-91385592D01*
X130451497Y-91423525D01*
X131106474Y-92078500D01*
X131150419Y-92112223D01*
X131148288Y-92114999D01*
X131152960Y-92119952D01*
X131170593Y-92132764D01*
X131173510Y-92141744D01*
X131179989Y-92148614D01*
X131189500Y-92190955D01*
X131189500Y-92294521D01*
X131170593Y-92352712D01*
X131160504Y-92364525D01*
X130981936Y-92543093D01*
X130981935Y-92543092D01*
X130925986Y-92599042D01*
X130886427Y-92667560D01*
X130886425Y-92667564D01*
X130865947Y-92743988D01*
X130865947Y-93272788D01*
X130876737Y-93313055D01*
X130873536Y-93374157D01*
X130850845Y-93408951D01*
X129918184Y-94334463D01*
X129703784Y-94547219D01*
X129649161Y-94574787D01*
X129634050Y-94575947D01*
X128683988Y-94575947D01*
X128607564Y-94596425D01*
X128607560Y-94596427D01*
X128539042Y-94635986D01*
X128344524Y-94830504D01*
X128337407Y-94834129D01*
X128332712Y-94840593D01*
X128310662Y-94847757D01*
X128290008Y-94858281D01*
X128274521Y-94859500D01*
X128267726Y-94859500D01*
X128209535Y-94840593D01*
X128180658Y-94802268D01*
X128179110Y-94803118D01*
X128175467Y-94796477D01*
X128146359Y-94758544D01*
X127491382Y-94103569D01*
X127453448Y-94074459D01*
X127345582Y-94035199D01*
X127230793Y-94035199D01*
X127122927Y-94074459D01*
X127122922Y-94074461D01*
X127084993Y-94103566D01*
X127084989Y-94103569D01*
X126883095Y-94305466D01*
X126828578Y-94333244D01*
X126813091Y-94334463D01*
X125535728Y-94334463D01*
X125490545Y-94346569D01*
X125445362Y-94358676D01*
X125445361Y-94358675D01*
X125421149Y-94365164D01*
X125421146Y-94365165D01*
X125318427Y-94424470D01*
X125318426Y-94424471D01*
X115515397Y-104227498D01*
X115460880Y-104255275D01*
X115414800Y-104251649D01*
X115337698Y-104226597D01*
X115166614Y-104199500D01*
X115166611Y-104199500D01*
X114993389Y-104199500D01*
X114993386Y-104199500D01*
X114822297Y-104226597D01*
X114822293Y-104226598D01*
X114657561Y-104280123D01*
X114657558Y-104280125D01*
X114503214Y-104358766D01*
X114363073Y-104460585D01*
X114240585Y-104583073D01*
X114138766Y-104723214D01*
X114060125Y-104877558D01*
X114035323Y-104953888D01*
X113999359Y-105003388D01*
X113941167Y-105022294D01*
X113882977Y-105003386D01*
X113847014Y-104953886D01*
X113791096Y-104781786D01*
X113694623Y-104592446D01*
X113694619Y-104592440D01*
X113655270Y-104538282D01*
X113655269Y-104538282D01*
X113022962Y-105170589D01*
X113005925Y-105107007D01*
X112940099Y-104992993D01*
X112847007Y-104899901D01*
X112732993Y-104834075D01*
X112669407Y-104817037D01*
X113301716Y-104184729D01*
X113301716Y-104184728D01*
X113247559Y-104145380D01*
X113247553Y-104145376D01*
X113058215Y-104048904D01*
X112856121Y-103983240D01*
X112646250Y-103950000D01*
X112433750Y-103950000D01*
X112223873Y-103983241D01*
X112216078Y-103985774D01*
X112154892Y-103985771D01*
X112105394Y-103949805D01*
X112086490Y-103891613D01*
X112105400Y-103833423D01*
X112115473Y-103821628D01*
X127307608Y-88629496D01*
X127362125Y-88601719D01*
X127377612Y-88600500D01*
X130486603Y-88600500D01*
X130544794Y-88619407D01*
G37*
%TD.AperFunction*%
%TD*%
M02*
