M48
; DRILL file {KiCad 9.0.5} date 2025-11-05T18:30:51-0500
; FORMAT={-:-/ absolute / metric / decimal}
; #@! TF.CreationDate,2025-11-05T18:30:51-05:00
; #@! TF.GenerationSoftware,Kicad,Pcbnew,9.0.5
; #@! TF.FileFunction,Plated,1,4,PTH
FMAT,2
METRIC
; #@! TA.AperFunction,Plated,PTH,ViaDrill
T1C0.300
; #@! TA.AperFunction,Plated,PTH,ComponentDrill
T2C0.300
; #@! TA.AperFunction,Plated,PTH,ComponentDrill
T3C0.600
; #@! TA.AperFunction,Plated,PTH,ComponentDrill
T4C0.965
; #@! TA.AperFunction,Plated,PTH,ComponentDrill
T5C2.200
%
G90
G05
T1
X133.282Y-93.447
X133.382Y-87.747
X133.382Y-91.047
X134.482Y-90.947
X137.382Y-90.547
X137.982Y-85.247
X138.082Y-82.547
X138.682Y-83.089
X139.332Y-86.147
X139.882Y-83.447
X140.782Y-83.447
X141.482Y-101.247
X141.482Y-105.247
X141.482Y-121.247
X142.282Y-84.847
X142.982Y-102.247
X142.982Y-109.747
X143.257Y-105.247
X143.482Y-123.747
X143.737Y-120.747
X144.182Y-118.247
X144.268Y-85.747
X144.587Y-120.747
X144.782Y-97.347
X144.982Y-109.747
X144.999Y-86.343
X146.232Y-123.747
X146.982Y-103.547
X147.232Y-107.747
X147.232Y-113.997
X147.282Y-104.547
X147.482Y-83.947
X147.982Y-100.497
X148.182Y-82.747
X148.232Y-121.247
X148.482Y-81.447
X148.482Y-95.847
X148.732Y-113.997
X148.882Y-118.647
X148.982Y-83.747
X148.982Y-97.147
X149.482Y-100.747
X150.931Y-100.946
X151.382Y-83.547
X151.532Y-101.547
X152.093Y-83.784
X152.182Y-92.047
X152.224Y-85.525
X152.25Y-90.044
X152.251Y-87.061
X152.251Y-88.556
X153.518Y-96.52
X153.518Y-97.79
X153.982Y-80.147
X155.282Y-84.347
X155.982Y-90.381
X155.982Y-87.547
X155.997Y-86.079
X155.997Y-88.979
X156.162Y-80.447
X156.182Y-92.147
X156.582Y-84.247
T2
X144.868Y-88.3
X144.868Y-89.7
X145.568Y-87.6
X145.568Y-89.0
X145.568Y-90.4
X146.268Y-88.3
X146.268Y-89.7
X146.968Y-87.6
X146.968Y-89.0
X146.968Y-90.4
X147.668Y-88.3
X147.668Y-89.7
T4
X136.107Y-108.572
X136.107Y-111.112
X154.282Y-111.072
X154.282Y-113.612
T5
X135.582Y-103.2
X135.582Y-126.45
X153.982Y-103.2
X153.982Y-126.45
T3
G00X140.342Y-122.592
M15
G01X140.342Y-123.692
M16
G05
G00X140.342Y-126.922
M15
G01X140.342Y-127.722
M16
G05
G00X148.982Y-122.592
M15
G01X148.982Y-123.692
M16
G05
G00X148.982Y-126.922
M15
G01X148.982Y-127.722
M16
G05
M30
