%TF.GenerationSoftware,KiCad,Pcbnew,9.0.5*%
%TF.CreationDate,2026-01-02T01:02:28-05:00*%
%TF.ProjectId,fin-prototype,66696e2d-7072-46f7-946f-747970652e6b,rev?*%
%TF.SameCoordinates,Original*%
%TF.FileFunction,Copper,L4,Bot*%
%TF.FilePolarity,Positive*%
%FSLAX46Y46*%
G04 Gerber Fmt 4.6, Leading zero omitted, Abs format (unit mm)*
G04 Created by KiCad (PCBNEW 9.0.5) date 2026-01-02 01:02:28*
%MOMM*%
%LPD*%
G01*
G04 APERTURE LIST*
G04 Aperture macros list*
%AMRoundRect*
0 Rectangle with rounded corners*
0 $1 Rounding radius*
0 $2 $3 $4 $5 $6 $7 $8 $9 X,Y pos of 4 corners*
0 Add a 4 corners polygon primitive as box body*
4,1,4,$2,$3,$4,$5,$6,$7,$8,$9,$2,$3,0*
0 Add four circle primitives for the rounded corners*
1,1,$1+$1,$2,$3*
1,1,$1+$1,$4,$5*
1,1,$1+$1,$6,$7*
1,1,$1+$1,$8,$9*
0 Add four rect primitives between the rounded corners*
20,1,$1+$1,$2,$3,$4,$5,0*
20,1,$1+$1,$4,$5,$6,$7,0*
20,1,$1+$1,$6,$7,$8,$9,0*
20,1,$1+$1,$8,$9,$2,$3,0*%
G04 Aperture macros list end*
%TA.AperFunction,ComponentPad*%
%ADD10R,1.700000X1.700000*%
%TD*%
%TA.AperFunction,ComponentPad*%
%ADD11C,1.700000*%
%TD*%
%TA.AperFunction,ComponentPad*%
%ADD12C,4.400000*%
%TD*%
%TA.AperFunction,HeatsinkPad*%
%ADD13O,2.100000X1.000000*%
%TD*%
%TA.AperFunction,HeatsinkPad*%
%ADD14O,1.800000X1.000000*%
%TD*%
%TA.AperFunction,SMDPad,CuDef*%
%ADD15R,1.800000X1.000000*%
%TD*%
%TA.AperFunction,SMDPad,CuDef*%
%ADD16R,1.000000X1.800000*%
%TD*%
%TA.AperFunction,SMDPad,CuDef*%
%ADD17RoundRect,0.200000X-0.200000X-0.275000X0.200000X-0.275000X0.200000X0.275000X-0.200000X0.275000X0*%
%TD*%
%TA.AperFunction,ViaPad*%
%ADD18C,0.600000*%
%TD*%
%TA.AperFunction,Conductor*%
%ADD19C,0.200000*%
%TD*%
G04 APERTURE END LIST*
D10*
%TO.P,J7,1,Pin_1*%
%TO.N,PA8*%
X136000000Y-56500000D03*
%TD*%
%TO.P,J2,1,Pin_1*%
%TO.N,+3.3V*%
X106690000Y-97000000D03*
D11*
%TO.P,J2,2,Pin_2*%
%TO.N,GAUGE1_IN_P*%
X109230000Y-97000000D03*
%TO.P,J2,3,Pin_3*%
X111770000Y-97000000D03*
%TO.P,J2,4,Pin_4*%
%TO.N,GND*%
X114310000Y-97000000D03*
%TD*%
D10*
%TO.P,J15,1,Pin_1*%
%TO.N,PC14*%
X107500000Y-61900000D03*
%TD*%
D12*
%TO.P,H4,1,1*%
%TO.N,GND*%
X97500000Y-96000000D03*
%TD*%
D10*
%TO.P,J8,1,Pin_1*%
%TO.N,PA15*%
X111800000Y-51400000D03*
%TD*%
%TO.P,TP5,1,1*%
%TO.N,GND*%
X101000000Y-56000000D03*
%TD*%
%TO.P,TP3,1,1*%
%TO.N,GND*%
X100500000Y-92000000D03*
%TD*%
%TO.P,J6,1,Pin_1*%
%TO.N,PA5*%
X96700000Y-61900000D03*
%TD*%
%TO.P,TP4,1,1*%
%TO.N,GND*%
X137000000Y-96000000D03*
%TD*%
D13*
%TO.P,J1,S1,SHIELD*%
%TO.N,unconnected-(J1-SHIELD-PadS1)_2*%
X137820000Y-82725000D03*
D14*
%TO.N,unconnected-(J1-SHIELD-PadS1)_3*%
X142000000Y-82725000D03*
D13*
%TO.N,unconnected-(J1-SHIELD-PadS1)*%
X137820000Y-74085000D03*
D14*
%TO.N,unconnected-(J1-SHIELD-PadS1)_1*%
X142000000Y-74085000D03*
%TD*%
D10*
%TO.P,J17,1,Pin_1*%
%TO.N,PH0*%
X104700000Y-56000000D03*
%TD*%
%TO.P,J9,1,Pin_1*%
%TO.N,PB2*%
X96500000Y-83500000D03*
%TD*%
D12*
%TO.P,H3,1,1*%
%TO.N,GND*%
X141500000Y-96000000D03*
%TD*%
D10*
%TO.P,J11,1,Pin_1*%
%TO.N,PB4*%
X111900000Y-56000000D03*
%TD*%
%TO.P,TP7,1,1*%
%TO.N,GND*%
X141500000Y-91500000D03*
%TD*%
%TO.P,TP8,1,1*%
%TO.N,GND*%
X102000000Y-96000000D03*
%TD*%
%TO.P,J18,1,Pin_1*%
%TO.N,PH1*%
X100300000Y-61900000D03*
%TD*%
%TO.P,J12,1,Pin_1*%
%TO.N,PB6*%
X108200000Y-51400000D03*
%TD*%
D12*
%TO.P,H1,1,1*%
%TO.N,GND*%
X97500000Y-52000000D03*
%TD*%
D10*
%TO.P,J10,1,Pin_1*%
%TO.N,PB3*%
X115500000Y-56000000D03*
%TD*%
%TO.P,TP6,1,1*%
%TO.N,GND*%
X141500000Y-56500000D03*
%TD*%
%TO.P,J4,1,Pin_1*%
%TO.N,SPI1_MISO*%
X133280000Y-51400000D03*
D11*
%TO.P,J4,2,Pin_2*%
%TO.N,SPI1_MOSI*%
X130740000Y-51400000D03*
%TO.P,J4,3,Pin_3*%
%TO.N,SWDIO*%
X128200000Y-51400000D03*
%TO.P,J4,4,Pin_4*%
%TO.N,SWCLK*%
X125660000Y-51400000D03*
%TO.P,J4,5,Pin_5*%
%TO.N,~{SPI1_CS}*%
X123120000Y-51400000D03*
%TO.P,J4,6,Pin_6*%
%TO.N,SPI1_SCK*%
X120580000Y-51400000D03*
%TO.P,J4,7,Pin_7*%
%TO.N,+3.3V*%
X118040000Y-51400000D03*
%TO.P,J4,8,Pin_8*%
%TO.N,GND*%
X115500000Y-51400000D03*
%TD*%
D10*
%TO.P,J3,1,Pin_1*%
%TO.N,+3.3V*%
X120420000Y-97000000D03*
D11*
%TO.P,J3,2,Pin_2*%
%TO.N,GAUGE2_IN_P*%
X122960000Y-97000000D03*
%TO.P,J3,3,Pin_3*%
X125500000Y-97000000D03*
%TO.P,J3,4,Pin_4*%
%TO.N,GND*%
X128040000Y-97000000D03*
%TD*%
D10*
%TO.P,J16,1,Pin_1*%
%TO.N,PC15*%
X103900000Y-61900000D03*
%TD*%
%TO.P,J14,1,Pin_1*%
%TO.N,PC13*%
X104600000Y-51400000D03*
%TD*%
D12*
%TO.P,H2,1,1*%
%TO.N,GND*%
X141500000Y-52000000D03*
%TD*%
D10*
%TO.P,TP1,1,1*%
%TO.N,GND*%
X137000000Y-52000000D03*
%TD*%
%TO.P,TP2,1,1*%
%TO.N,GND*%
X97000000Y-57000000D03*
%TD*%
%TO.P,J13,1,Pin_1*%
%TO.N,PB7*%
X108300000Y-56000000D03*
%TD*%
D15*
%TO.P,TP21,1,1*%
%TO.N,~{FLASH_CS}*%
X98800000Y-81900000D03*
%TD*%
%TO.P,TP15,1,1*%
%TO.N,~{ADC_DRDY}*%
X124400000Y-89900000D03*
%TD*%
D16*
%TO.P,TP22,1,1*%
%TO.N,USART1_RX*%
X132100000Y-65900000D03*
%TD*%
D15*
%TO.P,TP18,1,1*%
%TO.N,QSPI_IO1*%
X105400000Y-81900000D03*
%TD*%
%TO.P,TP12,1,1*%
%TO.N,~{ADC_CS}*%
X124400000Y-87395000D03*
%TD*%
D16*
%TO.P,TP23,1,1*%
%TO.N,USART1_TX*%
X128200000Y-65900000D03*
%TD*%
D15*
%TO.P,TP20,1,1*%
%TO.N,QSPI_IO3*%
X109800000Y-81900000D03*
%TD*%
%TO.P,TP16,1,1*%
%TO.N,QSPI_SCK*%
X110100000Y-88300000D03*
%TD*%
D16*
%TO.P,TP24,1,1*%
%TO.N,USB_D+*%
X141700000Y-71100000D03*
%TD*%
D17*
%TO.P,R16,1*%
%TO.N,Net-(J1-CC2)*%
X140350000Y-77000000D03*
%TO.P,R16,2*%
%TO.N,GND*%
X142000000Y-77000000D03*
%TD*%
D15*
%TO.P,TP17,1,1*%
%TO.N,QSPI_IO0*%
X105300000Y-89005000D03*
%TD*%
%TO.P,TP19,1,1*%
%TO.N,QSPI_IO2*%
X102100000Y-81900000D03*
%TD*%
%TO.P,TP10,1,1*%
%TO.N,SPI2_MISO*%
X132400000Y-89000000D03*
%TD*%
%TO.P,TP14,1,1*%
%TO.N,ADC_~{SYNC}{slash}~{RST}*%
X118800000Y-75400000D03*
%TD*%
D16*
%TO.P,TP25,1,1*%
%TO.N,USB_D-*%
X138100000Y-71100000D03*
%TD*%
D17*
%TO.P,R15,1*%
%TO.N,Net-(J1-CC1)*%
X140350000Y-79510000D03*
%TO.P,R15,2*%
%TO.N,GND*%
X142000000Y-79510000D03*
%TD*%
D16*
%TO.P,TP11,1,1*%
%TO.N,SPI2_MOSI*%
X130500000Y-80100000D03*
%TD*%
D15*
%TO.P,TP9,1,1*%
%TO.N,SPI2_SCK*%
X124370000Y-92655000D03*
%TD*%
%TO.P,TP13,1,1*%
%TO.N,TIM2_CH1*%
X124400000Y-85200000D03*
%TD*%
D18*
%TO.N,GND*%
X112600000Y-67400000D03*
X110200000Y-68000000D03*
X119600000Y-61800000D03*
X123400000Y-71900000D03*
X132000000Y-67300002D03*
X108600000Y-77200000D03*
X136000000Y-82000000D03*
X117420778Y-74500000D03*
X105700000Y-80500000D03*
X120600000Y-78300000D03*
X131800000Y-81600000D03*
X134300000Y-72600000D03*
X136000000Y-74600000D03*
X134400000Y-70900000D03*
%TO.N,+3.3V*%
X98500000Y-87000000D03*
X134500000Y-82000000D03*
X121000000Y-88700000D03*
X141500000Y-66900000D03*
X140500000Y-89500000D03*
X114564314Y-88464314D03*
X117400000Y-76099000D03*
X124225735Y-81874265D03*
X112600764Y-70199236D03*
X97400000Y-68700000D03*
X134500000Y-91400000D03*
X110000000Y-80500000D03*
X128100000Y-68400000D03*
%TO.N,Net-(D5-A)*%
X136000000Y-80800000D03*
X136000000Y-76000000D03*
%TO.N,Net-(J1-CC2)*%
X139200000Y-76700000D03*
%TO.N,USB_D-*%
X135400000Y-77400000D03*
%TO.N,USB_D+*%
X138520444Y-77500000D03*
X138500000Y-78700000D03*
%TO.N,Net-(J1-CC1)*%
X139200000Y-79700000D03*
%TO.N,~{SPI1_CS}*%
X122800000Y-69200000D03*
X121300000Y-73900000D03*
X116524419Y-78524767D03*
X117700000Y-77300000D03*
%TO.N,SPI1_SCK*%
X117571715Y-66428285D03*
X113100000Y-77700000D03*
%TO.N,AVBAY_SYNC*%
X120791962Y-81388137D03*
X99500000Y-89000000D03*
%TO.N,SIGNAL*%
X120000000Y-81275000D03*
X99500000Y-88000000D03*
%TO.N,PA5*%
X115036765Y-81536765D03*
%TO.N,PA8*%
X126924265Y-73724265D03*
%TO.N,PA15*%
X121000000Y-69800000D03*
%TO.N,PB2*%
X119500000Y-78300000D03*
%TO.N,PB3*%
X120208038Y-69913137D03*
%TO.N,PB4*%
X120000000Y-72600000D03*
%TO.N,PC13*%
X113212500Y-73312500D03*
%TO.N,PC14*%
X112600000Y-73900000D03*
%TO.N,PC15*%
X113099758Y-74524697D03*
%TO.N,PH0*%
X116000000Y-74800000D03*
%TO.N,PH1*%
X116219778Y-75569222D03*
%TO.N,SPI2_SCK*%
X128525000Y-87975000D03*
X124525000Y-77825000D03*
%TO.N,SPI2_MISO*%
X125173545Y-77356606D03*
X129175000Y-87425000D03*
%TO.N,SPI2_MOSI*%
X129825000Y-87900000D03*
X124624641Y-76624000D03*
%TO.N,~{ADC_CS}*%
X123986765Y-79038235D03*
X127236742Y-87641925D03*
%TO.N,TIM2_CH1*%
X116100000Y-77350000D03*
X129625000Y-90725000D03*
%TO.N,ADC_~{SYNC}{slash}~{RST}*%
X117000000Y-72900000D03*
X126577566Y-88095236D03*
%TO.N,~{ADC_DRDY}*%
X117810244Y-72861714D03*
X127882413Y-87169577D03*
%TO.N,QSPI_IO0*%
X107300000Y-88300000D03*
%TO.N,QSPI_IO1*%
X101500000Y-84400000D03*
X116249632Y-81549632D03*
%TO.N,QSPI_IO2*%
X117623897Y-81023897D03*
X101500000Y-85700000D03*
%TO.N,QSPI_IO3*%
X109800000Y-83100000D03*
%TO.N,~{FLASH_CS}*%
X98800000Y-83200000D03*
%TO.N,USART1_RX*%
X129999496Y-67659766D03*
%TO.N,USART1_TX*%
X127600000Y-73124265D03*
%TO.N,QSPI_SCK*%
X107100000Y-87200000D03*
%TD*%
D19*
%TO.N,Net-(D5-A)*%
X136000000Y-80800000D02*
X136000000Y-76000000D01*
%TO.N,Net-(J1-CC2)*%
X139200000Y-76700000D02*
X140050000Y-76700000D01*
X140050000Y-76700000D02*
X140350000Y-77000000D01*
%TO.N,USB_D-*%
X135400000Y-77400000D02*
X135400000Y-73800000D01*
X135400000Y-73800000D02*
X138100000Y-71100000D01*
%TO.N,USB_D+*%
X140100000Y-72700000D02*
X141700000Y-71100000D01*
X138520444Y-76479556D02*
X140100000Y-74900000D01*
X138500000Y-77520444D02*
X138520444Y-77500000D01*
X138500000Y-78700000D02*
X138500000Y-77520444D01*
X140100000Y-74900000D02*
X140100000Y-72700000D01*
X138520444Y-77500000D02*
X138520444Y-76479556D01*
%TO.N,Net-(J1-CC1)*%
X140160000Y-79700000D02*
X140350000Y-79510000D01*
X139200000Y-79700000D02*
X140160000Y-79700000D01*
%TO.N,~{SPI1_CS}*%
X117700000Y-77349186D02*
X116524419Y-78524767D01*
X122800000Y-69200000D02*
X121300000Y-70700000D01*
X117700000Y-77300000D02*
X117700000Y-77349186D01*
X121300000Y-70700000D02*
X121300000Y-73900000D01*
%TO.N,SPI1_SCK*%
X116468721Y-76170222D02*
X116820778Y-75818165D01*
X113100000Y-77700000D02*
X114629778Y-76170222D01*
X116820778Y-75818165D02*
X116820778Y-73570721D01*
X120248943Y-73201000D02*
X119701000Y-73201000D01*
X116789343Y-72260714D02*
X116399000Y-72651057D01*
X120899000Y-72550943D02*
X120248943Y-73201000D01*
X117571715Y-69071715D02*
X120899000Y-72399000D01*
X117571715Y-66428285D02*
X117571715Y-69071715D01*
X114629778Y-76170222D02*
X116468721Y-76170222D01*
X116399000Y-72651057D02*
X116399000Y-73148943D01*
X119701000Y-73201000D02*
X118760714Y-72260714D01*
X118760714Y-72260714D02*
X116789343Y-72260714D01*
X116399000Y-73148943D02*
X116820778Y-73570721D01*
X120899000Y-72399000D02*
X120899000Y-72550943D01*
%TO.N,AVBAY_SYNC*%
X120791962Y-81388137D02*
X111973099Y-90207000D01*
X100707000Y-90207000D02*
X99500000Y-89000000D01*
X111973099Y-90207000D02*
X100707000Y-90207000D01*
%TO.N,SIGNAL*%
X120000000Y-81275000D02*
X111469000Y-89806000D01*
X111469000Y-89806000D02*
X101306000Y-89806000D01*
X101306000Y-89806000D02*
X99500000Y-88000000D01*
%TO.N,PA5*%
X96700000Y-63200000D02*
X96700000Y-61900000D01*
X115036765Y-81536765D02*
X96700000Y-63200000D01*
%TO.N,PA8*%
X136000000Y-66900000D02*
X136000000Y-56500000D01*
X129175735Y-73724265D02*
X136000000Y-66900000D01*
X126924265Y-73724265D02*
X129175735Y-73724265D01*
%TO.N,PA15*%
X121000000Y-59000000D02*
X121000000Y-69800000D01*
X113400000Y-51400000D02*
X121000000Y-59000000D01*
X111800000Y-51400000D02*
X113400000Y-51400000D01*
%TO.N,PB2*%
X99301000Y-86301000D02*
X113196737Y-86301000D01*
X96500000Y-83500000D02*
X99301000Y-86301000D01*
X119500000Y-79997737D02*
X119500000Y-78300000D01*
X113196737Y-86301000D02*
X119500000Y-79997737D01*
%TO.N,PB3*%
X115500000Y-56000000D02*
X115500000Y-63500000D01*
X120208038Y-68208038D02*
X120208038Y-69913137D01*
X115500000Y-63500000D02*
X120208038Y-68208038D01*
X115717919Y-56700000D02*
X114617919Y-55600000D01*
%TO.N,PB4*%
X111900000Y-64500000D02*
X120000000Y-72600000D01*
X111900000Y-56000000D02*
X111900000Y-64500000D01*
%TO.N,PC13*%
X111499000Y-63597000D02*
X111499000Y-71599000D01*
X111499000Y-71599000D02*
X113212500Y-73312500D01*
X107149000Y-59247000D02*
X111499000Y-63597000D01*
X104600000Y-51400000D02*
X107149000Y-53949000D01*
X107149000Y-53949000D02*
X107149000Y-59247000D01*
%TO.N,PC14*%
X112600000Y-73900000D02*
X107500000Y-68800000D01*
X107500000Y-68800000D02*
X107500000Y-61900000D01*
%TO.N,PC15*%
X112374754Y-74524697D02*
X103900000Y-66049943D01*
X103900000Y-66049943D02*
X103900000Y-61900000D01*
X113099758Y-74524697D02*
X112374754Y-74524697D01*
%TO.N,PH0*%
X112408654Y-75125697D02*
X102500000Y-65217043D01*
X115674303Y-75125697D02*
X112408654Y-75125697D01*
X102500000Y-65217043D02*
X102500000Y-58200000D01*
X102500000Y-58200000D02*
X104700000Y-56000000D01*
X116000000Y-74800000D02*
X115674303Y-75125697D01*
%TO.N,PH1*%
X112285079Y-75569222D02*
X100300000Y-63584143D01*
X116219778Y-75569222D02*
X112285079Y-75569222D01*
X100300000Y-63584143D02*
X100300000Y-61900000D01*
%TO.N,SPI2_SCK*%
X129322000Y-89322000D02*
X130206143Y-89322000D01*
X129679143Y-92655000D02*
X124370000Y-92655000D01*
X128525000Y-87975000D02*
X128525000Y-88525000D01*
X131028000Y-90143857D02*
X131028000Y-91306143D01*
X128525000Y-88525000D02*
X129322000Y-89322000D01*
X130206143Y-89322000D02*
X131028000Y-90143857D01*
X131028000Y-91306143D02*
X129679143Y-92655000D01*
X128525000Y-87975000D02*
X128525000Y-81825000D01*
X128525000Y-81825000D02*
X124525000Y-77825000D01*
%TO.N,SPI2_MISO*%
X129175000Y-87425000D02*
X129175000Y-81358061D01*
X132321000Y-88921000D02*
X132400000Y-89000000D01*
X129996057Y-88921000D02*
X132321000Y-88921000D01*
X129175000Y-87425000D02*
X129175000Y-88099943D01*
X129175000Y-88099943D02*
X129996057Y-88921000D01*
X129175000Y-81358061D02*
X125173545Y-77356606D01*
%TO.N,SPI2_MOSI*%
X125290882Y-76624000D02*
X124624641Y-76624000D01*
X129825000Y-87900000D02*
X129825000Y-81158118D01*
X129825000Y-80775000D02*
X130500000Y-80100000D01*
X129825000Y-81158118D02*
X125290882Y-76624000D01*
X129825000Y-81158118D02*
X129825000Y-80775000D01*
%TO.N,~{ADC_CS}*%
X130226000Y-90476057D02*
X130226000Y-90973943D01*
X129873943Y-90124000D02*
X130226000Y-90476057D01*
X127236742Y-87641925D02*
X127236742Y-82288212D01*
X127236742Y-88736742D02*
X128624000Y-90124000D01*
X127236742Y-87641925D02*
X127236742Y-88736742D01*
X124400000Y-87700000D02*
X124400000Y-87395000D01*
X129799943Y-91400000D02*
X128100000Y-91400000D01*
X128624000Y-90124000D02*
X129873943Y-90124000D01*
X127236742Y-82288212D02*
X123986765Y-79038235D01*
X130226000Y-90973943D02*
X129799943Y-91400000D01*
X128100000Y-91400000D02*
X124400000Y-87700000D01*
%TO.N,TIM2_CH1*%
X124700000Y-85100000D02*
X125900000Y-85100000D01*
X125976566Y-88344179D02*
X125976566Y-87846293D01*
X116751000Y-76699000D02*
X116100000Y-77350000D01*
X125900000Y-85100000D02*
X126000000Y-85200000D01*
X125976566Y-87846293D02*
X126000000Y-87822859D01*
X126000000Y-87822859D02*
X126000000Y-85200000D01*
X128357387Y-90725000D02*
X125976566Y-88344179D01*
X129625000Y-90725000D02*
X128357387Y-90725000D01*
X126000000Y-85200000D02*
X126000000Y-82800000D01*
X119899000Y-76699000D02*
X116751000Y-76699000D01*
X126000000Y-82800000D02*
X119899000Y-76699000D01*
%TO.N,ADC_~{SYNC}{slash}~{RST}*%
X126577566Y-82477566D02*
X117000000Y-72900000D01*
X126577566Y-88095236D02*
X126577566Y-82477566D01*
%TO.N,~{ADC_DRDY}*%
X129966043Y-91801000D02*
X126301000Y-91801000D01*
X117796958Y-72875000D02*
X117810244Y-72861714D01*
X127882413Y-87169577D02*
X127882413Y-82083940D01*
X118673473Y-72875000D02*
X117796958Y-72875000D01*
X126301000Y-91801000D02*
X124400000Y-89900000D01*
X127882413Y-88582413D02*
X129023000Y-89723000D01*
X127882413Y-87169577D02*
X127882413Y-88582413D01*
X130627000Y-90309957D02*
X130627000Y-91140043D01*
X130627000Y-91140043D02*
X129966043Y-91801000D01*
X127882413Y-82083940D02*
X118673473Y-72875000D01*
X129023000Y-89723000D02*
X130040043Y-89723000D01*
X130040043Y-89723000D02*
X130627000Y-90309957D01*
%TO.N,QSPI_IO0*%
X107300000Y-88300000D02*
X106600000Y-89000000D01*
X106600000Y-89000000D02*
X105800000Y-89000000D01*
%TO.N,QSPI_IO1*%
X105500000Y-84400000D02*
X113500000Y-84400000D01*
X116300000Y-81600000D02*
X116249632Y-81549632D01*
X105400000Y-84300000D02*
X105400000Y-81900000D01*
X113500000Y-84400000D02*
X116300000Y-81600000D01*
X105500000Y-84400000D02*
X105400000Y-84300000D01*
X101500000Y-84400000D02*
X105500000Y-84400000D01*
%TO.N,QSPI_IO2*%
X100899000Y-85099000D02*
X100899000Y-83101000D01*
X100899000Y-83101000D02*
X102100000Y-81900000D01*
X101500000Y-85700000D02*
X100899000Y-85099000D01*
X112947794Y-85700000D02*
X117623897Y-81023897D01*
X101500000Y-85700000D02*
X112947794Y-85700000D01*
%TO.N,QSPI_IO3*%
X109800000Y-83100000D02*
X109800000Y-81900000D01*
%TO.N,~{FLASH_CS}*%
X98800000Y-83200000D02*
X98800000Y-82100000D01*
%TO.N,USART1_RX*%
X129999496Y-67659766D02*
X130140234Y-67659766D01*
X130140234Y-67659766D02*
X132100000Y-65700000D01*
%TO.N,USART1_TX*%
X129300000Y-67000000D02*
X128200000Y-65900000D01*
X127600000Y-73124265D02*
X129300000Y-71424265D01*
X129300000Y-71424265D02*
X129300000Y-67000000D01*
%TO.N,QSPI_SCK*%
X109100000Y-88300000D02*
X110100000Y-88300000D01*
X108000000Y-87200000D02*
X109100000Y-88300000D01*
X107100000Y-87200000D02*
X108000000Y-87200000D01*
%TD*%
%TA.AperFunction,Conductor*%
%TO.N,GND*%
G36*
X117376481Y-73772609D02*
G01*
X117382959Y-73778641D01*
X118042137Y-74437819D01*
X118075622Y-74499142D01*
X118070638Y-74568834D01*
X118028766Y-74624767D01*
X117963302Y-74649184D01*
X117954456Y-74649500D01*
X117875323Y-74649500D01*
X117802264Y-74664032D01*
X117802260Y-74664033D01*
X117719399Y-74719399D01*
X117664033Y-74802260D01*
X117664032Y-74802264D01*
X117649500Y-74875321D01*
X117649500Y-75434334D01*
X117629815Y-75501373D01*
X117577011Y-75547128D01*
X117522502Y-75558298D01*
X117507705Y-75557940D01*
X117472475Y-75548500D01*
X117327525Y-75548500D01*
X117310127Y-75553161D01*
X117292280Y-75552730D01*
X117275316Y-75547300D01*
X117257513Y-75546875D01*
X117242734Y-75536871D01*
X117225736Y-75531430D01*
X117214401Y-75517691D01*
X117199653Y-75507708D01*
X117192628Y-75491301D01*
X117181271Y-75477535D01*
X117179163Y-75459850D01*
X117172154Y-75443478D01*
X117171278Y-75428766D01*
X117171278Y-73866322D01*
X117190963Y-73799283D01*
X117243767Y-73753528D01*
X117312925Y-73743584D01*
X117376481Y-73772609D01*
G37*
%TD.AperFunction*%
%TA.AperFunction,Conductor*%
G36*
X112054703Y-65150831D02*
G01*
X112061181Y-65156863D01*
X118602851Y-71698533D01*
X118636336Y-71759856D01*
X118631352Y-71829548D01*
X118589480Y-71885481D01*
X118524016Y-71909898D01*
X118515170Y-71910214D01*
X116743199Y-71910214D01*
X116654055Y-71934100D01*
X116654054Y-71934100D01*
X116654052Y-71934101D01*
X116654049Y-71934102D01*
X116574137Y-71980240D01*
X116574128Y-71980247D01*
X116118531Y-72435843D01*
X116118529Y-72435845D01*
X116098668Y-72470246D01*
X116090275Y-72484786D01*
X116090274Y-72484787D01*
X116090272Y-72484790D01*
X116072386Y-72515766D01*
X116048500Y-72604913D01*
X116048500Y-73195088D01*
X116069431Y-73273205D01*
X116072385Y-73284229D01*
X116072387Y-73284234D01*
X116118527Y-73364151D01*
X116118531Y-73364156D01*
X116433959Y-73679584D01*
X116467444Y-73740907D01*
X116470278Y-73767265D01*
X116470278Y-74221078D01*
X116450593Y-74288117D01*
X116397789Y-74333872D01*
X116328631Y-74343816D01*
X116284278Y-74328465D01*
X116212488Y-74287017D01*
X116212489Y-74287017D01*
X116201006Y-74283940D01*
X116072475Y-74249500D01*
X115927525Y-74249500D01*
X115798993Y-74283940D01*
X115787511Y-74287017D01*
X115661988Y-74359488D01*
X115661982Y-74359493D01*
X115559493Y-74461982D01*
X115559488Y-74461988D01*
X115487017Y-74587511D01*
X115461353Y-74683291D01*
X115424987Y-74742951D01*
X115362140Y-74773480D01*
X115341578Y-74775197D01*
X113764156Y-74775197D01*
X113697117Y-74755512D01*
X113651362Y-74702708D01*
X113641418Y-74633550D01*
X113644381Y-74619104D01*
X113645968Y-74613181D01*
X113650258Y-74597172D01*
X113650258Y-74452222D01*
X113612742Y-74312212D01*
X113569905Y-74238017D01*
X113540269Y-74186685D01*
X113540264Y-74186679D01*
X113437775Y-74084190D01*
X113437769Y-74084185D01*
X113386924Y-74054830D01*
X113338708Y-74004263D01*
X113325486Y-73935655D01*
X113351454Y-73870791D01*
X113408368Y-73830263D01*
X113416806Y-73827675D01*
X113424985Y-73825484D01*
X113424988Y-73825482D01*
X113424989Y-73825482D01*
X113525823Y-73767265D01*
X113550515Y-73753009D01*
X113653009Y-73650515D01*
X113725484Y-73524985D01*
X113763000Y-73384975D01*
X113763000Y-73240025D01*
X113725484Y-73100015D01*
X113698784Y-73053770D01*
X113653011Y-72974488D01*
X113653006Y-72974482D01*
X113550517Y-72871993D01*
X113550511Y-72871988D01*
X113424988Y-72799517D01*
X113424989Y-72799517D01*
X113413506Y-72796440D01*
X113284975Y-72762000D01*
X113284972Y-72762000D01*
X113209044Y-72762000D01*
X113142005Y-72742315D01*
X113121363Y-72725681D01*
X111885819Y-71490137D01*
X111852334Y-71428814D01*
X111849500Y-71402456D01*
X111849500Y-70459852D01*
X111869185Y-70392813D01*
X111921989Y-70347058D01*
X111991147Y-70337114D01*
X112054703Y-70366139D01*
X112082854Y-70405180D01*
X112083716Y-70404683D01*
X112160252Y-70537247D01*
X112160254Y-70537249D01*
X112160255Y-70537251D01*
X112262749Y-70639745D01*
X112262750Y-70639746D01*
X112262752Y-70639747D01*
X112388275Y-70712218D01*
X112388276Y-70712218D01*
X112388279Y-70712220D01*
X112528289Y-70749736D01*
X112528292Y-70749736D01*
X112673236Y-70749736D01*
X112673239Y-70749736D01*
X112813249Y-70712220D01*
X112938779Y-70639745D01*
X113041273Y-70537251D01*
X113113748Y-70411721D01*
X113151264Y-70271711D01*
X113151264Y-70126761D01*
X113113748Y-69986751D01*
X113113090Y-69985612D01*
X113041275Y-69861224D01*
X113041270Y-69861218D01*
X112938781Y-69758729D01*
X112938775Y-69758724D01*
X112813252Y-69686253D01*
X112813253Y-69686253D01*
X112801770Y-69683176D01*
X112673239Y-69648736D01*
X112528289Y-69648736D01*
X112399757Y-69683176D01*
X112388275Y-69686253D01*
X112262752Y-69758724D01*
X112262746Y-69758729D01*
X112160257Y-69861218D01*
X112160252Y-69861224D01*
X112083716Y-69993789D01*
X112082437Y-69993050D01*
X112044221Y-70040474D01*
X111977927Y-70062540D01*
X111910228Y-70045261D01*
X111862617Y-69994125D01*
X111849500Y-69938619D01*
X111849500Y-65244544D01*
X111869185Y-65177505D01*
X111921989Y-65131750D01*
X111991147Y-65121806D01*
X112054703Y-65150831D01*
G37*
%TD.AperFunction*%
%TA.AperFunction,Conductor*%
G36*
X108805703Y-61399831D02*
G01*
X108812181Y-61405863D01*
X111112181Y-63705863D01*
X111145666Y-63767186D01*
X111148500Y-63793544D01*
X111148500Y-71653271D01*
X111144980Y-71653271D01*
X111136691Y-71706356D01*
X111090301Y-71758603D01*
X111023028Y-71777475D01*
X110956232Y-71756981D01*
X110936847Y-71741165D01*
X107886819Y-68691137D01*
X107853334Y-68629814D01*
X107850500Y-68603456D01*
X107850500Y-63124500D01*
X107870185Y-63057461D01*
X107922989Y-63011706D01*
X107974500Y-63000500D01*
X108374676Y-63000500D01*
X108374677Y-63000499D01*
X108447740Y-62985966D01*
X108530601Y-62930601D01*
X108585966Y-62847740D01*
X108600500Y-62774674D01*
X108600500Y-61493544D01*
X108620185Y-61426505D01*
X108672989Y-61380750D01*
X108742147Y-61370806D01*
X108805703Y-61399831D01*
G37*
%TD.AperFunction*%
%TA.AperFunction,Conductor*%
G36*
X116805703Y-55301831D02*
G01*
X116812181Y-55307863D01*
X120613181Y-59108863D01*
X120646666Y-59170186D01*
X120649500Y-59196544D01*
X120649500Y-67854456D01*
X120629815Y-67921495D01*
X120577011Y-67967250D01*
X120507853Y-67977194D01*
X120444297Y-67948169D01*
X120437819Y-67942137D01*
X115886819Y-63391137D01*
X115853334Y-63329814D01*
X115850500Y-63303456D01*
X115850500Y-57224500D01*
X115870185Y-57157461D01*
X115922989Y-57111706D01*
X115974500Y-57100500D01*
X116374676Y-57100500D01*
X116374677Y-57100499D01*
X116447740Y-57085966D01*
X116530601Y-57030601D01*
X116585966Y-56947740D01*
X116600500Y-56874674D01*
X116600500Y-55395544D01*
X116620185Y-55328505D01*
X116672989Y-55282750D01*
X116742147Y-55272806D01*
X116805703Y-55301831D01*
G37*
%TD.AperFunction*%
%TA.AperFunction,Conductor*%
G36*
X142504418Y-49500816D02*
G01*
X142704561Y-49515130D01*
X142722063Y-49517647D01*
X142913797Y-49559355D01*
X142930755Y-49564334D01*
X143114609Y-49632909D01*
X143130701Y-49640259D01*
X143302904Y-49734288D01*
X143317784Y-49743849D01*
X143474867Y-49861441D01*
X143488237Y-49873027D01*
X143626972Y-50011762D01*
X143638558Y-50025132D01*
X143756146Y-50182210D01*
X143765711Y-50197095D01*
X143859740Y-50369298D01*
X143867090Y-50385390D01*
X143935662Y-50569236D01*
X143940646Y-50586212D01*
X143982351Y-50777931D01*
X143984869Y-50795442D01*
X143994785Y-50934075D01*
X143997894Y-50977552D01*
X143999184Y-50995580D01*
X143999500Y-51004427D01*
X143999500Y-96995572D01*
X143999184Y-97004419D01*
X143984869Y-97204557D01*
X143982351Y-97222068D01*
X143940646Y-97413787D01*
X143935662Y-97430763D01*
X143867090Y-97614609D01*
X143859740Y-97630701D01*
X143765711Y-97802904D01*
X143756146Y-97817789D01*
X143638558Y-97974867D01*
X143626972Y-97988237D01*
X143488237Y-98126972D01*
X143474867Y-98138558D01*
X143317789Y-98256146D01*
X143302904Y-98265711D01*
X143130701Y-98359740D01*
X143114609Y-98367090D01*
X142930763Y-98435662D01*
X142913787Y-98440646D01*
X142722068Y-98482351D01*
X142704557Y-98484869D01*
X142523779Y-98497799D01*
X142504417Y-98499184D01*
X142495572Y-98499500D01*
X96504428Y-98499500D01*
X96495582Y-98499184D01*
X96473622Y-98497613D01*
X96295442Y-98484869D01*
X96277931Y-98482351D01*
X96086212Y-98440646D01*
X96069236Y-98435662D01*
X95885390Y-98367090D01*
X95869298Y-98359740D01*
X95697095Y-98265711D01*
X95682210Y-98256146D01*
X95525132Y-98138558D01*
X95511762Y-98126972D01*
X95373027Y-97988237D01*
X95361441Y-97974867D01*
X95336262Y-97941232D01*
X95243849Y-97817784D01*
X95234288Y-97802904D01*
X95140259Y-97630701D01*
X95132909Y-97614609D01*
X95118802Y-97576788D01*
X95064334Y-97430755D01*
X95059355Y-97413797D01*
X95017647Y-97222063D01*
X95015130Y-97204556D01*
X95006694Y-97086611D01*
X95000816Y-97004418D01*
X95000500Y-96995572D01*
X95000500Y-95105205D01*
X100850000Y-95105205D01*
X100850000Y-95850000D01*
X101522555Y-95850000D01*
X101500000Y-95934174D01*
X101500000Y-96065826D01*
X101522555Y-96150000D01*
X100850001Y-96150000D01*
X100850001Y-96894785D01*
X100850002Y-96894808D01*
X100852908Y-96919869D01*
X100852909Y-96919873D01*
X100898211Y-97022474D01*
X100898214Y-97022479D01*
X100977520Y-97101785D01*
X100977525Y-97101788D01*
X101080123Y-97147089D01*
X101105206Y-97149999D01*
X101849999Y-97149999D01*
X101850000Y-97149998D01*
X101850000Y-96477445D01*
X101934174Y-96500000D01*
X102065826Y-96500000D01*
X102150000Y-96477445D01*
X102150000Y-97149999D01*
X102894786Y-97149999D01*
X102894808Y-97149997D01*
X102919869Y-97147091D01*
X102919873Y-97147090D01*
X103022474Y-97101788D01*
X103022479Y-97101785D01*
X103101785Y-97022479D01*
X103101788Y-97022474D01*
X103147089Y-96919877D01*
X103147089Y-96919875D01*
X103149999Y-96894794D01*
X103150000Y-96894791D01*
X103150000Y-96150000D01*
X102477445Y-96150000D01*
X102484058Y-96125321D01*
X105589500Y-96125321D01*
X105589500Y-97874678D01*
X105604032Y-97947735D01*
X105604033Y-97947739D01*
X105604034Y-97947740D01*
X105659399Y-98030601D01*
X105742260Y-98085966D01*
X105742264Y-98085967D01*
X105815321Y-98100499D01*
X105815324Y-98100500D01*
X105815326Y-98100500D01*
X107564676Y-98100500D01*
X107564677Y-98100499D01*
X107637740Y-98085966D01*
X107720601Y-98030601D01*
X107775966Y-97947740D01*
X107790500Y-97874674D01*
X107790500Y-96913389D01*
X108129500Y-96913389D01*
X108129500Y-97086610D01*
X108149581Y-97213401D01*
X108156598Y-97257701D01*
X108210127Y-97422445D01*
X108288768Y-97576788D01*
X108390586Y-97716928D01*
X108513072Y-97839414D01*
X108653212Y-97941232D01*
X108807555Y-98019873D01*
X108972299Y-98073402D01*
X109143389Y-98100500D01*
X109143390Y-98100500D01*
X109316610Y-98100500D01*
X109316611Y-98100500D01*
X109487701Y-98073402D01*
X109652445Y-98019873D01*
X109806788Y-97941232D01*
X109946928Y-97839414D01*
X110069414Y-97716928D01*
X110171232Y-97576788D01*
X110249873Y-97422445D01*
X110303402Y-97257701D01*
X110330500Y-97086611D01*
X110330500Y-96913389D01*
X110669500Y-96913389D01*
X110669500Y-97086610D01*
X110689581Y-97213401D01*
X110696598Y-97257701D01*
X110750127Y-97422445D01*
X110828768Y-97576788D01*
X110930586Y-97716928D01*
X111053072Y-97839414D01*
X111193212Y-97941232D01*
X111347555Y-98019873D01*
X111512299Y-98073402D01*
X111683389Y-98100500D01*
X111683390Y-98100500D01*
X111856610Y-98100500D01*
X111856611Y-98100500D01*
X112027701Y-98073402D01*
X112192445Y-98019873D01*
X112346788Y-97941232D01*
X112486928Y-97839414D01*
X112609414Y-97716928D01*
X112711232Y-97576788D01*
X112789873Y-97422445D01*
X112843402Y-97257701D01*
X112870500Y-97086611D01*
X112870500Y-96913389D01*
X112869883Y-96909493D01*
X113160000Y-96909493D01*
X113160000Y-97090506D01*
X113188317Y-97269293D01*
X113244251Y-97441444D01*
X113244252Y-97441447D01*
X113326432Y-97602731D01*
X113397424Y-97700442D01*
X113397425Y-97700443D01*
X113866329Y-97231538D01*
X113909901Y-97307007D01*
X114002993Y-97400099D01*
X114078460Y-97443670D01*
X113609555Y-97912574D01*
X113707268Y-97983567D01*
X113868552Y-98065747D01*
X113868555Y-98065748D01*
X114040706Y-98121682D01*
X114219494Y-98150000D01*
X114400506Y-98150000D01*
X114579293Y-98121682D01*
X114751444Y-98065748D01*
X114751447Y-98065747D01*
X114912730Y-97983568D01*
X115010442Y-97912574D01*
X115010443Y-97912574D01*
X114541539Y-97443670D01*
X114617007Y-97400099D01*
X114710099Y-97307007D01*
X114753670Y-97231539D01*
X115222574Y-97700443D01*
X115222574Y-97700442D01*
X115293568Y-97602730D01*
X115375747Y-97441447D01*
X115375748Y-97441444D01*
X115431682Y-97269293D01*
X115460000Y-97090506D01*
X115460000Y-96909493D01*
X115431682Y-96730706D01*
X115375748Y-96558555D01*
X115375747Y-96558552D01*
X115293567Y-96397268D01*
X115222574Y-96299556D01*
X115222574Y-96299555D01*
X114753670Y-96768460D01*
X114710099Y-96692993D01*
X114617007Y-96599901D01*
X114541538Y-96556329D01*
X114972546Y-96125321D01*
X119319500Y-96125321D01*
X119319500Y-97874678D01*
X119334032Y-97947735D01*
X119334033Y-97947739D01*
X119334034Y-97947740D01*
X119389399Y-98030601D01*
X119472260Y-98085966D01*
X119472264Y-98085967D01*
X119545321Y-98100499D01*
X119545324Y-98100500D01*
X119545326Y-98100500D01*
X121294676Y-98100500D01*
X121294677Y-98100499D01*
X121367740Y-98085966D01*
X121450601Y-98030601D01*
X121505966Y-97947740D01*
X121520500Y-97874674D01*
X121520500Y-96913389D01*
X121859500Y-96913389D01*
X121859500Y-97086610D01*
X121879581Y-97213401D01*
X121886598Y-97257701D01*
X121940127Y-97422445D01*
X122018768Y-97576788D01*
X122120586Y-97716928D01*
X122243072Y-97839414D01*
X122383212Y-97941232D01*
X122537555Y-98019873D01*
X122702299Y-98073402D01*
X122873389Y-98100500D01*
X122873390Y-98100500D01*
X123046610Y-98100500D01*
X123046611Y-98100500D01*
X123217701Y-98073402D01*
X123382445Y-98019873D01*
X123536788Y-97941232D01*
X123676928Y-97839414D01*
X123799414Y-97716928D01*
X123901232Y-97576788D01*
X123979873Y-97422445D01*
X124033402Y-97257701D01*
X124060500Y-97086611D01*
X124060500Y-96913389D01*
X124399500Y-96913389D01*
X124399500Y-97086610D01*
X124419581Y-97213401D01*
X124426598Y-97257701D01*
X124480127Y-97422445D01*
X124558768Y-97576788D01*
X124660586Y-97716928D01*
X124783072Y-97839414D01*
X124923212Y-97941232D01*
X125077555Y-98019873D01*
X125242299Y-98073402D01*
X125413389Y-98100500D01*
X125413390Y-98100500D01*
X125586610Y-98100500D01*
X125586611Y-98100500D01*
X125757701Y-98073402D01*
X125922445Y-98019873D01*
X126076788Y-97941232D01*
X126216928Y-97839414D01*
X126339414Y-97716928D01*
X126441232Y-97576788D01*
X126519873Y-97422445D01*
X126573402Y-97257701D01*
X126600500Y-97086611D01*
X126600500Y-96913389D01*
X126599883Y-96909493D01*
X126890000Y-96909493D01*
X126890000Y-97090506D01*
X126918317Y-97269293D01*
X126974251Y-97441444D01*
X126974252Y-97441447D01*
X127056432Y-97602731D01*
X127127424Y-97700442D01*
X127127425Y-97700443D01*
X127596329Y-97231538D01*
X127639901Y-97307007D01*
X127732993Y-97400099D01*
X127808460Y-97443670D01*
X127339555Y-97912574D01*
X127437268Y-97983567D01*
X127598552Y-98065747D01*
X127598555Y-98065748D01*
X127770706Y-98121682D01*
X127949494Y-98150000D01*
X128130506Y-98150000D01*
X128309293Y-98121682D01*
X128481444Y-98065748D01*
X128481447Y-98065747D01*
X128642730Y-97983568D01*
X128740442Y-97912574D01*
X128740443Y-97912574D01*
X128271539Y-97443670D01*
X128347007Y-97400099D01*
X128440099Y-97307007D01*
X128483670Y-97231538D01*
X128952574Y-97700443D01*
X128952574Y-97700442D01*
X129023568Y-97602730D01*
X129105747Y-97441447D01*
X129105748Y-97441444D01*
X129161682Y-97269293D01*
X129190000Y-97090506D01*
X129190000Y-96909493D01*
X129161682Y-96730706D01*
X129105748Y-96558555D01*
X129105747Y-96558552D01*
X129023567Y-96397268D01*
X128952574Y-96299556D01*
X128952574Y-96299555D01*
X128483670Y-96768460D01*
X128440099Y-96692993D01*
X128347007Y-96599901D01*
X128271538Y-96556329D01*
X128740442Y-96087425D01*
X128740442Y-96087424D01*
X128642731Y-96016432D01*
X128481447Y-95934252D01*
X128481444Y-95934251D01*
X128309293Y-95878317D01*
X128130506Y-95850000D01*
X127949494Y-95850000D01*
X127770706Y-95878317D01*
X127598555Y-95934251D01*
X127598552Y-95934252D01*
X127437265Y-96016434D01*
X127339556Y-96087423D01*
X127339556Y-96087425D01*
X127808461Y-96556329D01*
X127732993Y-96599901D01*
X127639901Y-96692993D01*
X127596329Y-96768460D01*
X127127425Y-96299556D01*
X127127423Y-96299556D01*
X127056434Y-96397265D01*
X126974252Y-96558552D01*
X126974251Y-96558555D01*
X126918317Y-96730706D01*
X126890000Y-96909493D01*
X126599883Y-96909493D01*
X126573402Y-96742299D01*
X126519873Y-96577555D01*
X126441232Y-96423212D01*
X126339414Y-96283072D01*
X126216928Y-96160586D01*
X126076788Y-96058768D01*
X125922445Y-95980127D01*
X125757701Y-95926598D01*
X125757699Y-95926597D01*
X125757698Y-95926597D01*
X125626271Y-95905781D01*
X125586611Y-95899500D01*
X125413389Y-95899500D01*
X125373728Y-95905781D01*
X125242302Y-95926597D01*
X125077552Y-95980128D01*
X124923211Y-96058768D01*
X124883769Y-96087425D01*
X124783072Y-96160586D01*
X124783070Y-96160588D01*
X124783069Y-96160588D01*
X124660588Y-96283069D01*
X124660588Y-96283070D01*
X124660586Y-96283072D01*
X124648610Y-96299556D01*
X124558768Y-96423211D01*
X124480128Y-96577552D01*
X124426597Y-96742302D01*
X124399500Y-96913389D01*
X124060500Y-96913389D01*
X124033402Y-96742299D01*
X123979873Y-96577555D01*
X123901232Y-96423212D01*
X123799414Y-96283072D01*
X123676928Y-96160586D01*
X123536788Y-96058768D01*
X123382445Y-95980127D01*
X123217701Y-95926598D01*
X123217699Y-95926597D01*
X123217698Y-95926597D01*
X123086271Y-95905781D01*
X123046611Y-95899500D01*
X122873389Y-95899500D01*
X122833728Y-95905781D01*
X122702302Y-95926597D01*
X122537552Y-95980128D01*
X122383211Y-96058768D01*
X122343769Y-96087425D01*
X122243072Y-96160586D01*
X122243070Y-96160588D01*
X122243069Y-96160588D01*
X122120588Y-96283069D01*
X122120588Y-96283070D01*
X122120586Y-96283072D01*
X122108610Y-96299556D01*
X122018768Y-96423211D01*
X121940128Y-96577552D01*
X121886597Y-96742302D01*
X121859500Y-96913389D01*
X121520500Y-96913389D01*
X121520500Y-96125326D01*
X121520500Y-96125323D01*
X121520499Y-96125321D01*
X121505967Y-96052264D01*
X121505966Y-96052260D01*
X121482028Y-96016434D01*
X121450601Y-95969399D01*
X121367740Y-95914034D01*
X121367739Y-95914033D01*
X121367735Y-95914032D01*
X121294677Y-95899500D01*
X121294674Y-95899500D01*
X119545326Y-95899500D01*
X119545323Y-95899500D01*
X119472264Y-95914032D01*
X119472260Y-95914033D01*
X119389399Y-95969399D01*
X119334033Y-96052260D01*
X119334032Y-96052264D01*
X119319500Y-96125321D01*
X114972546Y-96125321D01*
X115010442Y-96087425D01*
X115010442Y-96087424D01*
X114912731Y-96016432D01*
X114751447Y-95934252D01*
X114751444Y-95934251D01*
X114579293Y-95878317D01*
X114400506Y-95850000D01*
X114219494Y-95850000D01*
X114040706Y-95878317D01*
X113868555Y-95934251D01*
X113868552Y-95934252D01*
X113707265Y-96016434D01*
X113609556Y-96087423D01*
X113609556Y-96087425D01*
X114078461Y-96556329D01*
X114002993Y-96599901D01*
X113909901Y-96692993D01*
X113866329Y-96768460D01*
X113397425Y-96299556D01*
X113397423Y-96299556D01*
X113326434Y-96397265D01*
X113244252Y-96558552D01*
X113244251Y-96558555D01*
X113188317Y-96730706D01*
X113160000Y-96909493D01*
X112869883Y-96909493D01*
X112843402Y-96742299D01*
X112789873Y-96577555D01*
X112711232Y-96423212D01*
X112609414Y-96283072D01*
X112486928Y-96160586D01*
X112346788Y-96058768D01*
X112192445Y-95980127D01*
X112027701Y-95926598D01*
X112027699Y-95926597D01*
X112027698Y-95926597D01*
X111896271Y-95905781D01*
X111856611Y-95899500D01*
X111683389Y-95899500D01*
X111643728Y-95905781D01*
X111512302Y-95926597D01*
X111347552Y-95980128D01*
X111193211Y-96058768D01*
X111153769Y-96087425D01*
X111053072Y-96160586D01*
X111053070Y-96160588D01*
X111053069Y-96160588D01*
X110930588Y-96283069D01*
X110930588Y-96283070D01*
X110930586Y-96283072D01*
X110918610Y-96299556D01*
X110828768Y-96423211D01*
X110750128Y-96577552D01*
X110696597Y-96742302D01*
X110669500Y-96913389D01*
X110330500Y-96913389D01*
X110303402Y-96742299D01*
X110249873Y-96577555D01*
X110171232Y-96423212D01*
X110069414Y-96283072D01*
X109946928Y-96160586D01*
X109806788Y-96058768D01*
X109652445Y-95980127D01*
X109487701Y-95926598D01*
X109487699Y-95926597D01*
X109487698Y-95926597D01*
X109356271Y-95905781D01*
X109316611Y-95899500D01*
X109143389Y-95899500D01*
X109103728Y-95905781D01*
X108972302Y-95926597D01*
X108807552Y-95980128D01*
X108653211Y-96058768D01*
X108613769Y-96087425D01*
X108513072Y-96160586D01*
X108513070Y-96160588D01*
X108513069Y-96160588D01*
X108390588Y-96283069D01*
X108390588Y-96283070D01*
X108390586Y-96283072D01*
X108378610Y-96299556D01*
X108288768Y-96423211D01*
X108210128Y-96577552D01*
X108156597Y-96742302D01*
X108129500Y-96913389D01*
X107790500Y-96913389D01*
X107790500Y-96125326D01*
X107790500Y-96125323D01*
X107790499Y-96125321D01*
X107775967Y-96052264D01*
X107775966Y-96052260D01*
X107752028Y-96016434D01*
X107720601Y-95969399D01*
X107637740Y-95914034D01*
X107637739Y-95914033D01*
X107637735Y-95914032D01*
X107564677Y-95899500D01*
X107564674Y-95899500D01*
X105815326Y-95899500D01*
X105815323Y-95899500D01*
X105742264Y-95914032D01*
X105742260Y-95914033D01*
X105659399Y-95969399D01*
X105604033Y-96052260D01*
X105604032Y-96052264D01*
X105589500Y-96125321D01*
X102484058Y-96125321D01*
X102500000Y-96065826D01*
X102500000Y-95934174D01*
X102477445Y-95850000D01*
X103149999Y-95850000D01*
X103149999Y-95105205D01*
X135850000Y-95105205D01*
X135850000Y-95850000D01*
X136522555Y-95850000D01*
X136500000Y-95934174D01*
X136500000Y-96065826D01*
X136522555Y-96150000D01*
X135850001Y-96150000D01*
X135850001Y-96894785D01*
X135850002Y-96894808D01*
X135852908Y-96919869D01*
X135852909Y-96919873D01*
X135898211Y-97022474D01*
X135898214Y-97022479D01*
X135977520Y-97101785D01*
X135977525Y-97101788D01*
X136080123Y-97147089D01*
X136105206Y-97149999D01*
X136849999Y-97149999D01*
X136850000Y-97149998D01*
X136850000Y-96477445D01*
X136934174Y-96500000D01*
X137065826Y-96500000D01*
X137150000Y-96477445D01*
X137150000Y-97149999D01*
X137894786Y-97149999D01*
X137894808Y-97149997D01*
X137919869Y-97147091D01*
X137919873Y-97147090D01*
X138022474Y-97101788D01*
X138022479Y-97101785D01*
X138101785Y-97022479D01*
X138101788Y-97022474D01*
X138147089Y-96919877D01*
X138147089Y-96919875D01*
X138149999Y-96894794D01*
X138150000Y-96894791D01*
X138150000Y-96150000D01*
X137477445Y-96150000D01*
X137500000Y-96065826D01*
X137500000Y-95934174D01*
X137477445Y-95850000D01*
X138149999Y-95850000D01*
X138149999Y-95105214D01*
X138149997Y-95105191D01*
X138147091Y-95080130D01*
X138147090Y-95080126D01*
X138101788Y-94977525D01*
X138101785Y-94977520D01*
X138022479Y-94898214D01*
X138022474Y-94898211D01*
X137919876Y-94852910D01*
X137894794Y-94850000D01*
X137150000Y-94850000D01*
X137150000Y-95522554D01*
X137065826Y-95500000D01*
X136934174Y-95500000D01*
X136850000Y-95522554D01*
X136850000Y-94850000D01*
X136105214Y-94850000D01*
X136105191Y-94850002D01*
X136080130Y-94852908D01*
X136080126Y-94852909D01*
X135977525Y-94898211D01*
X135977520Y-94898214D01*
X135898214Y-94977520D01*
X135898211Y-94977525D01*
X135852910Y-95080122D01*
X135852910Y-95080124D01*
X135850000Y-95105205D01*
X103149999Y-95105205D01*
X103149999Y-95105202D01*
X103147091Y-95080130D01*
X103147090Y-95080126D01*
X103101788Y-94977525D01*
X103101785Y-94977520D01*
X103022479Y-94898214D01*
X103022474Y-94898211D01*
X102919876Y-94852910D01*
X102894794Y-94850000D01*
X102150000Y-94850000D01*
X102150000Y-95522554D01*
X102065826Y-95500000D01*
X101934174Y-95500000D01*
X101850000Y-95522554D01*
X101850000Y-94850000D01*
X101105214Y-94850000D01*
X101105191Y-94850002D01*
X101080130Y-94852908D01*
X101080126Y-94852909D01*
X100977525Y-94898211D01*
X100977520Y-94898214D01*
X100898214Y-94977520D01*
X100898211Y-94977525D01*
X100852910Y-95080122D01*
X100852910Y-95080124D01*
X100850000Y-95105205D01*
X95000500Y-95105205D01*
X95000500Y-91105205D01*
X99350000Y-91105205D01*
X99350000Y-91850000D01*
X100022555Y-91850000D01*
X100000000Y-91934174D01*
X100000000Y-92065826D01*
X100022555Y-92150000D01*
X99350001Y-92150000D01*
X99350001Y-92894785D01*
X99350002Y-92894808D01*
X99352908Y-92919869D01*
X99352909Y-92919873D01*
X99398211Y-93022474D01*
X99398214Y-93022479D01*
X99477520Y-93101785D01*
X99477525Y-93101788D01*
X99580123Y-93147089D01*
X99605206Y-93149999D01*
X100349999Y-93149999D01*
X100350000Y-93149998D01*
X100350000Y-92477445D01*
X100434174Y-92500000D01*
X100565826Y-92500000D01*
X100650000Y-92477445D01*
X100650000Y-93149999D01*
X101394786Y-93149999D01*
X101394808Y-93149997D01*
X101419869Y-93147091D01*
X101419873Y-93147090D01*
X101522474Y-93101788D01*
X101522479Y-93101785D01*
X101601785Y-93022479D01*
X101601788Y-93022474D01*
X101647089Y-92919877D01*
X101647089Y-92919875D01*
X101649999Y-92894794D01*
X101650000Y-92894791D01*
X101650000Y-92150000D01*
X100977445Y-92150000D01*
X101000000Y-92065826D01*
X101000000Y-91934174D01*
X100977445Y-91850000D01*
X101649999Y-91850000D01*
X101649999Y-91105214D01*
X101649997Y-91105191D01*
X101647091Y-91080130D01*
X101647090Y-91080126D01*
X101601788Y-90977525D01*
X101601785Y-90977520D01*
X101522479Y-90898214D01*
X101522474Y-90898211D01*
X101419876Y-90852910D01*
X101394794Y-90850000D01*
X100650000Y-90850000D01*
X100650000Y-91522554D01*
X100565826Y-91500000D01*
X100434174Y-91500000D01*
X100350000Y-91522554D01*
X100350000Y-90850000D01*
X99605214Y-90850000D01*
X99605191Y-90850002D01*
X99580130Y-90852908D01*
X99580126Y-90852909D01*
X99477525Y-90898211D01*
X99477520Y-90898214D01*
X99398214Y-90977520D01*
X99398211Y-90977525D01*
X99352910Y-91080122D01*
X99352910Y-91080124D01*
X99350000Y-91105205D01*
X95000500Y-91105205D01*
X95000500Y-82625321D01*
X95399500Y-82625321D01*
X95399500Y-84374678D01*
X95414032Y-84447735D01*
X95414033Y-84447739D01*
X95414034Y-84447740D01*
X95469399Y-84530601D01*
X95552260Y-84585966D01*
X95552264Y-84585967D01*
X95625321Y-84600499D01*
X95625324Y-84600500D01*
X95625326Y-84600500D01*
X97053456Y-84600500D01*
X97120495Y-84620185D01*
X97141137Y-84636819D01*
X98766169Y-86261851D01*
X98799654Y-86323174D01*
X98794670Y-86392866D01*
X98752798Y-86448799D01*
X98687334Y-86473216D01*
X98646395Y-86469307D01*
X98638243Y-86467122D01*
X98572475Y-86449500D01*
X98427525Y-86449500D01*
X98298993Y-86483940D01*
X98287511Y-86487017D01*
X98161988Y-86559488D01*
X98161982Y-86559493D01*
X98059493Y-86661982D01*
X98059488Y-86661988D01*
X97987017Y-86787511D01*
X97987016Y-86787515D01*
X97949500Y-86927525D01*
X97949500Y-87072475D01*
X97987016Y-87212485D01*
X97987017Y-87212488D01*
X98059488Y-87338011D01*
X98059490Y-87338013D01*
X98059491Y-87338015D01*
X98161985Y-87440509D01*
X98161986Y-87440510D01*
X98161988Y-87440511D01*
X98287511Y-87512982D01*
X98287512Y-87512982D01*
X98287515Y-87512984D01*
X98427525Y-87550500D01*
X98427528Y-87550500D01*
X98572472Y-87550500D01*
X98572475Y-87550500D01*
X98712485Y-87512984D01*
X98838015Y-87440509D01*
X98940509Y-87338015D01*
X99012984Y-87212485D01*
X99050500Y-87072475D01*
X99050500Y-86927525D01*
X99012984Y-86787515D01*
X99012982Y-86787511D01*
X99010880Y-86779665D01*
X99014012Y-86778825D01*
X99008174Y-86724434D01*
X99039460Y-86661961D01*
X99099555Y-86626319D01*
X99162294Y-86626697D01*
X99165708Y-86627611D01*
X99165712Y-86627614D01*
X99254856Y-86651500D01*
X106570614Y-86651500D01*
X106637653Y-86671185D01*
X106683408Y-86723989D01*
X106693352Y-86793147D01*
X106664327Y-86856703D01*
X106659880Y-86861478D01*
X106659488Y-86861988D01*
X106587017Y-86987511D01*
X106587016Y-86987515D01*
X106549500Y-87127525D01*
X106549500Y-87272475D01*
X106587016Y-87412485D01*
X106587017Y-87412488D01*
X106659488Y-87538011D01*
X106659490Y-87538013D01*
X106659491Y-87538015D01*
X106761985Y-87640509D01*
X106885480Y-87711809D01*
X106887659Y-87713067D01*
X106935875Y-87763634D01*
X106949098Y-87832241D01*
X106923130Y-87897106D01*
X106913341Y-87908135D01*
X106859488Y-87961988D01*
X106787017Y-88087511D01*
X106787016Y-88087515D01*
X106749500Y-88227525D01*
X106749500Y-88227527D01*
X106749500Y-88303456D01*
X106740855Y-88332893D01*
X106734332Y-88362884D01*
X106730576Y-88367900D01*
X106729815Y-88370495D01*
X106713185Y-88391132D01*
X106675465Y-88428853D01*
X106643324Y-88460994D01*
X106582000Y-88494478D01*
X106512309Y-88489493D01*
X106456375Y-88447622D01*
X106442976Y-88417576D01*
X106440640Y-88418544D01*
X106435966Y-88407260D01*
X106432625Y-88402260D01*
X106380601Y-88324399D01*
X106297740Y-88269034D01*
X106297739Y-88269033D01*
X106297735Y-88269032D01*
X106224677Y-88254500D01*
X106224674Y-88254500D01*
X104375326Y-88254500D01*
X104375323Y-88254500D01*
X104302264Y-88269032D01*
X104302260Y-88269033D01*
X104219399Y-88324399D01*
X104164033Y-88407260D01*
X104164032Y-88407264D01*
X104149500Y-88480321D01*
X104149500Y-89331500D01*
X104129815Y-89398539D01*
X104077011Y-89444294D01*
X104025500Y-89455500D01*
X101502544Y-89455500D01*
X101435505Y-89435815D01*
X101414863Y-89419181D01*
X100086819Y-88091137D01*
X100053334Y-88029814D01*
X100050500Y-88003456D01*
X100050500Y-87927527D01*
X100050500Y-87927525D01*
X100012984Y-87787515D01*
X100012647Y-87786932D01*
X99940511Y-87661988D01*
X99940506Y-87661982D01*
X99838017Y-87559493D01*
X99838011Y-87559488D01*
X99712488Y-87487017D01*
X99712489Y-87487017D01*
X99701006Y-87483940D01*
X99572475Y-87449500D01*
X99427525Y-87449500D01*
X99298993Y-87483940D01*
X99287511Y-87487017D01*
X99161988Y-87559488D01*
X99161982Y-87559493D01*
X99059493Y-87661982D01*
X99059488Y-87661988D01*
X98987017Y-87787511D01*
X98987016Y-87787515D01*
X98949500Y-87927525D01*
X98949500Y-88072475D01*
X98970139Y-88149500D01*
X98987017Y-88212488D01*
X99059488Y-88338011D01*
X99059493Y-88338017D01*
X99133795Y-88412319D01*
X99167280Y-88473642D01*
X99162296Y-88543334D01*
X99133795Y-88587681D01*
X99059493Y-88661982D01*
X99059488Y-88661988D01*
X98987017Y-88787511D01*
X98987016Y-88787515D01*
X98949500Y-88927525D01*
X98949500Y-89072475D01*
X98987016Y-89212485D01*
X98987017Y-89212488D01*
X99059488Y-89338011D01*
X99059490Y-89338013D01*
X99059491Y-89338015D01*
X99161985Y-89440509D01*
X99161986Y-89440510D01*
X99161988Y-89440511D01*
X99287511Y-89512982D01*
X99287512Y-89512982D01*
X99287515Y-89512984D01*
X99427525Y-89550500D01*
X99503456Y-89550500D01*
X99570495Y-89570185D01*
X99591137Y-89586819D01*
X100491788Y-90487470D01*
X100491790Y-90487471D01*
X100491794Y-90487474D01*
X100551943Y-90522201D01*
X100551944Y-90522201D01*
X100571712Y-90533614D01*
X100660856Y-90557500D01*
X100660858Y-90557500D01*
X112019241Y-90557500D01*
X112019243Y-90557500D01*
X112108387Y-90533614D01*
X112128155Y-90522201D01*
X112128156Y-90522201D01*
X112188304Y-90487474D01*
X112188303Y-90487474D01*
X112188311Y-90487470D01*
X113917902Y-88757877D01*
X113979223Y-88724394D01*
X114048914Y-88729378D01*
X114104848Y-88771250D01*
X114112967Y-88783558D01*
X114123802Y-88802325D01*
X114123804Y-88802327D01*
X114123805Y-88802329D01*
X114226299Y-88904823D01*
X114226300Y-88904824D01*
X114226302Y-88904825D01*
X114351825Y-88977296D01*
X114351826Y-88977296D01*
X114351829Y-88977298D01*
X114491839Y-89014814D01*
X114491842Y-89014814D01*
X114636786Y-89014814D01*
X114636789Y-89014814D01*
X114776799Y-88977298D01*
X114902329Y-88904823D01*
X115004823Y-88802329D01*
X115077298Y-88676799D01*
X115090501Y-88627525D01*
X120449500Y-88627525D01*
X120449500Y-88772475D01*
X120487016Y-88912485D01*
X120487017Y-88912488D01*
X120559488Y-89038011D01*
X120559490Y-89038013D01*
X120559491Y-89038015D01*
X120661985Y-89140509D01*
X120661986Y-89140510D01*
X120661988Y-89140511D01*
X120787511Y-89212982D01*
X120787512Y-89212982D01*
X120787515Y-89212984D01*
X120927525Y-89250500D01*
X120927528Y-89250500D01*
X121072472Y-89250500D01*
X121072475Y-89250500D01*
X121212485Y-89212984D01*
X121338015Y-89140509D01*
X121440509Y-89038015D01*
X121512984Y-88912485D01*
X121550500Y-88772475D01*
X121550500Y-88627525D01*
X121512984Y-88487515D01*
X121508833Y-88480326D01*
X121440511Y-88361988D01*
X121440506Y-88361982D01*
X121338017Y-88259493D01*
X121338011Y-88259488D01*
X121212488Y-88187017D01*
X121212489Y-88187017D01*
X121193090Y-88181819D01*
X121072475Y-88149500D01*
X120927525Y-88149500D01*
X120806910Y-88181819D01*
X120787511Y-88187017D01*
X120661988Y-88259488D01*
X120661982Y-88259493D01*
X120559493Y-88361982D01*
X120559488Y-88361988D01*
X120487017Y-88487511D01*
X120487016Y-88487515D01*
X120449500Y-88627525D01*
X115090501Y-88627525D01*
X115114814Y-88536789D01*
X115114814Y-88391839D01*
X115077298Y-88251829D01*
X115075953Y-88249500D01*
X115004825Y-88126302D01*
X115004820Y-88126296D01*
X114902331Y-88023807D01*
X114902325Y-88023802D01*
X114883558Y-88012967D01*
X114835343Y-87962399D01*
X114822122Y-87893791D01*
X114848091Y-87828927D01*
X114857870Y-87817909D01*
X120700825Y-81974956D01*
X120762148Y-81941471D01*
X120788506Y-81938637D01*
X120864434Y-81938637D01*
X120864437Y-81938637D01*
X121004447Y-81901121D01*
X121129977Y-81828646D01*
X121232471Y-81726152D01*
X121304946Y-81600622D01*
X121342462Y-81460612D01*
X121342462Y-81315662D01*
X121304946Y-81175652D01*
X121298238Y-81164034D01*
X121232473Y-81050125D01*
X121232468Y-81050119D01*
X121129979Y-80947630D01*
X121129973Y-80947625D01*
X121004450Y-80875154D01*
X121004451Y-80875154D01*
X120992968Y-80872077D01*
X120864437Y-80837637D01*
X120719487Y-80837637D01*
X120579477Y-80875153D01*
X120579476Y-80875153D01*
X120579474Y-80875154D01*
X120534574Y-80901077D01*
X120466674Y-80917549D01*
X120400647Y-80894696D01*
X120384894Y-80881370D01*
X120338017Y-80834493D01*
X120338011Y-80834488D01*
X120212488Y-80762017D01*
X120212489Y-80762017D01*
X120200181Y-80758719D01*
X120072475Y-80724500D01*
X119927525Y-80724500D01*
X119799819Y-80758719D01*
X119787511Y-80762017D01*
X119661988Y-80834488D01*
X119661982Y-80834493D01*
X119559493Y-80936982D01*
X119559488Y-80936988D01*
X119487017Y-81062511D01*
X119487016Y-81062515D01*
X119449500Y-81202525D01*
X119449500Y-81202527D01*
X119449500Y-81278456D01*
X119429815Y-81345495D01*
X119413181Y-81366137D01*
X111360137Y-89419181D01*
X111298814Y-89452666D01*
X111272456Y-89455500D01*
X106939544Y-89455500D01*
X106872505Y-89435815D01*
X106826750Y-89383011D01*
X106816806Y-89313853D01*
X106845831Y-89250297D01*
X106851863Y-89243819D01*
X107208863Y-88886819D01*
X107270186Y-88853334D01*
X107296544Y-88850500D01*
X107372472Y-88850500D01*
X107372475Y-88850500D01*
X107512485Y-88812984D01*
X107638015Y-88740509D01*
X107740509Y-88638015D01*
X107812984Y-88512485D01*
X107850500Y-88372475D01*
X107850500Y-88227525D01*
X107812984Y-88087515D01*
X107806105Y-88075601D01*
X107740511Y-87961988D01*
X107740506Y-87961982D01*
X107638017Y-87859493D01*
X107638015Y-87859491D01*
X107572480Y-87821654D01*
X107512340Y-87786932D01*
X107495082Y-87768833D01*
X107475066Y-87753846D01*
X107471388Y-87743983D01*
X107464124Y-87736365D01*
X107459391Y-87711809D01*
X107450655Y-87688379D01*
X107452893Y-87678092D01*
X107450902Y-87667758D01*
X107460195Y-87644544D01*
X107465514Y-87620107D01*
X107475108Y-87607292D01*
X107476870Y-87602893D01*
X107486651Y-87591872D01*
X107491715Y-87586808D01*
X107553040Y-87553331D01*
X107579386Y-87550500D01*
X107803456Y-87550500D01*
X107870495Y-87570185D01*
X107891137Y-87586819D01*
X108884788Y-88580470D01*
X108887499Y-88582035D01*
X108889329Y-88583954D01*
X108891239Y-88585420D01*
X108891010Y-88585717D01*
X108935715Y-88632602D01*
X108949500Y-88689423D01*
X108949500Y-88824678D01*
X108964032Y-88897735D01*
X108964033Y-88897739D01*
X108968768Y-88904825D01*
X109019399Y-88980601D01*
X109102260Y-89035966D01*
X109102264Y-89035967D01*
X109175321Y-89050499D01*
X109175324Y-89050500D01*
X109175326Y-89050500D01*
X111024676Y-89050500D01*
X111024677Y-89050499D01*
X111097740Y-89035966D01*
X111180601Y-88980601D01*
X111235966Y-88897740D01*
X111250500Y-88824674D01*
X111250500Y-87775326D01*
X111250500Y-87775323D01*
X111250499Y-87775321D01*
X111235967Y-87702264D01*
X111235966Y-87702260D01*
X111222384Y-87681933D01*
X111180601Y-87619399D01*
X111097740Y-87564034D01*
X111097739Y-87564033D01*
X111097735Y-87564032D01*
X111024677Y-87549500D01*
X111024674Y-87549500D01*
X109175326Y-87549500D01*
X109175323Y-87549500D01*
X109102264Y-87564032D01*
X109102258Y-87564034D01*
X109041475Y-87604647D01*
X108974798Y-87625523D01*
X108907418Y-87607037D01*
X108884906Y-87589224D01*
X108215213Y-86919531D01*
X108215212Y-86919530D01*
X108151743Y-86882886D01*
X108103529Y-86832321D01*
X108090305Y-86763714D01*
X108116273Y-86698849D01*
X108173187Y-86658320D01*
X108213744Y-86651500D01*
X113242879Y-86651500D01*
X113242881Y-86651500D01*
X113332025Y-86627614D01*
X113333444Y-86626794D01*
X113333448Y-86626793D01*
X113411942Y-86581474D01*
X113411941Y-86581474D01*
X113411949Y-86581470D01*
X119780470Y-80212949D01*
X119826614Y-80133025D01*
X119829462Y-80122394D01*
X119835598Y-80099499D01*
X119843452Y-80070185D01*
X119850500Y-80043881D01*
X119850500Y-78779386D01*
X119870185Y-78712347D01*
X119886819Y-78691705D01*
X119940509Y-78638015D01*
X120012984Y-78512485D01*
X120050500Y-78372475D01*
X120050500Y-78227525D01*
X120012984Y-78087515D01*
X119984406Y-78038017D01*
X119940511Y-77961988D01*
X119940506Y-77961982D01*
X119838017Y-77859493D01*
X119838011Y-77859488D01*
X119712488Y-77787017D01*
X119712489Y-77787017D01*
X119677154Y-77777549D01*
X119572475Y-77749500D01*
X119427525Y-77749500D01*
X119322846Y-77777549D01*
X119287511Y-77787017D01*
X119161988Y-77859488D01*
X119161982Y-77859493D01*
X119059493Y-77961982D01*
X119059488Y-77961988D01*
X118987017Y-78087511D01*
X118987016Y-78087515D01*
X118949500Y-78227525D01*
X118949500Y-78372475D01*
X118987016Y-78512485D01*
X118987017Y-78512488D01*
X119059488Y-78638011D01*
X119059493Y-78638017D01*
X119113181Y-78691705D01*
X119146666Y-78753028D01*
X119149500Y-78779386D01*
X119149500Y-79801192D01*
X119129815Y-79868231D01*
X119113181Y-79888873D01*
X118270827Y-80731226D01*
X118209504Y-80764711D01*
X118139812Y-80759727D01*
X118083879Y-80717855D01*
X118075760Y-80705547D01*
X118071932Y-80698917D01*
X118064406Y-80685882D01*
X117961912Y-80583388D01*
X117961910Y-80583387D01*
X117961908Y-80583385D01*
X117836385Y-80510914D01*
X117836386Y-80510914D01*
X117824903Y-80507837D01*
X117696372Y-80473397D01*
X117551422Y-80473397D01*
X117422890Y-80507837D01*
X117411408Y-80510914D01*
X117285885Y-80583385D01*
X117285879Y-80583390D01*
X117183390Y-80685879D01*
X117183385Y-80685885D01*
X117110914Y-80811408D01*
X117110913Y-80811412D01*
X117073397Y-80951422D01*
X117073397Y-80951424D01*
X117073397Y-81027352D01*
X117064752Y-81056792D01*
X117058229Y-81086779D01*
X117054474Y-81091794D01*
X117053712Y-81094391D01*
X117037078Y-81115034D01*
X116896044Y-81256067D01*
X116834721Y-81289551D01*
X116765029Y-81284567D01*
X116709096Y-81242695D01*
X116700979Y-81230390D01*
X116690141Y-81211617D01*
X116587647Y-81109123D01*
X116587645Y-81109122D01*
X116587643Y-81109120D01*
X116462120Y-81036649D01*
X116462121Y-81036649D01*
X116427424Y-81027352D01*
X116322107Y-80999132D01*
X116177157Y-80999132D01*
X116071840Y-81027352D01*
X116037143Y-81036649D01*
X115911620Y-81109120D01*
X115911614Y-81109125D01*
X115809125Y-81211614D01*
X115809118Y-81211623D01*
X115754298Y-81306573D01*
X115703731Y-81354788D01*
X115635123Y-81368010D01*
X115570259Y-81342042D01*
X115539525Y-81306572D01*
X115537038Y-81302264D01*
X115477274Y-81198750D01*
X115374780Y-81096256D01*
X115374778Y-81096255D01*
X115374776Y-81096253D01*
X115249253Y-81023782D01*
X115249254Y-81023782D01*
X115237771Y-81020705D01*
X115109240Y-80986265D01*
X115109237Y-80986265D01*
X115033309Y-80986265D01*
X114966270Y-80966580D01*
X114945628Y-80949946D01*
X97207863Y-63212181D01*
X97174378Y-63150858D01*
X97179362Y-63081166D01*
X97221234Y-63025233D01*
X97286698Y-63000816D01*
X97295544Y-63000500D01*
X97574676Y-63000500D01*
X97574677Y-63000499D01*
X97647740Y-62985966D01*
X97730601Y-62930601D01*
X97785966Y-62847740D01*
X97800500Y-62774674D01*
X97800500Y-61025326D01*
X97800500Y-61025323D01*
X97800499Y-61025321D01*
X99199500Y-61025321D01*
X99199500Y-62774678D01*
X99214032Y-62847735D01*
X99214033Y-62847739D01*
X99214034Y-62847740D01*
X99269399Y-62930601D01*
X99352260Y-62985966D01*
X99352264Y-62985967D01*
X99425321Y-63000499D01*
X99425324Y-63000500D01*
X99425326Y-63000500D01*
X99825500Y-63000500D01*
X99892539Y-63020185D01*
X99938294Y-63072989D01*
X99949500Y-63124500D01*
X99949500Y-63630287D01*
X99950841Y-63635290D01*
X99972256Y-63715212D01*
X99972259Y-63715226D01*
X99973385Y-63719431D01*
X100019527Y-63799351D01*
X100019529Y-63799354D01*
X100019530Y-63799355D01*
X112004610Y-75784434D01*
X112069867Y-75849691D01*
X112069870Y-75849692D01*
X112069873Y-75849695D01*
X112149785Y-75895833D01*
X112149786Y-75895833D01*
X112149791Y-75895836D01*
X112238935Y-75919722D01*
X114085234Y-75919722D01*
X114152273Y-75939407D01*
X114198028Y-75992211D01*
X114207972Y-76061369D01*
X114178947Y-76124925D01*
X114172915Y-76131403D01*
X113191137Y-77113181D01*
X113129814Y-77146666D01*
X113103456Y-77149500D01*
X113027525Y-77149500D01*
X112911904Y-77180481D01*
X112887511Y-77187017D01*
X112761988Y-77259488D01*
X112761982Y-77259493D01*
X112659493Y-77361982D01*
X112659488Y-77361988D01*
X112587017Y-77487511D01*
X112587016Y-77487515D01*
X112549500Y-77627525D01*
X112549500Y-77772475D01*
X112583805Y-77900500D01*
X112587017Y-77912488D01*
X112659488Y-78038011D01*
X112659490Y-78038013D01*
X112659491Y-78038015D01*
X112761985Y-78140509D01*
X112761986Y-78140510D01*
X112761988Y-78140511D01*
X112887511Y-78212982D01*
X112887512Y-78212982D01*
X112887515Y-78212984D01*
X113027525Y-78250500D01*
X113027528Y-78250500D01*
X113172472Y-78250500D01*
X113172475Y-78250500D01*
X113312485Y-78212984D01*
X113438015Y-78140509D01*
X113540509Y-78038015D01*
X113612984Y-77912485D01*
X113650500Y-77772475D01*
X113650500Y-77696544D01*
X113670185Y-77629505D01*
X113686819Y-77608863D01*
X114738641Y-76557041D01*
X114799964Y-76523556D01*
X114826322Y-76520722D01*
X116134234Y-76520722D01*
X116155479Y-76526960D01*
X116177568Y-76528540D01*
X116188351Y-76536612D01*
X116201273Y-76540407D01*
X116215772Y-76557140D01*
X116233501Y-76570412D01*
X116238208Y-76583032D01*
X116247028Y-76593211D01*
X116250179Y-76615128D01*
X116257918Y-76635876D01*
X116255055Y-76649036D01*
X116256972Y-76662369D01*
X116247772Y-76682512D01*
X116243066Y-76704149D01*
X116229797Y-76721874D01*
X116227947Y-76725925D01*
X116221915Y-76732403D01*
X116191137Y-76763181D01*
X116129814Y-76796666D01*
X116103456Y-76799500D01*
X116027525Y-76799500D01*
X115898993Y-76833940D01*
X115887511Y-76837017D01*
X115761988Y-76909488D01*
X115761982Y-76909493D01*
X115659493Y-77011982D01*
X115659488Y-77011988D01*
X115587017Y-77137511D01*
X115587016Y-77137515D01*
X115549500Y-77277525D01*
X115549500Y-77422475D01*
X115580818Y-77539353D01*
X115587017Y-77562488D01*
X115659488Y-77688011D01*
X115659490Y-77688013D01*
X115659491Y-77688015D01*
X115761985Y-77790509D01*
X115761986Y-77790510D01*
X115761988Y-77790511D01*
X115887511Y-77862982D01*
X115887512Y-77862982D01*
X115887515Y-77862984D01*
X116027525Y-77900500D01*
X116027528Y-77900500D01*
X116070800Y-77900500D01*
X116137839Y-77920185D01*
X116183594Y-77972989D01*
X116193538Y-78042147D01*
X116164513Y-78105703D01*
X116158481Y-78112181D01*
X116083912Y-78186749D01*
X116083907Y-78186755D01*
X116011436Y-78312278D01*
X116011435Y-78312282D01*
X115973919Y-78452292D01*
X115973919Y-78597242D01*
X116010832Y-78735000D01*
X116011436Y-78737255D01*
X116083907Y-78862778D01*
X116083909Y-78862780D01*
X116083910Y-78862782D01*
X116186404Y-78965276D01*
X116186405Y-78965277D01*
X116186407Y-78965278D01*
X116311930Y-79037749D01*
X116311931Y-79037749D01*
X116311934Y-79037751D01*
X116451944Y-79075267D01*
X116451947Y-79075267D01*
X116596891Y-79075267D01*
X116596894Y-79075267D01*
X116736904Y-79037751D01*
X116862434Y-78965276D01*
X116964928Y-78862782D01*
X117037403Y-78737252D01*
X117074919Y-78597242D01*
X117074919Y-78521311D01*
X117094604Y-78454272D01*
X117111238Y-78433630D01*
X117658049Y-77886819D01*
X117719372Y-77853334D01*
X117745730Y-77850500D01*
X117772472Y-77850500D01*
X117772475Y-77850500D01*
X117912485Y-77812984D01*
X118038015Y-77740509D01*
X118140509Y-77638015D01*
X118212984Y-77512485D01*
X118250500Y-77372475D01*
X118250500Y-77227525D01*
X118244623Y-77205592D01*
X118246286Y-77135743D01*
X118285449Y-77077881D01*
X118349677Y-77050377D01*
X118364398Y-77049500D01*
X119702456Y-77049500D01*
X119769495Y-77069185D01*
X119790137Y-77085819D01*
X123932169Y-81227851D01*
X123965654Y-81289174D01*
X123960670Y-81358866D01*
X123918798Y-81414799D01*
X123906492Y-81422917D01*
X123887723Y-81433753D01*
X123887717Y-81433758D01*
X123785228Y-81536247D01*
X123785223Y-81536253D01*
X123712752Y-81661776D01*
X123712751Y-81661780D01*
X123675235Y-81801790D01*
X123675235Y-81946740D01*
X123705560Y-82059912D01*
X123712752Y-82086753D01*
X123785223Y-82212276D01*
X123785225Y-82212278D01*
X123785226Y-82212280D01*
X123887720Y-82314774D01*
X123887721Y-82314775D01*
X123887723Y-82314776D01*
X124013246Y-82387247D01*
X124013247Y-82387247D01*
X124013250Y-82387249D01*
X124153260Y-82424765D01*
X124153263Y-82424765D01*
X124298207Y-82424765D01*
X124298210Y-82424765D01*
X124438220Y-82387249D01*
X124563750Y-82314774D01*
X124666244Y-82212280D01*
X124677080Y-82193510D01*
X124727646Y-82145296D01*
X124796253Y-82132072D01*
X124861118Y-82158040D01*
X124872148Y-82167830D01*
X125613181Y-82908863D01*
X125646666Y-82970186D01*
X125649500Y-82996544D01*
X125649500Y-84400266D01*
X125629815Y-84467305D01*
X125577011Y-84513060D01*
X125507853Y-84523004D01*
X125456610Y-84503369D01*
X125397739Y-84464033D01*
X125397735Y-84464032D01*
X125324677Y-84449500D01*
X125324674Y-84449500D01*
X123475326Y-84449500D01*
X123475323Y-84449500D01*
X123402264Y-84464032D01*
X123402260Y-84464033D01*
X123319399Y-84519399D01*
X123264033Y-84602260D01*
X123264032Y-84602264D01*
X123249500Y-84675321D01*
X123249500Y-85724678D01*
X123264032Y-85797735D01*
X123264033Y-85797739D01*
X123264034Y-85797740D01*
X123319399Y-85880601D01*
X123388382Y-85926693D01*
X123402260Y-85935966D01*
X123402264Y-85935967D01*
X123475321Y-85950499D01*
X123475324Y-85950500D01*
X123475326Y-85950500D01*
X125324676Y-85950500D01*
X125324677Y-85950499D01*
X125397740Y-85935966D01*
X125456610Y-85896630D01*
X125523287Y-85875753D01*
X125590667Y-85894238D01*
X125637357Y-85946217D01*
X125649500Y-85999733D01*
X125649500Y-86595266D01*
X125629815Y-86662305D01*
X125577011Y-86708060D01*
X125507853Y-86718004D01*
X125456610Y-86698369D01*
X125397739Y-86659033D01*
X125397735Y-86659032D01*
X125324677Y-86644500D01*
X125324674Y-86644500D01*
X123475326Y-86644500D01*
X123475323Y-86644500D01*
X123402264Y-86659032D01*
X123402260Y-86659033D01*
X123319399Y-86714399D01*
X123264033Y-86797260D01*
X123264032Y-86797264D01*
X123249500Y-86870321D01*
X123249500Y-87919678D01*
X123264032Y-87992735D01*
X123264033Y-87992739D01*
X123264034Y-87992740D01*
X123319399Y-88075601D01*
X123395271Y-88126296D01*
X123402260Y-88130966D01*
X123402264Y-88130967D01*
X123475321Y-88145499D01*
X123475324Y-88145500D01*
X123475326Y-88145500D01*
X124298456Y-88145500D01*
X124365495Y-88165185D01*
X124386137Y-88181819D01*
X125142137Y-88937819D01*
X125175622Y-88999142D01*
X125170638Y-89068834D01*
X125128766Y-89124767D01*
X125063302Y-89149184D01*
X125054456Y-89149500D01*
X123475323Y-89149500D01*
X123402264Y-89164032D01*
X123402260Y-89164033D01*
X123319399Y-89219399D01*
X123264033Y-89302260D01*
X123264032Y-89302264D01*
X123249500Y-89375321D01*
X123249500Y-90424678D01*
X123264032Y-90497735D01*
X123264033Y-90497739D01*
X123264034Y-90497740D01*
X123319399Y-90580601D01*
X123356236Y-90605214D01*
X123402260Y-90635966D01*
X123402264Y-90635967D01*
X123475321Y-90650499D01*
X123475324Y-90650500D01*
X123475326Y-90650500D01*
X124603456Y-90650500D01*
X124670495Y-90670185D01*
X124691137Y-90686819D01*
X126085789Y-92081471D01*
X126086645Y-92082128D01*
X126087183Y-92082865D01*
X126091535Y-92087217D01*
X126090856Y-92087895D01*
X126127845Y-92138557D01*
X126131997Y-92208303D01*
X126097782Y-92269222D01*
X126036063Y-92301972D01*
X126011154Y-92304500D01*
X125644500Y-92304500D01*
X125577461Y-92284815D01*
X125531706Y-92232011D01*
X125520500Y-92180500D01*
X125520500Y-92130323D01*
X125520499Y-92130321D01*
X125505967Y-92057264D01*
X125505966Y-92057260D01*
X125450601Y-91974399D01*
X125367740Y-91919034D01*
X125367739Y-91919033D01*
X125367735Y-91919032D01*
X125294677Y-91904500D01*
X125294674Y-91904500D01*
X123445326Y-91904500D01*
X123445323Y-91904500D01*
X123372264Y-91919032D01*
X123372260Y-91919033D01*
X123289399Y-91974399D01*
X123234033Y-92057260D01*
X123234032Y-92057264D01*
X123219500Y-92130321D01*
X123219500Y-93179678D01*
X123234032Y-93252735D01*
X123234033Y-93252739D01*
X123234034Y-93252740D01*
X123289399Y-93335601D01*
X123372260Y-93390966D01*
X123372264Y-93390967D01*
X123445321Y-93405499D01*
X123445324Y-93405500D01*
X123445326Y-93405500D01*
X125294676Y-93405500D01*
X125294677Y-93405499D01*
X125367740Y-93390966D01*
X125450601Y-93335601D01*
X125505966Y-93252740D01*
X125520500Y-93179674D01*
X125520500Y-93129500D01*
X125540185Y-93062461D01*
X125592989Y-93016706D01*
X125644500Y-93005500D01*
X129725285Y-93005500D01*
X129725287Y-93005500D01*
X129814431Y-92981614D01*
X129894355Y-92935470D01*
X131308470Y-91521355D01*
X131354614Y-91441431D01*
X131360219Y-91420512D01*
X131378500Y-91352287D01*
X131378500Y-91327525D01*
X133949500Y-91327525D01*
X133949500Y-91472475D01*
X133983644Y-91599901D01*
X133987017Y-91612488D01*
X134059488Y-91738011D01*
X134059490Y-91738013D01*
X134059491Y-91738015D01*
X134161985Y-91840509D01*
X134161986Y-91840510D01*
X134161988Y-91840511D01*
X134287511Y-91912982D01*
X134287512Y-91912982D01*
X134287515Y-91912984D01*
X134427525Y-91950500D01*
X134427528Y-91950500D01*
X134572472Y-91950500D01*
X134572475Y-91950500D01*
X134712485Y-91912984D01*
X134838015Y-91840509D01*
X134940509Y-91738015D01*
X135012984Y-91612485D01*
X135050500Y-91472475D01*
X135050500Y-91327525D01*
X135012984Y-91187515D01*
X134965467Y-91105214D01*
X134940511Y-91061988D01*
X134940506Y-91061982D01*
X134838017Y-90959493D01*
X134838011Y-90959488D01*
X134712488Y-90887017D01*
X134712489Y-90887017D01*
X134701006Y-90883940D01*
X134572475Y-90849500D01*
X134427525Y-90849500D01*
X134298993Y-90883940D01*
X134287511Y-90887017D01*
X134161988Y-90959488D01*
X134161982Y-90959493D01*
X134059493Y-91061982D01*
X134059488Y-91061988D01*
X133987017Y-91187511D01*
X133987016Y-91187515D01*
X133949500Y-91327525D01*
X131378500Y-91327525D01*
X131378500Y-90605205D01*
X140350000Y-90605205D01*
X140350000Y-91350000D01*
X141022555Y-91350000D01*
X141000000Y-91434174D01*
X141000000Y-91565826D01*
X141022555Y-91650000D01*
X140350001Y-91650000D01*
X140350001Y-92394785D01*
X140350002Y-92394808D01*
X140352908Y-92419869D01*
X140352909Y-92419873D01*
X140398211Y-92522474D01*
X140398214Y-92522479D01*
X140477520Y-92601785D01*
X140477525Y-92601788D01*
X140580123Y-92647089D01*
X140605206Y-92649999D01*
X141349999Y-92649999D01*
X141350000Y-92649998D01*
X141350000Y-91977445D01*
X141434174Y-92000000D01*
X141565826Y-92000000D01*
X141650000Y-91977445D01*
X141650000Y-92649999D01*
X142394786Y-92649999D01*
X142394808Y-92649997D01*
X142419869Y-92647091D01*
X142419873Y-92647090D01*
X142522474Y-92601788D01*
X142522479Y-92601785D01*
X142601785Y-92522479D01*
X142601788Y-92522474D01*
X142647089Y-92419877D01*
X142647089Y-92419875D01*
X142649999Y-92394794D01*
X142650000Y-92394791D01*
X142650000Y-91650000D01*
X141977445Y-91650000D01*
X142000000Y-91565826D01*
X142000000Y-91434174D01*
X141977445Y-91350000D01*
X142649999Y-91350000D01*
X142649999Y-90605214D01*
X142649997Y-90605191D01*
X142647091Y-90580130D01*
X142647090Y-90580126D01*
X142601788Y-90477525D01*
X142601785Y-90477520D01*
X142522479Y-90398214D01*
X142522474Y-90398211D01*
X142419876Y-90352910D01*
X142394794Y-90350000D01*
X141650000Y-90350000D01*
X141650000Y-91022554D01*
X141565826Y-91000000D01*
X141434174Y-91000000D01*
X141350000Y-91022554D01*
X141350000Y-90350000D01*
X140605214Y-90350000D01*
X140605191Y-90350002D01*
X140580130Y-90352908D01*
X140580126Y-90352909D01*
X140477525Y-90398211D01*
X140477520Y-90398214D01*
X140398214Y-90477520D01*
X140398211Y-90477525D01*
X140352910Y-90580122D01*
X140352910Y-90580124D01*
X140350000Y-90605205D01*
X131378500Y-90605205D01*
X131378500Y-90097713D01*
X131354614Y-90008569D01*
X131315319Y-89940509D01*
X131307462Y-89926900D01*
X131290988Y-89859000D01*
X131313840Y-89792973D01*
X131368760Y-89749782D01*
X131438314Y-89743140D01*
X131438948Y-89743263D01*
X131461709Y-89747791D01*
X131475325Y-89750500D01*
X131475326Y-89750500D01*
X133324676Y-89750500D01*
X133324677Y-89750499D01*
X133397740Y-89735966D01*
X133480601Y-89680601D01*
X133535966Y-89597740D01*
X133550500Y-89524674D01*
X133550500Y-89427525D01*
X139949500Y-89427525D01*
X139949500Y-89572475D01*
X139978473Y-89680601D01*
X139987017Y-89712488D01*
X140059488Y-89838011D01*
X140059490Y-89838013D01*
X140059491Y-89838015D01*
X140161985Y-89940509D01*
X140161986Y-89940510D01*
X140161988Y-89940511D01*
X140287511Y-90012982D01*
X140287512Y-90012982D01*
X140287515Y-90012984D01*
X140427525Y-90050500D01*
X140427528Y-90050500D01*
X140572472Y-90050500D01*
X140572475Y-90050500D01*
X140712485Y-90012984D01*
X140838015Y-89940509D01*
X140940509Y-89838015D01*
X141012984Y-89712485D01*
X141050500Y-89572475D01*
X141050500Y-89427525D01*
X141012984Y-89287515D01*
X140991613Y-89250500D01*
X140940511Y-89161988D01*
X140940506Y-89161982D01*
X140838017Y-89059493D01*
X140838011Y-89059488D01*
X140712488Y-88987017D01*
X140712489Y-88987017D01*
X140676217Y-88977298D01*
X140572475Y-88949500D01*
X140427525Y-88949500D01*
X140323783Y-88977298D01*
X140287511Y-88987017D01*
X140161988Y-89059488D01*
X140161982Y-89059493D01*
X140059493Y-89161982D01*
X140059488Y-89161988D01*
X139987017Y-89287511D01*
X139987016Y-89287515D01*
X139949500Y-89427525D01*
X133550500Y-89427525D01*
X133550500Y-88475326D01*
X133550500Y-88475323D01*
X133550499Y-88475321D01*
X133535967Y-88402264D01*
X133535966Y-88402260D01*
X133527990Y-88390323D01*
X133480601Y-88319399D01*
X133425235Y-88282405D01*
X133397739Y-88264033D01*
X133397735Y-88264032D01*
X133324677Y-88249500D01*
X133324674Y-88249500D01*
X131475326Y-88249500D01*
X131475323Y-88249500D01*
X131402264Y-88264032D01*
X131402260Y-88264033D01*
X131319399Y-88319399D01*
X131264033Y-88402260D01*
X131264032Y-88402263D01*
X131250421Y-88470692D01*
X131218036Y-88532603D01*
X131157320Y-88567177D01*
X131128804Y-88570500D01*
X130227433Y-88570500D01*
X130160394Y-88550815D01*
X130114639Y-88498011D01*
X130104695Y-88428853D01*
X130133720Y-88365297D01*
X130157024Y-88346054D01*
X130156566Y-88345457D01*
X130163007Y-88340513D01*
X130163015Y-88340509D01*
X130265509Y-88238015D01*
X130337984Y-88112485D01*
X130375500Y-87972475D01*
X130375500Y-87827525D01*
X130337984Y-87687515D01*
X130334761Y-87681933D01*
X130265511Y-87561988D01*
X130265506Y-87561982D01*
X130211819Y-87508295D01*
X130178334Y-87446972D01*
X130175500Y-87420614D01*
X130175500Y-82798920D01*
X136519499Y-82798920D01*
X136548340Y-82943907D01*
X136548343Y-82943917D01*
X136604912Y-83080488D01*
X136604919Y-83080501D01*
X136687048Y-83203415D01*
X136687051Y-83203419D01*
X136791580Y-83307948D01*
X136791584Y-83307951D01*
X136914498Y-83390080D01*
X136914511Y-83390087D01*
X137051082Y-83446656D01*
X137051087Y-83446658D01*
X137051091Y-83446658D01*
X137051092Y-83446659D01*
X137196079Y-83475500D01*
X137196082Y-83475500D01*
X138443920Y-83475500D01*
X138541462Y-83456096D01*
X138588913Y-83446658D01*
X138725495Y-83390084D01*
X138848416Y-83307951D01*
X138952951Y-83203416D01*
X139035084Y-83080495D01*
X139091658Y-82943913D01*
X139107972Y-82861898D01*
X139120500Y-82798920D01*
X140849499Y-82798920D01*
X140878340Y-82943907D01*
X140878343Y-82943917D01*
X140934912Y-83080488D01*
X140934919Y-83080501D01*
X141017048Y-83203415D01*
X141017051Y-83203419D01*
X141121580Y-83307948D01*
X141121584Y-83307951D01*
X141244498Y-83390080D01*
X141244511Y-83390087D01*
X141381082Y-83446656D01*
X141381087Y-83446658D01*
X141381091Y-83446658D01*
X141381092Y-83446659D01*
X141526079Y-83475500D01*
X141526082Y-83475500D01*
X142473920Y-83475500D01*
X142571462Y-83456096D01*
X142618913Y-83446658D01*
X142755495Y-83390084D01*
X142878416Y-83307951D01*
X142982951Y-83203416D01*
X143065084Y-83080495D01*
X143121658Y-82943913D01*
X143137972Y-82861898D01*
X143150500Y-82798920D01*
X143150500Y-82651079D01*
X143121659Y-82506092D01*
X143121658Y-82506091D01*
X143121658Y-82506087D01*
X143118200Y-82497739D01*
X143065087Y-82369511D01*
X143065080Y-82369498D01*
X142982951Y-82246584D01*
X142982948Y-82246580D01*
X142878419Y-82142051D01*
X142878415Y-82142048D01*
X142755501Y-82059919D01*
X142755488Y-82059912D01*
X142618917Y-82003343D01*
X142618907Y-82003340D01*
X142473920Y-81974500D01*
X142473918Y-81974500D01*
X141526082Y-81974500D01*
X141526080Y-81974500D01*
X141381092Y-82003340D01*
X141381082Y-82003343D01*
X141244511Y-82059912D01*
X141244498Y-82059919D01*
X141121584Y-82142048D01*
X141121580Y-82142051D01*
X141017051Y-82246580D01*
X141017048Y-82246584D01*
X140934919Y-82369498D01*
X140934912Y-82369511D01*
X140878343Y-82506082D01*
X140878340Y-82506092D01*
X140849500Y-82651079D01*
X140849500Y-82651082D01*
X140849500Y-82798918D01*
X140849500Y-82798920D01*
X140849499Y-82798920D01*
X139120500Y-82798920D01*
X139120500Y-82651079D01*
X139091659Y-82506092D01*
X139091658Y-82506091D01*
X139091658Y-82506087D01*
X139088200Y-82497739D01*
X139035087Y-82369511D01*
X139035080Y-82369498D01*
X138952951Y-82246584D01*
X138952948Y-82246580D01*
X138848419Y-82142051D01*
X138848415Y-82142048D01*
X138725501Y-82059919D01*
X138725488Y-82059912D01*
X138620458Y-82016408D01*
X138566054Y-81972567D01*
X138543989Y-81906273D01*
X138561268Y-81838574D01*
X138605909Y-81794460D01*
X138673365Y-81755515D01*
X138780515Y-81648365D01*
X138856281Y-81517135D01*
X138895500Y-81370766D01*
X138895500Y-81219234D01*
X138856281Y-81072865D01*
X138780515Y-80941635D01*
X138673365Y-80834485D01*
X138607750Y-80796602D01*
X138542136Y-80758719D01*
X138468950Y-80739109D01*
X138395766Y-80719500D01*
X138244234Y-80719500D01*
X138097863Y-80758719D01*
X137966635Y-80834485D01*
X137966632Y-80834487D01*
X137859487Y-80941632D01*
X137859485Y-80941635D01*
X137783719Y-81072863D01*
X137749989Y-81198747D01*
X137744500Y-81219234D01*
X137744500Y-81370766D01*
X137758474Y-81422917D01*
X137783719Y-81517136D01*
X137821602Y-81582750D01*
X137859485Y-81648365D01*
X137859487Y-81648367D01*
X137972382Y-81761262D01*
X137970363Y-81763280D01*
X138003420Y-81808555D01*
X138007573Y-81878302D01*
X137973359Y-81939221D01*
X137911641Y-81971972D01*
X137886730Y-81974500D01*
X137196080Y-81974500D01*
X137051092Y-82003340D01*
X137051082Y-82003343D01*
X136914511Y-82059912D01*
X136914498Y-82059919D01*
X136791584Y-82142048D01*
X136791580Y-82142051D01*
X136687051Y-82246580D01*
X136687048Y-82246584D01*
X136604919Y-82369498D01*
X136604912Y-82369511D01*
X136548343Y-82506082D01*
X136548340Y-82506092D01*
X136519500Y-82651079D01*
X136519500Y-82651082D01*
X136519500Y-82798918D01*
X136519500Y-82798920D01*
X136519499Y-82798920D01*
X130175500Y-82798920D01*
X130175500Y-81927525D01*
X133949500Y-81927525D01*
X133949500Y-82072475D01*
X133972887Y-82159754D01*
X133987017Y-82212488D01*
X134059488Y-82338011D01*
X134059490Y-82338013D01*
X134059491Y-82338015D01*
X134161985Y-82440509D01*
X134161986Y-82440510D01*
X134161988Y-82440511D01*
X134287511Y-82512982D01*
X134287512Y-82512982D01*
X134287515Y-82512984D01*
X134427525Y-82550500D01*
X134427528Y-82550500D01*
X134572472Y-82550500D01*
X134572475Y-82550500D01*
X134712485Y-82512984D01*
X134838015Y-82440509D01*
X134940509Y-82338015D01*
X135012984Y-82212485D01*
X135050500Y-82072475D01*
X135050500Y-81927525D01*
X135012984Y-81787515D01*
X134994509Y-81755516D01*
X134940511Y-81661988D01*
X134940506Y-81661982D01*
X134838017Y-81559493D01*
X134838011Y-81559488D01*
X134712488Y-81487017D01*
X134712489Y-81487017D01*
X134675691Y-81477157D01*
X134572475Y-81449500D01*
X134427525Y-81449500D01*
X134324309Y-81477157D01*
X134287511Y-81487017D01*
X134161988Y-81559488D01*
X134161982Y-81559493D01*
X134059493Y-81661982D01*
X134059488Y-81661988D01*
X133987017Y-81787511D01*
X133987016Y-81787515D01*
X133949500Y-81927525D01*
X130175500Y-81927525D01*
X130175500Y-81374500D01*
X130195185Y-81307461D01*
X130247989Y-81261706D01*
X130299500Y-81250500D01*
X131024676Y-81250500D01*
X131024677Y-81250499D01*
X131097740Y-81235966D01*
X131180601Y-81180601D01*
X131235966Y-81097740D01*
X131250500Y-81024674D01*
X131250500Y-79175326D01*
X131250500Y-79175323D01*
X131250499Y-79175321D01*
X131235967Y-79102264D01*
X131235966Y-79102260D01*
X131198805Y-79046644D01*
X131180601Y-79019399D01*
X131099599Y-78965276D01*
X131097739Y-78964033D01*
X131097735Y-78964032D01*
X131024677Y-78949500D01*
X131024674Y-78949500D01*
X129975326Y-78949500D01*
X129975323Y-78949500D01*
X129902264Y-78964032D01*
X129902260Y-78964033D01*
X129819399Y-79019399D01*
X129764033Y-79102260D01*
X129764032Y-79102264D01*
X129749500Y-79175321D01*
X129749500Y-80287574D01*
X129729815Y-80354613D01*
X129677011Y-80400368D01*
X129607853Y-80410312D01*
X129544297Y-80381287D01*
X129537819Y-80375255D01*
X126490089Y-77327525D01*
X134849500Y-77327525D01*
X134849500Y-77472475D01*
X134887016Y-77612485D01*
X134887017Y-77612488D01*
X134959488Y-77738011D01*
X134959490Y-77738013D01*
X134959491Y-77738015D01*
X135061985Y-77840509D01*
X135061986Y-77840510D01*
X135061988Y-77840511D01*
X135187511Y-77912982D01*
X135187512Y-77912982D01*
X135187515Y-77912984D01*
X135327525Y-77950500D01*
X135327528Y-77950500D01*
X135472472Y-77950500D01*
X135472475Y-77950500D01*
X135493407Y-77944891D01*
X135563253Y-77946552D01*
X135621117Y-77985713D01*
X135648623Y-78049940D01*
X135649500Y-78064665D01*
X135649500Y-80320614D01*
X135629815Y-80387653D01*
X135613181Y-80408295D01*
X135559493Y-80461982D01*
X135559488Y-80461988D01*
X135487017Y-80587511D01*
X135487016Y-80587515D01*
X135449500Y-80727525D01*
X135449500Y-80872475D01*
X135483438Y-80999132D01*
X135487017Y-81012488D01*
X135559488Y-81138011D01*
X135559490Y-81138013D01*
X135559491Y-81138015D01*
X135661985Y-81240509D01*
X135661986Y-81240510D01*
X135661988Y-81240511D01*
X135787511Y-81312982D01*
X135787512Y-81312982D01*
X135787515Y-81312984D01*
X135927525Y-81350500D01*
X135927528Y-81350500D01*
X136072472Y-81350500D01*
X136072475Y-81350500D01*
X136212485Y-81312984D01*
X136338015Y-81240509D01*
X136440509Y-81138015D01*
X136512984Y-81012485D01*
X136550500Y-80872475D01*
X136550500Y-80727525D01*
X136512984Y-80587515D01*
X136510602Y-80583390D01*
X136440511Y-80461988D01*
X136440506Y-80461982D01*
X136386819Y-80408295D01*
X136353334Y-80346972D01*
X136350500Y-80320614D01*
X136350500Y-76479386D01*
X136370185Y-76412347D01*
X136386819Y-76391705D01*
X136410715Y-76367809D01*
X136440509Y-76338015D01*
X136512984Y-76212485D01*
X136550500Y-76072475D01*
X136550500Y-75927525D01*
X136512984Y-75787515D01*
X136440509Y-75661985D01*
X136338015Y-75559491D01*
X136338013Y-75559490D01*
X136338011Y-75559488D01*
X136212488Y-75487017D01*
X136212489Y-75487017D01*
X136201006Y-75483940D01*
X136072475Y-75449500D01*
X135927525Y-75449500D01*
X135906592Y-75455108D01*
X135836743Y-75453446D01*
X135778881Y-75414283D01*
X135751377Y-75350055D01*
X135750500Y-75335334D01*
X135750500Y-74158920D01*
X136519499Y-74158920D01*
X136548340Y-74303907D01*
X136548343Y-74303917D01*
X136604912Y-74440488D01*
X136604919Y-74440501D01*
X136687048Y-74563415D01*
X136687051Y-74563419D01*
X136791580Y-74667948D01*
X136791584Y-74667951D01*
X136914498Y-74750080D01*
X136914511Y-74750087D01*
X136975133Y-74775197D01*
X137051087Y-74806658D01*
X137051091Y-74806658D01*
X137051092Y-74806659D01*
X137196079Y-74835500D01*
X137886730Y-74835500D01*
X137953769Y-74855185D01*
X137999524Y-74907989D01*
X138009468Y-74977147D01*
X137980443Y-75040703D01*
X137972155Y-75048511D01*
X137972382Y-75048738D01*
X137859487Y-75161632D01*
X137859485Y-75161635D01*
X137783719Y-75292863D01*
X137744500Y-75439234D01*
X137744500Y-75590765D01*
X137783719Y-75737136D01*
X137811027Y-75784434D01*
X137859485Y-75868365D01*
X137966635Y-75975515D01*
X138097865Y-76051281D01*
X138172090Y-76071169D01*
X138193906Y-76084466D01*
X138217537Y-76094179D01*
X138223241Y-76102347D01*
X138231751Y-76107534D01*
X138242914Y-76130515D01*
X138257543Y-76151461D01*
X138257926Y-76161417D01*
X138262280Y-76170381D01*
X138259246Y-76195748D01*
X138260229Y-76221279D01*
X138254870Y-76232348D01*
X138253985Y-76239756D01*
X138246813Y-76253924D01*
X138241667Y-76262650D01*
X138239974Y-76264344D01*
X138207564Y-76320480D01*
X138207289Y-76320955D01*
X138207242Y-76321036D01*
X138193831Y-76344265D01*
X138193830Y-76344268D01*
X138169944Y-76433412D01*
X138169944Y-77020614D01*
X138150259Y-77087653D01*
X138133625Y-77108295D01*
X138079937Y-77161982D01*
X138079932Y-77161988D01*
X138007461Y-77287511D01*
X138007460Y-77287515D01*
X137969944Y-77427525D01*
X137969944Y-77572475D01*
X138000904Y-77688017D01*
X138007461Y-77712488D01*
X138079932Y-77838011D01*
X138079937Y-77838017D01*
X138113181Y-77871261D01*
X138146666Y-77932584D01*
X138149500Y-77958942D01*
X138149500Y-78220614D01*
X138129815Y-78287653D01*
X138113181Y-78308295D01*
X138059493Y-78361982D01*
X138059488Y-78361988D01*
X137987017Y-78487511D01*
X137987016Y-78487515D01*
X137949500Y-78627525D01*
X137949500Y-78772475D01*
X137987016Y-78912485D01*
X137987017Y-78912488D01*
X138059488Y-79038011D01*
X138059490Y-79038013D01*
X138059491Y-79038015D01*
X138161985Y-79140509D01*
X138161986Y-79140510D01*
X138161988Y-79140511D01*
X138287511Y-79212982D01*
X138287512Y-79212982D01*
X138287515Y-79212984D01*
X138427525Y-79250500D01*
X138427528Y-79250500D01*
X138572472Y-79250500D01*
X138572475Y-79250500D01*
X138580700Y-79248296D01*
X138650547Y-79249957D01*
X138708411Y-79289118D01*
X138735917Y-79353346D01*
X138724332Y-79422248D01*
X138720181Y-79430070D01*
X138687017Y-79487511D01*
X138687016Y-79487515D01*
X138649500Y-79627525D01*
X138649500Y-79772475D01*
X138675552Y-79869701D01*
X138687017Y-79912488D01*
X138759488Y-80038011D01*
X138759490Y-80038013D01*
X138759491Y-80038015D01*
X138861985Y-80140509D01*
X138861986Y-80140510D01*
X138861988Y-80140511D01*
X138987511Y-80212982D01*
X138987512Y-80212982D01*
X138987515Y-80212984D01*
X139127525Y-80250500D01*
X139127528Y-80250500D01*
X139272472Y-80250500D01*
X139272475Y-80250500D01*
X139412485Y-80212984D01*
X139538015Y-80140509D01*
X139591705Y-80086819D01*
X139618632Y-80072115D01*
X139644451Y-80055523D01*
X139650651Y-80054631D01*
X139653028Y-80053334D01*
X139679386Y-80050500D01*
X139723443Y-80050500D01*
X139790482Y-80070185D01*
X139823213Y-80100867D01*
X139827850Y-80107150D01*
X139937118Y-80187793D01*
X139979845Y-80202744D01*
X140065299Y-80232646D01*
X140095730Y-80235500D01*
X140095734Y-80235500D01*
X140604270Y-80235500D01*
X140634699Y-80232646D01*
X140634701Y-80232646D01*
X140698790Y-80210219D01*
X140762882Y-80187793D01*
X140872150Y-80107150D01*
X140952793Y-79997882D01*
X140989710Y-79892379D01*
X140997646Y-79869701D01*
X140997646Y-79869699D01*
X141000500Y-79839269D01*
X141000500Y-79832844D01*
X141300000Y-79832844D01*
X141306401Y-79892372D01*
X141306403Y-79892379D01*
X141356645Y-80027086D01*
X141356649Y-80027093D01*
X141442809Y-80142187D01*
X141442812Y-80142190D01*
X141557906Y-80228350D01*
X141557913Y-80228354D01*
X141692620Y-80278596D01*
X141692627Y-80278598D01*
X141752155Y-80284999D01*
X141752172Y-80285000D01*
X141850000Y-80285000D01*
X142150000Y-80285000D01*
X142247828Y-80285000D01*
X142247844Y-80284999D01*
X142307372Y-80278598D01*
X142307379Y-80278596D01*
X142442086Y-80228354D01*
X142442093Y-80228350D01*
X142557187Y-80142190D01*
X142557190Y-80142187D01*
X142643350Y-80027093D01*
X142643354Y-80027086D01*
X142693596Y-79892379D01*
X142693598Y-79892372D01*
X142699999Y-79832844D01*
X142700000Y-79832827D01*
X142700000Y-79660000D01*
X142150000Y-79660000D01*
X142150000Y-80285000D01*
X141850000Y-80285000D01*
X141850000Y-79660000D01*
X141300000Y-79660000D01*
X141300000Y-79832844D01*
X141000500Y-79832844D01*
X141000500Y-79187155D01*
X141300000Y-79187155D01*
X141300000Y-79360000D01*
X141850000Y-79360000D01*
X142150000Y-79360000D01*
X142700000Y-79360000D01*
X142700000Y-79187172D01*
X142699999Y-79187155D01*
X142693598Y-79127627D01*
X142693596Y-79127620D01*
X142643354Y-78992913D01*
X142643350Y-78992906D01*
X142557190Y-78877812D01*
X142557187Y-78877809D01*
X142442093Y-78791649D01*
X142442086Y-78791645D01*
X142307379Y-78741403D01*
X142307372Y-78741401D01*
X142247844Y-78735000D01*
X142150000Y-78735000D01*
X142150000Y-79360000D01*
X141850000Y-79360000D01*
X141850000Y-78735000D01*
X141752155Y-78735000D01*
X141692627Y-78741401D01*
X141692620Y-78741403D01*
X141557913Y-78791645D01*
X141557906Y-78791649D01*
X141442812Y-78877809D01*
X141442809Y-78877812D01*
X141356649Y-78992906D01*
X141356645Y-78992913D01*
X141306403Y-79127620D01*
X141306401Y-79127627D01*
X141300000Y-79187155D01*
X141000500Y-79187155D01*
X141000500Y-79180730D01*
X140997646Y-79150300D01*
X140997646Y-79150298D01*
X140958356Y-79038017D01*
X140952793Y-79022118D01*
X140872150Y-78912850D01*
X140762882Y-78832207D01*
X140762880Y-78832206D01*
X140634700Y-78787353D01*
X140604270Y-78784500D01*
X140604266Y-78784500D01*
X140095734Y-78784500D01*
X140095730Y-78784500D01*
X140065300Y-78787353D01*
X140065298Y-78787353D01*
X139937119Y-78832206D01*
X139937117Y-78832207D01*
X139827850Y-78912850D01*
X139747207Y-79022117D01*
X139747206Y-79022119D01*
X139702353Y-79150298D01*
X139702352Y-79150305D01*
X139702246Y-79151440D01*
X139701933Y-79152224D01*
X139700744Y-79157670D01*
X139699841Y-79157472D01*
X139676381Y-79216346D01*
X139619531Y-79256965D01*
X139549746Y-79260400D01*
X139516789Y-79247236D01*
X139412488Y-79187017D01*
X139412489Y-79187017D01*
X139401006Y-79183940D01*
X139272475Y-79149500D01*
X139127525Y-79149500D01*
X139127520Y-79149500D01*
X139119293Y-79151705D01*
X139049443Y-79150039D01*
X138991582Y-79110874D01*
X138964081Y-79046644D01*
X138975671Y-78977743D01*
X138979810Y-78969942D01*
X139012984Y-78912485D01*
X139050500Y-78772475D01*
X139050500Y-78627525D01*
X139012984Y-78487515D01*
X139002842Y-78469949D01*
X138940511Y-78361988D01*
X138940506Y-78361982D01*
X138886819Y-78308295D01*
X138872115Y-78281367D01*
X138855523Y-78255549D01*
X138854631Y-78249348D01*
X138853334Y-78246972D01*
X138850500Y-78220614D01*
X138850500Y-77999830D01*
X138870185Y-77932791D01*
X138886819Y-77912149D01*
X138912149Y-77886819D01*
X138960953Y-77838015D01*
X139033428Y-77712485D01*
X139070944Y-77572475D01*
X139070944Y-77427525D01*
X139065335Y-77406592D01*
X139066998Y-77336743D01*
X139106161Y-77278881D01*
X139170389Y-77251377D01*
X139185110Y-77250500D01*
X139272472Y-77250500D01*
X139272475Y-77250500D01*
X139412485Y-77212984D01*
X139412487Y-77212982D01*
X139412489Y-77212982D01*
X139412490Y-77212981D01*
X139420568Y-77208317D01*
X139513500Y-77154662D01*
X139581399Y-77138189D01*
X139647426Y-77161041D01*
X139690617Y-77215962D01*
X139699500Y-77262049D01*
X139699500Y-77329269D01*
X139702353Y-77359699D01*
X139702353Y-77359701D01*
X139747206Y-77487880D01*
X139747207Y-77487882D01*
X139827850Y-77597150D01*
X139937118Y-77677793D01*
X139966331Y-77688015D01*
X140065299Y-77722646D01*
X140095730Y-77725500D01*
X140095734Y-77725500D01*
X140604270Y-77725500D01*
X140634699Y-77722646D01*
X140634701Y-77722646D01*
X140698790Y-77700219D01*
X140762882Y-77677793D01*
X140872150Y-77597150D01*
X140952793Y-77487882D01*
X140984475Y-77397341D01*
X140997646Y-77359701D01*
X140997646Y-77359699D01*
X141000500Y-77329269D01*
X141000500Y-77322844D01*
X141300000Y-77322844D01*
X141306401Y-77382372D01*
X141306403Y-77382379D01*
X141356645Y-77517086D01*
X141356649Y-77517093D01*
X141442809Y-77632187D01*
X141442812Y-77632190D01*
X141557906Y-77718350D01*
X141557913Y-77718354D01*
X141692620Y-77768596D01*
X141692627Y-77768598D01*
X141752155Y-77774999D01*
X141752172Y-77775000D01*
X141850000Y-77775000D01*
X142150000Y-77775000D01*
X142247828Y-77775000D01*
X142247844Y-77774999D01*
X142307372Y-77768598D01*
X142307379Y-77768596D01*
X142442086Y-77718354D01*
X142442093Y-77718350D01*
X142557187Y-77632190D01*
X142557190Y-77632187D01*
X142643350Y-77517093D01*
X142643354Y-77517086D01*
X142693596Y-77382379D01*
X142693598Y-77382372D01*
X142699999Y-77322844D01*
X142700000Y-77322827D01*
X142700000Y-77150000D01*
X142150000Y-77150000D01*
X142150000Y-77775000D01*
X141850000Y-77775000D01*
X141850000Y-77150000D01*
X141300000Y-77150000D01*
X141300000Y-77322844D01*
X141000500Y-77322844D01*
X141000500Y-76677155D01*
X141300000Y-76677155D01*
X141300000Y-76850000D01*
X141850000Y-76850000D01*
X142150000Y-76850000D01*
X142700000Y-76850000D01*
X142700000Y-76677172D01*
X142699999Y-76677155D01*
X142693598Y-76617627D01*
X142693596Y-76617620D01*
X142643354Y-76482913D01*
X142643350Y-76482906D01*
X142557190Y-76367812D01*
X142557187Y-76367809D01*
X142442093Y-76281649D01*
X142442086Y-76281645D01*
X142307379Y-76231403D01*
X142307372Y-76231401D01*
X142247844Y-76225000D01*
X142150000Y-76225000D01*
X142150000Y-76850000D01*
X141850000Y-76850000D01*
X141850000Y-76225000D01*
X141752155Y-76225000D01*
X141692627Y-76231401D01*
X141692620Y-76231403D01*
X141557913Y-76281645D01*
X141557906Y-76281649D01*
X141442812Y-76367809D01*
X141442809Y-76367812D01*
X141356649Y-76482906D01*
X141356645Y-76482913D01*
X141306403Y-76617620D01*
X141306401Y-76617627D01*
X141300000Y-76677155D01*
X141000500Y-76677155D01*
X141000500Y-76670730D01*
X140997646Y-76640300D01*
X140997646Y-76640298D01*
X140956795Y-76523556D01*
X140952793Y-76512118D01*
X140872150Y-76402850D01*
X140762882Y-76322207D01*
X140762880Y-76322206D01*
X140634700Y-76277353D01*
X140604270Y-76274500D01*
X140604266Y-76274500D01*
X140095734Y-76274500D01*
X140095730Y-76274500D01*
X140065300Y-76277353D01*
X140065298Y-76277353D01*
X139937119Y-76322206D01*
X139937118Y-76322207D01*
X139932965Y-76325271D01*
X139912552Y-76332727D01*
X139894269Y-76344477D01*
X139871365Y-76347770D01*
X139867338Y-76349241D01*
X139859334Y-76349500D01*
X139679386Y-76349500D01*
X139612347Y-76329815D01*
X139591705Y-76313181D01*
X139538017Y-76259493D01*
X139538015Y-76259491D01*
X139525394Y-76252204D01*
X139486613Y-76229813D01*
X139438399Y-76179245D01*
X139425177Y-76110638D01*
X139451146Y-76045774D01*
X139460925Y-76034755D01*
X140380470Y-75115212D01*
X140426614Y-75035288D01*
X140432907Y-75011797D01*
X140438640Y-74990408D01*
X140445455Y-74964971D01*
X140450500Y-74946144D01*
X140450500Y-74158920D01*
X140849499Y-74158920D01*
X140878340Y-74303907D01*
X140878343Y-74303917D01*
X140934912Y-74440488D01*
X140934919Y-74440501D01*
X141017048Y-74563415D01*
X141017051Y-74563419D01*
X141121580Y-74667948D01*
X141121584Y-74667951D01*
X141244498Y-74750080D01*
X141244511Y-74750087D01*
X141305133Y-74775197D01*
X141381087Y-74806658D01*
X141381091Y-74806658D01*
X141381092Y-74806659D01*
X141526079Y-74835500D01*
X141526082Y-74835500D01*
X142473920Y-74835500D01*
X142571462Y-74816096D01*
X142618913Y-74806658D01*
X142755495Y-74750084D01*
X142878416Y-74667951D01*
X142982951Y-74563416D01*
X143065084Y-74440495D01*
X143066193Y-74437819D01*
X143104034Y-74346460D01*
X143121658Y-74303913D01*
X143144977Y-74186685D01*
X143150500Y-74158920D01*
X143150500Y-74011079D01*
X143121659Y-73866092D01*
X143121658Y-73866091D01*
X143121658Y-73866087D01*
X143092934Y-73796740D01*
X143065087Y-73729511D01*
X143065080Y-73729498D01*
X142982951Y-73606584D01*
X142982948Y-73606580D01*
X142878419Y-73502051D01*
X142878415Y-73502048D01*
X142755501Y-73419919D01*
X142755488Y-73419912D01*
X142618917Y-73363343D01*
X142618907Y-73363340D01*
X142473920Y-73334500D01*
X142473918Y-73334500D01*
X141526082Y-73334500D01*
X141526080Y-73334500D01*
X141381092Y-73363340D01*
X141381082Y-73363343D01*
X141244511Y-73419912D01*
X141244498Y-73419919D01*
X141121584Y-73502048D01*
X141121580Y-73502051D01*
X141017051Y-73606580D01*
X141017048Y-73606584D01*
X140934919Y-73729498D01*
X140934912Y-73729511D01*
X140878343Y-73866082D01*
X140878340Y-73866092D01*
X140849500Y-74011079D01*
X140849500Y-74011082D01*
X140849500Y-74158918D01*
X140849500Y-74158920D01*
X140849499Y-74158920D01*
X140450500Y-74158920D01*
X140450500Y-72896543D01*
X140470185Y-72829504D01*
X140486815Y-72808866D01*
X141019908Y-72275772D01*
X141081229Y-72242289D01*
X141131779Y-72241838D01*
X141175324Y-72250500D01*
X141175326Y-72250500D01*
X142224676Y-72250500D01*
X142224677Y-72250499D01*
X142297740Y-72235966D01*
X142380601Y-72180601D01*
X142435966Y-72097740D01*
X142450500Y-72024674D01*
X142450500Y-70175326D01*
X142450500Y-70175323D01*
X142450499Y-70175321D01*
X142435967Y-70102264D01*
X142435966Y-70102260D01*
X142409426Y-70062540D01*
X142380601Y-70019399D01*
X142297740Y-69964034D01*
X142297739Y-69964033D01*
X142297735Y-69964032D01*
X142224677Y-69949500D01*
X142224674Y-69949500D01*
X141175326Y-69949500D01*
X141175323Y-69949500D01*
X141102264Y-69964032D01*
X141102260Y-69964033D01*
X141019399Y-70019399D01*
X140964033Y-70102260D01*
X140964032Y-70102264D01*
X140949500Y-70175321D01*
X140949500Y-71303456D01*
X140929815Y-71370495D01*
X140913181Y-71391137D01*
X139819531Y-72484786D01*
X139819527Y-72484791D01*
X139782812Y-72548385D01*
X139782812Y-72548386D01*
X139773386Y-72564711D01*
X139749500Y-72653856D01*
X139749500Y-74703455D01*
X139729815Y-74770494D01*
X139713181Y-74791136D01*
X139083205Y-75421111D01*
X139021882Y-75454596D01*
X138952190Y-75449612D01*
X138896257Y-75407740D01*
X138875749Y-75365523D01*
X138872881Y-75354818D01*
X138856281Y-75292865D01*
X138780515Y-75161635D01*
X138673365Y-75054485D01*
X138605909Y-75015539D01*
X138557694Y-74964971D01*
X138544472Y-74896364D01*
X138570440Y-74831499D01*
X138620453Y-74793593D01*
X138725495Y-74750084D01*
X138848416Y-74667951D01*
X138952951Y-74563416D01*
X139035084Y-74440495D01*
X139036193Y-74437819D01*
X139074034Y-74346460D01*
X139091658Y-74303913D01*
X139114977Y-74186685D01*
X139120500Y-74158920D01*
X139120500Y-74011079D01*
X139091659Y-73866092D01*
X139091658Y-73866091D01*
X139091658Y-73866087D01*
X139062934Y-73796740D01*
X139035087Y-73729511D01*
X139035080Y-73729498D01*
X138952951Y-73606584D01*
X138952948Y-73606580D01*
X138848419Y-73502051D01*
X138848415Y-73502048D01*
X138725501Y-73419919D01*
X138725488Y-73419912D01*
X138588917Y-73363343D01*
X138588907Y-73363340D01*
X138443920Y-73334500D01*
X138443918Y-73334500D01*
X137196082Y-73334500D01*
X137196080Y-73334500D01*
X137051092Y-73363340D01*
X137051082Y-73363343D01*
X136914511Y-73419912D01*
X136914498Y-73419919D01*
X136791584Y-73502048D01*
X136791580Y-73502051D01*
X136687051Y-73606580D01*
X136687048Y-73606584D01*
X136604919Y-73729498D01*
X136604912Y-73729511D01*
X136548343Y-73866082D01*
X136548340Y-73866092D01*
X136519500Y-74011079D01*
X136519500Y-74011082D01*
X136519500Y-74158918D01*
X136519500Y-74158920D01*
X136519499Y-74158920D01*
X135750500Y-74158920D01*
X135750500Y-73996543D01*
X135770185Y-73929504D01*
X135786814Y-73908867D01*
X137419908Y-72275772D01*
X137481229Y-72242289D01*
X137531779Y-72241838D01*
X137575324Y-72250500D01*
X137575326Y-72250500D01*
X138624676Y-72250500D01*
X138624677Y-72250499D01*
X138697740Y-72235966D01*
X138780601Y-72180601D01*
X138835966Y-72097740D01*
X138850500Y-72024674D01*
X138850500Y-70175326D01*
X138850500Y-70175323D01*
X138850499Y-70175321D01*
X138835967Y-70102264D01*
X138835966Y-70102260D01*
X138809426Y-70062540D01*
X138780601Y-70019399D01*
X138697740Y-69964034D01*
X138697739Y-69964033D01*
X138697735Y-69964032D01*
X138624677Y-69949500D01*
X138624674Y-69949500D01*
X137575326Y-69949500D01*
X137575323Y-69949500D01*
X137502264Y-69964032D01*
X137502260Y-69964033D01*
X137419399Y-70019399D01*
X137364033Y-70102260D01*
X137364032Y-70102264D01*
X137349500Y-70175321D01*
X137349500Y-71303456D01*
X137329815Y-71370495D01*
X137313181Y-71391137D01*
X135119532Y-73584785D01*
X135119530Y-73584788D01*
X135079520Y-73654087D01*
X135079519Y-73654089D01*
X135079518Y-73654088D01*
X135073388Y-73664707D01*
X135073387Y-73664709D01*
X135073386Y-73664712D01*
X135049500Y-73753856D01*
X135049500Y-73753858D01*
X135049500Y-76920614D01*
X135029815Y-76987653D01*
X135013181Y-77008295D01*
X134959493Y-77061982D01*
X134959488Y-77061988D01*
X134887017Y-77187511D01*
X134887016Y-77187515D01*
X134849500Y-77327525D01*
X126490089Y-77327525D01*
X125506095Y-76343531D01*
X125506090Y-76343527D01*
X125426172Y-76297387D01*
X125426171Y-76297386D01*
X125426170Y-76297386D01*
X125337026Y-76273500D01*
X125337025Y-76273500D01*
X125104027Y-76273500D01*
X125036988Y-76253815D01*
X125016346Y-76237181D01*
X124962658Y-76183493D01*
X124962652Y-76183488D01*
X124837129Y-76111017D01*
X124837130Y-76111017D01*
X124804773Y-76102347D01*
X124697116Y-76073500D01*
X124552166Y-76073500D01*
X124444509Y-76102347D01*
X124412152Y-76111017D01*
X124286629Y-76183488D01*
X124286623Y-76183493D01*
X124184134Y-76285982D01*
X124184129Y-76285988D01*
X124111658Y-76411511D01*
X124111657Y-76411515D01*
X124074141Y-76551525D01*
X124074141Y-76696475D01*
X124101747Y-76799500D01*
X124111658Y-76836488D01*
X124184129Y-76962011D01*
X124184131Y-76962013D01*
X124184132Y-76962015D01*
X124286626Y-77064509D01*
X124321265Y-77084508D01*
X124329293Y-77089143D01*
X124377509Y-77139710D01*
X124390731Y-77208317D01*
X124364763Y-77273182D01*
X124319351Y-77307602D01*
X124319553Y-77307952D01*
X124316769Y-77309559D01*
X124314751Y-77311089D01*
X124312515Y-77312014D01*
X124186988Y-77384488D01*
X124186982Y-77384493D01*
X124084493Y-77486982D01*
X124084486Y-77486991D01*
X124054255Y-77539353D01*
X124003688Y-77587568D01*
X123935081Y-77600790D01*
X123870216Y-77574822D01*
X123859188Y-77565033D01*
X120853539Y-74559384D01*
X120820054Y-74498061D01*
X120825038Y-74428369D01*
X120866910Y-74372436D01*
X120932374Y-74348019D01*
X121000647Y-74362871D01*
X121003177Y-74364291D01*
X121087515Y-74412984D01*
X121227525Y-74450500D01*
X121227528Y-74450500D01*
X121372472Y-74450500D01*
X121372475Y-74450500D01*
X121512485Y-74412984D01*
X121638015Y-74340509D01*
X121740509Y-74238015D01*
X121812984Y-74112485D01*
X121850500Y-73972475D01*
X121850500Y-73827525D01*
X121812984Y-73687515D01*
X121793685Y-73654089D01*
X121792358Y-73651790D01*
X126373765Y-73651790D01*
X126373765Y-73796740D01*
X126410988Y-73935655D01*
X126411282Y-73936753D01*
X126483753Y-74062276D01*
X126483755Y-74062278D01*
X126483756Y-74062280D01*
X126586250Y-74164774D01*
X126586251Y-74164775D01*
X126586253Y-74164776D01*
X126711776Y-74237247D01*
X126711777Y-74237247D01*
X126711780Y-74237249D01*
X126851790Y-74274765D01*
X126851793Y-74274765D01*
X126996737Y-74274765D01*
X126996740Y-74274765D01*
X127136750Y-74237249D01*
X127262280Y-74164774D01*
X127315970Y-74111084D01*
X127377293Y-74077599D01*
X127403651Y-74074765D01*
X129221877Y-74074765D01*
X129221879Y-74074765D01*
X129311023Y-74050879D01*
X129338027Y-74035288D01*
X129390947Y-74004735D01*
X136280470Y-67115212D01*
X136326614Y-67035288D01*
X136341267Y-66980601D01*
X136350500Y-66946144D01*
X136350500Y-66827525D01*
X140949500Y-66827525D01*
X140949500Y-66972475D01*
X140987016Y-67112485D01*
X140987017Y-67112488D01*
X141059488Y-67238011D01*
X141059490Y-67238013D01*
X141059491Y-67238015D01*
X141161985Y-67340509D01*
X141161986Y-67340510D01*
X141161988Y-67340511D01*
X141287511Y-67412982D01*
X141287512Y-67412982D01*
X141287515Y-67412984D01*
X141427525Y-67450500D01*
X141427528Y-67450500D01*
X141572472Y-67450500D01*
X141572475Y-67450500D01*
X141712485Y-67412984D01*
X141838015Y-67340509D01*
X141940509Y-67238015D01*
X142012984Y-67112485D01*
X142050500Y-66972475D01*
X142050500Y-66827525D01*
X142012984Y-66687515D01*
X141985997Y-66640773D01*
X141940511Y-66561988D01*
X141940506Y-66561982D01*
X141838017Y-66459493D01*
X141838011Y-66459488D01*
X141712488Y-66387017D01*
X141712489Y-66387017D01*
X141701006Y-66383940D01*
X141572475Y-66349500D01*
X141427525Y-66349500D01*
X141298993Y-66383940D01*
X141287511Y-66387017D01*
X141161988Y-66459488D01*
X141161982Y-66459493D01*
X141059493Y-66561982D01*
X141059488Y-66561988D01*
X140987017Y-66687511D01*
X140987016Y-66687515D01*
X140949500Y-66827525D01*
X136350500Y-66827525D01*
X136350500Y-57724500D01*
X136370185Y-57657461D01*
X136422989Y-57611706D01*
X136474500Y-57600500D01*
X136874676Y-57600500D01*
X136874677Y-57600499D01*
X136947740Y-57585966D01*
X137030601Y-57530601D01*
X137085966Y-57447740D01*
X137100500Y-57374674D01*
X137100500Y-55625326D01*
X137100500Y-55625323D01*
X137096498Y-55605205D01*
X140350000Y-55605205D01*
X140350000Y-56350000D01*
X141022555Y-56350000D01*
X141000000Y-56434174D01*
X141000000Y-56565826D01*
X141022555Y-56650000D01*
X140350001Y-56650000D01*
X140350001Y-57394785D01*
X140350002Y-57394808D01*
X140352908Y-57419869D01*
X140352909Y-57419873D01*
X140398211Y-57522474D01*
X140398214Y-57522479D01*
X140477520Y-57601785D01*
X140477525Y-57601788D01*
X140580123Y-57647089D01*
X140605206Y-57649999D01*
X141349999Y-57649999D01*
X141350000Y-57649998D01*
X141350000Y-56977445D01*
X141434174Y-57000000D01*
X141565826Y-57000000D01*
X141650000Y-56977445D01*
X141650000Y-57649999D01*
X142394786Y-57649999D01*
X142394808Y-57649997D01*
X142419869Y-57647091D01*
X142419873Y-57647090D01*
X142522474Y-57601788D01*
X142522479Y-57601785D01*
X142601785Y-57522479D01*
X142601788Y-57522474D01*
X142647089Y-57419877D01*
X142647089Y-57419875D01*
X142649999Y-57394794D01*
X142650000Y-57394791D01*
X142650000Y-56650000D01*
X141977445Y-56650000D01*
X142000000Y-56565826D01*
X142000000Y-56434174D01*
X141977445Y-56350000D01*
X142649999Y-56350000D01*
X142649999Y-55605214D01*
X142649997Y-55605191D01*
X142647091Y-55580130D01*
X142647090Y-55580126D01*
X142601788Y-55477525D01*
X142601785Y-55477520D01*
X142522479Y-55398214D01*
X142522474Y-55398211D01*
X142419876Y-55352910D01*
X142394794Y-55350000D01*
X141650000Y-55350000D01*
X141650000Y-56022554D01*
X141565826Y-56000000D01*
X141434174Y-56000000D01*
X141350000Y-56022554D01*
X141350000Y-55350000D01*
X140605214Y-55350000D01*
X140605191Y-55350002D01*
X140580130Y-55352908D01*
X140580126Y-55352909D01*
X140477525Y-55398211D01*
X140477520Y-55398214D01*
X140398214Y-55477520D01*
X140398211Y-55477525D01*
X140352910Y-55580122D01*
X140352910Y-55580124D01*
X140350000Y-55605205D01*
X137096498Y-55605205D01*
X137085967Y-55552264D01*
X137085966Y-55552260D01*
X137073815Y-55534075D01*
X137030601Y-55469399D01*
X136947740Y-55414034D01*
X136947739Y-55414033D01*
X136947735Y-55414032D01*
X136874677Y-55399500D01*
X136874674Y-55399500D01*
X135125326Y-55399500D01*
X135125323Y-55399500D01*
X135052264Y-55414032D01*
X135052260Y-55414033D01*
X134969399Y-55469399D01*
X134914033Y-55552260D01*
X134914032Y-55552264D01*
X134899500Y-55625321D01*
X134899500Y-57374678D01*
X134914032Y-57447735D01*
X134914033Y-57447739D01*
X134914034Y-57447740D01*
X134969399Y-57530601D01*
X135052260Y-57585966D01*
X135052264Y-57585967D01*
X135125321Y-57600499D01*
X135125324Y-57600500D01*
X135125326Y-57600500D01*
X135525500Y-57600500D01*
X135592539Y-57620185D01*
X135638294Y-57672989D01*
X135649500Y-57724500D01*
X135649500Y-66703456D01*
X135629815Y-66770495D01*
X135613181Y-66791137D01*
X129066872Y-73337446D01*
X129005549Y-73370931D01*
X128979191Y-73373765D01*
X128264666Y-73373765D01*
X128197627Y-73354080D01*
X128151872Y-73301276D01*
X128141025Y-73240336D01*
X128141902Y-73228824D01*
X128150500Y-73196740D01*
X128150500Y-73116087D01*
X128150859Y-73111380D01*
X128161620Y-73082938D01*
X128170185Y-73053770D01*
X128174843Y-73047988D01*
X128175584Y-73046032D01*
X128177661Y-73044491D01*
X128186819Y-73033128D01*
X128784104Y-72435843D01*
X129580470Y-71639477D01*
X129626614Y-71559553D01*
X129627310Y-71556953D01*
X129628408Y-71552858D01*
X129628408Y-71552856D01*
X129650500Y-71470409D01*
X129650500Y-68297771D01*
X129670185Y-68230732D01*
X129722989Y-68184977D01*
X129792147Y-68175033D01*
X129806573Y-68177991D01*
X129927021Y-68210266D01*
X129927024Y-68210266D01*
X130071968Y-68210266D01*
X130071971Y-68210266D01*
X130211981Y-68172750D01*
X130337511Y-68100275D01*
X130440005Y-67997781D01*
X130512480Y-67872251D01*
X130536475Y-67782697D01*
X130568566Y-67727114D01*
X131284908Y-67010772D01*
X131346229Y-66977289D01*
X131415921Y-66982273D01*
X131441477Y-66995353D01*
X131502256Y-67035964D01*
X131502258Y-67035964D01*
X131502260Y-67035966D01*
X131502262Y-67035966D01*
X131502264Y-67035967D01*
X131575321Y-67050499D01*
X131575324Y-67050500D01*
X131575326Y-67050500D01*
X132624676Y-67050500D01*
X132624677Y-67050499D01*
X132697740Y-67035966D01*
X132780601Y-66980601D01*
X132835966Y-66897740D01*
X132850500Y-66824674D01*
X132850500Y-64975326D01*
X132850500Y-64975323D01*
X132850499Y-64975321D01*
X132835967Y-64902264D01*
X132835966Y-64902260D01*
X132780601Y-64819399D01*
X132697740Y-64764034D01*
X132697739Y-64764033D01*
X132697735Y-64764032D01*
X132624677Y-64749500D01*
X132624674Y-64749500D01*
X131575326Y-64749500D01*
X131575323Y-64749500D01*
X131502264Y-64764032D01*
X131502260Y-64764033D01*
X131419399Y-64819399D01*
X131364033Y-64902260D01*
X131364032Y-64902264D01*
X131349500Y-64975321D01*
X131349500Y-65903455D01*
X131329815Y-65970494D01*
X131313181Y-65991136D01*
X130219663Y-67084653D01*
X130158340Y-67118138D01*
X130099890Y-67116747D01*
X130071971Y-67109266D01*
X129927021Y-67109266D01*
X129806592Y-67141534D01*
X129736744Y-67139872D01*
X129678881Y-67100710D01*
X129652989Y-67046478D01*
X129650500Y-67034242D01*
X129650500Y-66953856D01*
X129626614Y-66864712D01*
X129620346Y-66853856D01*
X129580470Y-66784788D01*
X128986819Y-66191137D01*
X128953334Y-66129814D01*
X128950500Y-66103456D01*
X128950500Y-64975323D01*
X128950499Y-64975321D01*
X128935967Y-64902264D01*
X128935966Y-64902260D01*
X128880601Y-64819399D01*
X128797740Y-64764034D01*
X128797739Y-64764033D01*
X128797735Y-64764032D01*
X128724677Y-64749500D01*
X128724674Y-64749500D01*
X127675326Y-64749500D01*
X127675323Y-64749500D01*
X127602264Y-64764032D01*
X127602260Y-64764033D01*
X127519399Y-64819399D01*
X127464033Y-64902260D01*
X127464032Y-64902264D01*
X127449500Y-64975321D01*
X127449500Y-66824678D01*
X127464032Y-66897735D01*
X127464033Y-66897739D01*
X127477615Y-66918066D01*
X127519399Y-66980601D01*
X127576756Y-67018925D01*
X127602260Y-67035966D01*
X127602264Y-67035967D01*
X127675321Y-67050499D01*
X127675324Y-67050500D01*
X127675326Y-67050500D01*
X128724675Y-67050500D01*
X128739146Y-67047621D01*
X128768219Y-67041838D01*
X128776126Y-67042545D01*
X128783565Y-67039771D01*
X128810424Y-67045614D01*
X128837809Y-67048064D01*
X128845819Y-67053313D01*
X128851838Y-67054623D01*
X128880092Y-67075774D01*
X128913181Y-67108863D01*
X128946666Y-67170186D01*
X128949500Y-67196544D01*
X128949500Y-71227721D01*
X128929815Y-71294760D01*
X128913181Y-71315402D01*
X127691137Y-72537446D01*
X127629814Y-72570931D01*
X127603456Y-72573765D01*
X127527525Y-72573765D01*
X127398993Y-72608205D01*
X127387511Y-72611282D01*
X127261988Y-72683753D01*
X127261982Y-72683758D01*
X127159493Y-72786247D01*
X127159488Y-72786253D01*
X127087017Y-72911776D01*
X127049499Y-73051793D01*
X127048439Y-73059850D01*
X127046609Y-73059609D01*
X127029815Y-73116804D01*
X126977011Y-73162559D01*
X126925500Y-73173765D01*
X126851790Y-73173765D01*
X126724752Y-73207805D01*
X126711776Y-73211282D01*
X126586253Y-73283753D01*
X126586247Y-73283758D01*
X126483758Y-73386247D01*
X126483753Y-73386253D01*
X126411282Y-73511776D01*
X126411281Y-73511780D01*
X126373765Y-73651790D01*
X121792358Y-73651790D01*
X121740511Y-73561988D01*
X121740506Y-73561982D01*
X121686819Y-73508295D01*
X121653334Y-73446972D01*
X121650500Y-73420614D01*
X121650500Y-70896543D01*
X121670185Y-70829504D01*
X121686819Y-70808862D01*
X122708862Y-69786819D01*
X122770185Y-69753334D01*
X122796543Y-69750500D01*
X122872472Y-69750500D01*
X122872475Y-69750500D01*
X123012485Y-69712984D01*
X123138015Y-69640509D01*
X123240509Y-69538015D01*
X123312984Y-69412485D01*
X123350500Y-69272475D01*
X123350500Y-69127525D01*
X123312984Y-68987515D01*
X123291613Y-68950500D01*
X123240511Y-68861988D01*
X123240506Y-68861982D01*
X123138017Y-68759493D01*
X123138011Y-68759488D01*
X123012488Y-68687017D01*
X123012489Y-68687017D01*
X123001006Y-68683940D01*
X122872475Y-68649500D01*
X122727525Y-68649500D01*
X122598993Y-68683940D01*
X122587511Y-68687017D01*
X122461988Y-68759488D01*
X122461982Y-68759493D01*
X122359493Y-68861982D01*
X122359488Y-68861988D01*
X122287017Y-68987511D01*
X122287016Y-68987515D01*
X122249500Y-69127525D01*
X122249500Y-69127527D01*
X122249500Y-69203455D01*
X122229815Y-69270494D01*
X122213181Y-69291136D01*
X121750189Y-69754128D01*
X121688866Y-69787613D01*
X121619174Y-69782629D01*
X121563241Y-69740757D01*
X121542734Y-69698544D01*
X121512984Y-69587515D01*
X121484406Y-69538017D01*
X121440511Y-69461988D01*
X121440506Y-69461982D01*
X121386819Y-69408295D01*
X121353334Y-69346972D01*
X121350500Y-69320614D01*
X121350500Y-68327525D01*
X127549500Y-68327525D01*
X127549500Y-68472475D01*
X127583165Y-68598112D01*
X127587017Y-68612488D01*
X127659488Y-68738011D01*
X127659490Y-68738013D01*
X127659491Y-68738015D01*
X127761985Y-68840509D01*
X127761986Y-68840510D01*
X127761988Y-68840511D01*
X127887511Y-68912982D01*
X127887512Y-68912982D01*
X127887515Y-68912984D01*
X128027525Y-68950500D01*
X128027528Y-68950500D01*
X128172472Y-68950500D01*
X128172475Y-68950500D01*
X128312485Y-68912984D01*
X128438015Y-68840509D01*
X128540509Y-68738015D01*
X128612984Y-68612485D01*
X128650500Y-68472475D01*
X128650500Y-68327525D01*
X128612984Y-68187515D01*
X128612696Y-68187017D01*
X128540511Y-68061988D01*
X128540506Y-68061982D01*
X128438017Y-67959493D01*
X128438011Y-67959488D01*
X128312488Y-67887017D01*
X128312489Y-67887017D01*
X128301006Y-67883940D01*
X128172475Y-67849500D01*
X128027525Y-67849500D01*
X127898993Y-67883940D01*
X127887511Y-67887017D01*
X127761988Y-67959488D01*
X127761982Y-67959493D01*
X127659493Y-68061982D01*
X127659488Y-68061988D01*
X127587017Y-68187511D01*
X127587016Y-68187515D01*
X127549500Y-68327525D01*
X121350500Y-68327525D01*
X121350500Y-58953858D01*
X121350500Y-58953856D01*
X121326614Y-58864712D01*
X121280470Y-58784788D01*
X115247070Y-52751388D01*
X115213585Y-52690065D01*
X115218569Y-52620373D01*
X115260441Y-52564440D01*
X115325905Y-52540023D01*
X115354149Y-52541234D01*
X115409494Y-52550000D01*
X115590506Y-52550000D01*
X115769293Y-52521682D01*
X115941444Y-52465748D01*
X115941447Y-52465747D01*
X116102730Y-52383568D01*
X116200442Y-52312574D01*
X116200443Y-52312574D01*
X115731538Y-51843670D01*
X115807007Y-51800099D01*
X115900099Y-51707007D01*
X115943670Y-51631539D01*
X116412574Y-52100443D01*
X116412574Y-52100442D01*
X116483568Y-52002730D01*
X116565747Y-51841447D01*
X116565748Y-51841444D01*
X116621682Y-51669293D01*
X116650000Y-51490506D01*
X116650000Y-51313389D01*
X116939500Y-51313389D01*
X116939500Y-51486611D01*
X116966598Y-51657701D01*
X117020127Y-51822445D01*
X117098768Y-51976788D01*
X117200586Y-52116928D01*
X117323072Y-52239414D01*
X117463212Y-52341232D01*
X117617555Y-52419873D01*
X117782299Y-52473402D01*
X117953389Y-52500500D01*
X117953390Y-52500500D01*
X118126610Y-52500500D01*
X118126611Y-52500500D01*
X118297701Y-52473402D01*
X118462445Y-52419873D01*
X118616788Y-52341232D01*
X118756928Y-52239414D01*
X118879414Y-52116928D01*
X118981232Y-51976788D01*
X119059873Y-51822445D01*
X119113402Y-51657701D01*
X119140500Y-51486611D01*
X119140500Y-51313389D01*
X119479500Y-51313389D01*
X119479500Y-51486611D01*
X119506598Y-51657701D01*
X119560127Y-51822445D01*
X119638768Y-51976788D01*
X119740586Y-52116928D01*
X119863072Y-52239414D01*
X120003212Y-52341232D01*
X120157555Y-52419873D01*
X120322299Y-52473402D01*
X120493389Y-52500500D01*
X120493390Y-52500500D01*
X120666610Y-52500500D01*
X120666611Y-52500500D01*
X120837701Y-52473402D01*
X121002445Y-52419873D01*
X121156788Y-52341232D01*
X121296928Y-52239414D01*
X121419414Y-52116928D01*
X121521232Y-51976788D01*
X121599873Y-51822445D01*
X121653402Y-51657701D01*
X121680500Y-51486611D01*
X121680500Y-51313389D01*
X122019500Y-51313389D01*
X122019500Y-51486611D01*
X122046598Y-51657701D01*
X122100127Y-51822445D01*
X122178768Y-51976788D01*
X122280586Y-52116928D01*
X122403072Y-52239414D01*
X122543212Y-52341232D01*
X122697555Y-52419873D01*
X122862299Y-52473402D01*
X123033389Y-52500500D01*
X123033390Y-52500500D01*
X123206610Y-52500500D01*
X123206611Y-52500500D01*
X123377701Y-52473402D01*
X123542445Y-52419873D01*
X123696788Y-52341232D01*
X123836928Y-52239414D01*
X123959414Y-52116928D01*
X124061232Y-51976788D01*
X124139873Y-51822445D01*
X124193402Y-51657701D01*
X124220500Y-51486611D01*
X124220500Y-51313389D01*
X124559500Y-51313389D01*
X124559500Y-51486611D01*
X124586598Y-51657701D01*
X124640127Y-51822445D01*
X124718768Y-51976788D01*
X124820586Y-52116928D01*
X124943072Y-52239414D01*
X125083212Y-52341232D01*
X125237555Y-52419873D01*
X125402299Y-52473402D01*
X125573389Y-52500500D01*
X125573390Y-52500500D01*
X125746610Y-52500500D01*
X125746611Y-52500500D01*
X125917701Y-52473402D01*
X126082445Y-52419873D01*
X126236788Y-52341232D01*
X126376928Y-52239414D01*
X126499414Y-52116928D01*
X126601232Y-51976788D01*
X126679873Y-51822445D01*
X126733402Y-51657701D01*
X126760500Y-51486611D01*
X126760500Y-51313389D01*
X127099500Y-51313389D01*
X127099500Y-51486611D01*
X127126598Y-51657701D01*
X127180127Y-51822445D01*
X127258768Y-51976788D01*
X127360586Y-52116928D01*
X127483072Y-52239414D01*
X127623212Y-52341232D01*
X127777555Y-52419873D01*
X127942299Y-52473402D01*
X128113389Y-52500500D01*
X128113390Y-52500500D01*
X128286610Y-52500500D01*
X128286611Y-52500500D01*
X128457701Y-52473402D01*
X128622445Y-52419873D01*
X128776788Y-52341232D01*
X128916928Y-52239414D01*
X129039414Y-52116928D01*
X129141232Y-51976788D01*
X129219873Y-51822445D01*
X129273402Y-51657701D01*
X129300500Y-51486611D01*
X129300500Y-51313389D01*
X129639500Y-51313389D01*
X129639500Y-51486611D01*
X129666598Y-51657701D01*
X129720127Y-51822445D01*
X129798768Y-51976788D01*
X129900586Y-52116928D01*
X130023072Y-52239414D01*
X130163212Y-52341232D01*
X130317555Y-52419873D01*
X130482299Y-52473402D01*
X130653389Y-52500500D01*
X130653390Y-52500500D01*
X130826610Y-52500500D01*
X130826611Y-52500500D01*
X130997701Y-52473402D01*
X131162445Y-52419873D01*
X131316788Y-52341232D01*
X131456928Y-52239414D01*
X131579414Y-52116928D01*
X131681232Y-51976788D01*
X131759873Y-51822445D01*
X131813402Y-51657701D01*
X131840500Y-51486611D01*
X131840500Y-51313389D01*
X131813402Y-51142299D01*
X131759873Y-50977555D01*
X131681232Y-50823212D01*
X131579414Y-50683072D01*
X131456928Y-50560586D01*
X131408390Y-50525321D01*
X132179500Y-50525321D01*
X132179500Y-52274678D01*
X132194032Y-52347735D01*
X132194033Y-52347739D01*
X132194034Y-52347740D01*
X132249399Y-52430601D01*
X132332260Y-52485966D01*
X132332264Y-52485967D01*
X132405321Y-52500499D01*
X132405324Y-52500500D01*
X132405326Y-52500500D01*
X134154676Y-52500500D01*
X134154677Y-52500499D01*
X134227740Y-52485966D01*
X134310601Y-52430601D01*
X134365966Y-52347740D01*
X134380500Y-52274674D01*
X134380500Y-51105205D01*
X135850000Y-51105205D01*
X135850000Y-51850000D01*
X136522555Y-51850000D01*
X136500000Y-51934174D01*
X136500000Y-52065826D01*
X136522555Y-52150000D01*
X135850001Y-52150000D01*
X135850001Y-52894785D01*
X135850002Y-52894808D01*
X135852908Y-52919869D01*
X135852909Y-52919873D01*
X135898211Y-53022474D01*
X135898214Y-53022479D01*
X135977520Y-53101785D01*
X135977525Y-53101788D01*
X136080123Y-53147089D01*
X136105206Y-53149999D01*
X136849999Y-53149999D01*
X136850000Y-53149998D01*
X136850000Y-52477445D01*
X136934174Y-52500000D01*
X137065826Y-52500000D01*
X137150000Y-52477445D01*
X137150000Y-53149999D01*
X137894786Y-53149999D01*
X137894808Y-53149997D01*
X137919869Y-53147091D01*
X137919873Y-53147090D01*
X138022474Y-53101788D01*
X138022479Y-53101785D01*
X138101785Y-53022479D01*
X138101788Y-53022474D01*
X138147089Y-52919877D01*
X138147089Y-52919875D01*
X138149999Y-52894794D01*
X138150000Y-52894791D01*
X138150000Y-52150000D01*
X137477445Y-52150000D01*
X137500000Y-52065826D01*
X137500000Y-51934174D01*
X137477445Y-51850000D01*
X138149999Y-51850000D01*
X138149999Y-51105214D01*
X138149997Y-51105191D01*
X138147091Y-51080130D01*
X138147090Y-51080126D01*
X138101788Y-50977525D01*
X138101785Y-50977520D01*
X138022479Y-50898214D01*
X138022474Y-50898211D01*
X137919876Y-50852910D01*
X137894794Y-50850000D01*
X137150000Y-50850000D01*
X137150000Y-51522554D01*
X137065826Y-51500000D01*
X136934174Y-51500000D01*
X136850000Y-51522554D01*
X136850000Y-50850000D01*
X136105214Y-50850000D01*
X136105191Y-50850002D01*
X136080130Y-50852908D01*
X136080126Y-50852909D01*
X135977525Y-50898211D01*
X135977520Y-50898214D01*
X135898214Y-50977520D01*
X135898211Y-50977525D01*
X135852910Y-51080122D01*
X135852910Y-51080124D01*
X135850000Y-51105205D01*
X134380500Y-51105205D01*
X134380500Y-50525326D01*
X134380500Y-50525323D01*
X134380499Y-50525321D01*
X134365967Y-50452264D01*
X134365966Y-50452260D01*
X134342028Y-50416434D01*
X134310601Y-50369399D01*
X134227740Y-50314034D01*
X134227739Y-50314033D01*
X134227735Y-50314032D01*
X134154677Y-50299500D01*
X134154674Y-50299500D01*
X132405326Y-50299500D01*
X132405323Y-50299500D01*
X132332264Y-50314032D01*
X132332260Y-50314033D01*
X132249399Y-50369399D01*
X132194033Y-50452260D01*
X132194032Y-50452264D01*
X132179500Y-50525321D01*
X131408390Y-50525321D01*
X131316788Y-50458768D01*
X131162445Y-50380127D01*
X130997701Y-50326598D01*
X130997699Y-50326597D01*
X130997698Y-50326597D01*
X130866271Y-50305781D01*
X130826611Y-50299500D01*
X130653389Y-50299500D01*
X130613728Y-50305781D01*
X130482302Y-50326597D01*
X130317552Y-50380128D01*
X130163211Y-50458768D01*
X130123769Y-50487425D01*
X130023072Y-50560586D01*
X130023070Y-50560588D01*
X130023069Y-50560588D01*
X129900588Y-50683069D01*
X129900588Y-50683070D01*
X129900586Y-50683072D01*
X129888610Y-50699556D01*
X129798768Y-50823211D01*
X129720128Y-50977552D01*
X129666597Y-51142302D01*
X129656349Y-51207007D01*
X129639500Y-51313389D01*
X129300500Y-51313389D01*
X129273402Y-51142299D01*
X129219873Y-50977555D01*
X129141232Y-50823212D01*
X129039414Y-50683072D01*
X128916928Y-50560586D01*
X128776788Y-50458768D01*
X128622445Y-50380127D01*
X128457701Y-50326598D01*
X128457699Y-50326597D01*
X128457698Y-50326597D01*
X128326271Y-50305781D01*
X128286611Y-50299500D01*
X128113389Y-50299500D01*
X128073728Y-50305781D01*
X127942302Y-50326597D01*
X127777552Y-50380128D01*
X127623211Y-50458768D01*
X127583769Y-50487425D01*
X127483072Y-50560586D01*
X127483070Y-50560588D01*
X127483069Y-50560588D01*
X127360588Y-50683069D01*
X127360588Y-50683070D01*
X127360586Y-50683072D01*
X127348610Y-50699556D01*
X127258768Y-50823211D01*
X127180128Y-50977552D01*
X127126597Y-51142302D01*
X127116349Y-51207007D01*
X127099500Y-51313389D01*
X126760500Y-51313389D01*
X126733402Y-51142299D01*
X126679873Y-50977555D01*
X126601232Y-50823212D01*
X126499414Y-50683072D01*
X126376928Y-50560586D01*
X126236788Y-50458768D01*
X126082445Y-50380127D01*
X125917701Y-50326598D01*
X125917699Y-50326597D01*
X125917698Y-50326597D01*
X125786271Y-50305781D01*
X125746611Y-50299500D01*
X125573389Y-50299500D01*
X125533728Y-50305781D01*
X125402302Y-50326597D01*
X125237552Y-50380128D01*
X125083211Y-50458768D01*
X125043769Y-50487425D01*
X124943072Y-50560586D01*
X124943070Y-50560588D01*
X124943069Y-50560588D01*
X124820588Y-50683069D01*
X124820588Y-50683070D01*
X124820586Y-50683072D01*
X124808610Y-50699556D01*
X124718768Y-50823211D01*
X124640128Y-50977552D01*
X124586597Y-51142302D01*
X124576349Y-51207007D01*
X124559500Y-51313389D01*
X124220500Y-51313389D01*
X124193402Y-51142299D01*
X124139873Y-50977555D01*
X124061232Y-50823212D01*
X123959414Y-50683072D01*
X123836928Y-50560586D01*
X123696788Y-50458768D01*
X123542445Y-50380127D01*
X123377701Y-50326598D01*
X123377699Y-50326597D01*
X123377698Y-50326597D01*
X123246271Y-50305781D01*
X123206611Y-50299500D01*
X123033389Y-50299500D01*
X122993728Y-50305781D01*
X122862302Y-50326597D01*
X122697552Y-50380128D01*
X122543211Y-50458768D01*
X122503769Y-50487425D01*
X122403072Y-50560586D01*
X122403070Y-50560588D01*
X122403069Y-50560588D01*
X122280588Y-50683069D01*
X122280588Y-50683070D01*
X122280586Y-50683072D01*
X122268610Y-50699556D01*
X122178768Y-50823211D01*
X122100128Y-50977552D01*
X122046597Y-51142302D01*
X122036349Y-51207007D01*
X122019500Y-51313389D01*
X121680500Y-51313389D01*
X121653402Y-51142299D01*
X121599873Y-50977555D01*
X121521232Y-50823212D01*
X121419414Y-50683072D01*
X121296928Y-50560586D01*
X121156788Y-50458768D01*
X121002445Y-50380127D01*
X120837701Y-50326598D01*
X120837699Y-50326597D01*
X120837698Y-50326597D01*
X120706271Y-50305781D01*
X120666611Y-50299500D01*
X120493389Y-50299500D01*
X120453728Y-50305781D01*
X120322302Y-50326597D01*
X120157552Y-50380128D01*
X120003211Y-50458768D01*
X119963769Y-50487425D01*
X119863072Y-50560586D01*
X119863070Y-50560588D01*
X119863069Y-50560588D01*
X119740588Y-50683069D01*
X119740588Y-50683070D01*
X119740586Y-50683072D01*
X119728610Y-50699556D01*
X119638768Y-50823211D01*
X119560128Y-50977552D01*
X119506597Y-51142302D01*
X119496349Y-51207007D01*
X119479500Y-51313389D01*
X119140500Y-51313389D01*
X119113402Y-51142299D01*
X119059873Y-50977555D01*
X118981232Y-50823212D01*
X118879414Y-50683072D01*
X118756928Y-50560586D01*
X118616788Y-50458768D01*
X118462445Y-50380127D01*
X118297701Y-50326598D01*
X118297699Y-50326597D01*
X118297698Y-50326597D01*
X118166271Y-50305781D01*
X118126611Y-50299500D01*
X117953389Y-50299500D01*
X117913728Y-50305781D01*
X117782302Y-50326597D01*
X117617552Y-50380128D01*
X117463211Y-50458768D01*
X117423769Y-50487425D01*
X117323072Y-50560586D01*
X117323070Y-50560588D01*
X117323069Y-50560588D01*
X117200588Y-50683069D01*
X117200588Y-50683070D01*
X117200586Y-50683072D01*
X117188610Y-50699556D01*
X117098768Y-50823211D01*
X117020128Y-50977552D01*
X116966597Y-51142302D01*
X116956349Y-51207007D01*
X116939500Y-51313389D01*
X116650000Y-51313389D01*
X116650000Y-51309493D01*
X116621682Y-51130706D01*
X116565748Y-50958555D01*
X116565747Y-50958552D01*
X116483567Y-50797268D01*
X116412574Y-50699556D01*
X116412574Y-50699555D01*
X115943670Y-51168460D01*
X115900099Y-51092993D01*
X115807007Y-50999901D01*
X115731539Y-50956329D01*
X116200443Y-50487425D01*
X116200442Y-50487424D01*
X116102731Y-50416432D01*
X115941447Y-50334252D01*
X115941444Y-50334251D01*
X115769293Y-50278317D01*
X115590506Y-50250000D01*
X115409494Y-50250000D01*
X115230706Y-50278317D01*
X115058555Y-50334251D01*
X115058552Y-50334252D01*
X114897265Y-50416434D01*
X114799556Y-50487423D01*
X114799556Y-50487425D01*
X115268461Y-50956329D01*
X115192993Y-50999901D01*
X115099901Y-51092993D01*
X115056329Y-51168461D01*
X114587425Y-50699556D01*
X114587423Y-50699556D01*
X114516434Y-50797265D01*
X114434252Y-50958552D01*
X114434251Y-50958555D01*
X114378317Y-51130706D01*
X114350000Y-51309493D01*
X114350000Y-51490501D01*
X114358766Y-51545851D01*
X114349810Y-51615145D01*
X114304813Y-51668596D01*
X114238061Y-51689235D01*
X114170748Y-51670509D01*
X114148611Y-51652929D01*
X113615213Y-51119531D01*
X113615208Y-51119527D01*
X113535290Y-51073387D01*
X113535289Y-51073386D01*
X113535288Y-51073386D01*
X113446144Y-51049500D01*
X113446143Y-51049500D01*
X113024500Y-51049500D01*
X112957461Y-51029815D01*
X112911706Y-50977011D01*
X112900500Y-50925500D01*
X112900500Y-50525323D01*
X112900499Y-50525321D01*
X112885967Y-50452264D01*
X112885966Y-50452260D01*
X112862028Y-50416434D01*
X112830601Y-50369399D01*
X112747740Y-50314034D01*
X112747739Y-50314033D01*
X112747735Y-50314032D01*
X112674677Y-50299500D01*
X112674674Y-50299500D01*
X110925326Y-50299500D01*
X110925323Y-50299500D01*
X110852264Y-50314032D01*
X110852260Y-50314033D01*
X110769399Y-50369399D01*
X110714033Y-50452260D01*
X110714032Y-50452264D01*
X110699500Y-50525321D01*
X110699500Y-52274678D01*
X110714032Y-52347735D01*
X110714033Y-52347739D01*
X110714034Y-52347740D01*
X110769399Y-52430601D01*
X110852260Y-52485966D01*
X110852264Y-52485967D01*
X110925321Y-52500499D01*
X110925324Y-52500500D01*
X110925326Y-52500500D01*
X112674676Y-52500500D01*
X112674677Y-52500499D01*
X112747740Y-52485966D01*
X112830601Y-52430601D01*
X112885966Y-52347740D01*
X112900500Y-52274674D01*
X112900500Y-51874500D01*
X112903050Y-51865814D01*
X112901762Y-51856853D01*
X112912740Y-51832812D01*
X112920185Y-51807461D01*
X112927025Y-51801533D01*
X112930787Y-51793297D01*
X112953021Y-51779007D01*
X112972989Y-51761706D01*
X112983503Y-51759418D01*
X112989565Y-51755523D01*
X113024500Y-51750500D01*
X113203456Y-51750500D01*
X113270495Y-51770185D01*
X113291137Y-51786819D01*
X116192137Y-54687819D01*
X116225622Y-54749142D01*
X116220638Y-54818834D01*
X116178766Y-54874767D01*
X116113302Y-54899184D01*
X116104456Y-54899500D01*
X114625323Y-54899500D01*
X114552264Y-54914032D01*
X114552260Y-54914033D01*
X114469399Y-54969399D01*
X114414033Y-55052260D01*
X114414032Y-55052264D01*
X114399500Y-55125321D01*
X114399500Y-55271375D01*
X114379815Y-55338414D01*
X114363181Y-55359056D01*
X114337450Y-55384786D01*
X114337446Y-55384791D01*
X114291304Y-55464713D01*
X114291303Y-55464714D01*
X114267420Y-55553850D01*
X114267420Y-55646149D01*
X114291303Y-55735285D01*
X114291304Y-55735286D01*
X114337446Y-55815208D01*
X114337450Y-55815213D01*
X114363181Y-55840944D01*
X114396666Y-55902267D01*
X114399500Y-55928625D01*
X114399500Y-56874678D01*
X114414032Y-56947735D01*
X114414033Y-56947739D01*
X114414034Y-56947740D01*
X114469399Y-57030601D01*
X114522118Y-57065826D01*
X114552260Y-57085966D01*
X114552264Y-57085967D01*
X114625321Y-57100499D01*
X114625324Y-57100500D01*
X114625326Y-57100500D01*
X115025500Y-57100500D01*
X115092539Y-57120185D01*
X115138294Y-57172989D01*
X115149500Y-57224500D01*
X115149500Y-63546143D01*
X115172045Y-63630284D01*
X115173385Y-63635285D01*
X115173387Y-63635290D01*
X115219527Y-63715208D01*
X115219530Y-63715212D01*
X117283246Y-65778928D01*
X117316731Y-65840251D01*
X117311747Y-65909943D01*
X117269875Y-65965876D01*
X117257569Y-65973994D01*
X117233703Y-65987773D01*
X117233697Y-65987778D01*
X117131208Y-66090267D01*
X117131203Y-66090273D01*
X117058732Y-66215796D01*
X117058731Y-66215800D01*
X117021215Y-66355810D01*
X117021215Y-66500760D01*
X117045969Y-66593142D01*
X117058732Y-66640773D01*
X117131203Y-66766296D01*
X117131208Y-66766302D01*
X117184896Y-66819990D01*
X117218381Y-66881313D01*
X117221215Y-66907671D01*
X117221215Y-69026171D01*
X117201530Y-69093210D01*
X117148726Y-69138965D01*
X117079568Y-69148909D01*
X117016012Y-69119884D01*
X117009534Y-69113852D01*
X112286819Y-64391137D01*
X112253334Y-64329814D01*
X112250500Y-64303456D01*
X112250500Y-57224500D01*
X112270185Y-57157461D01*
X112322989Y-57111706D01*
X112374500Y-57100500D01*
X112774676Y-57100500D01*
X112774677Y-57100499D01*
X112847740Y-57085966D01*
X112930601Y-57030601D01*
X112985966Y-56947740D01*
X113000500Y-56874674D01*
X113000500Y-55125326D01*
X113000500Y-55125323D01*
X113000499Y-55125321D01*
X112985967Y-55052264D01*
X112985966Y-55052260D01*
X112930601Y-54969399D01*
X112847740Y-54914034D01*
X112847739Y-54914033D01*
X112847735Y-54914032D01*
X112774677Y-54899500D01*
X112774674Y-54899500D01*
X111025326Y-54899500D01*
X111025323Y-54899500D01*
X110952264Y-54914032D01*
X110952260Y-54914033D01*
X110869399Y-54969399D01*
X110814033Y-55052260D01*
X110814032Y-55052264D01*
X110799500Y-55125321D01*
X110799500Y-56874678D01*
X110814032Y-56947735D01*
X110814033Y-56947739D01*
X110814034Y-56947740D01*
X110869399Y-57030601D01*
X110922118Y-57065826D01*
X110952260Y-57085966D01*
X110952264Y-57085967D01*
X111025321Y-57100499D01*
X111025324Y-57100500D01*
X111025326Y-57100500D01*
X111425500Y-57100500D01*
X111492539Y-57120185D01*
X111538294Y-57172989D01*
X111549500Y-57224500D01*
X111549500Y-62852456D01*
X111529815Y-62919495D01*
X111477011Y-62965250D01*
X111407853Y-62975194D01*
X111344297Y-62946169D01*
X111337819Y-62940137D01*
X107535819Y-59138137D01*
X107502334Y-59076814D01*
X107499500Y-59050456D01*
X107499500Y-57224500D01*
X107519185Y-57157461D01*
X107571989Y-57111706D01*
X107623500Y-57100500D01*
X109174676Y-57100500D01*
X109174677Y-57100499D01*
X109247740Y-57085966D01*
X109330601Y-57030601D01*
X109385966Y-56947740D01*
X109400500Y-56874674D01*
X109400500Y-55125326D01*
X109400500Y-55125323D01*
X109400499Y-55125321D01*
X109385967Y-55052264D01*
X109385966Y-55052260D01*
X109330601Y-54969399D01*
X109247740Y-54914034D01*
X109247739Y-54914033D01*
X109247735Y-54914032D01*
X109174677Y-54899500D01*
X109174674Y-54899500D01*
X107623500Y-54899500D01*
X107556461Y-54879815D01*
X107510706Y-54827011D01*
X107499500Y-54775500D01*
X107499500Y-53902858D01*
X107499500Y-53902856D01*
X107475614Y-53813712D01*
X107475611Y-53813706D01*
X107429473Y-53733794D01*
X107429470Y-53733791D01*
X107429469Y-53733788D01*
X107364212Y-53668531D01*
X105736819Y-52041137D01*
X105703334Y-51979814D01*
X105700500Y-51953456D01*
X105700500Y-50525323D01*
X105700499Y-50525321D01*
X107099500Y-50525321D01*
X107099500Y-52274678D01*
X107114032Y-52347735D01*
X107114033Y-52347739D01*
X107114034Y-52347740D01*
X107169399Y-52430601D01*
X107252260Y-52485966D01*
X107252264Y-52485967D01*
X107325321Y-52500499D01*
X107325324Y-52500500D01*
X107325326Y-52500500D01*
X109074676Y-52500500D01*
X109074677Y-52500499D01*
X109147740Y-52485966D01*
X109230601Y-52430601D01*
X109285966Y-52347740D01*
X109300500Y-52274674D01*
X109300500Y-50525326D01*
X109300500Y-50525323D01*
X109300499Y-50525321D01*
X109285967Y-50452264D01*
X109285966Y-50452260D01*
X109262028Y-50416434D01*
X109230601Y-50369399D01*
X109147740Y-50314034D01*
X109147739Y-50314033D01*
X109147735Y-50314032D01*
X109074677Y-50299500D01*
X109074674Y-50299500D01*
X107325326Y-50299500D01*
X107325323Y-50299500D01*
X107252264Y-50314032D01*
X107252260Y-50314033D01*
X107169399Y-50369399D01*
X107114033Y-50452260D01*
X107114032Y-50452264D01*
X107099500Y-50525321D01*
X105700499Y-50525321D01*
X105685967Y-50452264D01*
X105685966Y-50452260D01*
X105662028Y-50416434D01*
X105630601Y-50369399D01*
X105547740Y-50314034D01*
X105547739Y-50314033D01*
X105547735Y-50314032D01*
X105474677Y-50299500D01*
X105474674Y-50299500D01*
X103725326Y-50299500D01*
X103725323Y-50299500D01*
X103652264Y-50314032D01*
X103652260Y-50314033D01*
X103569399Y-50369399D01*
X103514033Y-50452260D01*
X103514032Y-50452264D01*
X103499500Y-50525321D01*
X103499500Y-52274678D01*
X103514032Y-52347735D01*
X103514033Y-52347739D01*
X103514034Y-52347740D01*
X103569399Y-52430601D01*
X103652260Y-52485966D01*
X103652264Y-52485967D01*
X103725321Y-52500499D01*
X103725324Y-52500500D01*
X103725326Y-52500500D01*
X105153456Y-52500500D01*
X105220495Y-52520185D01*
X105241137Y-52536819D01*
X106762181Y-54057862D01*
X106795666Y-54119185D01*
X106798500Y-54145543D01*
X106798500Y-59293143D01*
X106822386Y-59382287D01*
X106822387Y-59382290D01*
X106868527Y-59462208D01*
X106868531Y-59462213D01*
X107994137Y-60587819D01*
X108027622Y-60649142D01*
X108022638Y-60718834D01*
X107980766Y-60774767D01*
X107915302Y-60799184D01*
X107906456Y-60799500D01*
X106625323Y-60799500D01*
X106552264Y-60814032D01*
X106552260Y-60814033D01*
X106469399Y-60869399D01*
X106414033Y-60952260D01*
X106414032Y-60952264D01*
X106399500Y-61025321D01*
X106399500Y-62774678D01*
X106414032Y-62847735D01*
X106414033Y-62847739D01*
X106414034Y-62847740D01*
X106469399Y-62930601D01*
X106552260Y-62985966D01*
X106552264Y-62985967D01*
X106625321Y-63000499D01*
X106625324Y-63000500D01*
X106625326Y-63000500D01*
X107025500Y-63000500D01*
X107092539Y-63020185D01*
X107138294Y-63072989D01*
X107149500Y-63124500D01*
X107149500Y-68504399D01*
X107129815Y-68571438D01*
X107077011Y-68617193D01*
X107007853Y-68627137D01*
X106944297Y-68598112D01*
X106937819Y-68592080D01*
X104286819Y-65941080D01*
X104253334Y-65879757D01*
X104250500Y-65853399D01*
X104250500Y-63124500D01*
X104270185Y-63057461D01*
X104322989Y-63011706D01*
X104374500Y-63000500D01*
X104774676Y-63000500D01*
X104774677Y-63000499D01*
X104847740Y-62985966D01*
X104930601Y-62930601D01*
X104985966Y-62847740D01*
X105000500Y-62774674D01*
X105000500Y-61025326D01*
X105000500Y-61025323D01*
X105000499Y-61025321D01*
X104985967Y-60952264D01*
X104985966Y-60952260D01*
X104949499Y-60897683D01*
X104930601Y-60869399D01*
X104847740Y-60814034D01*
X104847739Y-60814033D01*
X104847735Y-60814032D01*
X104774677Y-60799500D01*
X104774674Y-60799500D01*
X103025326Y-60799500D01*
X102998690Y-60804798D01*
X102929098Y-60798569D01*
X102873922Y-60755706D01*
X102850678Y-60689816D01*
X102850500Y-60683180D01*
X102850500Y-58396544D01*
X102870185Y-58329505D01*
X102886819Y-58308863D01*
X104058863Y-57136819D01*
X104120186Y-57103334D01*
X104146544Y-57100500D01*
X105574676Y-57100500D01*
X105574677Y-57100499D01*
X105647740Y-57085966D01*
X105730601Y-57030601D01*
X105785966Y-56947740D01*
X105800500Y-56874674D01*
X105800500Y-55125326D01*
X105800500Y-55125323D01*
X105800499Y-55125321D01*
X105785967Y-55052264D01*
X105785966Y-55052260D01*
X105730601Y-54969399D01*
X105647740Y-54914034D01*
X105647739Y-54914033D01*
X105647735Y-54914032D01*
X105574677Y-54899500D01*
X105574674Y-54899500D01*
X103825326Y-54899500D01*
X103825323Y-54899500D01*
X103752264Y-54914032D01*
X103752260Y-54914033D01*
X103669399Y-54969399D01*
X103614033Y-55052260D01*
X103614032Y-55052264D01*
X103599500Y-55125321D01*
X103599500Y-56553456D01*
X103579815Y-56620495D01*
X103563181Y-56641137D01*
X102219531Y-57984786D01*
X102219527Y-57984791D01*
X102173387Y-58064709D01*
X102173386Y-58064712D01*
X102149500Y-58153856D01*
X102149500Y-64638599D01*
X102129815Y-64705638D01*
X102077011Y-64751393D01*
X102007853Y-64761337D01*
X101944297Y-64732312D01*
X101937819Y-64726280D01*
X100686819Y-63475280D01*
X100653334Y-63413957D01*
X100650500Y-63387599D01*
X100650500Y-63124500D01*
X100670185Y-63057461D01*
X100722989Y-63011706D01*
X100774500Y-63000500D01*
X101174676Y-63000500D01*
X101174677Y-63000499D01*
X101247740Y-62985966D01*
X101330601Y-62930601D01*
X101385966Y-62847740D01*
X101400500Y-62774674D01*
X101400500Y-61025326D01*
X101400500Y-61025323D01*
X101400499Y-61025321D01*
X101385967Y-60952264D01*
X101385966Y-60952260D01*
X101349499Y-60897683D01*
X101330601Y-60869399D01*
X101247740Y-60814034D01*
X101247739Y-60814033D01*
X101247735Y-60814032D01*
X101174677Y-60799500D01*
X101174674Y-60799500D01*
X99425326Y-60799500D01*
X99425323Y-60799500D01*
X99352264Y-60814032D01*
X99352260Y-60814033D01*
X99269399Y-60869399D01*
X99214033Y-60952260D01*
X99214032Y-60952264D01*
X99199500Y-61025321D01*
X97800499Y-61025321D01*
X97785967Y-60952264D01*
X97785966Y-60952260D01*
X97749499Y-60897683D01*
X97730601Y-60869399D01*
X97647740Y-60814034D01*
X97647739Y-60814033D01*
X97647735Y-60814032D01*
X97574677Y-60799500D01*
X97574674Y-60799500D01*
X95825326Y-60799500D01*
X95825323Y-60799500D01*
X95752264Y-60814032D01*
X95752260Y-60814033D01*
X95669399Y-60869399D01*
X95614033Y-60952260D01*
X95614032Y-60952264D01*
X95599500Y-61025321D01*
X95599500Y-62774678D01*
X95614032Y-62847735D01*
X95614033Y-62847739D01*
X95614034Y-62847740D01*
X95669399Y-62930601D01*
X95752260Y-62985966D01*
X95752264Y-62985967D01*
X95825321Y-63000499D01*
X95825324Y-63000500D01*
X95825326Y-63000500D01*
X96225500Y-63000500D01*
X96231539Y-63002273D01*
X96237726Y-63001104D01*
X96264664Y-63012000D01*
X96292539Y-63020185D01*
X96296661Y-63024942D01*
X96302498Y-63027303D01*
X96319270Y-63051034D01*
X96338294Y-63072989D01*
X96340105Y-63080514D01*
X96342824Y-63084361D01*
X96346830Y-63108451D01*
X96349380Y-63119041D01*
X96349500Y-63121764D01*
X96349500Y-63246144D01*
X96352551Y-63257529D01*
X96371919Y-63329814D01*
X96373387Y-63335290D01*
X96419527Y-63415208D01*
X96419531Y-63415213D01*
X114449946Y-81445628D01*
X114483431Y-81506951D01*
X114486265Y-81533309D01*
X114486265Y-81609240D01*
X114523781Y-81749250D01*
X114523782Y-81749253D01*
X114596253Y-81874776D01*
X114596255Y-81874778D01*
X114596256Y-81874780D01*
X114698750Y-81977274D01*
X114698751Y-81977275D01*
X114698753Y-81977276D01*
X114824276Y-82049747D01*
X114824277Y-82049747D01*
X114824280Y-82049749D01*
X114964290Y-82087265D01*
X114964293Y-82087265D01*
X115017690Y-82087265D01*
X115084729Y-82106950D01*
X115130484Y-82159754D01*
X115140428Y-82228912D01*
X115111403Y-82292468D01*
X115105371Y-82298946D01*
X113391137Y-84013181D01*
X113329814Y-84046666D01*
X113303456Y-84049500D01*
X105874500Y-84049500D01*
X105807461Y-84029815D01*
X105761706Y-83977011D01*
X105750500Y-83925500D01*
X105750500Y-82774500D01*
X105770185Y-82707461D01*
X105822989Y-82661706D01*
X105874500Y-82650500D01*
X106324676Y-82650500D01*
X106324677Y-82650499D01*
X106397740Y-82635966D01*
X106480601Y-82580601D01*
X106535966Y-82497740D01*
X106550500Y-82424674D01*
X106550500Y-81375326D01*
X106550500Y-81375323D01*
X106550499Y-81375321D01*
X108649500Y-81375321D01*
X108649500Y-82424678D01*
X108664032Y-82497735D01*
X108664033Y-82497739D01*
X108681074Y-82523243D01*
X108719399Y-82580601D01*
X108786336Y-82625326D01*
X108802260Y-82635966D01*
X108802264Y-82635967D01*
X108875321Y-82650499D01*
X108875324Y-82650500D01*
X108875326Y-82650500D01*
X109209082Y-82650500D01*
X109276121Y-82670185D01*
X109321876Y-82722989D01*
X109331820Y-82792147D01*
X109316469Y-82836500D01*
X109287017Y-82887511D01*
X109287016Y-82887515D01*
X109249500Y-83027525D01*
X109249500Y-83172475D01*
X109285801Y-83307951D01*
X109287017Y-83312488D01*
X109359488Y-83438011D01*
X109359490Y-83438013D01*
X109359491Y-83438015D01*
X109461985Y-83540509D01*
X109461986Y-83540510D01*
X109461988Y-83540511D01*
X109587511Y-83612982D01*
X109587512Y-83612982D01*
X109587515Y-83612984D01*
X109727525Y-83650500D01*
X109727528Y-83650500D01*
X109872472Y-83650500D01*
X109872475Y-83650500D01*
X110012485Y-83612984D01*
X110138015Y-83540509D01*
X110240509Y-83438015D01*
X110312984Y-83312485D01*
X110350500Y-83172475D01*
X110350500Y-83027525D01*
X110312984Y-82887515D01*
X110298246Y-82861988D01*
X110283531Y-82836500D01*
X110267058Y-82768600D01*
X110289911Y-82702573D01*
X110344832Y-82659382D01*
X110390918Y-82650500D01*
X110724676Y-82650500D01*
X110724677Y-82650499D01*
X110797740Y-82635966D01*
X110880601Y-82580601D01*
X110935966Y-82497740D01*
X110950500Y-82424674D01*
X110950500Y-81375326D01*
X110950500Y-81375323D01*
X110950499Y-81375321D01*
X110935967Y-81302264D01*
X110935966Y-81302260D01*
X110905101Y-81256067D01*
X110880601Y-81219399D01*
X110797740Y-81164034D01*
X110797739Y-81164033D01*
X110797735Y-81164032D01*
X110724677Y-81149500D01*
X110724674Y-81149500D01*
X110428386Y-81149500D01*
X110361347Y-81129815D01*
X110315592Y-81077011D01*
X110305648Y-81007853D01*
X110334673Y-80944297D01*
X110340705Y-80937819D01*
X110383828Y-80894696D01*
X110440509Y-80838015D01*
X110512984Y-80712485D01*
X110550500Y-80572475D01*
X110550500Y-80427525D01*
X110512984Y-80287515D01*
X110511531Y-80284999D01*
X110440511Y-80161988D01*
X110440506Y-80161982D01*
X110338017Y-80059493D01*
X110338011Y-80059488D01*
X110212488Y-79987017D01*
X110212489Y-79987017D01*
X110201006Y-79983940D01*
X110072475Y-79949500D01*
X109927525Y-79949500D01*
X109798993Y-79983940D01*
X109787511Y-79987017D01*
X109661988Y-80059488D01*
X109661982Y-80059493D01*
X109559493Y-80161982D01*
X109559488Y-80161988D01*
X109487017Y-80287511D01*
X109487016Y-80287515D01*
X109449500Y-80427525D01*
X109449500Y-80572475D01*
X109485157Y-80705547D01*
X109487017Y-80712488D01*
X109559488Y-80838011D01*
X109559493Y-80838017D01*
X109659295Y-80937819D01*
X109692780Y-80999142D01*
X109687796Y-81068834D01*
X109645924Y-81124767D01*
X109580460Y-81149184D01*
X109571614Y-81149500D01*
X108875323Y-81149500D01*
X108802264Y-81164032D01*
X108802260Y-81164033D01*
X108719399Y-81219399D01*
X108664033Y-81302260D01*
X108664032Y-81302264D01*
X108649500Y-81375321D01*
X106550499Y-81375321D01*
X106535967Y-81302264D01*
X106535966Y-81302260D01*
X106505101Y-81256067D01*
X106480601Y-81219399D01*
X106397740Y-81164034D01*
X106397739Y-81164033D01*
X106397735Y-81164032D01*
X106324677Y-81149500D01*
X106324674Y-81149500D01*
X104475326Y-81149500D01*
X104475323Y-81149500D01*
X104402264Y-81164032D01*
X104402260Y-81164033D01*
X104319399Y-81219399D01*
X104264033Y-81302260D01*
X104264032Y-81302264D01*
X104249500Y-81375321D01*
X104249500Y-82424678D01*
X104264032Y-82497735D01*
X104264033Y-82497739D01*
X104281074Y-82523243D01*
X104319399Y-82580601D01*
X104386336Y-82625326D01*
X104402260Y-82635966D01*
X104402264Y-82635967D01*
X104475321Y-82650499D01*
X104475324Y-82650500D01*
X104475326Y-82650500D01*
X104925500Y-82650500D01*
X104992539Y-82670185D01*
X105038294Y-82722989D01*
X105049500Y-82774500D01*
X105049500Y-83925500D01*
X105029815Y-83992539D01*
X104977011Y-84038294D01*
X104925500Y-84049500D01*
X101979386Y-84049500D01*
X101912347Y-84029815D01*
X101891705Y-84013181D01*
X101838017Y-83959493D01*
X101838011Y-83959488D01*
X101712488Y-83887017D01*
X101712489Y-83887017D01*
X101701006Y-83883940D01*
X101572475Y-83849500D01*
X101427525Y-83849500D01*
X101405592Y-83855376D01*
X101335743Y-83853714D01*
X101277881Y-83814551D01*
X101250377Y-83750323D01*
X101249500Y-83735602D01*
X101249500Y-83297544D01*
X101269185Y-83230505D01*
X101285819Y-83209863D01*
X101808863Y-82686819D01*
X101870186Y-82653334D01*
X101896544Y-82650500D01*
X103024676Y-82650500D01*
X103024677Y-82650499D01*
X103097740Y-82635966D01*
X103180601Y-82580601D01*
X103235966Y-82497740D01*
X103250500Y-82424674D01*
X103250500Y-81375326D01*
X103250500Y-81375323D01*
X103250499Y-81375321D01*
X103235967Y-81302264D01*
X103235966Y-81302260D01*
X103205101Y-81256067D01*
X103180601Y-81219399D01*
X103097740Y-81164034D01*
X103097739Y-81164033D01*
X103097735Y-81164032D01*
X103024677Y-81149500D01*
X103024674Y-81149500D01*
X101175326Y-81149500D01*
X101175323Y-81149500D01*
X101102264Y-81164032D01*
X101102260Y-81164033D01*
X101019399Y-81219399D01*
X100964033Y-81302260D01*
X100964032Y-81302264D01*
X100949500Y-81375321D01*
X100949500Y-82424678D01*
X100958161Y-82468219D01*
X100951934Y-82537810D01*
X100924226Y-82580091D01*
X100618528Y-82885790D01*
X100588684Y-82937484D01*
X100588682Y-82937487D01*
X100572386Y-82965709D01*
X100548500Y-83054856D01*
X100548500Y-85145146D01*
X100559719Y-85187012D01*
X100559720Y-85187017D01*
X100572384Y-85234284D01*
X100572385Y-85234286D01*
X100618527Y-85314208D01*
X100618531Y-85314213D01*
X100913181Y-85608862D01*
X100925667Y-85631729D01*
X100941412Y-85652493D01*
X100943644Y-85664651D01*
X100946666Y-85670185D01*
X100949127Y-85686933D01*
X100949500Y-85691731D01*
X100949500Y-85772475D01*
X100958341Y-85805471D01*
X100959229Y-85816890D01*
X100954283Y-85840317D01*
X100953714Y-85864257D01*
X100947199Y-85873882D01*
X100944799Y-85885253D01*
X100927973Y-85902288D01*
X100914551Y-85922119D01*
X100903867Y-85926693D01*
X100895700Y-85934963D01*
X100872334Y-85940197D01*
X100850323Y-85949623D01*
X100835602Y-85950500D01*
X99497544Y-85950500D01*
X99430505Y-85930815D01*
X99409863Y-85914181D01*
X97636819Y-84141137D01*
X97603334Y-84079814D01*
X97600500Y-84053456D01*
X97600500Y-82733142D01*
X97620185Y-82666103D01*
X97672989Y-82620348D01*
X97742147Y-82610404D01*
X97793390Y-82630040D01*
X97802256Y-82635964D01*
X97802258Y-82635964D01*
X97802260Y-82635966D01*
X97802262Y-82635966D01*
X97802264Y-82635967D01*
X97875321Y-82650499D01*
X97875324Y-82650500D01*
X97875326Y-82650500D01*
X98271614Y-82650500D01*
X98338653Y-82670185D01*
X98384408Y-82722989D01*
X98394352Y-82792147D01*
X98365327Y-82855703D01*
X98359557Y-82861898D01*
X98359488Y-82861988D01*
X98287017Y-82987511D01*
X98287016Y-82987515D01*
X98249500Y-83127525D01*
X98249500Y-83272475D01*
X98287016Y-83412485D01*
X98287017Y-83412488D01*
X98359488Y-83538011D01*
X98359490Y-83538013D01*
X98359491Y-83538015D01*
X98461985Y-83640509D01*
X98461986Y-83640510D01*
X98461988Y-83640511D01*
X98587511Y-83712982D01*
X98587512Y-83712982D01*
X98587515Y-83712984D01*
X98727525Y-83750500D01*
X98727528Y-83750500D01*
X98872472Y-83750500D01*
X98872475Y-83750500D01*
X99012485Y-83712984D01*
X99138015Y-83640509D01*
X99240509Y-83538015D01*
X99312984Y-83412485D01*
X99350500Y-83272475D01*
X99350500Y-83127525D01*
X99312984Y-82987515D01*
X99300394Y-82965709D01*
X99240511Y-82861988D01*
X99235562Y-82855539D01*
X99236630Y-82854719D01*
X99207220Y-82800858D01*
X99212204Y-82731166D01*
X99254076Y-82675233D01*
X99319540Y-82650816D01*
X99328386Y-82650500D01*
X99724676Y-82650500D01*
X99724677Y-82650499D01*
X99797740Y-82635966D01*
X99880601Y-82580601D01*
X99935966Y-82497740D01*
X99950500Y-82424674D01*
X99950500Y-81375326D01*
X99950500Y-81375323D01*
X99950499Y-81375321D01*
X99935967Y-81302264D01*
X99935966Y-81302260D01*
X99905101Y-81256067D01*
X99880601Y-81219399D01*
X99797740Y-81164034D01*
X99797739Y-81164033D01*
X99797735Y-81164032D01*
X99724677Y-81149500D01*
X99724674Y-81149500D01*
X97875326Y-81149500D01*
X97875323Y-81149500D01*
X97802264Y-81164032D01*
X97802260Y-81164033D01*
X97719399Y-81219399D01*
X97664033Y-81302260D01*
X97664032Y-81302264D01*
X97649500Y-81375321D01*
X97649500Y-82316857D01*
X97629815Y-82383896D01*
X97577011Y-82429651D01*
X97507853Y-82439595D01*
X97456613Y-82419962D01*
X97447741Y-82414034D01*
X97447735Y-82414032D01*
X97374677Y-82399500D01*
X97374674Y-82399500D01*
X95625326Y-82399500D01*
X95625323Y-82399500D01*
X95552264Y-82414032D01*
X95552260Y-82414033D01*
X95469399Y-82469399D01*
X95414033Y-82552260D01*
X95414032Y-82552264D01*
X95399500Y-82625321D01*
X95000500Y-82625321D01*
X95000500Y-68627525D01*
X96849500Y-68627525D01*
X96849500Y-68772475D01*
X96887016Y-68912485D01*
X96887017Y-68912488D01*
X96959488Y-69038011D01*
X96959490Y-69038013D01*
X96959491Y-69038015D01*
X97061985Y-69140509D01*
X97061986Y-69140510D01*
X97061988Y-69140511D01*
X97187511Y-69212982D01*
X97187512Y-69212982D01*
X97187515Y-69212984D01*
X97327525Y-69250500D01*
X97327528Y-69250500D01*
X97472472Y-69250500D01*
X97472475Y-69250500D01*
X97612485Y-69212984D01*
X97738015Y-69140509D01*
X97840509Y-69038015D01*
X97912984Y-68912485D01*
X97950500Y-68772475D01*
X97950500Y-68627525D01*
X97912984Y-68487515D01*
X97865102Y-68404582D01*
X97840511Y-68361988D01*
X97840506Y-68361982D01*
X97738017Y-68259493D01*
X97738011Y-68259488D01*
X97612488Y-68187017D01*
X97612489Y-68187017D01*
X97567764Y-68175033D01*
X97472475Y-68149500D01*
X97327525Y-68149500D01*
X97232236Y-68175033D01*
X97187511Y-68187017D01*
X97061988Y-68259488D01*
X97061982Y-68259493D01*
X96959493Y-68361982D01*
X96959488Y-68361988D01*
X96887017Y-68487511D01*
X96887016Y-68487515D01*
X96849500Y-68627525D01*
X95000500Y-68627525D01*
X95000500Y-56105205D01*
X95850000Y-56105205D01*
X95850000Y-56850000D01*
X96522555Y-56850000D01*
X96500000Y-56934174D01*
X96500000Y-57065826D01*
X96522555Y-57150000D01*
X95850001Y-57150000D01*
X95850001Y-57894785D01*
X95850002Y-57894808D01*
X95852908Y-57919869D01*
X95852909Y-57919873D01*
X95898211Y-58022474D01*
X95898214Y-58022479D01*
X95977520Y-58101785D01*
X95977525Y-58101788D01*
X96080123Y-58147089D01*
X96105206Y-58149999D01*
X96849999Y-58149999D01*
X96850000Y-58149998D01*
X96850000Y-57477445D01*
X96934174Y-57500000D01*
X97065826Y-57500000D01*
X97150000Y-57477445D01*
X97150000Y-58149999D01*
X97894786Y-58149999D01*
X97894808Y-58149997D01*
X97919869Y-58147091D01*
X97919873Y-58147090D01*
X98022474Y-58101788D01*
X98022479Y-58101785D01*
X98101785Y-58022479D01*
X98101788Y-58022474D01*
X98147089Y-57919877D01*
X98147089Y-57919875D01*
X98149999Y-57894794D01*
X98150000Y-57894791D01*
X98150000Y-57150000D01*
X97477445Y-57150000D01*
X97500000Y-57065826D01*
X97500000Y-56934174D01*
X97477445Y-56850000D01*
X98149999Y-56850000D01*
X98149999Y-56105210D01*
X98149998Y-56105195D01*
X98147091Y-56080130D01*
X98147090Y-56080126D01*
X98101788Y-55977525D01*
X98101785Y-55977520D01*
X98022479Y-55898214D01*
X98022474Y-55898211D01*
X97919876Y-55852910D01*
X97894794Y-55850000D01*
X97150000Y-55850000D01*
X97150000Y-56522554D01*
X97065826Y-56500000D01*
X96934174Y-56500000D01*
X96850000Y-56522554D01*
X96850000Y-55850000D01*
X96105214Y-55850000D01*
X96105191Y-55850002D01*
X96080130Y-55852908D01*
X96080126Y-55852909D01*
X95977525Y-55898211D01*
X95977520Y-55898214D01*
X95898214Y-55977520D01*
X95898211Y-55977525D01*
X95852910Y-56080122D01*
X95852910Y-56080124D01*
X95850000Y-56105205D01*
X95000500Y-56105205D01*
X95000500Y-55105205D01*
X99850000Y-55105205D01*
X99850000Y-55850000D01*
X100522555Y-55850000D01*
X100500000Y-55934174D01*
X100500000Y-56065826D01*
X100522555Y-56150000D01*
X99850001Y-56150000D01*
X99850001Y-56894785D01*
X99850002Y-56894808D01*
X99852908Y-56919869D01*
X99852909Y-56919873D01*
X99898211Y-57022474D01*
X99898214Y-57022479D01*
X99977520Y-57101785D01*
X99977525Y-57101788D01*
X100080123Y-57147089D01*
X100105206Y-57149999D01*
X100849999Y-57149999D01*
X100850000Y-57149998D01*
X100850000Y-56477445D01*
X100934174Y-56500000D01*
X101065826Y-56500000D01*
X101150000Y-56477445D01*
X101150000Y-57149999D01*
X101894786Y-57149999D01*
X101894808Y-57149997D01*
X101919869Y-57147091D01*
X101919873Y-57147090D01*
X102022474Y-57101788D01*
X102022479Y-57101785D01*
X102101785Y-57022479D01*
X102101788Y-57022474D01*
X102147089Y-56919877D01*
X102147089Y-56919875D01*
X102149999Y-56894794D01*
X102150000Y-56894791D01*
X102150000Y-56150000D01*
X101477445Y-56150000D01*
X101500000Y-56065826D01*
X101500000Y-55934174D01*
X101477445Y-55850000D01*
X102149999Y-55850000D01*
X102149999Y-55105214D01*
X102149997Y-55105191D01*
X102147091Y-55080130D01*
X102147090Y-55080126D01*
X102101788Y-54977525D01*
X102101785Y-54977520D01*
X102022479Y-54898214D01*
X102022474Y-54898211D01*
X101919876Y-54852910D01*
X101894794Y-54850000D01*
X101150000Y-54850000D01*
X101150000Y-55522554D01*
X101065826Y-55500000D01*
X100934174Y-55500000D01*
X100850000Y-55522554D01*
X100850000Y-54850000D01*
X100105214Y-54850000D01*
X100105191Y-54850002D01*
X100080130Y-54852908D01*
X100080126Y-54852909D01*
X99977525Y-54898211D01*
X99977520Y-54898214D01*
X99898214Y-54977520D01*
X99898211Y-54977525D01*
X99852910Y-55080122D01*
X99852910Y-55080124D01*
X99850000Y-55105205D01*
X95000500Y-55105205D01*
X95000500Y-51004427D01*
X95000816Y-50995581D01*
X95002105Y-50977555D01*
X95015131Y-50795434D01*
X95017646Y-50777938D01*
X95059356Y-50586199D01*
X95064333Y-50569248D01*
X95132911Y-50385385D01*
X95140259Y-50369298D01*
X95205400Y-50250000D01*
X95234291Y-50197089D01*
X95243845Y-50182221D01*
X95361448Y-50025123D01*
X95373020Y-50011769D01*
X95511769Y-49873020D01*
X95525123Y-49861448D01*
X95682221Y-49743845D01*
X95697089Y-49734291D01*
X95869298Y-49640258D01*
X95885385Y-49632911D01*
X96069248Y-49564333D01*
X96086199Y-49559356D01*
X96277938Y-49517646D01*
X96295436Y-49515130D01*
X96495582Y-49500816D01*
X96504428Y-49500500D01*
X96565892Y-49500500D01*
X142434108Y-49500500D01*
X142495572Y-49500500D01*
X142504418Y-49500816D01*
G37*
%TD.AperFunction*%
%TD*%
M02*
