%TF.GenerationSoftware,KiCad,Pcbnew,9.0.5*%
%TF.CreationDate,2026-01-02T01:02:28-05:00*%
%TF.ProjectId,fin-prototype,66696e2d-7072-46f7-946f-747970652e6b,rev?*%
%TF.SameCoordinates,Original*%
%TF.FileFunction,Copper,L3,Inr*%
%TF.FilePolarity,Positive*%
%FSLAX46Y46*%
G04 Gerber Fmt 4.6, Leading zero omitted, Abs format (unit mm)*
G04 Created by KiCad (PCBNEW 9.0.5) date 2026-01-02 01:02:28*
%MOMM*%
%LPD*%
G01*
G04 APERTURE LIST*
%TA.AperFunction,ComponentPad*%
%ADD10R,1.700000X1.700000*%
%TD*%
%TA.AperFunction,ComponentPad*%
%ADD11C,1.700000*%
%TD*%
%TA.AperFunction,ComponentPad*%
%ADD12C,4.400000*%
%TD*%
%TA.AperFunction,HeatsinkPad*%
%ADD13O,2.100000X1.000000*%
%TD*%
%TA.AperFunction,HeatsinkPad*%
%ADD14O,1.800000X1.000000*%
%TD*%
%TA.AperFunction,ViaPad*%
%ADD15C,0.600000*%
%TD*%
G04 APERTURE END LIST*
D10*
%TO.N,PA8*%
%TO.C,J7*%
X136000000Y-56500000D03*
%TD*%
%TO.N,+3.3V*%
%TO.C,J2*%
X106690000Y-97000000D03*
D11*
%TO.N,GAUGE1_IN_P*%
X109230000Y-97000000D03*
X111770000Y-97000000D03*
%TO.N,GND*%
X114310000Y-97000000D03*
%TD*%
D10*
%TO.N,PC14*%
%TO.C,J15*%
X107500000Y-61900000D03*
%TD*%
D12*
%TO.N,GND*%
%TO.C,H4*%
X97500000Y-96000000D03*
%TD*%
D10*
%TO.N,PA15*%
%TO.C,J8*%
X111800000Y-51400000D03*
%TD*%
%TO.N,GND*%
%TO.C,TP5*%
X101000000Y-56000000D03*
%TD*%
%TO.N,GND*%
%TO.C,TP3*%
X100500000Y-92000000D03*
%TD*%
%TO.N,PA5*%
%TO.C,J6*%
X96700000Y-61900000D03*
%TD*%
%TO.N,GND*%
%TO.C,TP4*%
X137000000Y-96000000D03*
%TD*%
D13*
%TO.N,unconnected-(J1-SHIELD-PadS1)_2*%
%TO.C,J1*%
X137820000Y-82725000D03*
D14*
%TO.N,unconnected-(J1-SHIELD-PadS1)_3*%
X142000000Y-82725000D03*
D13*
%TO.N,unconnected-(J1-SHIELD-PadS1)*%
X137820000Y-74085000D03*
D14*
%TO.N,unconnected-(J1-SHIELD-PadS1)_1*%
X142000000Y-74085000D03*
%TD*%
D10*
%TO.N,PH0*%
%TO.C,J17*%
X104700000Y-56000000D03*
%TD*%
%TO.N,PB2*%
%TO.C,J9*%
X96500000Y-83500000D03*
%TD*%
D12*
%TO.N,GND*%
%TO.C,H3*%
X141500000Y-96000000D03*
%TD*%
D10*
%TO.N,PB4*%
%TO.C,J11*%
X111900000Y-56000000D03*
%TD*%
%TO.N,GND*%
%TO.C,TP7*%
X141500000Y-91500000D03*
%TD*%
%TO.N,GND*%
%TO.C,TP8*%
X102000000Y-96000000D03*
%TD*%
%TO.N,PH1*%
%TO.C,J18*%
X100300000Y-61900000D03*
%TD*%
%TO.N,PB6*%
%TO.C,J12*%
X108200000Y-51400000D03*
%TD*%
D12*
%TO.N,GND*%
%TO.C,H1*%
X97500000Y-52000000D03*
%TD*%
D10*
%TO.N,PB3*%
%TO.C,J10*%
X115500000Y-56000000D03*
%TD*%
%TO.N,GND*%
%TO.C,TP6*%
X141500000Y-56500000D03*
%TD*%
%TO.N,SPI1_MISO*%
%TO.C,J4*%
X133280000Y-51400000D03*
D11*
%TO.N,SPI1_MOSI*%
X130740000Y-51400000D03*
%TO.N,SWDIO*%
X128200000Y-51400000D03*
%TO.N,SWCLK*%
X125660000Y-51400000D03*
%TO.N,~{SPI1_CS}*%
X123120000Y-51400000D03*
%TO.N,SPI1_SCK*%
X120580000Y-51400000D03*
%TO.N,+3.3V*%
X118040000Y-51400000D03*
%TO.N,GND*%
X115500000Y-51400000D03*
%TD*%
D10*
%TO.N,+3.3V*%
%TO.C,J3*%
X120420000Y-97000000D03*
D11*
%TO.N,GAUGE2_IN_P*%
X122960000Y-97000000D03*
X125500000Y-97000000D03*
%TO.N,GND*%
X128040000Y-97000000D03*
%TD*%
D10*
%TO.N,PC15*%
%TO.C,J16*%
X103900000Y-61900000D03*
%TD*%
%TO.N,PC13*%
%TO.C,J14*%
X104600000Y-51400000D03*
%TD*%
D12*
%TO.N,GND*%
%TO.C,H2*%
X141500000Y-52000000D03*
%TD*%
D10*
%TO.N,GND*%
%TO.C,TP1*%
X137000000Y-52000000D03*
%TD*%
%TO.N,GND*%
%TO.C,TP2*%
X97000000Y-57000000D03*
%TD*%
%TO.N,PB7*%
%TO.C,J13*%
X108300000Y-56000000D03*
%TD*%
D15*
%TO.N,GND*%
X112600000Y-67400000D03*
X110200000Y-68000000D03*
X119600000Y-61800000D03*
X123400000Y-71900000D03*
X132000000Y-67300002D03*
X108600000Y-77200000D03*
X136000000Y-82000000D03*
X117420778Y-74500000D03*
X105700000Y-80500000D03*
X120600000Y-78300000D03*
X131800000Y-81600000D03*
X134300000Y-72600000D03*
X136000000Y-74600000D03*
X134400000Y-70900000D03*
%TO.N,+3.3V*%
X98500000Y-87000000D03*
X134500000Y-82000000D03*
X121000000Y-88700000D03*
X141500000Y-66900000D03*
X140500000Y-89500000D03*
X114564314Y-88464314D03*
X117400000Y-76099000D03*
X124225735Y-81874265D03*
X112600764Y-70199236D03*
X97400000Y-68700000D03*
X134500000Y-91400000D03*
X110000000Y-80500000D03*
X128100000Y-68400000D03*
%TO.N,Net-(D5-A)*%
X136000000Y-80800000D03*
X136000000Y-76000000D03*
%TO.N,Net-(J1-CC2)*%
X139200000Y-76700000D03*
%TO.N,USB_D-*%
X135400000Y-77400000D03*
%TO.N,USB_D+*%
X138520444Y-77500000D03*
X138500000Y-78700000D03*
%TO.N,Net-(J1-CC1)*%
X139200000Y-79700000D03*
%TO.N,~{SPI1_CS}*%
X122800000Y-69200000D03*
X121300000Y-73900000D03*
X116524419Y-78524767D03*
X117700000Y-77300000D03*
%TO.N,SPI1_SCK*%
X117571715Y-66428285D03*
X113100000Y-77700000D03*
%TO.N,AVBAY_SYNC*%
X120791962Y-81388137D03*
X99500000Y-89000000D03*
%TO.N,SIGNAL*%
X120000000Y-81275000D03*
X99500000Y-88000000D03*
%TO.N,PA5*%
X115036765Y-81536765D03*
%TO.N,PA8*%
X126924265Y-73724265D03*
%TO.N,PA15*%
X121000000Y-69800000D03*
%TO.N,PB2*%
X119500000Y-78300000D03*
%TO.N,PB3*%
X120208038Y-69913137D03*
%TO.N,PB4*%
X120000000Y-72600000D03*
%TO.N,PC13*%
X113212500Y-73312500D03*
%TO.N,PC14*%
X112600000Y-73900000D03*
%TO.N,PC15*%
X113099758Y-74524697D03*
%TO.N,PH0*%
X116000000Y-74800000D03*
%TO.N,PH1*%
X116219778Y-75569222D03*
%TO.N,SPI2_SCK*%
X128525000Y-87975000D03*
X124525000Y-77825000D03*
%TO.N,SPI2_MISO*%
X125173545Y-77356606D03*
X129175000Y-87425000D03*
%TO.N,SPI2_MOSI*%
X129825000Y-87900000D03*
X124624641Y-76624000D03*
%TO.N,~{ADC_CS}*%
X123986765Y-79038235D03*
X127236742Y-87641925D03*
%TO.N,TIM2_CH1*%
X116100000Y-77350000D03*
X129625000Y-90725000D03*
%TO.N,ADC_~{SYNC}{slash}~{RST}*%
X117000000Y-72900000D03*
X126577566Y-88095236D03*
%TO.N,~{ADC_DRDY}*%
X117810244Y-72861714D03*
X127882413Y-87169577D03*
%TO.N,QSPI_IO0*%
X107300000Y-88300000D03*
%TO.N,QSPI_IO1*%
X101500000Y-84400000D03*
X116249632Y-81549632D03*
%TO.N,QSPI_IO2*%
X117623897Y-81023897D03*
X101500000Y-85700000D03*
%TO.N,QSPI_IO3*%
X109800000Y-83100000D03*
%TO.N,~{FLASH_CS}*%
X98800000Y-83200000D03*
%TO.N,USART1_RX*%
X129999496Y-67659766D03*
%TO.N,USART1_TX*%
X127600000Y-73124265D03*
%TO.N,QSPI_SCK*%
X107100000Y-87200000D03*
%TD*%
%TA.AperFunction,Conductor*%
%TO.N,+3.3V*%
G36*
X140566198Y-49520185D02*
G01*
X140611953Y-49572989D01*
X140621897Y-49642147D01*
X140592872Y-49705703D01*
X140552961Y-49736220D01*
X140312781Y-49851884D01*
X140079733Y-49998318D01*
X139864545Y-50169924D01*
X139669924Y-50364545D01*
X139498318Y-50579733D01*
X139351884Y-50812781D01*
X139232467Y-51060753D01*
X139141565Y-51320534D01*
X139141561Y-51320546D01*
X139080317Y-51588875D01*
X139080315Y-51588891D01*
X139049500Y-51862378D01*
X139049500Y-52137621D01*
X139080315Y-52411108D01*
X139080317Y-52411124D01*
X139141561Y-52679453D01*
X139141565Y-52679465D01*
X139232467Y-52939246D01*
X139351884Y-53187218D01*
X139351886Y-53187221D01*
X139498319Y-53420268D01*
X139669925Y-53635455D01*
X139864545Y-53830075D01*
X140079732Y-54001681D01*
X140312779Y-54148114D01*
X140560757Y-54267534D01*
X140755865Y-54335805D01*
X140820534Y-54358434D01*
X140820546Y-54358438D01*
X141088879Y-54419683D01*
X141362378Y-54450499D01*
X141362379Y-54450500D01*
X141362383Y-54450500D01*
X141637621Y-54450500D01*
X141637621Y-54450499D01*
X141911121Y-54419683D01*
X142179454Y-54358438D01*
X142439243Y-54267534D01*
X142687221Y-54148114D01*
X142920268Y-54001681D01*
X143135455Y-53830075D01*
X143330075Y-53635455D01*
X143501681Y-53420268D01*
X143648114Y-53187221D01*
X143689877Y-53100499D01*
X143763780Y-52947039D01*
X143810602Y-52895179D01*
X143878029Y-52876866D01*
X143944653Y-52897914D01*
X143989322Y-52951640D01*
X143999500Y-53000840D01*
X143999500Y-94999159D01*
X143979815Y-95066198D01*
X143927011Y-95111953D01*
X143857853Y-95121897D01*
X143794297Y-95092872D01*
X143763780Y-95052961D01*
X143648115Y-94812781D01*
X143648114Y-94812779D01*
X143501681Y-94579732D01*
X143330075Y-94364545D01*
X143135455Y-94169925D01*
X142920268Y-93998319D01*
X142687221Y-93851886D01*
X142687218Y-93851884D01*
X142439246Y-93732467D01*
X142179465Y-93641565D01*
X142179453Y-93641561D01*
X141911124Y-93580317D01*
X141911108Y-93580315D01*
X141637621Y-93549500D01*
X141637617Y-93549500D01*
X141362383Y-93549500D01*
X141362379Y-93549500D01*
X141088891Y-93580315D01*
X141088875Y-93580317D01*
X140820546Y-93641561D01*
X140820534Y-93641565D01*
X140560753Y-93732467D01*
X140312781Y-93851884D01*
X140079733Y-93998318D01*
X139864545Y-94169924D01*
X139669924Y-94364545D01*
X139498318Y-94579733D01*
X139351884Y-94812781D01*
X139232467Y-95060753D01*
X139141565Y-95320534D01*
X139141561Y-95320546D01*
X139080317Y-95588875D01*
X139080315Y-95588891D01*
X139049500Y-95862378D01*
X139049500Y-96137621D01*
X139080315Y-96411108D01*
X139080317Y-96411124D01*
X139141561Y-96679453D01*
X139141565Y-96679465D01*
X139232467Y-96939246D01*
X139351884Y-97187218D01*
X139351886Y-97187221D01*
X139498319Y-97420268D01*
X139669925Y-97635455D01*
X139864545Y-97830075D01*
X140079732Y-98001681D01*
X140311151Y-98147091D01*
X140312781Y-98148115D01*
X140552961Y-98263780D01*
X140604820Y-98310602D01*
X140623133Y-98378029D01*
X140602085Y-98444653D01*
X140548359Y-98489322D01*
X140499159Y-98499500D01*
X98500841Y-98499500D01*
X98433802Y-98479815D01*
X98388047Y-98427011D01*
X98378103Y-98357853D01*
X98407128Y-98294297D01*
X98447039Y-98263780D01*
X98554242Y-98212153D01*
X98687221Y-98148114D01*
X98920268Y-98001681D01*
X99135455Y-97830075D01*
X99330075Y-97635455D01*
X99501681Y-97420268D01*
X99648114Y-97187221D01*
X99767534Y-96939243D01*
X99858438Y-96679454D01*
X99919683Y-96411121D01*
X99950500Y-96137617D01*
X99950500Y-95862383D01*
X99919683Y-95588879D01*
X99858438Y-95320546D01*
X99790126Y-95125321D01*
X100899500Y-95125321D01*
X100899500Y-96874678D01*
X100914032Y-96947735D01*
X100914033Y-96947739D01*
X100917254Y-96952559D01*
X100969399Y-97030601D01*
X101022118Y-97065826D01*
X101052260Y-97085966D01*
X101052264Y-97085967D01*
X101125321Y-97100499D01*
X101125324Y-97100500D01*
X101125326Y-97100500D01*
X102874676Y-97100500D01*
X102874677Y-97100499D01*
X102947740Y-97085966D01*
X103030601Y-97030601D01*
X103085966Y-96947740D01*
X103100500Y-96874674D01*
X103100500Y-96105205D01*
X105540000Y-96105205D01*
X105540000Y-96850000D01*
X106212555Y-96850000D01*
X106190000Y-96934174D01*
X106190000Y-97065826D01*
X106212555Y-97150000D01*
X105540001Y-97150000D01*
X105540001Y-97894785D01*
X105540002Y-97894808D01*
X105542908Y-97919869D01*
X105542909Y-97919873D01*
X105588211Y-98022474D01*
X105588214Y-98022479D01*
X105667520Y-98101785D01*
X105667525Y-98101788D01*
X105770123Y-98147089D01*
X105795206Y-98149999D01*
X106539999Y-98149999D01*
X106540000Y-98149998D01*
X106540000Y-97477445D01*
X106624174Y-97500000D01*
X106755826Y-97500000D01*
X106840000Y-97477445D01*
X106840000Y-98149999D01*
X107584786Y-98149999D01*
X107584808Y-98149997D01*
X107609869Y-98147091D01*
X107609873Y-98147090D01*
X107712474Y-98101788D01*
X107712479Y-98101785D01*
X107791785Y-98022479D01*
X107791788Y-98022474D01*
X107837089Y-97919877D01*
X107837089Y-97919875D01*
X107839999Y-97894794D01*
X107840000Y-97894791D01*
X107840000Y-97150000D01*
X107167445Y-97150000D01*
X107190000Y-97065826D01*
X107190000Y-96934174D01*
X107184431Y-96913389D01*
X108129500Y-96913389D01*
X108129500Y-97086610D01*
X108149581Y-97213401D01*
X108156598Y-97257701D01*
X108210127Y-97422445D01*
X108288768Y-97576788D01*
X108390586Y-97716928D01*
X108513072Y-97839414D01*
X108653212Y-97941232D01*
X108807555Y-98019873D01*
X108972299Y-98073402D01*
X109143389Y-98100500D01*
X109143390Y-98100500D01*
X109316610Y-98100500D01*
X109316611Y-98100500D01*
X109487701Y-98073402D01*
X109652445Y-98019873D01*
X109806788Y-97941232D01*
X109946928Y-97839414D01*
X110069414Y-97716928D01*
X110171232Y-97576788D01*
X110249873Y-97422445D01*
X110303402Y-97257701D01*
X110330500Y-97086611D01*
X110330500Y-96913389D01*
X110669500Y-96913389D01*
X110669500Y-97086610D01*
X110689581Y-97213401D01*
X110696598Y-97257701D01*
X110750127Y-97422445D01*
X110828768Y-97576788D01*
X110930586Y-97716928D01*
X111053072Y-97839414D01*
X111193212Y-97941232D01*
X111347555Y-98019873D01*
X111512299Y-98073402D01*
X111683389Y-98100500D01*
X111683390Y-98100500D01*
X111856610Y-98100500D01*
X111856611Y-98100500D01*
X112027701Y-98073402D01*
X112192445Y-98019873D01*
X112346788Y-97941232D01*
X112486928Y-97839414D01*
X112609414Y-97716928D01*
X112711232Y-97576788D01*
X112789873Y-97422445D01*
X112843402Y-97257701D01*
X112870500Y-97086611D01*
X112870500Y-96913389D01*
X113209500Y-96913389D01*
X113209500Y-97086610D01*
X113229581Y-97213401D01*
X113236598Y-97257701D01*
X113290127Y-97422445D01*
X113368768Y-97576788D01*
X113470586Y-97716928D01*
X113593072Y-97839414D01*
X113733212Y-97941232D01*
X113887555Y-98019873D01*
X114052299Y-98073402D01*
X114223389Y-98100500D01*
X114223390Y-98100500D01*
X114396610Y-98100500D01*
X114396611Y-98100500D01*
X114567701Y-98073402D01*
X114732445Y-98019873D01*
X114886788Y-97941232D01*
X115026928Y-97839414D01*
X115149414Y-97716928D01*
X115251232Y-97576788D01*
X115329873Y-97422445D01*
X115383402Y-97257701D01*
X115410500Y-97086611D01*
X115410500Y-96913389D01*
X115383402Y-96742299D01*
X115329873Y-96577555D01*
X115251232Y-96423212D01*
X115149414Y-96283072D01*
X115026928Y-96160586D01*
X114950703Y-96105205D01*
X119270000Y-96105205D01*
X119270000Y-96850000D01*
X119942555Y-96850000D01*
X119920000Y-96934174D01*
X119920000Y-97065826D01*
X119942555Y-97150000D01*
X119270001Y-97150000D01*
X119270001Y-97894785D01*
X119270002Y-97894808D01*
X119272908Y-97919869D01*
X119272909Y-97919873D01*
X119318211Y-98022474D01*
X119318214Y-98022479D01*
X119397520Y-98101785D01*
X119397525Y-98101788D01*
X119500123Y-98147089D01*
X119525206Y-98149999D01*
X120269999Y-98149999D01*
X120270000Y-98149998D01*
X120270000Y-97477445D01*
X120354174Y-97500000D01*
X120485826Y-97500000D01*
X120570000Y-97477445D01*
X120570000Y-98149999D01*
X121314786Y-98149999D01*
X121314808Y-98149997D01*
X121339869Y-98147091D01*
X121339873Y-98147090D01*
X121442474Y-98101788D01*
X121442479Y-98101785D01*
X121521785Y-98022479D01*
X121521788Y-98022474D01*
X121567089Y-97919877D01*
X121567089Y-97919875D01*
X121569999Y-97894794D01*
X121570000Y-97894791D01*
X121570000Y-97150000D01*
X120897445Y-97150000D01*
X120920000Y-97065826D01*
X120920000Y-96934174D01*
X120914431Y-96913389D01*
X121859500Y-96913389D01*
X121859500Y-97086610D01*
X121879581Y-97213401D01*
X121886598Y-97257701D01*
X121940127Y-97422445D01*
X122018768Y-97576788D01*
X122120586Y-97716928D01*
X122243072Y-97839414D01*
X122383212Y-97941232D01*
X122537555Y-98019873D01*
X122702299Y-98073402D01*
X122873389Y-98100500D01*
X122873390Y-98100500D01*
X123046610Y-98100500D01*
X123046611Y-98100500D01*
X123217701Y-98073402D01*
X123382445Y-98019873D01*
X123536788Y-97941232D01*
X123676928Y-97839414D01*
X123799414Y-97716928D01*
X123901232Y-97576788D01*
X123979873Y-97422445D01*
X124033402Y-97257701D01*
X124060500Y-97086611D01*
X124060500Y-96913389D01*
X124399500Y-96913389D01*
X124399500Y-97086610D01*
X124419581Y-97213401D01*
X124426598Y-97257701D01*
X124480127Y-97422445D01*
X124558768Y-97576788D01*
X124660586Y-97716928D01*
X124783072Y-97839414D01*
X124923212Y-97941232D01*
X125077555Y-98019873D01*
X125242299Y-98073402D01*
X125413389Y-98100500D01*
X125413390Y-98100500D01*
X125586610Y-98100500D01*
X125586611Y-98100500D01*
X125757701Y-98073402D01*
X125922445Y-98019873D01*
X126076788Y-97941232D01*
X126216928Y-97839414D01*
X126339414Y-97716928D01*
X126441232Y-97576788D01*
X126519873Y-97422445D01*
X126573402Y-97257701D01*
X126600500Y-97086611D01*
X126600500Y-96913389D01*
X126939500Y-96913389D01*
X126939500Y-97086610D01*
X126959581Y-97213401D01*
X126966598Y-97257701D01*
X127020127Y-97422445D01*
X127098768Y-97576788D01*
X127200586Y-97716928D01*
X127323072Y-97839414D01*
X127463212Y-97941232D01*
X127617555Y-98019873D01*
X127782299Y-98073402D01*
X127953389Y-98100500D01*
X127953390Y-98100500D01*
X128126610Y-98100500D01*
X128126611Y-98100500D01*
X128297701Y-98073402D01*
X128462445Y-98019873D01*
X128616788Y-97941232D01*
X128756928Y-97839414D01*
X128879414Y-97716928D01*
X128981232Y-97576788D01*
X129059873Y-97422445D01*
X129113402Y-97257701D01*
X129140500Y-97086611D01*
X129140500Y-96913389D01*
X129113402Y-96742299D01*
X129059873Y-96577555D01*
X128981232Y-96423212D01*
X128879414Y-96283072D01*
X128756928Y-96160586D01*
X128616788Y-96058768D01*
X128462445Y-95980127D01*
X128297701Y-95926598D01*
X128297699Y-95926597D01*
X128297698Y-95926597D01*
X128166271Y-95905781D01*
X128126611Y-95899500D01*
X127953389Y-95899500D01*
X127913728Y-95905781D01*
X127782302Y-95926597D01*
X127782299Y-95926598D01*
X127625579Y-95977520D01*
X127617552Y-95980128D01*
X127463211Y-96058768D01*
X127399316Y-96105191D01*
X127323072Y-96160586D01*
X127323070Y-96160588D01*
X127323069Y-96160588D01*
X127200588Y-96283069D01*
X127200588Y-96283070D01*
X127200586Y-96283072D01*
X127156859Y-96343256D01*
X127098768Y-96423211D01*
X127020128Y-96577552D01*
X126966597Y-96742302D01*
X126939500Y-96913389D01*
X126600500Y-96913389D01*
X126573402Y-96742299D01*
X126519873Y-96577555D01*
X126441232Y-96423212D01*
X126339414Y-96283072D01*
X126216928Y-96160586D01*
X126076788Y-96058768D01*
X125922445Y-95980127D01*
X125757701Y-95926598D01*
X125757699Y-95926597D01*
X125757698Y-95926597D01*
X125626271Y-95905781D01*
X125586611Y-95899500D01*
X125413389Y-95899500D01*
X125373728Y-95905781D01*
X125242302Y-95926597D01*
X125242299Y-95926598D01*
X125085579Y-95977520D01*
X125077552Y-95980128D01*
X124923211Y-96058768D01*
X124859316Y-96105191D01*
X124783072Y-96160586D01*
X124783070Y-96160588D01*
X124783069Y-96160588D01*
X124660588Y-96283069D01*
X124660588Y-96283070D01*
X124660586Y-96283072D01*
X124616859Y-96343256D01*
X124558768Y-96423211D01*
X124480128Y-96577552D01*
X124426597Y-96742302D01*
X124399500Y-96913389D01*
X124060500Y-96913389D01*
X124033402Y-96742299D01*
X123979873Y-96577555D01*
X123901232Y-96423212D01*
X123799414Y-96283072D01*
X123676928Y-96160586D01*
X123536788Y-96058768D01*
X123382445Y-95980127D01*
X123217701Y-95926598D01*
X123217699Y-95926597D01*
X123217698Y-95926597D01*
X123086271Y-95905781D01*
X123046611Y-95899500D01*
X122873389Y-95899500D01*
X122833728Y-95905781D01*
X122702302Y-95926597D01*
X122702299Y-95926598D01*
X122545579Y-95977520D01*
X122537552Y-95980128D01*
X122383211Y-96058768D01*
X122319316Y-96105191D01*
X122243072Y-96160586D01*
X122243070Y-96160588D01*
X122243069Y-96160588D01*
X122120588Y-96283069D01*
X122120588Y-96283070D01*
X122120586Y-96283072D01*
X122076859Y-96343256D01*
X122018768Y-96423211D01*
X121940128Y-96577552D01*
X121886597Y-96742302D01*
X121859500Y-96913389D01*
X120914431Y-96913389D01*
X120897445Y-96850000D01*
X121569999Y-96850000D01*
X121569999Y-96105214D01*
X121569997Y-96105191D01*
X121567091Y-96080130D01*
X121567090Y-96080126D01*
X121521788Y-95977525D01*
X121521785Y-95977520D01*
X121442479Y-95898214D01*
X121442474Y-95898211D01*
X121339876Y-95852910D01*
X121314794Y-95850000D01*
X120570000Y-95850000D01*
X120570000Y-96522554D01*
X120485826Y-96500000D01*
X120354174Y-96500000D01*
X120270000Y-96522554D01*
X120270000Y-95850000D01*
X119525214Y-95850000D01*
X119525191Y-95850002D01*
X119500130Y-95852908D01*
X119500126Y-95852909D01*
X119397525Y-95898211D01*
X119397520Y-95898214D01*
X119318214Y-95977520D01*
X119318211Y-95977525D01*
X119272910Y-96080122D01*
X119272910Y-96080124D01*
X119270000Y-96105205D01*
X114950703Y-96105205D01*
X114886788Y-96058768D01*
X114732445Y-95980127D01*
X114567701Y-95926598D01*
X114567699Y-95926597D01*
X114567698Y-95926597D01*
X114436271Y-95905781D01*
X114396611Y-95899500D01*
X114223389Y-95899500D01*
X114183728Y-95905781D01*
X114052302Y-95926597D01*
X114052299Y-95926598D01*
X113895579Y-95977520D01*
X113887552Y-95980128D01*
X113733211Y-96058768D01*
X113669316Y-96105191D01*
X113593072Y-96160586D01*
X113593070Y-96160588D01*
X113593069Y-96160588D01*
X113470588Y-96283069D01*
X113470588Y-96283070D01*
X113470586Y-96283072D01*
X113426859Y-96343256D01*
X113368768Y-96423211D01*
X113290128Y-96577552D01*
X113236597Y-96742302D01*
X113209500Y-96913389D01*
X112870500Y-96913389D01*
X112843402Y-96742299D01*
X112789873Y-96577555D01*
X112711232Y-96423212D01*
X112609414Y-96283072D01*
X112486928Y-96160586D01*
X112346788Y-96058768D01*
X112192445Y-95980127D01*
X112027701Y-95926598D01*
X112027699Y-95926597D01*
X112027698Y-95926597D01*
X111896271Y-95905781D01*
X111856611Y-95899500D01*
X111683389Y-95899500D01*
X111643728Y-95905781D01*
X111512302Y-95926597D01*
X111512299Y-95926598D01*
X111355579Y-95977520D01*
X111347552Y-95980128D01*
X111193211Y-96058768D01*
X111129316Y-96105191D01*
X111053072Y-96160586D01*
X111053070Y-96160588D01*
X111053069Y-96160588D01*
X110930588Y-96283069D01*
X110930588Y-96283070D01*
X110930586Y-96283072D01*
X110886859Y-96343256D01*
X110828768Y-96423211D01*
X110750128Y-96577552D01*
X110696597Y-96742302D01*
X110669500Y-96913389D01*
X110330500Y-96913389D01*
X110303402Y-96742299D01*
X110249873Y-96577555D01*
X110171232Y-96423212D01*
X110069414Y-96283072D01*
X109946928Y-96160586D01*
X109806788Y-96058768D01*
X109652445Y-95980127D01*
X109487701Y-95926598D01*
X109487699Y-95926597D01*
X109487698Y-95926597D01*
X109356271Y-95905781D01*
X109316611Y-95899500D01*
X109143389Y-95899500D01*
X109103728Y-95905781D01*
X108972302Y-95926597D01*
X108972299Y-95926598D01*
X108815579Y-95977520D01*
X108807552Y-95980128D01*
X108653211Y-96058768D01*
X108589316Y-96105191D01*
X108513072Y-96160586D01*
X108513070Y-96160588D01*
X108513069Y-96160588D01*
X108390588Y-96283069D01*
X108390588Y-96283070D01*
X108390586Y-96283072D01*
X108346859Y-96343256D01*
X108288768Y-96423211D01*
X108210128Y-96577552D01*
X108156597Y-96742302D01*
X108129500Y-96913389D01*
X107184431Y-96913389D01*
X107167445Y-96850000D01*
X107839999Y-96850000D01*
X107839999Y-96105214D01*
X107839997Y-96105191D01*
X107837091Y-96080130D01*
X107837090Y-96080126D01*
X107791788Y-95977525D01*
X107791785Y-95977520D01*
X107712479Y-95898214D01*
X107712474Y-95898211D01*
X107609876Y-95852910D01*
X107584794Y-95850000D01*
X106840000Y-95850000D01*
X106840000Y-96522554D01*
X106755826Y-96500000D01*
X106624174Y-96500000D01*
X106540000Y-96522554D01*
X106540000Y-95850000D01*
X105795214Y-95850000D01*
X105795191Y-95850002D01*
X105770130Y-95852908D01*
X105770126Y-95852909D01*
X105667525Y-95898211D01*
X105667520Y-95898214D01*
X105588214Y-95977520D01*
X105588211Y-95977525D01*
X105542910Y-96080122D01*
X105542910Y-96080124D01*
X105540000Y-96105205D01*
X103100500Y-96105205D01*
X103100500Y-95125326D01*
X103100500Y-95125323D01*
X103100499Y-95125321D01*
X135899500Y-95125321D01*
X135899500Y-96874678D01*
X135914032Y-96947735D01*
X135914033Y-96947739D01*
X135917254Y-96952559D01*
X135969399Y-97030601D01*
X136022118Y-97065826D01*
X136052260Y-97085966D01*
X136052264Y-97085967D01*
X136125321Y-97100499D01*
X136125324Y-97100500D01*
X136125326Y-97100500D01*
X137874676Y-97100500D01*
X137874677Y-97100499D01*
X137947740Y-97085966D01*
X138030601Y-97030601D01*
X138085966Y-96947740D01*
X138100500Y-96874674D01*
X138100500Y-95125326D01*
X138100500Y-95125323D01*
X138100499Y-95125321D01*
X138085967Y-95052264D01*
X138085966Y-95052260D01*
X138083359Y-95048359D01*
X138030601Y-94969399D01*
X137947740Y-94914034D01*
X137947739Y-94914033D01*
X137947735Y-94914032D01*
X137874677Y-94899500D01*
X137874674Y-94899500D01*
X136125326Y-94899500D01*
X136125323Y-94899500D01*
X136052264Y-94914032D01*
X136052260Y-94914033D01*
X135969399Y-94969399D01*
X135914033Y-95052260D01*
X135914032Y-95052264D01*
X135899500Y-95125321D01*
X103100499Y-95125321D01*
X103085967Y-95052264D01*
X103085966Y-95052260D01*
X103083359Y-95048359D01*
X103030601Y-94969399D01*
X102947740Y-94914034D01*
X102947739Y-94914033D01*
X102947735Y-94914032D01*
X102874677Y-94899500D01*
X102874674Y-94899500D01*
X101125326Y-94899500D01*
X101125323Y-94899500D01*
X101052264Y-94914032D01*
X101052260Y-94914033D01*
X100969399Y-94969399D01*
X100914033Y-95052260D01*
X100914032Y-95052264D01*
X100899500Y-95125321D01*
X99790126Y-95125321D01*
X99767534Y-95060757D01*
X99648114Y-94812779D01*
X99501681Y-94579732D01*
X99330075Y-94364545D01*
X99135455Y-94169925D01*
X98920268Y-93998319D01*
X98687221Y-93851886D01*
X98687218Y-93851884D01*
X98439246Y-93732467D01*
X98179465Y-93641565D01*
X98179453Y-93641561D01*
X97911124Y-93580317D01*
X97911108Y-93580315D01*
X97637621Y-93549500D01*
X97637617Y-93549500D01*
X97362383Y-93549500D01*
X97362379Y-93549500D01*
X97088891Y-93580315D01*
X97088875Y-93580317D01*
X96820546Y-93641561D01*
X96820534Y-93641565D01*
X96560753Y-93732467D01*
X96312781Y-93851884D01*
X96079733Y-93998318D01*
X95864545Y-94169924D01*
X95669924Y-94364545D01*
X95498318Y-94579733D01*
X95351884Y-94812781D01*
X95236220Y-95052961D01*
X95189398Y-95104820D01*
X95121971Y-95123133D01*
X95055347Y-95102085D01*
X95010678Y-95048359D01*
X95000500Y-94999159D01*
X95000500Y-91125321D01*
X99399500Y-91125321D01*
X99399500Y-92874678D01*
X99414032Y-92947735D01*
X99414033Y-92947739D01*
X99414034Y-92947740D01*
X99469399Y-93030601D01*
X99552260Y-93085966D01*
X99552264Y-93085967D01*
X99625321Y-93100499D01*
X99625324Y-93100500D01*
X99625326Y-93100500D01*
X101374676Y-93100500D01*
X101374677Y-93100499D01*
X101447740Y-93085966D01*
X101530601Y-93030601D01*
X101585966Y-92947740D01*
X101600500Y-92874674D01*
X101600500Y-91125326D01*
X101600500Y-91125323D01*
X101600499Y-91125321D01*
X101585967Y-91052264D01*
X101585966Y-91052260D01*
X101530601Y-90969399D01*
X101447740Y-90914034D01*
X101447739Y-90914033D01*
X101447735Y-90914032D01*
X101374677Y-90899500D01*
X101374674Y-90899500D01*
X99625326Y-90899500D01*
X99625323Y-90899500D01*
X99552264Y-90914032D01*
X99552260Y-90914033D01*
X99469399Y-90969399D01*
X99414033Y-91052260D01*
X99414032Y-91052264D01*
X99399500Y-91125321D01*
X95000500Y-91125321D01*
X95000500Y-90652525D01*
X129074500Y-90652525D01*
X129074500Y-90797475D01*
X129112016Y-90937485D01*
X129112017Y-90937488D01*
X129184488Y-91063011D01*
X129184490Y-91063013D01*
X129184491Y-91063015D01*
X129286985Y-91165509D01*
X129286986Y-91165510D01*
X129286988Y-91165511D01*
X129412511Y-91237982D01*
X129412512Y-91237982D01*
X129412515Y-91237984D01*
X129552525Y-91275500D01*
X129552528Y-91275500D01*
X129697472Y-91275500D01*
X129697475Y-91275500D01*
X129837485Y-91237984D01*
X129963015Y-91165509D01*
X130065509Y-91063015D01*
X130137984Y-90937485D01*
X130175500Y-90797475D01*
X130175500Y-90652525D01*
X130168211Y-90625321D01*
X140399500Y-90625321D01*
X140399500Y-92374678D01*
X140414032Y-92447735D01*
X140414033Y-92447739D01*
X140414034Y-92447740D01*
X140469399Y-92530601D01*
X140552260Y-92585966D01*
X140552264Y-92585967D01*
X140625321Y-92600499D01*
X140625324Y-92600500D01*
X140625326Y-92600500D01*
X142374676Y-92600500D01*
X142374677Y-92600499D01*
X142447740Y-92585966D01*
X142530601Y-92530601D01*
X142585966Y-92447740D01*
X142600500Y-92374674D01*
X142600500Y-90625326D01*
X142600500Y-90625323D01*
X142600499Y-90625321D01*
X142585967Y-90552264D01*
X142585966Y-90552260D01*
X142530601Y-90469399D01*
X142447740Y-90414034D01*
X142447739Y-90414033D01*
X142447735Y-90414032D01*
X142374677Y-90399500D01*
X142374674Y-90399500D01*
X140625326Y-90399500D01*
X140625323Y-90399500D01*
X140552264Y-90414032D01*
X140552260Y-90414033D01*
X140469399Y-90469399D01*
X140414033Y-90552260D01*
X140414032Y-90552264D01*
X140399500Y-90625321D01*
X130168211Y-90625321D01*
X130137984Y-90512515D01*
X130065509Y-90386985D01*
X129963015Y-90284491D01*
X129963013Y-90284490D01*
X129963011Y-90284488D01*
X129837488Y-90212017D01*
X129837489Y-90212017D01*
X129826006Y-90208940D01*
X129697475Y-90174500D01*
X129552525Y-90174500D01*
X129423993Y-90208940D01*
X129412511Y-90212017D01*
X129286988Y-90284488D01*
X129286982Y-90284493D01*
X129184493Y-90386982D01*
X129184488Y-90386988D01*
X129112017Y-90512511D01*
X129112016Y-90512515D01*
X129074500Y-90652525D01*
X95000500Y-90652525D01*
X95000500Y-87927525D01*
X98949500Y-87927525D01*
X98949500Y-88072475D01*
X98980317Y-88187485D01*
X98987017Y-88212488D01*
X99059488Y-88338011D01*
X99059493Y-88338017D01*
X99133795Y-88412319D01*
X99167280Y-88473642D01*
X99162296Y-88543334D01*
X99133795Y-88587681D01*
X99059493Y-88661982D01*
X99059488Y-88661988D01*
X98987017Y-88787511D01*
X98987016Y-88787515D01*
X98949500Y-88927525D01*
X98949500Y-89072475D01*
X98987016Y-89212485D01*
X98987017Y-89212488D01*
X99059488Y-89338011D01*
X99059490Y-89338013D01*
X99059491Y-89338015D01*
X99161985Y-89440509D01*
X99161986Y-89440510D01*
X99161988Y-89440511D01*
X99287511Y-89512982D01*
X99287512Y-89512982D01*
X99287515Y-89512984D01*
X99427525Y-89550500D01*
X99427528Y-89550500D01*
X99572472Y-89550500D01*
X99572475Y-89550500D01*
X99712485Y-89512984D01*
X99838015Y-89440509D01*
X99940509Y-89338015D01*
X100012984Y-89212485D01*
X100050500Y-89072475D01*
X100050500Y-88927525D01*
X100012984Y-88787515D01*
X99985843Y-88740506D01*
X99940511Y-88661988D01*
X99940506Y-88661982D01*
X99866205Y-88587681D01*
X99832720Y-88526358D01*
X99837704Y-88456666D01*
X99866205Y-88412319D01*
X99940509Y-88338015D01*
X100012984Y-88212485D01*
X100050500Y-88072475D01*
X100050500Y-87927525D01*
X100012984Y-87787515D01*
X100012647Y-87786932D01*
X99940511Y-87661988D01*
X99940506Y-87661982D01*
X99838017Y-87559493D01*
X99838011Y-87559488D01*
X99712488Y-87487017D01*
X99712489Y-87487017D01*
X99701006Y-87483940D01*
X99572475Y-87449500D01*
X99427525Y-87449500D01*
X99298993Y-87483940D01*
X99287511Y-87487017D01*
X99161988Y-87559488D01*
X99161982Y-87559493D01*
X99059493Y-87661982D01*
X99059488Y-87661988D01*
X98987017Y-87787511D01*
X98987016Y-87787515D01*
X98949500Y-87927525D01*
X95000500Y-87927525D01*
X95000500Y-87127525D01*
X106549500Y-87127525D01*
X106549500Y-87272475D01*
X106578864Y-87382062D01*
X106587017Y-87412488D01*
X106659488Y-87538011D01*
X106659490Y-87538013D01*
X106659491Y-87538015D01*
X106761985Y-87640509D01*
X106809182Y-87667758D01*
X106887659Y-87713067D01*
X106935875Y-87763634D01*
X106949098Y-87832241D01*
X106923130Y-87897106D01*
X106913341Y-87908135D01*
X106859488Y-87961988D01*
X106787017Y-88087511D01*
X106787016Y-88087515D01*
X106749500Y-88227525D01*
X106749500Y-88372475D01*
X106780451Y-88487984D01*
X106787017Y-88512488D01*
X106859488Y-88638011D01*
X106859490Y-88638013D01*
X106859491Y-88638015D01*
X106961985Y-88740509D01*
X106961986Y-88740510D01*
X106961988Y-88740511D01*
X107087511Y-88812982D01*
X107087512Y-88812982D01*
X107087515Y-88812984D01*
X107227525Y-88850500D01*
X107227528Y-88850500D01*
X107372472Y-88850500D01*
X107372475Y-88850500D01*
X107512485Y-88812984D01*
X107638015Y-88740509D01*
X107740509Y-88638015D01*
X107812984Y-88512485D01*
X107850500Y-88372475D01*
X107850500Y-88227525D01*
X107812984Y-88087515D01*
X107775598Y-88022761D01*
X126027066Y-88022761D01*
X126027066Y-88167711D01*
X126064582Y-88307721D01*
X126064583Y-88307724D01*
X126137054Y-88433247D01*
X126137056Y-88433249D01*
X126137057Y-88433251D01*
X126239551Y-88535745D01*
X126239552Y-88535746D01*
X126239554Y-88535747D01*
X126365077Y-88608218D01*
X126365078Y-88608218D01*
X126365081Y-88608220D01*
X126505091Y-88645736D01*
X126505094Y-88645736D01*
X126650038Y-88645736D01*
X126650041Y-88645736D01*
X126790051Y-88608220D01*
X126915581Y-88535745D01*
X127018075Y-88433251D01*
X127073062Y-88338011D01*
X127090548Y-88307725D01*
X127090548Y-88307723D01*
X127090550Y-88307721D01*
X127096818Y-88284328D01*
X127133183Y-88224670D01*
X127196030Y-88194142D01*
X127216592Y-88192425D01*
X127309214Y-88192425D01*
X127309217Y-88192425D01*
X127449227Y-88154909D01*
X127574757Y-88082434D01*
X127677251Y-87979940D01*
X127743113Y-87865863D01*
X127793680Y-87817648D01*
X127862287Y-87804425D01*
X127927152Y-87830394D01*
X127967680Y-87887308D01*
X127974500Y-87927864D01*
X127974500Y-88047475D01*
X128006717Y-88167708D01*
X128012017Y-88187488D01*
X128084488Y-88313011D01*
X128084490Y-88313013D01*
X128084491Y-88313015D01*
X128186985Y-88415509D01*
X128186986Y-88415510D01*
X128186988Y-88415511D01*
X128312511Y-88487982D01*
X128312512Y-88487982D01*
X128312515Y-88487984D01*
X128452525Y-88525500D01*
X128452528Y-88525500D01*
X128597472Y-88525500D01*
X128597475Y-88525500D01*
X128737485Y-88487984D01*
X128863015Y-88415509D01*
X128965509Y-88313015D01*
X129037984Y-88187485D01*
X129065274Y-88085636D01*
X129101638Y-88025979D01*
X129164485Y-87995450D01*
X129233861Y-88003745D01*
X129287739Y-88048230D01*
X129304821Y-88085636D01*
X129312016Y-88112485D01*
X129312017Y-88112488D01*
X129384488Y-88238011D01*
X129384490Y-88238013D01*
X129384491Y-88238015D01*
X129486985Y-88340509D01*
X129486986Y-88340510D01*
X129486988Y-88340511D01*
X129612511Y-88412982D01*
X129612512Y-88412982D01*
X129612515Y-88412984D01*
X129752525Y-88450500D01*
X129752528Y-88450500D01*
X129897472Y-88450500D01*
X129897475Y-88450500D01*
X130037485Y-88412984D01*
X130163015Y-88340509D01*
X130265509Y-88238015D01*
X130337984Y-88112485D01*
X130375500Y-87972475D01*
X130375500Y-87827525D01*
X130337984Y-87687515D01*
X130326577Y-87667758D01*
X130265511Y-87561988D01*
X130265506Y-87561982D01*
X130163017Y-87459493D01*
X130163011Y-87459488D01*
X130037488Y-87387017D01*
X130037489Y-87387017D01*
X130026006Y-87383940D01*
X129897475Y-87349500D01*
X129819837Y-87349500D01*
X129752798Y-87329815D01*
X129707043Y-87277011D01*
X129700064Y-87257601D01*
X129687984Y-87212515D01*
X129681574Y-87201413D01*
X129615511Y-87086988D01*
X129615506Y-87086982D01*
X129513017Y-86984493D01*
X129513011Y-86984488D01*
X129387488Y-86912017D01*
X129387489Y-86912017D01*
X129376006Y-86908940D01*
X129247475Y-86874500D01*
X129102525Y-86874500D01*
X128973993Y-86908940D01*
X128962511Y-86912017D01*
X128836988Y-86984488D01*
X128836982Y-86984493D01*
X128734493Y-87086982D01*
X128734491Y-87086985D01*
X128664300Y-87208559D01*
X128613733Y-87256774D01*
X128545125Y-87269996D01*
X128480261Y-87244028D01*
X128439733Y-87187114D01*
X128432913Y-87146558D01*
X128432913Y-87097104D01*
X128432913Y-87097102D01*
X128395397Y-86957092D01*
X128369372Y-86912016D01*
X128322924Y-86831565D01*
X128322919Y-86831559D01*
X128220430Y-86729070D01*
X128220424Y-86729065D01*
X128094901Y-86656594D01*
X128094902Y-86656594D01*
X128068427Y-86649500D01*
X127954888Y-86619077D01*
X127809938Y-86619077D01*
X127696399Y-86649500D01*
X127669924Y-86656594D01*
X127544401Y-86729065D01*
X127544395Y-86729070D01*
X127441906Y-86831559D01*
X127441901Y-86831565D01*
X127369430Y-86957088D01*
X127369429Y-86957092D01*
X127362088Y-86984491D01*
X127358061Y-86999519D01*
X127321695Y-87059179D01*
X127258848Y-87089708D01*
X127238286Y-87091425D01*
X127164267Y-87091425D01*
X127035735Y-87125865D01*
X127024253Y-87128942D01*
X126898730Y-87201413D01*
X126898724Y-87201418D01*
X126796235Y-87303907D01*
X126796230Y-87303913D01*
X126723759Y-87429436D01*
X126723759Y-87429437D01*
X126723758Y-87429439D01*
X126723758Y-87429440D01*
X126717490Y-87452831D01*
X126681126Y-87512490D01*
X126618279Y-87543019D01*
X126597716Y-87544736D01*
X126505091Y-87544736D01*
X126376559Y-87579176D01*
X126365077Y-87582253D01*
X126239554Y-87654724D01*
X126239548Y-87654729D01*
X126137059Y-87757218D01*
X126137054Y-87757224D01*
X126064583Y-87882747D01*
X126064582Y-87882751D01*
X126027066Y-88022761D01*
X107775598Y-88022761D01*
X107740509Y-87961985D01*
X107638015Y-87859491D01*
X107542638Y-87804425D01*
X107512340Y-87786932D01*
X107464124Y-87736365D01*
X107450902Y-87667758D01*
X107476870Y-87602893D01*
X107486643Y-87591880D01*
X107540509Y-87538015D01*
X107612984Y-87412485D01*
X107650500Y-87272475D01*
X107650500Y-87127525D01*
X107612984Y-86987515D01*
X107611239Y-86984493D01*
X107540511Y-86861988D01*
X107540506Y-86861982D01*
X107438017Y-86759493D01*
X107438011Y-86759488D01*
X107312488Y-86687017D01*
X107312489Y-86687017D01*
X107301006Y-86683940D01*
X107172475Y-86649500D01*
X107027525Y-86649500D01*
X106898993Y-86683940D01*
X106887511Y-86687017D01*
X106761988Y-86759488D01*
X106761982Y-86759493D01*
X106659493Y-86861982D01*
X106659488Y-86861988D01*
X106587017Y-86987511D01*
X106582583Y-87004055D01*
X106549500Y-87127525D01*
X95000500Y-87127525D01*
X95000500Y-82625321D01*
X95399500Y-82625321D01*
X95399500Y-84374678D01*
X95414032Y-84447735D01*
X95414033Y-84447739D01*
X95414034Y-84447740D01*
X95469399Y-84530601D01*
X95552260Y-84585966D01*
X95552264Y-84585967D01*
X95625321Y-84600499D01*
X95625324Y-84600500D01*
X95625326Y-84600500D01*
X97374676Y-84600500D01*
X97374677Y-84600499D01*
X97447740Y-84585966D01*
X97530601Y-84530601D01*
X97585966Y-84447740D01*
X97600500Y-84374674D01*
X97600500Y-84327525D01*
X100949500Y-84327525D01*
X100949500Y-84472475D01*
X100983805Y-84600500D01*
X100987017Y-84612488D01*
X101059488Y-84738011D01*
X101059490Y-84738013D01*
X101059491Y-84738015D01*
X101161985Y-84840509D01*
X101161986Y-84840510D01*
X101161988Y-84840511D01*
X101287511Y-84912982D01*
X101287512Y-84912982D01*
X101287515Y-84912984D01*
X101351861Y-84930225D01*
X101411520Y-84966591D01*
X101442049Y-85029438D01*
X101433754Y-85098813D01*
X101389268Y-85152691D01*
X101351862Y-85169774D01*
X101297516Y-85184336D01*
X101287511Y-85187017D01*
X101161988Y-85259488D01*
X101161982Y-85259493D01*
X101059493Y-85361982D01*
X101059488Y-85361988D01*
X100987017Y-85487511D01*
X100987016Y-85487515D01*
X100949500Y-85627525D01*
X100949500Y-85772475D01*
X100987016Y-85912485D01*
X100987017Y-85912488D01*
X101059488Y-86038011D01*
X101059490Y-86038013D01*
X101059491Y-86038015D01*
X101161985Y-86140509D01*
X101161986Y-86140510D01*
X101161988Y-86140511D01*
X101287511Y-86212982D01*
X101287512Y-86212982D01*
X101287515Y-86212984D01*
X101427525Y-86250500D01*
X101427528Y-86250500D01*
X101572472Y-86250500D01*
X101572475Y-86250500D01*
X101712485Y-86212984D01*
X101838015Y-86140509D01*
X101940509Y-86038015D01*
X102012984Y-85912485D01*
X102050500Y-85772475D01*
X102050500Y-85627525D01*
X102012984Y-85487515D01*
X101940509Y-85361985D01*
X101838015Y-85259491D01*
X101838013Y-85259490D01*
X101838011Y-85259488D01*
X101712488Y-85187017D01*
X101712489Y-85187017D01*
X101706157Y-85185320D01*
X101648137Y-85169773D01*
X101588479Y-85133410D01*
X101557950Y-85070563D01*
X101566245Y-85001187D01*
X101610730Y-84947309D01*
X101648135Y-84930226D01*
X101712485Y-84912984D01*
X101838015Y-84840509D01*
X101940509Y-84738015D01*
X102012984Y-84612485D01*
X102050500Y-84472475D01*
X102050500Y-84327525D01*
X102012984Y-84187515D01*
X101940509Y-84061985D01*
X101838015Y-83959491D01*
X101838013Y-83959490D01*
X101838011Y-83959488D01*
X101712488Y-83887017D01*
X101712489Y-83887017D01*
X101701006Y-83883940D01*
X101572475Y-83849500D01*
X101427525Y-83849500D01*
X101298993Y-83883940D01*
X101287511Y-83887017D01*
X101161988Y-83959488D01*
X101161982Y-83959493D01*
X101059493Y-84061982D01*
X101059488Y-84061988D01*
X100987017Y-84187511D01*
X100987016Y-84187515D01*
X100949500Y-84327525D01*
X97600500Y-84327525D01*
X97600500Y-83127525D01*
X98249500Y-83127525D01*
X98249500Y-83272475D01*
X98287016Y-83412485D01*
X98287017Y-83412488D01*
X98359488Y-83538011D01*
X98359490Y-83538013D01*
X98359491Y-83538015D01*
X98461985Y-83640509D01*
X98461986Y-83640510D01*
X98461988Y-83640511D01*
X98587511Y-83712982D01*
X98587512Y-83712982D01*
X98587515Y-83712984D01*
X98727525Y-83750500D01*
X98727528Y-83750500D01*
X98872472Y-83750500D01*
X98872475Y-83750500D01*
X99012485Y-83712984D01*
X99138015Y-83640509D01*
X99240509Y-83538015D01*
X99312984Y-83412485D01*
X99350500Y-83272475D01*
X99350500Y-83127525D01*
X99323705Y-83027525D01*
X109249500Y-83027525D01*
X109249500Y-83172475D01*
X109285801Y-83307951D01*
X109287017Y-83312488D01*
X109359488Y-83438011D01*
X109359490Y-83438013D01*
X109359491Y-83438015D01*
X109461985Y-83540509D01*
X109461986Y-83540510D01*
X109461988Y-83540511D01*
X109587511Y-83612982D01*
X109587512Y-83612982D01*
X109587515Y-83612984D01*
X109727525Y-83650500D01*
X109727528Y-83650500D01*
X109872472Y-83650500D01*
X109872475Y-83650500D01*
X110012485Y-83612984D01*
X110138015Y-83540509D01*
X110240509Y-83438015D01*
X110312984Y-83312485D01*
X110350500Y-83172475D01*
X110350500Y-83027525D01*
X110312984Y-82887515D01*
X110298244Y-82861985D01*
X110240511Y-82761988D01*
X110240506Y-82761982D01*
X110138017Y-82659493D01*
X110138011Y-82659488D01*
X110012488Y-82587017D01*
X110012489Y-82587017D01*
X110001006Y-82583940D01*
X109872475Y-82549500D01*
X109727525Y-82549500D01*
X109598993Y-82583940D01*
X109587511Y-82587017D01*
X109461988Y-82659488D01*
X109461982Y-82659493D01*
X109359493Y-82761982D01*
X109359488Y-82761988D01*
X109287017Y-82887511D01*
X109287016Y-82887515D01*
X109249500Y-83027525D01*
X99323705Y-83027525D01*
X99312984Y-82987515D01*
X99287810Y-82943913D01*
X99240511Y-82861988D01*
X99240506Y-82861982D01*
X99138017Y-82759493D01*
X99138011Y-82759488D01*
X99012488Y-82687017D01*
X99012489Y-82687017D01*
X99001006Y-82683940D01*
X98872475Y-82649500D01*
X98727525Y-82649500D01*
X98598993Y-82683940D01*
X98587511Y-82687017D01*
X98461988Y-82759488D01*
X98461982Y-82759493D01*
X98359493Y-82861982D01*
X98359488Y-82861988D01*
X98287017Y-82987511D01*
X98287016Y-82987515D01*
X98249500Y-83127525D01*
X97600500Y-83127525D01*
X97600500Y-82625326D01*
X97600500Y-82625323D01*
X97600499Y-82625321D01*
X97585967Y-82552264D01*
X97585966Y-82552260D01*
X97559723Y-82512984D01*
X97530601Y-82469399D01*
X97447740Y-82414034D01*
X97447739Y-82414033D01*
X97447735Y-82414032D01*
X97374677Y-82399500D01*
X97374674Y-82399500D01*
X95625326Y-82399500D01*
X95625323Y-82399500D01*
X95552264Y-82414032D01*
X95552260Y-82414033D01*
X95469399Y-82469399D01*
X95414033Y-82552260D01*
X95414032Y-82552264D01*
X95399500Y-82625321D01*
X95000500Y-82625321D01*
X95000500Y-81464290D01*
X114486265Y-81464290D01*
X114486265Y-81609240D01*
X114523781Y-81749250D01*
X114523782Y-81749253D01*
X114596253Y-81874776D01*
X114596255Y-81874778D01*
X114596256Y-81874780D01*
X114698750Y-81977274D01*
X114698751Y-81977275D01*
X114698753Y-81977276D01*
X114824276Y-82049747D01*
X114824277Y-82049747D01*
X114824280Y-82049749D01*
X114964290Y-82087265D01*
X114964293Y-82087265D01*
X115109237Y-82087265D01*
X115109240Y-82087265D01*
X115249250Y-82049749D01*
X115374780Y-81977274D01*
X115477274Y-81874780D01*
X115532097Y-81779823D01*
X115582664Y-81731608D01*
X115651271Y-81718385D01*
X115716136Y-81744354D01*
X115746871Y-81779824D01*
X115751581Y-81787982D01*
X115809123Y-81887647D01*
X115911617Y-81990141D01*
X115911618Y-81990142D01*
X115911620Y-81990143D01*
X116037143Y-82062614D01*
X116037144Y-82062614D01*
X116037147Y-82062616D01*
X116177157Y-82100132D01*
X116177160Y-82100132D01*
X116322104Y-82100132D01*
X116322107Y-82100132D01*
X116462117Y-82062616D01*
X116587647Y-81990141D01*
X116690141Y-81887647D01*
X116762616Y-81762117D01*
X116800132Y-81622107D01*
X116800132Y-81477157D01*
X116762616Y-81337147D01*
X116755187Y-81324280D01*
X116690143Y-81211620D01*
X116690138Y-81211614D01*
X116587649Y-81109125D01*
X116587647Y-81109123D01*
X116533877Y-81078079D01*
X116486425Y-81050682D01*
X116462117Y-81036648D01*
X116322107Y-80999132D01*
X116177157Y-80999132D01*
X116048625Y-81033572D01*
X116037143Y-81036649D01*
X115911620Y-81109120D01*
X115911614Y-81109125D01*
X115809125Y-81211614D01*
X115809118Y-81211623D01*
X115754298Y-81306573D01*
X115703731Y-81354788D01*
X115635123Y-81368010D01*
X115570259Y-81342042D01*
X115539525Y-81306572D01*
X115531466Y-81292613D01*
X115477274Y-81198750D01*
X115374780Y-81096256D01*
X115374778Y-81096255D01*
X115374776Y-81096253D01*
X115249253Y-81023782D01*
X115249254Y-81023782D01*
X115237771Y-81020705D01*
X115109240Y-80986265D01*
X114964290Y-80986265D01*
X114835758Y-81020705D01*
X114824276Y-81023782D01*
X114698753Y-81096253D01*
X114698747Y-81096258D01*
X114596258Y-81198747D01*
X114596253Y-81198753D01*
X114523782Y-81324276D01*
X114523781Y-81324280D01*
X114486265Y-81464290D01*
X95000500Y-81464290D01*
X95000500Y-80427525D01*
X105149500Y-80427525D01*
X105149500Y-80572475D01*
X105187016Y-80712485D01*
X105187017Y-80712488D01*
X105259488Y-80838011D01*
X105259490Y-80838013D01*
X105259491Y-80838015D01*
X105361985Y-80940509D01*
X105361986Y-80940510D01*
X105361988Y-80940511D01*
X105487511Y-81012982D01*
X105487512Y-81012982D01*
X105487515Y-81012984D01*
X105627525Y-81050500D01*
X105627528Y-81050500D01*
X105772472Y-81050500D01*
X105772475Y-81050500D01*
X105912485Y-81012984D01*
X106019113Y-80951422D01*
X117073397Y-80951422D01*
X117073397Y-81096372D01*
X117104277Y-81211617D01*
X117110914Y-81236385D01*
X117183385Y-81361908D01*
X117183387Y-81361910D01*
X117183388Y-81361912D01*
X117285882Y-81464406D01*
X117285883Y-81464407D01*
X117285885Y-81464408D01*
X117411408Y-81536879D01*
X117411409Y-81536879D01*
X117411412Y-81536881D01*
X117551422Y-81574397D01*
X117551425Y-81574397D01*
X117696369Y-81574397D01*
X117696372Y-81574397D01*
X117836382Y-81536881D01*
X117961912Y-81464406D01*
X118064406Y-81361912D01*
X118136881Y-81236382D01*
X118145953Y-81202525D01*
X119449500Y-81202525D01*
X119449500Y-81347475D01*
X119486968Y-81487304D01*
X119487017Y-81487488D01*
X119559488Y-81613011D01*
X119559490Y-81613013D01*
X119559491Y-81613015D01*
X119661985Y-81715509D01*
X119661986Y-81715510D01*
X119661988Y-81715511D01*
X119787511Y-81787982D01*
X119787512Y-81787982D01*
X119787515Y-81787984D01*
X119927525Y-81825500D01*
X119927528Y-81825500D01*
X120072472Y-81825500D01*
X120072475Y-81825500D01*
X120212485Y-81787984D01*
X120257385Y-81762060D01*
X120325284Y-81745587D01*
X120391312Y-81768439D01*
X120407067Y-81781766D01*
X120453947Y-81828646D01*
X120453948Y-81828647D01*
X120453950Y-81828648D01*
X120579473Y-81901119D01*
X120579474Y-81901119D01*
X120579477Y-81901121D01*
X120719487Y-81938637D01*
X120719490Y-81938637D01*
X120864434Y-81938637D01*
X120864437Y-81938637D01*
X121004447Y-81901121D01*
X121129977Y-81828646D01*
X121232471Y-81726152D01*
X121304946Y-81600622D01*
X121324533Y-81527525D01*
X131249500Y-81527525D01*
X131249500Y-81672475D01*
X131280451Y-81787984D01*
X131287017Y-81812488D01*
X131359488Y-81938011D01*
X131359490Y-81938013D01*
X131359491Y-81938015D01*
X131461985Y-82040509D01*
X131461986Y-82040510D01*
X131461988Y-82040511D01*
X131587511Y-82112982D01*
X131587512Y-82112982D01*
X131587515Y-82112984D01*
X131727525Y-82150500D01*
X131727528Y-82150500D01*
X131872472Y-82150500D01*
X131872475Y-82150500D01*
X132012485Y-82112984D01*
X132138015Y-82040509D01*
X132240509Y-81938015D01*
X132312984Y-81812485D01*
X132350500Y-81672475D01*
X132350500Y-81527525D01*
X132312984Y-81387515D01*
X132303313Y-81370765D01*
X132240511Y-81261988D01*
X132240506Y-81261982D01*
X132138017Y-81159493D01*
X132138011Y-81159488D01*
X132012488Y-81087017D01*
X132012489Y-81087017D01*
X132001006Y-81083940D01*
X131872475Y-81049500D01*
X131727525Y-81049500D01*
X131598993Y-81083940D01*
X131587511Y-81087017D01*
X131461988Y-81159488D01*
X131461982Y-81159493D01*
X131359493Y-81261982D01*
X131359488Y-81261988D01*
X131287017Y-81387511D01*
X131287016Y-81387515D01*
X131249500Y-81527525D01*
X121324533Y-81527525D01*
X121342462Y-81460612D01*
X121342462Y-81315662D01*
X121304946Y-81175652D01*
X121295615Y-81159491D01*
X121232473Y-81050125D01*
X121232468Y-81050119D01*
X121129979Y-80947630D01*
X121129973Y-80947625D01*
X121004450Y-80875154D01*
X121004451Y-80875154D01*
X120990776Y-80871490D01*
X120864437Y-80837637D01*
X120719487Y-80837637D01*
X120579477Y-80875153D01*
X120579476Y-80875153D01*
X120579474Y-80875154D01*
X120534574Y-80901077D01*
X120466674Y-80917549D01*
X120400647Y-80894696D01*
X120384894Y-80881370D01*
X120338017Y-80834493D01*
X120338011Y-80834488D01*
X120212488Y-80762017D01*
X120212489Y-80762017D01*
X120200181Y-80758719D01*
X120083764Y-80727525D01*
X135449500Y-80727525D01*
X135449500Y-80872475D01*
X135483438Y-80999132D01*
X135487017Y-81012488D01*
X135559488Y-81138011D01*
X135559490Y-81138013D01*
X135559491Y-81138015D01*
X135661985Y-81240509D01*
X135699188Y-81261988D01*
X135752231Y-81292613D01*
X135800446Y-81343181D01*
X135813668Y-81411788D01*
X135787700Y-81476653D01*
X135752231Y-81507387D01*
X135661985Y-81559491D01*
X135661982Y-81559493D01*
X135559493Y-81661982D01*
X135559488Y-81661988D01*
X135487017Y-81787511D01*
X135487016Y-81787515D01*
X135449500Y-81927525D01*
X135449500Y-82072475D01*
X135476150Y-82171933D01*
X135487017Y-82212488D01*
X135559488Y-82338011D01*
X135559490Y-82338013D01*
X135559491Y-82338015D01*
X135661985Y-82440509D01*
X135661986Y-82440510D01*
X135661988Y-82440511D01*
X135787511Y-82512982D01*
X135787512Y-82512982D01*
X135787515Y-82512984D01*
X135927525Y-82550500D01*
X135927528Y-82550500D01*
X136072472Y-82550500D01*
X136072475Y-82550500D01*
X136212485Y-82512984D01*
X136338015Y-82440509D01*
X136338022Y-82440501D01*
X136340233Y-82438806D01*
X136342448Y-82437949D01*
X136345054Y-82436445D01*
X136345288Y-82436851D01*
X136405400Y-82413606D01*
X136473846Y-82427638D01*
X136523840Y-82476448D01*
X136539509Y-82544538D01*
X136537345Y-82561366D01*
X136519500Y-82651077D01*
X136519500Y-82651082D01*
X136519500Y-82798918D01*
X136519500Y-82798920D01*
X136519499Y-82798920D01*
X136548340Y-82943907D01*
X136548343Y-82943917D01*
X136604912Y-83080488D01*
X136604919Y-83080501D01*
X136687048Y-83203415D01*
X136687051Y-83203419D01*
X136791580Y-83307948D01*
X136791584Y-83307951D01*
X136914498Y-83390080D01*
X136914511Y-83390087D01*
X137051082Y-83446656D01*
X137051087Y-83446658D01*
X137051091Y-83446658D01*
X137051092Y-83446659D01*
X137196079Y-83475500D01*
X137196082Y-83475500D01*
X138443920Y-83475500D01*
X138541462Y-83456096D01*
X138588913Y-83446658D01*
X138725495Y-83390084D01*
X138848416Y-83307951D01*
X138952951Y-83203416D01*
X139035084Y-83080495D01*
X139091658Y-82943913D01*
X139107955Y-82861985D01*
X139120500Y-82798920D01*
X140849499Y-82798920D01*
X140878340Y-82943907D01*
X140878343Y-82943917D01*
X140934912Y-83080488D01*
X140934919Y-83080501D01*
X141017048Y-83203415D01*
X141017051Y-83203419D01*
X141121580Y-83307948D01*
X141121584Y-83307951D01*
X141244498Y-83390080D01*
X141244511Y-83390087D01*
X141381082Y-83446656D01*
X141381087Y-83446658D01*
X141381091Y-83446658D01*
X141381092Y-83446659D01*
X141526079Y-83475500D01*
X141526082Y-83475500D01*
X142473920Y-83475500D01*
X142571462Y-83456096D01*
X142618913Y-83446658D01*
X142755495Y-83390084D01*
X142878416Y-83307951D01*
X142982951Y-83203416D01*
X143065084Y-83080495D01*
X143121658Y-82943913D01*
X143137955Y-82861985D01*
X143150500Y-82798920D01*
X143150500Y-82651079D01*
X143121659Y-82506092D01*
X143121658Y-82506091D01*
X143121658Y-82506087D01*
X143109381Y-82476448D01*
X143065087Y-82369511D01*
X143065080Y-82369498D01*
X142982951Y-82246584D01*
X142982948Y-82246580D01*
X142878419Y-82142051D01*
X142878415Y-82142048D01*
X142755501Y-82059919D01*
X142755488Y-82059912D01*
X142618917Y-82003343D01*
X142618907Y-82003340D01*
X142473920Y-81974500D01*
X142473918Y-81974500D01*
X141526082Y-81974500D01*
X141526080Y-81974500D01*
X141381092Y-82003340D01*
X141381082Y-82003343D01*
X141244511Y-82059912D01*
X141244498Y-82059919D01*
X141121584Y-82142048D01*
X141121580Y-82142051D01*
X141017051Y-82246580D01*
X141017048Y-82246584D01*
X140934919Y-82369498D01*
X140934912Y-82369511D01*
X140878343Y-82506082D01*
X140878340Y-82506092D01*
X140849500Y-82651079D01*
X140849500Y-82651082D01*
X140849500Y-82798918D01*
X140849500Y-82798920D01*
X140849499Y-82798920D01*
X139120500Y-82798920D01*
X139120500Y-82651079D01*
X139091659Y-82506092D01*
X139091658Y-82506091D01*
X139091658Y-82506087D01*
X139079381Y-82476448D01*
X139035087Y-82369511D01*
X139035080Y-82369498D01*
X138952951Y-82246584D01*
X138952948Y-82246580D01*
X138848419Y-82142051D01*
X138848415Y-82142048D01*
X138725501Y-82059919D01*
X138725488Y-82059912D01*
X138620458Y-82016408D01*
X138566054Y-81972567D01*
X138543989Y-81906273D01*
X138561268Y-81838574D01*
X138605909Y-81794460D01*
X138673365Y-81755515D01*
X138780515Y-81648365D01*
X138856281Y-81517135D01*
X138895500Y-81370766D01*
X138895500Y-81219234D01*
X138856281Y-81072865D01*
X138780515Y-80941635D01*
X138673365Y-80834485D01*
X138607750Y-80796602D01*
X138542136Y-80758719D01*
X138468950Y-80739109D01*
X138395766Y-80719500D01*
X138244234Y-80719500D01*
X138097863Y-80758719D01*
X137966635Y-80834485D01*
X137966632Y-80834487D01*
X137859487Y-80941632D01*
X137859485Y-80941635D01*
X137783719Y-81072863D01*
X137744500Y-81219234D01*
X137744500Y-81370765D01*
X137783719Y-81517136D01*
X137816779Y-81574397D01*
X137859485Y-81648365D01*
X137859487Y-81648367D01*
X137972382Y-81761262D01*
X137970363Y-81763280D01*
X138003420Y-81808555D01*
X138007573Y-81878302D01*
X137973359Y-81939221D01*
X137911641Y-81971972D01*
X137886730Y-81974500D01*
X137196080Y-81974500D01*
X137051092Y-82003340D01*
X137051082Y-82003343D01*
X136914511Y-82059912D01*
X136914498Y-82059919D01*
X136791584Y-82142048D01*
X136761699Y-82171933D01*
X136700375Y-82205417D01*
X136630684Y-82200431D01*
X136574751Y-82158559D01*
X136550335Y-82093094D01*
X136550708Y-82080602D01*
X136550500Y-82080602D01*
X136550500Y-81927527D01*
X136550500Y-81927525D01*
X136512984Y-81787515D01*
X136501970Y-81768439D01*
X136440511Y-81661988D01*
X136440506Y-81661982D01*
X136338017Y-81559493D01*
X136338015Y-81559491D01*
X136282652Y-81527527D01*
X136247769Y-81507387D01*
X136199553Y-81456820D01*
X136186331Y-81388213D01*
X136212299Y-81323348D01*
X136247769Y-81292613D01*
X136264082Y-81283194D01*
X136338015Y-81240509D01*
X136440509Y-81138015D01*
X136512984Y-81012485D01*
X136550500Y-80872475D01*
X136550500Y-80727525D01*
X136512984Y-80587515D01*
X136510602Y-80583390D01*
X136440511Y-80461988D01*
X136440506Y-80461982D01*
X136338017Y-80359493D01*
X136338011Y-80359488D01*
X136212488Y-80287017D01*
X136212489Y-80287017D01*
X136201006Y-80283940D01*
X136072475Y-80249500D01*
X135927525Y-80249500D01*
X135798993Y-80283940D01*
X135787511Y-80287017D01*
X135661988Y-80359488D01*
X135661982Y-80359493D01*
X135559493Y-80461982D01*
X135559488Y-80461988D01*
X135487017Y-80587511D01*
X135487016Y-80587515D01*
X135449500Y-80727525D01*
X120083764Y-80727525D01*
X120072475Y-80724500D01*
X119927525Y-80724500D01*
X119799819Y-80758719D01*
X119787511Y-80762017D01*
X119661988Y-80834488D01*
X119661982Y-80834493D01*
X119559493Y-80936982D01*
X119559488Y-80936988D01*
X119487017Y-81062511D01*
X119487016Y-81062515D01*
X119449500Y-81202525D01*
X118145953Y-81202525D01*
X118174397Y-81096372D01*
X118174397Y-80951422D01*
X118136881Y-80811412D01*
X118083815Y-80719500D01*
X118064408Y-80685885D01*
X118064403Y-80685879D01*
X117961914Y-80583390D01*
X117961908Y-80583385D01*
X117836385Y-80510914D01*
X117836386Y-80510914D01*
X117824903Y-80507837D01*
X117696372Y-80473397D01*
X117551422Y-80473397D01*
X117422890Y-80507837D01*
X117411408Y-80510914D01*
X117285885Y-80583385D01*
X117285879Y-80583390D01*
X117183390Y-80685879D01*
X117183385Y-80685885D01*
X117110914Y-80811408D01*
X117110913Y-80811412D01*
X117073397Y-80951422D01*
X106019113Y-80951422D01*
X106038015Y-80940509D01*
X106140509Y-80838015D01*
X106212984Y-80712485D01*
X106250500Y-80572475D01*
X106250500Y-80427525D01*
X106212984Y-80287515D01*
X106212696Y-80287017D01*
X106140511Y-80161988D01*
X106140506Y-80161982D01*
X106038017Y-80059493D01*
X106038011Y-80059488D01*
X105912488Y-79987017D01*
X105912489Y-79987017D01*
X105901006Y-79983940D01*
X105772475Y-79949500D01*
X105627525Y-79949500D01*
X105498993Y-79983940D01*
X105487511Y-79987017D01*
X105361988Y-80059488D01*
X105361982Y-80059493D01*
X105259493Y-80161982D01*
X105259488Y-80161988D01*
X105187017Y-80287511D01*
X105187016Y-80287515D01*
X105149500Y-80427525D01*
X95000500Y-80427525D01*
X95000500Y-77127525D01*
X108049500Y-77127525D01*
X108049500Y-77272475D01*
X108085437Y-77406593D01*
X108087017Y-77412488D01*
X108159488Y-77538011D01*
X108159490Y-77538013D01*
X108159491Y-77538015D01*
X108261985Y-77640509D01*
X108261986Y-77640510D01*
X108261988Y-77640511D01*
X108387511Y-77712982D01*
X108387512Y-77712982D01*
X108387515Y-77712984D01*
X108527525Y-77750500D01*
X108527528Y-77750500D01*
X108672472Y-77750500D01*
X108672475Y-77750500D01*
X108812485Y-77712984D01*
X108938015Y-77640509D01*
X108950999Y-77627525D01*
X112549500Y-77627525D01*
X112549500Y-77772475D01*
X112582993Y-77897472D01*
X112587017Y-77912488D01*
X112659488Y-78038011D01*
X112659490Y-78038013D01*
X112659491Y-78038015D01*
X112761985Y-78140509D01*
X112761986Y-78140510D01*
X112761988Y-78140511D01*
X112887511Y-78212982D01*
X112887512Y-78212982D01*
X112887515Y-78212984D01*
X113027525Y-78250500D01*
X113027528Y-78250500D01*
X113172472Y-78250500D01*
X113172475Y-78250500D01*
X113312485Y-78212984D01*
X113438015Y-78140509D01*
X113540509Y-78038015D01*
X113612984Y-77912485D01*
X113650500Y-77772475D01*
X113650500Y-77627525D01*
X113612984Y-77487515D01*
X113612676Y-77486982D01*
X113540511Y-77361988D01*
X113540506Y-77361982D01*
X113456049Y-77277525D01*
X115549500Y-77277525D01*
X115549500Y-77422475D01*
X115580460Y-77538017D01*
X115587017Y-77562488D01*
X115659488Y-77688011D01*
X115659490Y-77688013D01*
X115659491Y-77688015D01*
X115761985Y-77790509D01*
X115761986Y-77790510D01*
X115761988Y-77790511D01*
X115887511Y-77862982D01*
X115887512Y-77862982D01*
X115887515Y-77862984D01*
X116027525Y-77900500D01*
X116027528Y-77900500D01*
X116070800Y-77900500D01*
X116137839Y-77920185D01*
X116183594Y-77972989D01*
X116193538Y-78042147D01*
X116164513Y-78105703D01*
X116158481Y-78112181D01*
X116083912Y-78186749D01*
X116083907Y-78186755D01*
X116011436Y-78312278D01*
X116011435Y-78312282D01*
X115973919Y-78452292D01*
X115973919Y-78597242D01*
X116001513Y-78700223D01*
X116011436Y-78737255D01*
X116083907Y-78862778D01*
X116083909Y-78862780D01*
X116083910Y-78862782D01*
X116186404Y-78965276D01*
X116186405Y-78965277D01*
X116186407Y-78965278D01*
X116311930Y-79037749D01*
X116311931Y-79037749D01*
X116311934Y-79037751D01*
X116451944Y-79075267D01*
X116451947Y-79075267D01*
X116596891Y-79075267D01*
X116596894Y-79075267D01*
X116736904Y-79037751D01*
X116861596Y-78965760D01*
X123436265Y-78965760D01*
X123436265Y-79110710D01*
X123473577Y-79249957D01*
X123473782Y-79250723D01*
X123546253Y-79376246D01*
X123546255Y-79376248D01*
X123546256Y-79376250D01*
X123648750Y-79478744D01*
X123648751Y-79478745D01*
X123648753Y-79478746D01*
X123774276Y-79551217D01*
X123774277Y-79551217D01*
X123774280Y-79551219D01*
X123914290Y-79588735D01*
X123914293Y-79588735D01*
X124059237Y-79588735D01*
X124059240Y-79588735D01*
X124199250Y-79551219D01*
X124324780Y-79478744D01*
X124427274Y-79376250D01*
X124499749Y-79250720D01*
X124537265Y-79110710D01*
X124537265Y-78965760D01*
X124499749Y-78825750D01*
X124492377Y-78812982D01*
X124448656Y-78737255D01*
X124427274Y-78700220D01*
X124354579Y-78627525D01*
X137949500Y-78627525D01*
X137949500Y-78772475D01*
X137967020Y-78837858D01*
X137987017Y-78912488D01*
X138059488Y-79038011D01*
X138059490Y-79038013D01*
X138059491Y-79038015D01*
X138161985Y-79140509D01*
X138161986Y-79140510D01*
X138161988Y-79140511D01*
X138287511Y-79212982D01*
X138287512Y-79212982D01*
X138287515Y-79212984D01*
X138427525Y-79250500D01*
X138427528Y-79250500D01*
X138572472Y-79250500D01*
X138572475Y-79250500D01*
X138580700Y-79248296D01*
X138650547Y-79249957D01*
X138708411Y-79289118D01*
X138735917Y-79353346D01*
X138724332Y-79422248D01*
X138720181Y-79430070D01*
X138687017Y-79487511D01*
X138687016Y-79487515D01*
X138649500Y-79627525D01*
X138649500Y-79772475D01*
X138687016Y-79912485D01*
X138687017Y-79912488D01*
X138759488Y-80038011D01*
X138759490Y-80038013D01*
X138759491Y-80038015D01*
X138861985Y-80140509D01*
X138861986Y-80140510D01*
X138861988Y-80140511D01*
X138987511Y-80212982D01*
X138987512Y-80212982D01*
X138987515Y-80212984D01*
X139127525Y-80250500D01*
X139127528Y-80250500D01*
X139272472Y-80250500D01*
X139272475Y-80250500D01*
X139412485Y-80212984D01*
X139538015Y-80140509D01*
X139640509Y-80038015D01*
X139712984Y-79912485D01*
X139750500Y-79772475D01*
X139750500Y-79627525D01*
X139712984Y-79487515D01*
X139707921Y-79478746D01*
X139640511Y-79361988D01*
X139640506Y-79361982D01*
X139538017Y-79259493D01*
X139538011Y-79259488D01*
X139412488Y-79187017D01*
X139412489Y-79187017D01*
X139401006Y-79183940D01*
X139272475Y-79149500D01*
X139127525Y-79149500D01*
X139127520Y-79149500D01*
X139119293Y-79151705D01*
X139049443Y-79150039D01*
X138991582Y-79110874D01*
X138964081Y-79046644D01*
X138975671Y-78977743D01*
X138979810Y-78969942D01*
X139012984Y-78912485D01*
X139050500Y-78772475D01*
X139050500Y-78627525D01*
X139012984Y-78487515D01*
X138965960Y-78406068D01*
X138940511Y-78361988D01*
X138940506Y-78361982D01*
X138838017Y-78259493D01*
X138838015Y-78259491D01*
X138782652Y-78227527D01*
X138757990Y-78213288D01*
X138709775Y-78162720D01*
X138696553Y-78094113D01*
X138722521Y-78029248D01*
X138757989Y-77998515D01*
X138858459Y-77940509D01*
X138960953Y-77838015D01*
X139033428Y-77712485D01*
X139070944Y-77572475D01*
X139070944Y-77427525D01*
X139065335Y-77406592D01*
X139066998Y-77336743D01*
X139106161Y-77278881D01*
X139170389Y-77251377D01*
X139185110Y-77250500D01*
X139272472Y-77250500D01*
X139272475Y-77250500D01*
X139412485Y-77212984D01*
X139538015Y-77140509D01*
X139640509Y-77038015D01*
X139712984Y-76912485D01*
X139750500Y-76772475D01*
X139750500Y-76627525D01*
X139712984Y-76487515D01*
X139685843Y-76440506D01*
X139640511Y-76361988D01*
X139640506Y-76361982D01*
X139538017Y-76259493D01*
X139538011Y-76259488D01*
X139412488Y-76187017D01*
X139412489Y-76187017D01*
X139399318Y-76183488D01*
X139272475Y-76149500D01*
X139127525Y-76149500D01*
X139000682Y-76183488D01*
X138987511Y-76187017D01*
X138861988Y-76259488D01*
X138861982Y-76259493D01*
X138759493Y-76361982D01*
X138759488Y-76361988D01*
X138687017Y-76487511D01*
X138687016Y-76487515D01*
X138649500Y-76627525D01*
X138649500Y-76772475D01*
X138653397Y-76787017D01*
X138655109Y-76793407D01*
X138653446Y-76863257D01*
X138614283Y-76921119D01*
X138550055Y-76948623D01*
X138535334Y-76949500D01*
X138447969Y-76949500D01*
X138319437Y-76983940D01*
X138307955Y-76987017D01*
X138182432Y-77059488D01*
X138182426Y-77059493D01*
X138079937Y-77161982D01*
X138079932Y-77161988D01*
X138007461Y-77287511D01*
X138007460Y-77287515D01*
X137969944Y-77427525D01*
X137969944Y-77572475D01*
X138002674Y-77694623D01*
X138007461Y-77712488D01*
X138079932Y-77838011D01*
X138079934Y-77838013D01*
X138079935Y-77838015D01*
X138182429Y-77940509D01*
X138262453Y-77986711D01*
X138310668Y-78037279D01*
X138323890Y-78105886D01*
X138297922Y-78170750D01*
X138262453Y-78201485D01*
X138161985Y-78259491D01*
X138161982Y-78259493D01*
X138059493Y-78361982D01*
X138059488Y-78361988D01*
X137987017Y-78487511D01*
X137987016Y-78487515D01*
X137949500Y-78627525D01*
X124354579Y-78627525D01*
X124324780Y-78597726D01*
X124299610Y-78583194D01*
X124289451Y-78573810D01*
X124278322Y-78555221D01*
X124263371Y-78539540D01*
X124260730Y-78525835D01*
X124253562Y-78513862D01*
X124254249Y-78492207D01*
X124250150Y-78470932D01*
X124255336Y-78457976D01*
X124255780Y-78444027D01*
X124268066Y-78426180D01*
X124276119Y-78406068D01*
X124287486Y-78397973D01*
X124295401Y-78386478D01*
X124315385Y-78378107D01*
X124333034Y-78365541D01*
X124346974Y-78364877D01*
X124359847Y-78359486D01*
X124381182Y-78363248D01*
X124402825Y-78362218D01*
X124405636Y-78362936D01*
X124452525Y-78375500D01*
X124452527Y-78375500D01*
X124597472Y-78375500D01*
X124597475Y-78375500D01*
X124737485Y-78337984D01*
X124863015Y-78265509D01*
X124965509Y-78163015D01*
X125037984Y-78037485D01*
X125048293Y-77999011D01*
X125084657Y-77939352D01*
X125147504Y-77908823D01*
X125168067Y-77907106D01*
X125246017Y-77907106D01*
X125246020Y-77907106D01*
X125386030Y-77869590D01*
X125511560Y-77797115D01*
X125614054Y-77694621D01*
X125686529Y-77569091D01*
X125724045Y-77429081D01*
X125724045Y-77327525D01*
X134849500Y-77327525D01*
X134849500Y-77472475D01*
X134887016Y-77612485D01*
X134887017Y-77612488D01*
X134959488Y-77738011D01*
X134959490Y-77738013D01*
X134959491Y-77738015D01*
X135061985Y-77840509D01*
X135061986Y-77840510D01*
X135061988Y-77840511D01*
X135187511Y-77912982D01*
X135187512Y-77912982D01*
X135187515Y-77912984D01*
X135327525Y-77950500D01*
X135327528Y-77950500D01*
X135472472Y-77950500D01*
X135472475Y-77950500D01*
X135612485Y-77912984D01*
X135738015Y-77840509D01*
X135840509Y-77738015D01*
X135912984Y-77612485D01*
X135950500Y-77472475D01*
X135950500Y-77327525D01*
X135912984Y-77187515D01*
X135912696Y-77187017D01*
X135840511Y-77061988D01*
X135840506Y-77061982D01*
X135738017Y-76959493D01*
X135738011Y-76959488D01*
X135612488Y-76887017D01*
X135612489Y-76887017D01*
X135601006Y-76883940D01*
X135472475Y-76849500D01*
X135327525Y-76849500D01*
X135198993Y-76883940D01*
X135187511Y-76887017D01*
X135061988Y-76959488D01*
X135061982Y-76959493D01*
X134959493Y-77061982D01*
X134959488Y-77061988D01*
X134887017Y-77187511D01*
X134887016Y-77187515D01*
X134849500Y-77327525D01*
X125724045Y-77327525D01*
X125724045Y-77284131D01*
X125686529Y-77144121D01*
X125683982Y-77139710D01*
X125614056Y-77018594D01*
X125614051Y-77018588D01*
X125511562Y-76916099D01*
X125511556Y-76916094D01*
X125386034Y-76843623D01*
X125267046Y-76811740D01*
X125207386Y-76775374D01*
X125176858Y-76712527D01*
X125175141Y-76691965D01*
X125175141Y-76551527D01*
X125175141Y-76551525D01*
X125137625Y-76411515D01*
X125109030Y-76361988D01*
X125065152Y-76285988D01*
X125065147Y-76285982D01*
X124962658Y-76183493D01*
X124962652Y-76183488D01*
X124837129Y-76111017D01*
X124837130Y-76111017D01*
X124825647Y-76107940D01*
X124697116Y-76073500D01*
X124552166Y-76073500D01*
X124423634Y-76107940D01*
X124412152Y-76111017D01*
X124286629Y-76183488D01*
X124286623Y-76183493D01*
X124184134Y-76285982D01*
X124184129Y-76285988D01*
X124111658Y-76411511D01*
X124111657Y-76411515D01*
X124074141Y-76551525D01*
X124074141Y-76696475D01*
X124101747Y-76799500D01*
X124111658Y-76836488D01*
X124184129Y-76962011D01*
X124184131Y-76962013D01*
X124184132Y-76962015D01*
X124286626Y-77064509D01*
X124323239Y-77085647D01*
X124329293Y-77089143D01*
X124377509Y-77139710D01*
X124390731Y-77208317D01*
X124364763Y-77273182D01*
X124319351Y-77307602D01*
X124319553Y-77307952D01*
X124316769Y-77309559D01*
X124314751Y-77311089D01*
X124312515Y-77312014D01*
X124186988Y-77384488D01*
X124186982Y-77384493D01*
X124084493Y-77486982D01*
X124084488Y-77486988D01*
X124012017Y-77612511D01*
X124007583Y-77629055D01*
X123974500Y-77752525D01*
X123974500Y-77897475D01*
X124009809Y-78029248D01*
X124012017Y-78037488D01*
X124084488Y-78163011D01*
X124084490Y-78163013D01*
X124084491Y-78163015D01*
X124186985Y-78265509D01*
X124200177Y-78273125D01*
X124248392Y-78323693D01*
X124261614Y-78392300D01*
X124235646Y-78457164D01*
X124178732Y-78497692D01*
X124108941Y-78501016D01*
X124106126Y-78500298D01*
X124059240Y-78487735D01*
X123914290Y-78487735D01*
X123785758Y-78522175D01*
X123774276Y-78525252D01*
X123648753Y-78597723D01*
X123648747Y-78597728D01*
X123546258Y-78700217D01*
X123546253Y-78700223D01*
X123473782Y-78825746D01*
X123473781Y-78825750D01*
X123436265Y-78965760D01*
X116861596Y-78965760D01*
X116862434Y-78965276D01*
X116964928Y-78862782D01*
X117037403Y-78737252D01*
X117074919Y-78597242D01*
X117074919Y-78452292D01*
X117037403Y-78312282D01*
X116988468Y-78227525D01*
X118949500Y-78227525D01*
X118949500Y-78372475D01*
X118983052Y-78497692D01*
X118987017Y-78512488D01*
X119059488Y-78638011D01*
X119059490Y-78638013D01*
X119059491Y-78638015D01*
X119161985Y-78740509D01*
X119161986Y-78740510D01*
X119161988Y-78740511D01*
X119287511Y-78812982D01*
X119287512Y-78812982D01*
X119287515Y-78812984D01*
X119427525Y-78850500D01*
X119427528Y-78850500D01*
X119572472Y-78850500D01*
X119572475Y-78850500D01*
X119712485Y-78812984D01*
X119838015Y-78740509D01*
X119940509Y-78638015D01*
X119942612Y-78634371D01*
X119945190Y-78631913D01*
X119945457Y-78631566D01*
X119945511Y-78631607D01*
X119993177Y-78586156D01*
X120061783Y-78572931D01*
X120126649Y-78598897D01*
X120157386Y-78634370D01*
X120159491Y-78638015D01*
X120261985Y-78740509D01*
X120261986Y-78740510D01*
X120261988Y-78740511D01*
X120387511Y-78812982D01*
X120387512Y-78812982D01*
X120387515Y-78812984D01*
X120527525Y-78850500D01*
X120527528Y-78850500D01*
X120672472Y-78850500D01*
X120672475Y-78850500D01*
X120812485Y-78812984D01*
X120938015Y-78740509D01*
X121040509Y-78638015D01*
X121112984Y-78512485D01*
X121150500Y-78372475D01*
X121150500Y-78227525D01*
X121112984Y-78087515D01*
X121091613Y-78050500D01*
X121040511Y-77961988D01*
X121040506Y-77961982D01*
X120938017Y-77859493D01*
X120938011Y-77859488D01*
X120812488Y-77787017D01*
X120812489Y-77787017D01*
X120801006Y-77783940D01*
X120672475Y-77749500D01*
X120527525Y-77749500D01*
X120398993Y-77783940D01*
X120387511Y-77787017D01*
X120261988Y-77859488D01*
X120261982Y-77859493D01*
X120159493Y-77961982D01*
X120159486Y-77961991D01*
X120157386Y-77965630D01*
X120154809Y-77968086D01*
X120154543Y-77968434D01*
X120154488Y-77968392D01*
X120106819Y-78013845D01*
X120038212Y-78027067D01*
X119973347Y-78001099D01*
X119942614Y-77965630D01*
X119940513Y-77961991D01*
X119940510Y-77961988D01*
X119940509Y-77961985D01*
X119838015Y-77859491D01*
X119838013Y-77859490D01*
X119838011Y-77859488D01*
X119712488Y-77787017D01*
X119712489Y-77787017D01*
X119701006Y-77783940D01*
X119572475Y-77749500D01*
X119427525Y-77749500D01*
X119298993Y-77783940D01*
X119287511Y-77787017D01*
X119161988Y-77859488D01*
X119161982Y-77859493D01*
X119059493Y-77961982D01*
X119059488Y-77961988D01*
X118987017Y-78087511D01*
X118987016Y-78087515D01*
X118949500Y-78227525D01*
X116988468Y-78227525D01*
X116964928Y-78186752D01*
X116862434Y-78084258D01*
X116862432Y-78084257D01*
X116862430Y-78084255D01*
X116736907Y-78011784D01*
X116736908Y-78011784D01*
X116697031Y-78001099D01*
X116596894Y-77974267D01*
X116553619Y-77974267D01*
X116486580Y-77954582D01*
X116440825Y-77901778D01*
X116430881Y-77832620D01*
X116459906Y-77769064D01*
X116465938Y-77762586D01*
X116490513Y-77738011D01*
X116540509Y-77688015D01*
X116612984Y-77562485D01*
X116650500Y-77422475D01*
X116650500Y-77277525D01*
X116637102Y-77227525D01*
X117149500Y-77227525D01*
X117149500Y-77372475D01*
X117187016Y-77512485D01*
X117187017Y-77512488D01*
X117259488Y-77638011D01*
X117259490Y-77638013D01*
X117259491Y-77638015D01*
X117361985Y-77740509D01*
X117361986Y-77740510D01*
X117361988Y-77740511D01*
X117487511Y-77812982D01*
X117487512Y-77812982D01*
X117487515Y-77812984D01*
X117627525Y-77850500D01*
X117627528Y-77850500D01*
X117772472Y-77850500D01*
X117772475Y-77850500D01*
X117912485Y-77812984D01*
X118038015Y-77740509D01*
X118140509Y-77638015D01*
X118212984Y-77512485D01*
X118250500Y-77372475D01*
X118250500Y-77227525D01*
X118212984Y-77087515D01*
X118199701Y-77064509D01*
X118140511Y-76961988D01*
X118140506Y-76961982D01*
X118038017Y-76859493D01*
X118038011Y-76859488D01*
X117912488Y-76787017D01*
X117912489Y-76787017D01*
X117901006Y-76783940D01*
X117772475Y-76749500D01*
X117627525Y-76749500D01*
X117498993Y-76783940D01*
X117487511Y-76787017D01*
X117361988Y-76859488D01*
X117361982Y-76859493D01*
X117259493Y-76961982D01*
X117259488Y-76961988D01*
X117187017Y-77087511D01*
X117187016Y-77087515D01*
X117149500Y-77227525D01*
X116637102Y-77227525D01*
X116612984Y-77137515D01*
X116612677Y-77136984D01*
X116540511Y-77011988D01*
X116540506Y-77011982D01*
X116438017Y-76909493D01*
X116438011Y-76909488D01*
X116312488Y-76837017D01*
X116312489Y-76837017D01*
X116301006Y-76833940D01*
X116172475Y-76799500D01*
X116027525Y-76799500D01*
X115898993Y-76833940D01*
X115887511Y-76837017D01*
X115761988Y-76909488D01*
X115761982Y-76909493D01*
X115659493Y-77011982D01*
X115659488Y-77011988D01*
X115587017Y-77137511D01*
X115586214Y-77140509D01*
X115549500Y-77277525D01*
X113456049Y-77277525D01*
X113438017Y-77259493D01*
X113438011Y-77259488D01*
X113312488Y-77187017D01*
X113312489Y-77187017D01*
X113301006Y-77183940D01*
X113172475Y-77149500D01*
X113027525Y-77149500D01*
X112898993Y-77183940D01*
X112887511Y-77187017D01*
X112761988Y-77259488D01*
X112761982Y-77259493D01*
X112659493Y-77361982D01*
X112659488Y-77361988D01*
X112587017Y-77487511D01*
X112587016Y-77487515D01*
X112549500Y-77627525D01*
X108950999Y-77627525D01*
X109040509Y-77538015D01*
X109112984Y-77412485D01*
X109150500Y-77272475D01*
X109150500Y-77127525D01*
X109112984Y-76987515D01*
X109112696Y-76987017D01*
X109040511Y-76861988D01*
X109040506Y-76861982D01*
X108938017Y-76759493D01*
X108938011Y-76759488D01*
X108812488Y-76687017D01*
X108812489Y-76687017D01*
X108801006Y-76683940D01*
X108672475Y-76649500D01*
X108527525Y-76649500D01*
X108398993Y-76683940D01*
X108387511Y-76687017D01*
X108261988Y-76759488D01*
X108261982Y-76759493D01*
X108159493Y-76861982D01*
X108159488Y-76861988D01*
X108087017Y-76987511D01*
X108087016Y-76987515D01*
X108049500Y-77127525D01*
X95000500Y-77127525D01*
X95000500Y-73827525D01*
X112049500Y-73827525D01*
X112049500Y-73972475D01*
X112080192Y-74087016D01*
X112087017Y-74112488D01*
X112159488Y-74238011D01*
X112159490Y-74238013D01*
X112159491Y-74238015D01*
X112261985Y-74340509D01*
X112261986Y-74340510D01*
X112261988Y-74340511D01*
X112294866Y-74359493D01*
X112387515Y-74412984D01*
X112457353Y-74431697D01*
X112517012Y-74468061D01*
X112547541Y-74530908D01*
X112549258Y-74551471D01*
X112549258Y-74597172D01*
X112584187Y-74727527D01*
X112586775Y-74737185D01*
X112659246Y-74862708D01*
X112659248Y-74862710D01*
X112659249Y-74862712D01*
X112761743Y-74965206D01*
X112761744Y-74965207D01*
X112761746Y-74965208D01*
X112887269Y-75037679D01*
X112887270Y-75037679D01*
X112887273Y-75037681D01*
X113027283Y-75075197D01*
X113027286Y-75075197D01*
X113172230Y-75075197D01*
X113172233Y-75075197D01*
X113312243Y-75037681D01*
X113437773Y-74965206D01*
X113540267Y-74862712D01*
X113612742Y-74737182D01*
X113615330Y-74727525D01*
X115449500Y-74727525D01*
X115449500Y-74872475D01*
X115483762Y-75000340D01*
X115487017Y-75012488D01*
X115559488Y-75138011D01*
X115559493Y-75138017D01*
X115667732Y-75246256D01*
X115666141Y-75247846D01*
X115700455Y-75294842D01*
X115704608Y-75364588D01*
X115703540Y-75368880D01*
X115669278Y-75496747D01*
X115669278Y-75641697D01*
X115694851Y-75737135D01*
X115706795Y-75781710D01*
X115779266Y-75907233D01*
X115779268Y-75907235D01*
X115779269Y-75907237D01*
X115881763Y-76009731D01*
X115881764Y-76009732D01*
X115881766Y-76009733D01*
X116007289Y-76082204D01*
X116007290Y-76082204D01*
X116007293Y-76082206D01*
X116147303Y-76119722D01*
X116147306Y-76119722D01*
X116292250Y-76119722D01*
X116292253Y-76119722D01*
X116432263Y-76082206D01*
X116557793Y-76009731D01*
X116639999Y-75927525D01*
X135449500Y-75927525D01*
X135449500Y-76072475D01*
X135479247Y-76183491D01*
X135487017Y-76212488D01*
X135559488Y-76338011D01*
X135559490Y-76338013D01*
X135559491Y-76338015D01*
X135661985Y-76440509D01*
X135661986Y-76440510D01*
X135661988Y-76440511D01*
X135787511Y-76512982D01*
X135787512Y-76512982D01*
X135787515Y-76512984D01*
X135927525Y-76550500D01*
X135927528Y-76550500D01*
X136072472Y-76550500D01*
X136072475Y-76550500D01*
X136212485Y-76512984D01*
X136338015Y-76440509D01*
X136440509Y-76338015D01*
X136512984Y-76212485D01*
X136550500Y-76072475D01*
X136550500Y-75927525D01*
X136512984Y-75787515D01*
X136509632Y-75781710D01*
X136440511Y-75661988D01*
X136440506Y-75661982D01*
X136338017Y-75559493D01*
X136338011Y-75559488D01*
X136212488Y-75487017D01*
X136212489Y-75487017D01*
X136201006Y-75483940D01*
X136072475Y-75449500D01*
X135927525Y-75449500D01*
X135798993Y-75483940D01*
X135787511Y-75487017D01*
X135661988Y-75559488D01*
X135661982Y-75559493D01*
X135559493Y-75661982D01*
X135559488Y-75661988D01*
X135487017Y-75787511D01*
X135487016Y-75787515D01*
X135449500Y-75927525D01*
X116639999Y-75927525D01*
X116660287Y-75907237D01*
X116732762Y-75781707D01*
X116770278Y-75641697D01*
X116770278Y-75496747D01*
X116732762Y-75356737D01*
X116695885Y-75292865D01*
X116660289Y-75231210D01*
X116660288Y-75231209D01*
X116660287Y-75231207D01*
X116557793Y-75128713D01*
X116557792Y-75128712D01*
X116552046Y-75122966D01*
X116553637Y-75121374D01*
X116519326Y-75074390D01*
X116515166Y-75004644D01*
X116516220Y-75000406D01*
X116550500Y-74872475D01*
X116550500Y-74727525D01*
X116512984Y-74587515D01*
X116440509Y-74461985D01*
X116406049Y-74427525D01*
X116870278Y-74427525D01*
X116870278Y-74572475D01*
X116900758Y-74686226D01*
X116907795Y-74712488D01*
X116980266Y-74838011D01*
X116980268Y-74838013D01*
X116980269Y-74838015D01*
X117082763Y-74940509D01*
X117082764Y-74940510D01*
X117082766Y-74940511D01*
X117208289Y-75012982D01*
X117208290Y-75012982D01*
X117208293Y-75012984D01*
X117348303Y-75050500D01*
X117348306Y-75050500D01*
X117493250Y-75050500D01*
X117493253Y-75050500D01*
X117633263Y-75012984D01*
X117758793Y-74940509D01*
X117861287Y-74838015D01*
X117933762Y-74712485D01*
X117971278Y-74572475D01*
X117971278Y-74527525D01*
X135449500Y-74527525D01*
X135449500Y-74672475D01*
X135481953Y-74793590D01*
X135487017Y-74812488D01*
X135559488Y-74938011D01*
X135559490Y-74938013D01*
X135559491Y-74938015D01*
X135661985Y-75040509D01*
X135661986Y-75040510D01*
X135661988Y-75040511D01*
X135787511Y-75112982D01*
X135787512Y-75112982D01*
X135787515Y-75112984D01*
X135927525Y-75150500D01*
X135927528Y-75150500D01*
X136072472Y-75150500D01*
X136072475Y-75150500D01*
X136212485Y-75112984D01*
X136338015Y-75040509D01*
X136440509Y-74938015D01*
X136512984Y-74812485D01*
X136546816Y-74686221D01*
X136583179Y-74626565D01*
X136646026Y-74596036D01*
X136715401Y-74604330D01*
X136754270Y-74630638D01*
X136791580Y-74667948D01*
X136791584Y-74667951D01*
X136914498Y-74750080D01*
X136914511Y-74750087D01*
X137019538Y-74793590D01*
X137051087Y-74806658D01*
X137051091Y-74806658D01*
X137051092Y-74806659D01*
X137196079Y-74835500D01*
X137886730Y-74835500D01*
X137953769Y-74855185D01*
X137999524Y-74907989D01*
X138009468Y-74977147D01*
X137980443Y-75040703D01*
X137972155Y-75048511D01*
X137972382Y-75048738D01*
X137859487Y-75161632D01*
X137859485Y-75161635D01*
X137783719Y-75292863D01*
X137744500Y-75439234D01*
X137744500Y-75590765D01*
X137783719Y-75737136D01*
X137809453Y-75781707D01*
X137859485Y-75868365D01*
X137966635Y-75975515D01*
X138097865Y-76051281D01*
X138244234Y-76090500D01*
X138244236Y-76090500D01*
X138395764Y-76090500D01*
X138395766Y-76090500D01*
X138542135Y-76051281D01*
X138673365Y-75975515D01*
X138780515Y-75868365D01*
X138856281Y-75737135D01*
X138895500Y-75590766D01*
X138895500Y-75439234D01*
X138856281Y-75292865D01*
X138780515Y-75161635D01*
X138673365Y-75054485D01*
X138605909Y-75015539D01*
X138557694Y-74964971D01*
X138544472Y-74896364D01*
X138570440Y-74831499D01*
X138620453Y-74793593D01*
X138725495Y-74750084D01*
X138848416Y-74667951D01*
X138952951Y-74563416D01*
X139035084Y-74440495D01*
X139091658Y-74303913D01*
X139114977Y-74186685D01*
X139120500Y-74158920D01*
X140849499Y-74158920D01*
X140878340Y-74303907D01*
X140878343Y-74303917D01*
X140934912Y-74440488D01*
X140934919Y-74440501D01*
X141017048Y-74563415D01*
X141017051Y-74563419D01*
X141121580Y-74667948D01*
X141121584Y-74667951D01*
X141244498Y-74750080D01*
X141244511Y-74750087D01*
X141349538Y-74793590D01*
X141381087Y-74806658D01*
X141381091Y-74806658D01*
X141381092Y-74806659D01*
X141526079Y-74835500D01*
X141526082Y-74835500D01*
X142473920Y-74835500D01*
X142589619Y-74812485D01*
X142618913Y-74806658D01*
X142755495Y-74750084D01*
X142878416Y-74667951D01*
X142982951Y-74563416D01*
X143065084Y-74440495D01*
X143121658Y-74303913D01*
X143144977Y-74186685D01*
X143150500Y-74158920D01*
X143150500Y-74011079D01*
X143121659Y-73866092D01*
X143121658Y-73866091D01*
X143121658Y-73866087D01*
X143092934Y-73796740D01*
X143065087Y-73729511D01*
X143065080Y-73729498D01*
X142982951Y-73606584D01*
X142982948Y-73606580D01*
X142878419Y-73502051D01*
X142878415Y-73502048D01*
X142755501Y-73419919D01*
X142755488Y-73419912D01*
X142618917Y-73363343D01*
X142618907Y-73363340D01*
X142473920Y-73334500D01*
X142473918Y-73334500D01*
X141526082Y-73334500D01*
X141526080Y-73334500D01*
X141381092Y-73363340D01*
X141381082Y-73363343D01*
X141244511Y-73419912D01*
X141244498Y-73419919D01*
X141121584Y-73502048D01*
X141121580Y-73502051D01*
X141017051Y-73606580D01*
X141017048Y-73606584D01*
X140934919Y-73729498D01*
X140934912Y-73729511D01*
X140878343Y-73866082D01*
X140878340Y-73866092D01*
X140849500Y-74011079D01*
X140849500Y-74011082D01*
X140849500Y-74158918D01*
X140849500Y-74158920D01*
X140849499Y-74158920D01*
X139120500Y-74158920D01*
X139120500Y-74011079D01*
X139091659Y-73866092D01*
X139091658Y-73866091D01*
X139091658Y-73866087D01*
X139062934Y-73796740D01*
X139035087Y-73729511D01*
X139035080Y-73729498D01*
X138952951Y-73606584D01*
X138952948Y-73606580D01*
X138848419Y-73502051D01*
X138848415Y-73502048D01*
X138725501Y-73419919D01*
X138725488Y-73419912D01*
X138588917Y-73363343D01*
X138588907Y-73363340D01*
X138443920Y-73334500D01*
X138443918Y-73334500D01*
X137196082Y-73334500D01*
X137196080Y-73334500D01*
X137051092Y-73363340D01*
X137051082Y-73363343D01*
X136914511Y-73419912D01*
X136914498Y-73419919D01*
X136791584Y-73502048D01*
X136791580Y-73502051D01*
X136687051Y-73606580D01*
X136687048Y-73606584D01*
X136604919Y-73729498D01*
X136604912Y-73729511D01*
X136548343Y-73866082D01*
X136548340Y-73866092D01*
X136519500Y-74011079D01*
X136519500Y-74049497D01*
X136499815Y-74116536D01*
X136447011Y-74162291D01*
X136377853Y-74172235D01*
X136333500Y-74156884D01*
X136212488Y-74087017D01*
X136212489Y-74087017D01*
X136201006Y-74083940D01*
X136072475Y-74049500D01*
X135927525Y-74049500D01*
X135798993Y-74083940D01*
X135787511Y-74087017D01*
X135661988Y-74159488D01*
X135661982Y-74159493D01*
X135559493Y-74261982D01*
X135559488Y-74261988D01*
X135487017Y-74387511D01*
X135487016Y-74387515D01*
X135449500Y-74527525D01*
X117971278Y-74527525D01*
X117971278Y-74427525D01*
X117933762Y-74287515D01*
X117933474Y-74287017D01*
X117861289Y-74161988D01*
X117861284Y-74161982D01*
X117758795Y-74059493D01*
X117758789Y-74059488D01*
X117633266Y-73987017D01*
X117633267Y-73987017D01*
X117585422Y-73974197D01*
X117493253Y-73949500D01*
X117348303Y-73949500D01*
X117256134Y-73974197D01*
X117208289Y-73987017D01*
X117082766Y-74059488D01*
X117082760Y-74059493D01*
X116980271Y-74161982D01*
X116980266Y-74161988D01*
X116907795Y-74287511D01*
X116907794Y-74287515D01*
X116870278Y-74427525D01*
X116406049Y-74427525D01*
X116338015Y-74359491D01*
X116338013Y-74359490D01*
X116338011Y-74359488D01*
X116212488Y-74287017D01*
X116212489Y-74287017D01*
X116201006Y-74283940D01*
X116072475Y-74249500D01*
X115927525Y-74249500D01*
X115798993Y-74283940D01*
X115787511Y-74287017D01*
X115661988Y-74359488D01*
X115661982Y-74359493D01*
X115559493Y-74461982D01*
X115559488Y-74461988D01*
X115487017Y-74587511D01*
X115487016Y-74587515D01*
X115449500Y-74727525D01*
X113615330Y-74727525D01*
X113650258Y-74597172D01*
X113650258Y-74452222D01*
X113612742Y-74312212D01*
X113583743Y-74261985D01*
X113540269Y-74186685D01*
X113540264Y-74186679D01*
X113437775Y-74084190D01*
X113437769Y-74084185D01*
X113386924Y-74054830D01*
X113338708Y-74004263D01*
X113325486Y-73935655D01*
X113351454Y-73870791D01*
X113384496Y-73841495D01*
X113399670Y-73832266D01*
X113417367Y-73827525D01*
X120749500Y-73827525D01*
X120749500Y-73972475D01*
X120780192Y-74087016D01*
X120787017Y-74112488D01*
X120859488Y-74238011D01*
X120859490Y-74238013D01*
X120859491Y-74238015D01*
X120961985Y-74340509D01*
X120961986Y-74340510D01*
X120961988Y-74340511D01*
X121087511Y-74412982D01*
X121087512Y-74412982D01*
X121087515Y-74412984D01*
X121227525Y-74450500D01*
X121227528Y-74450500D01*
X121372472Y-74450500D01*
X121372475Y-74450500D01*
X121512485Y-74412984D01*
X121514170Y-74412011D01*
X121514171Y-74412011D01*
X121556605Y-74387511D01*
X121638015Y-74340509D01*
X121740509Y-74238015D01*
X121812984Y-74112485D01*
X121850500Y-73972475D01*
X121850500Y-73827525D01*
X121812984Y-73687515D01*
X121792359Y-73651792D01*
X121792358Y-73651790D01*
X126373765Y-73651790D01*
X126373765Y-73796740D01*
X126410988Y-73935655D01*
X126411282Y-73936753D01*
X126483753Y-74062276D01*
X126483755Y-74062278D01*
X126483756Y-74062280D01*
X126586250Y-74164774D01*
X126586251Y-74164775D01*
X126586253Y-74164776D01*
X126711776Y-74237247D01*
X126711777Y-74237247D01*
X126711780Y-74237249D01*
X126851790Y-74274765D01*
X126851793Y-74274765D01*
X126996737Y-74274765D01*
X126996740Y-74274765D01*
X127136750Y-74237249D01*
X127262280Y-74164774D01*
X127364774Y-74062280D01*
X127437249Y-73936750D01*
X127474765Y-73796740D01*
X127474765Y-73796736D01*
X127475826Y-73788680D01*
X127477655Y-73788920D01*
X127494450Y-73731726D01*
X127547254Y-73685971D01*
X127598765Y-73674765D01*
X127672472Y-73674765D01*
X127672475Y-73674765D01*
X127812485Y-73637249D01*
X127938015Y-73564774D01*
X128040509Y-73462280D01*
X128112984Y-73336750D01*
X128150500Y-73196740D01*
X128150500Y-73051790D01*
X128112984Y-72911780D01*
X128064340Y-72827527D01*
X128040511Y-72786253D01*
X128040506Y-72786247D01*
X127938017Y-72683758D01*
X127938015Y-72683756D01*
X127812485Y-72611281D01*
X127672475Y-72573765D01*
X127527525Y-72573765D01*
X127398993Y-72608205D01*
X127387511Y-72611282D01*
X127261988Y-72683753D01*
X127261982Y-72683758D01*
X127159493Y-72786247D01*
X127159488Y-72786253D01*
X127087017Y-72911776D01*
X127049499Y-73051793D01*
X127048439Y-73059850D01*
X127046609Y-73059609D01*
X127029815Y-73116804D01*
X126977011Y-73162559D01*
X126925500Y-73173765D01*
X126851790Y-73173765D01*
X126754885Y-73199731D01*
X126711776Y-73211282D01*
X126586253Y-73283753D01*
X126586247Y-73283758D01*
X126483758Y-73386247D01*
X126483753Y-73386253D01*
X126411282Y-73511776D01*
X126411281Y-73511780D01*
X126373765Y-73651790D01*
X121792358Y-73651790D01*
X121740511Y-73561988D01*
X121740506Y-73561982D01*
X121638017Y-73459493D01*
X121638011Y-73459488D01*
X121512488Y-73387017D01*
X121512489Y-73387017D01*
X121501006Y-73383940D01*
X121372475Y-73349500D01*
X121227525Y-73349500D01*
X121098993Y-73383940D01*
X121087511Y-73387017D01*
X120961988Y-73459488D01*
X120961982Y-73459493D01*
X120859493Y-73561982D01*
X120859488Y-73561988D01*
X120787017Y-73687511D01*
X120787016Y-73687515D01*
X120749500Y-73827525D01*
X113417367Y-73827525D01*
X113424985Y-73825484D01*
X113550515Y-73753009D01*
X113653009Y-73650515D01*
X113725484Y-73524985D01*
X113763000Y-73384975D01*
X113763000Y-73240025D01*
X113725484Y-73100015D01*
X113697642Y-73051792D01*
X113653011Y-72974488D01*
X113653006Y-72974482D01*
X113550517Y-72871993D01*
X113550511Y-72871988D01*
X113473499Y-72827525D01*
X116449500Y-72827525D01*
X116449500Y-72972475D01*
X116476758Y-73074202D01*
X116487017Y-73112488D01*
X116559488Y-73238011D01*
X116559490Y-73238013D01*
X116559491Y-73238015D01*
X116661985Y-73340509D01*
X116661986Y-73340510D01*
X116661988Y-73340511D01*
X116787511Y-73412982D01*
X116787512Y-73412982D01*
X116787515Y-73412984D01*
X116927525Y-73450500D01*
X116927528Y-73450500D01*
X117072472Y-73450500D01*
X117072475Y-73450500D01*
X117212485Y-73412984D01*
X117338015Y-73340509D01*
X117344132Y-73334391D01*
X117405450Y-73300907D01*
X117475142Y-73305888D01*
X117493813Y-73314685D01*
X117597755Y-73374696D01*
X117597756Y-73374696D01*
X117597759Y-73374698D01*
X117737769Y-73412214D01*
X117737772Y-73412214D01*
X117882716Y-73412214D01*
X117882719Y-73412214D01*
X118022729Y-73374698D01*
X118148259Y-73302223D01*
X118250753Y-73199729D01*
X118323228Y-73074199D01*
X118360744Y-72934189D01*
X118360744Y-72789239D01*
X118323228Y-72649229D01*
X118252962Y-72527525D01*
X119449500Y-72527525D01*
X119449500Y-72672475D01*
X119479987Y-72786253D01*
X119487017Y-72812488D01*
X119559488Y-72938011D01*
X119559490Y-72938013D01*
X119559491Y-72938015D01*
X119661985Y-73040509D01*
X119661986Y-73040510D01*
X119661988Y-73040511D01*
X119787511Y-73112982D01*
X119787512Y-73112982D01*
X119787515Y-73112984D01*
X119927525Y-73150500D01*
X119927528Y-73150500D01*
X120072472Y-73150500D01*
X120072475Y-73150500D01*
X120212485Y-73112984D01*
X120338015Y-73040509D01*
X120440509Y-72938015D01*
X120512984Y-72812485D01*
X120550500Y-72672475D01*
X120550500Y-72527525D01*
X133749500Y-72527525D01*
X133749500Y-72672475D01*
X133779987Y-72786253D01*
X133787017Y-72812488D01*
X133859488Y-72938011D01*
X133859490Y-72938013D01*
X133859491Y-72938015D01*
X133961985Y-73040509D01*
X133961986Y-73040510D01*
X133961988Y-73040511D01*
X134087511Y-73112982D01*
X134087512Y-73112982D01*
X134087515Y-73112984D01*
X134227525Y-73150500D01*
X134227528Y-73150500D01*
X134372472Y-73150500D01*
X134372475Y-73150500D01*
X134512485Y-73112984D01*
X134638015Y-73040509D01*
X134740509Y-72938015D01*
X134812984Y-72812485D01*
X134850500Y-72672475D01*
X134850500Y-72527525D01*
X134812984Y-72387515D01*
X134812696Y-72387017D01*
X134740511Y-72261988D01*
X134740506Y-72261982D01*
X134638017Y-72159493D01*
X134638011Y-72159488D01*
X134512488Y-72087017D01*
X134512489Y-72087017D01*
X134501006Y-72083940D01*
X134372475Y-72049500D01*
X134227525Y-72049500D01*
X134098993Y-72083940D01*
X134087511Y-72087017D01*
X133961988Y-72159488D01*
X133961982Y-72159493D01*
X133859493Y-72261982D01*
X133859488Y-72261988D01*
X133787017Y-72387511D01*
X133787016Y-72387515D01*
X133749500Y-72527525D01*
X120550500Y-72527525D01*
X120512984Y-72387515D01*
X120512696Y-72387017D01*
X120440511Y-72261988D01*
X120440506Y-72261982D01*
X120338017Y-72159493D01*
X120338011Y-72159488D01*
X120212488Y-72087017D01*
X120212489Y-72087017D01*
X120201006Y-72083940D01*
X120072475Y-72049500D01*
X119927525Y-72049500D01*
X119798993Y-72083940D01*
X119787511Y-72087017D01*
X119661988Y-72159488D01*
X119661982Y-72159493D01*
X119559493Y-72261982D01*
X119559488Y-72261988D01*
X119487017Y-72387511D01*
X119487016Y-72387515D01*
X119449500Y-72527525D01*
X118252962Y-72527525D01*
X118250753Y-72523699D01*
X118148259Y-72421205D01*
X118148257Y-72421204D01*
X118148255Y-72421202D01*
X118022732Y-72348731D01*
X118022733Y-72348731D01*
X118011250Y-72345654D01*
X117882719Y-72311214D01*
X117737769Y-72311214D01*
X117609237Y-72345654D01*
X117597755Y-72348731D01*
X117472232Y-72421202D01*
X117466108Y-72427326D01*
X117404783Y-72460808D01*
X117335092Y-72455821D01*
X117316430Y-72447028D01*
X117212488Y-72387017D01*
X117212489Y-72387017D01*
X117201006Y-72383940D01*
X117072475Y-72349500D01*
X116927525Y-72349500D01*
X116798993Y-72383940D01*
X116787511Y-72387017D01*
X116661988Y-72459488D01*
X116661982Y-72459493D01*
X116559493Y-72561982D01*
X116559488Y-72561988D01*
X116487017Y-72687511D01*
X116487016Y-72687515D01*
X116449500Y-72827525D01*
X113473499Y-72827525D01*
X113424988Y-72799517D01*
X113424989Y-72799517D01*
X113413506Y-72796440D01*
X113284975Y-72762000D01*
X113140025Y-72762000D01*
X113011493Y-72796440D01*
X113000011Y-72799517D01*
X112874488Y-72871988D01*
X112874482Y-72871993D01*
X112771993Y-72974482D01*
X112771988Y-72974488D01*
X112699517Y-73100011D01*
X112661998Y-73240032D01*
X112661780Y-73241693D01*
X112661206Y-73242989D01*
X112659897Y-73247876D01*
X112659134Y-73247671D01*
X112633510Y-73305588D01*
X112575183Y-73344055D01*
X112538842Y-73349500D01*
X112527525Y-73349500D01*
X112398993Y-73383940D01*
X112387511Y-73387017D01*
X112261988Y-73459488D01*
X112261982Y-73459493D01*
X112159493Y-73561982D01*
X112159488Y-73561988D01*
X112087017Y-73687511D01*
X112087016Y-73687515D01*
X112049500Y-73827525D01*
X95000500Y-73827525D01*
X95000500Y-71827525D01*
X122849500Y-71827525D01*
X122849500Y-71972475D01*
X122870139Y-72049500D01*
X122887017Y-72112488D01*
X122959488Y-72238011D01*
X122959490Y-72238013D01*
X122959491Y-72238015D01*
X123061985Y-72340509D01*
X123061986Y-72340510D01*
X123061988Y-72340511D01*
X123187511Y-72412982D01*
X123187512Y-72412982D01*
X123187515Y-72412984D01*
X123327525Y-72450500D01*
X123327528Y-72450500D01*
X123472472Y-72450500D01*
X123472475Y-72450500D01*
X123612485Y-72412984D01*
X123738015Y-72340509D01*
X123840509Y-72238015D01*
X123912984Y-72112485D01*
X123950500Y-71972475D01*
X123950500Y-71827525D01*
X123912984Y-71687515D01*
X123840509Y-71561985D01*
X123738015Y-71459491D01*
X123738013Y-71459490D01*
X123738011Y-71459488D01*
X123612488Y-71387017D01*
X123612489Y-71387017D01*
X123601006Y-71383940D01*
X123472475Y-71349500D01*
X123327525Y-71349500D01*
X123198993Y-71383940D01*
X123187511Y-71387017D01*
X123061988Y-71459488D01*
X123061982Y-71459493D01*
X122959493Y-71561982D01*
X122959488Y-71561988D01*
X122887017Y-71687511D01*
X122887016Y-71687515D01*
X122849500Y-71827525D01*
X95000500Y-71827525D01*
X95000500Y-70827525D01*
X133849500Y-70827525D01*
X133849500Y-70972475D01*
X133887016Y-71112485D01*
X133887017Y-71112488D01*
X133959488Y-71238011D01*
X133959490Y-71238013D01*
X133959491Y-71238015D01*
X134061985Y-71340509D01*
X134061986Y-71340510D01*
X134061988Y-71340511D01*
X134187511Y-71412982D01*
X134187512Y-71412982D01*
X134187515Y-71412984D01*
X134327525Y-71450500D01*
X134327528Y-71450500D01*
X134472472Y-71450500D01*
X134472475Y-71450500D01*
X134612485Y-71412984D01*
X134738015Y-71340509D01*
X134840509Y-71238015D01*
X134912984Y-71112485D01*
X134950500Y-70972475D01*
X134950500Y-70827525D01*
X134912984Y-70687515D01*
X134840509Y-70561985D01*
X134738015Y-70459491D01*
X134738013Y-70459490D01*
X134738011Y-70459488D01*
X134612488Y-70387017D01*
X134612489Y-70387017D01*
X134601006Y-70383940D01*
X134472475Y-70349500D01*
X134327525Y-70349500D01*
X134198993Y-70383940D01*
X134187511Y-70387017D01*
X134061988Y-70459488D01*
X134061982Y-70459493D01*
X133959493Y-70561982D01*
X133959488Y-70561988D01*
X133887017Y-70687511D01*
X133887016Y-70687515D01*
X133849500Y-70827525D01*
X95000500Y-70827525D01*
X95000500Y-69840662D01*
X119657538Y-69840662D01*
X119657538Y-69985612D01*
X119695054Y-70125622D01*
X119695055Y-70125625D01*
X119767526Y-70251148D01*
X119767528Y-70251150D01*
X119767529Y-70251152D01*
X119870023Y-70353646D01*
X119870024Y-70353647D01*
X119870026Y-70353648D01*
X119995549Y-70426119D01*
X119995550Y-70426119D01*
X119995553Y-70426121D01*
X120135563Y-70463637D01*
X120135566Y-70463637D01*
X120280510Y-70463637D01*
X120280513Y-70463637D01*
X120420523Y-70426121D01*
X120546053Y-70353646D01*
X120592933Y-70306765D01*
X120654254Y-70273281D01*
X120723945Y-70278265D01*
X120742611Y-70287058D01*
X120787515Y-70312984D01*
X120927525Y-70350500D01*
X120927528Y-70350500D01*
X121072472Y-70350500D01*
X121072475Y-70350500D01*
X121212485Y-70312984D01*
X121338015Y-70240509D01*
X121440509Y-70138015D01*
X121512984Y-70012485D01*
X121550500Y-69872475D01*
X121550500Y-69727525D01*
X121512984Y-69587515D01*
X121484406Y-69538017D01*
X121440511Y-69461988D01*
X121440506Y-69461982D01*
X121338017Y-69359493D01*
X121338011Y-69359488D01*
X121212488Y-69287017D01*
X121212489Y-69287017D01*
X121201006Y-69283940D01*
X121072475Y-69249500D01*
X120927525Y-69249500D01*
X120798993Y-69283940D01*
X120787511Y-69287017D01*
X120661988Y-69359488D01*
X120661981Y-69359494D01*
X120615104Y-69406371D01*
X120553781Y-69439855D01*
X120484089Y-69434870D01*
X120465424Y-69426076D01*
X120420526Y-69400154D01*
X120420527Y-69400154D01*
X120409044Y-69397077D01*
X120280513Y-69362637D01*
X120135563Y-69362637D01*
X120007031Y-69397077D01*
X119995549Y-69400154D01*
X119870026Y-69472625D01*
X119870020Y-69472630D01*
X119767531Y-69575119D01*
X119767526Y-69575125D01*
X119695055Y-69700648D01*
X119695054Y-69700652D01*
X119657538Y-69840662D01*
X95000500Y-69840662D01*
X95000500Y-69127525D01*
X122249500Y-69127525D01*
X122249500Y-69272475D01*
X122283712Y-69400153D01*
X122287017Y-69412488D01*
X122359488Y-69538011D01*
X122359490Y-69538013D01*
X122359491Y-69538015D01*
X122461985Y-69640509D01*
X122461986Y-69640510D01*
X122461988Y-69640511D01*
X122587511Y-69712982D01*
X122587512Y-69712982D01*
X122587515Y-69712984D01*
X122727525Y-69750500D01*
X122727528Y-69750500D01*
X122872472Y-69750500D01*
X122872475Y-69750500D01*
X123012485Y-69712984D01*
X123138015Y-69640509D01*
X123240509Y-69538015D01*
X123312984Y-69412485D01*
X123350500Y-69272475D01*
X123350500Y-69127525D01*
X123312984Y-68987515D01*
X123240509Y-68861985D01*
X123138015Y-68759491D01*
X123138013Y-68759490D01*
X123138011Y-68759488D01*
X123012488Y-68687017D01*
X123012489Y-68687017D01*
X123001006Y-68683940D01*
X122872475Y-68649500D01*
X122727525Y-68649500D01*
X122598993Y-68683940D01*
X122587511Y-68687017D01*
X122461988Y-68759488D01*
X122461982Y-68759493D01*
X122359493Y-68861982D01*
X122359488Y-68861988D01*
X122287017Y-68987511D01*
X122287016Y-68987515D01*
X122249500Y-69127525D01*
X95000500Y-69127525D01*
X95000500Y-67927525D01*
X109649500Y-67927525D01*
X109649500Y-68072475D01*
X109687016Y-68212485D01*
X109687017Y-68212488D01*
X109759488Y-68338011D01*
X109759490Y-68338013D01*
X109759491Y-68338015D01*
X109861985Y-68440509D01*
X109861986Y-68440510D01*
X109861988Y-68440511D01*
X109987511Y-68512982D01*
X109987512Y-68512982D01*
X109987515Y-68512984D01*
X110127525Y-68550500D01*
X110127528Y-68550500D01*
X110272472Y-68550500D01*
X110272475Y-68550500D01*
X110412485Y-68512984D01*
X110538015Y-68440509D01*
X110640509Y-68338015D01*
X110712984Y-68212485D01*
X110750500Y-68072475D01*
X110750500Y-67927525D01*
X110712984Y-67787515D01*
X110685847Y-67740513D01*
X110640511Y-67661988D01*
X110640506Y-67661982D01*
X110538017Y-67559493D01*
X110538011Y-67559488D01*
X110412488Y-67487017D01*
X110412489Y-67487017D01*
X110401006Y-67483940D01*
X110272475Y-67449500D01*
X110127525Y-67449500D01*
X109998993Y-67483940D01*
X109987511Y-67487017D01*
X109861988Y-67559488D01*
X109861982Y-67559493D01*
X109759493Y-67661982D01*
X109759488Y-67661988D01*
X109687017Y-67787511D01*
X109687016Y-67787515D01*
X109649500Y-67927525D01*
X95000500Y-67927525D01*
X95000500Y-67327525D01*
X112049500Y-67327525D01*
X112049500Y-67472475D01*
X112080266Y-67587293D01*
X112087017Y-67612488D01*
X112159488Y-67738011D01*
X112159490Y-67738013D01*
X112159491Y-67738015D01*
X112261985Y-67840509D01*
X112261986Y-67840510D01*
X112261988Y-67840511D01*
X112387511Y-67912982D01*
X112387512Y-67912982D01*
X112387515Y-67912984D01*
X112527525Y-67950500D01*
X112527528Y-67950500D01*
X112672472Y-67950500D01*
X112672475Y-67950500D01*
X112812485Y-67912984D01*
X112938015Y-67840509D01*
X113040509Y-67738015D01*
X113112984Y-67612485D01*
X113119735Y-67587291D01*
X129448996Y-67587291D01*
X129448996Y-67732241D01*
X129486512Y-67872251D01*
X129486513Y-67872254D01*
X129558984Y-67997777D01*
X129558986Y-67997779D01*
X129558987Y-67997781D01*
X129661481Y-68100275D01*
X129661482Y-68100276D01*
X129661484Y-68100277D01*
X129787007Y-68172748D01*
X129787008Y-68172748D01*
X129787011Y-68172750D01*
X129927021Y-68210266D01*
X129927024Y-68210266D01*
X130071968Y-68210266D01*
X130071971Y-68210266D01*
X130211981Y-68172750D01*
X130337511Y-68100275D01*
X130440005Y-67997781D01*
X130512480Y-67872251D01*
X130549996Y-67732241D01*
X130549996Y-67587291D01*
X130512480Y-67447281D01*
X130440005Y-67321751D01*
X130345781Y-67227527D01*
X131449500Y-67227527D01*
X131449500Y-67372477D01*
X131487016Y-67512487D01*
X131487017Y-67512490D01*
X131559488Y-67638013D01*
X131559490Y-67638015D01*
X131559491Y-67638017D01*
X131661985Y-67740511D01*
X131661986Y-67740512D01*
X131661988Y-67740513D01*
X131787511Y-67812984D01*
X131787512Y-67812984D01*
X131787515Y-67812986D01*
X131927525Y-67850502D01*
X131927528Y-67850502D01*
X132072472Y-67850502D01*
X132072475Y-67850502D01*
X132212485Y-67812986D01*
X132338015Y-67740511D01*
X132440509Y-67638017D01*
X132512984Y-67512487D01*
X132550500Y-67372477D01*
X132550500Y-67227527D01*
X132512984Y-67087517D01*
X132498241Y-67061982D01*
X132440511Y-66961990D01*
X132440506Y-66961984D01*
X132338017Y-66859495D01*
X132338011Y-66859490D01*
X132212488Y-66787019D01*
X132212489Y-66787019D01*
X132201006Y-66783942D01*
X132072475Y-66749502D01*
X131927525Y-66749502D01*
X131798993Y-66783942D01*
X131787511Y-66787019D01*
X131661988Y-66859490D01*
X131661982Y-66859495D01*
X131559493Y-66961984D01*
X131559488Y-66961990D01*
X131487017Y-67087513D01*
X131487016Y-67087517D01*
X131449500Y-67227527D01*
X130345781Y-67227527D01*
X130337511Y-67219257D01*
X130337509Y-67219256D01*
X130337507Y-67219254D01*
X130211984Y-67146783D01*
X130211985Y-67146783D01*
X130200502Y-67143706D01*
X130071971Y-67109266D01*
X129927021Y-67109266D01*
X129798489Y-67143706D01*
X129787007Y-67146783D01*
X129661484Y-67219254D01*
X129661478Y-67219259D01*
X129558989Y-67321748D01*
X129558984Y-67321754D01*
X129486513Y-67447277D01*
X129486512Y-67447281D01*
X129448996Y-67587291D01*
X113119735Y-67587291D01*
X113150500Y-67472475D01*
X113150500Y-67327525D01*
X113112984Y-67187515D01*
X113089467Y-67146783D01*
X113040511Y-67061988D01*
X113040506Y-67061982D01*
X112938017Y-66959493D01*
X112938011Y-66959488D01*
X112812488Y-66887017D01*
X112812489Y-66887017D01*
X112801006Y-66883940D01*
X112672475Y-66849500D01*
X112527525Y-66849500D01*
X112398993Y-66883940D01*
X112387511Y-66887017D01*
X112261988Y-66959488D01*
X112261982Y-66959493D01*
X112159493Y-67061982D01*
X112159488Y-67061988D01*
X112087017Y-67187511D01*
X112087016Y-67187515D01*
X112049500Y-67327525D01*
X95000500Y-67327525D01*
X95000500Y-66355810D01*
X117021215Y-66355810D01*
X117021215Y-66500760D01*
X117058731Y-66640770D01*
X117058732Y-66640773D01*
X117131203Y-66766296D01*
X117131205Y-66766298D01*
X117131206Y-66766300D01*
X117233700Y-66868794D01*
X117233701Y-66868795D01*
X117233703Y-66868796D01*
X117359226Y-66941267D01*
X117359227Y-66941267D01*
X117359230Y-66941269D01*
X117499240Y-66978785D01*
X117499243Y-66978785D01*
X117644187Y-66978785D01*
X117644190Y-66978785D01*
X117784200Y-66941269D01*
X117909730Y-66868794D01*
X118012224Y-66766300D01*
X118084699Y-66640770D01*
X118122215Y-66500760D01*
X118122215Y-66355810D01*
X118084699Y-66215800D01*
X118012224Y-66090270D01*
X117909730Y-65987776D01*
X117909728Y-65987775D01*
X117909726Y-65987773D01*
X117784203Y-65915302D01*
X117784204Y-65915302D01*
X117772721Y-65912225D01*
X117644190Y-65877785D01*
X117499240Y-65877785D01*
X117370708Y-65912225D01*
X117359226Y-65915302D01*
X117233703Y-65987773D01*
X117233697Y-65987778D01*
X117131208Y-66090267D01*
X117131203Y-66090273D01*
X117058732Y-66215796D01*
X117058731Y-66215800D01*
X117021215Y-66355810D01*
X95000500Y-66355810D01*
X95000500Y-61025321D01*
X95599500Y-61025321D01*
X95599500Y-62774678D01*
X95614032Y-62847735D01*
X95614033Y-62847739D01*
X95614034Y-62847740D01*
X95669399Y-62930601D01*
X95752260Y-62985966D01*
X95752264Y-62985967D01*
X95825321Y-63000499D01*
X95825324Y-63000500D01*
X95825326Y-63000500D01*
X97574676Y-63000500D01*
X97574677Y-63000499D01*
X97647740Y-62985966D01*
X97730601Y-62930601D01*
X97785966Y-62847740D01*
X97800500Y-62774674D01*
X97800500Y-61025326D01*
X97800500Y-61025323D01*
X97800499Y-61025321D01*
X99199500Y-61025321D01*
X99199500Y-62774678D01*
X99214032Y-62847735D01*
X99214033Y-62847739D01*
X99214034Y-62847740D01*
X99269399Y-62930601D01*
X99352260Y-62985966D01*
X99352264Y-62985967D01*
X99425321Y-63000499D01*
X99425324Y-63000500D01*
X99425326Y-63000500D01*
X101174676Y-63000500D01*
X101174677Y-63000499D01*
X101247740Y-62985966D01*
X101330601Y-62930601D01*
X101385966Y-62847740D01*
X101400500Y-62774674D01*
X101400500Y-61025326D01*
X101400500Y-61025323D01*
X101400499Y-61025321D01*
X102799500Y-61025321D01*
X102799500Y-62774678D01*
X102814032Y-62847735D01*
X102814033Y-62847739D01*
X102814034Y-62847740D01*
X102869399Y-62930601D01*
X102952260Y-62985966D01*
X102952264Y-62985967D01*
X103025321Y-63000499D01*
X103025324Y-63000500D01*
X103025326Y-63000500D01*
X104774676Y-63000500D01*
X104774677Y-63000499D01*
X104847740Y-62985966D01*
X104930601Y-62930601D01*
X104985966Y-62847740D01*
X105000500Y-62774674D01*
X105000500Y-61025326D01*
X105000500Y-61025323D01*
X105000499Y-61025321D01*
X106399500Y-61025321D01*
X106399500Y-62774678D01*
X106414032Y-62847735D01*
X106414033Y-62847739D01*
X106414034Y-62847740D01*
X106469399Y-62930601D01*
X106552260Y-62985966D01*
X106552264Y-62985967D01*
X106625321Y-63000499D01*
X106625324Y-63000500D01*
X106625326Y-63000500D01*
X108374676Y-63000500D01*
X108374677Y-63000499D01*
X108447740Y-62985966D01*
X108530601Y-62930601D01*
X108585966Y-62847740D01*
X108600500Y-62774674D01*
X108600500Y-61727525D01*
X119049500Y-61727525D01*
X119049500Y-61872475D01*
X119087016Y-62012485D01*
X119087017Y-62012488D01*
X119159488Y-62138011D01*
X119159490Y-62138013D01*
X119159491Y-62138015D01*
X119261985Y-62240509D01*
X119261986Y-62240510D01*
X119261988Y-62240511D01*
X119387511Y-62312982D01*
X119387512Y-62312982D01*
X119387515Y-62312984D01*
X119527525Y-62350500D01*
X119527528Y-62350500D01*
X119672472Y-62350500D01*
X119672475Y-62350500D01*
X119812485Y-62312984D01*
X119938015Y-62240509D01*
X120040509Y-62138015D01*
X120112984Y-62012485D01*
X120150500Y-61872475D01*
X120150500Y-61727525D01*
X120112984Y-61587515D01*
X120040509Y-61461985D01*
X119938015Y-61359491D01*
X119938013Y-61359490D01*
X119938011Y-61359488D01*
X119812488Y-61287017D01*
X119812489Y-61287017D01*
X119801006Y-61283940D01*
X119672475Y-61249500D01*
X119527525Y-61249500D01*
X119398993Y-61283940D01*
X119387511Y-61287017D01*
X119261988Y-61359488D01*
X119261982Y-61359493D01*
X119159493Y-61461982D01*
X119159488Y-61461988D01*
X119087017Y-61587511D01*
X119087016Y-61587515D01*
X119049500Y-61727525D01*
X108600500Y-61727525D01*
X108600500Y-61025326D01*
X108600500Y-61025323D01*
X108600499Y-61025321D01*
X108585967Y-60952264D01*
X108585966Y-60952260D01*
X108530601Y-60869399D01*
X108447740Y-60814034D01*
X108447739Y-60814033D01*
X108447735Y-60814032D01*
X108374677Y-60799500D01*
X108374674Y-60799500D01*
X106625326Y-60799500D01*
X106625323Y-60799500D01*
X106552264Y-60814032D01*
X106552260Y-60814033D01*
X106469399Y-60869399D01*
X106414033Y-60952260D01*
X106414032Y-60952264D01*
X106399500Y-61025321D01*
X105000499Y-61025321D01*
X104985967Y-60952264D01*
X104985966Y-60952260D01*
X104930601Y-60869399D01*
X104847740Y-60814034D01*
X104847739Y-60814033D01*
X104847735Y-60814032D01*
X104774677Y-60799500D01*
X104774674Y-60799500D01*
X103025326Y-60799500D01*
X103025323Y-60799500D01*
X102952264Y-60814032D01*
X102952260Y-60814033D01*
X102869399Y-60869399D01*
X102814033Y-60952260D01*
X102814032Y-60952264D01*
X102799500Y-61025321D01*
X101400499Y-61025321D01*
X101385967Y-60952264D01*
X101385966Y-60952260D01*
X101330601Y-60869399D01*
X101247740Y-60814034D01*
X101247739Y-60814033D01*
X101247735Y-60814032D01*
X101174677Y-60799500D01*
X101174674Y-60799500D01*
X99425326Y-60799500D01*
X99425323Y-60799500D01*
X99352264Y-60814032D01*
X99352260Y-60814033D01*
X99269399Y-60869399D01*
X99214033Y-60952260D01*
X99214032Y-60952264D01*
X99199500Y-61025321D01*
X97800499Y-61025321D01*
X97785967Y-60952264D01*
X97785966Y-60952260D01*
X97730601Y-60869399D01*
X97647740Y-60814034D01*
X97647739Y-60814033D01*
X97647735Y-60814032D01*
X97574677Y-60799500D01*
X97574674Y-60799500D01*
X95825326Y-60799500D01*
X95825323Y-60799500D01*
X95752264Y-60814032D01*
X95752260Y-60814033D01*
X95669399Y-60869399D01*
X95614033Y-60952260D01*
X95614032Y-60952264D01*
X95599500Y-61025321D01*
X95000500Y-61025321D01*
X95000500Y-56125321D01*
X95899500Y-56125321D01*
X95899500Y-57874678D01*
X95914032Y-57947735D01*
X95914033Y-57947739D01*
X95914034Y-57947740D01*
X95969399Y-58030601D01*
X96052260Y-58085966D01*
X96052264Y-58085967D01*
X96125321Y-58100499D01*
X96125324Y-58100500D01*
X96125326Y-58100500D01*
X97874676Y-58100500D01*
X97874677Y-58100499D01*
X97947740Y-58085966D01*
X98030601Y-58030601D01*
X98085966Y-57947740D01*
X98100500Y-57874674D01*
X98100500Y-56125326D01*
X98100500Y-56125323D01*
X98100499Y-56125321D01*
X98085967Y-56052264D01*
X98085966Y-56052260D01*
X98030601Y-55969399D01*
X97947740Y-55914034D01*
X97947739Y-55914033D01*
X97947735Y-55914032D01*
X97874677Y-55899500D01*
X97874674Y-55899500D01*
X96125326Y-55899500D01*
X96125323Y-55899500D01*
X96052264Y-55914032D01*
X96052260Y-55914033D01*
X95969399Y-55969399D01*
X95914033Y-56052260D01*
X95914032Y-56052264D01*
X95899500Y-56125321D01*
X95000500Y-56125321D01*
X95000500Y-55125321D01*
X99899500Y-55125321D01*
X99899500Y-56874678D01*
X99914032Y-56947735D01*
X99914033Y-56947739D01*
X99914034Y-56947740D01*
X99969399Y-57030601D01*
X100052260Y-57085966D01*
X100052264Y-57085967D01*
X100125321Y-57100499D01*
X100125324Y-57100500D01*
X100125326Y-57100500D01*
X101874676Y-57100500D01*
X101874677Y-57100499D01*
X101947740Y-57085966D01*
X102030601Y-57030601D01*
X102085966Y-56947740D01*
X102100500Y-56874674D01*
X102100500Y-55125326D01*
X102100500Y-55125323D01*
X102100499Y-55125321D01*
X103599500Y-55125321D01*
X103599500Y-56874678D01*
X103614032Y-56947735D01*
X103614033Y-56947739D01*
X103614034Y-56947740D01*
X103669399Y-57030601D01*
X103752260Y-57085966D01*
X103752264Y-57085967D01*
X103825321Y-57100499D01*
X103825324Y-57100500D01*
X103825326Y-57100500D01*
X105574676Y-57100500D01*
X105574677Y-57100499D01*
X105647740Y-57085966D01*
X105730601Y-57030601D01*
X105785966Y-56947740D01*
X105800500Y-56874674D01*
X105800500Y-55125326D01*
X105800500Y-55125323D01*
X105800499Y-55125321D01*
X107199500Y-55125321D01*
X107199500Y-56874678D01*
X107214032Y-56947735D01*
X107214033Y-56947739D01*
X107214034Y-56947740D01*
X107269399Y-57030601D01*
X107352260Y-57085966D01*
X107352264Y-57085967D01*
X107425321Y-57100499D01*
X107425324Y-57100500D01*
X107425326Y-57100500D01*
X109174676Y-57100500D01*
X109174677Y-57100499D01*
X109247740Y-57085966D01*
X109330601Y-57030601D01*
X109385966Y-56947740D01*
X109400500Y-56874674D01*
X109400500Y-55125326D01*
X109400500Y-55125323D01*
X109400499Y-55125321D01*
X110799500Y-55125321D01*
X110799500Y-56874678D01*
X110814032Y-56947735D01*
X110814033Y-56947739D01*
X110814034Y-56947740D01*
X110869399Y-57030601D01*
X110952260Y-57085966D01*
X110952264Y-57085967D01*
X111025321Y-57100499D01*
X111025324Y-57100500D01*
X111025326Y-57100500D01*
X112774676Y-57100500D01*
X112774677Y-57100499D01*
X112847740Y-57085966D01*
X112930601Y-57030601D01*
X112985966Y-56947740D01*
X113000500Y-56874674D01*
X113000500Y-55125326D01*
X113000500Y-55125323D01*
X113000499Y-55125321D01*
X114399500Y-55125321D01*
X114399500Y-56874678D01*
X114414032Y-56947735D01*
X114414033Y-56947739D01*
X114414034Y-56947740D01*
X114469399Y-57030601D01*
X114552260Y-57085966D01*
X114552264Y-57085967D01*
X114625321Y-57100499D01*
X114625324Y-57100500D01*
X114625326Y-57100500D01*
X116374676Y-57100500D01*
X116374677Y-57100499D01*
X116447740Y-57085966D01*
X116530601Y-57030601D01*
X116585966Y-56947740D01*
X116600500Y-56874674D01*
X116600500Y-55625321D01*
X134899500Y-55625321D01*
X134899500Y-57374678D01*
X134914032Y-57447735D01*
X134914033Y-57447739D01*
X134914034Y-57447740D01*
X134969399Y-57530601D01*
X135052260Y-57585966D01*
X135052264Y-57585967D01*
X135125321Y-57600499D01*
X135125324Y-57600500D01*
X135125326Y-57600500D01*
X136874676Y-57600500D01*
X136874677Y-57600499D01*
X136947740Y-57585966D01*
X137030601Y-57530601D01*
X137085966Y-57447740D01*
X137100500Y-57374674D01*
X137100500Y-55625326D01*
X137100500Y-55625323D01*
X137100499Y-55625321D01*
X140399500Y-55625321D01*
X140399500Y-57374678D01*
X140414032Y-57447735D01*
X140414033Y-57447739D01*
X140414034Y-57447740D01*
X140469399Y-57530601D01*
X140552260Y-57585966D01*
X140552264Y-57585967D01*
X140625321Y-57600499D01*
X140625324Y-57600500D01*
X140625326Y-57600500D01*
X142374676Y-57600500D01*
X142374677Y-57600499D01*
X142447740Y-57585966D01*
X142530601Y-57530601D01*
X142585966Y-57447740D01*
X142600500Y-57374674D01*
X142600500Y-55625326D01*
X142600500Y-55625323D01*
X142600499Y-55625321D01*
X142585967Y-55552264D01*
X142585966Y-55552260D01*
X142530601Y-55469399D01*
X142447740Y-55414034D01*
X142447739Y-55414033D01*
X142447735Y-55414032D01*
X142374677Y-55399500D01*
X142374674Y-55399500D01*
X140625326Y-55399500D01*
X140625323Y-55399500D01*
X140552264Y-55414032D01*
X140552260Y-55414033D01*
X140469399Y-55469399D01*
X140414033Y-55552260D01*
X140414032Y-55552264D01*
X140399500Y-55625321D01*
X137100499Y-55625321D01*
X137085967Y-55552264D01*
X137085966Y-55552260D01*
X137030601Y-55469399D01*
X136947740Y-55414034D01*
X136947739Y-55414033D01*
X136947735Y-55414032D01*
X136874677Y-55399500D01*
X136874674Y-55399500D01*
X135125326Y-55399500D01*
X135125323Y-55399500D01*
X135052264Y-55414032D01*
X135052260Y-55414033D01*
X134969399Y-55469399D01*
X134914033Y-55552260D01*
X134914032Y-55552264D01*
X134899500Y-55625321D01*
X116600500Y-55625321D01*
X116600500Y-55125326D01*
X116600500Y-55125323D01*
X116600499Y-55125321D01*
X116585967Y-55052264D01*
X116585966Y-55052260D01*
X116530601Y-54969399D01*
X116447740Y-54914034D01*
X116447739Y-54914033D01*
X116447735Y-54914032D01*
X116374677Y-54899500D01*
X116374674Y-54899500D01*
X114625326Y-54899500D01*
X114625323Y-54899500D01*
X114552264Y-54914032D01*
X114552260Y-54914033D01*
X114469399Y-54969399D01*
X114414033Y-55052260D01*
X114414032Y-55052264D01*
X114399500Y-55125321D01*
X113000499Y-55125321D01*
X112985967Y-55052264D01*
X112985966Y-55052260D01*
X112930601Y-54969399D01*
X112847740Y-54914034D01*
X112847739Y-54914033D01*
X112847735Y-54914032D01*
X112774677Y-54899500D01*
X112774674Y-54899500D01*
X111025326Y-54899500D01*
X111025323Y-54899500D01*
X110952264Y-54914032D01*
X110952260Y-54914033D01*
X110869399Y-54969399D01*
X110814033Y-55052260D01*
X110814032Y-55052264D01*
X110799500Y-55125321D01*
X109400499Y-55125321D01*
X109385967Y-55052264D01*
X109385966Y-55052260D01*
X109330601Y-54969399D01*
X109247740Y-54914034D01*
X109247739Y-54914033D01*
X109247735Y-54914032D01*
X109174677Y-54899500D01*
X109174674Y-54899500D01*
X107425326Y-54899500D01*
X107425323Y-54899500D01*
X107352264Y-54914032D01*
X107352260Y-54914033D01*
X107269399Y-54969399D01*
X107214033Y-55052260D01*
X107214032Y-55052264D01*
X107199500Y-55125321D01*
X105800499Y-55125321D01*
X105785967Y-55052264D01*
X105785966Y-55052260D01*
X105730601Y-54969399D01*
X105647740Y-54914034D01*
X105647739Y-54914033D01*
X105647735Y-54914032D01*
X105574677Y-54899500D01*
X105574674Y-54899500D01*
X103825326Y-54899500D01*
X103825323Y-54899500D01*
X103752264Y-54914032D01*
X103752260Y-54914033D01*
X103669399Y-54969399D01*
X103614033Y-55052260D01*
X103614032Y-55052264D01*
X103599500Y-55125321D01*
X102100499Y-55125321D01*
X102085967Y-55052264D01*
X102085966Y-55052260D01*
X102030601Y-54969399D01*
X101947740Y-54914034D01*
X101947739Y-54914033D01*
X101947735Y-54914032D01*
X101874677Y-54899500D01*
X101874674Y-54899500D01*
X100125326Y-54899500D01*
X100125323Y-54899500D01*
X100052264Y-54914032D01*
X100052260Y-54914033D01*
X99969399Y-54969399D01*
X99914033Y-55052260D01*
X99914032Y-55052264D01*
X99899500Y-55125321D01*
X95000500Y-55125321D01*
X95000500Y-53000840D01*
X95020185Y-52933801D01*
X95072989Y-52888046D01*
X95142147Y-52878102D01*
X95205703Y-52907127D01*
X95236220Y-52947039D01*
X95351882Y-53187215D01*
X95351886Y-53187221D01*
X95498319Y-53420268D01*
X95669925Y-53635455D01*
X95864545Y-53830075D01*
X96079732Y-54001681D01*
X96312779Y-54148114D01*
X96560757Y-54267534D01*
X96755865Y-54335805D01*
X96820534Y-54358434D01*
X96820546Y-54358438D01*
X97088879Y-54419683D01*
X97362378Y-54450499D01*
X97362379Y-54450500D01*
X97362383Y-54450500D01*
X97637621Y-54450500D01*
X97637621Y-54450499D01*
X97911121Y-54419683D01*
X98179454Y-54358438D01*
X98439243Y-54267534D01*
X98687221Y-54148114D01*
X98920268Y-54001681D01*
X99135455Y-53830075D01*
X99330075Y-53635455D01*
X99501681Y-53420268D01*
X99648114Y-53187221D01*
X99767534Y-52939243D01*
X99858438Y-52679454D01*
X99919683Y-52411121D01*
X99950500Y-52137617D01*
X99950500Y-51862383D01*
X99919683Y-51588879D01*
X99858438Y-51320546D01*
X99854570Y-51309493D01*
X99812012Y-51187868D01*
X99767534Y-51060757D01*
X99648114Y-50812779D01*
X99505120Y-50585205D01*
X99501683Y-50579734D01*
X99458290Y-50525321D01*
X103499500Y-50525321D01*
X103499500Y-52274678D01*
X103514032Y-52347735D01*
X103514033Y-52347739D01*
X103514034Y-52347740D01*
X103569399Y-52430601D01*
X103652260Y-52485966D01*
X103652264Y-52485967D01*
X103725321Y-52500499D01*
X103725324Y-52500500D01*
X103725326Y-52500500D01*
X105474676Y-52500500D01*
X105474677Y-52500499D01*
X105547740Y-52485966D01*
X105630601Y-52430601D01*
X105685966Y-52347740D01*
X105700500Y-52274674D01*
X105700500Y-50525326D01*
X105700500Y-50525323D01*
X105700499Y-50525321D01*
X107099500Y-50525321D01*
X107099500Y-52274678D01*
X107114032Y-52347735D01*
X107114033Y-52347739D01*
X107114034Y-52347740D01*
X107169399Y-52430601D01*
X107252260Y-52485966D01*
X107252264Y-52485967D01*
X107325321Y-52500499D01*
X107325324Y-52500500D01*
X107325326Y-52500500D01*
X109074676Y-52500500D01*
X109074677Y-52500499D01*
X109147740Y-52485966D01*
X109230601Y-52430601D01*
X109285966Y-52347740D01*
X109300500Y-52274674D01*
X109300500Y-50525326D01*
X109300500Y-50525323D01*
X109300499Y-50525321D01*
X110699500Y-50525321D01*
X110699500Y-52274678D01*
X110714032Y-52347735D01*
X110714033Y-52347739D01*
X110714034Y-52347740D01*
X110769399Y-52430601D01*
X110852260Y-52485966D01*
X110852264Y-52485967D01*
X110925321Y-52500499D01*
X110925324Y-52500500D01*
X110925326Y-52500500D01*
X112674676Y-52500500D01*
X112674677Y-52500499D01*
X112747740Y-52485966D01*
X112830601Y-52430601D01*
X112885966Y-52347740D01*
X112900500Y-52274674D01*
X112900500Y-51313389D01*
X114399500Y-51313389D01*
X114399500Y-51486610D01*
X114419380Y-51612132D01*
X114426598Y-51657701D01*
X114480127Y-51822445D01*
X114558768Y-51976788D01*
X114660586Y-52116928D01*
X114783072Y-52239414D01*
X114923212Y-52341232D01*
X115077555Y-52419873D01*
X115242299Y-52473402D01*
X115413389Y-52500500D01*
X115413390Y-52500500D01*
X115586610Y-52500500D01*
X115586611Y-52500500D01*
X115757701Y-52473402D01*
X115922445Y-52419873D01*
X116076788Y-52341232D01*
X116216928Y-52239414D01*
X116339414Y-52116928D01*
X116441232Y-51976788D01*
X116519873Y-51822445D01*
X116573402Y-51657701D01*
X116600500Y-51486611D01*
X116600500Y-51313389D01*
X116599883Y-51309493D01*
X116890000Y-51309493D01*
X116890000Y-51490506D01*
X116918317Y-51669293D01*
X116974251Y-51841444D01*
X116974252Y-51841447D01*
X117056432Y-52002731D01*
X117127424Y-52100442D01*
X117127425Y-52100443D01*
X117596329Y-51631538D01*
X117639901Y-51707007D01*
X117732993Y-51800099D01*
X117808460Y-51843670D01*
X117339555Y-52312574D01*
X117437268Y-52383567D01*
X117598552Y-52465747D01*
X117598555Y-52465748D01*
X117770706Y-52521682D01*
X117949494Y-52550000D01*
X118130506Y-52550000D01*
X118309293Y-52521682D01*
X118481444Y-52465748D01*
X118481447Y-52465747D01*
X118642730Y-52383568D01*
X118740442Y-52312574D01*
X118740443Y-52312574D01*
X118271539Y-51843670D01*
X118347007Y-51800099D01*
X118440099Y-51707007D01*
X118483670Y-51631539D01*
X118952574Y-52100443D01*
X118952574Y-52100442D01*
X119023568Y-52002730D01*
X119105747Y-51841447D01*
X119105748Y-51841444D01*
X119161682Y-51669293D01*
X119190000Y-51490506D01*
X119190000Y-51313389D01*
X119479500Y-51313389D01*
X119479500Y-51486610D01*
X119499380Y-51612132D01*
X119506598Y-51657701D01*
X119560127Y-51822445D01*
X119638768Y-51976788D01*
X119740586Y-52116928D01*
X119863072Y-52239414D01*
X120003212Y-52341232D01*
X120157555Y-52419873D01*
X120322299Y-52473402D01*
X120493389Y-52500500D01*
X120493390Y-52500500D01*
X120666610Y-52500500D01*
X120666611Y-52500500D01*
X120837701Y-52473402D01*
X121002445Y-52419873D01*
X121156788Y-52341232D01*
X121296928Y-52239414D01*
X121419414Y-52116928D01*
X121521232Y-51976788D01*
X121599873Y-51822445D01*
X121653402Y-51657701D01*
X121680500Y-51486611D01*
X121680500Y-51313389D01*
X122019500Y-51313389D01*
X122019500Y-51486610D01*
X122039380Y-51612132D01*
X122046598Y-51657701D01*
X122100127Y-51822445D01*
X122178768Y-51976788D01*
X122280586Y-52116928D01*
X122403072Y-52239414D01*
X122543212Y-52341232D01*
X122697555Y-52419873D01*
X122862299Y-52473402D01*
X123033389Y-52500500D01*
X123033390Y-52500500D01*
X123206610Y-52500500D01*
X123206611Y-52500500D01*
X123377701Y-52473402D01*
X123542445Y-52419873D01*
X123696788Y-52341232D01*
X123836928Y-52239414D01*
X123959414Y-52116928D01*
X124061232Y-51976788D01*
X124139873Y-51822445D01*
X124193402Y-51657701D01*
X124220500Y-51486611D01*
X124220500Y-51313389D01*
X124559500Y-51313389D01*
X124559500Y-51486610D01*
X124579380Y-51612132D01*
X124586598Y-51657701D01*
X124640127Y-51822445D01*
X124718768Y-51976788D01*
X124820586Y-52116928D01*
X124943072Y-52239414D01*
X125083212Y-52341232D01*
X125237555Y-52419873D01*
X125402299Y-52473402D01*
X125573389Y-52500500D01*
X125573390Y-52500500D01*
X125746610Y-52500500D01*
X125746611Y-52500500D01*
X125917701Y-52473402D01*
X126082445Y-52419873D01*
X126236788Y-52341232D01*
X126376928Y-52239414D01*
X126499414Y-52116928D01*
X126601232Y-51976788D01*
X126679873Y-51822445D01*
X126733402Y-51657701D01*
X126760500Y-51486611D01*
X126760500Y-51313389D01*
X127099500Y-51313389D01*
X127099500Y-51486610D01*
X127119380Y-51612132D01*
X127126598Y-51657701D01*
X127180127Y-51822445D01*
X127258768Y-51976788D01*
X127360586Y-52116928D01*
X127483072Y-52239414D01*
X127623212Y-52341232D01*
X127777555Y-52419873D01*
X127942299Y-52473402D01*
X128113389Y-52500500D01*
X128113390Y-52500500D01*
X128286610Y-52500500D01*
X128286611Y-52500500D01*
X128457701Y-52473402D01*
X128622445Y-52419873D01*
X128776788Y-52341232D01*
X128916928Y-52239414D01*
X129039414Y-52116928D01*
X129141232Y-51976788D01*
X129219873Y-51822445D01*
X129273402Y-51657701D01*
X129300500Y-51486611D01*
X129300500Y-51313389D01*
X129639500Y-51313389D01*
X129639500Y-51486610D01*
X129659380Y-51612132D01*
X129666598Y-51657701D01*
X129720127Y-51822445D01*
X129798768Y-51976788D01*
X129900586Y-52116928D01*
X130023072Y-52239414D01*
X130163212Y-52341232D01*
X130317555Y-52419873D01*
X130482299Y-52473402D01*
X130653389Y-52500500D01*
X130653390Y-52500500D01*
X130826610Y-52500500D01*
X130826611Y-52500500D01*
X130997701Y-52473402D01*
X131162445Y-52419873D01*
X131316788Y-52341232D01*
X131456928Y-52239414D01*
X131579414Y-52116928D01*
X131681232Y-51976788D01*
X131759873Y-51822445D01*
X131813402Y-51657701D01*
X131840500Y-51486611D01*
X131840500Y-51313389D01*
X131813402Y-51142299D01*
X131759873Y-50977555D01*
X131681232Y-50823212D01*
X131579414Y-50683072D01*
X131456928Y-50560586D01*
X131408390Y-50525321D01*
X132179500Y-50525321D01*
X132179500Y-52274678D01*
X132194032Y-52347735D01*
X132194033Y-52347739D01*
X132194034Y-52347740D01*
X132249399Y-52430601D01*
X132332260Y-52485966D01*
X132332264Y-52485967D01*
X132405321Y-52500499D01*
X132405324Y-52500500D01*
X132405326Y-52500500D01*
X134154676Y-52500500D01*
X134154677Y-52500499D01*
X134227740Y-52485966D01*
X134310601Y-52430601D01*
X134365966Y-52347740D01*
X134380500Y-52274674D01*
X134380500Y-51125321D01*
X135899500Y-51125321D01*
X135899500Y-52874678D01*
X135914032Y-52947735D01*
X135914033Y-52947739D01*
X135914034Y-52947740D01*
X135969399Y-53030601D01*
X136052260Y-53085966D01*
X136052264Y-53085967D01*
X136125321Y-53100499D01*
X136125324Y-53100500D01*
X136125326Y-53100500D01*
X137874676Y-53100500D01*
X137874677Y-53100499D01*
X137947740Y-53085966D01*
X138030601Y-53030601D01*
X138085966Y-52947740D01*
X138100500Y-52874674D01*
X138100500Y-51125326D01*
X138100500Y-51125323D01*
X138100499Y-51125321D01*
X138085967Y-51052264D01*
X138085966Y-51052260D01*
X138067483Y-51024598D01*
X138030601Y-50969399D01*
X137947740Y-50914034D01*
X137947739Y-50914033D01*
X137947735Y-50914032D01*
X137874677Y-50899500D01*
X137874674Y-50899500D01*
X136125326Y-50899500D01*
X136125323Y-50899500D01*
X136052264Y-50914032D01*
X136052260Y-50914033D01*
X135969399Y-50969399D01*
X135914033Y-51052260D01*
X135914032Y-51052264D01*
X135899500Y-51125321D01*
X134380500Y-51125321D01*
X134380500Y-50525326D01*
X134380500Y-50525323D01*
X134380499Y-50525321D01*
X134365967Y-50452264D01*
X134365966Y-50452260D01*
X134342028Y-50416434D01*
X134310601Y-50369399D01*
X134227740Y-50314034D01*
X134227739Y-50314033D01*
X134227735Y-50314032D01*
X134154677Y-50299500D01*
X134154674Y-50299500D01*
X132405326Y-50299500D01*
X132405323Y-50299500D01*
X132332264Y-50314032D01*
X132332260Y-50314033D01*
X132249399Y-50369399D01*
X132194033Y-50452260D01*
X132194032Y-50452264D01*
X132179500Y-50525321D01*
X131408390Y-50525321D01*
X131316788Y-50458768D01*
X131162445Y-50380127D01*
X130997701Y-50326598D01*
X130997699Y-50326597D01*
X130997698Y-50326597D01*
X130866271Y-50305781D01*
X130826611Y-50299500D01*
X130653389Y-50299500D01*
X130613728Y-50305781D01*
X130482302Y-50326597D01*
X130317552Y-50380128D01*
X130163211Y-50458768D01*
X130123769Y-50487425D01*
X130023072Y-50560586D01*
X130023070Y-50560588D01*
X130023069Y-50560588D01*
X129900588Y-50683069D01*
X129900588Y-50683070D01*
X129900586Y-50683072D01*
X129888610Y-50699556D01*
X129798768Y-50823211D01*
X129720128Y-50977552D01*
X129666597Y-51142302D01*
X129639500Y-51313389D01*
X129300500Y-51313389D01*
X129273402Y-51142299D01*
X129219873Y-50977555D01*
X129141232Y-50823212D01*
X129039414Y-50683072D01*
X128916928Y-50560586D01*
X128776788Y-50458768D01*
X128622445Y-50380127D01*
X128457701Y-50326598D01*
X128457699Y-50326597D01*
X128457698Y-50326597D01*
X128326271Y-50305781D01*
X128286611Y-50299500D01*
X128113389Y-50299500D01*
X128073728Y-50305781D01*
X127942302Y-50326597D01*
X127777552Y-50380128D01*
X127623211Y-50458768D01*
X127583769Y-50487425D01*
X127483072Y-50560586D01*
X127483070Y-50560588D01*
X127483069Y-50560588D01*
X127360588Y-50683069D01*
X127360588Y-50683070D01*
X127360586Y-50683072D01*
X127348610Y-50699556D01*
X127258768Y-50823211D01*
X127180128Y-50977552D01*
X127126597Y-51142302D01*
X127099500Y-51313389D01*
X126760500Y-51313389D01*
X126733402Y-51142299D01*
X126679873Y-50977555D01*
X126601232Y-50823212D01*
X126499414Y-50683072D01*
X126376928Y-50560586D01*
X126236788Y-50458768D01*
X126082445Y-50380127D01*
X125917701Y-50326598D01*
X125917699Y-50326597D01*
X125917698Y-50326597D01*
X125786271Y-50305781D01*
X125746611Y-50299500D01*
X125573389Y-50299500D01*
X125533728Y-50305781D01*
X125402302Y-50326597D01*
X125237552Y-50380128D01*
X125083211Y-50458768D01*
X125043769Y-50487425D01*
X124943072Y-50560586D01*
X124943070Y-50560588D01*
X124943069Y-50560588D01*
X124820588Y-50683069D01*
X124820588Y-50683070D01*
X124820586Y-50683072D01*
X124808610Y-50699556D01*
X124718768Y-50823211D01*
X124640128Y-50977552D01*
X124586597Y-51142302D01*
X124559500Y-51313389D01*
X124220500Y-51313389D01*
X124193402Y-51142299D01*
X124139873Y-50977555D01*
X124061232Y-50823212D01*
X123959414Y-50683072D01*
X123836928Y-50560586D01*
X123696788Y-50458768D01*
X123542445Y-50380127D01*
X123377701Y-50326598D01*
X123377699Y-50326597D01*
X123377698Y-50326597D01*
X123246271Y-50305781D01*
X123206611Y-50299500D01*
X123033389Y-50299500D01*
X122993728Y-50305781D01*
X122862302Y-50326597D01*
X122697552Y-50380128D01*
X122543211Y-50458768D01*
X122503769Y-50487425D01*
X122403072Y-50560586D01*
X122403070Y-50560588D01*
X122403069Y-50560588D01*
X122280588Y-50683069D01*
X122280588Y-50683070D01*
X122280586Y-50683072D01*
X122268610Y-50699556D01*
X122178768Y-50823211D01*
X122100128Y-50977552D01*
X122046597Y-51142302D01*
X122019500Y-51313389D01*
X121680500Y-51313389D01*
X121653402Y-51142299D01*
X121599873Y-50977555D01*
X121521232Y-50823212D01*
X121419414Y-50683072D01*
X121296928Y-50560586D01*
X121156788Y-50458768D01*
X121002445Y-50380127D01*
X120837701Y-50326598D01*
X120837699Y-50326597D01*
X120837698Y-50326597D01*
X120706271Y-50305781D01*
X120666611Y-50299500D01*
X120493389Y-50299500D01*
X120453728Y-50305781D01*
X120322302Y-50326597D01*
X120157552Y-50380128D01*
X120003211Y-50458768D01*
X119963769Y-50487425D01*
X119863072Y-50560586D01*
X119863070Y-50560588D01*
X119863069Y-50560588D01*
X119740588Y-50683069D01*
X119740588Y-50683070D01*
X119740586Y-50683072D01*
X119728610Y-50699556D01*
X119638768Y-50823211D01*
X119560128Y-50977552D01*
X119506597Y-51142302D01*
X119479500Y-51313389D01*
X119190000Y-51313389D01*
X119190000Y-51309493D01*
X119161682Y-51130706D01*
X119105748Y-50958555D01*
X119105747Y-50958552D01*
X119023567Y-50797268D01*
X118952574Y-50699556D01*
X118952574Y-50699555D01*
X118483670Y-51168460D01*
X118440099Y-51092993D01*
X118347007Y-50999901D01*
X118271539Y-50956329D01*
X118740443Y-50487425D01*
X118740442Y-50487424D01*
X118642731Y-50416432D01*
X118481447Y-50334252D01*
X118481444Y-50334251D01*
X118309293Y-50278317D01*
X118130506Y-50250000D01*
X117949494Y-50250000D01*
X117770706Y-50278317D01*
X117598555Y-50334251D01*
X117598552Y-50334252D01*
X117437265Y-50416434D01*
X117339556Y-50487423D01*
X117339556Y-50487425D01*
X117808461Y-50956329D01*
X117732993Y-50999901D01*
X117639901Y-51092993D01*
X117596329Y-51168460D01*
X117127425Y-50699556D01*
X117127423Y-50699556D01*
X117056434Y-50797265D01*
X116974252Y-50958552D01*
X116974251Y-50958555D01*
X116918317Y-51130706D01*
X116890000Y-51309493D01*
X116599883Y-51309493D01*
X116573402Y-51142299D01*
X116519873Y-50977555D01*
X116441232Y-50823212D01*
X116339414Y-50683072D01*
X116216928Y-50560586D01*
X116076788Y-50458768D01*
X115922445Y-50380127D01*
X115757701Y-50326598D01*
X115757699Y-50326597D01*
X115757698Y-50326597D01*
X115626271Y-50305781D01*
X115586611Y-50299500D01*
X115413389Y-50299500D01*
X115373728Y-50305781D01*
X115242302Y-50326597D01*
X115077552Y-50380128D01*
X114923211Y-50458768D01*
X114883769Y-50487425D01*
X114783072Y-50560586D01*
X114783070Y-50560588D01*
X114783069Y-50560588D01*
X114660588Y-50683069D01*
X114660588Y-50683070D01*
X114660586Y-50683072D01*
X114648610Y-50699556D01*
X114558768Y-50823211D01*
X114480128Y-50977552D01*
X114426597Y-51142302D01*
X114399500Y-51313389D01*
X112900500Y-51313389D01*
X112900500Y-50525326D01*
X112900500Y-50525323D01*
X112900499Y-50525321D01*
X112885967Y-50452264D01*
X112885966Y-50452260D01*
X112862028Y-50416434D01*
X112830601Y-50369399D01*
X112747740Y-50314034D01*
X112747739Y-50314033D01*
X112747735Y-50314032D01*
X112674677Y-50299500D01*
X112674674Y-50299500D01*
X110925326Y-50299500D01*
X110925323Y-50299500D01*
X110852264Y-50314032D01*
X110852260Y-50314033D01*
X110769399Y-50369399D01*
X110714033Y-50452260D01*
X110714032Y-50452264D01*
X110699500Y-50525321D01*
X109300499Y-50525321D01*
X109285967Y-50452264D01*
X109285966Y-50452260D01*
X109262028Y-50416434D01*
X109230601Y-50369399D01*
X109147740Y-50314034D01*
X109147739Y-50314033D01*
X109147735Y-50314032D01*
X109074677Y-50299500D01*
X109074674Y-50299500D01*
X107325326Y-50299500D01*
X107325323Y-50299500D01*
X107252264Y-50314032D01*
X107252260Y-50314033D01*
X107169399Y-50369399D01*
X107114033Y-50452260D01*
X107114032Y-50452264D01*
X107099500Y-50525321D01*
X105700499Y-50525321D01*
X105685967Y-50452264D01*
X105685966Y-50452260D01*
X105662028Y-50416434D01*
X105630601Y-50369399D01*
X105547740Y-50314034D01*
X105547739Y-50314033D01*
X105547735Y-50314032D01*
X105474677Y-50299500D01*
X105474674Y-50299500D01*
X103725326Y-50299500D01*
X103725323Y-50299500D01*
X103652264Y-50314032D01*
X103652260Y-50314033D01*
X103569399Y-50369399D01*
X103514033Y-50452260D01*
X103514032Y-50452264D01*
X103499500Y-50525321D01*
X99458290Y-50525321D01*
X99330075Y-50364545D01*
X99135454Y-50169924D01*
X98944992Y-50018036D01*
X98920268Y-49998319D01*
X98687221Y-49851886D01*
X98687218Y-49851884D01*
X98447039Y-49736220D01*
X98395180Y-49689398D01*
X98376867Y-49621971D01*
X98397915Y-49555347D01*
X98451641Y-49510678D01*
X98500841Y-49500500D01*
X140499159Y-49500500D01*
X140566198Y-49520185D01*
G37*
%TD.AperFunction*%
%TD*%
M02*
