%TF.GenerationSoftware,KiCad,Pcbnew,9.0.5*%
%TF.CreationDate,2026-01-02T01:02:28-05:00*%
%TF.ProjectId,fin-prototype,66696e2d-7072-46f7-946f-747970652e6b,rev?*%
%TF.SameCoordinates,Original*%
%TF.FileFunction,Paste,Top*%
%TF.FilePolarity,Positive*%
%FSLAX46Y46*%
G04 Gerber Fmt 4.6, Leading zero omitted, Abs format (unit mm)*
G04 Created by KiCad (PCBNEW 9.0.5) date 2026-01-02 01:02:28*
%MOMM*%
%LPD*%
G01*
G04 APERTURE LIST*
G04 Aperture macros list*
%AMRoundRect*
0 Rectangle with rounded corners*
0 $1 Rounding radius*
0 $2 $3 $4 $5 $6 $7 $8 $9 X,Y pos of 4 corners*
0 Add a 4 corners polygon primitive as box body*
4,1,4,$2,$3,$4,$5,$6,$7,$8,$9,$2,$3,0*
0 Add four circle primitives for the rounded corners*
1,1,$1+$1,$2,$3*
1,1,$1+$1,$4,$5*
1,1,$1+$1,$6,$7*
1,1,$1+$1,$8,$9*
0 Add four rect primitives between the rounded corners*
20,1,$1+$1,$2,$3,$4,$5,0*
20,1,$1+$1,$4,$5,$6,$7,0*
20,1,$1+$1,$6,$7,$8,$9,0*
20,1,$1+$1,$8,$9,$2,$3,0*%
G04 Aperture macros list end*
%ADD10C,0.000000*%
%ADD11RoundRect,0.200000X-0.275000X0.200000X-0.275000X-0.200000X0.275000X-0.200000X0.275000X0.200000X0*%
%ADD12RoundRect,0.225000X0.250000X-0.225000X0.250000X0.225000X-0.250000X0.225000X-0.250000X-0.225000X0*%
%ADD13R,0.355600X1.409700*%
%ADD14RoundRect,0.200000X-0.200000X-0.275000X0.200000X-0.275000X0.200000X0.275000X-0.200000X0.275000X0*%
%ADD15RoundRect,0.225000X-0.250000X0.225000X-0.250000X-0.225000X0.250000X-0.225000X0.250000X0.225000X0*%
%ADD16RoundRect,0.218750X0.218750X0.256250X-0.218750X0.256250X-0.218750X-0.256250X0.218750X-0.256250X0*%
%ADD17RoundRect,0.150000X0.425000X-0.150000X0.425000X0.150000X-0.425000X0.150000X-0.425000X-0.150000X0*%
%ADD18RoundRect,0.075000X0.500000X-0.075000X0.500000X0.075000X-0.500000X0.075000X-0.500000X-0.075000X0*%
%ADD19O,2.100000X1.000000*%
%ADD20O,1.800000X1.000000*%
%ADD21RoundRect,0.225000X0.225000X0.250000X-0.225000X0.250000X-0.225000X-0.250000X0.225000X-0.250000X0*%
%ADD22RoundRect,0.075000X-0.662500X-0.075000X0.662500X-0.075000X0.662500X0.075000X-0.662500X0.075000X0*%
%ADD23RoundRect,0.075000X-0.075000X-0.662500X0.075000X-0.662500X0.075000X0.662500X-0.075000X0.662500X0*%
%ADD24R,0.762000X0.254000*%
%ADD25R,0.254000X0.762000*%
%ADD26R,3.200400X3.200400*%
%ADD27RoundRect,0.200000X0.200000X0.275000X-0.200000X0.275000X-0.200000X-0.275000X0.200000X-0.275000X0*%
%ADD28RoundRect,0.200000X0.275000X-0.200000X0.275000X0.200000X-0.275000X0.200000X-0.275000X-0.200000X0*%
%ADD29RoundRect,0.105000X-1.395000X0.245000X-1.395000X-0.245000X1.395000X-0.245000X1.395000X0.245000X0*%
%ADD30RoundRect,0.218750X-0.218750X-0.256250X0.218750X-0.256250X0.218750X0.256250X-0.218750X0.256250X0*%
%ADD31R,0.599999X1.300000*%
%ADD32R,2.108200X0.990600*%
%ADD33RoundRect,0.225000X-0.225000X-0.250000X0.225000X-0.250000X0.225000X0.250000X-0.225000X0.250000X0*%
%ADD34R,0.863600X0.431800*%
%ADD35R,3.454400X4.343400*%
%ADD36RoundRect,0.250000X0.950000X0.500000X-0.950000X0.500000X-0.950000X-0.500000X0.950000X-0.500000X0*%
%ADD37RoundRect,0.250000X0.275000X0.500000X-0.275000X0.500000X-0.275000X-0.500000X0.275000X-0.500000X0*%
G04 APERTURE END LIST*
D10*
%TO.C,U3*%
G36*
X104250700Y-84271100D02*
G01*
X102723500Y-84271100D01*
X102723500Y-83023300D01*
X104250700Y-83023300D01*
X104250700Y-84271100D01*
G37*
G36*
X104250700Y-85718900D02*
G01*
X102723500Y-85718900D01*
X102723500Y-84471100D01*
X104250700Y-84471100D01*
X104250700Y-85718900D01*
G37*
G36*
X104250700Y-87166700D02*
G01*
X102723500Y-87166700D01*
X102723500Y-85918900D01*
X104250700Y-85918900D01*
X104250700Y-87166700D01*
G37*
G36*
X105977900Y-84271100D02*
G01*
X104450700Y-84271100D01*
X104450700Y-83023300D01*
X105977900Y-83023300D01*
X105977900Y-84271100D01*
G37*
G36*
X105977900Y-85718900D02*
G01*
X104450700Y-85718900D01*
X104450700Y-84471100D01*
X105977900Y-84471100D01*
X105977900Y-85718900D01*
G37*
G36*
X105977900Y-87166700D02*
G01*
X104450700Y-87166700D01*
X104450700Y-85918900D01*
X105977900Y-85918900D01*
X105977900Y-87166700D01*
G37*
%TD*%
D11*
%TO.C,R4*%
X123000000Y-89850000D03*
X123000000Y-91500000D03*
%TD*%
D12*
%TO.C,C7*%
X114000000Y-70000000D03*
X114000000Y-68450000D03*
%TD*%
D13*
%TO.C,U1*%
X132425000Y-83272250D03*
X131774999Y-83272250D03*
X131125001Y-83272250D03*
X130474999Y-83272250D03*
X129825001Y-83272250D03*
X129175002Y-83272250D03*
X128525001Y-83272250D03*
X127875002Y-83272250D03*
X127225001Y-83272250D03*
X126575002Y-83272250D03*
X126575000Y-89177750D03*
X127224998Y-89177750D03*
X127874999Y-89177750D03*
X128524998Y-89177750D03*
X129174999Y-89177750D03*
X129824998Y-89177750D03*
X130474999Y-89177750D03*
X131124998Y-89177750D03*
X131774999Y-89177750D03*
X132424998Y-89177750D03*
%TD*%
D14*
%TO.C,R8*%
X135850000Y-62500000D03*
X137500000Y-62500000D03*
%TD*%
D11*
%TO.C,R13*%
X121000000Y-89850000D03*
X121000000Y-91500000D03*
%TD*%
D14*
%TO.C,R10*%
X119575000Y-66600000D03*
X121225000Y-66600000D03*
%TD*%
D15*
%TO.C,C13*%
X134500000Y-74450000D03*
X134500000Y-76000000D03*
%TD*%
D16*
%TO.C,D4*%
X121187500Y-68600000D03*
X119612500Y-68600000D03*
%TD*%
D17*
%TO.C,J1*%
X137245000Y-81605000D03*
X137245000Y-80805000D03*
D18*
X137245000Y-79655000D03*
X137245000Y-78655000D03*
X137245000Y-78155000D03*
X137245000Y-77155000D03*
D17*
X137245000Y-76005000D03*
X137245000Y-75205000D03*
X137245000Y-75205000D03*
X137245000Y-76005000D03*
D18*
X137245000Y-76655000D03*
X137245000Y-77655000D03*
X137245000Y-79155000D03*
X137245000Y-80155000D03*
D17*
X137245000Y-80805000D03*
X137245000Y-81605000D03*
D19*
X137820000Y-82725000D03*
D20*
X142000000Y-82725000D03*
D19*
X137820000Y-74085000D03*
D20*
X142000000Y-74085000D03*
%TD*%
D11*
%TO.C,R14*%
X119000000Y-89850000D03*
X119000000Y-91500000D03*
%TD*%
D21*
%TO.C,C9*%
X111775000Y-77225000D03*
X110225000Y-77225000D03*
%TD*%
D22*
%TO.C,U2*%
X114587500Y-72812500D03*
X114587500Y-73312500D03*
X114587500Y-73812500D03*
X114587500Y-74312500D03*
X114587500Y-74812500D03*
X114587500Y-75312500D03*
X114587500Y-75812500D03*
X114587500Y-76312500D03*
X114587500Y-76812500D03*
X114587500Y-77312500D03*
X114587500Y-77812500D03*
X114587500Y-78312500D03*
D23*
X116000000Y-79725000D03*
X116500000Y-79725000D03*
X117000000Y-79725000D03*
X117500000Y-79725000D03*
X118000000Y-79725000D03*
X118500000Y-79725000D03*
X119000000Y-79725000D03*
X119500000Y-79725000D03*
X120000000Y-79725000D03*
X120500000Y-79725000D03*
X121000000Y-79725000D03*
X121500000Y-79725000D03*
D22*
X122912500Y-78312500D03*
X122912500Y-77812500D03*
X122912500Y-77312500D03*
X122912500Y-76812500D03*
X122912500Y-76312500D03*
X122912500Y-75812500D03*
X122912500Y-75312500D03*
X122912500Y-74812500D03*
X122912500Y-74312500D03*
X122912500Y-73812500D03*
X122912500Y-73312500D03*
X122912500Y-72812500D03*
D23*
X121500000Y-71400000D03*
X121000000Y-71400000D03*
X120500000Y-71400000D03*
X120000000Y-71400000D03*
X119500000Y-71400000D03*
X119000000Y-71400000D03*
X118500000Y-71400000D03*
X118000000Y-71400000D03*
X117500000Y-71400000D03*
X117000000Y-71400000D03*
X116500000Y-71400000D03*
X116000000Y-71400000D03*
%TD*%
D12*
%TO.C,C4*%
X133225000Y-93000000D03*
X133225000Y-91450000D03*
%TD*%
D24*
%TO.C,U5*%
X128323985Y-69048859D03*
X128323985Y-69548985D03*
X128323985Y-70049111D03*
X128323985Y-70549237D03*
X128323985Y-71049363D03*
X128323985Y-71549489D03*
X128323985Y-72049615D03*
X128323985Y-72549741D03*
D25*
X128999244Y-73225000D03*
X129499370Y-73225000D03*
X129999496Y-73225000D03*
X130499622Y-73225000D03*
X130999748Y-73225000D03*
X131499874Y-73225000D03*
X132000000Y-73225000D03*
X132500126Y-73225000D03*
D24*
X133175385Y-72549741D03*
X133175385Y-72049615D03*
X133175385Y-71549489D03*
X133175385Y-71049363D03*
X133175385Y-70549237D03*
X133175385Y-70049111D03*
X133175385Y-69548985D03*
X133175385Y-69048859D03*
D25*
X132500126Y-68373600D03*
X132000000Y-68373600D03*
X131499874Y-68373600D03*
X130999748Y-68373600D03*
X130499622Y-68373600D03*
X129999496Y-68373600D03*
X129499370Y-68373600D03*
X128999244Y-68373600D03*
D26*
X130749685Y-70799300D03*
%TD*%
D27*
%TO.C,R2*%
X109000000Y-66500000D03*
X107350000Y-66500000D03*
%TD*%
D15*
%TO.C,C11*%
X131000000Y-91450000D03*
X131000000Y-93000000D03*
%TD*%
D14*
%TO.C,R9*%
X135887500Y-65500000D03*
X137537500Y-65500000D03*
%TD*%
D28*
%TO.C,R12*%
X114500000Y-91500000D03*
X114500000Y-89850000D03*
%TD*%
%TO.C,R1*%
X135500000Y-88825000D03*
X135500000Y-87175000D03*
%TD*%
D15*
%TO.C,C6*%
X123000000Y-81450000D03*
X123000000Y-83000000D03*
%TD*%
D28*
%TO.C,R11*%
X112500000Y-91500000D03*
X112500000Y-89850000D03*
%TD*%
D27*
%TO.C,R7*%
X137500000Y-59500000D03*
X135850000Y-59500000D03*
%TD*%
D11*
%TO.C,R6*%
X108500000Y-89850000D03*
X108500000Y-91500000D03*
%TD*%
D21*
%TO.C,C3*%
X124500000Y-87500000D03*
X122950000Y-87500000D03*
%TD*%
D15*
%TO.C,C10*%
X134500000Y-83450000D03*
X134500000Y-85000000D03*
%TD*%
D29*
%TO.C,J5*%
X96500000Y-87000000D03*
X96500000Y-88000000D03*
X96500000Y-89000000D03*
X96500000Y-90000000D03*
%TD*%
D30*
%TO.C,D2*%
X139925000Y-62500000D03*
X141500000Y-62500000D03*
%TD*%
D31*
%TO.C,U4*%
X138950001Y-89450000D03*
X137049999Y-89450000D03*
X138000000Y-91550000D03*
%TD*%
D28*
%TO.C,R5*%
X110500000Y-91500000D03*
X110500000Y-89850000D03*
%TD*%
D32*
%TO.C,SW1*%
X99650500Y-74225000D03*
X104349500Y-74225000D03*
%TD*%
D21*
%TO.C,C5*%
X113775000Y-87000000D03*
X112225000Y-87000000D03*
%TD*%
%TO.C,C12*%
X108550000Y-80500000D03*
X107000000Y-80500000D03*
%TD*%
D33*
%TO.C,C2*%
X110225000Y-75225000D03*
X111775000Y-75225000D03*
%TD*%
D32*
%TO.C,SW2*%
X99650500Y-68725000D03*
X104349500Y-68725000D03*
%TD*%
D21*
%TO.C,C8*%
X112275000Y-71725000D03*
X110725000Y-71725000D03*
%TD*%
D34*
%TO.C,U3*%
X100426400Y-83190000D03*
X100426400Y-84460000D03*
X100426400Y-85730000D03*
X100426400Y-87000000D03*
X108275000Y-87000000D03*
X108275000Y-85730000D03*
X108275000Y-84460000D03*
X108275000Y-83190000D03*
D35*
X104350700Y-85095000D03*
%TD*%
D28*
%TO.C,R3*%
X125000000Y-91500000D03*
X125000000Y-89850000D03*
%TD*%
D30*
%TO.C,D3*%
X139925000Y-65500000D03*
X141500000Y-65500000D03*
%TD*%
%TO.C,D1*%
X139925000Y-59500000D03*
X141500000Y-59500000D03*
%TD*%
D33*
%TO.C,C1*%
X138225000Y-87000000D03*
X139775000Y-87000000D03*
%TD*%
D36*
%TO.C,D5*%
X139625000Y-70725000D03*
D37*
X142000000Y-70725000D03*
%TD*%
M02*
