M48
; DRILL file {KiCad 9.0.5} date 2026-01-02T01:02:14-0500
; FORMAT={-:-/ absolute / metric / decimal}
; #@! TF.CreationDate,2026-01-02T01:02:14-05:00
; #@! TF.GenerationSoftware,Kicad,Pcbnew,9.0.5
; #@! TF.FileFunction,Plated,1,4,PTH
FMAT,2
METRIC
; #@! TA.AperFunction,Plated,PTH,ViaDrill
T1C0.300
; #@! TA.AperFunction,Plated,PTH,ComponentDrill
T2C0.600
; #@! TA.AperFunction,Plated,PTH,ComponentDrill
T3C1.000
; #@! TA.AperFunction,Plated,PTH,ComponentDrill
T4C2.200
%
G90
G05
T1
X97.4Y-68.7
X98.5Y-87.0
X98.8Y-83.2
X99.5Y-88.0
X99.5Y-89.0
X101.5Y-84.4
X101.5Y-85.7
X105.7Y-80.5
X107.1Y-87.2
X107.3Y-88.3
X108.6Y-77.2
X109.8Y-83.1
X110.0Y-80.5
X110.2Y-68.0
X112.6Y-67.4
X112.6Y-73.9
X112.601Y-70.199
X113.1Y-74.525
X113.1Y-77.7
X113.212Y-73.312
X114.564Y-88.464
X115.037Y-81.537
X116.0Y-74.8
X116.1Y-77.35
X116.22Y-75.569
X116.25Y-81.55
X116.524Y-78.525
X117.0Y-72.9
X117.4Y-76.099
X117.421Y-74.5
X117.572Y-66.428
X117.624Y-81.024
X117.7Y-77.3
X117.81Y-72.862
X119.5Y-78.3
X119.6Y-61.8
X120.0Y-72.6
X120.0Y-81.275
X120.208Y-69.913
X120.6Y-78.3
X120.792Y-81.388
X121.0Y-69.8
X121.0Y-88.7
X121.3Y-73.9
X122.8Y-69.2
X123.4Y-71.9
X123.987Y-79.038
X124.226Y-81.874
X124.525Y-77.825
X124.625Y-76.624
X125.174Y-77.357
X126.578Y-88.095
X126.924Y-73.724
X127.237Y-87.642
X127.6Y-73.124
X127.882Y-87.17
X128.1Y-68.4
X128.525Y-87.975
X129.175Y-87.425
X129.625Y-90.725
X129.825Y-87.9
X129.999Y-67.66
X131.8Y-81.6
X132.0Y-67.3
X134.3Y-72.6
X134.4Y-70.9
X134.5Y-82.0
X134.5Y-91.4
X135.4Y-77.4
X136.0Y-74.6
X136.0Y-76.0
X136.0Y-80.8
X136.0Y-82.0
X138.5Y-78.7
X138.52Y-77.5
X139.2Y-76.7
X139.2Y-79.7
X140.5Y-89.5
X141.5Y-66.9
T3
X96.5Y-83.5
X96.7Y-61.9
X97.0Y-57.0
X100.3Y-61.9
X100.5Y-92.0
X101.0Y-56.0
X102.0Y-96.0
X103.9Y-61.9
X104.6Y-51.4
X104.7Y-56.0
X106.69Y-97.0
X107.5Y-61.9
X108.2Y-51.4
X108.3Y-56.0
X109.23Y-97.0
X111.77Y-97.0
X111.8Y-51.4
X111.9Y-56.0
X114.31Y-97.0
X115.5Y-51.4
X115.5Y-56.0
X118.04Y-51.4
X120.42Y-97.0
X120.58Y-51.4
X122.96Y-97.0
X123.12Y-51.4
X125.5Y-97.0
X125.66Y-51.4
X128.04Y-97.0
X128.2Y-51.4
X130.74Y-51.4
X133.28Y-51.4
X136.0Y-56.5
X137.0Y-52.0
X137.0Y-96.0
X141.5Y-56.5
X141.5Y-91.5
T4
X97.5Y-52.0
X97.5Y-96.0
X141.5Y-52.0
X141.5Y-96.0
T2
G00X137.27Y-74.085
M15
G01X138.37Y-74.085
M16
G05
G00X137.27Y-82.725
M15
G01X138.37Y-82.725
M16
G05
G00X141.6Y-74.085
M15
G01X142.4Y-74.085
M16
G05
G00X141.6Y-82.725
M15
G01X142.4Y-82.725
M16
G05
M30
