%TF.GenerationSoftware,KiCad,Pcbnew,9.0.2*%
%TF.CreationDate,2025-07-02T09:28:49-04:00*%
%TF.ProjectId,strain-gauge,73747261-696e-42d6-9761-7567652e6b69,rev?*%
%TF.SameCoordinates,Original*%
%TF.FileFunction,Legend,Top*%
%TF.FilePolarity,Positive*%
%FSLAX46Y46*%
G04 Gerber Fmt 4.6, Leading zero omitted, Abs format (unit mm)*
G04 Created by KiCad (PCBNEW 9.0.2) date 2025-07-02 09:28:49*
%MOMM*%
%LPD*%
G01*
G04 APERTURE LIST*
%ADD10C,0.120000*%
%ADD11C,0.152400*%
%ADD12C,0.000000*%
G04 APERTURE END LIST*
D10*
%TO.C,U5*%
X92000000Y-129140000D02*
X90500000Y-129140000D01*
X92000000Y-129140000D02*
X93500000Y-129140000D01*
X92000000Y-132360000D02*
X90500000Y-132360000D01*
X92000000Y-132360000D02*
X93500000Y-132360000D01*
X89787500Y-129315000D02*
X89547500Y-128985000D01*
X90027500Y-128985000D01*
X89787500Y-129315000D01*
G36*
X89787500Y-129315000D02*
G01*
X89547500Y-128985000D01*
X90027500Y-128985000D01*
X89787500Y-129315000D01*
G37*
%TO.C,C7*%
X94609420Y-127740000D02*
X94890580Y-127740000D01*
X94609420Y-128760000D02*
X94890580Y-128760000D01*
D11*
%TO.C,U1*%
X90808976Y-138179700D02*
X94691024Y-138179700D01*
X94691024Y-132820300D02*
X90808976Y-132820300D01*
D12*
G36*
X96915600Y-137315501D02*
G01*
X96661600Y-137315501D01*
X96661600Y-136934501D01*
X96915600Y-136934501D01*
X96915600Y-137315501D01*
G37*
D10*
%TO.C,C2*%
X87490000Y-138165580D02*
X87490000Y-137884420D01*
X88510000Y-138165580D02*
X88510000Y-137884420D01*
%TO.C,C4*%
X87390580Y-133490000D02*
X87109420Y-133490000D01*
X87390580Y-134510000D02*
X87109420Y-134510000D01*
%TO.C,C6*%
X95740000Y-131109420D02*
X95740000Y-131390580D01*
X96760000Y-131109420D02*
X96760000Y-131390580D01*
%TO.C,J2*%
X97755000Y-123015000D02*
X98500000Y-123015000D01*
X97755000Y-123750000D02*
X97755000Y-123015000D01*
X97755000Y-124485000D02*
X97755000Y-132360000D01*
X97755000Y-124485000D02*
X97814435Y-124485000D01*
X97755000Y-132360000D02*
X98089970Y-132360000D01*
X98910030Y-132360000D02*
X99245000Y-132360000D01*
X99185565Y-124485000D02*
X99245000Y-124485000D01*
X99245000Y-124485000D02*
X99245000Y-132360000D01*
%TO.C,R2*%
X96762742Y-138727500D02*
X97237258Y-138727500D01*
X96762742Y-139772500D02*
X97237258Y-139772500D01*
%TO.C,U2*%
X87760435Y-126415565D02*
X88210435Y-126415565D01*
X87760435Y-128435565D02*
X88210435Y-128435565D01*
X89330435Y-126215565D02*
X89540435Y-126215565D01*
X89780435Y-128435565D02*
X89330435Y-128435565D01*
X90110435Y-126455565D02*
X89780435Y-126215565D01*
X90110435Y-125975565D01*
X90110435Y-126455565D01*
G36*
X90110435Y-126455565D02*
G01*
X89780435Y-126215565D01*
X90110435Y-125975565D01*
X90110435Y-126455565D01*
G37*
%TO.C,U4*%
X98400000Y-119340000D02*
X97000000Y-119340000D01*
X98410000Y-121660000D02*
X97000000Y-121660000D01*
X99020000Y-121940000D02*
X98540000Y-121940000D01*
X98780000Y-121610000D01*
X99020000Y-121940000D01*
G36*
X99020000Y-121940000D02*
G01*
X98540000Y-121940000D01*
X98780000Y-121610000D01*
X99020000Y-121940000D01*
G37*
%TO.C,C3*%
X87390580Y-135040000D02*
X87109420Y-135040000D01*
X87390580Y-136060000D02*
X87109420Y-136060000D01*
%TO.C,C5*%
X90640580Y-138740000D02*
X90359420Y-138740000D01*
X90640580Y-139760000D02*
X90359420Y-139760000D01*
D11*
%TO.C,U3*%
X86754200Y-116879100D02*
X86754200Y-121120900D01*
X95745800Y-121120900D02*
X95745800Y-116879100D01*
D12*
G36*
X92710500Y-115291600D02*
G01*
X92329500Y-115291600D01*
X92329500Y-115037600D01*
X92710500Y-115037600D01*
X92710500Y-115291600D01*
G37*
D10*
%TO.C,R1*%
X87340000Y-130687742D02*
X87340000Y-131162258D01*
X88385000Y-130687742D02*
X88385000Y-131162258D01*
%TO.C,J1*%
X84880000Y-131015000D02*
X84880000Y-123140000D01*
X84939435Y-131015000D02*
X84880000Y-131015000D01*
X85214970Y-123140000D02*
X84880000Y-123140000D01*
X86370000Y-123140000D02*
X86035030Y-123140000D01*
X86370000Y-131015000D02*
X86310565Y-131015000D01*
X86370000Y-131015000D02*
X86370000Y-123140000D01*
X86370000Y-131750000D02*
X86370000Y-132485000D01*
X86370000Y-132485000D02*
X85625000Y-132485000D01*
%TO.C,C8*%
X94488748Y-125515000D02*
X95011252Y-125515000D01*
X94488748Y-126985000D02*
X95011252Y-126985000D01*
%TO.C,C1*%
X85265000Y-138286252D02*
X85265000Y-137763748D01*
X86735000Y-138286252D02*
X86735000Y-137763748D01*
%TD*%
M02*
