%TF.GenerationSoftware,KiCad,Pcbnew,9.0.2*%
%TF.CreationDate,2025-07-02T09:28:49-04:00*%
%TF.ProjectId,strain-gauge,73747261-696e-42d6-9761-7567652e6b69,rev?*%
%TF.SameCoordinates,Original*%
%TF.FileFunction,Copper,L2,Bot*%
%TF.FilePolarity,Positive*%
%FSLAX46Y46*%
G04 Gerber Fmt 4.6, Leading zero omitted, Abs format (unit mm)*
G04 Created by KiCad (PCBNEW 9.0.2) date 2025-07-02 09:28:49*
%MOMM*%
%LPD*%
G01*
G04 APERTURE LIST*
%TA.AperFunction,ComponentPad*%
%ADD10R,0.850000X0.850000*%
%TD*%
%TA.AperFunction,ComponentPad*%
%ADD11C,0.850000*%
%TD*%
%TA.AperFunction,ViaPad*%
%ADD12C,0.600000*%
%TD*%
%TA.AperFunction,Conductor*%
%ADD13C,0.200000*%
%TD*%
G04 APERTURE END LIST*
D10*
%TO.P,J2,1,Pin_1*%
%TO.N,GND*%
X98500000Y-123750000D03*
D11*
%TO.P,J2,2,Pin_2*%
%TO.N,+5V*%
X98500000Y-124750000D03*
%TO.P,J2,3,Pin_3*%
%TO.N,/ADC/RVS*%
X98500000Y-125750000D03*
%TO.P,J2,4,Pin_4*%
%TO.N,/ADC/SDO-1*%
X98500000Y-126750000D03*
%TO.P,J2,5,Pin_5*%
%TO.N,/ADC/SDO-0*%
X98500000Y-127750000D03*
%TO.P,J2,6,Pin_6*%
%TO.N,/ADC/SCLK*%
X98500000Y-128750000D03*
%TO.P,J2,7,Pin_7*%
%TO.N,/ADC/~{CS}*%
X98500000Y-129750000D03*
%TO.P,J2,8,Pin_8*%
%TO.N,/ADC/SDI*%
X98500000Y-130750000D03*
%TO.P,J2,9,Pin_9*%
%TO.N,/ADC/~{RST}*%
X98500000Y-131750000D03*
%TD*%
D10*
%TO.P,J1,1,Pin_1*%
%TO.N,GND*%
X85625000Y-131750000D03*
D11*
%TO.P,J1,2,Pin_2*%
%TO.N,/Multiplexer/A_IN_N1*%
X85625000Y-130750000D03*
%TO.P,J1,3,Pin_3*%
%TO.N,/Multiplexer/A_IN_P1*%
X85625000Y-129750000D03*
%TO.P,J1,4,Pin_4*%
%TO.N,/Multiplexer/A_IN_N3*%
X85625000Y-128750000D03*
%TO.P,J1,5,Pin_5*%
%TO.N,/Multiplexer/A_IN_P3*%
X85625000Y-127750000D03*
%TO.P,J1,6,Pin_6*%
%TO.N,/Multiplexer/A_IN_N2*%
X85625000Y-126750000D03*
%TO.P,J1,7,Pin_7*%
%TO.N,/Multiplexer/A_IN_P2*%
X85625000Y-125750000D03*
%TO.P,J1,8,Pin_8*%
%TO.N,+3.3V*%
X85625000Y-124750000D03*
%TO.P,J1,9,Pin_9*%
%TO.N,GND*%
X85625000Y-123750000D03*
%TD*%
D12*
%TO.N,GND*%
X98750000Y-115250000D03*
X85050000Y-139000000D03*
X85250000Y-135500000D03*
X88750000Y-139250000D03*
X85250000Y-134000000D03*
X94000000Y-118750000D03*
X89750000Y-128750000D03*
X91000000Y-134500000D03*
X96750000Y-126250000D03*
X98250000Y-122250000D03*
X96750000Y-127750000D03*
X94500000Y-123750000D03*
X99700000Y-119850000D03*
X97000000Y-123750000D03*
X91000000Y-136000000D03*
%TO.N,+3.3V*%
X89684091Y-125184091D03*
X94446464Y-139000000D03*
X91500000Y-127000000D03*
X92500000Y-115000000D03*
X99000000Y-139250000D03*
%TO.N,/ADC/SDI*%
X98750000Y-137000000D03*
%TO.N,/ADC/~{CS}*%
X98150000Y-136250000D03*
X89980000Y-123000000D03*
%TO.N,/ADC/~{RST}*%
X99200000Y-137750000D03*
%TO.N,/ADC/SDO-0*%
X96900000Y-135184313D03*
%TO.N,/ADC/SCLK*%
X97500000Y-135750000D03*
%TO.N,/Counter/SEL1*%
X99550000Y-121150000D03*
X89344999Y-123500000D03*
X93790000Y-115000000D03*
%TO.N,Net-(U3-1D)*%
X93750000Y-124500000D03*
X88250000Y-124474000D03*
%TD*%
D13*
%TO.N,GND*%
X85500000Y-131750000D02*
X85625000Y-131750000D01*
X84899000Y-123874960D02*
X84899000Y-131149000D01*
X84899000Y-131149000D02*
X85500000Y-131750000D01*
X85625000Y-123750000D02*
X85023960Y-123750000D01*
X85023960Y-123750000D02*
X84899000Y-123874960D01*
%TO.N,+3.3V*%
X91500000Y-134053536D02*
X91500000Y-127000000D01*
X94446464Y-137000000D02*
X91500000Y-134053536D01*
X94696464Y-139250000D02*
X99000000Y-139250000D01*
X94446464Y-139000000D02*
X94696464Y-139250000D01*
X91500000Y-127000000D02*
X89524000Y-125024000D01*
X92500000Y-115000000D02*
X86500000Y-121000000D01*
X89524000Y-125024000D02*
X85899000Y-125024000D01*
X86500000Y-121000000D02*
X86500000Y-123875000D01*
X94446464Y-139000000D02*
X94446464Y-137000000D01*
X85899000Y-125024000D02*
X85625000Y-124750000D01*
X86500000Y-123875000D02*
X85625000Y-124750000D01*
%TO.N,/ADC/SDI*%
X98750000Y-133250000D02*
X97774000Y-132274000D01*
X97774000Y-131449280D02*
X98473280Y-130750000D01*
X97774000Y-132274000D02*
X97774000Y-131449280D01*
X98473280Y-130750000D02*
X98500000Y-130750000D01*
X98750000Y-137000000D02*
X98750000Y-133250000D01*
%TO.N,/ADC/~{CS}*%
X97898960Y-129750000D02*
X98500000Y-129750000D01*
X97373000Y-132440100D02*
X97373000Y-130275960D01*
X99176000Y-129074000D02*
X98500000Y-129750000D01*
X99000000Y-123000000D02*
X99176000Y-123176000D01*
X98150000Y-133217100D02*
X97373000Y-132440100D01*
X98150000Y-136250000D02*
X98150000Y-133217100D01*
X99176000Y-123176000D02*
X99176000Y-129074000D01*
X97373000Y-130275960D02*
X97898960Y-129750000D01*
X89980000Y-123000000D02*
X99000000Y-123000000D01*
%TO.N,/ADC/~{RST}*%
X99200000Y-137750000D02*
X99399000Y-137551000D01*
X99399000Y-137551000D02*
X99399000Y-132649000D01*
X99399000Y-132649000D02*
X98500000Y-131750000D01*
%TO.N,/ADC/SDO-0*%
X97898960Y-127750000D02*
X98500000Y-127750000D01*
X96571000Y-129077960D02*
X97898960Y-127750000D01*
X96571000Y-134855313D02*
X96571000Y-129077960D01*
X96900000Y-135184313D02*
X96571000Y-134855313D01*
%TO.N,/ADC/SCLK*%
X97500000Y-135750000D02*
X97500000Y-133250000D01*
X96972000Y-130028000D02*
X98250000Y-128750000D01*
X96972000Y-132722000D02*
X96972000Y-130028000D01*
X98250000Y-128750000D02*
X98500000Y-128750000D01*
X97500000Y-133250000D02*
X96972000Y-132722000D01*
%TO.N,/Counter/SEL1*%
X93790000Y-115000000D02*
X99550000Y-120760000D01*
X99550000Y-120760000D02*
X99550000Y-121150000D01*
X89344999Y-119445001D02*
X89344999Y-123500000D01*
X93790000Y-115000000D02*
X89344999Y-119445001D01*
%TO.N,Net-(U3-1D)*%
X93724000Y-124474000D02*
X93750000Y-124500000D01*
X88250000Y-124474000D02*
X93724000Y-124474000D01*
%TD*%
%TA.AperFunction,Conductor*%
%TO.N,GND*%
G36*
X89182676Y-125344185D02*
G01*
X89223023Y-125386499D01*
X89283591Y-125491405D01*
X89376777Y-125584591D01*
X89490905Y-125650483D01*
X89618199Y-125684591D01*
X89618201Y-125684591D01*
X89708258Y-125684591D01*
X89775297Y-125704276D01*
X89795939Y-125720910D01*
X90963181Y-126888152D01*
X90996666Y-126949475D01*
X90999500Y-126975833D01*
X90999500Y-127065891D01*
X91033608Y-127193187D01*
X91058245Y-127235858D01*
X91099500Y-127307314D01*
X91099502Y-127307316D01*
X91163181Y-127370995D01*
X91196666Y-127432318D01*
X91199500Y-127458676D01*
X91199500Y-134093098D01*
X91213152Y-134144049D01*
X91219979Y-134169526D01*
X91219982Y-134169531D01*
X91259535Y-134238040D01*
X91259541Y-134238048D01*
X94109645Y-137088152D01*
X94143130Y-137149475D01*
X94145964Y-137175833D01*
X94145964Y-138541323D01*
X94126279Y-138608362D01*
X94109646Y-138629004D01*
X94045964Y-138692686D01*
X93980072Y-138806812D01*
X93945964Y-138934108D01*
X93945964Y-139065891D01*
X93980072Y-139193187D01*
X94013018Y-139250250D01*
X94045964Y-139307314D01*
X94139150Y-139400500D01*
X94253278Y-139466392D01*
X94380572Y-139500500D01*
X94380574Y-139500500D01*
X94496117Y-139500500D01*
X94511606Y-139504650D01*
X94525353Y-139503996D01*
X94558118Y-139517114D01*
X94559850Y-139518114D01*
X94608065Y-139568681D01*
X94621287Y-139637289D01*
X94595319Y-139702153D01*
X94538404Y-139742681D01*
X94497849Y-139749500D01*
X84874500Y-139749500D01*
X84807461Y-139729815D01*
X84761706Y-139677011D01*
X84750500Y-139625500D01*
X84750500Y-132710807D01*
X84770185Y-132643768D01*
X84822989Y-132598013D01*
X84892147Y-132588069D01*
X84948814Y-132611542D01*
X84957913Y-132618354D01*
X85092620Y-132668596D01*
X85092627Y-132668598D01*
X85152155Y-132674999D01*
X85152172Y-132675000D01*
X85375000Y-132675000D01*
X85875000Y-132675000D01*
X86097828Y-132675000D01*
X86097844Y-132674999D01*
X86157372Y-132668598D01*
X86157379Y-132668596D01*
X86292086Y-132618354D01*
X86292093Y-132618350D01*
X86407187Y-132532190D01*
X86407190Y-132532187D01*
X86493350Y-132417093D01*
X86493354Y-132417086D01*
X86543596Y-132282379D01*
X86543598Y-132282372D01*
X86549999Y-132222844D01*
X86550000Y-132222827D01*
X86550000Y-132000000D01*
X85875000Y-132000000D01*
X85875000Y-132675000D01*
X85375000Y-132675000D01*
X85375000Y-131874000D01*
X85387761Y-131830538D01*
X85413060Y-131891614D01*
X85483386Y-131961940D01*
X85575272Y-132000000D01*
X85674728Y-132000000D01*
X85766614Y-131961940D01*
X85836940Y-131891614D01*
X85875000Y-131799728D01*
X85875000Y-131700272D01*
X85836940Y-131608386D01*
X85766614Y-131538060D01*
X85700303Y-131510593D01*
X85749000Y-131500000D01*
X86550000Y-131500000D01*
X86550000Y-131277172D01*
X86549999Y-131277155D01*
X86543598Y-131217627D01*
X86543596Y-131217620D01*
X86493354Y-131082913D01*
X86493350Y-131082906D01*
X86407190Y-130967812D01*
X86300188Y-130887709D01*
X86258318Y-130831775D01*
X86250500Y-130788443D01*
X86250500Y-130688393D01*
X86250499Y-130688389D01*
X86226464Y-130567555D01*
X86226463Y-130567548D01*
X86179311Y-130453714D01*
X86179310Y-130453713D01*
X86179307Y-130453707D01*
X86110858Y-130351267D01*
X86110855Y-130351263D01*
X86097273Y-130337681D01*
X86063788Y-130276358D01*
X86068772Y-130206666D01*
X86097273Y-130162319D01*
X86110855Y-130148736D01*
X86110858Y-130148733D01*
X86179311Y-130046286D01*
X86226463Y-129932452D01*
X86250500Y-129811606D01*
X86250500Y-129688394D01*
X86226463Y-129567548D01*
X86179311Y-129453714D01*
X86179310Y-129453713D01*
X86179307Y-129453707D01*
X86110858Y-129351267D01*
X86110855Y-129351263D01*
X86097273Y-129337681D01*
X86063788Y-129276358D01*
X86068772Y-129206666D01*
X86097273Y-129162319D01*
X86110855Y-129148736D01*
X86110858Y-129148733D01*
X86179311Y-129046286D01*
X86226463Y-128932452D01*
X86250500Y-128811606D01*
X86250500Y-128688394D01*
X86226463Y-128567548D01*
X86179311Y-128453714D01*
X86179310Y-128453713D01*
X86179307Y-128453707D01*
X86110858Y-128351267D01*
X86110855Y-128351263D01*
X86097273Y-128337681D01*
X86063788Y-128276358D01*
X86068772Y-128206666D01*
X86097273Y-128162319D01*
X86110855Y-128148736D01*
X86110858Y-128148733D01*
X86179311Y-128046286D01*
X86226463Y-127932452D01*
X86250500Y-127811606D01*
X86250500Y-127688394D01*
X86226463Y-127567548D01*
X86179311Y-127453714D01*
X86179310Y-127453713D01*
X86179307Y-127453707D01*
X86110858Y-127351267D01*
X86110855Y-127351263D01*
X86097273Y-127337681D01*
X86063788Y-127276358D01*
X86068772Y-127206666D01*
X86097273Y-127162319D01*
X86110855Y-127148736D01*
X86110858Y-127148733D01*
X86179311Y-127046286D01*
X86226463Y-126932452D01*
X86250500Y-126811606D01*
X86250500Y-126688394D01*
X86226463Y-126567548D01*
X86179311Y-126453714D01*
X86179310Y-126453713D01*
X86179307Y-126453707D01*
X86110858Y-126351267D01*
X86110855Y-126351263D01*
X86097273Y-126337681D01*
X86063788Y-126276358D01*
X86068772Y-126206666D01*
X86097273Y-126162319D01*
X86110855Y-126148736D01*
X86110858Y-126148733D01*
X86179311Y-126046286D01*
X86226463Y-125932452D01*
X86250500Y-125811606D01*
X86250500Y-125688394D01*
X86226463Y-125567548D01*
X86196806Y-125495952D01*
X86189338Y-125426484D01*
X86220613Y-125364004D01*
X86280702Y-125328352D01*
X86311368Y-125324500D01*
X89115637Y-125324500D01*
X89182676Y-125344185D01*
G37*
%TD.AperFunction*%
%TA.AperFunction,Conductor*%
G36*
X93881206Y-115520185D02*
G01*
X93901848Y-115536819D01*
X99103527Y-120738498D01*
X99137012Y-120799821D01*
X99132028Y-120869513D01*
X99123234Y-120888178D01*
X99083608Y-120956812D01*
X99049500Y-121084108D01*
X99049500Y-121215891D01*
X99083608Y-121343187D01*
X99116554Y-121400250D01*
X99149500Y-121457314D01*
X99242686Y-121550500D01*
X99356814Y-121616392D01*
X99484108Y-121650500D01*
X99484110Y-121650500D01*
X99615890Y-121650500D01*
X99615892Y-121650500D01*
X99743186Y-121616392D01*
X99813500Y-121575795D01*
X99881399Y-121559323D01*
X99947426Y-121582175D01*
X99990617Y-121637096D01*
X99999500Y-121683183D01*
X99999500Y-139625500D01*
X99979815Y-139692539D01*
X99927011Y-139738294D01*
X99875500Y-139749500D01*
X99504315Y-139749500D01*
X99437276Y-139729815D01*
X99391521Y-139677011D01*
X99381577Y-139607853D01*
X99396928Y-139563499D01*
X99400497Y-139557316D01*
X99400500Y-139557314D01*
X99466392Y-139443186D01*
X99500500Y-139315892D01*
X99500500Y-139184108D01*
X99466392Y-139056814D01*
X99400500Y-138942686D01*
X99307314Y-138849500D01*
X99233380Y-138806814D01*
X99193187Y-138783608D01*
X99129539Y-138766554D01*
X99065892Y-138749500D01*
X98934108Y-138749500D01*
X98806812Y-138783608D01*
X98692686Y-138849500D01*
X98692683Y-138849502D01*
X98629005Y-138913181D01*
X98567682Y-138946666D01*
X98541324Y-138949500D01*
X95046237Y-138949500D01*
X94979198Y-138929815D01*
X94933443Y-138877011D01*
X94926462Y-138857594D01*
X94924294Y-138849502D01*
X94912856Y-138806814D01*
X94846964Y-138692686D01*
X94783282Y-138629004D01*
X94749798Y-138567680D01*
X94746964Y-138541323D01*
X94746964Y-136960439D01*
X94746964Y-136960438D01*
X94726485Y-136884011D01*
X94726481Y-136884004D01*
X94686928Y-136815495D01*
X94686922Y-136815487D01*
X91836819Y-133965384D01*
X91803334Y-133904061D01*
X91800500Y-133877703D01*
X91800500Y-127458676D01*
X91820185Y-127391637D01*
X91836819Y-127370995D01*
X91856551Y-127351263D01*
X91900500Y-127307314D01*
X91966392Y-127193186D01*
X92000500Y-127065892D01*
X92000500Y-126934108D01*
X91966392Y-126806814D01*
X91900500Y-126692686D01*
X91807314Y-126599500D01*
X91750250Y-126566554D01*
X91693187Y-126533608D01*
X91629539Y-126516554D01*
X91565892Y-126499500D01*
X91475833Y-126499500D01*
X91408794Y-126479815D01*
X91388152Y-126463181D01*
X90220910Y-125295939D01*
X90187425Y-125234616D01*
X90184591Y-125208258D01*
X90184591Y-125118201D01*
X90184591Y-125118199D01*
X90150483Y-124990905D01*
X90132928Y-124960500D01*
X90116456Y-124892601D01*
X90139308Y-124826573D01*
X90194229Y-124783383D01*
X90240316Y-124774500D01*
X93265324Y-124774500D01*
X93332363Y-124794185D01*
X93353005Y-124810819D01*
X93442686Y-124900500D01*
X93541521Y-124957563D01*
X93546610Y-124960501D01*
X93556814Y-124966392D01*
X93684108Y-125000500D01*
X93684110Y-125000500D01*
X93815890Y-125000500D01*
X93815892Y-125000500D01*
X93943186Y-124966392D01*
X94057314Y-124900500D01*
X94150500Y-124807314D01*
X94216392Y-124693186D01*
X94250500Y-124565892D01*
X94250500Y-124434108D01*
X94216392Y-124306814D01*
X94150500Y-124192686D01*
X94057314Y-124099500D01*
X93988048Y-124059509D01*
X93943187Y-124033608D01*
X93846155Y-124007609D01*
X93815892Y-123999500D01*
X93684108Y-123999500D01*
X93556812Y-124033608D01*
X93442686Y-124099500D01*
X93442683Y-124099502D01*
X93405005Y-124137181D01*
X93343682Y-124170666D01*
X93317324Y-124173500D01*
X89642238Y-124173500D01*
X89575199Y-124153815D01*
X89529444Y-124101011D01*
X89519500Y-124031853D01*
X89548525Y-123968297D01*
X89580237Y-123942113D01*
X89652313Y-123900500D01*
X89745499Y-123807314D01*
X89811391Y-123693186D01*
X89838394Y-123592405D01*
X89874759Y-123532746D01*
X89937606Y-123502217D01*
X89958169Y-123500500D01*
X90045890Y-123500500D01*
X90045892Y-123500500D01*
X90173186Y-123466392D01*
X90287314Y-123400500D01*
X90350995Y-123336819D01*
X90412318Y-123303334D01*
X90438676Y-123300500D01*
X97451000Y-123300500D01*
X97518039Y-123320185D01*
X97563794Y-123372989D01*
X97575000Y-123424500D01*
X97575000Y-123500000D01*
X98250000Y-123500000D01*
X98250000Y-123424500D01*
X98269685Y-123357461D01*
X98322489Y-123311706D01*
X98374000Y-123300500D01*
X98626000Y-123300500D01*
X98693039Y-123320185D01*
X98730959Y-123358473D01*
X98856459Y-123557973D01*
X98858761Y-123566103D01*
X98864294Y-123572489D01*
X98875500Y-123624000D01*
X98875500Y-123876000D01*
X98855815Y-123943039D01*
X98803011Y-123988794D01*
X98751500Y-124000000D01*
X98549728Y-124000000D01*
X98641614Y-123961940D01*
X98711940Y-123891614D01*
X98750000Y-123799728D01*
X98750000Y-123700272D01*
X98711940Y-123608386D01*
X98641614Y-123538060D01*
X98549728Y-123500000D01*
X98450272Y-123500000D01*
X98358386Y-123538060D01*
X98288060Y-123608386D01*
X98250000Y-123700272D01*
X98250000Y-123799728D01*
X98288060Y-123891614D01*
X98358386Y-123961940D01*
X98450272Y-124000000D01*
X97575000Y-124000000D01*
X97575000Y-124222844D01*
X97581401Y-124282372D01*
X97581403Y-124282379D01*
X97631645Y-124417086D01*
X97631649Y-124417093D01*
X97717809Y-124532187D01*
X97717812Y-124532190D01*
X97824811Y-124612290D01*
X97866682Y-124668223D01*
X97874500Y-124711556D01*
X97874500Y-124811610D01*
X97898535Y-124932444D01*
X97898538Y-124932454D01*
X97945687Y-125046283D01*
X97945692Y-125046292D01*
X98014141Y-125148732D01*
X98014144Y-125148736D01*
X98027727Y-125162319D01*
X98061212Y-125223642D01*
X98056228Y-125293334D01*
X98027727Y-125337681D01*
X98014144Y-125351263D01*
X98014141Y-125351267D01*
X97945692Y-125453707D01*
X97945687Y-125453716D01*
X97898538Y-125567545D01*
X97898535Y-125567555D01*
X97874500Y-125688389D01*
X97874500Y-125811610D01*
X97898535Y-125932444D01*
X97898538Y-125932454D01*
X97945687Y-126046283D01*
X97945692Y-126046292D01*
X98014141Y-126148732D01*
X98014144Y-126148736D01*
X98027727Y-126162319D01*
X98061212Y-126223642D01*
X98056228Y-126293334D01*
X98027727Y-126337681D01*
X98014144Y-126351263D01*
X98014141Y-126351267D01*
X97945692Y-126453707D01*
X97945687Y-126453716D01*
X97898538Y-126567545D01*
X97898535Y-126567555D01*
X97874500Y-126688389D01*
X97874500Y-126811610D01*
X97898535Y-126932444D01*
X97898538Y-126932454D01*
X97945687Y-127046283D01*
X97945692Y-127046292D01*
X98014141Y-127148732D01*
X98014144Y-127148736D01*
X98027727Y-127162319D01*
X98028065Y-127162939D01*
X98028683Y-127163285D01*
X98044793Y-127193573D01*
X98061212Y-127223642D01*
X98061161Y-127224347D01*
X98061494Y-127224972D01*
X98058672Y-127259154D01*
X98056228Y-127293334D01*
X98055784Y-127294135D01*
X98055746Y-127294605D01*
X98054266Y-127296879D01*
X98038492Y-127325394D01*
X98033510Y-127331898D01*
X98014142Y-127351267D01*
X97983112Y-127397705D01*
X97980671Y-127400894D01*
X97955579Y-127419251D01*
X97931715Y-127439196D01*
X97926968Y-127440184D01*
X97924282Y-127442150D01*
X97914759Y-127442726D01*
X97882225Y-127449500D01*
X97859398Y-127449500D01*
X97791999Y-127467559D01*
X97782967Y-127469980D01*
X97730108Y-127500499D01*
X97714452Y-127509537D01*
X97714447Y-127509541D01*
X96330541Y-128893447D01*
X96330535Y-128893455D01*
X96290982Y-128961964D01*
X96290979Y-128961969D01*
X96277326Y-129012922D01*
X96270500Y-129038398D01*
X96270500Y-134894875D01*
X96284152Y-134945826D01*
X96290979Y-134971303D01*
X96290980Y-134971304D01*
X96324710Y-135029726D01*
X96330540Y-135039824D01*
X96366724Y-135076008D01*
X96369967Y-135079822D01*
X96382226Y-135107344D01*
X96396666Y-135133788D01*
X96397512Y-135141660D01*
X96398397Y-135143646D01*
X96398002Y-135146218D01*
X96399500Y-135160146D01*
X96399500Y-135250204D01*
X96433608Y-135377500D01*
X96466554Y-135434563D01*
X96499500Y-135491627D01*
X96592686Y-135584813D01*
X96706814Y-135650705D01*
X96834108Y-135684813D01*
X96834110Y-135684813D01*
X96875500Y-135684813D01*
X96942539Y-135704498D01*
X96988294Y-135757302D01*
X96999500Y-135808813D01*
X96999500Y-135815891D01*
X97033608Y-135943187D01*
X97066554Y-136000250D01*
X97099500Y-136057314D01*
X97192686Y-136150500D01*
X97306814Y-136216392D01*
X97434108Y-136250500D01*
X97434110Y-136250500D01*
X97536830Y-136250500D01*
X97603869Y-136270185D01*
X97649624Y-136322989D01*
X97656605Y-136342407D01*
X97683608Y-136443187D01*
X97716554Y-136500250D01*
X97749500Y-136557314D01*
X97842686Y-136650500D01*
X97956814Y-136716392D01*
X98084108Y-136750500D01*
X98084110Y-136750500D01*
X98137098Y-136750500D01*
X98204137Y-136770185D01*
X98249892Y-136822989D01*
X98259836Y-136892147D01*
X98256874Y-136906585D01*
X98249500Y-136934108D01*
X98249500Y-137065892D01*
X98265196Y-137124471D01*
X98283608Y-137193187D01*
X98316554Y-137250250D01*
X98349500Y-137307314D01*
X98442686Y-137400500D01*
X98556814Y-137466392D01*
X98624597Y-137484554D01*
X98684255Y-137520918D01*
X98714785Y-137583764D01*
X98712277Y-137636419D01*
X98699500Y-137684103D01*
X98699500Y-137815891D01*
X98733608Y-137943187D01*
X98766554Y-138000250D01*
X98799500Y-138057314D01*
X98892686Y-138150500D01*
X99006814Y-138216392D01*
X99134108Y-138250500D01*
X99134110Y-138250500D01*
X99265890Y-138250500D01*
X99265892Y-138250500D01*
X99393186Y-138216392D01*
X99507314Y-138150500D01*
X99600500Y-138057314D01*
X99666392Y-137943186D01*
X99700500Y-137815892D01*
X99700500Y-137684108D01*
X99696066Y-137667560D01*
X99696066Y-137603373D01*
X99699500Y-137590562D01*
X99699500Y-132609438D01*
X99679021Y-132533011D01*
X99678545Y-132532187D01*
X99639464Y-132464495D01*
X99639458Y-132464487D01*
X99149317Y-131974346D01*
X99115832Y-131913023D01*
X99115381Y-131862476D01*
X99125500Y-131811606D01*
X99125500Y-131688394D01*
X99101463Y-131567548D01*
X99054311Y-131453714D01*
X99054310Y-131453713D01*
X99054307Y-131453707D01*
X98985858Y-131351267D01*
X98985855Y-131351263D01*
X98972273Y-131337681D01*
X98938788Y-131276358D01*
X98943772Y-131206666D01*
X98972273Y-131162319D01*
X98985855Y-131148736D01*
X98985858Y-131148733D01*
X99054311Y-131046286D01*
X99101463Y-130932452D01*
X99125500Y-130811606D01*
X99125500Y-130688394D01*
X99101463Y-130567548D01*
X99054311Y-130453714D01*
X99054310Y-130453713D01*
X99054307Y-130453707D01*
X98985858Y-130351267D01*
X98985855Y-130351263D01*
X98972273Y-130337681D01*
X98938788Y-130276358D01*
X98943772Y-130206666D01*
X98972273Y-130162319D01*
X98985855Y-130148736D01*
X98985858Y-130148733D01*
X99054311Y-130046286D01*
X99101463Y-129932452D01*
X99125500Y-129811606D01*
X99125500Y-129688394D01*
X99115381Y-129637523D01*
X99121607Y-129567935D01*
X99149312Y-129525657D01*
X99416460Y-129258511D01*
X99421662Y-129249500D01*
X99456021Y-129189989D01*
X99476500Y-129113562D01*
X99476500Y-123136438D01*
X99471021Y-123115989D01*
X99456022Y-123060012D01*
X99416460Y-122991489D01*
X99184511Y-122759540D01*
X99184510Y-122759539D01*
X99184507Y-122759537D01*
X99175065Y-122754086D01*
X99175064Y-122754086D01*
X99115991Y-122719980D01*
X99115990Y-122719979D01*
X99090513Y-122713152D01*
X99039562Y-122699500D01*
X99039560Y-122699500D01*
X90438676Y-122699500D01*
X90371637Y-122679815D01*
X90350995Y-122663181D01*
X90287316Y-122599502D01*
X90287314Y-122599500D01*
X90230250Y-122566554D01*
X90173187Y-122533608D01*
X90109539Y-122516554D01*
X90045892Y-122499500D01*
X89914108Y-122499500D01*
X89801592Y-122529648D01*
X89731742Y-122527985D01*
X89673880Y-122488822D01*
X89646376Y-122424593D01*
X89645499Y-122409873D01*
X89645499Y-119620833D01*
X89665184Y-119553794D01*
X89681813Y-119533157D01*
X93678151Y-115536818D01*
X93705078Y-115522115D01*
X93730897Y-115505523D01*
X93737097Y-115504631D01*
X93739474Y-115503334D01*
X93765832Y-115500500D01*
X93814167Y-115500500D01*
X93881206Y-115520185D01*
G37*
%TD.AperFunction*%
%TA.AperFunction,Conductor*%
G36*
X99942539Y-112770185D02*
G01*
X99988294Y-112822989D01*
X99999500Y-112874500D01*
X99999500Y-120485167D01*
X99979815Y-120552206D01*
X99927011Y-120597961D01*
X99857853Y-120607905D01*
X99794297Y-120578880D01*
X99787819Y-120572848D01*
X94326819Y-115111848D01*
X94293334Y-115050525D01*
X94290500Y-115024167D01*
X94290500Y-114934110D01*
X94290500Y-114934108D01*
X94256392Y-114806814D01*
X94190500Y-114692686D01*
X94097314Y-114599500D01*
X94040250Y-114566554D01*
X93983187Y-114533608D01*
X93919539Y-114516554D01*
X93855892Y-114499500D01*
X93724108Y-114499500D01*
X93596812Y-114533608D01*
X93482686Y-114599500D01*
X93482683Y-114599502D01*
X93389502Y-114692683D01*
X93389500Y-114692686D01*
X93323608Y-114806812D01*
X93289500Y-114934108D01*
X93289500Y-115024166D01*
X93280855Y-115053606D01*
X93274332Y-115083593D01*
X93270577Y-115088608D01*
X93269815Y-115091205D01*
X93253181Y-115111847D01*
X93212181Y-115152847D01*
X93150858Y-115186332D01*
X93081166Y-115181348D01*
X93025233Y-115139476D01*
X93000816Y-115074012D01*
X93000500Y-115065166D01*
X93000500Y-114934110D01*
X93000500Y-114934108D01*
X92966392Y-114806814D01*
X92900500Y-114692686D01*
X92807314Y-114599500D01*
X92750250Y-114566554D01*
X92693187Y-114533608D01*
X92629539Y-114516554D01*
X92565892Y-114499500D01*
X92434108Y-114499500D01*
X92306812Y-114533608D01*
X92192686Y-114599500D01*
X92192683Y-114599502D01*
X92099502Y-114692683D01*
X92099500Y-114692686D01*
X92033608Y-114806812D01*
X91999500Y-114934108D01*
X91999500Y-115024166D01*
X91979815Y-115091205D01*
X91963181Y-115111847D01*
X86315489Y-120759540D01*
X86259541Y-120815487D01*
X86259535Y-120815495D01*
X86219982Y-120884004D01*
X86219979Y-120884009D01*
X86199500Y-120960439D01*
X86199500Y-122801172D01*
X86179815Y-122868211D01*
X86127011Y-122913966D01*
X86057853Y-122923910D01*
X86028048Y-122915734D01*
X85894808Y-122860546D01*
X85894805Y-122860545D01*
X85716109Y-122825000D01*
X85533890Y-122825000D01*
X85355194Y-122860545D01*
X85355186Y-122860547D01*
X85186848Y-122930274D01*
X85170050Y-122941498D01*
X85766613Y-123538059D01*
X85674728Y-123500000D01*
X85575272Y-123500000D01*
X85483386Y-123538060D01*
X85413060Y-123608386D01*
X85375000Y-123700272D01*
X85375000Y-123799728D01*
X85413060Y-123891614D01*
X85483386Y-123961940D01*
X85575272Y-124000000D01*
X85674728Y-124000000D01*
X85766614Y-123961940D01*
X85836940Y-123891614D01*
X85875000Y-123799728D01*
X85875000Y-123700272D01*
X85836940Y-123608386D01*
X86001610Y-123773056D01*
X86005948Y-123781001D01*
X86013196Y-123786427D01*
X86022430Y-123811186D01*
X86035095Y-123834379D01*
X86034449Y-123843408D01*
X86037613Y-123851891D01*
X86031996Y-123877711D01*
X86030111Y-123904071D01*
X86024292Y-123913125D01*
X86022761Y-123920164D01*
X86001611Y-123948417D01*
X85918175Y-124031853D01*
X85849346Y-124100682D01*
X85788023Y-124134166D01*
X85737475Y-124134618D01*
X85686599Y-124124498D01*
X85685647Y-124124405D01*
X85685181Y-124124216D01*
X85680632Y-124123312D01*
X85680803Y-124122448D01*
X85634021Y-124103553D01*
X85612637Y-124103553D01*
X85578544Y-124122169D01*
X85564354Y-124124405D01*
X85563392Y-124124499D01*
X85442555Y-124148535D01*
X85442545Y-124148538D01*
X85328716Y-124195687D01*
X85328707Y-124195692D01*
X85226267Y-124264141D01*
X85226263Y-124264144D01*
X85139144Y-124351263D01*
X85139141Y-124351267D01*
X85070692Y-124453707D01*
X85070687Y-124453716D01*
X85023538Y-124567545D01*
X85023535Y-124567555D01*
X84999500Y-124688389D01*
X84999500Y-124811610D01*
X85023535Y-124932444D01*
X85023538Y-124932454D01*
X85070687Y-125046283D01*
X85070692Y-125046292D01*
X85139141Y-125148732D01*
X85139144Y-125148736D01*
X85152727Y-125162319D01*
X85186212Y-125223642D01*
X85181228Y-125293334D01*
X85152727Y-125337681D01*
X85139144Y-125351263D01*
X85139141Y-125351267D01*
X85070692Y-125453707D01*
X85070687Y-125453716D01*
X85023538Y-125567545D01*
X85023535Y-125567555D01*
X84999500Y-125688389D01*
X84999500Y-125811610D01*
X85023535Y-125932444D01*
X85023538Y-125932454D01*
X85070687Y-126046283D01*
X85070692Y-126046292D01*
X85139141Y-126148732D01*
X85139144Y-126148736D01*
X85152727Y-126162319D01*
X85186212Y-126223642D01*
X85181228Y-126293334D01*
X85152727Y-126337681D01*
X85139144Y-126351263D01*
X85139141Y-126351267D01*
X85070692Y-126453707D01*
X85070687Y-126453716D01*
X85023538Y-126567545D01*
X85023535Y-126567555D01*
X84999500Y-126688389D01*
X84999500Y-126811610D01*
X85023535Y-126932444D01*
X85023538Y-126932454D01*
X85070687Y-127046283D01*
X85070692Y-127046292D01*
X85139141Y-127148732D01*
X85139144Y-127148736D01*
X85152727Y-127162319D01*
X85186212Y-127223642D01*
X85181228Y-127293334D01*
X85152727Y-127337681D01*
X85139144Y-127351263D01*
X85139141Y-127351267D01*
X85070692Y-127453707D01*
X85070687Y-127453716D01*
X85023538Y-127567545D01*
X85023535Y-127567555D01*
X84999500Y-127688389D01*
X84999500Y-127811610D01*
X85023535Y-127932444D01*
X85023538Y-127932454D01*
X85070687Y-128046283D01*
X85070692Y-128046292D01*
X85139141Y-128148732D01*
X85139144Y-128148736D01*
X85152727Y-128162319D01*
X85186212Y-128223642D01*
X85181228Y-128293334D01*
X85152727Y-128337681D01*
X85139144Y-128351263D01*
X85139141Y-128351267D01*
X85070692Y-128453707D01*
X85070687Y-128453716D01*
X85023538Y-128567545D01*
X85023535Y-128567555D01*
X84999500Y-128688389D01*
X84999500Y-128811610D01*
X85023535Y-128932444D01*
X85023538Y-128932454D01*
X85070687Y-129046283D01*
X85070692Y-129046292D01*
X85139141Y-129148732D01*
X85139144Y-129148736D01*
X85152727Y-129162319D01*
X85186212Y-129223642D01*
X85181228Y-129293334D01*
X85152727Y-129337681D01*
X85139144Y-129351263D01*
X85139141Y-129351267D01*
X85070692Y-129453707D01*
X85070687Y-129453716D01*
X85023538Y-129567545D01*
X85023535Y-129567555D01*
X84999500Y-129688389D01*
X84999500Y-129811610D01*
X85023535Y-129932444D01*
X85023538Y-129932454D01*
X85070687Y-130046283D01*
X85070692Y-130046292D01*
X85139141Y-130148732D01*
X85139144Y-130148736D01*
X85152727Y-130162319D01*
X85186212Y-130223642D01*
X85181228Y-130293334D01*
X85152727Y-130337681D01*
X85139144Y-130351263D01*
X85139141Y-130351267D01*
X85070692Y-130453707D01*
X85070687Y-130453716D01*
X85023538Y-130567545D01*
X85023535Y-130567555D01*
X84999500Y-130688389D01*
X84999500Y-130788443D01*
X84998217Y-130792810D01*
X84999186Y-130797257D01*
X84988463Y-130826028D01*
X84979815Y-130855482D01*
X84975932Y-130859653D01*
X84974787Y-130862727D01*
X84949836Y-130887691D01*
X84948836Y-130888440D01*
X84883379Y-130912874D01*
X84815102Y-130898040D01*
X84765683Y-130848647D01*
X84750500Y-130789192D01*
X84750500Y-124322308D01*
X84770185Y-124255269D01*
X84786819Y-124234627D01*
X85271446Y-123750000D01*
X85271446Y-123749999D01*
X84786819Y-123265371D01*
X84753334Y-123204048D01*
X84750500Y-123177690D01*
X84750500Y-112874500D01*
X84770185Y-112807461D01*
X84822989Y-112761706D01*
X84874500Y-112750500D01*
X99875500Y-112750500D01*
X99942539Y-112770185D01*
G37*
%TD.AperFunction*%
%TD*%
M02*
