%TF.GenerationSoftware,KiCad,Pcbnew,9.0.2*%
%TF.CreationDate,2025-07-02T09:28:49-04:00*%
%TF.ProjectId,strain-gauge,73747261-696e-42d6-9761-7567652e6b69,rev?*%
%TF.SameCoordinates,Original*%
%TF.FileFunction,Paste,Top*%
%TF.FilePolarity,Positive*%
%FSLAX46Y46*%
G04 Gerber Fmt 4.6, Leading zero omitted, Abs format (unit mm)*
G04 Created by KiCad (PCBNEW 9.0.2) date 2025-07-02 09:28:49*
%MOMM*%
%LPD*%
G01*
G04 APERTURE LIST*
G04 Aperture macros list*
%AMRoundRect*
0 Rectangle with rounded corners*
0 $1 Rounding radius*
0 $2 $3 $4 $5 $6 $7 $8 $9 X,Y pos of 4 corners*
0 Add a 4 corners polygon primitive as box body*
4,1,4,$2,$3,$4,$5,$6,$7,$8,$9,$2,$3,0*
0 Add four circle primitives for the rounded corners*
1,1,$1+$1,$2,$3*
1,1,$1+$1,$4,$5*
1,1,$1+$1,$6,$7*
1,1,$1+$1,$8,$9*
0 Add four rect primitives between the rounded corners*
20,1,$1+$1,$2,$3,$4,$5,0*
20,1,$1+$1,$4,$5,$6,$7,0*
20,1,$1+$1,$6,$7,$8,$9,0*
20,1,$1+$1,$8,$9,$2,$3,0*%
G04 Aperture macros list end*
%ADD10RoundRect,0.100000X-0.712500X-0.100000X0.712500X-0.100000X0.712500X0.100000X-0.712500X0.100000X0*%
%ADD11RoundRect,0.225000X-0.225000X-0.250000X0.225000X-0.250000X0.225000X0.250000X-0.225000X0.250000X0*%
%ADD12R,1.473200X0.355600*%
%ADD13RoundRect,0.225000X0.250000X-0.225000X0.250000X0.225000X-0.250000X0.225000X-0.250000X-0.225000X0*%
%ADD14RoundRect,0.225000X0.225000X0.250000X-0.225000X0.250000X-0.225000X-0.250000X0.225000X-0.250000X0*%
%ADD15RoundRect,0.225000X-0.250000X0.225000X-0.250000X-0.225000X0.250000X-0.225000X0.250000X0.225000X0*%
%ADD16RoundRect,0.200000X-0.200000X-0.275000X0.200000X-0.275000X0.200000X0.275000X-0.200000X0.275000X0*%
%ADD17RoundRect,0.050000X-0.050000X0.475000X-0.050000X-0.475000X0.050000X-0.475000X0.050000X0.475000X0*%
%ADD18RoundRect,0.050000X-0.337500X0.050000X-0.337500X-0.050000X0.337500X-0.050000X0.337500X0.050000X0*%
%ADD19RoundRect,0.100000X0.225000X0.100000X-0.225000X0.100000X-0.225000X-0.100000X0.225000X-0.100000X0*%
%ADD20R,0.558800X1.460500*%
%ADD21RoundRect,0.200000X-0.275000X0.200000X-0.275000X-0.200000X0.275000X-0.200000X0.275000X0.200000X0*%
%ADD22RoundRect,0.250000X-0.250000X-0.475000X0.250000X-0.475000X0.250000X0.475000X-0.250000X0.475000X0*%
%ADD23RoundRect,0.250000X0.475000X-0.250000X0.475000X0.250000X-0.475000X0.250000X-0.475000X-0.250000X0*%
G04 APERTURE END LIST*
D10*
%TO.C,U5*%
X89887500Y-129775000D03*
X89887500Y-130425000D03*
X89887500Y-131075000D03*
X89887500Y-131725000D03*
X94112500Y-131725000D03*
X94112500Y-131075000D03*
X94112500Y-130425000D03*
X94112500Y-129775000D03*
%TD*%
D11*
%TO.C,C7*%
X93975000Y-128250000D03*
X95525000Y-128250000D03*
%TD*%
D12*
%TO.C,U1*%
X89829000Y-133225001D03*
X89829000Y-133874999D03*
X89829000Y-134525001D03*
X89829000Y-135174999D03*
X89829000Y-135824998D03*
X89829000Y-136474999D03*
X89829000Y-137124998D03*
X89829000Y-137774999D03*
X95671000Y-137774999D03*
X95671000Y-137125001D03*
X95671000Y-136474999D03*
X95671000Y-135825001D03*
X95671000Y-135175002D03*
X95671000Y-134525001D03*
X95671000Y-133875002D03*
X95671000Y-133225001D03*
%TD*%
D13*
%TO.C,C2*%
X88000000Y-138800000D03*
X88000000Y-137250000D03*
%TD*%
D14*
%TO.C,C4*%
X88025000Y-134000000D03*
X86475000Y-134000000D03*
%TD*%
D15*
%TO.C,C6*%
X96250000Y-130475000D03*
X96250000Y-132025000D03*
%TD*%
D16*
%TO.C,R2*%
X96175000Y-139250000D03*
X97825000Y-139250000D03*
%TD*%
D17*
%TO.C,U2*%
X88970435Y-126675565D03*
X88570435Y-126675565D03*
D18*
X87882935Y-126825565D03*
X87882935Y-127225565D03*
X87882935Y-127625565D03*
X87882935Y-128025565D03*
D17*
X88570435Y-128175565D03*
X88970435Y-128175565D03*
D18*
X89657935Y-128025565D03*
X89657935Y-127625565D03*
X89657935Y-127225565D03*
X89657935Y-126825565D03*
%TD*%
D19*
%TO.C,U4*%
X98650000Y-121150000D03*
X98650000Y-120500000D03*
X98650000Y-119850000D03*
X96750000Y-119850000D03*
X96750000Y-121150000D03*
%TD*%
D14*
%TO.C,C3*%
X88025000Y-135550000D03*
X86475000Y-135550000D03*
%TD*%
%TO.C,C5*%
X91275000Y-139250000D03*
X89725000Y-139250000D03*
%TD*%
D20*
%TO.C,U3*%
X87440000Y-121724150D03*
X88710000Y-121724150D03*
X89980000Y-121724150D03*
X91250000Y-121724150D03*
X92520000Y-121724150D03*
X93790000Y-121724150D03*
X95060000Y-121724150D03*
X95060000Y-116275850D03*
X93790000Y-116275850D03*
X92520000Y-116275850D03*
X91250000Y-116275850D03*
X89980000Y-116275850D03*
X88710000Y-116275850D03*
X87440000Y-116275850D03*
%TD*%
D21*
%TO.C,R1*%
X87862500Y-130100000D03*
X87862500Y-131750000D03*
%TD*%
D22*
%TO.C,C8*%
X93800000Y-126250000D03*
X95700000Y-126250000D03*
%TD*%
D23*
%TO.C,C1*%
X86000000Y-138975000D03*
X86000000Y-137075000D03*
%TD*%
M02*
