%TF.GenerationSoftware,KiCad,Pcbnew,9.0.2*%
%TF.CreationDate,2025-07-02T23:55:56-04:00*%
%TF.ProjectId,strain-gauge,73747261-696e-42d6-9761-7567652e6b69,rev?*%
%TF.SameCoordinates,Original*%
%TF.FileFunction,Legend,Top*%
%TF.FilePolarity,Positive*%
%FSLAX46Y46*%
G04 Gerber Fmt 4.6, Leading zero omitted, Abs format (unit mm)*
G04 Created by KiCad (PCBNEW 9.0.2) date 2025-07-02 23:55:56*
%MOMM*%
%LPD*%
G01*
G04 APERTURE LIST*
%ADD10C,0.120000*%
%ADD11C,0.152400*%
%ADD12C,0.000000*%
G04 APERTURE END LIST*
D10*
%TO.C,C1*%
X90365804Y-101485000D02*
X90888308Y-101485000D01*
X90365804Y-100015000D02*
X90888308Y-100015000D01*
%TO.C,U5*%
X93137500Y-96165000D02*
X91637500Y-96165000D01*
X93137500Y-96165000D02*
X94637500Y-96165000D01*
X93137500Y-99385000D02*
X91637500Y-99385000D01*
X93137500Y-99385000D02*
X94637500Y-99385000D01*
X90925000Y-96340000D02*
X90685000Y-96010000D01*
X91165000Y-96010000D01*
X90925000Y-96340000D01*
G36*
X90925000Y-96340000D02*
G01*
X90685000Y-96010000D01*
X91165000Y-96010000D01*
X90925000Y-96340000D01*
G37*
%TO.C,C7*%
X94696920Y-94765000D02*
X94978080Y-94765000D01*
X94696920Y-95785000D02*
X94978080Y-95785000D01*
D11*
%TO.C,U1*%
X89570300Y-105558976D02*
X89570300Y-109441024D01*
X94929700Y-109441024D02*
X94929700Y-105558976D01*
D12*
G36*
X90815499Y-111665600D02*
G01*
X90434499Y-111665600D01*
X90434499Y-111411600D01*
X90815499Y-111411600D01*
X90815499Y-111665600D01*
G37*
D10*
%TO.C,C2*%
X90486476Y-102240000D02*
X90767636Y-102240000D01*
X90486476Y-103260000D02*
X90767636Y-103260000D01*
%TO.C,C4*%
X94142056Y-102140580D02*
X94142056Y-101859420D01*
X95162056Y-102140580D02*
X95162056Y-101859420D01*
%TO.C,C6*%
X95490000Y-109859420D02*
X95490000Y-110140580D01*
X96510000Y-109859420D02*
X96510000Y-110140580D01*
%TO.C,J2*%
X97370000Y-86120000D02*
X98750000Y-86120000D01*
X97370000Y-87500000D02*
X97370000Y-86120000D01*
X97370000Y-88770000D02*
X97370000Y-109200000D01*
X97370000Y-88770000D02*
X100130000Y-88770000D01*
X97370000Y-109200000D02*
X100130000Y-109200000D01*
X100130000Y-88770000D02*
X100130000Y-109200000D01*
%TO.C,R2*%
X87977500Y-109787742D02*
X87977500Y-110262258D01*
X89022500Y-109787742D02*
X89022500Y-110262258D01*
%TO.C,U2*%
X88897935Y-93440565D02*
X89347935Y-93440565D01*
X88897935Y-95460565D02*
X89347935Y-95460565D01*
X90467935Y-93240565D02*
X90677935Y-93240565D01*
X90917935Y-95460565D02*
X90467935Y-95460565D01*
X91247935Y-93480565D02*
X90917935Y-93240565D01*
X91247935Y-93000565D01*
X91247935Y-93480565D01*
G36*
X91247935Y-93480565D02*
G01*
X90917935Y-93240565D01*
X91247935Y-93000565D01*
X91247935Y-93480565D01*
G37*
%TO.C,U4*%
X98260000Y-83140000D02*
X96860000Y-83140000D01*
X98270000Y-85460000D02*
X96860000Y-85460000D01*
X98880000Y-85740000D02*
X98400000Y-85740000D01*
X98640000Y-85410000D01*
X98880000Y-85740000D01*
G36*
X98880000Y-85740000D02*
G01*
X98400000Y-85740000D01*
X98640000Y-85410000D01*
X98880000Y-85740000D01*
G37*
%TO.C,C3*%
X92592056Y-102140580D02*
X92592056Y-101859420D01*
X93612056Y-102140580D02*
X93612056Y-101859420D01*
%TO.C,C5*%
X87990000Y-105390580D02*
X87990000Y-105109420D01*
X89010000Y-105390580D02*
X89010000Y-105109420D01*
D11*
%TO.C,U3*%
X90039100Y-92035800D02*
X94280900Y-92035800D01*
X94280900Y-83044200D02*
X90039100Y-83044200D01*
D12*
G36*
X96122400Y-89000500D02*
G01*
X95868400Y-89000500D01*
X95868400Y-88619500D01*
X96122400Y-88619500D01*
X96122400Y-89000500D01*
G37*
D10*
%TO.C,R1*%
X88626059Y-97934391D02*
X88626059Y-98408907D01*
X89671059Y-97934391D02*
X89671059Y-98408907D01*
%TO.C,J1*%
X84620000Y-106530000D02*
X84620000Y-86100000D01*
X87380000Y-86100000D02*
X84620000Y-86100000D01*
X87380000Y-106530000D02*
X84620000Y-106530000D01*
X87380000Y-106530000D02*
X87380000Y-86100000D01*
X87380000Y-107800000D02*
X87380000Y-109180000D01*
X87380000Y-109180000D02*
X86000000Y-109180000D01*
%TO.C,C8*%
X94576248Y-92540000D02*
X95098752Y-92540000D01*
X94576248Y-94010000D02*
X95098752Y-94010000D01*
%TD*%
M02*
