%TF.GenerationSoftware,KiCad,Pcbnew,9.0.2*%
%TF.CreationDate,2025-07-02T23:55:56-04:00*%
%TF.ProjectId,strain-gauge,73747261-696e-42d6-9761-7567652e6b69,rev?*%
%TF.SameCoordinates,Original*%
%TF.FileFunction,Copper,L1,Top*%
%TF.FilePolarity,Positive*%
%FSLAX46Y46*%
G04 Gerber Fmt 4.6, Leading zero omitted, Abs format (unit mm)*
G04 Created by KiCad (PCBNEW 9.0.2) date 2025-07-02 23:55:56*
%MOMM*%
%LPD*%
G01*
G04 APERTURE LIST*
G04 Aperture macros list*
%AMRoundRect*
0 Rectangle with rounded corners*
0 $1 Rounding radius*
0 $2 $3 $4 $5 $6 $7 $8 $9 X,Y pos of 4 corners*
0 Add a 4 corners polygon primitive as box body*
4,1,4,$2,$3,$4,$5,$6,$7,$8,$9,$2,$3,0*
0 Add four circle primitives for the rounded corners*
1,1,$1+$1,$2,$3*
1,1,$1+$1,$4,$5*
1,1,$1+$1,$6,$7*
1,1,$1+$1,$8,$9*
0 Add four rect primitives between the rounded corners*
20,1,$1+$1,$2,$3,$4,$5,0*
20,1,$1+$1,$4,$5,$6,$7,0*
20,1,$1+$1,$6,$7,$8,$9,0*
20,1,$1+$1,$8,$9,$2,$3,0*%
G04 Aperture macros list end*
%TA.AperFunction,SMDPad,CuDef*%
%ADD10RoundRect,0.250000X-0.250000X-0.475000X0.250000X-0.475000X0.250000X0.475000X-0.250000X0.475000X0*%
%TD*%
%TA.AperFunction,SMDPad,CuDef*%
%ADD11RoundRect,0.100000X-0.712500X-0.100000X0.712500X-0.100000X0.712500X0.100000X-0.712500X0.100000X0*%
%TD*%
%TA.AperFunction,SMDPad,CuDef*%
%ADD12RoundRect,0.225000X-0.225000X-0.250000X0.225000X-0.250000X0.225000X0.250000X-0.225000X0.250000X0*%
%TD*%
%TA.AperFunction,SMDPad,CuDef*%
%ADD13R,0.355600X1.473200*%
%TD*%
%TA.AperFunction,SMDPad,CuDef*%
%ADD14RoundRect,0.225000X0.250000X-0.225000X0.250000X0.225000X-0.250000X0.225000X-0.250000X-0.225000X0*%
%TD*%
%TA.AperFunction,SMDPad,CuDef*%
%ADD15RoundRect,0.225000X-0.250000X0.225000X-0.250000X-0.225000X0.250000X-0.225000X0.250000X0.225000X0*%
%TD*%
%TA.AperFunction,ComponentPad*%
%ADD16R,1.700000X1.700000*%
%TD*%
%TA.AperFunction,ComponentPad*%
%ADD17C,1.700000*%
%TD*%
%TA.AperFunction,SMDPad,CuDef*%
%ADD18RoundRect,0.200000X-0.275000X0.200000X-0.275000X-0.200000X0.275000X-0.200000X0.275000X0.200000X0*%
%TD*%
%TA.AperFunction,SMDPad,CuDef*%
%ADD19RoundRect,0.050000X-0.050000X0.475000X-0.050000X-0.475000X0.050000X-0.475000X0.050000X0.475000X0*%
%TD*%
%TA.AperFunction,SMDPad,CuDef*%
%ADD20RoundRect,0.050000X-0.337500X0.050000X-0.337500X-0.050000X0.337500X-0.050000X0.337500X0.050000X0*%
%TD*%
%TA.AperFunction,SMDPad,CuDef*%
%ADD21RoundRect,0.100000X0.225000X0.100000X-0.225000X0.100000X-0.225000X-0.100000X0.225000X-0.100000X0*%
%TD*%
%TA.AperFunction,SMDPad,CuDef*%
%ADD22R,1.460500X0.558800*%
%TD*%
%TA.AperFunction,ViaPad*%
%ADD23C,0.600000*%
%TD*%
%TA.AperFunction,Conductor*%
%ADD24C,0.200000*%
%TD*%
G04 APERTURE END LIST*
D10*
%TO.P,C1,2*%
%TO.N,Net-(U1-REFCAP)*%
X91577056Y-100750000D03*
%TO.P,C1,1*%
%TO.N,GND*%
X89677056Y-100750000D03*
%TD*%
D11*
%TO.P,U5,1,-*%
%TO.N,/Amplifier/A_IN_N*%
X91025000Y-96800000D03*
%TO.P,U5,2,Rg*%
%TO.N,Net-(R1-Pad1)*%
X91025000Y-97450000D03*
%TO.P,U5,3,Rg*%
%TO.N,Net-(R1-Pad2)*%
X91025000Y-98100000D03*
%TO.P,U5,4,+*%
%TO.N,/Amplifier/A_IN_P*%
X91025000Y-98750000D03*
%TO.P,U5,5,Vs-*%
%TO.N,GND*%
X95250000Y-98750000D03*
%TO.P,U5,6,Ref*%
X95250000Y-98100000D03*
%TO.P,U5,7*%
%TO.N,/ADC/A_IN*%
X95250000Y-97450000D03*
%TO.P,U5,8,Vs+*%
%TO.N,+5V*%
X95250000Y-96800000D03*
%TD*%
D12*
%TO.P,C7,1*%
%TO.N,+5V*%
X94062500Y-95275000D03*
%TO.P,C7,2*%
%TO.N,GND*%
X95612500Y-95275000D03*
%TD*%
D13*
%TO.P,U1,1,DGND*%
%TO.N,GND*%
X94524999Y-104579000D03*
%TO.P,U1,2,AVDD*%
%TO.N,+5V*%
X93875001Y-104579000D03*
%TO.P,U1,3,AGND*%
%TO.N,GND*%
X93224999Y-104579000D03*
%TO.P,U1,4,REFIO*%
%TO.N,Net-(U1-REFIO)*%
X92575001Y-104579000D03*
%TO.P,U1,5,REFGND*%
%TO.N,GND*%
X91925002Y-104579000D03*
%TO.P,U1,6,REFCAP*%
%TO.N,Net-(U1-REFCAP)*%
X91275001Y-104579000D03*
%TO.P,U1,7,AIN_P*%
%TO.N,/ADC/A_IN*%
X90625002Y-104579000D03*
%TO.P,U1,8,AIN_GND*%
%TO.N,GND*%
X89975001Y-104579000D03*
%TO.P,U1,9,~{RST}*%
%TO.N,/ADC/~{RST}*%
X89975001Y-110421000D03*
%TO.P,U1,10,SDI*%
%TO.N,/ADC/SDI*%
X90624999Y-110421000D03*
%TO.P,U1,11,CONVST/~{CS}*%
%TO.N,/ADC/~{CS}*%
X91275001Y-110421000D03*
%TO.P,U1,12,SCLK*%
%TO.N,/ADC/SCLK*%
X91924999Y-110421000D03*
%TO.P,U1,13,SDO-0*%
%TO.N,/ADC/SDO-0*%
X92574998Y-110421000D03*
%TO.P,U1,14,ALARM/SDO-1/GPO*%
%TO.N,/ADC/SDO-1*%
X93224999Y-110421000D03*
%TO.P,U1,15,RVS*%
%TO.N,/ADC/RVS*%
X93874998Y-110421000D03*
%TO.P,U1,16,DVDD*%
%TO.N,+3.3V*%
X94524999Y-110421000D03*
%TD*%
D12*
%TO.P,C2,1*%
%TO.N,GND*%
X89852056Y-102750000D03*
%TO.P,C2,2*%
%TO.N,Net-(U1-REFCAP)*%
X91402056Y-102750000D03*
%TD*%
D14*
%TO.P,C4,1*%
%TO.N,+5V*%
X94652056Y-102775000D03*
%TO.P,C4,2*%
%TO.N,GND*%
X94652056Y-101225000D03*
%TD*%
D15*
%TO.P,C6,1*%
%TO.N,GND*%
X96000000Y-109225000D03*
%TO.P,C6,2*%
%TO.N,+3.3V*%
X96000000Y-110775000D03*
%TD*%
D16*
%TO.P,J2,1,Pin_1*%
%TO.N,GND*%
X98750000Y-87500000D03*
D17*
%TO.P,J2,2,Pin_2*%
%TO.N,+5V*%
X98750000Y-90040000D03*
%TO.P,J2,3,Pin_3*%
%TO.N,/ADC/~{RST}*%
X98750000Y-92580000D03*
%TO.P,J2,4,Pin_4*%
%TO.N,/ADC/SDI*%
X98750000Y-95120000D03*
%TO.P,J2,5,Pin_5*%
%TO.N,/ADC/~{CS}*%
X98750000Y-97660000D03*
%TO.P,J2,6,Pin_6*%
%TO.N,/ADC/SCLK*%
X98750000Y-100200000D03*
%TO.P,J2,7,Pin_7*%
%TO.N,/ADC/SDO-0*%
X98750000Y-102740000D03*
%TO.P,J2,8,Pin_8*%
%TO.N,/ADC/SDO-1*%
X98750000Y-105280000D03*
%TO.P,J2,9,Pin_9*%
%TO.N,/ADC/RVS*%
X98750000Y-107820000D03*
%TD*%
D18*
%TO.P,R2,1*%
%TO.N,/ADC/~{RST}*%
X88500000Y-109200000D03*
%TO.P,R2,2*%
%TO.N,+3.3V*%
X88500000Y-110850000D03*
%TD*%
D19*
%TO.P,U2,1,SEL0*%
%TO.N,/Counter/SEL0*%
X90107935Y-93700565D03*
%TO.P,U2,2,SEL1*%
%TO.N,/Counter/SEL1*%
X89707935Y-93700565D03*
D20*
%TO.P,U2,3,S1B*%
%TO.N,/Multiplexer/A_IN_P2*%
X89020435Y-93850565D03*
%TO.P,U2,4,S2B*%
%TO.N,/Multiplexer/A_IN_N2*%
X89020435Y-94250565D03*
%TO.P,U2,5,S1C*%
%TO.N,/Multiplexer/A_IN_P3*%
X89020435Y-94650565D03*
%TO.P,U2,6,S2C*%
%TO.N,/Multiplexer/A_IN_N3*%
X89020435Y-95050565D03*
D19*
%TO.P,U2,7,S1A*%
%TO.N,/Multiplexer/A_IN_P1*%
X89707935Y-95200565D03*
%TO.P,U2,8,S2A*%
%TO.N,/Multiplexer/A_IN_N1*%
X90107935Y-95200565D03*
D20*
%TO.P,U2,9,GND*%
%TO.N,GND*%
X90795435Y-95050565D03*
%TO.P,U2,10,D2*%
%TO.N,/Amplifier/A_IN_N*%
X90795435Y-94650565D03*
%TO.P,U2,11,D1*%
%TO.N,/Amplifier/A_IN_P*%
X90795435Y-94250565D03*
%TO.P,U2,12,VDD*%
%TO.N,+3.3V*%
X90795435Y-93850565D03*
%TD*%
D21*
%TO.P,U4,1*%
%TO.N,/Counter/SEL1*%
X98510000Y-84950000D03*
%TO.P,U4,2*%
%TO.N,/Counter/SEL0*%
X98510000Y-84300000D03*
%TO.P,U4,3,GND*%
%TO.N,GND*%
X98510000Y-83650000D03*
%TO.P,U4,4*%
%TO.N,Net-(U3-~{1CLR})*%
X96610000Y-83650000D03*
%TO.P,U4,5,VCC*%
%TO.N,+3.3V*%
X96610000Y-84950000D03*
%TD*%
D14*
%TO.P,C3,1*%
%TO.N,Net-(U1-REFIO)*%
X93102056Y-102775000D03*
%TO.P,C3,2*%
%TO.N,GND*%
X93102056Y-101225000D03*
%TD*%
%TO.P,C5,1*%
%TO.N,/ADC/A_IN*%
X88500000Y-106025000D03*
%TO.P,C5,2*%
%TO.N,GND*%
X88500000Y-104475000D03*
%TD*%
D22*
%TO.P,U3,1,~{1CLR}*%
%TO.N,Net-(U3-~{1CLR})*%
X89435850Y-83730000D03*
%TO.P,U3,2,1D*%
%TO.N,Net-(U3-1D)*%
X89435850Y-85000000D03*
%TO.P,U3,3,~{1CLK}*%
%TO.N,/ADC/~{CS}*%
X89435850Y-86270000D03*
%TO.P,U3,4,~{1PRE}*%
%TO.N,+3.3V*%
X89435850Y-87540000D03*
%TO.P,U3,5,1Q*%
%TO.N,/Counter/SEL0*%
X89435850Y-88810000D03*
%TO.P,U3,6,~{1Q}*%
%TO.N,Net-(U3-1D)*%
X89435850Y-90080000D03*
%TO.P,U3,7,GND*%
%TO.N,GND*%
X89435850Y-91350000D03*
%TO.P,U3,8,~{2Q}*%
%TO.N,Net-(U3-2D)*%
X94884150Y-91350000D03*
%TO.P,U3,9,2Q*%
%TO.N,/Counter/SEL1*%
X94884150Y-90080000D03*
%TO.P,U3,10,~{2PRE}*%
%TO.N,+3.3V*%
X94884150Y-88810000D03*
%TO.P,U3,11,~{2CLK}*%
%TO.N,/Counter/SEL0*%
X94884150Y-87540000D03*
%TO.P,U3,12,2D*%
%TO.N,Net-(U3-2D)*%
X94884150Y-86270000D03*
%TO.P,U3,13,~{2CLR}*%
%TO.N,Net-(U3-~{1CLR})*%
X94884150Y-85000000D03*
%TO.P,U3,14,VCC*%
%TO.N,+3.3V*%
X94884150Y-83730000D03*
%TD*%
D18*
%TO.P,R1,1*%
%TO.N,Net-(R1-Pad1)*%
X89148559Y-97346649D03*
%TO.P,R1,2*%
%TO.N,Net-(R1-Pad2)*%
X89148559Y-98996649D03*
%TD*%
D16*
%TO.P,J1,1,Pin_1*%
%TO.N,GND*%
X86000000Y-107800000D03*
D17*
%TO.P,J1,2,Pin_2*%
%TO.N,/Multiplexer/A_IN_N1*%
X86000000Y-105260000D03*
%TO.P,J1,3,Pin_3*%
%TO.N,/Multiplexer/A_IN_P1*%
X86000000Y-102720000D03*
%TO.P,J1,4,Pin_4*%
%TO.N,/Multiplexer/A_IN_N3*%
X86000000Y-100180000D03*
%TO.P,J1,5,Pin_5*%
%TO.N,/Multiplexer/A_IN_P3*%
X86000000Y-97640000D03*
%TO.P,J1,6,Pin_6*%
%TO.N,/Multiplexer/A_IN_N2*%
X86000000Y-95100000D03*
%TO.P,J1,7,Pin_7*%
%TO.N,/Multiplexer/A_IN_P2*%
X86000000Y-92560000D03*
%TO.P,J1,8,Pin_8*%
%TO.N,+3.3V*%
X86000000Y-90020000D03*
%TO.P,J1,9,Pin_9*%
%TO.N,GND*%
X86000000Y-87480000D03*
%TD*%
D10*
%TO.P,C8,1*%
%TO.N,+5V*%
X93887500Y-93275000D03*
%TO.P,C8,2*%
%TO.N,GND*%
X95787500Y-93275000D03*
%TD*%
D23*
%TO.N,GND*%
X96750000Y-95500000D03*
X95750000Y-104000000D03*
X95000000Y-100000000D03*
X100000000Y-84500000D03*
X90988235Y-95988235D03*
X96500000Y-108000000D03*
%TO.N,+3.3V*%
X92250000Y-93500000D03*
X88000000Y-90000000D03*
X87000000Y-111000000D03*
X88000000Y-87500000D03*
X97500000Y-110750000D03*
X94750000Y-82750000D03*
%TO.N,/ADC/SDI*%
X95775735Y-105375735D03*
%TO.N,/ADC/~{CS}*%
X88000000Y-86250000D03*
%TO.N,/ADC/~{RST}*%
X90000000Y-111900000D03*
%TO.N,/Counter/SEL1*%
X91750000Y-92500000D03*
X89500000Y-92500000D03*
%TO.N,Net-(U3-2D)*%
X96520000Y-91480000D03*
X96520000Y-86230000D03*
%TD*%
D24*
%TO.N,/ADC/~{CS}*%
X91275001Y-110421000D02*
X91275001Y-109484400D01*
X96500000Y-101775760D02*
X97599000Y-100676760D01*
X91275001Y-109484400D02*
X92509401Y-108250000D01*
X92509401Y-108250000D02*
X93750000Y-108250000D01*
X93750000Y-108250000D02*
X96500000Y-105500000D01*
X96500000Y-105500000D02*
X96500000Y-101775760D01*
X97599000Y-100676760D02*
X97599000Y-98811000D01*
X97599000Y-98811000D02*
X98750000Y-97660000D01*
%TO.N,/Counter/SEL1*%
X89707935Y-93700565D02*
X89707935Y-92707935D01*
X89707935Y-92707935D02*
X89500000Y-92500000D01*
%TO.N,GND*%
X92026002Y-105616600D02*
X91925002Y-105515600D01*
X95250000Y-98100000D02*
X95250000Y-98750000D01*
X91925002Y-105515600D02*
X91925002Y-104579000D01*
X90795435Y-95050565D02*
X90795435Y-95795435D01*
X90795435Y-95795435D02*
X90988235Y-95988235D01*
X93053801Y-105616600D02*
X92026002Y-105616600D01*
X93224999Y-105445402D02*
X93053801Y-105616600D01*
X93224999Y-104579000D02*
X93224999Y-105445402D01*
%TO.N,Net-(U1-REFCAP)*%
X91402056Y-102750000D02*
X91402056Y-104451945D01*
X91577056Y-102575000D02*
X91402056Y-102750000D01*
X91402056Y-104451945D02*
X91275001Y-104579000D01*
X91577056Y-100750000D02*
X91577056Y-102575000D01*
%TO.N,Net-(U1-REFIO)*%
X93102056Y-102775000D02*
X92575001Y-103302055D01*
X92575001Y-103302055D02*
X92575001Y-104579000D01*
%TO.N,+5V*%
X95500000Y-100500000D02*
X95500000Y-101750000D01*
X94652056Y-102597944D02*
X94652056Y-102775000D01*
X96768943Y-92081000D02*
X98750000Y-90099943D01*
X94652056Y-102775000D02*
X93875001Y-103552055D01*
X95250000Y-96800000D02*
X93887500Y-95437500D01*
X98750000Y-90099943D02*
X98750000Y-90040000D01*
X93887500Y-93275000D02*
X95081500Y-92081000D01*
X93887500Y-95437500D02*
X93887500Y-93275000D01*
X95081500Y-92081000D02*
X96768943Y-92081000D01*
X93875001Y-103552055D02*
X93875001Y-104579000D01*
X95500000Y-100500000D02*
X96363500Y-99636500D01*
X95500000Y-101750000D02*
X94652056Y-102597944D01*
X96363500Y-99636500D02*
X96363500Y-97101001D01*
X96062499Y-96800000D02*
X95250000Y-96800000D01*
X96363500Y-97101001D02*
X96062499Y-96800000D01*
%TO.N,/ADC/A_IN*%
X91249000Y-99251000D02*
X92636501Y-99251000D01*
X94437501Y-97450000D02*
X95250000Y-97450000D01*
X90625002Y-105515600D02*
X90625002Y-104579000D01*
X90625002Y-104579000D02*
X90625002Y-99874998D01*
X90625002Y-99874998D02*
X91249000Y-99251000D01*
X90115602Y-106025000D02*
X90625002Y-105515600D01*
X88500000Y-106025000D02*
X90115602Y-106025000D01*
X92636501Y-99251000D02*
X94437501Y-97450000D01*
%TO.N,+3.3V*%
X86000000Y-90020000D02*
X87980000Y-90020000D01*
X90895435Y-93750565D02*
X90895435Y-92354565D01*
X90795435Y-93850565D02*
X91899435Y-93850565D01*
X89435850Y-87540000D02*
X88040000Y-87540000D01*
X96000000Y-110775000D02*
X97475000Y-110775000D01*
X94440000Y-88810000D02*
X94884150Y-88810000D01*
X97236000Y-83236000D02*
X96750000Y-82750000D01*
X96000000Y-110775000D02*
X94878999Y-110775000D01*
X94884150Y-83730000D02*
X94884150Y-82884150D01*
X96750000Y-82750000D02*
X94750000Y-82750000D01*
X87980000Y-90020000D02*
X88000000Y-90000000D01*
X94878999Y-110775000D02*
X94524999Y-110421000D01*
X88040000Y-87540000D02*
X88000000Y-87500000D01*
X90895435Y-92354565D02*
X94440000Y-88810000D01*
X97236000Y-84324000D02*
X97236000Y-83236000D01*
X87150000Y-110850000D02*
X87000000Y-111000000D01*
X90795435Y-93850565D02*
X90895435Y-93750565D01*
X91899435Y-93850565D02*
X92250000Y-93500000D01*
X94884150Y-82884150D02*
X94750000Y-82750000D01*
X96610000Y-84950000D02*
X97236000Y-84324000D01*
X88500000Y-110850000D02*
X87150000Y-110850000D01*
X97475000Y-110775000D02*
X97500000Y-110750000D01*
%TO.N,Net-(R1-Pad1)*%
X89148559Y-97346649D02*
X90921649Y-97346649D01*
X90921649Y-97346649D02*
X91025000Y-97450000D01*
%TO.N,Net-(R1-Pad2)*%
X89148559Y-98996649D02*
X90045208Y-98100000D01*
X90045208Y-98100000D02*
X91025000Y-98100000D01*
%TO.N,/ADC/SDI*%
X92260399Y-107849000D02*
X93302470Y-107849000D01*
X93302470Y-107849000D02*
X95775735Y-105375735D01*
X90624999Y-110421000D02*
X90624999Y-109484400D01*
X90624999Y-109484400D02*
X92260399Y-107849000D01*
%TO.N,/ADC/~{CS}*%
X89435850Y-86270000D02*
X88020000Y-86270000D01*
X88020000Y-86270000D02*
X88000000Y-86250000D01*
%TO.N,/ADC/SDO-1*%
X99901000Y-110849000D02*
X99901000Y-106431000D01*
X98823000Y-111927000D02*
X99901000Y-110849000D01*
X99901000Y-106431000D02*
X98750000Y-105280000D01*
X93864598Y-111927000D02*
X98823000Y-111927000D01*
X93224999Y-110421000D02*
X93224999Y-111287401D01*
X93224999Y-111287401D02*
X93864598Y-111927000D01*
%TO.N,/ADC/~{RST}*%
X88754001Y-109200000D02*
X89975001Y-110421000D01*
X88500000Y-109200000D02*
X88754001Y-109200000D01*
X89975001Y-111875001D02*
X90000000Y-111900000D01*
X89975001Y-110421000D02*
X89975001Y-111875001D01*
%TO.N,/ADC/RVS*%
X99500000Y-108570000D02*
X98750000Y-107820000D01*
X93874998Y-110421000D02*
X93874998Y-111287399D01*
X94113599Y-111526000D02*
X98656900Y-111526000D01*
X93874998Y-111287399D02*
X94113599Y-111526000D01*
X98656900Y-111526000D02*
X99500000Y-110682900D01*
X99500000Y-110682900D02*
X99500000Y-108570000D01*
%TO.N,/ADC/SDO-0*%
X92675998Y-109383400D02*
X94116600Y-109383400D01*
X92574998Y-109484400D02*
X92675998Y-109383400D01*
X92574998Y-110421000D02*
X92574998Y-109484400D01*
X94116600Y-109383400D02*
X97599000Y-105901000D01*
X97599000Y-103891000D02*
X98750000Y-102740000D01*
X97599000Y-105901000D02*
X97599000Y-103891000D01*
%TO.N,/ADC/SCLK*%
X94000000Y-108750000D02*
X97000000Y-105750000D01*
X91924999Y-110421000D02*
X91924999Y-109484400D01*
X97000000Y-105750000D02*
X97000000Y-101950000D01*
X97000000Y-101950000D02*
X98750000Y-100200000D01*
X92659399Y-108750000D02*
X94000000Y-108750000D01*
X91924999Y-109484400D02*
X92659399Y-108750000D01*
%TO.N,/Multiplexer/A_IN_P1*%
X86000000Y-102720000D02*
X87750000Y-100970000D01*
X89262224Y-95694050D02*
X89706935Y-95249339D01*
X87750000Y-100970000D02*
X87750000Y-96888100D01*
X88944050Y-95694050D02*
X89262224Y-95694050D01*
X87750000Y-96888100D02*
X88944050Y-95694050D01*
X89707935Y-95200565D02*
X89707935Y-95292065D01*
%TO.N,/Multiplexer/A_IN_N1*%
X89354351Y-96645649D02*
X88660495Y-96645649D01*
X90107935Y-95892065D02*
X89354351Y-96645649D01*
X88250000Y-97056144D02*
X88250000Y-103010000D01*
X88250000Y-103010000D02*
X86000000Y-105260000D01*
X90107935Y-95200565D02*
X90107935Y-95892065D01*
X88660495Y-96645649D02*
X88250000Y-97056144D01*
%TO.N,/Amplifier/A_IN_N*%
X91837500Y-95025000D02*
X91837500Y-95987500D01*
X91837500Y-95987500D02*
X91025000Y-96800000D01*
X91463065Y-94650565D02*
X91837500Y-95025000D01*
X90795435Y-94650565D02*
X91463065Y-94650565D01*
%TO.N,/Multiplexer/A_IN_N3*%
X89020435Y-95050565D02*
X87151000Y-96920000D01*
X87151000Y-96920000D02*
X87151000Y-99029000D01*
X87151000Y-99029000D02*
X86000000Y-100180000D01*
%TO.N,/Multiplexer/A_IN_P3*%
X89020435Y-94650565D02*
X88349435Y-94650565D01*
X86500000Y-97140000D02*
X86000000Y-97640000D01*
X86500000Y-96500000D02*
X86500000Y-97140000D01*
X88349435Y-94650565D02*
X86500000Y-96500000D01*
%TO.N,/Amplifier/A_IN_P*%
X92337500Y-98169870D02*
X91757370Y-98750000D01*
X90795435Y-94250565D02*
X91813065Y-94250565D01*
X92337500Y-94775000D02*
X92337500Y-98169870D01*
X91813065Y-94250565D02*
X92337500Y-94775000D01*
X91757370Y-98750000D02*
X91025000Y-98750000D01*
%TO.N,/Multiplexer/A_IN_P2*%
X87290565Y-93850565D02*
X86000000Y-92560000D01*
X89020435Y-93850565D02*
X87290565Y-93850565D01*
%TO.N,/Counter/SEL1*%
X94670000Y-90080000D02*
X94884150Y-90080000D01*
X91750000Y-92500000D02*
X92250000Y-92500000D01*
X92250000Y-92500000D02*
X94670000Y-90080000D01*
%TO.N,/Multiplexer/A_IN_N2*%
X86849435Y-94250565D02*
X86000000Y-95100000D01*
X89020435Y-94250565D02*
X86849435Y-94250565D01*
%TO.N,/Counter/SEL0*%
X90107935Y-93392065D02*
X90467100Y-93032900D01*
X91190000Y-88810000D02*
X89435850Y-88810000D01*
X92460000Y-87540000D02*
X91190000Y-88810000D01*
X94884150Y-87540000D02*
X92460000Y-87540000D01*
X97198000Y-86401943D02*
X96059943Y-87540000D01*
X90467100Y-92019550D02*
X92460000Y-90026650D01*
X98185001Y-84300000D02*
X97198000Y-85287001D01*
X98510000Y-84300000D02*
X98185001Y-84300000D01*
X90107935Y-93700565D02*
X90107935Y-93392065D01*
X92460000Y-90026650D02*
X92460000Y-87540000D01*
X97198000Y-85287001D02*
X97198000Y-86401943D01*
X96059943Y-87540000D02*
X94884150Y-87540000D01*
X90467100Y-93032900D02*
X90467100Y-92019550D01*
%TO.N,Net-(U3-1D)*%
X88985000Y-90080000D02*
X87399000Y-88494000D01*
X88400057Y-85000000D02*
X89435850Y-85000000D01*
X89435850Y-90080000D02*
X88985000Y-90080000D01*
X87399000Y-88494000D02*
X87399000Y-86001057D01*
X87399000Y-86001057D02*
X88400057Y-85000000D01*
%TO.N,Net-(U3-2D)*%
X96500000Y-86250000D02*
X96520000Y-86230000D01*
X96520000Y-91480000D02*
X95014150Y-91480000D01*
X94744150Y-86250000D02*
X96500000Y-86250000D01*
X95014150Y-91480000D02*
X94884150Y-91350000D01*
%TO.N,Net-(U3-~{1CLR})*%
X94884150Y-85000000D02*
X95260000Y-85000000D01*
X95260000Y-85000000D02*
X96610000Y-83650000D01*
X94884150Y-85000000D02*
X94433300Y-85000000D01*
X93163300Y-83730000D02*
X89435850Y-83730000D01*
X94433300Y-85000000D02*
X93163300Y-83730000D01*
%TO.N,/Counter/SEL1*%
X98510000Y-84950000D02*
X97599000Y-85861000D01*
X97599000Y-88401000D02*
X95920000Y-90080000D01*
X97599000Y-85861000D02*
X97599000Y-88401000D01*
X95920000Y-90080000D02*
X94884150Y-90080000D01*
%TD*%
%TA.AperFunction,Conductor*%
%TO.N,GND*%
G36*
X94217534Y-82470185D02*
G01*
X94263289Y-82522989D01*
X94273233Y-82592147D01*
X94270270Y-82606593D01*
X94249500Y-82684108D01*
X94249500Y-82815891D01*
X94283608Y-82943187D01*
X94315961Y-82999224D01*
X94349500Y-83057314D01*
X94349501Y-83057315D01*
X94353418Y-83064099D01*
X94369891Y-83132000D01*
X94347039Y-83198027D01*
X94292118Y-83241217D01*
X94246031Y-83250100D01*
X94134147Y-83250100D01*
X94075670Y-83261731D01*
X94075669Y-83261732D01*
X94009347Y-83306047D01*
X93965032Y-83372369D01*
X93965031Y-83372370D01*
X93953400Y-83430847D01*
X93953400Y-83795767D01*
X93933715Y-83862806D01*
X93880911Y-83908561D01*
X93811753Y-83918505D01*
X93748197Y-83889480D01*
X93741719Y-83883448D01*
X93347813Y-83489542D01*
X93347807Y-83489537D01*
X93331303Y-83480009D01*
X93279291Y-83449980D01*
X93279290Y-83449979D01*
X93253813Y-83443152D01*
X93202862Y-83429500D01*
X93202860Y-83429500D01*
X90459420Y-83429500D01*
X90392381Y-83409815D01*
X90356318Y-83374391D01*
X90310652Y-83306047D01*
X90244330Y-83261732D01*
X90244329Y-83261731D01*
X90185852Y-83250100D01*
X90185848Y-83250100D01*
X88685852Y-83250100D01*
X88685847Y-83250100D01*
X88627370Y-83261731D01*
X88627369Y-83261732D01*
X88561047Y-83306047D01*
X88516732Y-83372369D01*
X88516731Y-83372370D01*
X88505100Y-83430847D01*
X88505100Y-84029152D01*
X88516731Y-84087629D01*
X88516732Y-84087630D01*
X88561047Y-84153952D01*
X88627369Y-84198267D01*
X88627370Y-84198268D01*
X88685847Y-84209899D01*
X88685850Y-84209900D01*
X88685852Y-84209900D01*
X90185850Y-84209900D01*
X90185851Y-84209899D01*
X90200668Y-84206952D01*
X90244329Y-84198268D01*
X90244329Y-84198267D01*
X90244331Y-84198267D01*
X90310652Y-84153952D01*
X90354967Y-84087631D01*
X90354967Y-84087630D01*
X90356318Y-84085609D01*
X90409930Y-84040804D01*
X90459420Y-84030500D01*
X92987467Y-84030500D01*
X93054506Y-84050185D01*
X93075148Y-84066819D01*
X93917081Y-84908752D01*
X93950566Y-84970075D01*
X93953400Y-84996433D01*
X93953400Y-85299152D01*
X93965031Y-85357629D01*
X93965032Y-85357630D01*
X94009347Y-85423952D01*
X94075669Y-85468267D01*
X94075670Y-85468268D01*
X94134147Y-85479899D01*
X94134150Y-85479900D01*
X94134152Y-85479900D01*
X95634150Y-85479900D01*
X95634151Y-85479899D01*
X95661301Y-85474499D01*
X95692629Y-85468268D01*
X95692629Y-85468267D01*
X95692631Y-85468267D01*
X95758952Y-85423952D01*
X95803267Y-85357631D01*
X95803267Y-85357629D01*
X95803268Y-85357629D01*
X95814899Y-85299152D01*
X95814900Y-85299150D01*
X95814900Y-84921432D01*
X95823544Y-84891991D01*
X95830068Y-84862005D01*
X95833822Y-84856989D01*
X95834585Y-84854393D01*
X95851215Y-84833755D01*
X95872821Y-84812149D01*
X95934142Y-84778666D01*
X96003834Y-84783650D01*
X96059767Y-84825522D01*
X96084184Y-84890986D01*
X96084500Y-84899831D01*
X96084500Y-85094856D01*
X96084502Y-85094882D01*
X96087413Y-85119987D01*
X96087415Y-85119991D01*
X96132793Y-85222764D01*
X96132794Y-85222765D01*
X96212235Y-85302206D01*
X96315009Y-85347585D01*
X96340135Y-85350500D01*
X96773500Y-85350499D01*
X96840539Y-85370183D01*
X96886294Y-85422987D01*
X96897500Y-85474499D01*
X96897500Y-85655247D01*
X96877815Y-85722286D01*
X96825011Y-85768041D01*
X96755853Y-85777985D01*
X96721026Y-85765931D01*
X96720700Y-85766720D01*
X96713188Y-85763609D01*
X96713187Y-85763608D01*
X96713186Y-85763608D01*
X96585892Y-85729500D01*
X96454108Y-85729500D01*
X96326812Y-85763608D01*
X96212686Y-85829500D01*
X96212683Y-85829502D01*
X96129005Y-85913181D01*
X96102077Y-85927884D01*
X96076259Y-85944477D01*
X96070058Y-85945368D01*
X96067682Y-85946666D01*
X96041324Y-85949500D01*
X95894357Y-85949500D01*
X95827318Y-85929815D01*
X95791255Y-85894392D01*
X95778024Y-85874591D01*
X95758952Y-85846048D01*
X95692631Y-85801733D01*
X95692630Y-85801732D01*
X95692629Y-85801731D01*
X95634152Y-85790100D01*
X95634148Y-85790100D01*
X94134152Y-85790100D01*
X94134147Y-85790100D01*
X94075670Y-85801731D01*
X94075669Y-85801732D01*
X94009347Y-85846047D01*
X93965032Y-85912369D01*
X93965031Y-85912370D01*
X93953400Y-85970847D01*
X93953400Y-86569152D01*
X93965031Y-86627629D01*
X93965032Y-86627630D01*
X94009347Y-86693952D01*
X94075669Y-86738267D01*
X94075670Y-86738268D01*
X94134147Y-86749899D01*
X94134150Y-86749900D01*
X94134152Y-86749900D01*
X95634150Y-86749900D01*
X95634151Y-86749899D01*
X95648968Y-86746952D01*
X95692629Y-86738268D01*
X95692629Y-86738267D01*
X95692631Y-86738267D01*
X95758952Y-86693952D01*
X95803267Y-86627631D01*
X95803268Y-86627625D01*
X95803509Y-86627046D01*
X95804381Y-86625962D01*
X95810052Y-86617477D01*
X95810811Y-86617984D01*
X95816052Y-86611480D01*
X95824357Y-86593297D01*
X95837527Y-86584832D01*
X95847351Y-86572643D01*
X95866318Y-86566330D01*
X95883135Y-86555523D01*
X95910697Y-86551560D01*
X95913645Y-86550579D01*
X95918070Y-86550500D01*
X96081324Y-86550500D01*
X96148363Y-86570185D01*
X96169005Y-86586819D01*
X96212686Y-86630500D01*
X96254141Y-86654434D01*
X96283080Y-86671142D01*
X96331296Y-86721709D01*
X96344519Y-86790316D01*
X96318551Y-86855181D01*
X96308761Y-86866210D01*
X95985944Y-87189027D01*
X95924621Y-87222512D01*
X95854929Y-87217528D01*
X95798996Y-87175656D01*
X95795161Y-87170237D01*
X95758952Y-87116047D01*
X95692630Y-87071732D01*
X95692629Y-87071731D01*
X95634152Y-87060100D01*
X95634148Y-87060100D01*
X94134152Y-87060100D01*
X94134147Y-87060100D01*
X94075670Y-87071731D01*
X94075669Y-87071732D01*
X94009347Y-87116047D01*
X93963682Y-87184391D01*
X93910070Y-87229196D01*
X93860580Y-87239500D01*
X92499562Y-87239500D01*
X92420438Y-87239500D01*
X92382224Y-87249739D01*
X92344009Y-87259979D01*
X92344004Y-87259982D01*
X92275495Y-87299535D01*
X92275487Y-87299541D01*
X91101848Y-88473181D01*
X91040525Y-88506666D01*
X91014167Y-88509500D01*
X90459420Y-88509500D01*
X90392381Y-88489815D01*
X90356318Y-88454391D01*
X90310652Y-88386047D01*
X90244330Y-88341732D01*
X90244329Y-88341731D01*
X90185852Y-88330100D01*
X90185848Y-88330100D01*
X88685852Y-88330100D01*
X88685847Y-88330100D01*
X88627370Y-88341731D01*
X88627369Y-88341732D01*
X88561047Y-88386047D01*
X88516732Y-88452369D01*
X88516731Y-88452370D01*
X88505100Y-88510847D01*
X88505100Y-88875767D01*
X88485415Y-88942806D01*
X88432611Y-88988561D01*
X88363453Y-88998505D01*
X88299897Y-88969480D01*
X88293419Y-88963448D01*
X87735819Y-88405848D01*
X87721115Y-88378920D01*
X87704523Y-88353102D01*
X87703631Y-88346901D01*
X87702334Y-88344525D01*
X87699500Y-88318167D01*
X87699500Y-88099236D01*
X87719185Y-88032197D01*
X87771989Y-87986442D01*
X87841147Y-87976498D01*
X87855571Y-87979456D01*
X87934108Y-88000500D01*
X87934111Y-88000500D01*
X88065890Y-88000500D01*
X88065892Y-88000500D01*
X88193186Y-87966392D01*
X88307314Y-87900500D01*
X88327162Y-87880651D01*
X88388481Y-87847168D01*
X88458172Y-87852151D01*
X88514107Y-87894022D01*
X88517943Y-87899442D01*
X88561048Y-87963952D01*
X88627369Y-88008267D01*
X88627370Y-88008268D01*
X88685847Y-88019899D01*
X88685850Y-88019900D01*
X88685852Y-88019900D01*
X90185850Y-88019900D01*
X90185851Y-88019899D01*
X90200668Y-88016952D01*
X90244329Y-88008268D01*
X90244329Y-88008267D01*
X90244331Y-88008267D01*
X90310652Y-87963952D01*
X90354967Y-87897631D01*
X90354967Y-87897629D01*
X90354968Y-87897629D01*
X90366599Y-87839152D01*
X90366600Y-87839150D01*
X90366600Y-87240849D01*
X90366599Y-87240847D01*
X90354968Y-87182370D01*
X90354967Y-87182369D01*
X90310652Y-87116047D01*
X90244330Y-87071732D01*
X90244329Y-87071731D01*
X90185852Y-87060100D01*
X90185848Y-87060100D01*
X88685852Y-87060100D01*
X88685847Y-87060100D01*
X88627370Y-87071731D01*
X88627369Y-87071732D01*
X88561047Y-87116047D01*
X88549986Y-87132602D01*
X88496372Y-87177406D01*
X88427047Y-87186112D01*
X88364020Y-87155956D01*
X88359204Y-87151390D01*
X88307316Y-87099502D01*
X88307314Y-87099500D01*
X88250250Y-87066554D01*
X88193187Y-87033608D01*
X88085903Y-87004862D01*
X88065892Y-86999500D01*
X87934108Y-86999500D01*
X87855592Y-87020537D01*
X87830598Y-87019942D01*
X87805853Y-87023501D01*
X87796272Y-87019125D01*
X87785743Y-87018875D01*
X87765039Y-87004862D01*
X87742297Y-86994476D01*
X87736602Y-86985614D01*
X87727881Y-86979712D01*
X87718039Y-86956731D01*
X87704523Y-86935698D01*
X87702243Y-86919842D01*
X87700377Y-86915484D01*
X87699500Y-86900763D01*
X87699500Y-86849236D01*
X87719185Y-86782197D01*
X87771989Y-86736442D01*
X87841147Y-86726498D01*
X87855571Y-86729456D01*
X87934108Y-86750500D01*
X87934111Y-86750500D01*
X88065890Y-86750500D01*
X88065892Y-86750500D01*
X88193186Y-86716392D01*
X88307314Y-86650500D01*
X88335173Y-86622640D01*
X88396492Y-86589157D01*
X88466184Y-86594141D01*
X88522118Y-86636011D01*
X88525954Y-86641431D01*
X88561048Y-86693952D01*
X88627369Y-86738267D01*
X88627370Y-86738268D01*
X88685847Y-86749899D01*
X88685850Y-86749900D01*
X88685852Y-86749900D01*
X90185850Y-86749900D01*
X90185851Y-86749899D01*
X90200668Y-86746952D01*
X90244329Y-86738268D01*
X90244329Y-86738267D01*
X90244331Y-86738267D01*
X90310652Y-86693952D01*
X90354967Y-86627631D01*
X90354967Y-86627629D01*
X90354968Y-86627629D01*
X90363652Y-86583968D01*
X90366600Y-86569148D01*
X90366600Y-85970852D01*
X90366600Y-85970849D01*
X90366599Y-85970847D01*
X90354968Y-85912370D01*
X90354967Y-85912369D01*
X90310652Y-85846047D01*
X90244330Y-85801732D01*
X90244329Y-85801731D01*
X90185852Y-85790100D01*
X90185848Y-85790100D01*
X88685852Y-85790100D01*
X88685847Y-85790100D01*
X88627370Y-85801731D01*
X88627369Y-85801732D01*
X88561047Y-85846047D01*
X88541975Y-85874591D01*
X88488362Y-85919395D01*
X88419036Y-85928101D01*
X88364810Y-85905149D01*
X88357574Y-85899760D01*
X88307314Y-85849500D01*
X88230663Y-85805245D01*
X88224855Y-85800920D01*
X88208023Y-85778551D01*
X88188703Y-85758288D01*
X88187300Y-85751011D01*
X88182845Y-85745090D01*
X88180778Y-85717168D01*
X88175481Y-85689680D01*
X88178234Y-85682801D01*
X88177688Y-85675411D01*
X88191043Y-85650808D01*
X88201449Y-85624816D01*
X88210982Y-85614075D01*
X88211019Y-85614007D01*
X88211023Y-85614003D01*
X88211068Y-85613978D01*
X88211229Y-85613797D01*
X88393380Y-85431647D01*
X88454703Y-85398162D01*
X88524395Y-85403146D01*
X88549486Y-85419271D01*
X88550893Y-85417167D01*
X88627369Y-85468267D01*
X88627370Y-85468268D01*
X88685847Y-85479899D01*
X88685850Y-85479900D01*
X88685852Y-85479900D01*
X90185850Y-85479900D01*
X90185851Y-85479899D01*
X90213001Y-85474499D01*
X90244329Y-85468268D01*
X90244329Y-85468267D01*
X90244331Y-85468267D01*
X90310652Y-85423952D01*
X90354967Y-85357631D01*
X90354967Y-85357629D01*
X90354968Y-85357629D01*
X90366599Y-85299152D01*
X90366600Y-85299150D01*
X90366600Y-84700849D01*
X90366599Y-84700847D01*
X90354968Y-84642370D01*
X90354967Y-84642369D01*
X90310652Y-84576047D01*
X90244330Y-84531732D01*
X90244329Y-84531731D01*
X90185852Y-84520100D01*
X90185848Y-84520100D01*
X88685852Y-84520100D01*
X88685847Y-84520100D01*
X88627370Y-84531731D01*
X88627369Y-84531732D01*
X88561047Y-84576047D01*
X88515382Y-84644391D01*
X88461770Y-84689196D01*
X88412280Y-84699500D01*
X88360495Y-84699500D01*
X88322281Y-84709739D01*
X88284066Y-84719979D01*
X88284061Y-84719982D01*
X88215552Y-84759535D01*
X88215544Y-84759541D01*
X87158541Y-85816544D01*
X87158535Y-85816552D01*
X87118982Y-85885061D01*
X87118979Y-85885066D01*
X87098500Y-85961496D01*
X87098500Y-86737272D01*
X87078815Y-86804311D01*
X87026011Y-86850066D01*
X86974355Y-86859196D01*
X86482962Y-87350589D01*
X86465925Y-87287007D01*
X86400099Y-87172993D01*
X86307007Y-87079901D01*
X86192993Y-87014075D01*
X86129409Y-86997037D01*
X86618533Y-86507913D01*
X86602730Y-86496431D01*
X86441447Y-86414252D01*
X86441444Y-86414251D01*
X86269293Y-86358317D01*
X86090506Y-86330000D01*
X85909494Y-86330000D01*
X85730706Y-86358317D01*
X85558555Y-86414251D01*
X85558547Y-86414254D01*
X85397269Y-86496432D01*
X85381466Y-86507912D01*
X85381466Y-86507913D01*
X85870591Y-86997037D01*
X85807007Y-87014075D01*
X85692993Y-87079901D01*
X85599901Y-87172993D01*
X85534075Y-87287007D01*
X85517037Y-87350590D01*
X85027913Y-86861466D01*
X85027912Y-86861466D01*
X85016432Y-86877269D01*
X84934254Y-87038547D01*
X84934251Y-87038555D01*
X84878317Y-87210706D01*
X84850000Y-87389493D01*
X84850000Y-87570506D01*
X84878317Y-87749293D01*
X84934251Y-87921444D01*
X84934252Y-87921447D01*
X85016431Y-88082730D01*
X85027913Y-88098532D01*
X85027913Y-88098533D01*
X85517037Y-87609409D01*
X85534075Y-87672993D01*
X85599901Y-87787007D01*
X85692993Y-87880099D01*
X85807007Y-87945925D01*
X85870590Y-87962962D01*
X85381466Y-88452085D01*
X85381466Y-88452086D01*
X85397267Y-88463566D01*
X85397275Y-88463571D01*
X85558552Y-88545747D01*
X85558555Y-88545748D01*
X85730706Y-88601682D01*
X85909494Y-88630000D01*
X86090506Y-88630000D01*
X86269293Y-88601682D01*
X86441444Y-88545748D01*
X86441452Y-88545745D01*
X86602730Y-88463568D01*
X86618532Y-88452085D01*
X86618533Y-88452085D01*
X86129410Y-87962962D01*
X86192993Y-87945925D01*
X86307007Y-87880099D01*
X86400099Y-87787007D01*
X86465925Y-87672993D01*
X86482962Y-87609409D01*
X86974757Y-88101205D01*
X87033149Y-88113473D01*
X87082906Y-88162525D01*
X87098500Y-88222726D01*
X87098500Y-88533562D01*
X87104509Y-88555987D01*
X87118979Y-88609990D01*
X87126035Y-88622211D01*
X87127928Y-88625489D01*
X87158539Y-88678509D01*
X87158541Y-88678512D01*
X87823665Y-89343636D01*
X87857150Y-89404959D01*
X87852166Y-89474651D01*
X87810294Y-89530584D01*
X87797986Y-89538703D01*
X87692689Y-89599498D01*
X87692683Y-89599502D01*
X87609005Y-89683181D01*
X87547682Y-89716666D01*
X87521324Y-89719500D01*
X87095436Y-89719500D01*
X87028397Y-89699815D01*
X86982642Y-89647011D01*
X86980875Y-89642953D01*
X86967943Y-89611732D01*
X86930941Y-89522402D01*
X86815977Y-89350345D01*
X86815975Y-89350342D01*
X86669657Y-89204024D01*
X86529687Y-89110500D01*
X86497598Y-89089059D01*
X86404412Y-89050460D01*
X86306420Y-89009870D01*
X86306412Y-89009868D01*
X86103469Y-88969500D01*
X86103465Y-88969500D01*
X85896535Y-88969500D01*
X85896530Y-88969500D01*
X85693587Y-89009868D01*
X85693579Y-89009870D01*
X85502403Y-89089058D01*
X85330342Y-89204024D01*
X85184024Y-89350342D01*
X85069058Y-89522403D01*
X84989870Y-89713579D01*
X84989868Y-89713587D01*
X84949500Y-89916530D01*
X84949500Y-90123469D01*
X84989868Y-90326412D01*
X84989870Y-90326420D01*
X85063406Y-90503952D01*
X85069059Y-90517598D01*
X85097324Y-90559900D01*
X85184024Y-90689657D01*
X85330342Y-90835975D01*
X85330345Y-90835977D01*
X85502402Y-90950941D01*
X85693580Y-91030130D01*
X85896530Y-91070499D01*
X85896534Y-91070500D01*
X85896535Y-91070500D01*
X86103466Y-91070500D01*
X86103467Y-91070499D01*
X86306420Y-91030130D01*
X86497598Y-90950941D01*
X86669655Y-90835977D01*
X86815977Y-90689655D01*
X86930941Y-90517598D01*
X86980875Y-90397046D01*
X87024716Y-90342644D01*
X87091010Y-90320579D01*
X87095436Y-90320500D01*
X87561324Y-90320500D01*
X87628363Y-90340185D01*
X87649005Y-90356819D01*
X87692686Y-90400500D01*
X87806814Y-90466392D01*
X87934108Y-90500500D01*
X87934110Y-90500500D01*
X88065890Y-90500500D01*
X88065892Y-90500500D01*
X88193186Y-90466392D01*
X88307314Y-90400500D01*
X88313295Y-90394518D01*
X88374613Y-90361034D01*
X88444305Y-90366015D01*
X88500240Y-90407884D01*
X88515534Y-90434739D01*
X88516731Y-90437628D01*
X88561047Y-90503952D01*
X88637523Y-90555052D01*
X88636871Y-90556027D01*
X88681510Y-90592002D01*
X88703573Y-90658297D01*
X88686292Y-90725996D01*
X88635153Y-90773605D01*
X88629737Y-90776154D01*
X88533125Y-90818811D01*
X88533120Y-90818814D01*
X88453814Y-90898120D01*
X88453811Y-90898125D01*
X88408510Y-91000722D01*
X88408510Y-91000724D01*
X88405600Y-91025805D01*
X88405600Y-91100000D01*
X90466099Y-91100000D01*
X90466099Y-91025814D01*
X90466097Y-91025791D01*
X90463191Y-91000730D01*
X90463190Y-91000726D01*
X90417888Y-90898125D01*
X90417885Y-90898120D01*
X90338579Y-90818814D01*
X90338576Y-90818812D01*
X90241962Y-90776153D01*
X90188586Y-90731067D01*
X90168058Y-90664281D01*
X90186896Y-90596998D01*
X90239119Y-90550582D01*
X90244298Y-90548288D01*
X90244328Y-90548267D01*
X90244331Y-90548267D01*
X90310652Y-90503952D01*
X90354967Y-90437631D01*
X90354967Y-90437629D01*
X90354968Y-90437629D01*
X90366599Y-90379152D01*
X90366600Y-90379150D01*
X90366600Y-89780849D01*
X90366599Y-89780847D01*
X90354968Y-89722370D01*
X90354967Y-89722369D01*
X90310652Y-89656047D01*
X90244330Y-89611732D01*
X90244329Y-89611731D01*
X90185852Y-89600100D01*
X90185848Y-89600100D01*
X88981433Y-89600100D01*
X88951992Y-89591455D01*
X88922006Y-89584932D01*
X88916990Y-89581177D01*
X88914394Y-89580415D01*
X88893752Y-89563781D01*
X88831552Y-89501581D01*
X88798067Y-89440258D01*
X88803051Y-89370566D01*
X88844923Y-89314633D01*
X88910387Y-89290216D01*
X88919233Y-89289900D01*
X90185850Y-89289900D01*
X90185851Y-89289899D01*
X90200668Y-89286952D01*
X90244329Y-89278268D01*
X90244329Y-89278267D01*
X90244331Y-89278267D01*
X90310652Y-89233952D01*
X90354967Y-89167631D01*
X90354967Y-89167630D01*
X90356318Y-89165609D01*
X90409930Y-89120804D01*
X90459420Y-89110500D01*
X91229560Y-89110500D01*
X91229562Y-89110500D01*
X91305989Y-89090021D01*
X91374511Y-89050460D01*
X91430460Y-88994511D01*
X91947819Y-88477152D01*
X92009142Y-88443667D01*
X92078834Y-88448651D01*
X92134767Y-88490523D01*
X92159184Y-88555987D01*
X92159500Y-88564833D01*
X92159500Y-89850817D01*
X92139815Y-89917856D01*
X92123181Y-89938498D01*
X90497998Y-91563681D01*
X90436675Y-91597166D01*
X90410317Y-91600000D01*
X88405601Y-91600000D01*
X88405601Y-91674185D01*
X88405602Y-91674208D01*
X88408508Y-91699269D01*
X88408509Y-91699273D01*
X88453811Y-91801874D01*
X88453814Y-91801879D01*
X88533120Y-91881185D01*
X88533125Y-91881188D01*
X88635723Y-91926489D01*
X88660806Y-91929399D01*
X89063424Y-91929399D01*
X89130463Y-91949083D01*
X89176218Y-92001887D01*
X89186162Y-92071046D01*
X89157137Y-92134602D01*
X89151106Y-92141079D01*
X89099503Y-92192682D01*
X89099500Y-92192686D01*
X89033608Y-92306812D01*
X88999500Y-92434108D01*
X88999500Y-92565892D01*
X89005188Y-92587119D01*
X89033608Y-92693187D01*
X89060902Y-92740460D01*
X89099500Y-92807314D01*
X89192686Y-92900500D01*
X89306814Y-92966392D01*
X89315528Y-92968726D01*
X89375186Y-93005088D01*
X89405717Y-93067934D01*
X89407435Y-93088501D01*
X89407435Y-93426065D01*
X89387750Y-93493104D01*
X89334946Y-93538859D01*
X89283435Y-93550065D01*
X87466398Y-93550065D01*
X87399359Y-93530380D01*
X87378717Y-93513746D01*
X86987075Y-93122104D01*
X86953590Y-93060781D01*
X86958574Y-92991089D01*
X86960163Y-92987049D01*
X87010130Y-92866420D01*
X87050500Y-92663465D01*
X87050500Y-92456535D01*
X87010130Y-92253580D01*
X86930941Y-92062402D01*
X86815977Y-91890345D01*
X86815975Y-91890342D01*
X86669657Y-91744024D01*
X86565134Y-91674185D01*
X86497598Y-91629059D01*
X86306420Y-91549870D01*
X86306412Y-91549868D01*
X86103469Y-91509500D01*
X86103465Y-91509500D01*
X85896535Y-91509500D01*
X85896530Y-91509500D01*
X85693587Y-91549868D01*
X85693579Y-91549870D01*
X85502403Y-91629058D01*
X85330342Y-91744024D01*
X85184024Y-91890342D01*
X85069058Y-92062403D01*
X84989870Y-92253579D01*
X84989868Y-92253587D01*
X84949500Y-92456530D01*
X84949500Y-92663469D01*
X84989868Y-92866412D01*
X84989870Y-92866420D01*
X85047308Y-93005088D01*
X85069059Y-93057598D01*
X85089708Y-93088501D01*
X85184024Y-93229657D01*
X85330342Y-93375975D01*
X85330345Y-93375977D01*
X85502402Y-93490941D01*
X85693580Y-93570130D01*
X85896530Y-93610499D01*
X85896534Y-93610500D01*
X85896535Y-93610500D01*
X86103466Y-93610500D01*
X86103467Y-93610499D01*
X86306420Y-93570130D01*
X86426974Y-93520194D01*
X86496438Y-93512726D01*
X86558918Y-93544000D01*
X86562104Y-93547075D01*
X86780502Y-93765473D01*
X86793169Y-93788671D01*
X86809009Y-93809837D01*
X86809652Y-93818858D01*
X86813987Y-93826796D01*
X86812101Y-93853164D01*
X86813983Y-93879530D01*
X86809648Y-93887465D01*
X86809003Y-93896488D01*
X86793159Y-93917651D01*
X86780489Y-93940848D01*
X86771097Y-93947122D01*
X86767131Y-93952421D01*
X86752232Y-93961995D01*
X86739581Y-93968899D01*
X86733446Y-93970544D01*
X86680582Y-94001065D01*
X86679339Y-94001782D01*
X86679287Y-94001811D01*
X86664922Y-94010105D01*
X86562102Y-94112924D01*
X86500779Y-94146408D01*
X86431087Y-94141423D01*
X86426969Y-94139803D01*
X86306420Y-94089870D01*
X86306412Y-94089868D01*
X86103469Y-94049500D01*
X86103465Y-94049500D01*
X85896535Y-94049500D01*
X85896530Y-94049500D01*
X85693587Y-94089868D01*
X85693579Y-94089870D01*
X85502403Y-94169058D01*
X85330342Y-94284024D01*
X85184024Y-94430342D01*
X85069058Y-94602403D01*
X84989870Y-94793579D01*
X84989868Y-94793587D01*
X84949500Y-94996530D01*
X84949500Y-95203469D01*
X84987310Y-95393550D01*
X84989870Y-95406420D01*
X85069059Y-95597598D01*
X85104385Y-95650467D01*
X85184024Y-95769657D01*
X85330342Y-95915975D01*
X85330345Y-95915977D01*
X85502402Y-96030941D01*
X85693580Y-96110130D01*
X85896530Y-96150499D01*
X85896534Y-96150500D01*
X85896535Y-96150500D01*
X86103464Y-96150500D01*
X86103465Y-96150500D01*
X86118988Y-96147412D01*
X86188577Y-96153638D01*
X86243756Y-96196500D01*
X86267002Y-96262389D01*
X86260419Y-96309415D01*
X86256531Y-96320699D01*
X86219979Y-96384011D01*
X86199500Y-96460438D01*
X86199500Y-96486259D01*
X86192739Y-96505886D01*
X86184045Y-96518131D01*
X86179815Y-96532539D01*
X86164231Y-96546042D01*
X86152293Y-96562859D01*
X86138359Y-96568460D01*
X86127011Y-96578294D01*
X86098438Y-96584509D01*
X86087466Y-96588921D01*
X86082514Y-96587974D01*
X86075500Y-96589500D01*
X85896530Y-96589500D01*
X85693587Y-96629868D01*
X85693579Y-96629870D01*
X85502403Y-96709058D01*
X85330342Y-96824024D01*
X85184024Y-96970342D01*
X85069058Y-97142403D01*
X84989870Y-97333579D01*
X84989868Y-97333587D01*
X84949500Y-97536530D01*
X84949500Y-97743469D01*
X84989868Y-97946412D01*
X84989870Y-97946420D01*
X85069059Y-98137598D01*
X85092372Y-98172489D01*
X85184024Y-98309657D01*
X85330342Y-98455975D01*
X85330345Y-98455977D01*
X85502402Y-98570941D01*
X85693580Y-98650130D01*
X85896530Y-98690499D01*
X85896534Y-98690500D01*
X85896535Y-98690500D01*
X86103466Y-98690500D01*
X86103467Y-98690499D01*
X86306420Y-98650130D01*
X86497598Y-98570941D01*
X86497599Y-98570940D01*
X86497600Y-98570940D01*
X86657610Y-98464026D01*
X86724287Y-98443148D01*
X86791667Y-98461633D01*
X86838357Y-98513612D01*
X86850500Y-98567128D01*
X86850500Y-98853166D01*
X86830815Y-98920205D01*
X86814181Y-98940847D01*
X86562104Y-99192923D01*
X86500781Y-99226408D01*
X86431089Y-99221424D01*
X86426971Y-99219803D01*
X86306424Y-99169871D01*
X86306412Y-99169868D01*
X86103469Y-99129500D01*
X86103465Y-99129500D01*
X85896535Y-99129500D01*
X85896530Y-99129500D01*
X85693587Y-99169868D01*
X85693579Y-99169870D01*
X85502403Y-99249058D01*
X85330342Y-99364024D01*
X85184024Y-99510342D01*
X85069058Y-99682403D01*
X84989870Y-99873579D01*
X84989868Y-99873587D01*
X84949500Y-100076530D01*
X84949500Y-100283469D01*
X84989614Y-100485133D01*
X84989870Y-100486420D01*
X85069059Y-100677598D01*
X85087614Y-100705368D01*
X85184024Y-100849657D01*
X85330342Y-100995975D01*
X85330345Y-100995977D01*
X85502402Y-101110941D01*
X85693580Y-101190130D01*
X85896530Y-101230499D01*
X85896534Y-101230500D01*
X85896535Y-101230500D01*
X86103466Y-101230500D01*
X86103467Y-101230499D01*
X86306420Y-101190130D01*
X86497598Y-101110941D01*
X86669655Y-100995977D01*
X86815977Y-100849655D01*
X86930941Y-100677598D01*
X87010130Y-100486420D01*
X87050500Y-100283465D01*
X87050500Y-100076535D01*
X87010130Y-99873580D01*
X86960194Y-99753026D01*
X86952726Y-99683559D01*
X86984001Y-99621080D01*
X86987044Y-99617926D01*
X87237820Y-99367150D01*
X87299142Y-99333666D01*
X87368834Y-99338650D01*
X87424767Y-99380522D01*
X87449184Y-99445986D01*
X87449500Y-99454832D01*
X87449500Y-100794166D01*
X87429815Y-100861205D01*
X87413181Y-100881847D01*
X86562104Y-101732923D01*
X86500781Y-101766408D01*
X86431089Y-101761424D01*
X86426971Y-101759803D01*
X86306424Y-101709871D01*
X86306412Y-101709868D01*
X86103469Y-101669500D01*
X86103465Y-101669500D01*
X85896535Y-101669500D01*
X85896530Y-101669500D01*
X85693587Y-101709868D01*
X85693579Y-101709870D01*
X85502403Y-101789058D01*
X85330342Y-101904024D01*
X85184024Y-102050342D01*
X85069058Y-102222403D01*
X84989870Y-102413579D01*
X84989868Y-102413587D01*
X84949500Y-102616530D01*
X84949500Y-102823469D01*
X84989868Y-103026412D01*
X84989870Y-103026420D01*
X85059495Y-103194510D01*
X85069059Y-103217598D01*
X85092864Y-103253225D01*
X85184024Y-103389657D01*
X85330342Y-103535975D01*
X85330345Y-103535977D01*
X85502402Y-103650941D01*
X85693580Y-103730130D01*
X85864707Y-103764169D01*
X85896530Y-103770499D01*
X85896534Y-103770500D01*
X85896535Y-103770500D01*
X86103466Y-103770500D01*
X86103467Y-103770499D01*
X86306420Y-103730130D01*
X86497598Y-103650941D01*
X86669655Y-103535977D01*
X86815977Y-103389655D01*
X86930941Y-103217598D01*
X87010130Y-103026420D01*
X87050500Y-102823465D01*
X87050500Y-102616535D01*
X87010130Y-102413580D01*
X86960194Y-102293026D01*
X86952726Y-102223559D01*
X86984001Y-102161080D01*
X86987045Y-102157924D01*
X87737820Y-101407150D01*
X87799142Y-101373666D01*
X87868834Y-101378650D01*
X87924767Y-101420522D01*
X87949184Y-101485986D01*
X87949500Y-101494832D01*
X87949500Y-102834166D01*
X87929815Y-102901205D01*
X87913181Y-102921847D01*
X86562104Y-104272923D01*
X86500781Y-104306408D01*
X86431089Y-104301424D01*
X86426971Y-104299803D01*
X86306424Y-104249871D01*
X86306412Y-104249868D01*
X86103469Y-104209500D01*
X86103465Y-104209500D01*
X85896535Y-104209500D01*
X85896530Y-104209500D01*
X85693587Y-104249868D01*
X85693579Y-104249870D01*
X85502403Y-104329058D01*
X85330342Y-104444024D01*
X85184024Y-104590342D01*
X85069058Y-104762403D01*
X84989870Y-104953579D01*
X84989868Y-104953587D01*
X84949500Y-105156530D01*
X84949500Y-105363469D01*
X84989868Y-105566412D01*
X84989870Y-105566420D01*
X85029278Y-105661560D01*
X85069059Y-105757598D01*
X85105425Y-105812024D01*
X85184024Y-105929657D01*
X85330342Y-106075975D01*
X85330345Y-106075977D01*
X85502402Y-106190941D01*
X85693580Y-106270130D01*
X85868970Y-106305017D01*
X85896530Y-106310499D01*
X85896534Y-106310500D01*
X85896535Y-106310500D01*
X86103466Y-106310500D01*
X86103467Y-106310499D01*
X86306420Y-106270130D01*
X86497598Y-106190941D01*
X86669655Y-106075977D01*
X86815977Y-105929655D01*
X86930941Y-105757598D01*
X87010130Y-105566420D01*
X87050500Y-105363465D01*
X87050500Y-105156535D01*
X87010130Y-104953580D01*
X86960194Y-104833026D01*
X86952726Y-104763559D01*
X86984001Y-104701080D01*
X86987046Y-104697923D01*
X87513319Y-104171650D01*
X87574642Y-104138166D01*
X87644334Y-104143150D01*
X87700267Y-104185022D01*
X87709335Y-104209335D01*
X87725000Y-104225000D01*
X88250000Y-104225000D01*
X88750000Y-104225000D01*
X89249201Y-104225000D01*
X89249201Y-104084799D01*
X89211925Y-103990276D01*
X89211922Y-103990270D01*
X89124721Y-103875278D01*
X89009729Y-103788077D01*
X88875467Y-103735131D01*
X88791102Y-103725000D01*
X88750000Y-103725000D01*
X88750000Y-104225000D01*
X88250000Y-104225000D01*
X88250000Y-103741873D01*
X88192976Y-103705751D01*
X88192697Y-103705433D01*
X88192294Y-103705315D01*
X88169718Y-103679261D01*
X88146878Y-103653247D01*
X88146815Y-103652829D01*
X88146539Y-103652511D01*
X88141625Y-103618337D01*
X88136482Y-103584155D01*
X88136654Y-103583769D01*
X88136595Y-103583353D01*
X88150948Y-103551922D01*
X88165092Y-103520411D01*
X88165444Y-103520181D01*
X88165620Y-103519797D01*
X88171652Y-103513319D01*
X88317427Y-103367544D01*
X88490460Y-103194511D01*
X88530022Y-103125988D01*
X88550500Y-103049562D01*
X88550500Y-103041102D01*
X89102056Y-103041102D01*
X89112187Y-103125467D01*
X89112187Y-103125468D01*
X89165133Y-103259729D01*
X89252334Y-103374721D01*
X89367326Y-103461922D01*
X89367332Y-103461925D01*
X89477139Y-103505228D01*
X89532283Y-103548133D01*
X89555476Y-103614041D01*
X89545084Y-103670667D01*
X89500111Y-103772522D01*
X89500111Y-103772524D01*
X89497201Y-103797605D01*
X89497201Y-104401200D01*
X89797201Y-104401200D01*
X89797201Y-103655000D01*
X89726056Y-103655000D01*
X89659017Y-103635315D01*
X89613262Y-103582511D01*
X89602056Y-103531000D01*
X89602056Y-103000000D01*
X89102056Y-103000000D01*
X89102056Y-103041102D01*
X88550500Y-103041102D01*
X88550500Y-102970438D01*
X88550500Y-102458897D01*
X89102056Y-102458897D01*
X89102056Y-102500000D01*
X89602056Y-102500000D01*
X89602056Y-101975000D01*
X89585961Y-101975000D01*
X89544568Y-101979970D01*
X89422513Y-102016314D01*
X89367326Y-102038077D01*
X89252334Y-102125278D01*
X89165133Y-102240270D01*
X89112187Y-102374531D01*
X89112187Y-102374532D01*
X89102056Y-102458897D01*
X88550500Y-102458897D01*
X88550500Y-101268053D01*
X88877056Y-101268053D01*
X88887669Y-101356443D01*
X88943135Y-101497095D01*
X89034491Y-101617564D01*
X89154960Y-101708920D01*
X89295612Y-101764386D01*
X89369693Y-101773281D01*
X89427056Y-101756201D01*
X89427056Y-101000000D01*
X88877056Y-101000000D01*
X88877056Y-101268053D01*
X88550500Y-101268053D01*
X88550500Y-99683883D01*
X88570185Y-99616844D01*
X88622989Y-99571089D01*
X88692147Y-99561145D01*
X88730796Y-99573399D01*
X88748255Y-99582295D01*
X88748257Y-99582296D01*
X88842034Y-99597148D01*
X88842040Y-99597149D01*
X89041961Y-99597148D01*
X89108999Y-99616832D01*
X89154754Y-99669636D01*
X89164698Y-99738794D01*
X89135673Y-99802350D01*
X89116886Y-99819951D01*
X89034493Y-99882432D01*
X88943135Y-100002904D01*
X88887669Y-100143556D01*
X88877056Y-100231946D01*
X88877056Y-100500000D01*
X89427056Y-100500000D01*
X89427056Y-99707493D01*
X89446741Y-99640454D01*
X89499545Y-99594699D01*
X89531656Y-99585019D01*
X89548863Y-99582295D01*
X89661901Y-99524699D01*
X89751609Y-99434991D01*
X89809205Y-99321953D01*
X89809205Y-99321951D01*
X89809206Y-99321950D01*
X89820750Y-99249058D01*
X89824059Y-99228168D01*
X89824058Y-99075563D01*
X89843742Y-99008526D01*
X89896546Y-98962771D01*
X89965704Y-98952827D01*
X90029260Y-98981852D01*
X90052927Y-99013884D01*
X90053801Y-99013286D01*
X90060294Y-99022765D01*
X90139735Y-99102206D01*
X90242509Y-99147585D01*
X90267635Y-99150500D01*
X90625167Y-99150499D01*
X90692205Y-99170183D01*
X90737960Y-99222987D01*
X90747904Y-99292146D01*
X90718879Y-99355701D01*
X90712848Y-99362180D01*
X90564687Y-99510342D01*
X90440491Y-99634538D01*
X90384542Y-99690487D01*
X90351684Y-99747398D01*
X90345933Y-99754625D01*
X90324604Y-99769627D01*
X90305730Y-99787624D01*
X90296485Y-99789405D01*
X90288785Y-99794822D01*
X90262731Y-99795911D01*
X90237123Y-99800847D01*
X90223402Y-99797555D01*
X90218976Y-99797741D01*
X90215365Y-99795628D01*
X90203420Y-99792763D01*
X90058499Y-99735613D01*
X89970110Y-99725000D01*
X89927056Y-99725000D01*
X89927056Y-101775000D01*
X89970117Y-101775000D01*
X89991342Y-101772451D01*
X90060250Y-101784001D01*
X90111975Y-101830973D01*
X90130093Y-101898453D01*
X90108854Y-101965016D01*
X90102056Y-101973253D01*
X90102056Y-103412400D01*
X90116482Y-103426826D01*
X90149967Y-103488149D01*
X90152801Y-103514507D01*
X90152801Y-104455000D01*
X90133116Y-104522039D01*
X90080312Y-104567794D01*
X90028801Y-104579000D01*
X89975001Y-104579000D01*
X89975001Y-104632800D01*
X89955316Y-104699839D01*
X89902512Y-104745594D01*
X89851001Y-104756800D01*
X89514421Y-104756800D01*
X89497202Y-104896380D01*
X89497202Y-105360385D01*
X89497203Y-105360408D01*
X89500109Y-105385469D01*
X89500110Y-105385473D01*
X89545412Y-105488074D01*
X89545415Y-105488079D01*
X89570155Y-105512819D01*
X89580767Y-105532255D01*
X89595268Y-105548989D01*
X89597184Y-105562320D01*
X89603640Y-105574142D01*
X89602060Y-105596228D01*
X89605212Y-105618147D01*
X89599616Y-105630398D01*
X89598656Y-105643834D01*
X89585385Y-105661560D01*
X89576187Y-105681703D01*
X89564855Y-105688985D01*
X89556784Y-105699767D01*
X89536038Y-105707504D01*
X89517409Y-105719477D01*
X89495490Y-105722628D01*
X89491320Y-105724184D01*
X89482474Y-105724500D01*
X89265068Y-105724500D01*
X89198029Y-105704815D01*
X89154583Y-105656795D01*
X89098528Y-105546780D01*
X89098524Y-105546776D01*
X89098523Y-105546774D01*
X89003225Y-105451476D01*
X89003222Y-105451474D01*
X89003220Y-105451472D01*
X88930859Y-105414602D01*
X88880064Y-105366628D01*
X88863269Y-105298807D01*
X88885807Y-105232672D01*
X88940522Y-105189221D01*
X88941666Y-105188763D01*
X89009727Y-105161923D01*
X89009729Y-105161922D01*
X89124721Y-105074721D01*
X89211922Y-104959729D01*
X89252065Y-104857933D01*
X89268464Y-104725000D01*
X87725000Y-104725000D01*
X87725000Y-104741102D01*
X87735131Y-104825467D01*
X87735131Y-104825468D01*
X87788077Y-104959729D01*
X87875278Y-105074721D01*
X87990270Y-105161922D01*
X88058334Y-105188763D01*
X88113478Y-105231669D01*
X88136671Y-105297577D01*
X88120551Y-105365561D01*
X88070234Y-105414038D01*
X88069140Y-105414602D01*
X87996781Y-105451471D01*
X87996774Y-105451476D01*
X87901476Y-105546774D01*
X87901473Y-105546778D01*
X87901472Y-105546780D01*
X87852021Y-105643834D01*
X87840279Y-105666878D01*
X87824500Y-105766506D01*
X87824500Y-106283493D01*
X87840279Y-106383121D01*
X87840280Y-106383124D01*
X87840281Y-106383126D01*
X87901472Y-106503220D01*
X87901473Y-106503221D01*
X87901476Y-106503225D01*
X87996774Y-106598523D01*
X87996778Y-106598526D01*
X87996780Y-106598528D01*
X88116874Y-106659719D01*
X88116876Y-106659719D01*
X88116878Y-106659720D01*
X88216507Y-106675500D01*
X88216512Y-106675500D01*
X88783493Y-106675500D01*
X88883121Y-106659720D01*
X88883121Y-106659719D01*
X88883126Y-106659719D01*
X89003220Y-106598528D01*
X89098528Y-106503220D01*
X89154584Y-106393203D01*
X89202558Y-106342409D01*
X89265068Y-106325500D01*
X90155162Y-106325500D01*
X90155164Y-106325500D01*
X90231591Y-106305021D01*
X90300113Y-106265460D01*
X90356062Y-106209511D01*
X90865462Y-105700111D01*
X90867711Y-105696215D01*
X90905023Y-105631589D01*
X90915841Y-105591213D01*
X90920344Y-105581502D01*
X90936598Y-105562958D01*
X90949432Y-105541903D01*
X90959224Y-105537145D01*
X90966400Y-105528960D01*
X90990098Y-105522148D01*
X91012279Y-105511373D01*
X91026830Y-105511589D01*
X91033550Y-105509658D01*
X91040679Y-105511795D01*
X91057035Y-105512039D01*
X91077450Y-105516100D01*
X91472075Y-105516100D01*
X91539114Y-105535785D01*
X91559756Y-105552419D01*
X91574722Y-105567385D01*
X91574727Y-105567388D01*
X91677325Y-105612689D01*
X91702407Y-105615599D01*
X91747201Y-105615599D01*
X91747202Y-105615598D01*
X91747202Y-103492319D01*
X91766887Y-103425280D01*
X91814906Y-103381835D01*
X91880276Y-103348528D01*
X91975584Y-103253220D01*
X92036775Y-103133126D01*
X92036776Y-103133121D01*
X92052556Y-103033493D01*
X92052556Y-102466506D01*
X92036776Y-102366878D01*
X92036775Y-102366876D01*
X92036775Y-102366874D01*
X91975584Y-102246780D01*
X91975582Y-102246778D01*
X91975579Y-102246774D01*
X91913875Y-102185070D01*
X91880390Y-102123747D01*
X91877556Y-102097389D01*
X91877556Y-101772595D01*
X91897241Y-101705556D01*
X91950045Y-101659801D01*
X91960579Y-101655561D01*
X92039938Y-101627793D01*
X92149206Y-101547150D01*
X92149208Y-101547146D01*
X92156355Y-101541872D01*
X92221983Y-101517901D01*
X92290154Y-101533216D01*
X92339222Y-101582956D01*
X92345343Y-101596152D01*
X92390130Y-101709723D01*
X92390133Y-101709729D01*
X92477334Y-101824721D01*
X92592326Y-101911922D01*
X92660390Y-101938763D01*
X92715534Y-101981669D01*
X92738727Y-102047577D01*
X92722607Y-102115561D01*
X92672290Y-102164038D01*
X92671196Y-102164602D01*
X92598837Y-102201471D01*
X92598830Y-102201476D01*
X92503532Y-102296774D01*
X92503529Y-102296778D01*
X92442335Y-102416878D01*
X92426556Y-102516506D01*
X92426556Y-102974167D01*
X92406871Y-103041206D01*
X92390237Y-103061848D01*
X92334542Y-103117542D01*
X92334536Y-103117550D01*
X92294983Y-103186059D01*
X92294980Y-103186064D01*
X92286531Y-103217596D01*
X92276985Y-103253225D01*
X92274501Y-103262494D01*
X92274501Y-103418400D01*
X92254816Y-103485439D01*
X92202012Y-103531194D01*
X92150501Y-103542400D01*
X92102802Y-103542400D01*
X92102802Y-105615599D01*
X92147588Y-105615599D01*
X92147610Y-105615597D01*
X92172671Y-105612691D01*
X92172672Y-105612691D01*
X92275282Y-105567384D01*
X92275284Y-105567383D01*
X92290249Y-105552419D01*
X92351572Y-105518934D01*
X92377930Y-105516100D01*
X92772072Y-105516100D01*
X92839111Y-105535785D01*
X92859753Y-105552419D01*
X92874719Y-105567385D01*
X92874724Y-105567388D01*
X92977322Y-105612689D01*
X93002404Y-105615599D01*
X93047198Y-105615599D01*
X93047199Y-105615598D01*
X93047199Y-104703000D01*
X93049749Y-104694314D01*
X93048461Y-104685353D01*
X93059439Y-104661312D01*
X93066884Y-104635961D01*
X93073724Y-104630033D01*
X93077486Y-104621797D01*
X93099720Y-104607507D01*
X93119688Y-104590206D01*
X93130202Y-104587918D01*
X93136264Y-104584023D01*
X93171199Y-104579000D01*
X93278799Y-104579000D01*
X93345838Y-104598685D01*
X93391593Y-104651489D01*
X93402799Y-104703000D01*
X93402799Y-105615599D01*
X93447585Y-105615599D01*
X93447607Y-105615597D01*
X93472668Y-105612691D01*
X93472669Y-105612691D01*
X93575279Y-105567384D01*
X93575281Y-105567383D01*
X93590246Y-105552419D01*
X93651569Y-105518934D01*
X93677927Y-105516100D01*
X94072072Y-105516100D01*
X94139111Y-105535785D01*
X94159753Y-105552419D01*
X94174719Y-105567385D01*
X94174724Y-105567388D01*
X94277322Y-105612689D01*
X94302404Y-105615599D01*
X94347198Y-105615599D01*
X94347199Y-105615598D01*
X94347199Y-104703000D01*
X94366884Y-104635961D01*
X94419688Y-104590206D01*
X94471199Y-104579000D01*
X94524999Y-104579000D01*
X94524999Y-104525200D01*
X94544684Y-104458161D01*
X94597488Y-104412406D01*
X94648999Y-104401200D01*
X95002798Y-104401200D01*
X95002798Y-103797614D01*
X95002796Y-103797591D01*
X94999890Y-103772530D01*
X94999889Y-103772526D01*
X94954587Y-103669925D01*
X94954584Y-103669920D01*
X94913064Y-103628400D01*
X94879579Y-103567077D01*
X94884563Y-103497385D01*
X94926435Y-103441452D01*
X94981348Y-103418246D01*
X95035177Y-103409720D01*
X95035177Y-103409719D01*
X95035182Y-103409719D01*
X95155276Y-103348528D01*
X95250584Y-103253220D01*
X95311775Y-103133126D01*
X95311776Y-103133121D01*
X95327556Y-103033493D01*
X95327556Y-102516507D01*
X95314319Y-102432938D01*
X95323273Y-102363645D01*
X95349108Y-102325861D01*
X95740460Y-101934511D01*
X95765149Y-101891748D01*
X95780021Y-101865989D01*
X95800500Y-101789562D01*
X95800500Y-100675833D01*
X95820185Y-100608794D01*
X95836819Y-100588152D01*
X96204241Y-100220730D01*
X96603960Y-99821011D01*
X96639756Y-99759010D01*
X96643521Y-99752489D01*
X96664000Y-99676062D01*
X96664000Y-97061439D01*
X96658379Y-97040460D01*
X96643522Y-96985013D01*
X96603960Y-96916490D01*
X96247010Y-96559540D01*
X96241214Y-96555092D01*
X96216896Y-96529425D01*
X96193357Y-96505886D01*
X96135265Y-96447794D01*
X96111007Y-96437083D01*
X96032492Y-96402415D01*
X96007368Y-96399500D01*
X96007365Y-96399500D01*
X95325833Y-96399500D01*
X95258794Y-96379815D01*
X95238152Y-96363181D01*
X95110722Y-96235751D01*
X95077237Y-96174428D01*
X95082221Y-96104736D01*
X95124093Y-96048803D01*
X95189557Y-96024386D01*
X95243893Y-96032716D01*
X95262024Y-96039866D01*
X95262032Y-96039868D01*
X95346398Y-96050000D01*
X95362500Y-96050000D01*
X95862500Y-96050000D01*
X95878602Y-96050000D01*
X95962967Y-96039868D01*
X95962968Y-96039868D01*
X96097229Y-95986922D01*
X96212221Y-95899721D01*
X96299422Y-95784729D01*
X96352368Y-95650468D01*
X96352368Y-95650467D01*
X96362500Y-95566102D01*
X96362500Y-95525000D01*
X95862500Y-95525000D01*
X95862500Y-96050000D01*
X95362500Y-96050000D01*
X95362500Y-95025000D01*
X95862500Y-95025000D01*
X96362500Y-95025000D01*
X96362500Y-95016530D01*
X97699500Y-95016530D01*
X97699500Y-95223469D01*
X97739868Y-95426412D01*
X97739870Y-95426420D01*
X97801233Y-95574564D01*
X97819059Y-95617598D01*
X97846139Y-95658126D01*
X97934024Y-95789657D01*
X98080342Y-95935975D01*
X98080345Y-95935977D01*
X98252402Y-96050941D01*
X98443580Y-96130130D01*
X98646530Y-96170499D01*
X98646534Y-96170500D01*
X98646535Y-96170500D01*
X98853466Y-96170500D01*
X98853467Y-96170499D01*
X99056420Y-96130130D01*
X99247598Y-96050941D01*
X99419655Y-95935977D01*
X99565977Y-95789655D01*
X99680941Y-95617598D01*
X99760130Y-95426420D01*
X99800500Y-95223465D01*
X99800500Y-95016535D01*
X99760130Y-94813580D01*
X99680941Y-94622402D01*
X99565977Y-94450345D01*
X99565975Y-94450342D01*
X99419657Y-94304024D01*
X99295813Y-94221275D01*
X99247598Y-94189059D01*
X99237318Y-94184801D01*
X99056420Y-94109870D01*
X99056412Y-94109868D01*
X98853469Y-94069500D01*
X98853465Y-94069500D01*
X98646535Y-94069500D01*
X98646530Y-94069500D01*
X98443587Y-94109868D01*
X98443579Y-94109870D01*
X98252403Y-94189058D01*
X98080342Y-94304024D01*
X97934024Y-94450342D01*
X97819058Y-94622403D01*
X97739870Y-94813579D01*
X97739868Y-94813587D01*
X97699500Y-95016530D01*
X96362500Y-95016530D01*
X96362500Y-94983897D01*
X96352368Y-94899532D01*
X96352368Y-94899531D01*
X96299422Y-94765270D01*
X96212221Y-94650278D01*
X96097229Y-94563077D01*
X96042042Y-94541314D01*
X95919980Y-94504968D01*
X95878604Y-94500000D01*
X95862500Y-94500000D01*
X95862500Y-95025000D01*
X95362500Y-95025000D01*
X95362500Y-94493143D01*
X95359725Y-94488063D01*
X95357049Y-94490642D01*
X95314445Y-94503837D01*
X95262032Y-94510131D01*
X95262031Y-94510131D01*
X95127770Y-94563077D01*
X95012778Y-94650278D01*
X94925577Y-94765270D01*
X94925575Y-94765274D01*
X94898735Y-94833335D01*
X94855829Y-94888479D01*
X94789921Y-94911671D01*
X94721936Y-94895550D01*
X94673460Y-94845233D01*
X94672963Y-94844269D01*
X94636028Y-94771780D01*
X94636026Y-94771778D01*
X94636023Y-94771774D01*
X94540725Y-94676476D01*
X94540721Y-94676473D01*
X94540720Y-94676472D01*
X94420626Y-94615281D01*
X94420624Y-94615280D01*
X94420621Y-94615279D01*
X94320993Y-94599500D01*
X94320988Y-94599500D01*
X94312000Y-94599500D01*
X94303314Y-94596949D01*
X94294353Y-94598238D01*
X94270312Y-94587259D01*
X94244961Y-94579815D01*
X94239033Y-94572974D01*
X94230797Y-94569213D01*
X94216507Y-94546978D01*
X94199206Y-94527011D01*
X94196918Y-94516496D01*
X94193023Y-94510435D01*
X94188000Y-94475500D01*
X94188000Y-94297595D01*
X94207685Y-94230556D01*
X94260489Y-94184801D01*
X94271023Y-94180561D01*
X94350382Y-94152793D01*
X94459650Y-94072150D01*
X94540293Y-93962882D01*
X94563525Y-93896488D01*
X94585146Y-93834701D01*
X94585146Y-93834699D01*
X94588000Y-93804269D01*
X94588000Y-93793053D01*
X94987500Y-93793053D01*
X94998113Y-93881443D01*
X95053579Y-94022095D01*
X95144935Y-94142564D01*
X95265404Y-94233920D01*
X95345149Y-94265367D01*
X95400293Y-94308273D01*
X95402468Y-94314454D01*
X95449582Y-94296882D01*
X95473213Y-94297451D01*
X95494439Y-94300000D01*
X95537500Y-94300000D01*
X95537500Y-94281201D01*
X96037500Y-94281201D01*
X96094861Y-94298281D01*
X96168943Y-94289386D01*
X96309595Y-94233920D01*
X96430064Y-94142564D01*
X96521420Y-94022095D01*
X96576886Y-93881443D01*
X96587500Y-93793053D01*
X96587500Y-93525000D01*
X96037500Y-93525000D01*
X96037500Y-94281201D01*
X95537500Y-94281201D01*
X95537500Y-93525000D01*
X94987500Y-93525000D01*
X94987500Y-93793053D01*
X94588000Y-93793053D01*
X94588000Y-93050832D01*
X94596644Y-93021391D01*
X94603168Y-92991405D01*
X94606922Y-92986389D01*
X94607685Y-92983793D01*
X94624314Y-92963156D01*
X94775821Y-92811649D01*
X94837142Y-92778166D01*
X94906834Y-92783150D01*
X94962767Y-92825022D01*
X94987184Y-92890486D01*
X94987500Y-92899332D01*
X94987500Y-93025000D01*
X96587500Y-93025000D01*
X96587500Y-92756946D01*
X96576886Y-92668556D01*
X96530524Y-92550990D01*
X96524243Y-92481403D01*
X96526787Y-92476530D01*
X97699500Y-92476530D01*
X97699500Y-92683469D01*
X97739868Y-92886412D01*
X97739870Y-92886420D01*
X97795277Y-93020185D01*
X97819059Y-93077598D01*
X97833695Y-93099502D01*
X97934024Y-93249657D01*
X98080342Y-93395975D01*
X98080345Y-93395977D01*
X98252402Y-93510941D01*
X98443580Y-93590130D01*
X98646530Y-93630499D01*
X98646534Y-93630500D01*
X98646535Y-93630500D01*
X98853466Y-93630500D01*
X98853467Y-93630499D01*
X99056420Y-93590130D01*
X99247598Y-93510941D01*
X99419655Y-93395977D01*
X99565977Y-93249655D01*
X99680941Y-93077598D01*
X99760130Y-92886420D01*
X99800500Y-92683465D01*
X99800500Y-92476535D01*
X99760130Y-92273580D01*
X99680941Y-92082402D01*
X99565977Y-91910345D01*
X99565975Y-91910342D01*
X99419657Y-91764024D01*
X99247731Y-91649148D01*
X99247598Y-91649059D01*
X99056420Y-91569870D01*
X99056412Y-91569868D01*
X98853469Y-91529500D01*
X98853465Y-91529500D01*
X98646535Y-91529500D01*
X98646530Y-91529500D01*
X98443587Y-91569868D01*
X98443579Y-91569870D01*
X98252403Y-91649058D01*
X98080342Y-91764024D01*
X97934024Y-91910342D01*
X97819058Y-92082403D01*
X97739870Y-92273579D01*
X97739868Y-92273587D01*
X97699500Y-92476530D01*
X96526787Y-92476530D01*
X96556580Y-92419467D01*
X96617269Y-92384846D01*
X96645879Y-92381500D01*
X96808503Y-92381500D01*
X96808505Y-92381500D01*
X96884932Y-92361021D01*
X96953454Y-92321460D01*
X97009403Y-92265511D01*
X98230282Y-91044630D01*
X98291603Y-91011147D01*
X98361294Y-91016131D01*
X98365414Y-91017752D01*
X98443580Y-91050130D01*
X98646530Y-91090499D01*
X98646534Y-91090500D01*
X98646535Y-91090500D01*
X98853466Y-91090500D01*
X98853467Y-91090499D01*
X99056420Y-91050130D01*
X99247598Y-90970941D01*
X99419655Y-90855977D01*
X99565977Y-90709655D01*
X99680941Y-90537598D01*
X99760130Y-90346420D01*
X99800500Y-90143465D01*
X99800500Y-89936535D01*
X99760130Y-89733580D01*
X99680941Y-89542402D01*
X99565977Y-89370345D01*
X99565975Y-89370342D01*
X99419657Y-89224024D01*
X99332232Y-89165609D01*
X99247598Y-89109059D01*
X99201636Y-89090021D01*
X99056420Y-89029870D01*
X99056412Y-89029868D01*
X98853469Y-88989500D01*
X98853465Y-88989500D01*
X98646535Y-88989500D01*
X98646530Y-88989500D01*
X98443587Y-89029868D01*
X98443579Y-89029870D01*
X98252403Y-89109058D01*
X98080342Y-89224024D01*
X97934024Y-89370342D01*
X97819058Y-89542403D01*
X97739870Y-89733579D01*
X97739868Y-89733587D01*
X97699500Y-89936530D01*
X97699500Y-90143469D01*
X97739868Y-90346412D01*
X97739871Y-90346424D01*
X97807360Y-90509357D01*
X97814829Y-90578826D01*
X97783554Y-90641305D01*
X97780480Y-90644490D01*
X97156210Y-91268760D01*
X97094887Y-91302245D01*
X97025195Y-91297261D01*
X96969262Y-91255389D01*
X96961142Y-91243080D01*
X96920500Y-91172686D01*
X96827314Y-91079500D01*
X96741803Y-91030130D01*
X96713187Y-91013608D01*
X96633920Y-90992369D01*
X96585892Y-90979500D01*
X96454108Y-90979500D01*
X96326812Y-91013608D01*
X96212686Y-91079500D01*
X96212683Y-91079502D01*
X96149005Y-91143181D01*
X96122077Y-91157884D01*
X96096259Y-91174477D01*
X96090058Y-91175368D01*
X96087682Y-91176666D01*
X96061324Y-91179500D01*
X95938900Y-91179500D01*
X95871861Y-91159815D01*
X95826106Y-91107011D01*
X95814900Y-91055500D01*
X95814900Y-91050849D01*
X95814899Y-91050847D01*
X95803268Y-90992370D01*
X95803267Y-90992369D01*
X95758952Y-90926047D01*
X95692630Y-90881732D01*
X95692629Y-90881731D01*
X95634152Y-90870100D01*
X95634148Y-90870100D01*
X94604233Y-90870100D01*
X94582987Y-90863861D01*
X94560899Y-90862282D01*
X94550115Y-90854209D01*
X94537194Y-90850415D01*
X94522694Y-90833681D01*
X94504966Y-90820410D01*
X94500258Y-90807789D01*
X94491439Y-90797611D01*
X94488287Y-90775693D01*
X94480549Y-90754946D01*
X94483411Y-90741785D01*
X94481495Y-90728453D01*
X94490694Y-90708309D01*
X94495401Y-90686673D01*
X94508669Y-90668947D01*
X94510520Y-90664897D01*
X94516552Y-90658419D01*
X94578752Y-90596219D01*
X94640075Y-90562734D01*
X94666433Y-90559900D01*
X95634150Y-90559900D01*
X95634151Y-90559899D01*
X95658521Y-90555052D01*
X95692629Y-90548268D01*
X95692629Y-90548267D01*
X95692631Y-90548267D01*
X95758952Y-90503952D01*
X95803267Y-90437631D01*
X95803267Y-90437630D01*
X95804618Y-90435609D01*
X95858230Y-90390804D01*
X95907720Y-90380500D01*
X95959560Y-90380500D01*
X95959562Y-90380500D01*
X96035989Y-90360021D01*
X96104511Y-90320460D01*
X96160460Y-90264511D01*
X97740911Y-88684059D01*
X97802230Y-88650577D01*
X97842886Y-88648570D01*
X97855205Y-88649999D01*
X98499999Y-88649999D01*
X98500000Y-88649998D01*
X98500000Y-87933012D01*
X98557007Y-87965925D01*
X98684174Y-88000000D01*
X98815826Y-88000000D01*
X98942993Y-87965925D01*
X99000000Y-87933012D01*
X99000000Y-88649999D01*
X99644786Y-88649999D01*
X99644808Y-88649997D01*
X99669869Y-88647091D01*
X99669873Y-88647090D01*
X99772474Y-88601788D01*
X99772479Y-88601785D01*
X99851785Y-88522479D01*
X99851788Y-88522474D01*
X99897089Y-88419877D01*
X99897089Y-88419875D01*
X99899999Y-88394794D01*
X99900000Y-88394791D01*
X99900000Y-87750000D01*
X99183012Y-87750000D01*
X99215925Y-87692993D01*
X99250000Y-87565826D01*
X99250000Y-87434174D01*
X99215925Y-87307007D01*
X99183012Y-87250000D01*
X99899999Y-87250000D01*
X99899999Y-86605214D01*
X99899997Y-86605191D01*
X99897091Y-86580130D01*
X99897090Y-86580126D01*
X99851788Y-86477525D01*
X99851785Y-86477520D01*
X99772479Y-86398214D01*
X99772474Y-86398211D01*
X99669876Y-86352910D01*
X99644794Y-86350000D01*
X99000000Y-86350000D01*
X99000000Y-87066988D01*
X98942993Y-87034075D01*
X98815826Y-87000000D01*
X98684174Y-87000000D01*
X98557007Y-87034075D01*
X98500000Y-87066988D01*
X98500000Y-86350000D01*
X98023500Y-86350000D01*
X98014814Y-86347449D01*
X98005853Y-86348738D01*
X97981812Y-86337759D01*
X97956461Y-86330315D01*
X97950533Y-86323474D01*
X97942297Y-86319713D01*
X97928007Y-86297478D01*
X97910706Y-86277511D01*
X97908418Y-86266996D01*
X97904523Y-86260935D01*
X97899500Y-86226000D01*
X97899500Y-86036832D01*
X97919185Y-85969793D01*
X97935815Y-85949155D01*
X98498152Y-85386817D01*
X98559475Y-85353333D01*
X98585833Y-85350499D01*
X98779856Y-85350499D01*
X98779864Y-85350499D01*
X98779879Y-85350497D01*
X98779882Y-85350497D01*
X98804987Y-85347586D01*
X98804988Y-85347585D01*
X98804991Y-85347585D01*
X98907765Y-85302206D01*
X98987206Y-85222765D01*
X99032585Y-85119991D01*
X99035500Y-85094865D01*
X99035499Y-84805136D01*
X99035497Y-84805117D01*
X99032586Y-84780012D01*
X99032585Y-84780008D01*
X98986257Y-84675086D01*
X98977185Y-84605808D01*
X98986257Y-84574913D01*
X98987204Y-84572766D01*
X98987206Y-84572765D01*
X99032585Y-84469991D01*
X99035500Y-84444865D01*
X99035499Y-84155136D01*
X99034357Y-84145287D01*
X99032586Y-84130012D01*
X99030137Y-84121011D01*
X99031385Y-84120671D01*
X99023544Y-84060811D01*
X99053364Y-83997624D01*
X99058374Y-83992311D01*
X99062639Y-83988045D01*
X99062640Y-83988044D01*
X99120166Y-83875143D01*
X99124149Y-83850000D01*
X97895851Y-83850000D01*
X97899833Y-83875145D01*
X97955149Y-83983709D01*
X97968045Y-84052378D01*
X97941768Y-84117118D01*
X97932345Y-84127684D01*
X97748181Y-84311848D01*
X97686858Y-84345333D01*
X97617166Y-84340349D01*
X97561233Y-84298477D01*
X97536816Y-84233013D01*
X97536500Y-84224167D01*
X97536500Y-83450000D01*
X97895851Y-83450000D01*
X98310000Y-83450000D01*
X98710000Y-83450000D01*
X99124148Y-83450000D01*
X99120166Y-83424856D01*
X99062639Y-83311953D01*
X99062636Y-83311949D01*
X98973050Y-83222363D01*
X98973046Y-83222360D01*
X98860144Y-83164833D01*
X98766486Y-83150000D01*
X98710000Y-83150000D01*
X98710000Y-83450000D01*
X98310000Y-83450000D01*
X98310000Y-83150000D01*
X98309999Y-83149999D01*
X98253521Y-83150000D01*
X98159849Y-83164835D01*
X98159844Y-83164837D01*
X98046958Y-83222356D01*
X98046949Y-83222363D01*
X97957363Y-83311949D01*
X97957360Y-83311953D01*
X97899833Y-83424856D01*
X97895851Y-83450000D01*
X97536500Y-83450000D01*
X97536500Y-83196440D01*
X97536500Y-83196438D01*
X97524191Y-83150500D01*
X97516022Y-83120012D01*
X97476460Y-83051489D01*
X97087152Y-82662181D01*
X97053667Y-82600858D01*
X97058651Y-82531166D01*
X97100523Y-82475233D01*
X97165987Y-82450816D01*
X97174833Y-82450500D01*
X100325500Y-82450500D01*
X100392539Y-82470185D01*
X100438294Y-82522989D01*
X100449500Y-82574500D01*
X100449500Y-106383310D01*
X100429815Y-106450349D01*
X100377011Y-106496104D01*
X100307853Y-106506048D01*
X100244297Y-106477023D01*
X100206523Y-106418245D01*
X100202561Y-106399497D01*
X100201500Y-106391440D01*
X100201500Y-106391438D01*
X100181021Y-106315011D01*
X100166656Y-106290130D01*
X100141464Y-106246495D01*
X100141458Y-106246487D01*
X99737075Y-105842104D01*
X99703590Y-105780781D01*
X99708574Y-105711089D01*
X99710163Y-105707049D01*
X99760130Y-105586420D01*
X99800500Y-105383465D01*
X99800500Y-105176535D01*
X99760130Y-104973580D01*
X99680941Y-104782402D01*
X99565977Y-104610345D01*
X99565975Y-104610342D01*
X99419657Y-104464024D01*
X99253303Y-104352871D01*
X99247598Y-104349059D01*
X99056420Y-104269870D01*
X99056412Y-104269868D01*
X98853469Y-104229500D01*
X98853465Y-104229500D01*
X98646535Y-104229500D01*
X98646530Y-104229500D01*
X98443587Y-104269868D01*
X98443579Y-104269870D01*
X98252403Y-104349058D01*
X98092390Y-104455974D01*
X98025712Y-104476851D01*
X97958332Y-104458366D01*
X97911643Y-104406387D01*
X97899500Y-104352871D01*
X97899500Y-104066832D01*
X97919185Y-103999793D01*
X97935815Y-103979155D01*
X98187896Y-103727073D01*
X98249217Y-103693590D01*
X98318908Y-103698574D01*
X98323007Y-103700186D01*
X98443580Y-103750130D01*
X98634354Y-103788077D01*
X98646530Y-103790499D01*
X98646534Y-103790500D01*
X98646535Y-103790500D01*
X98853466Y-103790500D01*
X98853467Y-103790499D01*
X99056420Y-103750130D01*
X99247598Y-103670941D01*
X99419655Y-103555977D01*
X99565977Y-103409655D01*
X99680941Y-103237598D01*
X99760130Y-103046420D01*
X99800500Y-102843465D01*
X99800500Y-102636535D01*
X99760130Y-102433580D01*
X99680941Y-102242402D01*
X99565977Y-102070345D01*
X99565975Y-102070342D01*
X99419657Y-101924024D01*
X99271038Y-101824721D01*
X99247598Y-101809059D01*
X99200528Y-101789562D01*
X99056420Y-101729870D01*
X99056412Y-101729868D01*
X98853469Y-101689500D01*
X98853465Y-101689500D01*
X98646535Y-101689500D01*
X98646530Y-101689500D01*
X98443587Y-101729868D01*
X98443579Y-101729870D01*
X98252403Y-101809058D01*
X98080342Y-101924024D01*
X97934024Y-102070342D01*
X97819058Y-102242403D01*
X97739870Y-102433579D01*
X97739868Y-102433587D01*
X97699500Y-102636530D01*
X97699500Y-102843469D01*
X97739868Y-103046412D01*
X97739871Y-103046424D01*
X97789803Y-103166971D01*
X97797272Y-103236440D01*
X97765997Y-103298919D01*
X97762923Y-103302104D01*
X97512181Y-103552847D01*
X97450858Y-103586332D01*
X97381167Y-103581348D01*
X97325233Y-103539477D01*
X97300816Y-103474012D01*
X97300500Y-103465166D01*
X97300500Y-102125832D01*
X97320185Y-102058793D01*
X97336815Y-102038155D01*
X98187896Y-101187073D01*
X98249217Y-101153590D01*
X98318908Y-101158574D01*
X98323007Y-101160186D01*
X98443580Y-101210130D01*
X98646530Y-101250499D01*
X98646534Y-101250500D01*
X98646535Y-101250500D01*
X98853466Y-101250500D01*
X98853467Y-101250499D01*
X99056420Y-101210130D01*
X99247598Y-101130941D01*
X99419655Y-101015977D01*
X99565977Y-100869655D01*
X99680941Y-100697598D01*
X99760130Y-100506420D01*
X99800500Y-100303465D01*
X99800500Y-100096535D01*
X99760130Y-99893580D01*
X99680941Y-99702402D01*
X99565977Y-99530345D01*
X99565975Y-99530342D01*
X99419657Y-99384024D01*
X99326760Y-99321953D01*
X99247598Y-99269059D01*
X99231133Y-99262239D01*
X99056420Y-99189870D01*
X99056412Y-99189868D01*
X98853469Y-99149500D01*
X98853465Y-99149500D01*
X98646535Y-99149500D01*
X98646530Y-99149500D01*
X98443587Y-99189868D01*
X98443579Y-99189870D01*
X98252403Y-99269058D01*
X98092390Y-99375974D01*
X98025712Y-99396851D01*
X97958332Y-99378366D01*
X97911643Y-99326387D01*
X97899500Y-99272871D01*
X97899500Y-98986832D01*
X97919185Y-98919793D01*
X97935815Y-98899155D01*
X98187896Y-98647073D01*
X98249217Y-98613590D01*
X98318908Y-98618574D01*
X98323007Y-98620186D01*
X98443580Y-98670130D01*
X98646530Y-98710499D01*
X98646534Y-98710500D01*
X98646535Y-98710500D01*
X98853466Y-98710500D01*
X98853467Y-98710499D01*
X99056420Y-98670130D01*
X99247598Y-98590941D01*
X99419655Y-98475977D01*
X99565977Y-98329655D01*
X99680941Y-98157598D01*
X99760130Y-97966420D01*
X99800500Y-97763465D01*
X99800500Y-97556535D01*
X99760130Y-97353580D01*
X99680941Y-97162402D01*
X99565977Y-96990345D01*
X99565975Y-96990342D01*
X99419657Y-96844024D01*
X99257221Y-96735489D01*
X99247598Y-96729059D01*
X99056420Y-96649870D01*
X99056412Y-96649868D01*
X98853469Y-96609500D01*
X98853465Y-96609500D01*
X98646535Y-96609500D01*
X98646530Y-96609500D01*
X98443587Y-96649868D01*
X98443579Y-96649870D01*
X98252403Y-96729058D01*
X98080342Y-96844024D01*
X97934024Y-96990342D01*
X97819058Y-97162403D01*
X97739870Y-97353579D01*
X97739868Y-97353587D01*
X97699500Y-97556530D01*
X97699500Y-97763469D01*
X97739868Y-97966412D01*
X97739871Y-97966424D01*
X97789803Y-98086971D01*
X97797272Y-98156440D01*
X97765997Y-98218919D01*
X97762923Y-98222104D01*
X97414489Y-98570540D01*
X97358541Y-98626487D01*
X97358535Y-98626495D01*
X97318982Y-98695004D01*
X97318979Y-98695009D01*
X97298500Y-98771439D01*
X97298500Y-100500927D01*
X97278815Y-100567966D01*
X97262181Y-100588608D01*
X96259541Y-101591247D01*
X96259535Y-101591255D01*
X96219982Y-101659764D01*
X96219979Y-101659769D01*
X96199500Y-101736199D01*
X96199500Y-104827693D01*
X96179815Y-104894732D01*
X96127011Y-104940487D01*
X96057853Y-104950431D01*
X96013500Y-104935080D01*
X95968924Y-104909344D01*
X95968921Y-104909343D01*
X95841627Y-104875235D01*
X95709843Y-104875235D01*
X95582547Y-104909343D01*
X95468421Y-104975235D01*
X95468418Y-104975237D01*
X95375237Y-105068418D01*
X95375235Y-105068421D01*
X95309343Y-105182547D01*
X95275235Y-105309843D01*
X95275235Y-105399901D01*
X95255550Y-105466940D01*
X95238915Y-105487583D01*
X95199223Y-105527274D01*
X95137900Y-105560759D01*
X95068208Y-105555773D01*
X95012275Y-105513901D01*
X94987859Y-105448437D01*
X94998112Y-105389499D01*
X94999888Y-105385475D01*
X95002798Y-105360394D01*
X95002799Y-105360391D01*
X95002799Y-104756800D01*
X94702799Y-104756800D01*
X94702799Y-105615599D01*
X94747585Y-105615599D01*
X94747607Y-105615597D01*
X94772668Y-105612691D01*
X94776702Y-105610910D01*
X94781547Y-105610275D01*
X94781670Y-105610242D01*
X94781674Y-105610258D01*
X94845979Y-105601837D01*
X94909166Y-105631657D01*
X94946199Y-105690905D01*
X94945321Y-105760770D01*
X94914473Y-105812024D01*
X93214318Y-107512181D01*
X93152995Y-107545666D01*
X93126637Y-107548500D01*
X92220837Y-107548500D01*
X92182623Y-107558739D01*
X92144408Y-107568979D01*
X92128280Y-107578291D01*
X92126118Y-107579540D01*
X92111194Y-107588155D01*
X92075888Y-107608539D01*
X90384540Y-109299887D01*
X90384534Y-109299895D01*
X90344981Y-109368404D01*
X90344977Y-109368412D01*
X90336931Y-109398440D01*
X90300564Y-109458099D01*
X90237716Y-109488627D01*
X90192968Y-109487961D01*
X90172550Y-109483900D01*
X90172549Y-109483900D01*
X89777453Y-109483900D01*
X89777448Y-109483900D01*
X89718971Y-109495531D01*
X89718971Y-109495532D01*
X89657036Y-109536915D01*
X89590358Y-109557792D01*
X89522978Y-109539307D01*
X89500465Y-109521493D01*
X89211818Y-109232846D01*
X89178333Y-109171523D01*
X89175499Y-109145165D01*
X89175499Y-108968482D01*
X89172572Y-108949999D01*
X89160646Y-108874696D01*
X89103050Y-108761658D01*
X89103046Y-108761654D01*
X89103045Y-108761652D01*
X89013347Y-108671954D01*
X89013344Y-108671952D01*
X89013342Y-108671950D01*
X88936517Y-108632805D01*
X88900301Y-108614352D01*
X88806524Y-108599500D01*
X88193482Y-108599500D01*
X88112519Y-108612323D01*
X88099696Y-108614354D01*
X87986658Y-108671950D01*
X87986657Y-108671951D01*
X87986652Y-108671954D01*
X87896954Y-108761652D01*
X87896951Y-108761657D01*
X87839352Y-108874698D01*
X87824500Y-108968475D01*
X87824500Y-109431517D01*
X87831387Y-109475000D01*
X87839354Y-109525304D01*
X87896950Y-109638342D01*
X87896952Y-109638344D01*
X87896954Y-109638347D01*
X87986652Y-109728045D01*
X87986654Y-109728046D01*
X87986658Y-109728050D01*
X88099696Y-109785646D01*
X88099698Y-109785647D01*
X88193475Y-109800499D01*
X88193481Y-109800500D01*
X88806518Y-109800499D01*
X88806522Y-109800499D01*
X88845172Y-109794377D01*
X88850307Y-109793564D01*
X88919600Y-109802518D01*
X88957386Y-109828356D01*
X89560382Y-110431352D01*
X89593867Y-110492675D01*
X89596701Y-110519033D01*
X89596701Y-111177352D01*
X89608332Y-111235828D01*
X89608333Y-111235830D01*
X89608334Y-111235831D01*
X89650000Y-111298188D01*
X89653603Y-111303579D01*
X89659254Y-111321627D01*
X89669478Y-111337536D01*
X89673929Y-111368495D01*
X89674481Y-111370257D01*
X89674501Y-111372471D01*
X89674501Y-111466323D01*
X89654816Y-111533362D01*
X89638182Y-111554004D01*
X89599502Y-111592683D01*
X89599500Y-111592686D01*
X89533608Y-111706812D01*
X89499500Y-111834108D01*
X89499500Y-111965891D01*
X89520270Y-112043407D01*
X89518607Y-112113257D01*
X89479444Y-112171119D01*
X89415216Y-112198623D01*
X89400495Y-112199500D01*
X84324500Y-112199500D01*
X84257461Y-112179815D01*
X84211706Y-112127011D01*
X84200500Y-112075500D01*
X84200500Y-110934108D01*
X86499500Y-110934108D01*
X86499500Y-111065892D01*
X86503687Y-111081519D01*
X86533608Y-111193187D01*
X86558227Y-111235828D01*
X86599500Y-111307314D01*
X86692686Y-111400500D01*
X86806814Y-111466392D01*
X86934108Y-111500500D01*
X86934110Y-111500500D01*
X87065890Y-111500500D01*
X87065892Y-111500500D01*
X87193186Y-111466392D01*
X87307314Y-111400500D01*
X87400500Y-111307314D01*
X87455241Y-111212499D01*
X87463928Y-111204216D01*
X87468915Y-111193297D01*
X87488746Y-111180552D01*
X87505808Y-111164284D01*
X87519064Y-111161068D01*
X87527693Y-111155523D01*
X87562628Y-111150500D01*
X87750728Y-111150500D01*
X87817767Y-111170185D01*
X87861212Y-111218204D01*
X87896949Y-111288340D01*
X87896954Y-111288347D01*
X87986652Y-111378045D01*
X87986654Y-111378046D01*
X87986658Y-111378050D01*
X88099694Y-111435645D01*
X88099698Y-111435647D01*
X88193475Y-111450499D01*
X88193481Y-111450500D01*
X88806518Y-111450499D01*
X88900304Y-111435646D01*
X89013342Y-111378050D01*
X89103050Y-111288342D01*
X89160646Y-111175304D01*
X89160646Y-111175302D01*
X89160647Y-111175301D01*
X89175499Y-111081524D01*
X89175500Y-111081519D01*
X89175499Y-110618482D01*
X89160646Y-110524696D01*
X89103050Y-110411658D01*
X89103046Y-110411654D01*
X89103045Y-110411652D01*
X89013347Y-110321954D01*
X89013344Y-110321952D01*
X89013342Y-110321950D01*
X88936517Y-110282805D01*
X88900301Y-110264352D01*
X88806524Y-110249500D01*
X88193482Y-110249500D01*
X88112519Y-110262323D01*
X88099696Y-110264354D01*
X87986658Y-110321950D01*
X87986657Y-110321951D01*
X87986652Y-110321954D01*
X87896954Y-110411652D01*
X87896951Y-110411657D01*
X87896950Y-110411658D01*
X87861212Y-110481796D01*
X87813239Y-110532591D01*
X87750729Y-110549500D01*
X87253937Y-110549500D01*
X87201249Y-110535381D01*
X87200696Y-110536719D01*
X87193188Y-110533609D01*
X87193186Y-110533608D01*
X87065892Y-110499500D01*
X86934108Y-110499500D01*
X86806812Y-110533608D01*
X86692686Y-110599500D01*
X86692683Y-110599502D01*
X86599502Y-110692683D01*
X86599500Y-110692686D01*
X86533608Y-110806812D01*
X86530984Y-110816607D01*
X86499500Y-110934108D01*
X84200500Y-110934108D01*
X84200500Y-106905205D01*
X84850000Y-106905205D01*
X84850000Y-107550000D01*
X85566988Y-107550000D01*
X85534075Y-107607007D01*
X85500000Y-107734174D01*
X85500000Y-107865826D01*
X85534075Y-107992993D01*
X85566988Y-108050000D01*
X84850001Y-108050000D01*
X84850001Y-108694785D01*
X84850002Y-108694808D01*
X84852908Y-108719869D01*
X84852909Y-108719873D01*
X84898211Y-108822474D01*
X84898214Y-108822479D01*
X84977520Y-108901785D01*
X84977525Y-108901788D01*
X85080123Y-108947089D01*
X85105206Y-108949999D01*
X85749999Y-108949999D01*
X85750000Y-108949998D01*
X85750000Y-108233012D01*
X85807007Y-108265925D01*
X85934174Y-108300000D01*
X86065826Y-108300000D01*
X86192993Y-108265925D01*
X86250000Y-108233012D01*
X86250000Y-108949999D01*
X86894786Y-108949999D01*
X86894808Y-108949997D01*
X86919869Y-108947091D01*
X86919873Y-108947090D01*
X87022474Y-108901788D01*
X87022479Y-108901785D01*
X87101785Y-108822479D01*
X87101788Y-108822474D01*
X87147089Y-108719877D01*
X87147089Y-108719875D01*
X87149999Y-108694794D01*
X87150000Y-108694791D01*
X87150000Y-108050000D01*
X86433012Y-108050000D01*
X86465925Y-107992993D01*
X86500000Y-107865826D01*
X86500000Y-107734174D01*
X86465925Y-107607007D01*
X86433012Y-107550000D01*
X87149999Y-107550000D01*
X87149999Y-106905214D01*
X87149997Y-106905191D01*
X87147091Y-106880130D01*
X87147090Y-106880126D01*
X87101788Y-106777525D01*
X87101785Y-106777520D01*
X87022479Y-106698214D01*
X87022474Y-106698211D01*
X86919876Y-106652910D01*
X86894794Y-106650000D01*
X86250000Y-106650000D01*
X86250000Y-107366988D01*
X86192993Y-107334075D01*
X86065826Y-107300000D01*
X85934174Y-107300000D01*
X85807007Y-107334075D01*
X85750000Y-107366988D01*
X85750000Y-106650000D01*
X85105214Y-106650000D01*
X85105191Y-106650002D01*
X85080130Y-106652908D01*
X85080126Y-106652909D01*
X84977525Y-106698211D01*
X84977520Y-106698214D01*
X84898214Y-106777520D01*
X84898211Y-106777525D01*
X84852910Y-106880122D01*
X84852910Y-106880124D01*
X84850000Y-106905205D01*
X84200500Y-106905205D01*
X84200500Y-82574500D01*
X84220185Y-82507461D01*
X84272989Y-82461706D01*
X84324500Y-82450500D01*
X94150495Y-82450500D01*
X94217534Y-82470185D01*
G37*
%TD.AperFunction*%
%TA.AperFunction,Conductor*%
G36*
X97951829Y-106019935D02*
G01*
X97962172Y-106017942D01*
X97985384Y-106027234D01*
X98009813Y-106032549D01*
X98022635Y-106042147D01*
X98027037Y-106043910D01*
X98038067Y-106053700D01*
X98080342Y-106095975D01*
X98080345Y-106095977D01*
X98252402Y-106210941D01*
X98443580Y-106290130D01*
X98621398Y-106325500D01*
X98646530Y-106330499D01*
X98646534Y-106330500D01*
X98646535Y-106330500D01*
X98853466Y-106330500D01*
X98853467Y-106330499D01*
X99056420Y-106290130D01*
X99176974Y-106240194D01*
X99246438Y-106232726D01*
X99308918Y-106264000D01*
X99312104Y-106267075D01*
X99564181Y-106519152D01*
X99597666Y-106580475D01*
X99600500Y-106606833D01*
X99600500Y-106892871D01*
X99580815Y-106959910D01*
X99528011Y-107005665D01*
X99458853Y-107015609D01*
X99407610Y-106995974D01*
X99253303Y-106892871D01*
X99247598Y-106889059D01*
X99226022Y-106880122D01*
X99056420Y-106809870D01*
X99056412Y-106809868D01*
X98853469Y-106769500D01*
X98853465Y-106769500D01*
X98646535Y-106769500D01*
X98646530Y-106769500D01*
X98443587Y-106809868D01*
X98443579Y-106809870D01*
X98252403Y-106889058D01*
X98080342Y-107004024D01*
X97934024Y-107150342D01*
X97819058Y-107322403D01*
X97739870Y-107513579D01*
X97739868Y-107513587D01*
X97699500Y-107716530D01*
X97699500Y-107923469D01*
X97739868Y-108126412D01*
X97739870Y-108126420D01*
X97811769Y-108300000D01*
X97819059Y-108317598D01*
X97875796Y-108402511D01*
X97934024Y-108489657D01*
X98080342Y-108635975D01*
X98080345Y-108635977D01*
X98252402Y-108750941D01*
X98443580Y-108830130D01*
X98646530Y-108870499D01*
X98646534Y-108870500D01*
X98646535Y-108870500D01*
X98853466Y-108870500D01*
X98853467Y-108870499D01*
X98924425Y-108856385D01*
X99051309Y-108831147D01*
X99120900Y-108837374D01*
X99176078Y-108880237D01*
X99199322Y-108946127D01*
X99199500Y-108952764D01*
X99199500Y-110507067D01*
X99179815Y-110574106D01*
X99163181Y-110594748D01*
X98568748Y-111189181D01*
X98507425Y-111222666D01*
X98481067Y-111225500D01*
X98018172Y-111225500D01*
X97951133Y-111205815D01*
X97905378Y-111153011D01*
X97895434Y-111083853D01*
X97910784Y-111039501D01*
X97966392Y-110943186D01*
X98000500Y-110815892D01*
X98000500Y-110684108D01*
X97966392Y-110556814D01*
X97900500Y-110442686D01*
X97807314Y-110349500D01*
X97715999Y-110296779D01*
X97693187Y-110283608D01*
X97621321Y-110264352D01*
X97565892Y-110249500D01*
X97434108Y-110249500D01*
X97306812Y-110283608D01*
X97192686Y-110349500D01*
X97192683Y-110349502D01*
X97104005Y-110438181D01*
X97042682Y-110471666D01*
X97016324Y-110474500D01*
X96765068Y-110474500D01*
X96698029Y-110454815D01*
X96654583Y-110406795D01*
X96598528Y-110296780D01*
X96598524Y-110296776D01*
X96598523Y-110296774D01*
X96503225Y-110201476D01*
X96503222Y-110201474D01*
X96503220Y-110201472D01*
X96430859Y-110164602D01*
X96380064Y-110116628D01*
X96363269Y-110048807D01*
X96385807Y-109982672D01*
X96440522Y-109939221D01*
X96441666Y-109938763D01*
X96509727Y-109911923D01*
X96509729Y-109911922D01*
X96624721Y-109824721D01*
X96711922Y-109709729D01*
X96764868Y-109575468D01*
X96764868Y-109575467D01*
X96775000Y-109491102D01*
X96775000Y-109475000D01*
X95225000Y-109475000D01*
X95225000Y-109491102D01*
X95235131Y-109575467D01*
X95235131Y-109575468D01*
X95288077Y-109709729D01*
X95375278Y-109824721D01*
X95490270Y-109911922D01*
X95558334Y-109938763D01*
X95613478Y-109981669D01*
X95636671Y-110047577D01*
X95620551Y-110115561D01*
X95570234Y-110164038D01*
X95569140Y-110164602D01*
X95496781Y-110201471D01*
X95496774Y-110201476D01*
X95401476Y-110296774D01*
X95401473Y-110296779D01*
X95401472Y-110296780D01*
X95374699Y-110349325D01*
X95345417Y-110406795D01*
X95334967Y-110417859D01*
X95328645Y-110431703D01*
X95311464Y-110442744D01*
X95297442Y-110457591D01*
X95281762Y-110461832D01*
X95269867Y-110469477D01*
X95234932Y-110474500D01*
X95054832Y-110474500D01*
X94987793Y-110454815D01*
X94967151Y-110438181D01*
X94939618Y-110410648D01*
X94906133Y-110349325D01*
X94903299Y-110322967D01*
X94903299Y-109664649D01*
X94903298Y-109664647D01*
X94891667Y-109606170D01*
X94891666Y-109606169D01*
X94847351Y-109539847D01*
X94781029Y-109495532D01*
X94781028Y-109495531D01*
X94716573Y-109482711D01*
X94717060Y-109480260D01*
X94662420Y-109458188D01*
X94622069Y-109401148D01*
X94618962Y-109331348D01*
X94651692Y-109273278D01*
X95013319Y-108911652D01*
X95074642Y-108878167D01*
X95144334Y-108883151D01*
X95200267Y-108925023D01*
X95215283Y-108965283D01*
X95225000Y-108975000D01*
X95750000Y-108975000D01*
X96250000Y-108975000D01*
X96775000Y-108975000D01*
X96775000Y-108958897D01*
X96764868Y-108874532D01*
X96764868Y-108874531D01*
X96711922Y-108740270D01*
X96624721Y-108625278D01*
X96509729Y-108538077D01*
X96375467Y-108485131D01*
X96291102Y-108475000D01*
X96250000Y-108475000D01*
X96250000Y-108975000D01*
X95750000Y-108975000D01*
X95750000Y-108494901D01*
X95686907Y-108458140D01*
X95684981Y-108456104D01*
X95682294Y-108455315D01*
X95661123Y-108430882D01*
X95638893Y-108407382D01*
X95638373Y-108404628D01*
X95636539Y-108402511D01*
X95631936Y-108370504D01*
X95625942Y-108338723D01*
X95626993Y-108336125D01*
X95626595Y-108333353D01*
X95640031Y-108303930D01*
X95652168Y-108273962D01*
X95654455Y-108272346D01*
X95655620Y-108269797D01*
X95661652Y-108263319D01*
X96722959Y-107202012D01*
X97839460Y-106085511D01*
X97842999Y-106079380D01*
X97861093Y-106062127D01*
X97876076Y-106042114D01*
X97885942Y-106038433D01*
X97893565Y-106031166D01*
X97918115Y-106026433D01*
X97941540Y-106017697D01*
X97951829Y-106019935D01*
G37*
%TD.AperFunction*%
%TA.AperFunction,Conductor*%
G36*
X95393039Y-98119685D02*
G01*
X95438794Y-98172489D01*
X95450000Y-98224000D01*
X95450000Y-99249999D01*
X95939000Y-99249999D01*
X95947685Y-99252549D01*
X95956647Y-99251261D01*
X95980687Y-99262239D01*
X96006039Y-99269684D01*
X96011966Y-99276524D01*
X96020203Y-99280286D01*
X96034492Y-99302520D01*
X96051794Y-99322488D01*
X96054081Y-99333002D01*
X96057977Y-99339064D01*
X96063000Y-99373999D01*
X96063000Y-99460667D01*
X96043315Y-99527706D01*
X96026681Y-99548348D01*
X95259541Y-100315487D01*
X95259535Y-100315495D01*
X95219982Y-100384004D01*
X95219978Y-100384012D01*
X95213051Y-100409864D01*
X95176684Y-100469524D01*
X95113836Y-100500051D01*
X95047789Y-100493122D01*
X95027530Y-100485133D01*
X95027523Y-100485131D01*
X94943158Y-100475000D01*
X94902056Y-100475000D01*
X94902056Y-101101000D01*
X94882371Y-101168039D01*
X94829567Y-101213794D01*
X94778056Y-101225000D01*
X94652056Y-101225000D01*
X94652056Y-101351000D01*
X94632371Y-101418039D01*
X94579567Y-101463794D01*
X94528056Y-101475000D01*
X93226056Y-101475000D01*
X93159017Y-101455315D01*
X93113262Y-101402511D01*
X93102056Y-101351000D01*
X93102056Y-101225000D01*
X92976056Y-101225000D01*
X92909017Y-101205315D01*
X92863262Y-101152511D01*
X92852056Y-101101000D01*
X92852056Y-100975000D01*
X93352056Y-100975000D01*
X94402056Y-100975000D01*
X94402056Y-100475000D01*
X94360954Y-100475000D01*
X94276588Y-100485131D01*
X94276587Y-100485131D01*
X94142326Y-100538077D01*
X94027334Y-100625278D01*
X93975860Y-100693158D01*
X93919667Y-100734682D01*
X93849946Y-100739233D01*
X93788832Y-100705368D01*
X93778252Y-100693158D01*
X93726777Y-100625278D01*
X93611785Y-100538077D01*
X93477523Y-100485131D01*
X93393158Y-100475000D01*
X93352056Y-100475000D01*
X93352056Y-100975000D01*
X92852056Y-100975000D01*
X92852056Y-100475000D01*
X92810954Y-100475000D01*
X92726588Y-100485131D01*
X92726587Y-100485131D01*
X92592326Y-100538077D01*
X92476481Y-100625926D01*
X92411170Y-100650749D01*
X92342806Y-100636321D01*
X92293095Y-100587223D01*
X92277556Y-100527122D01*
X92277556Y-100220730D01*
X92274702Y-100190300D01*
X92274702Y-100190298D01*
X92229849Y-100062119D01*
X92229848Y-100062117D01*
X92183612Y-99999469D01*
X92149206Y-99952850D01*
X92039938Y-99872207D01*
X92039936Y-99872206D01*
X91911756Y-99827353D01*
X91881326Y-99824500D01*
X91881322Y-99824500D01*
X91399833Y-99824500D01*
X91378587Y-99818261D01*
X91356499Y-99816682D01*
X91345715Y-99808609D01*
X91332794Y-99804815D01*
X91318294Y-99788081D01*
X91300566Y-99774810D01*
X91295858Y-99762189D01*
X91287039Y-99752011D01*
X91283887Y-99730093D01*
X91276149Y-99709346D01*
X91279011Y-99696185D01*
X91277095Y-99682853D01*
X91286294Y-99662709D01*
X91291001Y-99641073D01*
X91304269Y-99623347D01*
X91306120Y-99619297D01*
X91312152Y-99612819D01*
X91337152Y-99587819D01*
X91398475Y-99554334D01*
X91424833Y-99551500D01*
X92676061Y-99551500D01*
X92676063Y-99551500D01*
X92752490Y-99531021D01*
X92821012Y-99491460D01*
X92876961Y-99435511D01*
X93362472Y-98950000D01*
X94148351Y-98950000D01*
X94152333Y-98975143D01*
X94209860Y-99088046D01*
X94209863Y-99088050D01*
X94299449Y-99177636D01*
X94299453Y-99177639D01*
X94412355Y-99235166D01*
X94506014Y-99249999D01*
X95049999Y-99249999D01*
X95050000Y-99249998D01*
X95050000Y-98950000D01*
X94148351Y-98950000D01*
X93362472Y-98950000D01*
X93975958Y-98336513D01*
X94000648Y-98323031D01*
X94023653Y-98306819D01*
X94030906Y-98306509D01*
X94037276Y-98303031D01*
X94065341Y-98305038D01*
X94093459Y-98303837D01*
X94099727Y-98307497D01*
X94106967Y-98308015D01*
X94129496Y-98324879D01*
X94153796Y-98339069D01*
X94159764Y-98347538D01*
X94162901Y-98349886D01*
X94174127Y-98367918D01*
X94174536Y-98368721D01*
X94187422Y-98437393D01*
X94174529Y-98481293D01*
X94152333Y-98524855D01*
X94148351Y-98550000D01*
X95050000Y-98550000D01*
X95050000Y-98224000D01*
X95052550Y-98215314D01*
X95051262Y-98206353D01*
X95062240Y-98182312D01*
X95069685Y-98156961D01*
X95076525Y-98151033D01*
X95080287Y-98142797D01*
X95102521Y-98128507D01*
X95122489Y-98111206D01*
X95133003Y-98108918D01*
X95139065Y-98105023D01*
X95174000Y-98100000D01*
X95326000Y-98100000D01*
X95393039Y-98119685D01*
G37*
%TD.AperFunction*%
%TA.AperFunction,Conductor*%
G36*
X91474865Y-95381502D02*
G01*
X91523144Y-95432009D01*
X91537000Y-95488967D01*
X91537000Y-95811666D01*
X91517315Y-95878705D01*
X91500681Y-95899347D01*
X91036846Y-96363181D01*
X90975523Y-96396666D01*
X90949165Y-96399500D01*
X90324831Y-96399500D01*
X90257792Y-96379815D01*
X90212037Y-96327011D01*
X90202093Y-96257853D01*
X90231118Y-96194297D01*
X90237126Y-96187844D01*
X90348395Y-96076576D01*
X90387957Y-96008053D01*
X90408435Y-95931627D01*
X90408435Y-95852503D01*
X90408435Y-95574564D01*
X90428120Y-95507525D01*
X90480924Y-95461770D01*
X90532435Y-95450564D01*
X91166153Y-95450564D01*
X91234184Y-95440652D01*
X91339124Y-95389350D01*
X91340946Y-95388050D01*
X91343846Y-95387042D01*
X91348355Y-95384838D01*
X91348621Y-95385382D01*
X91406944Y-95365115D01*
X91474865Y-95381502D01*
G37*
%TD.AperFunction*%
%TD*%
M02*
