%TF.GenerationSoftware,KiCad,Pcbnew,9.0.2*%
%TF.CreationDate,2025-07-02T23:55:56-04:00*%
%TF.ProjectId,strain-gauge,73747261-696e-42d6-9761-7567652e6b69,rev?*%
%TF.SameCoordinates,Original*%
%TF.FileFunction,Copper,L2,Bot*%
%TF.FilePolarity,Positive*%
%FSLAX46Y46*%
G04 Gerber Fmt 4.6, Leading zero omitted, Abs format (unit mm)*
G04 Created by KiCad (PCBNEW 9.0.2) date 2025-07-02 23:55:56*
%MOMM*%
%LPD*%
G01*
G04 APERTURE LIST*
%TA.AperFunction,ComponentPad*%
%ADD10R,1.700000X1.700000*%
%TD*%
%TA.AperFunction,ComponentPad*%
%ADD11C,1.700000*%
%TD*%
%TA.AperFunction,ViaPad*%
%ADD12C,0.600000*%
%TD*%
%TA.AperFunction,Conductor*%
%ADD13C,0.200000*%
%TD*%
G04 APERTURE END LIST*
D10*
%TO.P,J2,1,Pin_1*%
%TO.N,GND*%
X98750000Y-87500000D03*
D11*
%TO.P,J2,2,Pin_2*%
%TO.N,+5V*%
X98750000Y-90040000D03*
%TO.P,J2,3,Pin_3*%
%TO.N,/ADC/~{RST}*%
X98750000Y-92580000D03*
%TO.P,J2,4,Pin_4*%
%TO.N,/ADC/SDI*%
X98750000Y-95120000D03*
%TO.P,J2,5,Pin_5*%
%TO.N,/ADC/~{CS}*%
X98750000Y-97660000D03*
%TO.P,J2,6,Pin_6*%
%TO.N,/ADC/SCLK*%
X98750000Y-100200000D03*
%TO.P,J2,7,Pin_7*%
%TO.N,/ADC/SDO-0*%
X98750000Y-102740000D03*
%TO.P,J2,8,Pin_8*%
%TO.N,/ADC/SDO-1*%
X98750000Y-105280000D03*
%TO.P,J2,9,Pin_9*%
%TO.N,/ADC/RVS*%
X98750000Y-107820000D03*
%TD*%
D10*
%TO.P,J1,1,Pin_1*%
%TO.N,GND*%
X86000000Y-107800000D03*
D11*
%TO.P,J1,2,Pin_2*%
%TO.N,/Multiplexer/A_IN_N1*%
X86000000Y-105260000D03*
%TO.P,J1,3,Pin_3*%
%TO.N,/Multiplexer/A_IN_P1*%
X86000000Y-102720000D03*
%TO.P,J1,4,Pin_4*%
%TO.N,/Multiplexer/A_IN_N3*%
X86000000Y-100180000D03*
%TO.P,J1,5,Pin_5*%
%TO.N,/Multiplexer/A_IN_P3*%
X86000000Y-97640000D03*
%TO.P,J1,6,Pin_6*%
%TO.N,/Multiplexer/A_IN_N2*%
X86000000Y-95100000D03*
%TO.P,J1,7,Pin_7*%
%TO.N,/Multiplexer/A_IN_P2*%
X86000000Y-92560000D03*
%TO.P,J1,8,Pin_8*%
%TO.N,+3.3V*%
X86000000Y-90020000D03*
%TO.P,J1,9,Pin_9*%
%TO.N,GND*%
X86000000Y-87480000D03*
%TD*%
D12*
%TO.N,GND*%
X96750000Y-95500000D03*
X95750000Y-104000000D03*
X95000000Y-100000000D03*
X100000000Y-84500000D03*
X90988235Y-95988235D03*
X96500000Y-108000000D03*
%TO.N,+3.3V*%
X92250000Y-93500000D03*
X88000000Y-90000000D03*
X87000000Y-111000000D03*
X88000000Y-87500000D03*
X97500000Y-110750000D03*
X94750000Y-82750000D03*
%TO.N,/ADC/SDI*%
X95775735Y-105375735D03*
%TO.N,/ADC/~{CS}*%
X88000000Y-86250000D03*
%TO.N,/ADC/~{RST}*%
X90000000Y-111900000D03*
%TO.N,/Counter/SEL1*%
X91750000Y-92500000D03*
X89500000Y-92500000D03*
%TO.N,Net-(U3-2D)*%
X96520000Y-91480000D03*
X96520000Y-86230000D03*
%TD*%
D13*
%TO.N,/ADC/~{RST}*%
X90000000Y-111900000D02*
X97199943Y-111900000D01*
X97199943Y-111900000D02*
X99000000Y-110099943D01*
X99000000Y-110099943D02*
X99000000Y-110000000D01*
X100302000Y-108698000D02*
X100302000Y-94132000D01*
X99000000Y-110000000D02*
X100302000Y-108698000D01*
X100302000Y-94132000D02*
X98750000Y-92580000D01*
%TO.N,+3.3V*%
X92351000Y-89851000D02*
X90000000Y-87500000D01*
X97250000Y-111000000D02*
X97500000Y-110750000D01*
X92351000Y-93399000D02*
X92351000Y-89851000D01*
X84849000Y-108849000D02*
X84849000Y-91171000D01*
X90000000Y-87500000D02*
X88000000Y-87500000D01*
X88000000Y-90000000D02*
X88000000Y-87500000D01*
X87000000Y-111000000D02*
X84849000Y-108849000D01*
X92250000Y-93500000D02*
X92351000Y-93399000D01*
X84849000Y-91171000D02*
X86000000Y-90020000D01*
X94750000Y-82750000D02*
X90000000Y-87500000D01*
X87000000Y-111000000D02*
X97250000Y-111000000D01*
%TO.N,/ADC/SDI*%
X99901000Y-103216760D02*
X99901000Y-96271000D01*
X97064965Y-104086505D02*
X99031255Y-104086505D01*
X95775735Y-105375735D02*
X97064965Y-104086505D01*
X99901000Y-96271000D02*
X98750000Y-95120000D01*
X99031255Y-104086505D02*
X99901000Y-103216760D01*
%TO.N,/ADC/~{CS}*%
X93810057Y-97660000D02*
X87399000Y-91248943D01*
X87399000Y-86851000D02*
X88000000Y-86250000D01*
X98750000Y-97660000D02*
X93810057Y-97660000D01*
X87399000Y-91248943D02*
X87399000Y-86851000D01*
%TO.N,/Counter/SEL1*%
X89500000Y-92500000D02*
X91750000Y-92500000D01*
%TO.N,Net-(U3-2D)*%
X96520000Y-86230000D02*
X96520000Y-91480000D01*
%TD*%
%TA.AperFunction,Conductor*%
%TO.N,GND*%
G36*
X94166536Y-82455210D02*
G01*
X94183251Y-82454905D01*
X94199366Y-82464850D01*
X94217534Y-82470185D01*
X94228480Y-82482818D01*
X94242709Y-82491599D01*
X94250889Y-82508679D01*
X94263289Y-82522989D01*
X94265668Y-82539535D01*
X94272890Y-82554614D01*
X94273535Y-82589903D01*
X94272476Y-82598356D01*
X94249500Y-82684108D01*
X94249500Y-82781900D01*
X94248540Y-82789569D01*
X94237566Y-82814807D01*
X94229815Y-82841205D01*
X94223835Y-82846386D01*
X94220680Y-82853644D01*
X94213181Y-82861847D01*
X89911848Y-87163181D01*
X89850525Y-87196666D01*
X89824167Y-87199500D01*
X88458676Y-87199500D01*
X88391637Y-87179815D01*
X88370995Y-87163181D01*
X88307316Y-87099502D01*
X88307314Y-87099500D01*
X88250250Y-87066554D01*
X88193187Y-87033608D01*
X88120287Y-87014075D01*
X88065892Y-86999500D01*
X87974832Y-86999500D01*
X87953586Y-86993261D01*
X87931498Y-86991682D01*
X87920714Y-86983609D01*
X87907793Y-86979815D01*
X87893293Y-86963081D01*
X87875565Y-86949810D01*
X87870857Y-86937189D01*
X87862038Y-86927011D01*
X87858886Y-86905093D01*
X87851148Y-86884346D01*
X87854010Y-86871185D01*
X87852094Y-86857853D01*
X87861293Y-86837709D01*
X87866000Y-86816073D01*
X87879268Y-86798347D01*
X87881119Y-86794297D01*
X87887151Y-86787819D01*
X87888151Y-86786819D01*
X87949474Y-86753334D01*
X87975832Y-86750500D01*
X88065890Y-86750500D01*
X88065892Y-86750500D01*
X88193186Y-86716392D01*
X88307314Y-86650500D01*
X88400500Y-86557314D01*
X88466392Y-86443186D01*
X88500500Y-86315892D01*
X88500500Y-86184108D01*
X88466392Y-86056814D01*
X88400500Y-85942686D01*
X88307314Y-85849500D01*
X88250250Y-85816554D01*
X88193187Y-85783608D01*
X88118544Y-85763608D01*
X88065892Y-85749500D01*
X87934108Y-85749500D01*
X87806812Y-85783608D01*
X87692686Y-85849500D01*
X87692683Y-85849502D01*
X87599502Y-85942683D01*
X87599500Y-85942686D01*
X87533608Y-86056812D01*
X87499500Y-86184108D01*
X87499500Y-86274166D01*
X87479815Y-86341205D01*
X87463181Y-86361847D01*
X87214489Y-86610540D01*
X87158541Y-86666487D01*
X87158535Y-86666495D01*
X87118982Y-86735004D01*
X87118978Y-86735013D01*
X87109452Y-86770563D01*
X87073086Y-86830223D01*
X87010238Y-86860751D01*
X86979951Y-86862085D01*
X86972085Y-86861466D01*
X86482962Y-87350589D01*
X86465925Y-87287007D01*
X86400099Y-87172993D01*
X86307007Y-87079901D01*
X86192993Y-87014075D01*
X86129409Y-86997037D01*
X86618533Y-86507913D01*
X86602730Y-86496431D01*
X86441447Y-86414252D01*
X86441444Y-86414251D01*
X86269293Y-86358317D01*
X86090506Y-86330000D01*
X85909494Y-86330000D01*
X85730706Y-86358317D01*
X85558555Y-86414251D01*
X85558547Y-86414254D01*
X85397269Y-86496432D01*
X85381466Y-86507912D01*
X85381466Y-86507913D01*
X85870591Y-86997037D01*
X85807007Y-87014075D01*
X85692993Y-87079901D01*
X85599901Y-87172993D01*
X85534075Y-87287007D01*
X85517037Y-87350590D01*
X85027913Y-86861466D01*
X85027912Y-86861466D01*
X85016432Y-86877269D01*
X84934254Y-87038547D01*
X84934251Y-87038555D01*
X84878317Y-87210706D01*
X84850000Y-87389493D01*
X84850000Y-87570506D01*
X84878317Y-87749293D01*
X84934251Y-87921444D01*
X84934252Y-87921447D01*
X85016431Y-88082730D01*
X85027913Y-88098532D01*
X85027913Y-88098533D01*
X85517037Y-87609409D01*
X85534075Y-87672993D01*
X85599901Y-87787007D01*
X85692993Y-87880099D01*
X85807007Y-87945925D01*
X85870590Y-87962962D01*
X85381466Y-88452085D01*
X85381466Y-88452086D01*
X85397267Y-88463566D01*
X85397275Y-88463571D01*
X85558552Y-88545747D01*
X85558555Y-88545748D01*
X85730706Y-88601682D01*
X85909494Y-88630000D01*
X86090506Y-88630000D01*
X86269293Y-88601682D01*
X86441444Y-88545748D01*
X86441452Y-88545745D01*
X86602730Y-88463568D01*
X86618532Y-88452085D01*
X86618533Y-88452085D01*
X86129410Y-87962962D01*
X86192993Y-87945925D01*
X86307007Y-87880099D01*
X86400099Y-87787007D01*
X86465925Y-87672993D01*
X86482962Y-87609409D01*
X86974757Y-88101205D01*
X87033149Y-88113473D01*
X87082906Y-88162525D01*
X87098500Y-88222726D01*
X87098500Y-89364397D01*
X87078815Y-89431436D01*
X87026011Y-89477191D01*
X86956853Y-89487135D01*
X86893297Y-89458110D01*
X86871398Y-89433288D01*
X86815977Y-89350345D01*
X86815974Y-89350341D01*
X86669657Y-89204024D01*
X86527529Y-89109058D01*
X86497598Y-89089059D01*
X86306420Y-89009870D01*
X86306412Y-89009868D01*
X86103469Y-88969500D01*
X86103465Y-88969500D01*
X85896535Y-88969500D01*
X85896530Y-88969500D01*
X85693587Y-89009868D01*
X85693579Y-89009870D01*
X85502403Y-89089058D01*
X85330342Y-89204024D01*
X85184024Y-89350342D01*
X85069058Y-89522403D01*
X84989870Y-89713579D01*
X84989868Y-89713587D01*
X84949500Y-89916530D01*
X84949500Y-90123469D01*
X84989868Y-90326412D01*
X84989871Y-90326424D01*
X85039803Y-90446971D01*
X85047272Y-90516440D01*
X85015997Y-90578919D01*
X85012923Y-90582104D01*
X84664489Y-90930540D01*
X84608541Y-90986487D01*
X84608535Y-90986495D01*
X84568982Y-91055004D01*
X84568979Y-91055009D01*
X84555326Y-91105962D01*
X84548500Y-91131438D01*
X84548500Y-108888562D01*
X84552044Y-108901788D01*
X84568979Y-108964990D01*
X84568982Y-108964995D01*
X84608535Y-109033504D01*
X84608541Y-109033512D01*
X86463181Y-110888152D01*
X86496666Y-110949475D01*
X86499500Y-110975833D01*
X86499500Y-111065891D01*
X86533608Y-111193187D01*
X86564903Y-111247391D01*
X86599500Y-111307314D01*
X86692686Y-111400500D01*
X86806814Y-111466392D01*
X86934108Y-111500500D01*
X86934110Y-111500500D01*
X87065890Y-111500500D01*
X87065892Y-111500500D01*
X87193186Y-111466392D01*
X87307314Y-111400500D01*
X87370995Y-111336819D01*
X87432318Y-111303334D01*
X87458676Y-111300500D01*
X89592324Y-111300500D01*
X89659363Y-111320185D01*
X89705118Y-111372989D01*
X89715062Y-111442147D01*
X89686037Y-111505703D01*
X89680005Y-111512181D01*
X89599502Y-111592683D01*
X89599500Y-111592686D01*
X89533608Y-111706812D01*
X89499500Y-111834108D01*
X89499500Y-111965891D01*
X89520270Y-112043407D01*
X89518607Y-112113257D01*
X89479444Y-112171119D01*
X89415216Y-112198623D01*
X89400495Y-112199500D01*
X84324500Y-112199500D01*
X84257461Y-112179815D01*
X84211706Y-112127011D01*
X84200500Y-112075500D01*
X84200500Y-82574500D01*
X84220185Y-82507461D01*
X84272989Y-82461706D01*
X84324500Y-82450500D01*
X94150495Y-82450500D01*
X94166536Y-82455210D01*
G37*
%TD.AperFunction*%
%TA.AperFunction,Conductor*%
G36*
X87057362Y-90583353D02*
G01*
X87094082Y-90642796D01*
X87098500Y-90675602D01*
X87098500Y-91288505D01*
X87100367Y-91295471D01*
X87118979Y-91364934D01*
X87118981Y-91364937D01*
X87145840Y-91411457D01*
X87145841Y-91411460D01*
X87158535Y-91433447D01*
X87158539Y-91433452D01*
X87158540Y-91433454D01*
X93625546Y-97900460D01*
X93694069Y-97940022D01*
X93770495Y-97960500D01*
X97654564Y-97960500D01*
X97721603Y-97980185D01*
X97767358Y-98032989D01*
X97769125Y-98037047D01*
X97819058Y-98157596D01*
X97934024Y-98329657D01*
X98080342Y-98475975D01*
X98080345Y-98475977D01*
X98252402Y-98590941D01*
X98443580Y-98670130D01*
X98646530Y-98710499D01*
X98646534Y-98710500D01*
X98646535Y-98710500D01*
X98853466Y-98710500D01*
X98853467Y-98710499D01*
X99056420Y-98670130D01*
X99247598Y-98590941D01*
X99247599Y-98590940D01*
X99247600Y-98590940D01*
X99407610Y-98484026D01*
X99474287Y-98463148D01*
X99541667Y-98481633D01*
X99588357Y-98533612D01*
X99600500Y-98587128D01*
X99600500Y-99272871D01*
X99580815Y-99339910D01*
X99528011Y-99385665D01*
X99458853Y-99395609D01*
X99407610Y-99375974D01*
X99253303Y-99272871D01*
X99247598Y-99269059D01*
X99056420Y-99189870D01*
X99056412Y-99189868D01*
X98853469Y-99149500D01*
X98853465Y-99149500D01*
X98646535Y-99149500D01*
X98646530Y-99149500D01*
X98443587Y-99189868D01*
X98443579Y-99189870D01*
X98252403Y-99269058D01*
X98080342Y-99384024D01*
X97934024Y-99530342D01*
X97819058Y-99702403D01*
X97739870Y-99893579D01*
X97739868Y-99893587D01*
X97699500Y-100096530D01*
X97699500Y-100303469D01*
X97739868Y-100506412D01*
X97739870Y-100506420D01*
X97819058Y-100697596D01*
X97934024Y-100869657D01*
X98080342Y-101015975D01*
X98080345Y-101015977D01*
X98252402Y-101130941D01*
X98443580Y-101210130D01*
X98646530Y-101250499D01*
X98646534Y-101250500D01*
X98646535Y-101250500D01*
X98853466Y-101250500D01*
X98853467Y-101250499D01*
X99056420Y-101210130D01*
X99247598Y-101130941D01*
X99247599Y-101130940D01*
X99247600Y-101130940D01*
X99407610Y-101024026D01*
X99474287Y-101003148D01*
X99541667Y-101021633D01*
X99588357Y-101073612D01*
X99600500Y-101127128D01*
X99600500Y-101812871D01*
X99580815Y-101879910D01*
X99528011Y-101925665D01*
X99458853Y-101935609D01*
X99407610Y-101915974D01*
X99253303Y-101812871D01*
X99247598Y-101809059D01*
X99056420Y-101729870D01*
X99056412Y-101729868D01*
X98853469Y-101689500D01*
X98853465Y-101689500D01*
X98646535Y-101689500D01*
X98646530Y-101689500D01*
X98443587Y-101729868D01*
X98443579Y-101729870D01*
X98252403Y-101809058D01*
X98080342Y-101924024D01*
X97934024Y-102070342D01*
X97819058Y-102242403D01*
X97739870Y-102433579D01*
X97739868Y-102433587D01*
X97699500Y-102636530D01*
X97699500Y-102843469D01*
X97739868Y-103046412D01*
X97739870Y-103046420D01*
X97819058Y-103237596D01*
X97934024Y-103409657D01*
X98080340Y-103555973D01*
X98080343Y-103555975D01*
X98080345Y-103555977D01*
X98084723Y-103558902D01*
X98129528Y-103612513D01*
X98138237Y-103681837D01*
X98108083Y-103744866D01*
X98048641Y-103781586D01*
X98015833Y-103786005D01*
X97025403Y-103786005D01*
X96948975Y-103806483D01*
X96880454Y-103846045D01*
X96880451Y-103846047D01*
X95887582Y-104838916D01*
X95826259Y-104872401D01*
X95799901Y-104875235D01*
X95709843Y-104875235D01*
X95582547Y-104909343D01*
X95468421Y-104975235D01*
X95468418Y-104975237D01*
X95375237Y-105068418D01*
X95375235Y-105068421D01*
X95309343Y-105182547D01*
X95275235Y-105309843D01*
X95275235Y-105441626D01*
X95309343Y-105568922D01*
X95319441Y-105586412D01*
X95375235Y-105683049D01*
X95468421Y-105776235D01*
X95582549Y-105842127D01*
X95709843Y-105876235D01*
X95709845Y-105876235D01*
X95841625Y-105876235D01*
X95841627Y-105876235D01*
X95968921Y-105842127D01*
X96083049Y-105776235D01*
X96176235Y-105683049D01*
X96242127Y-105568921D01*
X96276235Y-105441627D01*
X96276235Y-105351567D01*
X96295920Y-105284528D01*
X96312554Y-105263886D01*
X97153117Y-104423324D01*
X97214440Y-104389839D01*
X97240798Y-104387005D01*
X97858000Y-104387005D01*
X97925039Y-104406690D01*
X97970794Y-104459494D01*
X97980738Y-104528652D01*
X97951713Y-104592208D01*
X97945681Y-104598686D01*
X97934025Y-104610341D01*
X97934024Y-104610342D01*
X97819058Y-104782403D01*
X97739870Y-104973579D01*
X97739868Y-104973587D01*
X97699500Y-105176530D01*
X97699500Y-105383469D01*
X97739868Y-105586412D01*
X97739870Y-105586420D01*
X97819058Y-105777596D01*
X97934024Y-105949657D01*
X98080342Y-106095975D01*
X98080345Y-106095977D01*
X98252402Y-106210941D01*
X98443580Y-106290130D01*
X98646530Y-106330499D01*
X98646534Y-106330500D01*
X98646535Y-106330500D01*
X98853466Y-106330500D01*
X98853467Y-106330499D01*
X99056420Y-106290130D01*
X99247598Y-106210941D01*
X99419655Y-106095977D01*
X99565977Y-105949655D01*
X99680941Y-105777598D01*
X99760130Y-105586420D01*
X99760130Y-105586418D01*
X99762461Y-105580792D01*
X99764707Y-105581722D01*
X99797133Y-105532239D01*
X99860944Y-105503779D01*
X99930011Y-105514337D01*
X99982407Y-105560559D01*
X100001500Y-105626669D01*
X100001500Y-107473330D01*
X99981815Y-107540369D01*
X99929011Y-107586124D01*
X99859853Y-107596068D01*
X99796297Y-107567043D01*
X99764657Y-107518298D01*
X99762461Y-107519208D01*
X99760130Y-107513580D01*
X99680941Y-107322402D01*
X99565977Y-107150345D01*
X99565975Y-107150342D01*
X99419657Y-107004024D01*
X99333626Y-106946541D01*
X99247598Y-106889059D01*
X99056420Y-106809870D01*
X99056412Y-106809868D01*
X98853469Y-106769500D01*
X98853465Y-106769500D01*
X98646535Y-106769500D01*
X98646530Y-106769500D01*
X98443587Y-106809868D01*
X98443579Y-106809870D01*
X98252403Y-106889058D01*
X98080342Y-107004024D01*
X97934024Y-107150342D01*
X97819058Y-107322403D01*
X97739870Y-107513579D01*
X97739868Y-107513587D01*
X97699500Y-107716530D01*
X97699500Y-107923469D01*
X97739868Y-108126412D01*
X97739870Y-108126420D01*
X97819058Y-108317596D01*
X97934024Y-108489657D01*
X98080342Y-108635975D01*
X98080345Y-108635977D01*
X98252402Y-108750941D01*
X98443580Y-108830130D01*
X98646530Y-108870499D01*
X98646534Y-108870500D01*
X98646535Y-108870500D01*
X98853466Y-108870500D01*
X98853467Y-108870499D01*
X99056420Y-108830130D01*
X99247598Y-108750941D01*
X99419655Y-108635977D01*
X99565977Y-108489655D01*
X99680941Y-108317598D01*
X99760130Y-108126420D01*
X99760130Y-108126418D01*
X99762461Y-108120792D01*
X99764707Y-108121722D01*
X99797133Y-108072239D01*
X99860944Y-108043779D01*
X99930011Y-108054337D01*
X99982407Y-108100559D01*
X100001500Y-108166669D01*
X100001500Y-108522167D01*
X99981815Y-108589206D01*
X99965181Y-108609848D01*
X98759541Y-109815487D01*
X98759535Y-109815495D01*
X98719982Y-109884004D01*
X98719978Y-109884013D01*
X98702595Y-109948884D01*
X98670502Y-110004469D01*
X98136210Y-110538761D01*
X98074887Y-110572246D01*
X98005195Y-110567262D01*
X97949262Y-110525390D01*
X97941142Y-110513080D01*
X97934477Y-110501536D01*
X97900500Y-110442686D01*
X97807314Y-110349500D01*
X97750250Y-110316554D01*
X97693187Y-110283608D01*
X97629539Y-110266554D01*
X97565892Y-110249500D01*
X97434108Y-110249500D01*
X97306812Y-110283608D01*
X97192686Y-110349500D01*
X97192683Y-110349502D01*
X97099502Y-110442683D01*
X97099500Y-110442686D01*
X97078064Y-110479815D01*
X97033608Y-110556814D01*
X97022170Y-110599502D01*
X97020002Y-110607594D01*
X96983637Y-110667254D01*
X96920790Y-110697783D01*
X96900227Y-110699500D01*
X87458676Y-110699500D01*
X87391637Y-110679815D01*
X87370995Y-110663181D01*
X87307316Y-110599502D01*
X87307314Y-110599500D01*
X87233380Y-110556814D01*
X87193187Y-110533608D01*
X87116574Y-110513080D01*
X87065892Y-110499500D01*
X86975833Y-110499500D01*
X86908794Y-110479815D01*
X86888152Y-110463181D01*
X85586651Y-109161680D01*
X85553166Y-109100357D01*
X85558150Y-109030665D01*
X85600022Y-108974732D01*
X85665486Y-108950315D01*
X85674332Y-108949999D01*
X85750000Y-108949999D01*
X85750000Y-108233012D01*
X85807007Y-108265925D01*
X85934174Y-108300000D01*
X86065826Y-108300000D01*
X86192993Y-108265925D01*
X86250000Y-108233012D01*
X86250000Y-108949999D01*
X86894786Y-108949999D01*
X86894808Y-108949997D01*
X86919869Y-108947091D01*
X86919873Y-108947090D01*
X87022474Y-108901788D01*
X87022479Y-108901785D01*
X87101785Y-108822479D01*
X87101788Y-108822474D01*
X87147089Y-108719877D01*
X87147089Y-108719875D01*
X87149999Y-108694794D01*
X87150000Y-108694791D01*
X87150000Y-108050000D01*
X86433012Y-108050000D01*
X86465925Y-107992993D01*
X86500000Y-107865826D01*
X86500000Y-107734174D01*
X86465925Y-107607007D01*
X86433012Y-107550000D01*
X87149999Y-107550000D01*
X87149999Y-106905214D01*
X87149997Y-106905191D01*
X87147091Y-106880130D01*
X87147090Y-106880126D01*
X87101788Y-106777525D01*
X87101785Y-106777520D01*
X87022479Y-106698214D01*
X87022474Y-106698211D01*
X86919876Y-106652910D01*
X86894794Y-106650000D01*
X86250000Y-106650000D01*
X86250000Y-107366988D01*
X86192993Y-107334075D01*
X86065826Y-107300000D01*
X85934174Y-107300000D01*
X85807007Y-107334075D01*
X85750000Y-107366988D01*
X85750000Y-106650000D01*
X85273500Y-106650000D01*
X85206461Y-106630315D01*
X85160706Y-106577511D01*
X85149500Y-106526000D01*
X85149500Y-106187128D01*
X85169185Y-106120089D01*
X85221989Y-106074334D01*
X85291147Y-106064390D01*
X85342390Y-106084026D01*
X85502400Y-106190940D01*
X85502401Y-106190940D01*
X85502402Y-106190941D01*
X85693580Y-106270130D01*
X85896530Y-106310499D01*
X85896534Y-106310500D01*
X85896535Y-106310500D01*
X86103466Y-106310500D01*
X86103467Y-106310499D01*
X86306420Y-106270130D01*
X86497598Y-106190941D01*
X86669655Y-106075977D01*
X86815977Y-105929655D01*
X86930941Y-105757598D01*
X87010130Y-105566420D01*
X87050500Y-105363465D01*
X87050500Y-105156535D01*
X87010130Y-104953580D01*
X86930941Y-104762402D01*
X86815977Y-104590345D01*
X86815975Y-104590342D01*
X86669657Y-104444024D01*
X86502227Y-104332152D01*
X86497598Y-104329059D01*
X86399598Y-104288466D01*
X86306420Y-104249870D01*
X86306412Y-104249868D01*
X86103469Y-104209500D01*
X86103465Y-104209500D01*
X85896535Y-104209500D01*
X85896530Y-104209500D01*
X85693587Y-104249868D01*
X85693579Y-104249870D01*
X85502403Y-104329058D01*
X85342390Y-104435974D01*
X85275712Y-104456851D01*
X85208332Y-104438366D01*
X85161643Y-104386387D01*
X85149500Y-104332871D01*
X85149500Y-103647128D01*
X85169185Y-103580089D01*
X85221989Y-103534334D01*
X85291147Y-103524390D01*
X85342390Y-103544026D01*
X85502400Y-103650940D01*
X85502401Y-103650940D01*
X85502402Y-103650941D01*
X85693580Y-103730130D01*
X85808114Y-103752912D01*
X85896530Y-103770499D01*
X85896534Y-103770500D01*
X85896535Y-103770500D01*
X86103466Y-103770500D01*
X86103467Y-103770499D01*
X86306420Y-103730130D01*
X86497598Y-103650941D01*
X86669655Y-103535977D01*
X86815977Y-103389655D01*
X86930941Y-103217598D01*
X87010130Y-103026420D01*
X87050500Y-102823465D01*
X87050500Y-102616535D01*
X87010130Y-102413580D01*
X86930941Y-102222402D01*
X86815977Y-102050345D01*
X86815975Y-102050342D01*
X86669657Y-101904024D01*
X86503303Y-101792871D01*
X86497598Y-101789059D01*
X86306420Y-101709870D01*
X86306412Y-101709868D01*
X86103469Y-101669500D01*
X86103465Y-101669500D01*
X85896535Y-101669500D01*
X85896530Y-101669500D01*
X85693587Y-101709868D01*
X85693579Y-101709870D01*
X85502403Y-101789058D01*
X85342390Y-101895974D01*
X85275712Y-101916851D01*
X85208332Y-101898366D01*
X85161643Y-101846387D01*
X85149500Y-101792871D01*
X85149500Y-101107128D01*
X85169185Y-101040089D01*
X85221989Y-100994334D01*
X85291147Y-100984390D01*
X85342390Y-101004026D01*
X85502400Y-101110940D01*
X85502401Y-101110940D01*
X85502402Y-101110941D01*
X85693580Y-101190130D01*
X85896530Y-101230499D01*
X85896534Y-101230500D01*
X85896535Y-101230500D01*
X86103466Y-101230500D01*
X86103467Y-101230499D01*
X86306420Y-101190130D01*
X86497598Y-101110941D01*
X86669655Y-100995977D01*
X86815977Y-100849655D01*
X86930941Y-100677598D01*
X87010130Y-100486420D01*
X87050500Y-100283465D01*
X87050500Y-100076535D01*
X87010130Y-99873580D01*
X86930941Y-99682402D01*
X86815977Y-99510345D01*
X86815975Y-99510342D01*
X86669657Y-99364024D01*
X86503303Y-99252871D01*
X86497598Y-99249059D01*
X86306420Y-99169870D01*
X86306412Y-99169868D01*
X86103469Y-99129500D01*
X86103465Y-99129500D01*
X85896535Y-99129500D01*
X85896530Y-99129500D01*
X85693587Y-99169868D01*
X85693579Y-99169870D01*
X85502403Y-99249058D01*
X85342390Y-99355974D01*
X85275712Y-99376851D01*
X85208332Y-99358366D01*
X85161643Y-99306387D01*
X85149500Y-99252871D01*
X85149500Y-98567128D01*
X85169185Y-98500089D01*
X85221989Y-98454334D01*
X85291147Y-98444390D01*
X85342390Y-98464026D01*
X85502400Y-98570940D01*
X85502401Y-98570940D01*
X85502402Y-98570941D01*
X85693580Y-98650130D01*
X85896530Y-98690499D01*
X85896534Y-98690500D01*
X85896535Y-98690500D01*
X86103466Y-98690500D01*
X86103467Y-98690499D01*
X86306420Y-98650130D01*
X86497598Y-98570941D01*
X86669655Y-98455977D01*
X86815977Y-98309655D01*
X86930941Y-98137598D01*
X87010130Y-97946420D01*
X87050500Y-97743465D01*
X87050500Y-97536535D01*
X87010130Y-97333580D01*
X86930941Y-97142402D01*
X86815977Y-96970345D01*
X86815975Y-96970342D01*
X86669657Y-96824024D01*
X86503303Y-96712871D01*
X86497598Y-96709059D01*
X86306420Y-96629870D01*
X86306412Y-96629868D01*
X86103469Y-96589500D01*
X86103465Y-96589500D01*
X85896535Y-96589500D01*
X85896530Y-96589500D01*
X85693587Y-96629868D01*
X85693579Y-96629870D01*
X85502403Y-96709058D01*
X85342390Y-96815974D01*
X85275712Y-96836851D01*
X85208332Y-96818366D01*
X85161643Y-96766387D01*
X85149500Y-96712871D01*
X85149500Y-96027128D01*
X85169185Y-95960089D01*
X85221989Y-95914334D01*
X85291147Y-95904390D01*
X85342390Y-95924026D01*
X85502400Y-96030940D01*
X85502401Y-96030940D01*
X85502402Y-96030941D01*
X85693580Y-96110130D01*
X85896530Y-96150499D01*
X85896534Y-96150500D01*
X85896535Y-96150500D01*
X86103466Y-96150500D01*
X86103467Y-96150499D01*
X86306420Y-96110130D01*
X86497598Y-96030941D01*
X86669655Y-95915977D01*
X86815977Y-95769655D01*
X86930941Y-95597598D01*
X87010130Y-95406420D01*
X87050500Y-95203465D01*
X87050500Y-94996535D01*
X87010130Y-94793580D01*
X86930941Y-94602402D01*
X86815977Y-94430345D01*
X86815975Y-94430342D01*
X86669657Y-94284024D01*
X86503303Y-94172871D01*
X86497598Y-94169059D01*
X86306420Y-94089870D01*
X86306412Y-94089868D01*
X86103469Y-94049500D01*
X86103465Y-94049500D01*
X85896535Y-94049500D01*
X85896530Y-94049500D01*
X85693587Y-94089868D01*
X85693579Y-94089870D01*
X85502403Y-94169058D01*
X85342390Y-94275974D01*
X85275712Y-94296851D01*
X85208332Y-94278366D01*
X85161643Y-94226387D01*
X85149500Y-94172871D01*
X85149500Y-93487128D01*
X85169185Y-93420089D01*
X85221989Y-93374334D01*
X85291147Y-93364390D01*
X85342390Y-93384026D01*
X85502400Y-93490940D01*
X85502401Y-93490940D01*
X85502402Y-93490941D01*
X85693580Y-93570130D01*
X85896530Y-93610499D01*
X85896534Y-93610500D01*
X85896535Y-93610500D01*
X86103466Y-93610500D01*
X86103467Y-93610499D01*
X86306420Y-93570130D01*
X86497598Y-93490941D01*
X86669655Y-93375977D01*
X86815977Y-93229655D01*
X86930941Y-93057598D01*
X87010130Y-92866420D01*
X87050500Y-92663465D01*
X87050500Y-92456535D01*
X87010130Y-92253580D01*
X86930941Y-92062402D01*
X86815977Y-91890345D01*
X86815975Y-91890342D01*
X86669657Y-91744024D01*
X86503303Y-91632871D01*
X86497598Y-91629059D01*
X86306420Y-91549870D01*
X86306412Y-91549868D01*
X86103469Y-91509500D01*
X86103465Y-91509500D01*
X85896535Y-91509500D01*
X85896530Y-91509500D01*
X85693587Y-91549868D01*
X85693579Y-91549870D01*
X85502403Y-91629058D01*
X85342390Y-91735974D01*
X85275712Y-91756851D01*
X85208332Y-91738366D01*
X85161643Y-91686387D01*
X85149500Y-91632871D01*
X85149500Y-91346832D01*
X85169185Y-91279793D01*
X85185815Y-91259155D01*
X85437896Y-91007073D01*
X85499217Y-90973590D01*
X85568908Y-90978574D01*
X85573007Y-90980186D01*
X85693580Y-91030130D01*
X85896530Y-91070499D01*
X85896534Y-91070500D01*
X85896535Y-91070500D01*
X86103466Y-91070500D01*
X86103467Y-91070499D01*
X86306420Y-91030130D01*
X86497598Y-90950941D01*
X86669655Y-90835977D01*
X86815977Y-90689655D01*
X86871397Y-90606711D01*
X86925009Y-90561906D01*
X86994334Y-90553199D01*
X87057362Y-90583353D01*
G37*
%TD.AperFunction*%
%TA.AperFunction,Conductor*%
G36*
X100392539Y-82470185D02*
G01*
X100438294Y-82522989D01*
X100449500Y-82574500D01*
X100449500Y-93555167D01*
X100429815Y-93622206D01*
X100377011Y-93667961D01*
X100307853Y-93677905D01*
X100244297Y-93648880D01*
X100237819Y-93642848D01*
X99737075Y-93142104D01*
X99703590Y-93080781D01*
X99708574Y-93011089D01*
X99710163Y-93007049D01*
X99760130Y-92886420D01*
X99800500Y-92683465D01*
X99800500Y-92476535D01*
X99760130Y-92273580D01*
X99680941Y-92082402D01*
X99565977Y-91910345D01*
X99565975Y-91910342D01*
X99419657Y-91764024D01*
X99283707Y-91673186D01*
X99247598Y-91649059D01*
X99056420Y-91569870D01*
X99056412Y-91569868D01*
X98853469Y-91529500D01*
X98853465Y-91529500D01*
X98646535Y-91529500D01*
X98646530Y-91529500D01*
X98443587Y-91569868D01*
X98443579Y-91569870D01*
X98252403Y-91649058D01*
X98080342Y-91764024D01*
X97934024Y-91910342D01*
X97819058Y-92082403D01*
X97739870Y-92273579D01*
X97739868Y-92273587D01*
X97699500Y-92476530D01*
X97699500Y-92683469D01*
X97739868Y-92886412D01*
X97739870Y-92886420D01*
X97795277Y-93020185D01*
X97819059Y-93077598D01*
X97848394Y-93121501D01*
X97934024Y-93249657D01*
X98080342Y-93395975D01*
X98080345Y-93395977D01*
X98252402Y-93510941D01*
X98443580Y-93590130D01*
X98604838Y-93622206D01*
X98646530Y-93630499D01*
X98646534Y-93630500D01*
X98646535Y-93630500D01*
X98853466Y-93630500D01*
X98853467Y-93630499D01*
X99056420Y-93590130D01*
X99176974Y-93540194D01*
X99246438Y-93532726D01*
X99308918Y-93564000D01*
X99312104Y-93567075D01*
X99965181Y-94220152D01*
X99998666Y-94281475D01*
X100001500Y-94307833D01*
X100001500Y-94773330D01*
X99981815Y-94840369D01*
X99929011Y-94886124D01*
X99859853Y-94896068D01*
X99796297Y-94867043D01*
X99764657Y-94818298D01*
X99762461Y-94819208D01*
X99760130Y-94813580D01*
X99680941Y-94622402D01*
X99565977Y-94450345D01*
X99565975Y-94450342D01*
X99419657Y-94304024D01*
X99294132Y-94220152D01*
X99247598Y-94189059D01*
X99056420Y-94109870D01*
X99056412Y-94109868D01*
X98853469Y-94069500D01*
X98853465Y-94069500D01*
X98646535Y-94069500D01*
X98646530Y-94069500D01*
X98443587Y-94109868D01*
X98443579Y-94109870D01*
X98252403Y-94189058D01*
X98080342Y-94304024D01*
X97934024Y-94450342D01*
X97819058Y-94622403D01*
X97739870Y-94813579D01*
X97739868Y-94813587D01*
X97699500Y-95016530D01*
X97699500Y-95223469D01*
X97739868Y-95426412D01*
X97739870Y-95426420D01*
X97819058Y-95617596D01*
X97934024Y-95789657D01*
X98080342Y-95935975D01*
X98080345Y-95935977D01*
X98252402Y-96050941D01*
X98443580Y-96130130D01*
X98646530Y-96170499D01*
X98646534Y-96170500D01*
X98646535Y-96170500D01*
X98853466Y-96170500D01*
X98853467Y-96170499D01*
X99056420Y-96130130D01*
X99176974Y-96080194D01*
X99246438Y-96072726D01*
X99308918Y-96104000D01*
X99312104Y-96107075D01*
X99564181Y-96359152D01*
X99597666Y-96420475D01*
X99600500Y-96446833D01*
X99600500Y-96732871D01*
X99580815Y-96799910D01*
X99528011Y-96845665D01*
X99458853Y-96855609D01*
X99407610Y-96835974D01*
X99253303Y-96732871D01*
X99247598Y-96729059D01*
X99056420Y-96649870D01*
X99056412Y-96649868D01*
X98853469Y-96609500D01*
X98853465Y-96609500D01*
X98646535Y-96609500D01*
X98646530Y-96609500D01*
X98443587Y-96649868D01*
X98443579Y-96649870D01*
X98252403Y-96729058D01*
X98080342Y-96844024D01*
X97934024Y-96990342D01*
X97819058Y-97162403D01*
X97769125Y-97282953D01*
X97725284Y-97337356D01*
X97658990Y-97359421D01*
X97654564Y-97359500D01*
X93985890Y-97359500D01*
X93918851Y-97339815D01*
X93898209Y-97323181D01*
X89711238Y-93136210D01*
X89703206Y-93121501D01*
X89691147Y-93109858D01*
X89686807Y-93091468D01*
X89677753Y-93074887D01*
X89678948Y-93058168D01*
X89675099Y-93041856D01*
X89681389Y-93024041D01*
X89682737Y-93005195D01*
X89692950Y-92991298D01*
X89698362Y-92975973D01*
X89715778Y-92960240D01*
X89722877Y-92950582D01*
X89729570Y-92945385D01*
X89807314Y-92900500D01*
X89876494Y-92831319D01*
X89882634Y-92826553D01*
X89908207Y-92816499D01*
X89932318Y-92803334D01*
X89945227Y-92801946D01*
X89947659Y-92800990D01*
X89949923Y-92801441D01*
X89958676Y-92800500D01*
X91291324Y-92800500D01*
X91358363Y-92820185D01*
X91379005Y-92836819D01*
X91442686Y-92900500D01*
X91556814Y-92966392D01*
X91684108Y-93000500D01*
X91684110Y-93000500D01*
X91745685Y-93000500D01*
X91812724Y-93020185D01*
X91858479Y-93072989D01*
X91868423Y-93142147D01*
X91853072Y-93186501D01*
X91849502Y-93192683D01*
X91849500Y-93192686D01*
X91828156Y-93229655D01*
X91783608Y-93306812D01*
X91759717Y-93395977D01*
X91749500Y-93434108D01*
X91749500Y-93565892D01*
X91755995Y-93590131D01*
X91783608Y-93693187D01*
X91816554Y-93750250D01*
X91849500Y-93807314D01*
X91942686Y-93900500D01*
X92056814Y-93966392D01*
X92184108Y-94000500D01*
X92184110Y-94000500D01*
X92315890Y-94000500D01*
X92315892Y-94000500D01*
X92443186Y-93966392D01*
X92557314Y-93900500D01*
X92650500Y-93807314D01*
X92716392Y-93693186D01*
X92750500Y-93565892D01*
X92750500Y-93434108D01*
X92716392Y-93306814D01*
X92683391Y-93249655D01*
X92668113Y-93223192D01*
X92651500Y-93161192D01*
X92651500Y-89811439D01*
X92631020Y-89735009D01*
X92631017Y-89735004D01*
X92591464Y-89666495D01*
X92591458Y-89666487D01*
X90512651Y-87587680D01*
X90479166Y-87526357D01*
X90484150Y-87456665D01*
X90512647Y-87412323D01*
X91760862Y-86164108D01*
X96019500Y-86164108D01*
X96019500Y-86295892D01*
X96033998Y-86350000D01*
X96053608Y-86423187D01*
X96084978Y-86477520D01*
X96119500Y-86537314D01*
X96119502Y-86537316D01*
X96183181Y-86600995D01*
X96216666Y-86662318D01*
X96219500Y-86688676D01*
X96219500Y-91021323D01*
X96199815Y-91088362D01*
X96183182Y-91109004D01*
X96119500Y-91172686D01*
X96053608Y-91286812D01*
X96032676Y-91364934D01*
X96019500Y-91414108D01*
X96019500Y-91545892D01*
X96020566Y-91549870D01*
X96053608Y-91673187D01*
X96086554Y-91730250D01*
X96119500Y-91787314D01*
X96212686Y-91880500D01*
X96326814Y-91946392D01*
X96454108Y-91980500D01*
X96454110Y-91980500D01*
X96585890Y-91980500D01*
X96585892Y-91980500D01*
X96713186Y-91946392D01*
X96827314Y-91880500D01*
X96920500Y-91787314D01*
X96986392Y-91673186D01*
X97020500Y-91545892D01*
X97020500Y-91414108D01*
X96986392Y-91286814D01*
X96920500Y-91172686D01*
X96856818Y-91109004D01*
X96823334Y-91047680D01*
X96820500Y-91021323D01*
X96820500Y-89936530D01*
X97699500Y-89936530D01*
X97699500Y-90143469D01*
X97739868Y-90346412D01*
X97739870Y-90346420D01*
X97819058Y-90537596D01*
X97934024Y-90709657D01*
X98080342Y-90855975D01*
X98080345Y-90855977D01*
X98252402Y-90970941D01*
X98443580Y-91050130D01*
X98646530Y-91090499D01*
X98646534Y-91090500D01*
X98646535Y-91090500D01*
X98853466Y-91090500D01*
X98853467Y-91090499D01*
X99056420Y-91050130D01*
X99247598Y-90970941D01*
X99419655Y-90855977D01*
X99565977Y-90709655D01*
X99680941Y-90537598D01*
X99760130Y-90346420D01*
X99800500Y-90143465D01*
X99800500Y-89936535D01*
X99760130Y-89733580D01*
X99680941Y-89542402D01*
X99565977Y-89370345D01*
X99565975Y-89370342D01*
X99419657Y-89224024D01*
X99333626Y-89166541D01*
X99247598Y-89109059D01*
X99056420Y-89029870D01*
X99056412Y-89029868D01*
X98853469Y-88989500D01*
X98853465Y-88989500D01*
X98646535Y-88989500D01*
X98646530Y-88989500D01*
X98443587Y-89029868D01*
X98443579Y-89029870D01*
X98252403Y-89109058D01*
X98080342Y-89224024D01*
X97934024Y-89370342D01*
X97819058Y-89542403D01*
X97739870Y-89733579D01*
X97739868Y-89733587D01*
X97699500Y-89936530D01*
X96820500Y-89936530D01*
X96820500Y-86688676D01*
X96828648Y-86660924D01*
X96833960Y-86632490D01*
X96839062Y-86625459D01*
X96840185Y-86621637D01*
X96853030Y-86605205D01*
X97600000Y-86605205D01*
X97600000Y-87250000D01*
X98316988Y-87250000D01*
X98284075Y-87307007D01*
X98250000Y-87434174D01*
X98250000Y-87565826D01*
X98284075Y-87692993D01*
X98316988Y-87750000D01*
X97600001Y-87750000D01*
X97600001Y-88394785D01*
X97600002Y-88394808D01*
X97602908Y-88419869D01*
X97602909Y-88419873D01*
X97648211Y-88522474D01*
X97648214Y-88522479D01*
X97727520Y-88601785D01*
X97727525Y-88601788D01*
X97830123Y-88647089D01*
X97855206Y-88649999D01*
X98499999Y-88649999D01*
X98500000Y-88649998D01*
X98500000Y-87933012D01*
X98557007Y-87965925D01*
X98684174Y-88000000D01*
X98815826Y-88000000D01*
X98942993Y-87965925D01*
X99000000Y-87933012D01*
X99000000Y-88649999D01*
X99644786Y-88649999D01*
X99644808Y-88649997D01*
X99669869Y-88647091D01*
X99669873Y-88647090D01*
X99772474Y-88601788D01*
X99772479Y-88601785D01*
X99851785Y-88522479D01*
X99851788Y-88522474D01*
X99897089Y-88419877D01*
X99897089Y-88419875D01*
X99899999Y-88394794D01*
X99900000Y-88394791D01*
X99900000Y-87750000D01*
X99183012Y-87750000D01*
X99215925Y-87692993D01*
X99250000Y-87565826D01*
X99250000Y-87434174D01*
X99215925Y-87307007D01*
X99183012Y-87250000D01*
X99899999Y-87250000D01*
X99899999Y-86605214D01*
X99899997Y-86605191D01*
X99897091Y-86580130D01*
X99897090Y-86580126D01*
X99851788Y-86477525D01*
X99851785Y-86477520D01*
X99772479Y-86398214D01*
X99772474Y-86398211D01*
X99669876Y-86352910D01*
X99644794Y-86350000D01*
X99000000Y-86350000D01*
X99000000Y-87066988D01*
X98942993Y-87034075D01*
X98815826Y-87000000D01*
X98684174Y-87000000D01*
X98557007Y-87034075D01*
X98500000Y-87066988D01*
X98500000Y-86350000D01*
X97855214Y-86350000D01*
X97855191Y-86350002D01*
X97830130Y-86352908D01*
X97830126Y-86352909D01*
X97727525Y-86398211D01*
X97727520Y-86398214D01*
X97648214Y-86477520D01*
X97648211Y-86477525D01*
X97602910Y-86580122D01*
X97602910Y-86580124D01*
X97600000Y-86605205D01*
X96853030Y-86605205D01*
X96854267Y-86603623D01*
X96855514Y-86602299D01*
X96920500Y-86537314D01*
X96986392Y-86423186D01*
X97020500Y-86295892D01*
X97020500Y-86164108D01*
X96986392Y-86036814D01*
X96920500Y-85922686D01*
X96827314Y-85829500D01*
X96747827Y-85783608D01*
X96713187Y-85763608D01*
X96649539Y-85746554D01*
X96585892Y-85729500D01*
X96454108Y-85729500D01*
X96326812Y-85763608D01*
X96212686Y-85829500D01*
X96212683Y-85829502D01*
X96119502Y-85922683D01*
X96119500Y-85922686D01*
X96053608Y-86036812D01*
X96048249Y-86056814D01*
X96019500Y-86164108D01*
X91760862Y-86164108D01*
X94638151Y-83286818D01*
X94699474Y-83253334D01*
X94725832Y-83250500D01*
X94815890Y-83250500D01*
X94815892Y-83250500D01*
X94943186Y-83216392D01*
X95057314Y-83150500D01*
X95150500Y-83057314D01*
X95216392Y-82943186D01*
X95250500Y-82815892D01*
X95250500Y-82684108D01*
X95229730Y-82606592D01*
X95231393Y-82536743D01*
X95270556Y-82478881D01*
X95334784Y-82451377D01*
X95349505Y-82450500D01*
X100325500Y-82450500D01*
X100392539Y-82470185D01*
G37*
%TD.AperFunction*%
%TD*%
M02*
