%TF.GenerationSoftware,KiCad,Pcbnew,9.0.2*%
%TF.CreationDate,2025-07-02T23:55:56-04:00*%
%TF.ProjectId,strain-gauge,73747261-696e-42d6-9761-7567652e6b69,rev?*%
%TF.SameCoordinates,Original*%
%TF.FileFunction,Paste,Top*%
%TF.FilePolarity,Positive*%
%FSLAX46Y46*%
G04 Gerber Fmt 4.6, Leading zero omitted, Abs format (unit mm)*
G04 Created by KiCad (PCBNEW 9.0.2) date 2025-07-02 23:55:56*
%MOMM*%
%LPD*%
G01*
G04 APERTURE LIST*
G04 Aperture macros list*
%AMRoundRect*
0 Rectangle with rounded corners*
0 $1 Rounding radius*
0 $2 $3 $4 $5 $6 $7 $8 $9 X,Y pos of 4 corners*
0 Add a 4 corners polygon primitive as box body*
4,1,4,$2,$3,$4,$5,$6,$7,$8,$9,$2,$3,0*
0 Add four circle primitives for the rounded corners*
1,1,$1+$1,$2,$3*
1,1,$1+$1,$4,$5*
1,1,$1+$1,$6,$7*
1,1,$1+$1,$8,$9*
0 Add four rect primitives between the rounded corners*
20,1,$1+$1,$2,$3,$4,$5,0*
20,1,$1+$1,$4,$5,$6,$7,0*
20,1,$1+$1,$6,$7,$8,$9,0*
20,1,$1+$1,$8,$9,$2,$3,0*%
G04 Aperture macros list end*
%ADD10RoundRect,0.250000X-0.250000X-0.475000X0.250000X-0.475000X0.250000X0.475000X-0.250000X0.475000X0*%
%ADD11RoundRect,0.100000X-0.712500X-0.100000X0.712500X-0.100000X0.712500X0.100000X-0.712500X0.100000X0*%
%ADD12RoundRect,0.225000X-0.225000X-0.250000X0.225000X-0.250000X0.225000X0.250000X-0.225000X0.250000X0*%
%ADD13R,0.355600X1.473200*%
%ADD14RoundRect,0.225000X0.250000X-0.225000X0.250000X0.225000X-0.250000X0.225000X-0.250000X-0.225000X0*%
%ADD15RoundRect,0.225000X-0.250000X0.225000X-0.250000X-0.225000X0.250000X-0.225000X0.250000X0.225000X0*%
%ADD16RoundRect,0.200000X-0.275000X0.200000X-0.275000X-0.200000X0.275000X-0.200000X0.275000X0.200000X0*%
%ADD17RoundRect,0.050000X-0.050000X0.475000X-0.050000X-0.475000X0.050000X-0.475000X0.050000X0.475000X0*%
%ADD18RoundRect,0.050000X-0.337500X0.050000X-0.337500X-0.050000X0.337500X-0.050000X0.337500X0.050000X0*%
%ADD19RoundRect,0.100000X0.225000X0.100000X-0.225000X0.100000X-0.225000X-0.100000X0.225000X-0.100000X0*%
%ADD20R,1.460500X0.558800*%
G04 APERTURE END LIST*
D10*
%TO.C,C1*%
X91577056Y-100750000D03*
X89677056Y-100750000D03*
%TD*%
D11*
%TO.C,U5*%
X91025000Y-96800000D03*
X91025000Y-97450000D03*
X91025000Y-98100000D03*
X91025000Y-98750000D03*
X95250000Y-98750000D03*
X95250000Y-98100000D03*
X95250000Y-97450000D03*
X95250000Y-96800000D03*
%TD*%
D12*
%TO.C,C7*%
X94062500Y-95275000D03*
X95612500Y-95275000D03*
%TD*%
D13*
%TO.C,U1*%
X94524999Y-104579000D03*
X93875001Y-104579000D03*
X93224999Y-104579000D03*
X92575001Y-104579000D03*
X91925002Y-104579000D03*
X91275001Y-104579000D03*
X90625002Y-104579000D03*
X89975001Y-104579000D03*
X89975001Y-110421000D03*
X90624999Y-110421000D03*
X91275001Y-110421000D03*
X91924999Y-110421000D03*
X92574998Y-110421000D03*
X93224999Y-110421000D03*
X93874998Y-110421000D03*
X94524999Y-110421000D03*
%TD*%
D12*
%TO.C,C2*%
X89852056Y-102750000D03*
X91402056Y-102750000D03*
%TD*%
D14*
%TO.C,C4*%
X94652056Y-102775000D03*
X94652056Y-101225000D03*
%TD*%
D15*
%TO.C,C6*%
X96000000Y-109225000D03*
X96000000Y-110775000D03*
%TD*%
D16*
%TO.C,R2*%
X88500000Y-109200000D03*
X88500000Y-110850000D03*
%TD*%
D17*
%TO.C,U2*%
X90107935Y-93700565D03*
X89707935Y-93700565D03*
D18*
X89020435Y-93850565D03*
X89020435Y-94250565D03*
X89020435Y-94650565D03*
X89020435Y-95050565D03*
D17*
X89707935Y-95200565D03*
X90107935Y-95200565D03*
D18*
X90795435Y-95050565D03*
X90795435Y-94650565D03*
X90795435Y-94250565D03*
X90795435Y-93850565D03*
%TD*%
D19*
%TO.C,U4*%
X98510000Y-84950000D03*
X98510000Y-84300000D03*
X98510000Y-83650000D03*
X96610000Y-83650000D03*
X96610000Y-84950000D03*
%TD*%
D14*
%TO.C,C3*%
X93102056Y-102775000D03*
X93102056Y-101225000D03*
%TD*%
%TO.C,C5*%
X88500000Y-106025000D03*
X88500000Y-104475000D03*
%TD*%
D20*
%TO.C,U3*%
X89435850Y-83730000D03*
X89435850Y-85000000D03*
X89435850Y-86270000D03*
X89435850Y-87540000D03*
X89435850Y-88810000D03*
X89435850Y-90080000D03*
X89435850Y-91350000D03*
X94884150Y-91350000D03*
X94884150Y-90080000D03*
X94884150Y-88810000D03*
X94884150Y-87540000D03*
X94884150Y-86270000D03*
X94884150Y-85000000D03*
X94884150Y-83730000D03*
%TD*%
D16*
%TO.C,R1*%
X89148559Y-97346649D03*
X89148559Y-98996649D03*
%TD*%
D10*
%TO.C,C8*%
X93887500Y-93275000D03*
X95787500Y-93275000D03*
%TD*%
M02*
