M48
; DRILL file {KiCad 9.0.2} date 2025-07-02T23:55:52-0400
; FORMAT={-:-/ absolute / metric / decimal}
; #@! TF.CreationDate,2025-07-02T23:55:52-04:00
; #@! TF.GenerationSoftware,Kicad,Pcbnew,9.0.2
; #@! TF.FileFunction,Plated,1,2,PTH
FMAT,2
METRIC
; #@! TA.AperFunction,Plated,PTH,ViaDrill
T1C0.300
; #@! TA.AperFunction,Plated,PTH,ComponentDrill
T2C1.000
%
G90
G05
T1
X87.0Y-111.0
X88.0Y-86.25
X88.0Y-87.5
X88.0Y-90.0
X89.5Y-92.5
X90.0Y-111.9
X90.988Y-95.988
X91.75Y-92.5
X92.25Y-93.5
X94.75Y-82.75
X95.0Y-100.0
X95.75Y-104.0
X95.776Y-105.376
X96.5Y-108.0
X96.52Y-86.23
X96.52Y-91.48
X96.75Y-95.5
X97.5Y-110.75
X100.0Y-84.5
T2
X86.0Y-87.48
X86.0Y-90.02
X86.0Y-92.56
X86.0Y-95.1
X86.0Y-97.64
X86.0Y-100.18
X86.0Y-102.72
X86.0Y-105.26
X86.0Y-107.8
X98.75Y-87.5
X98.75Y-90.04
X98.75Y-92.58
X98.75Y-95.12
X98.75Y-97.66
X98.75Y-100.2
X98.75Y-102.74
X98.75Y-105.28
X98.75Y-107.82
M30
