M48
; DRILL file {KiCad 9.0.2} date 2025-07-02T09:26:58-0400
; FORMAT={-:-/ absolute / metric / decimal}
; #@! TF.CreationDate,2025-07-02T09:26:58-04:00
; #@! TF.GenerationSoftware,Kicad,Pcbnew,9.0.2
; #@! TF.FileFunction,Plated,1,2,PTH
FMAT,2
METRIC
; #@! TA.AperFunction,Plated,PTH,ViaDrill
T1C0.300
; #@! TA.AperFunction,Plated,PTH,ComponentDrill
T2C0.500
%
G90
G05
T1
X85.05Y-139.0
X85.25Y-134.0
X85.25Y-135.5
X88.25Y-124.474
X88.75Y-139.25
X89.345Y-123.5
X89.684Y-125.184
X89.75Y-128.75
X89.98Y-123.0
X91.0Y-134.5
X91.0Y-136.0
X91.5Y-127.0
X92.5Y-115.0
X93.75Y-124.5
X93.79Y-115.0
X94.0Y-118.75
X94.446Y-139.0
X94.5Y-123.75
X96.75Y-126.25
X96.75Y-127.75
X96.9Y-135.184
X97.0Y-123.75
X97.5Y-135.75
X98.15Y-136.25
X98.25Y-122.25
X98.75Y-115.25
X98.75Y-137.0
X99.0Y-139.25
X99.2Y-137.75
X99.55Y-121.15
X99.7Y-119.85
T2
X85.625Y-123.75
X85.625Y-124.75
X85.625Y-125.75
X85.625Y-126.75
X85.625Y-127.75
X85.625Y-128.75
X85.625Y-129.75
X85.625Y-130.75
X85.625Y-131.75
X98.5Y-123.75
X98.5Y-124.75
X98.5Y-125.75
X98.5Y-126.75
X98.5Y-127.75
X98.5Y-128.75
X98.5Y-129.75
X98.5Y-130.75
X98.5Y-131.75
M30
