%TF.GenerationSoftware,KiCad,Pcbnew,9.0.2*%
%TF.CreationDate,2025-08-03T15:00:21-04:00*%
%TF.ProjectId,SGTC,53475443-2e6b-4696-9361-645f70636258,rev?*%
%TF.SameCoordinates,Original*%
%TF.FileFunction,Copper,L2,Bot*%
%TF.FilePolarity,Positive*%
%FSLAX46Y46*%
G04 Gerber Fmt 4.6, Leading zero omitted, Abs format (unit mm)*
G04 Created by KiCad (PCBNEW 9.0.2) date 2025-08-03 15:00:21*
%MOMM*%
%LPD*%
G01*
G04 APERTURE LIST*
%TA.AperFunction,ComponentPad*%
%ADD10R,1.700000X1.700000*%
%TD*%
%TA.AperFunction,ComponentPad*%
%ADD11C,1.700000*%
%TD*%
%TA.AperFunction,ViaPad*%
%ADD12C,0.600000*%
%TD*%
%TA.AperFunction,Conductor*%
%ADD13C,0.400000*%
%TD*%
G04 APERTURE END LIST*
D10*
%TO.P,J1,1,Pin_1*%
%TO.N,A1_IN_N*%
X104920000Y-105300000D03*
D11*
%TO.P,J1,2,Pin_2*%
%TO.N,A1_IN_P*%
X107460000Y-105300000D03*
%TO.P,J1,3,Pin_3*%
%TO.N,+3.3V*%
X110000000Y-105300000D03*
%TO.P,J1,4,Pin_4*%
%TO.N,GND*%
X112540000Y-105300000D03*
%TO.P,J1,5,Pin_5*%
%TO.N,A2_IN_N*%
X115080000Y-105300000D03*
%TO.P,J1,6,Pin_6*%
%TO.N,A2_IN_P*%
X117620000Y-105300000D03*
%TD*%
D10*
%TO.P,J1,1,Pin_1*%
%TO.N,A1_IN_N*%
X180470000Y-81690000D03*
D11*
%TO.P,J1,2,Pin_2*%
%TO.N,A1_IN_P*%
X177930000Y-81690000D03*
%TO.P,J1,3,Pin_3*%
%TO.N,+3.3V*%
X175390000Y-81690000D03*
%TO.P,J1,4,Pin_4*%
%TO.N,GND*%
X172850000Y-81690000D03*
%TO.P,J1,5,Pin_5*%
%TO.N,A2_IN_N*%
X170310000Y-81690000D03*
%TO.P,J1,6,Pin_6*%
%TO.N,A2_IN_P*%
X167770000Y-81690000D03*
%TD*%
D12*
%TO.N,A2_IN_P*%
X130200000Y-90560000D03*
X119660000Y-105310000D03*
%TD*%
D13*
%TO.N,A2_IN_P*%
X119660000Y-105310000D02*
X119660000Y-101100000D01*
X119660000Y-101100000D02*
X130200000Y-90560000D01*
%TD*%
%TA.AperFunction,Conductor*%
%TO.N,GND*%
G36*
X126605724Y-62703735D02*
G01*
X126641688Y-62753235D01*
X126641688Y-62814421D01*
X126627626Y-62842019D01*
X126613908Y-62860898D01*
X126521808Y-63041656D01*
X126459117Y-63234598D01*
X126427383Y-63434961D01*
X126427383Y-63637838D01*
X126459117Y-63838201D01*
X126459119Y-63838206D01*
X126521809Y-64031146D01*
X126569581Y-64124903D01*
X126613909Y-64211902D01*
X126613911Y-64211906D01*
X126733148Y-64376022D01*
X126733150Y-64376024D01*
X126733153Y-64376028D01*
X126876603Y-64519478D01*
X126876606Y-64519480D01*
X126876608Y-64519482D01*
X127040724Y-64638719D01*
X127040728Y-64638721D01*
X127221485Y-64730822D01*
X127414425Y-64793512D01*
X127414426Y-64793512D01*
X127414429Y-64793513D01*
X127614793Y-64825248D01*
X127614796Y-64825248D01*
X127817669Y-64825248D01*
X128018032Y-64793513D01*
X128018033Y-64793512D01*
X128018037Y-64793512D01*
X128210977Y-64730822D01*
X128391734Y-64638721D01*
X128405570Y-64628669D01*
X128555853Y-64519482D01*
X128555859Y-64519478D01*
X128699309Y-64376028D01*
X128818552Y-64211903D01*
X128910653Y-64031146D01*
X128973343Y-63838206D01*
X128979024Y-63802337D01*
X129005079Y-63637838D01*
X129005079Y-63434961D01*
X128973344Y-63234598D01*
X128970077Y-63224542D01*
X128910653Y-63041654D01*
X128818552Y-62860897D01*
X128804835Y-62842017D01*
X128785929Y-62783828D01*
X128804836Y-62725637D01*
X128854337Y-62689673D01*
X128884929Y-62684828D01*
X134167533Y-62684828D01*
X134225724Y-62703735D01*
X134261688Y-62753235D01*
X134261688Y-62814421D01*
X134247626Y-62842019D01*
X134233908Y-62860898D01*
X134141808Y-63041656D01*
X134079117Y-63234598D01*
X134047383Y-63434961D01*
X134047383Y-63637838D01*
X134079117Y-63838201D01*
X134079119Y-63838206D01*
X134141809Y-64031146D01*
X134189581Y-64124903D01*
X134233909Y-64211902D01*
X134233911Y-64211906D01*
X134353148Y-64376022D01*
X134353150Y-64376024D01*
X134353153Y-64376028D01*
X134496603Y-64519478D01*
X134496606Y-64519480D01*
X134496608Y-64519482D01*
X134660724Y-64638719D01*
X134660728Y-64638721D01*
X134841485Y-64730822D01*
X135034425Y-64793512D01*
X135034426Y-64793512D01*
X135034429Y-64793513D01*
X135234793Y-64825248D01*
X135234796Y-64825248D01*
X135437669Y-64825248D01*
X135638032Y-64793513D01*
X135638033Y-64793512D01*
X135638037Y-64793512D01*
X135830977Y-64730822D01*
X136011734Y-64638721D01*
X136025570Y-64628669D01*
X136175853Y-64519482D01*
X136175859Y-64519478D01*
X136319309Y-64376028D01*
X136438552Y-64211903D01*
X136530653Y-64031146D01*
X136593343Y-63838206D01*
X136599024Y-63802337D01*
X136625079Y-63637838D01*
X136625079Y-63434961D01*
X136593344Y-63234598D01*
X136590077Y-63224542D01*
X136530653Y-63041654D01*
X136438552Y-62860897D01*
X136424835Y-62842017D01*
X136405929Y-62783828D01*
X136424836Y-62725637D01*
X136474337Y-62689673D01*
X136504929Y-62684828D01*
X141787533Y-62684828D01*
X141845724Y-62703735D01*
X141881688Y-62753235D01*
X141881688Y-62814421D01*
X141867626Y-62842019D01*
X141853908Y-62860898D01*
X141761808Y-63041656D01*
X141699117Y-63234598D01*
X141667383Y-63434961D01*
X141667383Y-63637838D01*
X141699117Y-63838201D01*
X141699119Y-63838206D01*
X141761809Y-64031146D01*
X141809581Y-64124903D01*
X141853909Y-64211902D01*
X141853911Y-64211906D01*
X141973148Y-64376022D01*
X141973150Y-64376024D01*
X141973153Y-64376028D01*
X142116603Y-64519478D01*
X142116606Y-64519480D01*
X142116608Y-64519482D01*
X142280724Y-64638719D01*
X142280728Y-64638721D01*
X142461485Y-64730822D01*
X142654425Y-64793512D01*
X142654426Y-64793512D01*
X142654429Y-64793513D01*
X142854793Y-64825248D01*
X142854796Y-64825248D01*
X143057669Y-64825248D01*
X143258032Y-64793513D01*
X143258033Y-64793512D01*
X143258037Y-64793512D01*
X143450977Y-64730822D01*
X143631734Y-64638721D01*
X143645570Y-64628669D01*
X143795853Y-64519482D01*
X143795859Y-64519478D01*
X143939309Y-64376028D01*
X144058552Y-64211903D01*
X144150653Y-64031146D01*
X144213343Y-63838206D01*
X144219024Y-63802337D01*
X144245079Y-63637838D01*
X144245079Y-63434961D01*
X144213344Y-63234598D01*
X144210077Y-63224542D01*
X144150653Y-63041654D01*
X144058552Y-62860897D01*
X144044835Y-62842017D01*
X144025929Y-62783828D01*
X144044836Y-62725637D01*
X144094337Y-62689673D01*
X144124929Y-62684828D01*
X149407533Y-62684828D01*
X149465724Y-62703735D01*
X149501688Y-62753235D01*
X149501688Y-62814421D01*
X149487626Y-62842019D01*
X149473908Y-62860898D01*
X149381808Y-63041656D01*
X149319117Y-63234598D01*
X149287383Y-63434961D01*
X149287383Y-63637838D01*
X149319117Y-63838201D01*
X149319119Y-63838206D01*
X149381809Y-64031146D01*
X149429581Y-64124903D01*
X149473909Y-64211902D01*
X149473911Y-64211906D01*
X149593148Y-64376022D01*
X149593150Y-64376024D01*
X149593153Y-64376028D01*
X149736603Y-64519478D01*
X149736606Y-64519480D01*
X149736608Y-64519482D01*
X149900724Y-64638719D01*
X149900728Y-64638721D01*
X150081485Y-64730822D01*
X150274425Y-64793512D01*
X150274426Y-64793512D01*
X150274429Y-64793513D01*
X150474793Y-64825248D01*
X150474796Y-64825248D01*
X150677669Y-64825248D01*
X150878032Y-64793513D01*
X150878033Y-64793512D01*
X150878037Y-64793512D01*
X151070977Y-64730822D01*
X151251734Y-64638721D01*
X151265570Y-64628669D01*
X151415853Y-64519482D01*
X151415859Y-64519478D01*
X151559309Y-64376028D01*
X151678552Y-64211903D01*
X151770653Y-64031146D01*
X151833343Y-63838206D01*
X151839024Y-63802337D01*
X151865079Y-63637838D01*
X151865079Y-63434961D01*
X151833344Y-63234598D01*
X151830077Y-63224542D01*
X151770653Y-63041654D01*
X151678552Y-62860897D01*
X151664835Y-62842017D01*
X151645929Y-62783828D01*
X151664836Y-62725637D01*
X151714337Y-62689673D01*
X151744929Y-62684828D01*
X157027533Y-62684828D01*
X157085724Y-62703735D01*
X157121688Y-62753235D01*
X157121688Y-62814421D01*
X157107626Y-62842019D01*
X157093908Y-62860898D01*
X157001808Y-63041656D01*
X156939117Y-63234598D01*
X156907383Y-63434961D01*
X156907383Y-63637838D01*
X156939117Y-63838201D01*
X156939119Y-63838206D01*
X157001809Y-64031146D01*
X157049581Y-64124903D01*
X157093909Y-64211902D01*
X157093911Y-64211906D01*
X157213148Y-64376022D01*
X157213150Y-64376024D01*
X157213153Y-64376028D01*
X157356603Y-64519478D01*
X157356606Y-64519480D01*
X157356608Y-64519482D01*
X157520724Y-64638719D01*
X157520728Y-64638721D01*
X157701485Y-64730822D01*
X157894425Y-64793512D01*
X157894426Y-64793512D01*
X157894429Y-64793513D01*
X158094793Y-64825248D01*
X158094796Y-64825248D01*
X158297669Y-64825248D01*
X158498032Y-64793513D01*
X158498033Y-64793512D01*
X158498037Y-64793512D01*
X158690977Y-64730822D01*
X158871734Y-64638721D01*
X158885570Y-64628669D01*
X159035853Y-64519482D01*
X159035859Y-64519478D01*
X159179309Y-64376028D01*
X159298552Y-64211903D01*
X159390653Y-64031146D01*
X159453343Y-63838206D01*
X159459024Y-63802337D01*
X159485079Y-63637838D01*
X159485079Y-63434961D01*
X159453344Y-63234598D01*
X159450077Y-63224542D01*
X159390653Y-63041654D01*
X159298552Y-62860897D01*
X159284835Y-62842017D01*
X159265929Y-62783828D01*
X159284836Y-62725637D01*
X159334337Y-62689673D01*
X159364929Y-62684828D01*
X164639030Y-62684828D01*
X164697221Y-62703735D01*
X164733185Y-62753235D01*
X164733185Y-62814421D01*
X164719122Y-62842019D01*
X164712713Y-62850839D01*
X164712709Y-62850845D01*
X164620608Y-63031604D01*
X164557917Y-63224546D01*
X164526183Y-63424909D01*
X164526183Y-63627786D01*
X164557917Y-63828149D01*
X164557919Y-63828154D01*
X164620609Y-64021094D01*
X164625731Y-64031146D01*
X164712709Y-64201850D01*
X164712711Y-64201854D01*
X164831948Y-64365970D01*
X164831950Y-64365972D01*
X164831953Y-64365976D01*
X164975403Y-64509426D01*
X164975406Y-64509428D01*
X164975408Y-64509430D01*
X165139524Y-64628667D01*
X165139528Y-64628669D01*
X165320285Y-64720770D01*
X165513225Y-64783460D01*
X165513226Y-64783460D01*
X165513229Y-64783461D01*
X165713593Y-64815196D01*
X165713596Y-64815196D01*
X165916469Y-64815196D01*
X166116832Y-64783461D01*
X166116833Y-64783460D01*
X166116837Y-64783460D01*
X166309777Y-64720770D01*
X166490534Y-64628669D01*
X166654659Y-64509426D01*
X166798109Y-64365976D01*
X166917352Y-64201851D01*
X167009453Y-64021094D01*
X167072143Y-63828154D01*
X167100906Y-63646555D01*
X167103879Y-63627786D01*
X167103879Y-63424909D01*
X167072144Y-63224546D01*
X167072143Y-63224542D01*
X167009453Y-63031602D01*
X166917352Y-62850845D01*
X166910940Y-62842019D01*
X166892032Y-62783829D01*
X166910939Y-62725638D01*
X166960439Y-62689674D01*
X166991032Y-62684828D01*
X204573840Y-62684828D01*
X204632031Y-62703735D01*
X204667995Y-62753235D01*
X204670192Y-62806573D01*
X190171895Y-124223245D01*
X190140124Y-124275535D01*
X190083685Y-124299165D01*
X190075543Y-124299500D01*
X189084907Y-124299500D01*
X123775889Y-81603385D01*
X166669500Y-81603385D01*
X166669500Y-81776614D01*
X166696597Y-81947702D01*
X166696598Y-81947706D01*
X166750123Y-82112438D01*
X166750125Y-82112441D01*
X166750126Y-82112444D01*
X166750127Y-82112445D01*
X166828768Y-82266788D01*
X166930586Y-82406928D01*
X167053072Y-82529414D01*
X167193212Y-82631232D01*
X167347555Y-82709873D01*
X167347557Y-82709873D01*
X167347558Y-82709874D01*
X167347561Y-82709876D01*
X167512293Y-82763401D01*
X167512297Y-82763402D01*
X167683386Y-82790500D01*
X167683389Y-82790500D01*
X167856614Y-82790500D01*
X168027702Y-82763402D01*
X168027706Y-82763401D01*
X168192438Y-82709876D01*
X168192440Y-82709874D01*
X168192445Y-82709873D01*
X168346788Y-82631232D01*
X168486928Y-82529414D01*
X168609414Y-82406928D01*
X168711232Y-82266788D01*
X168789873Y-82112445D01*
X168789874Y-82112440D01*
X168789876Y-82112438D01*
X168843401Y-81947706D01*
X168843402Y-81947702D01*
X168870500Y-81776614D01*
X168870500Y-81603385D01*
X169209500Y-81603385D01*
X169209500Y-81776614D01*
X169236597Y-81947702D01*
X169236598Y-81947706D01*
X169290123Y-82112438D01*
X169290125Y-82112441D01*
X169290126Y-82112444D01*
X169290127Y-82112445D01*
X169368768Y-82266788D01*
X169470586Y-82406928D01*
X169593072Y-82529414D01*
X169733212Y-82631232D01*
X169887555Y-82709873D01*
X169887557Y-82709873D01*
X169887558Y-82709874D01*
X169887561Y-82709876D01*
X170052293Y-82763401D01*
X170052297Y-82763402D01*
X170223386Y-82790500D01*
X170223389Y-82790500D01*
X170396614Y-82790500D01*
X170567702Y-82763402D01*
X170567706Y-82763401D01*
X170732438Y-82709876D01*
X170732440Y-82709874D01*
X170732445Y-82709873D01*
X170886788Y-82631232D01*
X171026928Y-82529414D01*
X171149414Y-82406928D01*
X171251232Y-82266788D01*
X171329873Y-82112445D01*
X171354675Y-82036111D01*
X171390639Y-81986612D01*
X171448830Y-81967705D01*
X171507021Y-81986612D01*
X171542985Y-82036112D01*
X171598904Y-82208215D01*
X171695376Y-82397553D01*
X171695380Y-82397559D01*
X171734728Y-82451716D01*
X171734729Y-82451716D01*
X172367037Y-81819407D01*
X172384075Y-81882993D01*
X172449901Y-81997007D01*
X172542993Y-82090099D01*
X172657007Y-82155925D01*
X172720589Y-82172962D01*
X172088282Y-82805269D01*
X172088282Y-82805270D01*
X172142440Y-82844619D01*
X172142446Y-82844623D01*
X172331784Y-82941095D01*
X172533878Y-83006759D01*
X172743750Y-83040000D01*
X172956250Y-83040000D01*
X173166121Y-83006759D01*
X173368215Y-82941095D01*
X173557556Y-82844620D01*
X173611716Y-82805270D01*
X172979408Y-82172962D01*
X173042993Y-82155925D01*
X173157007Y-82090099D01*
X173250099Y-81997007D01*
X173315925Y-81882993D01*
X173332962Y-81819408D01*
X173965270Y-82451716D01*
X174004620Y-82397556D01*
X174101096Y-82208213D01*
X174157014Y-82036113D01*
X174192978Y-81986613D01*
X174251168Y-81967705D01*
X174309359Y-81986612D01*
X174345323Y-82036111D01*
X174370125Y-82112441D01*
X174370126Y-82112444D01*
X174370127Y-82112445D01*
X174448768Y-82266788D01*
X174550586Y-82406928D01*
X174673072Y-82529414D01*
X174813212Y-82631232D01*
X174967555Y-82709873D01*
X174967557Y-82709873D01*
X174967558Y-82709874D01*
X174967561Y-82709876D01*
X175132293Y-82763401D01*
X175132297Y-82763402D01*
X175303386Y-82790500D01*
X175303389Y-82790500D01*
X175476614Y-82790500D01*
X175647702Y-82763402D01*
X175647706Y-82763401D01*
X175812438Y-82709876D01*
X175812440Y-82709874D01*
X175812445Y-82709873D01*
X175966788Y-82631232D01*
X176106928Y-82529414D01*
X176229414Y-82406928D01*
X176331232Y-82266788D01*
X176409873Y-82112445D01*
X176409874Y-82112440D01*
X176409876Y-82112438D01*
X176463401Y-81947706D01*
X176463402Y-81947702D01*
X176490500Y-81776614D01*
X176490500Y-81603385D01*
X176829500Y-81603385D01*
X176829500Y-81776614D01*
X176856597Y-81947702D01*
X176856598Y-81947706D01*
X176910123Y-82112438D01*
X176910125Y-82112441D01*
X176910126Y-82112444D01*
X176910127Y-82112445D01*
X176988768Y-82266788D01*
X177090586Y-82406928D01*
X177213072Y-82529414D01*
X177353212Y-82631232D01*
X177507555Y-82709873D01*
X177507557Y-82709873D01*
X177507558Y-82709874D01*
X177507561Y-82709876D01*
X177672293Y-82763401D01*
X177672297Y-82763402D01*
X177843386Y-82790500D01*
X177843389Y-82790500D01*
X178016614Y-82790500D01*
X178187702Y-82763402D01*
X178187706Y-82763401D01*
X178352438Y-82709876D01*
X178352440Y-82709874D01*
X178352445Y-82709873D01*
X178506788Y-82631232D01*
X178646928Y-82529414D01*
X178769414Y-82406928D01*
X178871232Y-82266788D01*
X178949873Y-82112445D01*
X178949874Y-82112440D01*
X178949876Y-82112438D01*
X179003401Y-81947706D01*
X179003402Y-81947702D01*
X179030500Y-81776614D01*
X179030500Y-81603385D01*
X179003402Y-81432297D01*
X179003401Y-81432293D01*
X178949876Y-81267561D01*
X178949874Y-81267558D01*
X178949873Y-81267557D01*
X178949873Y-81267555D01*
X178871232Y-81113212D01*
X178769414Y-80973072D01*
X178646928Y-80850586D01*
X178598398Y-80815327D01*
X179369500Y-80815327D01*
X179369500Y-82564672D01*
X179369501Y-82564684D01*
X179384033Y-82637736D01*
X179384035Y-82637742D01*
X179439397Y-82720599D01*
X179439399Y-82720601D01*
X179522260Y-82775966D01*
X179577808Y-82787015D01*
X179595315Y-82790498D01*
X179595320Y-82790498D01*
X179595326Y-82790500D01*
X179595327Y-82790500D01*
X181344673Y-82790500D01*
X181344674Y-82790500D01*
X181417740Y-82775966D01*
X181500601Y-82720601D01*
X181555966Y-82637740D01*
X181570500Y-82564674D01*
X181570500Y-80815326D01*
X181555966Y-80742260D01*
X181507768Y-80670125D01*
X181500602Y-80659400D01*
X181500599Y-80659397D01*
X181417742Y-80604035D01*
X181417740Y-80604034D01*
X181417737Y-80604033D01*
X181417736Y-80604033D01*
X181344684Y-80589501D01*
X181344674Y-80589500D01*
X179595326Y-80589500D01*
X179595325Y-80589500D01*
X179595315Y-80589501D01*
X179522263Y-80604033D01*
X179522257Y-80604035D01*
X179439400Y-80659397D01*
X179439397Y-80659400D01*
X179384035Y-80742257D01*
X179384033Y-80742263D01*
X179369501Y-80815315D01*
X179369500Y-80815327D01*
X178598398Y-80815327D01*
X178506788Y-80748768D01*
X178506787Y-80748767D01*
X178506785Y-80748766D01*
X178352441Y-80670125D01*
X178352438Y-80670123D01*
X178187706Y-80616598D01*
X178187702Y-80616597D01*
X178016614Y-80589500D01*
X178016611Y-80589500D01*
X177843389Y-80589500D01*
X177843386Y-80589500D01*
X177672297Y-80616597D01*
X177672293Y-80616598D01*
X177507561Y-80670123D01*
X177507558Y-80670125D01*
X177353214Y-80748766D01*
X177213073Y-80850585D01*
X177090585Y-80973073D01*
X176988766Y-81113214D01*
X176910125Y-81267558D01*
X176910123Y-81267561D01*
X176856598Y-81432293D01*
X176856597Y-81432297D01*
X176829500Y-81603385D01*
X176490500Y-81603385D01*
X176463402Y-81432297D01*
X176463401Y-81432293D01*
X176409876Y-81267561D01*
X176409874Y-81267558D01*
X176409873Y-81267557D01*
X176409873Y-81267555D01*
X176331232Y-81113212D01*
X176229414Y-80973072D01*
X176106928Y-80850586D01*
X175966788Y-80748768D01*
X175966787Y-80748767D01*
X175966785Y-80748766D01*
X175812441Y-80670125D01*
X175812438Y-80670123D01*
X175647706Y-80616598D01*
X175647702Y-80616597D01*
X175476614Y-80589500D01*
X175476611Y-80589500D01*
X175303389Y-80589500D01*
X175303386Y-80589500D01*
X175132297Y-80616597D01*
X175132293Y-80616598D01*
X174967561Y-80670123D01*
X174967558Y-80670125D01*
X174813214Y-80748766D01*
X174673073Y-80850585D01*
X174550585Y-80973073D01*
X174448766Y-81113214D01*
X174370125Y-81267558D01*
X174345323Y-81343888D01*
X174309359Y-81393388D01*
X174251167Y-81412294D01*
X174192977Y-81393386D01*
X174157014Y-81343886D01*
X174101096Y-81171786D01*
X174004623Y-80982446D01*
X174004619Y-80982440D01*
X173965270Y-80928282D01*
X173965269Y-80928282D01*
X173332962Y-81560589D01*
X173315925Y-81497007D01*
X173250099Y-81382993D01*
X173157007Y-81289901D01*
X173042993Y-81224075D01*
X172979407Y-81207037D01*
X173611716Y-80574729D01*
X173611716Y-80574728D01*
X173557559Y-80535380D01*
X173557553Y-80535376D01*
X173368215Y-80438904D01*
X173166121Y-80373240D01*
X172956250Y-80340000D01*
X172743750Y-80340000D01*
X172533878Y-80373240D01*
X172331784Y-80438904D01*
X172142446Y-80535376D01*
X172142442Y-80535378D01*
X172088282Y-80574728D01*
X172720591Y-81207037D01*
X172657007Y-81224075D01*
X172542993Y-81289901D01*
X172449901Y-81382993D01*
X172384075Y-81497007D01*
X172367037Y-81560591D01*
X171734728Y-80928282D01*
X171695378Y-80982442D01*
X171695376Y-80982446D01*
X171598904Y-81171784D01*
X171542985Y-81343887D01*
X171507021Y-81393387D01*
X171448830Y-81412294D01*
X171390639Y-81393387D01*
X171354676Y-81343887D01*
X171329876Y-81267561D01*
X171329874Y-81267558D01*
X171329873Y-81267557D01*
X171329873Y-81267555D01*
X171251232Y-81113212D01*
X171149414Y-80973072D01*
X171026928Y-80850586D01*
X170886788Y-80748768D01*
X170886787Y-80748767D01*
X170886785Y-80748766D01*
X170792390Y-80700670D01*
X170792388Y-80700668D01*
X170732447Y-80670127D01*
X170732438Y-80670123D01*
X170567706Y-80616598D01*
X170567702Y-80616597D01*
X170396614Y-80589500D01*
X170396611Y-80589500D01*
X170223389Y-80589500D01*
X170223386Y-80589500D01*
X170052297Y-80616597D01*
X170052293Y-80616598D01*
X169887561Y-80670123D01*
X169887558Y-80670125D01*
X169733214Y-80748766D01*
X169593073Y-80850585D01*
X169470585Y-80973073D01*
X169368766Y-81113214D01*
X169290125Y-81267558D01*
X169290123Y-81267561D01*
X169236598Y-81432293D01*
X169236597Y-81432297D01*
X169209500Y-81603385D01*
X168870500Y-81603385D01*
X168843402Y-81432297D01*
X168843401Y-81432293D01*
X168789876Y-81267561D01*
X168789874Y-81267558D01*
X168789873Y-81267557D01*
X168789873Y-81267555D01*
X168711232Y-81113212D01*
X168609414Y-80973072D01*
X168486928Y-80850586D01*
X168346788Y-80748768D01*
X168346787Y-80748767D01*
X168346785Y-80748766D01*
X168192441Y-80670125D01*
X168192438Y-80670123D01*
X168027706Y-80616598D01*
X168027702Y-80616597D01*
X167856614Y-80589500D01*
X167856611Y-80589500D01*
X167683389Y-80589500D01*
X167683386Y-80589500D01*
X167512297Y-80616597D01*
X167512293Y-80616598D01*
X167347561Y-80670123D01*
X167347558Y-80670125D01*
X167193214Y-80748766D01*
X167053073Y-80850585D01*
X166930585Y-80973073D01*
X166828766Y-81113214D01*
X166750125Y-81267558D01*
X166750123Y-81267561D01*
X166696598Y-81432293D01*
X166696597Y-81432297D01*
X166669500Y-81603385D01*
X123775889Y-81603385D01*
X95179304Y-62908217D01*
X95214023Y-62761090D01*
X95245790Y-62708798D01*
X95302227Y-62685164D01*
X95310377Y-62684828D01*
X126547533Y-62684828D01*
X126605724Y-62703735D01*
G37*
%TD.AperFunction*%
%TD*%
%TA.AperFunction,Conductor*%
%TO.N,GND*%
G36*
X190206011Y-124078719D02*
G01*
X190171895Y-124223245D01*
X190140124Y-124275535D01*
X190083686Y-124299165D01*
X190075543Y-124299500D01*
X158858306Y-124299500D01*
X158800115Y-124280593D01*
X158764151Y-124231093D01*
X158764151Y-124169907D01*
X158778214Y-124142308D01*
X158784321Y-124133903D01*
X158876422Y-123953146D01*
X158939112Y-123760206D01*
X158967875Y-123578607D01*
X158970848Y-123559838D01*
X158970848Y-123356961D01*
X158939113Y-123156598D01*
X158939112Y-123156594D01*
X158876422Y-122963654D01*
X158784321Y-122782897D01*
X158784319Y-122782893D01*
X158665082Y-122618777D01*
X158665080Y-122618775D01*
X158665078Y-122618772D01*
X158521628Y-122475322D01*
X158521624Y-122475319D01*
X158521622Y-122475317D01*
X158357506Y-122356080D01*
X158357502Y-122356078D01*
X158270503Y-122311750D01*
X158176746Y-122263978D01*
X158176743Y-122263977D01*
X157983801Y-122201286D01*
X157783438Y-122169552D01*
X157783435Y-122169552D01*
X157580565Y-122169552D01*
X157580562Y-122169552D01*
X157380198Y-122201286D01*
X157187256Y-122263977D01*
X157006497Y-122356078D01*
X157006493Y-122356080D01*
X156842377Y-122475317D01*
X156698917Y-122618777D01*
X156579680Y-122782893D01*
X156579678Y-122782897D01*
X156487577Y-122963656D01*
X156424886Y-123156598D01*
X156393152Y-123356961D01*
X156393152Y-123559838D01*
X156424886Y-123760201D01*
X156424888Y-123760206D01*
X156487578Y-123953146D01*
X156492700Y-123963198D01*
X156579678Y-124133901D01*
X156585786Y-124142308D01*
X156604694Y-124200499D01*
X156585788Y-124258690D01*
X156536288Y-124294654D01*
X156505694Y-124299500D01*
X151246809Y-124299500D01*
X151188618Y-124280593D01*
X151152654Y-124231093D01*
X151152654Y-124169907D01*
X151164024Y-124147596D01*
X151163490Y-124147269D01*
X151165517Y-124143960D01*
X151165521Y-124143955D01*
X151257622Y-123963198D01*
X151320312Y-123770258D01*
X151325993Y-123734389D01*
X151352048Y-123569890D01*
X151352048Y-123367013D01*
X151320313Y-123166650D01*
X151317046Y-123156594D01*
X151257622Y-122973706D01*
X151165521Y-122792949D01*
X151165519Y-122792945D01*
X151046282Y-122628829D01*
X151046280Y-122628827D01*
X151046278Y-122628824D01*
X150902828Y-122485374D01*
X150902824Y-122485371D01*
X150902822Y-122485369D01*
X150738706Y-122366132D01*
X150738702Y-122366130D01*
X150651703Y-122321802D01*
X150557946Y-122274030D01*
X150527006Y-122263977D01*
X150365001Y-122211338D01*
X150164638Y-122179604D01*
X150164635Y-122179604D01*
X149961765Y-122179604D01*
X149961762Y-122179604D01*
X149761398Y-122211338D01*
X149568456Y-122274029D01*
X149387697Y-122366130D01*
X149387693Y-122366132D01*
X149223577Y-122485369D01*
X149080117Y-122628829D01*
X148960880Y-122792945D01*
X148960878Y-122792949D01*
X148868777Y-122973708D01*
X148806086Y-123166650D01*
X148774352Y-123367013D01*
X148774352Y-123569890D01*
X148806086Y-123770253D01*
X148806088Y-123770258D01*
X148868778Y-123963198D01*
X148916550Y-124056955D01*
X148960878Y-124143954D01*
X148962910Y-124147269D01*
X148961559Y-124148096D01*
X148978591Y-124200480D01*
X148959695Y-124258675D01*
X148910203Y-124294648D01*
X148879591Y-124299500D01*
X143626809Y-124299500D01*
X143568618Y-124280593D01*
X143532654Y-124231093D01*
X143532654Y-124169907D01*
X143544024Y-124147596D01*
X143543490Y-124147269D01*
X143545517Y-124143960D01*
X143545521Y-124143955D01*
X143637622Y-123963198D01*
X143700312Y-123770258D01*
X143705993Y-123734389D01*
X143732048Y-123569890D01*
X143732048Y-123367013D01*
X143700313Y-123166650D01*
X143697046Y-123156594D01*
X143637622Y-122973706D01*
X143545521Y-122792949D01*
X143545519Y-122792945D01*
X143426282Y-122628829D01*
X143426280Y-122628827D01*
X143426278Y-122628824D01*
X143282828Y-122485374D01*
X143282824Y-122485371D01*
X143282822Y-122485369D01*
X143118706Y-122366132D01*
X143118702Y-122366130D01*
X143031703Y-122321802D01*
X142937946Y-122274030D01*
X142907006Y-122263977D01*
X142745001Y-122211338D01*
X142544638Y-122179604D01*
X142544635Y-122179604D01*
X142341765Y-122179604D01*
X142341762Y-122179604D01*
X142141398Y-122211338D01*
X141948456Y-122274029D01*
X141767697Y-122366130D01*
X141767693Y-122366132D01*
X141603577Y-122485369D01*
X141460117Y-122628829D01*
X141340880Y-122792945D01*
X141340878Y-122792949D01*
X141248777Y-122973708D01*
X141186086Y-123166650D01*
X141154352Y-123367013D01*
X141154352Y-123569890D01*
X141186086Y-123770253D01*
X141186088Y-123770258D01*
X141248778Y-123963198D01*
X141296550Y-124056955D01*
X141340878Y-124143954D01*
X141342910Y-124147269D01*
X141341559Y-124148096D01*
X141358591Y-124200480D01*
X141339695Y-124258675D01*
X141290203Y-124294648D01*
X141259591Y-124299500D01*
X136006809Y-124299500D01*
X135948618Y-124280593D01*
X135912654Y-124231093D01*
X135912654Y-124169907D01*
X135924024Y-124147596D01*
X135923490Y-124147269D01*
X135925517Y-124143960D01*
X135925521Y-124143955D01*
X136017622Y-123963198D01*
X136080312Y-123770258D01*
X136085993Y-123734389D01*
X136112048Y-123569890D01*
X136112048Y-123367013D01*
X136080313Y-123166650D01*
X136077046Y-123156594D01*
X136017622Y-122973706D01*
X135925521Y-122792949D01*
X135925519Y-122792945D01*
X135806282Y-122628829D01*
X135806280Y-122628827D01*
X135806278Y-122628824D01*
X135662828Y-122485374D01*
X135662824Y-122485371D01*
X135662822Y-122485369D01*
X135498706Y-122366132D01*
X135498702Y-122366130D01*
X135411703Y-122321802D01*
X135317946Y-122274030D01*
X135287006Y-122263977D01*
X135125001Y-122211338D01*
X134924638Y-122179604D01*
X134924635Y-122179604D01*
X134721765Y-122179604D01*
X134721762Y-122179604D01*
X134521398Y-122211338D01*
X134328456Y-122274029D01*
X134147697Y-122366130D01*
X134147693Y-122366132D01*
X133983577Y-122485369D01*
X133840117Y-122628829D01*
X133720880Y-122792945D01*
X133720878Y-122792949D01*
X133628777Y-122973708D01*
X133566086Y-123166650D01*
X133534352Y-123367013D01*
X133534352Y-123569890D01*
X133566086Y-123770253D01*
X133566088Y-123770258D01*
X133628778Y-123963198D01*
X133676550Y-124056955D01*
X133720878Y-124143954D01*
X133722910Y-124147269D01*
X133721559Y-124148096D01*
X133738591Y-124200480D01*
X133719695Y-124258675D01*
X133670203Y-124294648D01*
X133639591Y-124299500D01*
X128386809Y-124299500D01*
X128328618Y-124280593D01*
X128292654Y-124231093D01*
X128292654Y-124169907D01*
X128304024Y-124147596D01*
X128303490Y-124147269D01*
X128305517Y-124143960D01*
X128305521Y-124143955D01*
X128397622Y-123963198D01*
X128460312Y-123770258D01*
X128465993Y-123734389D01*
X128492048Y-123569890D01*
X128492048Y-123367013D01*
X128460313Y-123166650D01*
X128457046Y-123156594D01*
X128397622Y-122973706D01*
X128305521Y-122792949D01*
X128305519Y-122792945D01*
X128186282Y-122628829D01*
X128186280Y-122628827D01*
X128186278Y-122628824D01*
X128042828Y-122485374D01*
X128042824Y-122485371D01*
X128042822Y-122485369D01*
X127878706Y-122366132D01*
X127878702Y-122366130D01*
X127791703Y-122321802D01*
X127697946Y-122274030D01*
X127667006Y-122263977D01*
X127505001Y-122211338D01*
X127304638Y-122179604D01*
X127304635Y-122179604D01*
X127101765Y-122179604D01*
X127101762Y-122179604D01*
X126901398Y-122211338D01*
X126708456Y-122274029D01*
X126527697Y-122366130D01*
X126527693Y-122366132D01*
X126363577Y-122485369D01*
X126220117Y-122628829D01*
X126100880Y-122792945D01*
X126100878Y-122792949D01*
X126008777Y-122973708D01*
X125946086Y-123166650D01*
X125914352Y-123367013D01*
X125914352Y-123569890D01*
X125946086Y-123770253D01*
X125946088Y-123770258D01*
X126008778Y-123963198D01*
X126056550Y-124056955D01*
X126100878Y-124143954D01*
X126102910Y-124147269D01*
X126101559Y-124148096D01*
X126118591Y-124200480D01*
X126099695Y-124258675D01*
X126050203Y-124294648D01*
X126019591Y-124299500D01*
X120766809Y-124299500D01*
X120708618Y-124280593D01*
X120672654Y-124231093D01*
X120672654Y-124169907D01*
X120684024Y-124147596D01*
X120683490Y-124147269D01*
X120685517Y-124143960D01*
X120685521Y-124143955D01*
X120777622Y-123963198D01*
X120840312Y-123770258D01*
X120845993Y-123734389D01*
X120872048Y-123569890D01*
X120872048Y-123367013D01*
X120840313Y-123166650D01*
X120837046Y-123156594D01*
X120777622Y-122973706D01*
X120685521Y-122792949D01*
X120685519Y-122792945D01*
X120566282Y-122628829D01*
X120566280Y-122628827D01*
X120566278Y-122628824D01*
X120422828Y-122485374D01*
X120422824Y-122485371D01*
X120422822Y-122485369D01*
X120258706Y-122366132D01*
X120258702Y-122366130D01*
X120171703Y-122321802D01*
X120077946Y-122274030D01*
X120047006Y-122263977D01*
X119885001Y-122211338D01*
X119684638Y-122179604D01*
X119684635Y-122179604D01*
X119481765Y-122179604D01*
X119481762Y-122179604D01*
X119281398Y-122211338D01*
X119088456Y-122274029D01*
X118907697Y-122366130D01*
X118907693Y-122366132D01*
X118743577Y-122485369D01*
X118600117Y-122628829D01*
X118480880Y-122792945D01*
X118480878Y-122792949D01*
X118388777Y-122973708D01*
X118326086Y-123166650D01*
X118294352Y-123367013D01*
X118294352Y-123569890D01*
X118326086Y-123770253D01*
X118326088Y-123770258D01*
X118388778Y-123963198D01*
X118436550Y-124056955D01*
X118480878Y-124143954D01*
X118482910Y-124147269D01*
X118481559Y-124148096D01*
X118498591Y-124200480D01*
X118479695Y-124258675D01*
X118430203Y-124294648D01*
X118399591Y-124299500D01*
X113146809Y-124299500D01*
X113088618Y-124280593D01*
X113052654Y-124231093D01*
X113052654Y-124169907D01*
X113064024Y-124147596D01*
X113063490Y-124147269D01*
X113065517Y-124143960D01*
X113065521Y-124143955D01*
X113157622Y-123963198D01*
X113220312Y-123770258D01*
X113225993Y-123734389D01*
X113252048Y-123569890D01*
X113252048Y-123367013D01*
X113220313Y-123166650D01*
X113217046Y-123156594D01*
X113157622Y-122973706D01*
X113065521Y-122792949D01*
X113065519Y-122792945D01*
X112946282Y-122628829D01*
X112946280Y-122628827D01*
X112946278Y-122628824D01*
X112802828Y-122485374D01*
X112802824Y-122485371D01*
X112802822Y-122485369D01*
X112638706Y-122366132D01*
X112638702Y-122366130D01*
X112551703Y-122321802D01*
X112457946Y-122274030D01*
X112427006Y-122263977D01*
X112265001Y-122211338D01*
X112064638Y-122179604D01*
X112064635Y-122179604D01*
X111861765Y-122179604D01*
X111861762Y-122179604D01*
X111661398Y-122211338D01*
X111468456Y-122274029D01*
X111287697Y-122366130D01*
X111287693Y-122366132D01*
X111123577Y-122485369D01*
X110980117Y-122628829D01*
X110860880Y-122792945D01*
X110860878Y-122792949D01*
X110768777Y-122973708D01*
X110706086Y-123166650D01*
X110674352Y-123367013D01*
X110674352Y-123569890D01*
X110706086Y-123770253D01*
X110706088Y-123770258D01*
X110768778Y-123963198D01*
X110816550Y-124056955D01*
X110860878Y-124143954D01*
X110862910Y-124147269D01*
X110861559Y-124148096D01*
X110878591Y-124200480D01*
X110859695Y-124258675D01*
X110810203Y-124294648D01*
X110779591Y-124299500D01*
X80817434Y-124299500D01*
X80759243Y-124280593D01*
X80723279Y-124231093D01*
X80721080Y-124177763D01*
X80731431Y-124133901D01*
X84880574Y-106551095D01*
X85382208Y-104425327D01*
X103819500Y-104425327D01*
X103819500Y-106174672D01*
X103819501Y-106174684D01*
X103834033Y-106247736D01*
X103834035Y-106247742D01*
X103889397Y-106330599D01*
X103889399Y-106330601D01*
X103972260Y-106385966D01*
X104027808Y-106397015D01*
X104045315Y-106400498D01*
X104045320Y-106400498D01*
X104045326Y-106400500D01*
X104045327Y-106400500D01*
X105794673Y-106400500D01*
X105794674Y-106400500D01*
X105867740Y-106385966D01*
X105950601Y-106330601D01*
X106005966Y-106247740D01*
X106020500Y-106174674D01*
X106020500Y-105213385D01*
X106359500Y-105213385D01*
X106359500Y-105386614D01*
X106386597Y-105557702D01*
X106386598Y-105557706D01*
X106440123Y-105722438D01*
X106440125Y-105722441D01*
X106491353Y-105822984D01*
X106518768Y-105876788D01*
X106620586Y-106016928D01*
X106743072Y-106139414D01*
X106883212Y-106241232D01*
X107037555Y-106319873D01*
X107037557Y-106319873D01*
X107037558Y-106319874D01*
X107037561Y-106319876D01*
X107202293Y-106373401D01*
X107202297Y-106373402D01*
X107373386Y-106400500D01*
X107373389Y-106400500D01*
X107546614Y-106400500D01*
X107717702Y-106373402D01*
X107717706Y-106373401D01*
X107882438Y-106319876D01*
X107882440Y-106319874D01*
X107882445Y-106319873D01*
X108036788Y-106241232D01*
X108176928Y-106139414D01*
X108299414Y-106016928D01*
X108401232Y-105876788D01*
X108479873Y-105722445D01*
X108479874Y-105722440D01*
X108479876Y-105722438D01*
X108533401Y-105557706D01*
X108533402Y-105557702D01*
X108560500Y-105386614D01*
X108560500Y-105213385D01*
X108899500Y-105213385D01*
X108899500Y-105386614D01*
X108926597Y-105557702D01*
X108926598Y-105557706D01*
X108980123Y-105722438D01*
X108980125Y-105722441D01*
X109031353Y-105822984D01*
X109058768Y-105876788D01*
X109160586Y-106016928D01*
X109283072Y-106139414D01*
X109423212Y-106241232D01*
X109577555Y-106319873D01*
X109577557Y-106319873D01*
X109577558Y-106319874D01*
X109577561Y-106319876D01*
X109742293Y-106373401D01*
X109742297Y-106373402D01*
X109913386Y-106400500D01*
X109913389Y-106400500D01*
X110086614Y-106400500D01*
X110257702Y-106373402D01*
X110257706Y-106373401D01*
X110422438Y-106319876D01*
X110422440Y-106319874D01*
X110422445Y-106319873D01*
X110576788Y-106241232D01*
X110716928Y-106139414D01*
X110839414Y-106016928D01*
X110941232Y-105876788D01*
X111019873Y-105722445D01*
X111044675Y-105646111D01*
X111080639Y-105596612D01*
X111138830Y-105577705D01*
X111197021Y-105596612D01*
X111232985Y-105646112D01*
X111288904Y-105818215D01*
X111385376Y-106007553D01*
X111385380Y-106007559D01*
X111424728Y-106061716D01*
X111424729Y-106061716D01*
X112057037Y-105429407D01*
X112074075Y-105492993D01*
X112139901Y-105607007D01*
X112232993Y-105700099D01*
X112347007Y-105765925D01*
X112410589Y-105782962D01*
X111778282Y-106415269D01*
X111778282Y-106415270D01*
X111832440Y-106454619D01*
X111832446Y-106454623D01*
X112021784Y-106551095D01*
X112223878Y-106616759D01*
X112433750Y-106650000D01*
X112646250Y-106650000D01*
X112856121Y-106616759D01*
X113058215Y-106551095D01*
X113247556Y-106454620D01*
X113301716Y-106415270D01*
X112669408Y-105782962D01*
X112732993Y-105765925D01*
X112847007Y-105700099D01*
X112940099Y-105607007D01*
X113005925Y-105492993D01*
X113022962Y-105429408D01*
X113655270Y-106061716D01*
X113694620Y-106007556D01*
X113791096Y-105818213D01*
X113847014Y-105646113D01*
X113882978Y-105596613D01*
X113941168Y-105577705D01*
X113999359Y-105596612D01*
X114035323Y-105646111D01*
X114060125Y-105722441D01*
X114111353Y-105822984D01*
X114138768Y-105876788D01*
X114240586Y-106016928D01*
X114363072Y-106139414D01*
X114503212Y-106241232D01*
X114657555Y-106319873D01*
X114657557Y-106319873D01*
X114657558Y-106319874D01*
X114657561Y-106319876D01*
X114822293Y-106373401D01*
X114822297Y-106373402D01*
X114993386Y-106400500D01*
X114993389Y-106400500D01*
X115166614Y-106400500D01*
X115337702Y-106373402D01*
X115337706Y-106373401D01*
X115502438Y-106319876D01*
X115502440Y-106319874D01*
X115502445Y-106319873D01*
X115656788Y-106241232D01*
X115796928Y-106139414D01*
X115919414Y-106016928D01*
X116021232Y-105876788D01*
X116099873Y-105722445D01*
X116099874Y-105722440D01*
X116099876Y-105722438D01*
X116153401Y-105557706D01*
X116153402Y-105557702D01*
X116180500Y-105386614D01*
X116180500Y-105213385D01*
X116519500Y-105213385D01*
X116519500Y-105386614D01*
X116546597Y-105557702D01*
X116546598Y-105557706D01*
X116600123Y-105722438D01*
X116600125Y-105722441D01*
X116651353Y-105822984D01*
X116678768Y-105876788D01*
X116780586Y-106016928D01*
X116903072Y-106139414D01*
X117043212Y-106241232D01*
X117197555Y-106319873D01*
X117197557Y-106319873D01*
X117197558Y-106319874D01*
X117197561Y-106319876D01*
X117362293Y-106373401D01*
X117362297Y-106373402D01*
X117533386Y-106400500D01*
X117533389Y-106400500D01*
X117706614Y-106400500D01*
X117877702Y-106373402D01*
X117877706Y-106373401D01*
X118042438Y-106319876D01*
X118042440Y-106319874D01*
X118042445Y-106319873D01*
X118196788Y-106241232D01*
X118336928Y-106139414D01*
X118459414Y-106016928D01*
X118561232Y-105876788D01*
X118639873Y-105722445D01*
X118639874Y-105722440D01*
X118639876Y-105722438D01*
X118693401Y-105557706D01*
X118693402Y-105557702D01*
X118720500Y-105386614D01*
X118720500Y-105237525D01*
X119109500Y-105237525D01*
X119109500Y-105382475D01*
X119110609Y-105386614D01*
X119147017Y-105522489D01*
X119219487Y-105648010D01*
X119219489Y-105648012D01*
X119219491Y-105648015D01*
X119321985Y-105750509D01*
X119321987Y-105750510D01*
X119321989Y-105750512D01*
X119447511Y-105822982D01*
X119447512Y-105822982D01*
X119447515Y-105822984D01*
X119587525Y-105860500D01*
X119587526Y-105860500D01*
X119732474Y-105860500D01*
X119732475Y-105860500D01*
X119872485Y-105822984D01*
X119872487Y-105822982D01*
X119872489Y-105822982D01*
X119998010Y-105750512D01*
X119998010Y-105750511D01*
X119998015Y-105750509D01*
X120100509Y-105648015D01*
X120152649Y-105557706D01*
X120172982Y-105522489D01*
X120172982Y-105522487D01*
X120172984Y-105522485D01*
X120210500Y-105382475D01*
X120210500Y-105237525D01*
X120172984Y-105097515D01*
X120172983Y-105097513D01*
X120123763Y-105012260D01*
X120110500Y-104962761D01*
X120110500Y-101327610D01*
X120129407Y-101269419D01*
X120139490Y-101257612D01*
X130273018Y-91124083D01*
X130317395Y-91098462D01*
X130412485Y-91072984D01*
X130412487Y-91072982D01*
X130412489Y-91072982D01*
X130538010Y-91000512D01*
X130538010Y-91000511D01*
X130538015Y-91000509D01*
X130640509Y-90898015D01*
X130712984Y-90772485D01*
X130750500Y-90632475D01*
X130750500Y-90487525D01*
X130712984Y-90347515D01*
X130712982Y-90347511D01*
X130712982Y-90347510D01*
X130640512Y-90221989D01*
X130640510Y-90221987D01*
X130640509Y-90221985D01*
X130538015Y-90119491D01*
X130538012Y-90119489D01*
X130538010Y-90119487D01*
X130412488Y-90047017D01*
X130412489Y-90047017D01*
X130382896Y-90039087D01*
X130272475Y-90009500D01*
X130127525Y-90009500D01*
X130065790Y-90026041D01*
X129987510Y-90047017D01*
X129861989Y-90119487D01*
X129759487Y-90221989D01*
X129687017Y-90347511D01*
X129687015Y-90347515D01*
X129661537Y-90442600D01*
X129635915Y-90486980D01*
X119299508Y-100823389D01*
X119299507Y-100823390D01*
X119240200Y-100926112D01*
X119240200Y-100926113D01*
X119240201Y-100926114D01*
X119209500Y-101040692D01*
X119209500Y-104962761D01*
X119196237Y-105012260D01*
X119147016Y-105097513D01*
X119115968Y-105213385D01*
X119109500Y-105237525D01*
X118720500Y-105237525D01*
X118720500Y-105213385D01*
X118693402Y-105042297D01*
X118693401Y-105042293D01*
X118639876Y-104877561D01*
X118639874Y-104877558D01*
X118639873Y-104877557D01*
X118639873Y-104877555D01*
X118561232Y-104723212D01*
X118459414Y-104583072D01*
X118336928Y-104460586D01*
X118196788Y-104358768D01*
X118196787Y-104358767D01*
X118196785Y-104358766D01*
X118042441Y-104280125D01*
X118042438Y-104280123D01*
X117877706Y-104226598D01*
X117877702Y-104226597D01*
X117706614Y-104199500D01*
X117706611Y-104199500D01*
X117533389Y-104199500D01*
X117533386Y-104199500D01*
X117362297Y-104226597D01*
X117362293Y-104226598D01*
X117197561Y-104280123D01*
X117197558Y-104280125D01*
X117043214Y-104358766D01*
X116903073Y-104460585D01*
X116780585Y-104583073D01*
X116678766Y-104723214D01*
X116600125Y-104877558D01*
X116600123Y-104877561D01*
X116546598Y-105042293D01*
X116546597Y-105042297D01*
X116519500Y-105213385D01*
X116180500Y-105213385D01*
X116153402Y-105042297D01*
X116153401Y-105042293D01*
X116099876Y-104877561D01*
X116099874Y-104877558D01*
X116099873Y-104877557D01*
X116099873Y-104877555D01*
X116021232Y-104723212D01*
X115919414Y-104583072D01*
X115796928Y-104460586D01*
X115656788Y-104358768D01*
X115656787Y-104358767D01*
X115656785Y-104358766D01*
X115502441Y-104280125D01*
X115502438Y-104280123D01*
X115337706Y-104226598D01*
X115337702Y-104226597D01*
X115166614Y-104199500D01*
X115166611Y-104199500D01*
X114993389Y-104199500D01*
X114993386Y-104199500D01*
X114822297Y-104226597D01*
X114822293Y-104226598D01*
X114657561Y-104280123D01*
X114657558Y-104280125D01*
X114503214Y-104358766D01*
X114363073Y-104460585D01*
X114240585Y-104583073D01*
X114138766Y-104723214D01*
X114060125Y-104877558D01*
X114035323Y-104953888D01*
X113999359Y-105003388D01*
X113941167Y-105022294D01*
X113882977Y-105003386D01*
X113847014Y-104953886D01*
X113791096Y-104781786D01*
X113694623Y-104592446D01*
X113694619Y-104592440D01*
X113655270Y-104538282D01*
X113655269Y-104538282D01*
X113022962Y-105170589D01*
X113005925Y-105107007D01*
X112940099Y-104992993D01*
X112847007Y-104899901D01*
X112732993Y-104834075D01*
X112669407Y-104817037D01*
X113301716Y-104184729D01*
X113301716Y-104184728D01*
X113247559Y-104145380D01*
X113247553Y-104145376D01*
X113058215Y-104048904D01*
X112856121Y-103983240D01*
X112646250Y-103950000D01*
X112433750Y-103950000D01*
X112223878Y-103983240D01*
X112021784Y-104048904D01*
X111832446Y-104145376D01*
X111832442Y-104145378D01*
X111778282Y-104184728D01*
X112410591Y-104817037D01*
X112347007Y-104834075D01*
X112232993Y-104899901D01*
X112139901Y-104992993D01*
X112074075Y-105107007D01*
X112057037Y-105170591D01*
X111424728Y-104538282D01*
X111385378Y-104592442D01*
X111385376Y-104592446D01*
X111288904Y-104781784D01*
X111232985Y-104953887D01*
X111197021Y-105003387D01*
X111138830Y-105022294D01*
X111080639Y-105003387D01*
X111044676Y-104953887D01*
X111019876Y-104877561D01*
X111019874Y-104877558D01*
X111019873Y-104877557D01*
X111019873Y-104877555D01*
X110941232Y-104723212D01*
X110839414Y-104583072D01*
X110716928Y-104460586D01*
X110576788Y-104358768D01*
X110576787Y-104358767D01*
X110576785Y-104358766D01*
X110482390Y-104310670D01*
X110482388Y-104310668D01*
X110422447Y-104280127D01*
X110422438Y-104280123D01*
X110257706Y-104226598D01*
X110257702Y-104226597D01*
X110086614Y-104199500D01*
X110086611Y-104199500D01*
X109913389Y-104199500D01*
X109913386Y-104199500D01*
X109742297Y-104226597D01*
X109742293Y-104226598D01*
X109577561Y-104280123D01*
X109577558Y-104280125D01*
X109423214Y-104358766D01*
X109283073Y-104460585D01*
X109160585Y-104583073D01*
X109058766Y-104723214D01*
X108980125Y-104877558D01*
X108980123Y-104877561D01*
X108926598Y-105042293D01*
X108926597Y-105042297D01*
X108899500Y-105213385D01*
X108560500Y-105213385D01*
X108533402Y-105042297D01*
X108533401Y-105042293D01*
X108479876Y-104877561D01*
X108479874Y-104877558D01*
X108479873Y-104877557D01*
X108479873Y-104877555D01*
X108401232Y-104723212D01*
X108299414Y-104583072D01*
X108176928Y-104460586D01*
X108036788Y-104358768D01*
X108036787Y-104358767D01*
X108036785Y-104358766D01*
X107882441Y-104280125D01*
X107882438Y-104280123D01*
X107717706Y-104226598D01*
X107717702Y-104226597D01*
X107546614Y-104199500D01*
X107546611Y-104199500D01*
X107373389Y-104199500D01*
X107373386Y-104199500D01*
X107202297Y-104226597D01*
X107202293Y-104226598D01*
X107037561Y-104280123D01*
X107037558Y-104280125D01*
X106883214Y-104358766D01*
X106743073Y-104460585D01*
X106620585Y-104583073D01*
X106518766Y-104723214D01*
X106440125Y-104877558D01*
X106440123Y-104877561D01*
X106386598Y-105042293D01*
X106386597Y-105042297D01*
X106359500Y-105213385D01*
X106020500Y-105213385D01*
X106020500Y-104425326D01*
X106005966Y-104352260D01*
X105957768Y-104280125D01*
X105950602Y-104269400D01*
X105950599Y-104269397D01*
X105867742Y-104214035D01*
X105867740Y-104214034D01*
X105867737Y-104214033D01*
X105867736Y-104214033D01*
X105794684Y-104199501D01*
X105794674Y-104199500D01*
X104045326Y-104199500D01*
X104045325Y-104199500D01*
X104045315Y-104199501D01*
X103972263Y-104214033D01*
X103972257Y-104214035D01*
X103889400Y-104269397D01*
X103889397Y-104269400D01*
X103834035Y-104352257D01*
X103834033Y-104352263D01*
X103819501Y-104425315D01*
X103819500Y-104425327D01*
X85382208Y-104425327D01*
X85388721Y-104397725D01*
X95214023Y-62761091D01*
X95245790Y-62708798D01*
X95302227Y-62685164D01*
X95310377Y-62684828D01*
X96296417Y-62684828D01*
X190206011Y-124078719D01*
G37*
%TD.AperFunction*%
%TD*%
M02*
